<svg xmlns="http://www.w3.org/2000/svg" viewBox="0 0 500 500"><defs><style>.a{fill:#092135;}.b,.c,.d,.e{fill:#fff;}.b{opacity:0.5;}.d{opacity:0.25;}.e{opacity:0.15;}</style></defs><rect class="a" width="500" height="500"/><path class="b" d="M69,194.59a2.12,2.12,0,1,1,2.12-2.12A2.12,2.12,0,0,1,69,194.59Z"/><circle class="c" cx="81.33" cy="164.88" r="2.78"/><circle class="d" cx="103.78" cy="198.41" r="2.55"/><path class="b" d="M122,133.26a3.19,3.19,0,1,1,3.19-3.18A3.19,3.19,0,0,1,122,133.26Z"/><path class="c" d="M47.12,180.16a.85.85,0,1,1,.85-.85A.85.85,0,0,1,47.12,180.16Z"/><path class="c" d="M69,223.34a1.59,1.59,0,1,1,1.59-1.59A1.59,1.59,0,0,1,69,223.34Z"/><path class="c" d="M90,116.07a.64.64,0,0,1-.64-.64.64.64,0,0,1,1.28,0A.64.64,0,0,1,90,116.07Z"/><circle class="d" cx="28.01" cy="287.76" r="1.7"/><path class="c" d="M63.89,54.74A2.13,2.13,0,1,1,66,52.62,2.12,2.12,0,0,1,63.89,54.74Z"/><path class="b" d="M431.34,61.21a.74.74,0,1,1,0-1.48.74.74,0,1,1,0,1.48Z"/><circle class="b" cx="18.37" cy="0.85" r="0.85"/><path class="c" d="M15.08,77a.85.85,0,1,1,.85-.85A.85.85,0,0,1,15.08,77Z"/><path class="b" d="M157.26,64.15a1.84,1.84,0,1,1,1.84-1.84A1.85,1.85,0,0,1,157.26,64.15Z"/><circle class="c" cx="109.3" cy="25.67" r="1.17"/><path class="d" d="M81.33,60.68a.53.53,0,0,0,0,1.06.53.53,0,0,0,0-1.06Z"/><path class="b" d="M92.54,10.6a1.91,1.91,0,1,1,1.91-1.91A1.91,1.91,0,0,1,92.54,10.6Z"/><path class="c" d="M185.51,240a3.19,3.19,0,1,1,3.18-3.19A3.18,3.18,0,0,1,185.51,240Z"/><circle class="b" cx="172.12" cy="96.97" r="1.38"/><path class="c" d="M240.26,65.21a.64.64,0,0,1-.64-.64.64.64,0,0,1,.64-.63.63.63,0,0,1,.63.63A.64.64,0,0,1,240.26,65.21Z"/><path class="c" d="M155.42,9.78a1.1,1.1,0,1,1,1.1-1.09A1.09,1.09,0,0,1,155.42,9.78Z"/><path class="d" d="M115,50.71a1.28,1.28,0,1,1,1.27-1.28A1.27,1.27,0,0,1,115,50.71Z"/><path class="c" d="M118.21,12.14a.38.38,0,1,1,.38-.38A.38.38,0,0,1,118.21,12.14Z"/><path class="c" d="M18.9,112.25a.53.53,0,1,1,0-1.06.53.53,0,1,1,0,1.06Z"/><path class="c" d="M46.27,119.15a1.17,1.17,0,1,1,0-2.34,1.17,1.17,0,0,1,0,2.34Z"/><path class="c" d="M29.51,221.75a1.59,1.59,0,1,1,1.59-1.59A1.59,1.59,0,0,1,29.51,221.75Z"/><circle class="c" cx="161.51" cy="158.51" r="2.41"/><circle class="b" cx="224.75" cy="112.25" r="1.27"/><path class="c" d="M287.69,82.42A2.33,2.33,0,1,1,290,80.09,2.33,2.33,0,0,1,287.69,82.42Z"/><path class="c" d="M330.85,86.68a2.3,2.3,0,1,1,2.3-2.3A2.29,2.29,0,0,1,330.85,86.68Z"/><circle class="b" cx="350.8" cy="113.52" r="2.28"/><circle class="b" cx="384.33" cy="195.44" r="1.49"/><path class="b" d="M409.37,25.24a2.12,2.12,0,1,1,2.13-2.12A2.12,2.12,0,0,1,409.37,25.24Z"/><path class="c" d="M416.59,74.9a3,3,0,1,1,3-3A3,3,0,0,1,416.59,74.9Z"/><path class="d" d="M482.8,99.09a3,3,0,1,1,3-3A3,3,0,0,1,482.8,99.09Z"/><path class="b" d="M482.8,177a3,3,0,1,1,3-3A3,3,0,0,1,482.8,177Z"/><path class="c" d="M459.46,161.48a1.27,1.27,0,1,1,1.27-1.27A1.27,1.27,0,0,1,459.46,161.48Z"/><path class="b" d="M459.46,123.28a1.27,1.27,0,1,1,1.27-1.27A1.27,1.27,0,0,1,459.46,123.28Z"/><path class="c" d="M482.8,229a3,3,0,1,1,3-3A3,3,0,0,1,482.8,229Z"/><circle class="d" cx="464.55" cy="42.64" r="3.82"/><path class="d" d="M422.11,218.57a4,4,0,1,1,4-4A4,4,0,0,1,422.11,218.57Z"/><path class="e" d="M139.86,234.06a7.08,7.08,0,1,1,7.07-7.07A7.07,7.07,0,0,1,139.86,234.06Z"/><path class="c" d="M399.61,140.47a1.91,1.91,0,1,1,1.91-1.91A1.91,1.91,0,0,1,399.61,140.47Z"/><path class="e" d="M338.49,221.54a3,3,0,1,1,3-3A3,3,0,0,1,338.49,221.54Z"/><path class="c" d="M389,90.18a1,1,0,1,1,1-1A1,1,0,0,1,389,90.18Z"/><path class="c" d="M453.45,262.21a.43.43,0,1,1,0-.85.43.43,0,0,1,0,.85Z"/><path class="c" d="M395.51,227.84a.43.43,0,1,1,.42-.43A.42.42,0,0,1,395.51,227.84Z"/><path class="c" d="M425.08,109.56a.43.43,0,1,1,.42-.42A.42.42,0,0,1,425.08,109.56Z"/><path class="b" d="M431,305.41a2.12,2.12,0,1,1-2.12,2.12A2.12,2.12,0,0,1,431,305.41Z"/><circle class="c" cx="418.67" cy="335.12" r="2.78"/><circle class="d" cx="396.22" cy="301.59" r="2.55"/><path class="b" d="M378,366.74a3.19,3.19,0,1,1-3.19,3.18A3.19,3.19,0,0,1,378,366.74Z"/><path class="c" d="M452.88,319.84a.85.85,0,1,1-.85.85A.85.85,0,0,1,452.88,319.84Z"/><path class="c" d="M431,276.66a1.59,1.59,0,1,1-1.59,1.59A1.59,1.59,0,0,1,431,276.66Z"/><path class="c" d="M410,383.93a.64.64,0,0,1,.64.64.64.64,0,0,1-1.28,0A.64.64,0,0,1,410,383.93Z"/><circle class="d" cx="471.99" cy="212.24" r="1.7" transform="translate(186.57 643.93) rotate(-80.74)"/><path class="c" d="M436.11,445.26a2.13,2.13,0,1,1-2.12,2.12A2.12,2.12,0,0,1,436.11,445.26Z"/><path class="b" d="M68.66,438.79a.74.74,0,1,1,0,1.48.74.74,0,1,1,0-1.48Z"/><circle class="b" cx="481.63" cy="499.15" r="0.85"/><path class="c" d="M484.92,423a.85.85,0,1,1-.85.85A.85.85,0,0,1,484.92,423Z"/><path class="b" d="M342.74,435.85a1.84,1.84,0,1,1-1.84,1.84A1.85,1.85,0,0,1,342.74,435.85Z"/><circle class="c" cx="390.7" cy="474.33" r="1.17"/><path class="d" d="M418.67,439.32a.53.53,0,1,0,0-1.06.53.53,0,1,0,0,1.06Z"/><path class="b" d="M407.46,489.4a1.91,1.91,0,1,1-1.91,1.91A1.91,1.91,0,0,1,407.46,489.4Z"/><path class="c" d="M304.29,258.18a3.18,3.18,0,1,1-3.19,3.18A3.18,3.18,0,0,1,304.29,258.18Z"/><circle class="b" cx="327.88" cy="403.03" r="1.38"/><path class="c" d="M259.74,434.79a.64.64,0,0,1,.64.64.64.64,0,0,1-.64.63.63.63,0,0,1-.63-.63A.64.64,0,0,1,259.74,434.79Z"/><path class="c" d="M344.58,490.22a1.1,1.1,0,1,1-1.1,1.09A1.09,1.09,0,0,1,344.58,490.22Z"/><path class="d" d="M385,449.29a1.28,1.28,0,1,1-1.27,1.28A1.27,1.27,0,0,1,385,449.29Z"/><path class="c" d="M381.79,487.86a.38.38,0,0,1,0,.75.38.38,0,0,1,0-.75Z"/><path class="c" d="M481.1,387.75a.53.53,0,1,1,0,1.06.53.53,0,1,1,0-1.06Z"/><path class="c" d="M453.73,380.85a1.17,1.17,0,0,1,0,2.34,1.17,1.17,0,0,1,0-2.34Z"/><path class="c" d="M485.77,314a1.6,1.6,0,1,1-1.59,1.59A1.59,1.59,0,0,1,485.77,314Z"/><circle class="c" cx="317.61" cy="330.92" r="2.41"/><circle class="b" cx="275.25" cy="387.75" r="1.27"/><path class="c" d="M212.31,417.58a2.33,2.33,0,1,1-2.32,2.33A2.33,2.33,0,0,1,212.31,417.58Z"/><path class="c" d="M164.75,438a2.3,2.3,0,1,1-2.3,2.29A2.29,2.29,0,0,1,164.75,438Z"/><circle class="b" cx="149.2" cy="386.48" r="2.28"/><circle class="b" cx="115.67" cy="304.56" r="1.49"/><path class="b" d="M90.63,474.76a2.12,2.12,0,1,1-2.13,2.12A2.12,2.12,0,0,1,90.63,474.76Z"/><path class="c" d="M114.18,431.82a3,3,0,1,1-3,3A3,3,0,0,1,114.18,431.82Z"/><path class="d" d="M17.2,400.91a3,3,0,1,1-3,3A3,3,0,0,1,17.2,400.91Z"/><path class="b" d="M17.2,323a3,3,0,1,1-3,3A3,3,0,0,1,17.2,323Z"/><path class="c" d="M40.54,338.52a1.27,1.27,0,1,1-1.27,1.27A1.27,1.27,0,0,1,40.54,338.52Z"/><path class="b" d="M40.54,376.72A1.27,1.27,0,1,1,39.27,378,1.27,1.27,0,0,1,40.54,376.72Z"/><path class="c" d="M14.23,188a3,3,0,1,1-3,3A3,3,0,0,1,14.23,188Z"/><circle class="d" cx="35.45" cy="457.36" r="3.82"/><path class="d" d="M77.89,281.43a4,4,0,1,1-4,4A4,4,0,0,1,77.89,281.43Z"/><path class="e" d="M360.14,265.94a7.08,7.08,0,1,1-7.07,7.07A7.07,7.07,0,0,1,360.14,265.94Z"/><path class="c" d="M100.39,359.53a1.91,1.91,0,1,1-1.91,1.91A1.91,1.91,0,0,1,100.39,359.53Z"/><path class="e" d="M173.5,298.6a3,3,0,1,1-3,3A3,3,0,0,1,173.5,298.6Z"/><path class="c" d="M111,409.82a1,1,0,1,1-1,1A1,1,0,0,1,111,409.82Z"/><path class="c" d="M46.55,237.79a.43.43,0,1,1,0,.85.43.43,0,0,1,0-.85Z"/><path class="c" d="M104.49,272.16a.43.43,0,1,1-.42.43A.42.42,0,0,1,104.49,272.16Z"/><path class="c" d="M74.92,390.44a.43.43,0,1,1-.42.42A.42.42,0,0,1,74.92,390.44Z"/></svg>