<svg xmlns="http://www.w3.org/2000/svg" viewBox="0 0 78.59 108.99"><defs><style>.a{fill:#e48c3e;}.b{fill:#ebb750;}.c{fill:#304d78;}.d{fill:#70afdf;}.e{fill:#92cef6;}.f{fill:#d3f3fc;}.g{fill:#dfdfdf;}.h{fill:#f9f9f9;}.i{fill:#3c608d;}.j{fill:#8fc8eb;}.k{fill:#d1f3f7;}.l{fill:#fcfdfd;}</style></defs><path class="a" d="M23.67,53.19C3,53.19,0,107.22,0,107.22L23.67,82.1S30.9,53.19,23.67,53.19Z"/><path class="b" d="M18.78,87.29,0,107.22s2.1-38.28,15.12-50.4C15.13,66.5,15.38,77.78,18.78,87.29Z"/><path class="c" d="M44.58,80.14l-5.29.35L34,80.14l-2.48,7.62a31.62,31.62,0,0,0,7.76,1.38,31.63,31.63,0,0,0,7.77-1.38Z"/><path class="d" d="M33.94,95.76c0,3,5.35,13.23,5.35,13.23s5.36-10.27,5.36-13.23a5.36,5.36,0,0,0-10.71,0Z"/><path class="e" d="M35.79,94.27c0,1.93,3.5,8.67,3.5,8.67s3.51-6.74,3.51-8.67a3.51,3.51,0,1,0-7,0Z"/><path class="f" d="M37.82,93a16.67,16.67,0,0,0,1.47,3.66A16.61,16.61,0,0,0,40.77,93a1.48,1.48,0,0,0-3,0Z"/><path class="a" d="M54.92,53.19c20.7,0,23.67,54,23.67,54L54.92,82.1S47.69,53.19,54.92,53.19Z"/><path class="b" d="M59.81,87.29l18.78,19.93s-2.1-38.28-15.12-50.4C63.46,66.5,63.21,77.78,59.81,87.29Z"/><path class="g" d="M52.87,91.65C51.4,85.51,41.68,80.82,39.29,80.82s-12.1,4.69-13.57,10.83a75.89,75.89,0,0,1-8.17-48.44A84.84,84.84,0,0,1,39.29,0,84.81,84.81,0,0,1,61,43.21,75.89,75.89,0,0,1,52.87,91.65Z"/><path class="h" d="M39.29,0s43.45,74,0,74S39.29,0,39.29,0Z"/><path class="i" d="M39.29,82.42c-1,0-5.52,3-5.52,3l-.81,2a31.24,31.24,0,0,0,6.33.91,31.26,31.26,0,0,0,6.34-.91l-1.1-2.71S40.16,82.42,39.29,82.42Z"/><circle class="c" cx="39.29" cy="50" r="10.71"/><circle class="j" cx="39.29" cy="50" r="8.99" transform="matrix(0.92, -0.38, 0.38, 0.92, -16.21, 18.95)"/><circle class="k" cx="39.29" cy="50" r="8.13" transform="translate(-18.38 76.8) rotate(-76.76)"/><path class="l" d="M47.42,50a8.09,8.09,0,0,0-2.81-6.13L33.16,55.32a8.14,8.14,0,0,0,6.13,2.81,7,7,0,0,0,.92-.06l7.16-7.15C47.4,50.62,47.42,50.31,47.42,50Z"/><path class="l" d="M31.2,50.54a7.92,7.92,0,0,0,.81,3L42.87,42.71a8.21,8.21,0,0,0-3-.81Z"/></svg>