<svg xmlns="http://www.w3.org/2000/svg" viewBox="0 0 206.2 354.8"><defs><style>.a{fill:#f26522;}.b{fill:#1f2121;}.c{fill:#0a82a3;}</style></defs><path class="a" d="M34.6,106.6C16.2,124,16.8,166,16.8,166V341.9H52.4V166S53,124,34.6,106.6Z"/><path class="b" d="M55.9,345.4H13.3V166c0-1.7-.4-43.6,18.9-62l2.4-2.3L37,104c19.3,18.3,19,60.2,18.9,62Zm-35.6-7H49V166c0-.4.3-36.8-14.3-54.3C20.1,129.2,20.4,165.6,20.4,166Z"/><polygon class="c" points="55.4 351.3 13.8 351.3 16.8 326.3 51.8 326.3 55.4 351.3"/><path class="b" d="M59.4,354.8H9.9l3.7-32H54.8Zm-41.6-7H51.4l-2.6-18H19.9Z"/><path class="a" d="M171.7,106.6c18.4,17.5,17.8,59.4,17.8,59.4V341.9H153.8V166S153.2,124,171.7,106.6Z"/><path class="b" d="M193,345.4H150.3V166c0-1.7-.4-43.6,18.9-62l2.4-2.3L174,104c19.3,18.3,19,60.2,18.9,62Zm-35.7-7H186V166c0-.4.3-36.8-14.3-54.3-14.6,17.5-14.3,53.9-14.3,54.3Z"/><polygon class="c" points="150.9 351.3 192.4 351.3 189.5 326.3 154.4 326.3 150.9 351.3"/><path class="b" d="M196.4,354.8H146.9l4.5-32h41.2Zm-41.5-7h33.6l-2.1-18H157.5Z"/><path class="c" d="M103.1,5.6C71.2,44.7,62.6,95.9,62.6,95.9V296.5h81V95.9C143.7,95.9,133,45.2,103.1,5.6Z"/><path class="b" d="M147.2,300h-88V95.4c.4-2.1,9.2-52.5,41.3-91.9L103.3,0,106,3.6c30,39.8,40.7,89.6,41.2,91.7l.1.4V300Zm-81.1-7h74V96.3c-1-4.3-11.3-48.6-37.1-84.9C75.5,47.3,66.8,92.3,66.1,96.2V293Z"/><path class="c" d="M80.8,195.6S65,236.2,35.5,256.8,3.8,306.3,3.8,306.3H75.5Z"/><path class="b" d="M78.8,309.8H0L.3,306c.1-1.3,2.6-30.9,33.1-52.2,28.3-19.7,43.9-59.2,44.1-59.6l7.8-20Zm-70.9-7H72.2l4.3-90c-7.5,14-20.6,34-39,46.8C15.9,274.7,9.6,294.6,7.9,302.8Z"/><path class="c" d="M125.5,195.6s15.8,40.6,45.3,61.2,31.6,49.6,31.6,49.6H130.8Z"/><path class="b" d="M206.2,309.8H127.4L121,174.4l7.8,19.9c.2.4,15.8,39.9,44.1,59.6,30.5,21.3,33,50.9,33.1,52.2Zm-72.1-7h64.3c-1.7-8.2-7.9-28.2-29.5-43.2-18.5-12.8-31.5-32.8-39.1-46.8Z"/><rect class="c" x="79.7" y="304.2001" width="46.9" height="29.5"/><path class="b" d="M130.1,337.2H76.2V300.7h53.9v36.5Zm-46.9-7h39.9V307.7H83.2Z"/><path class="a" d="M103.1,117.6c-30.9,14.7-29.9,90-29.9,90v108H133v-108S134,132.3,103.1,117.6Z"/><path class="b" d="M136.5,319.1H69.7V207.6c0-3.1-.6-77.7,31.9-93.2l1.5-.7,1.5.7c32.5,15.5,31.9,90.1,31.9,93.3Zm-59.8-7h52.8V207.6c0-.8.6-70.7-26.4-86.1-27,15.4-26.4,85.3-26.4,86.1Z"/><rect class="b" x="59.2" y="261.0001" width="7" height="45.3"/><rect class="b" x="38.8" y="278.6" width="7" height="27.7"/><rect class="b" x="140.1" y="261.0001" width="7" height="45.3"/><rect class="b" x="160.5" y="278.6" width="7" height="27.7"/><path class="c" d="M109.4,347.1H96.9v-95a6.1671,6.1671,0,0,1,6.2-6.2h0a6.1671,6.1671,0,0,1,6.2,6.2v95Z"/><path class="b" d="M112.9,350.6H93.4V252.1a9.7,9.7,0,0,1,19.4,0v98.5Zm-12.5-7h5.5V252.1a2.7,2.7,0,0,0-5.4,0v91.5Z"/><polygon class="c" points="73.2 227.7 89.1 238.2 89.1 272.1 73.2 279.7 73.2 227.7"/><path class="b" d="M73.2,283.2a4.1362,4.1362,0,0,1-1.9-.5,3.5263,3.5263,0,0,1-1.6-3v-52a3.5318,3.5318,0,0,1,1.8-3.1,3.5812,3.5812,0,0,1,3.6.2L91,235.3a3.3559,3.3559,0,0,1,1.6,2.9v33.9a3.5629,3.5629,0,0,1-2,3.2l-15.9,7.6A4.0145,4.0145,0,0,1,73.2,283.2Zm3.5-49v39.9l8.9-4.2V240.1Z"/><polygon class="c" points="133 227.7 117.1 238.2 117.1 272.1 133 279.7 133 227.7"/><path class="b" d="M133,283.2a4.0126,4.0126,0,0,1-1.5-.3l-15.9-7.6a3.5627,3.5627,0,0,1-2-3.2V238.2a3.3562,3.3562,0,0,1,1.6-2.9l15.9-10.5a3.5814,3.5814,0,0,1,3.6-.2,3.5318,3.5318,0,0,1,1.8,3.1v52a3.6571,3.6571,0,0,1-1.6,3A4.135,4.135,0,0,1,133,283.2Zm-12.4-13.3,8.9,4.2V234.2l-8.9,5.9Z"/><rect class="b" x="16.8" y="169.5001" width="17.8" height="7"/><rect class="b" x="16.8" y="189.5001" width="17.8" height="7"/><rect class="b" x="171.7" y="169.5001" width="17.8" height="7"/><rect class="b" x="171.7" y="189.5001" width="17.8" height="7"/><rect class="b" x="62.6" y="92.4" width="81" height="7"/></svg>