<svg xmlns="http://www.w3.org/2000/svg" viewBox="0 0 98.88 148.02"><defs><style>.a{fill:#d6b9b9;}.b{fill:#b79797;}.c{fill:#9b342f;}.d{fill:#6d1f1f;}.e{fill:#3f1212;}.e,.j{opacity:0.3;}.f{fill:#5b1a1a;}.g{fill:#b25f5f;}.h{fill:#994747;}.i{fill:#262e3f;}.j{fill:#0f1216;}.k{fill:#fff;opacity:0.2;}.l{fill:none;stroke:#d6b9b9;stroke-linecap:round;stroke-miterlimit:10;stroke-width:1.1px;}</style></defs><path class="a" d="M61,145.8H37.91a11,11,0,0,1-11-11v-9.05a11,11,0,0,1,11-11H61a11,11,0,0,1,11,11v9.05A11,11,0,0,1,61,145.8Z"/><path class="b" d="M37.91,145.8s.36-.19,1-.44a21.85,21.85,0,0,1,2.62-.83,32.64,32.64,0,0,1,7.92-.92,33.14,33.14,0,0,1,7.92.92,19.28,19.28,0,0,1,2.61.84,9.84,9.84,0,0,1,1,.43Z"/><path class="c" d="M56.84,21.19H42C31.51,31.75,13.75,55.57,16.35,94.41a129.48,129.48,0,0,0,2.86,19.49c.35,1.56.73,3.15,1.14,4.75,6.57-3.8,36.94-22.77,58.56-59.73A88.69,88.69,0,0,0,56.84,21.19Z"/><path class="d" d="M49.44,14.76A56.71,56.71,0,0,0,42,21.19H56.84A57.11,57.11,0,0,0,49.44,14.76Z"/><path class="c" d="M35.23,130.3H75c5.41-15.94,7.63-30.12,7.73-42.61C75.86,96.22,57.87,116.8,35.23,130.3Z"/><path class="a" d="M82.77,87.69a99.77,99.77,0,0,0-3.86-28.77c-21.62,37-52,55.93-58.56,59.73.07.24.12.49.19.73q1.39,5.33,3.29,10.92h11.4C57.87,116.8,75.86,96.22,82.77,87.69Z"/><path class="e" d="M20.54,119.38q-.73-2.77-1.33-5.48a129.48,129.48,0,0,1-2.86-19.49s0,0,0,0a2.43,2.43,0,0,1,.25.2c.14.13.29.27.42.41s.39.42.57.64a9.52,9.52,0,0,1,.65.88c.25.37.49.75.7,1.14s.5,1,.71,1.43.47,1.15.67,1.73.41,1.37.57,2.06a24.16,24.16,0,0,1,.45,2.4c.13.91.22,1.83.27,2.75s.07,2.09.05,3.14-.1,2.36-.22,3.54c-.06.64-.13,1.28-.22,1.92,0,.33-.09.67-.14,1a4.26,4.26,0,0,1-.13.62,4.16,4.16,0,0,1-.24.73,1.71,1.71,0,0,1-.13.23A.62.62,0,0,1,20.54,119.38Z"/><path class="e" d="M78.33,119.38q.73-2.77,1.33-5.48a129.48,129.48,0,0,0,2.86-19.49s0,0,0,0a2.43,2.43,0,0,0-.25.2c-.14.13-.29.27-.42.41s-.39.42-.57.64a9.52,9.52,0,0,0-.65.88c-.25.37-.49.75-.71,1.14s-.49,1-.7,1.43-.47,1.15-.67,1.73-.41,1.37-.57,2.06a24.16,24.16,0,0,0-.45,2.4c-.13.91-.22,1.83-.27,2.75s-.07,2.09,0,3.14.1,2.36.22,3.54c.06.64.13,1.28.22,1.92,0,.33.09.67.14,1a4.26,4.26,0,0,0,.13.62,4.16,4.16,0,0,0,.24.73l.12.23S78.33,119.39,78.33,119.38Z"/><path class="d" d="M82.61,93s16.68-2.3,15.31,23.68H92.16s-1.19-7.38-11.64-7.84a33.83,33.83,0,0,1-.62-8.7C80.12,97.46,80.83,94.73,82.61,93Z"/><path class="f" d="M95,116.72H92.16s-1.19-7.38-11.64-7.84a33.83,33.83,0,0,1-.62-8.7S92.11,98.69,95,116.72Z"/><path class="g" d="M92.25,122.1h5.53a1.1,1.1,0,0,0,1.1-1.1v-4a1.11,1.11,0,0,0-1.1-1.1H92.25a1.1,1.1,0,0,0-1.09,1.1v4A1.09,1.09,0,0,0,92.25,122.1Z"/><path class="h" d="M98.88,119v2a1.1,1.1,0,0,1-1.1,1.1H92.25a1.09,1.09,0,0,1-1.09-1.1v-2Z"/><path class="g" d="M52.2,122.1H46.67a1.09,1.09,0,0,1-1.09-1.1v-4a1.1,1.1,0,0,1,1.09-1.1H52.2a1.11,1.11,0,0,1,1.1,1.1v4A1.1,1.1,0,0,1,52.2,122.1Z"/><path class="h" d="M45.58,119v2a1.09,1.09,0,0,0,1.09,1.1H52.2a1.1,1.1,0,0,0,1.1-1.1v-2Z"/><path class="d" d="M49.44,93s-15.23,0-2.11,22.93h4.21C64.67,93,49.44,93,49.44,93Z"/><path class="d" d="M16.27,93S-.41,90.74,1,116.72H6.72s1.18-7.38,11.64-7.84a33.56,33.56,0,0,0,.61-8.7C18.76,97.46,18,94.73,16.27,93Z"/><path class="f" d="M3.86,116.72H6.72s1.18-7.38,11.64-7.84a33.56,33.56,0,0,0,.61-8.7S6.76,98.69,3.86,116.72Z"/><path class="g" d="M6.62,122.1H1.1A1.1,1.1,0,0,1,0,121v-4a1.1,1.1,0,0,1,1.1-1.1H6.62a1.1,1.1,0,0,1,1.1,1.1v4A1.1,1.1,0,0,1,6.62,122.1Z"/><path class="h" d="M0,119v2a1.1,1.1,0,0,0,1.1,1.1H6.62a1.1,1.1,0,0,0,1.1-1.1v-2Z"/><path class="d" d="M49.44,44.2a17.29,17.29,0,0,1,17.2,15.65c0-.54.08-1.08.08-1.64a17.29,17.29,0,0,0-34.57,0c0,.56,0,1.1.08,1.64A17.29,17.29,0,0,1,49.44,44.2Z"/><ellipse class="i" cx="49.44" cy="59.85" rx="17.2" ry="15.65"/><path class="j" d="M66.57,59.25a17.28,17.28,0,0,1-34.27,0l-.07.6a17.28,17.28,0,0,0,34.41,0Z"/><path class="k" d="M57.75,46.35l-23,20.95a17.46,17.46,0,0,0,4.67,5l23.16-22A17.59,17.59,0,0,0,57.75,46.35Z"/><path class="k" d="M63.34,51.25,40.4,72.94a16.5,16.5,0,0,0,2.69,1.35L64.91,53.8A16.63,16.63,0,0,0,63.34,51.25Z"/><path class="d" d="M77.62,134.74H21.26a1.09,1.09,0,0,1-1.1-1.09V131.4a1.1,1.1,0,0,1,1.1-1.1H77.62a1.1,1.1,0,0,1,1.09,1.1v2.25A1.09,1.09,0,0,1,77.62,134.74Z"/><path class="f" d="M78.71,132.52v1.13a1.09,1.09,0,0,1-1.09,1.09H21.26a1.09,1.09,0,0,1-1.1-1.09v-1.13Z"/><path class="f" d="M61.25,145.8v1.12a1.09,1.09,0,0,1-1.09,1.1H38.65a1.09,1.09,0,0,1-1.09-1.1V145.8Z"/><line class="l" x1="49.44" y1="15.14" x2="49.44" y2="3.6"/><path class="d" d="M51.94,2.5A2.5,2.5,0,1,0,49.44,5,2.5,2.5,0,0,0,51.94,2.5Z"/></svg>