<?xml version="1.0" encoding="utf-8"?>
<!-- Generator: Adobe Illustrator 25.2.0, SVG Export Plug-In . SVG Version: 6.00 Build 0)  -->
<svg version="1.1" id="Layer_1" xmlns="http://www.w3.org/2000/svg" xmlns:xlink="http://www.w3.org/1999/xlink" x="0px" y="0px"
	 viewBox="0 0 249.9 578.2" style="enable-background:new 0 0 249.9 578.2;" xml:space="preserve">
<style type="text/css">
	.st0{fill:#4D4D4D;}
	.st1{fill:url(#SVGID_1_);}
	.st2{fill:url(#SVGID_2_);}
	.st3{fill:url(#SVGID_3_);}
	.st4{fill:#333333;}
	.st5{fill:#E84D35;}
	.st6{fill:#952145;fill-opacity:0.2;}
	.st7{fill:#333333;fill-opacity:0.7;}
	.st8{fill:#FFFFFF;fill-opacity:0.2;}
	.st9{fill:#0A090B;fill-opacity:0.2;}
	.st10{opacity:0.2;fill:#0B0A0C;enable-background:new    ;}
	.st11{opacity:0.1;fill:#FFFFFF;enable-background:new    ;}
	.st12{opacity:0.2;fill:#FFFFFF;enable-background:new    ;}
	.st13{opacity:0.3;fill:#0B0A0C;enable-background:new    ;}
	.st14{opacity:0.4;fill:url(#SVGID_4_);enable-background:new    ;}
	.st15{fill:#808080;}
	.st16{fill:#808080;fill-opacity:0.7;}
	.st17{fill-opacity:0.7;}
	.st18{opacity:0.4;fill:url(#SVGID_5_);enable-background:new    ;}
	.st19{fill:#0B0A0C;}
	.st20{fill:url(#SVGID_6_);}
	.st21{fill:#1A1A1A;}
	.st22{fill:url(#SVGID_7_);}
	.st23{fill:#682563;}
	.st24{fill:url(#SVGID_8_);}
	.st25{fill:url(#SVGID_9_);}
	.st26{fill:url(#SVGID_10_);}
	.st27{fill:url(#SVGID_11_);}
	.st28{fill:url(#SVGID_12_);}
	.st29{fill:url(#SVGID_13_);}
	.st30{fill:url(#SVGID_14_);}
	.st31{fill:url(#SVGID_15_);}
	.st32{fill:url(#SVGID_16_);}
	.st33{fill:url(#SVGID_17_);}
	.st34{fill:url(#SVGID_18_);}
	.st35{fill:url(#SVGID_19_);}
	.st36{fill:url(#SVGID_20_);}
	.st37{fill:url(#SVGID_21_);}
	.st38{fill:url(#SVGID_22_);}
	.st39{fill:url(#SVGID_23_);}
	.st40{fill:url(#SVGID_24_);}
	.st41{fill:url(#SVGID_25_);}
	.st42{fill:url(#SVGID_26_);}
	.st43{fill:url(#SVGID_27_);}
	.st44{fill:url(#SVGID_28_);}
	.st45{fill:url(#SVGID_29_);}
	.st46{fill:url(#SVGID_30_);}
	.st47{fill:url(#SVGID_31_);}
	.st48{fill:url(#SVGID_32_);}
	.st49{fill:url(#SVGID_33_);}
	.st50{fill:url(#SVGID_34_);}
	.st51{fill:url(#SVGID_35_);}
	.st52{fill:url(#SVGID_36_);}
	.st53{fill:url(#SVGID_37_);}
	.st54{fill:#1CACB7;}
	.st55{fill:#376E88;fill-opacity:0.3;}
	.st56{opacity:0.5;fill:url(#SVGID_38_);enable-background:new    ;}
	.st57{opacity:0.5;fill:url(#SVGID_39_);enable-background:new    ;}
</style>
<path d="M183.9,359.2c0,23.6-7,44.7-21.8,63.2c-0.4-17.2-4.6-34-9.7-50.2c11-2.4,22-6.6,31.4-13H183.9z"/>
<path class="st0" d="M187.9,356.4c-1.1,24.2-10.2,47.4-25.8,66c2-14.1,1.6-28.7-0.6-42.8c-1-6.4-1-6.2-1.7-9.4
	C169.9,367.3,179.4,362.6,187.9,356.4z"/>
<linearGradient id="SVGID_1_" gradientUnits="userSpaceOnUse" x1="160.2508" y1="213.2578" x2="253.9508" y2="79.5578" gradientTransform="matrix(0.8788 -0.4772 0.4772 0.8788 -125.8017 437.6348)">
	<stop  offset="0" style="stop-color:#FFC907;stop-opacity:0.2"/>
	<stop  offset="0.7" style="stop-color:#FFC907"/>
</linearGradient>
<path class="st1" d="M157.2,380l-30.9-11.8l-30.8,11.6c0,0-43.6,57.7-24.9,115.9c0,0,5.9-27.2,10-35.5c0,0,0.4,70.3,45.8,118
	c45.3-47.6,45.5-117.8,45.5-117.8c4.2,11.6,7.6,23.5,10.1,35.6C200.9,437.8,157.1,380,157.2,380L157.2,380z"/>
<linearGradient id="SVGID_2_" gradientUnits="userSpaceOnUse" x1="183.8352" y1="175.3919" x2="253.6352" y2="75.5919" gradientTransform="matrix(0.8788 -0.4772 0.4772 0.8788 -125.8017 437.6348)">
	<stop  offset="0" style="stop-color:#F89C1C;stop-opacity:0.2"/>
	<stop  offset="0.8" style="stop-color:#F89C1C"/>
</linearGradient>
<path class="st2" d="M149.4,378.3l-23-8.9l-23,8.7c0,0-32.5,43-18.5,86.5c0,0,4.4-20.3,7.5-26.5c0,0,0.3,52.5,34.1,88
	c33.8-35.4,34.1-87.8,34.1-87.8c3.2,6.2,7.5,26.5,7.5,26.5C182.2,421.5,149.5,378.3,149.4,378.3L149.4,378.3z"/>
<linearGradient id="SVGID_3_" gradientUnits="userSpaceOnUse" x1="193.4312" y1="165.0551" x2="243.7312" y2="84.8551" gradientTransform="matrix(0.8788 -0.4772 0.4772 0.8788 -125.8017 437.6348)">
	<stop  offset="0" style="stop-color:#F37720;stop-opacity:0.2"/>
	<stop  offset="0" style="stop-color:#F37720;stop-opacity:0.2"/>
	<stop  offset="0.9" style="stop-color:#F37720"/>
</linearGradient>
<path class="st3" d="M141.5,392.8l-15-5.8l-15,5.7c0,0-21.4,28-12.2,56.5c0,0,2.8-13.3,5-17.3c0,0,0.1,34.2,22.2,57.5
	c22.1-23.2,22.3-57.5,22.3-57.5c2,4,4.9,17.4,4.9,17.4C162.7,421,141.5,392.8,141.5,392.8L141.5,392.8z"/>
<path d="M24.2,257.8c0.2,7,0,4,0.5,9.2v-0.2l0.4,4.6l0.1,1.1l1.1,8.8V281l0.9,5l0.8,4.1l2,8l1,3.8l0.2,0.4l3.3,9.3l1.6,3.6l2.7,6
	l1.4,2.4c3.7,7.4,8.8,14,14.3,20.3c-15,23.3-25.3,49.3-30.4,76.5c-3.8-6.5-2.1-3.5-5-9.2c-3.2-6-2.2-3.8-3.4-6.6l-0.5-1.1
	C-7.8,353.1-4.5,305,24.2,257.8z"/>
<path class="st4" d="M24.2,257.8c0,8,1,16,2.1,24c-1.4,23.6,4.7,47.1,17.5,67c-10.6,20-16.1,45.8-19.7,71.6
	C-7.3,367.4-9.1,310.4,24.2,257.8L24.2,257.8z"/>
<path class="st5" d="M231.6,251.8c0,84-46.5,123-103.8,123s-103.7-41-103.7-123C24.1,151.4,95.5,70,129.5,70
	C167.5,70,231.5,151.4,231.6,251.8"/>
<path class="st6" d="M180.1,103.2c34.6,41.1,50.4,95.6,51.5,148.6c0,84-46.5,123-103.8,123s-103.7-41-103.7-123v-0.4
	c9.5,25.7,26.1,50,52.6,60.2c20.2,7.8,42,6,62.6,0.9C227.7,287.2,197.9,166.3,180.1,103.2z"/>
<path class="st6" d="M129.5,70c38,0,102,81.4,102,181.8c-0.1,12.1,0.1,5.2-1,20.8c-5.3-55.4-22.9-114.6-67-151.6
	c-13.2-11-29.7-20.7-47.3-20.6c-30.6,0.6-51,19.6-65.4,45.3c10.9-21.8,25.6-41.3,43.6-57.7C104,79.5,116.2,70.5,129.5,70L129.5,70z"
	/>
<path class="st6" d="M190.4,116.7c27.7,39.2,40.2,87.7,41.2,135.1c0,84-46.5,123-103.8,123c-19-0.4-39-4.2-54.8-15.3
	c10.5-9.4,44.8-14.2,58.3-16.3c74.6-13,85.5-99.7,76.3-161.5C204,159.5,198.3,137.7,190.4,116.7z"/>
<path class="st6" d="M190.4,116.7c27.7,39.2,40.2,87.7,41.2,135.1c0,84-46.5,123-103.8,123c-19-0.4-39-4.2-54.8-15.3
	c10.5-9.4,44.8-14.2,58.3-16.3c74.6-13,85.5-99.7,76.3-161.5C204,159.5,198.3,137.7,190.4,116.7z"/>
<path class="st7" d="M215.4,165.1c10.6,27.7,16.1,57.1,16.2,86.7c-0.2,36.1-9,75-37.4,99.6c5-6,6.2-7,10.6-14
	C236.2,288,230.6,219,215.4,165.1z"/>
<path class="st8" d="M129.5,70c20,1,36.5,16.7,48.8,31c-11.8-12.4-29.2-24.4-47-18.5c-39.4,14.6-63,51.3-87,124
	c-11.9,38.3-10.4,79.6-3.3,118.7c-13-22.1-16.5-48.1-17-73.4C24,151.4,95.5,70,129.5,70z"/>
<path class="st9" d="M21.2,258.9c7.7,1.4,216.4,0,216.4,0l-1.2-15.4l-215.2,5.4L21.2,258.9z"/>
<path d="M21.2,250.4c7.7,1.4,216.4,0,216.4,0l-1.2-15.5l-215.2,5.5C21.2,240.4,21.2,250.4,21.2,250.4z"/>
<path d="M215.4,435.4c0,0,17.6-64-2.8-184.5l19-0.6C231.6,250.3,282.1,357.5,215.4,435.4"/>
<path class="st0" d="M215.4,435.4c0,0-9.4-71.9-25-92.2c29.8-55.5,22.2-92.3,22.2-92.3S264.1,345.1,215.4,435.4"/>
<path class="st4" d="M73.9,360.2c3.8,0.6,7.6,1.2,11.5,1.6c12.8,1.7,25.6,2,38.5,2.1h3.9c11.3,0,22.7,0,34-1
	c6.7-0.6,13.3-1.6,20-2.7c-0.1,1.5,0,1-0.2,1.6c-0.7,10.7-8.2,16.5-18,18.8c-2.8,3.6-7.4,5-11.8,5.1h-4.9c-0.2,1,0,0.7-0.3,1.3
	l-0.2,0.5l-0.4,0.9c-1.8,3.7-5.3,7.2-9.6,7.6h-17.2c-4.7-0.5-9.2-4.9-10.3-9.4l-0.2-0.9h-5c-4.3,0-9-1.6-11.7-5.1
	C81.7,379.2,74,370.5,73.9,360.2L73.9,360.2z"/>
<path class="st10" d="M146.9,385.7c-0.8,5.3-5.8,6.5-10.5,6.6l-19.6-0.5c-3.8-0.5-7.3-2-8.1-6.1H146.9z M162.2,380.7
	c-3,2-6.8,2.3-10.4,2.4l-48-0.8c-2.9-0.1-7-0.2-9.5-1.6h68H162.2z M127.8,363.9c-21,0-33.8-0.6-54-3.7c0,4,9.1,7.3,24.1,9l2.7,0.1
	l45.7,2c28.3,0,35.5-3,35.5-11.1C163.9,363.2,145.8,364.5,127.8,363.9"/>
<path d="M128.5,5.7c1.6,0,2.9,1.3,3,2.9c-0.1,1.6-1,2.2-2.3,2.8l1.7,40c11,2.3,19.3,11.6,20.3,22.8c0,9.4-10-5-22.5-5
	s-22.6,14.4-22.6,5c0.9-9.6,7-18,15.9-21.7l4.4-1.1h0.1l2-39.9c-1.6,0.4-3.2-0.5-3.7-2.1c-0.4-1.6,0.5-3.2,2.1-3.7
	C127.4,5.5,128,5.5,128.5,5.7z"/>
<path class="st11" d="M131.1,7.1c0.4,1.3-0.5,2.7-2,3.3s-3.2,0-3.6-1.3c-0.4-1.2,0.5-2.7,2-3.2C129,5.4,130.6,5.9,131.1,7.1"/>
<path class="st12" d="M129.1,6.2c0.7,0.7,0.5,1.9-0.4,2.7c-0.9,0.7-2.1,0.8-2.7,0.1s-0.4-1.8,0.4-2.6C127.3,5.6,128.5,5.5,129.1,6.2
	"/>
<path class="st13" d="M78.5,105.8c10.7-6.3,48.5-27.7,101-2.7c-1.9-6-4-9.4-4-9.4s-62.4-21.9-79.2-8.6
	C81,97.1,78.5,105.8,78.5,105.8"/>
<path class="st0" d="M180.8,101.3c-25-17.6-75.1-19.8-104.2,3.7c0.8-5.7,20.7-50,53-50C160.4,55,180.8,95.3,180.8,101.3"/>
<radialGradient id="SVGID_4_" cx="237.8939" cy="-382.284" r="39.7726" gradientTransform="matrix(1 0 0 1 -121.4939 462.2619)" gradientUnits="userSpaceOnUse">
	<stop  offset="0" style="stop-color:#FFFFFF"/>
	<stop  offset="1" style="stop-color:#000000"/>
</radialGradient>
<path class="st14" d="M129.6,55.1c10,0,18.8,4.4,26.6,10.4c-19-10-33,7.5-39.8,23.3c-14.5,1.8-28.2,7.3-39.8,16.2v-0.4l0.3-0.9
	c1-3,0.5-1.4,1.8-4.6C88.1,78.3,104.9,56.1,129.6,55.1L129.6,55.1z"/>
<path class="st15" d="M129.6,55.1c19.6,0.3,34.3,15.3,44.3,30.9c2.6,4.2,5.3,9,6.5,13.8l0.3,1.5c-9.2-24-31.1-45.9-58.7-38.4
	C101,68.6,86.9,87,76.5,105c1.7-5.7,4.1-11.2,7.3-16.2C94,72,108.5,56,129.6,55.1L129.6,55.1z"/>
<path class="st16" d="M143.8,58c14.7,6.2,32.7,26,36.6,41.5l0.4,1.8c-7-4.7-14.8-8.2-23-10.2C155.2,79.5,152.1,67,143.8,58z"/>
<path class="st17" d="M155.4,64.9c9.5,7.5,22,22.3,25,34.7l0.4,1.7c-3.3-2.2-3.5-2.2-7.7-4.6C170.6,84.5,164.4,73.4,155.4,64.9z"/>
<radialGradient id="SVGID_5_" cx="233.5419" cy="381.9493" r="13.5973" gradientTransform="matrix(1 0 0 -1 -121.4939 454.494)" gradientUnits="userSpaceOnUse">
	<stop  offset="0" style="stop-color:#FFFFFF"/>
	<stop  offset="1" style="stop-color:#FFFFFF;stop-opacity:0.2"/>
</radialGradient>
<path class="st18" d="M100.6,86.9c4.9-0.2,9.6-2,13.5-5c4.1-3.8,19-23.6,13.2-23.7c-18.3-0.4-29,10.6-31.5,21c-0.5,2.5-0.8,6,2,7.2
	L100.6,86.9L100.6,86.9z"/>
<path class="st19" d="M52.9,163.7c7.5-26.7,34.3-44.7,58.1-38c24,6.7,40.2,34.3,31.5,64.5c-7.7,26.7-38,42.8-61.4,35
	C57.6,217.2,45.4,190.4,52.9,163.7"/>
<linearGradient id="SVGID_6_" gradientUnits="userSpaceOnUse" x1="215.7089" y1="-339.7509" x2="216.1086" y2="-237.0167" gradientTransform="matrix(1 0 0 1 -121.4939 462.2619)">
	<stop  offset="0" style="stop-color:#930035"/>
	<stop  offset="1" style="stop-color:#790D2B"/>
</linearGradient>
<path class="st20" d="M49.8,162.1c-7.5,26.8,4.2,54,27.3,61.2c24.4,7.8,54.3-8.4,61.8-35.2c9-32.2-8.6-57.7-32-64.2
	c-3.2-1-6.5-1.4-9.8-1.4C76.6,122.5,56.2,139.1,49.8,162.1z"/>
<path class="st21" d="M48.1,161c7.4-26.5,33.3-44.5,56.2-38c23,6.3,40.1,31.6,31.2,63.5c-7.5,26.5-36.8,42.6-60.8,35
	C52.1,214.4,40.7,187.5,48.1,161"/>
<linearGradient id="SVGID_7_" gradientUnits="userSpaceOnUse" x1="173.5876" y1="-289.9139" x2="248.2381" y2="-289.9139" gradientTransform="matrix(1 0 0 1 -121.4939 462.2619)">
	<stop  offset="0" style="stop-color:#930035"/>
	<stop  offset="1" style="stop-color:#790D2B"/>
</linearGradient>
<path class="st22" d="M53.9,162.4c-6.3,22.6,4.4,45.5,24,51s40.7-8.5,47-31.1c6.4-22.7-4.4-45.5-24-51c-2.8-0.8-5.8-1.2-8.7-1.2
	C75.5,130.1,59.4,143.1,53.9,162.4L53.9,162.4z"/>
<path class="st23" d="M135.7,171.4c0,1.9-1.5,3.5-3.4,3.5s-3.4-1.5-3.4-3.5s1.5-3.5,3.4-3.5S135.7,169.5,135.7,171.4"/>
<linearGradient id="SVGID_8_" gradientUnits="userSpaceOnUse" x1="250.4556" y1="-290.6119" x2="257.3556" y2="-290.6119" gradientTransform="matrix(1 0 0 1 -121.4939 462.2619)">
	<stop  offset="0" style="stop-color:#EFBD50"/>
	<stop  offset="0.2" style="stop-color:#F4BC71"/>
	<stop  offset="1" style="stop-color:#C16000"/>
</linearGradient>
<path class="st24" d="M129,171.6c0,1.9,1.5,3.5,3.4,3.5s3.4-1.5,3.4-3.5l0,0c0-1.9-1.5-3.4-3.4-3.4S129,169.7,129,171.6z"/>
<linearGradient id="SVGID_9_" gradientUnits="userSpaceOnUse" x1="251.1556" y1="-290.9119" x2="256.6556" y2="-290.9119" gradientTransform="matrix(1 0 0 1 -121.4939 462.2619)">
	<stop  offset="0" style="stop-color:#C64473"/>
	<stop  offset="0.3" style="stop-color:#B72358"/>
	<stop  offset="1" style="stop-color:#930035"/>
</linearGradient>
<path class="st25" d="M129.7,173.7l0.2,0.2l5.3-4.3l-0.4-0.5l-0.4-0.3L129.7,173.7z"/>
<path class="st23" d="M131.2,148.4c0,1.8-1.5,3.3-3.3,3.3s-3.3-1.5-3.3-3.3l0,0c0-1.8,1.5-3.3,3.3-3.3
	C129.7,145.1,131.2,146.6,131.2,148.4"/>
<linearGradient id="SVGID_10_" gradientUnits="userSpaceOnUse" x1="245.8556" y1="-313.9619" x2="252.4556" y2="-313.9619" gradientTransform="matrix(1 0 0 1 -121.4939 462.2619)">
	<stop  offset="0" style="stop-color:#EFBD50"/>
	<stop  offset="0.2" style="stop-color:#F4BC71"/>
	<stop  offset="1" style="stop-color:#C16000"/>
</linearGradient>
<path class="st26" d="M124.4,148.3c0,1.8,1.5,3.3,3.3,3.3c1.8,0,3.3-1.5,3.3-3.3s-1.5-3.3-3.3-3.3S124.4,146.5,124.4,148.3
	L124.4,148.3z"/>
<linearGradient id="SVGID_11_" gradientUnits="userSpaceOnUse" x1="246.5556" y1="-314.2619" x2="251.8556" y2="-314.2619" gradientTransform="matrix(1 0 0 1 -121.4939 462.2619)">
	<stop  offset="0" style="stop-color:#C64473"/>
	<stop  offset="0.3" style="stop-color:#B72358"/>
	<stop  offset="1" style="stop-color:#930035"/>
</linearGradient>
<path class="st27" d="M125.1,150.3l0.2,0.2l5.1-4.2l-0.4-0.5l-0.4-0.3L125.1,150.3z"/>
<path class="st23" d="M117.3,134.7c-1.2,1-2.9,0.9-4-0.3c-1-1.2-0.9-2.9,0.3-4c0.1-0.1,0.2-0.2,0.4-0.3c1.3-0.8,3-0.4,3.8,0.9
	C118.5,132.3,118.3,133.8,117.3,134.7"/>
<linearGradient id="SVGID_12_" gradientUnits="userSpaceOnUse" x1="234.1556" y1="-330.133" x2="239.7556" y2="-330.133" gradientTransform="matrix(1 0 0 1 -121.4939 462.2619)">
	<stop  offset="0" style="stop-color:#EFBD50"/>
	<stop  offset="0.2" style="stop-color:#F4BC71"/>
	<stop  offset="1" style="stop-color:#C16000"/>
</linearGradient>
<path class="st28" d="M113.9,130.2c-1.2,1-1.3,2.8-0.3,4c0.9,1,2.4,1.3,3.6,0.5c1.5,0,2.8-1.2,2.8-2.8s-1.2-2.8-2.8-2.8
	c-0.6,0-1.3,0.2-1.8,0.6C114.9,129.7,114.3,129.9,113.9,130.2L113.9,130.2z"/>
<linearGradient id="SVGID_13_" gradientUnits="userSpaceOnUse" x1="235.769" y1="-331.6998" x2="238.4689" y2="-328.1998" gradientTransform="matrix(1 0 0 1 -121.4939 462.2619)">
	<stop  offset="0" style="stop-color:#C64473"/>
	<stop  offset="0.3" style="stop-color:#B72358"/>
	<stop  offset="1" style="stop-color:#930035"/>
</linearGradient>
<path class="st29" d="M112.8,132l5.4,1.2v-0.9l-5.4-0.6V132z"/>
<path class="st23" d="M99.6,129.8c-1.5,0.2-2.9-0.9-3.1-2.4s0.9-2.9,2.4-3.1c0.3,0,0.7,0,1,0.1c1.5,0.4,2.4,1.9,2.1,3.4
	C101.7,128.8,100.7,129.6,99.6,129.8"/>
<linearGradient id="SVGID_14_" gradientUnits="userSpaceOnUse" x1="218.2556" y1="-335.4001" x2="223.8556" y2="-335.4001" gradientTransform="matrix(1 0 0 1 -121.4939 462.2619)">
	<stop  offset="0" style="stop-color:#EFBD50"/>
	<stop  offset="0.2" style="stop-color:#F4BC71"/>
	<stop  offset="1" style="stop-color:#C16000"/>
</linearGradient>
<path class="st30" d="M96.9,127c0.2,1.5,1.6,2.6,3.1,2.4c1.2-0.1,2.1-1,2.4-2.1c0.1-1.5-1-2.9-2.6-3l0,0h-0.2
	C98.1,124.3,96.9,125.5,96.9,127L96.9,127z"/>
<linearGradient id="SVGID_15_" gradientUnits="userSpaceOnUse" x1="221.4311" y1="-337.2805" x2="221.2311" y2="-332.8806" gradientTransform="matrix(1 0 0 1 -121.4939 462.2619)">
	<stop  offset="0" style="stop-color:#C64473"/>
	<stop  offset="0.3" style="stop-color:#B72358"/>
	<stop  offset="1" style="stop-color:#930035"/>
</linearGradient>
<path class="st31" d="M97.9,125l3.2,4.5l0.4-0.3l0.3-0.4l-3.8-4L97.9,125z"/>
<path class="st23" d="M82.3,129.1c-1.2-1-1.3-2.8-0.3-3.9c1-1.2,2.8-1.3,3.9-0.3c0.1,0.1,0.2,0.2,0.3,0.3c1.1,1.1,1.1,2.9,0,4
	S83.3,130.2,82.3,129.1"/>
<linearGradient id="SVGID_16_" gradientUnits="userSpaceOnUse" x1="202.6556" y1="-335.571" x2="208.2556" y2="-335.571" gradientTransform="matrix(1 0 0 1 -121.4939 462.2619)">
	<stop  offset="0" style="stop-color:#EFBD50"/>
	<stop  offset="0.2" style="stop-color:#F4BC71"/>
	<stop  offset="1" style="stop-color:#C16000"/>
</linearGradient>
<path class="st32" d="M82.1,125.1c-1.2,1-1.3,2.8-0.3,3.9c1,1.2,2.8,1.3,3.9,0.3c0.1-0.1,0.2-0.2,0.3-0.3c1.5,0,2.8-1.3,2.8-2.8
	s-1.3-2.8-2.8-2.8c-0.7,0-1.4,0.3-1.9,0.8C83.3,124.3,82.6,124.6,82.1,125.1L82.1,125.1z"/>
<linearGradient id="SVGID_17_" gradientUnits="userSpaceOnUse" x1="207.1608" y1="-336.5787" x2="204.0608" y2="-333.4788" gradientTransform="matrix(1 0 0 1 -121.4939 462.2619)">
	<stop  offset="0" style="stop-color:#C64473"/>
	<stop  offset="0.3" style="stop-color:#B72358"/>
	<stop  offset="1" style="stop-color:#930035"/>
</linearGradient>
<path class="st33" d="M83.6,129.8h0.9l-0.1-5.5h-0.3L83.6,129.8z"/>
<path class="st23" d="M128.8,195.4c0,1.9-1.5,3.5-3.4,3.5s-3.5-1.5-3.5-3.5l0,0c0-1.9,1.6-3.5,3.5-3.5S128.9,193.5,128.8,195.4"/>
<linearGradient id="SVGID_18_" gradientUnits="userSpaceOnUse" x1="243.5556" y1="-266.6619" x2="250.4556" y2="-266.6619" gradientTransform="matrix(1 0 0 1 -121.4939 462.2619)">
	<stop  offset="0" style="stop-color:#EFBD50"/>
	<stop  offset="0.2" style="stop-color:#F4BC71"/>
	<stop  offset="1" style="stop-color:#C16000"/>
</linearGradient>
<path class="st34" d="M122.1,195.6c0,1.9,1.6,3.5,3.5,3.5s3.5-1.6,3.5-3.5s-1.6-3.5-3.5-3.5S122.1,193.6,122.1,195.6z"/>
<linearGradient id="SVGID_19_" gradientUnits="userSpaceOnUse" x1="244.2556" y1="-266.8619" x2="249.7556" y2="-266.8619" gradientTransform="matrix(1 0 0 1 -121.4939 462.2619)">
	<stop  offset="0" style="stop-color:#C64473"/>
	<stop  offset="0.3" style="stop-color:#B72358"/>
	<stop  offset="1" style="stop-color:#930035"/>
</linearGradient>
<path class="st35" d="M122.9,197.8l0.1,0.2l5.3-4.4l-0.4-0.5l-0.4-0.3L122.9,197.8z"/>
<path class="st23" d="M114.6,211.4c0,1.7-1.4,3.1-3.1,3.1s-3.1-1.4-3.1-3.1l0,0c0-1.7,1.4-3.1,3.1-3.1
	C113.2,208.3,114.6,209.7,114.6,211.4"/>
<linearGradient id="SVGID_20_" gradientUnits="userSpaceOnUse" x1="230.0556" y1="-250.7619" x2="236.2556" y2="-250.7619" gradientTransform="matrix(1 0 0 1 -121.4939 462.2619)">
	<stop  offset="0" style="stop-color:#EFBD50"/>
	<stop  offset="0.2" style="stop-color:#F4BC71"/>
	<stop  offset="1" style="stop-color:#C16000"/>
</linearGradient>
<path class="st36" d="M108.6,211.5c0,1.7,1.4,3.1,3.1,3.1s3.1-1.4,3.1-3.1c0-1.7-1.4-3.1-3.1-3.1
	C109.9,208.4,108.6,209.8,108.6,211.5z"/>
<linearGradient id="SVGID_21_" gradientUnits="userSpaceOnUse" x1="230.6556" y1="-250.9119" x2="235.6556" y2="-250.9119" gradientTransform="matrix(1 0 0 1 -121.4939 462.2619)">
	<stop  offset="0" style="stop-color:#C64473"/>
	<stop  offset="0.3" style="stop-color:#B72358"/>
	<stop  offset="1" style="stop-color:#930035"/>
</linearGradient>
<path class="st37" d="M109.2,213.4l0.2,0.3l4.8-4l-0.4-0.4l-0.4-0.3L109.2,213.4z"/>
<path class="st23" d="M90.4,222c-1.5-0.9-2.1-2.8-1.2-4.3s2.8-2.1,4.3-1.2l0,0c1.5,0.8,2.1,2.7,1.2,4.2S92,222.8,90.4,222"/>
<linearGradient id="SVGID_22_" gradientUnits="userSpaceOnUse" x1="210.0556" y1="-243.0647" x2="216.3556" y2="-243.0647" gradientTransform="matrix(1 0 0 1 -121.4939 462.2619)">
	<stop  offset="0" style="stop-color:#EFBD50"/>
	<stop  offset="0.2" style="stop-color:#F4BC71"/>
	<stop  offset="1" style="stop-color:#C16000"/>
</linearGradient>
<path class="st38" d="M89.1,217.8c-0.7,1.6,0,3.4,1.6,4.1c1.4,0.6,3,0.2,3.8-1.1c0.8-1.4,0.3-3.3-1.2-4.2
	C91.8,215.8,89.9,216.3,89.1,217.8z"/>
<linearGradient id="SVGID_23_" gradientUnits="userSpaceOnUse" x1="214.6953" y1="-244.9564" x2="212.1953" y2="-240.6564" gradientTransform="matrix(1 0 0 1 -121.4939 462.2619)">
	<stop  offset="0" style="stop-color:#C64473"/>
	<stop  offset="0.3" style="stop-color:#B72358"/>
	<stop  offset="1" style="stop-color:#930035"/>
</linearGradient>
<path class="st39" d="M91.1,216.3l1,6.1l0.6-0.1l0.4-0.2l-1.8-5.9L91.1,216.3z"/>
<path class="st23" d="M73,220.2c-1.4-1-1.7-3-0.7-4.4s3-1.7,4.3-0.6s1.7,3,0.7,4.4S74.3,221.2,73,220.2"/>
<linearGradient id="SVGID_24_" gradientUnits="userSpaceOnUse" x1="192.9556" y1="-245.0452" x2="199.1556" y2="-245.0452" gradientTransform="matrix(1 0 0 1 -121.4939 462.2619)">
	<stop  offset="0" style="stop-color:#EFBD50"/>
	<stop  offset="0.2" style="stop-color:#F4BC71"/>
	<stop  offset="1" style="stop-color:#C16000"/>
</linearGradient>
<path class="st40" d="M72.1,215.9c-1,1.4-0.7,3.3,0.6,4.4s3.3,0.7,4.4-0.6l0,0c1.7,0,3.1-1.4,3-3.2c0-1.7-1.4-3.1-3.2-3
	c-0.9,0-1.8,0.5-2.4,1.2C73.6,214.6,72.7,215.1,72.1,215.9z"/>
<linearGradient id="SVGID_25_" gradientUnits="userSpaceOnUse" x1="197.8227" y1="-246.3336" x2="194.8227" y2="-242.3336" gradientTransform="matrix(1 0 0 1 -121.4939 462.2619)">
	<stop  offset="0" style="stop-color:#C64473"/>
	<stop  offset="0.3" style="stop-color:#B72358"/>
	<stop  offset="1" style="stop-color:#930035"/>
</linearGradient>
<path class="st41" d="M74.3,214.7l0.3,6.2h0.6l0.5-0.2l-1.1-6H74.3z"/>
<path class="st23" d="M57.4,207.4c0.6-1.6,2.3-2.5,4-2c1.6,0.6,2.5,2.3,2,4c-0.6,1.7-2.3,2.6-4,2S56.7,209,57.4,207.4"/>
<linearGradient id="SVGID_26_" gradientUnits="userSpaceOnUse" x1="178.5556" y1="-254.0624" x2="184.7595" y2="-254.0624" gradientTransform="matrix(1 0 0 1 -121.4939 462.2619)">
	<stop  offset="0" style="stop-color:#EFBD50"/>
	<stop  offset="0.2" style="stop-color:#F4BC71"/>
	<stop  offset="1" style="stop-color:#C16000"/>
</linearGradient>
<path class="st42" d="M57.3,207.2c-0.6,1.6,0.3,3.4,2,4c1.6,0.6,3.4-0.3,4-2c0.5-1.7-0.4-3.5-2-4c-1.6-0.6-3.4,0.3-4,1.9
	C57.2,207.1,57.2,207.1,57.3,207.2L57.3,207.2z"/>
<linearGradient id="SVGID_27_" gradientUnits="userSpaceOnUse" x1="183.9469" y1="-253.1567" x2="179.2469" y2="-254.6567" gradientTransform="matrix(1 0 0 1 -121.4939 462.2619)">
	<stop  offset="0" style="stop-color:#C64473"/>
	<stop  offset="0.3" style="stop-color:#B72358"/>
	<stop  offset="1" style="stop-color:#930035"/>
</linearGradient>
<path class="st43" d="M57.3,209.1l0.2,0.5l0.2,0.4l5.5-2.9l-0.1-0.2L57.3,209.1z"/>
<path class="st23" d="M48.9,194c-0.1-1.4,1-2.7,2.5-2.8c1.4-0.1,2.7,1,2.7,2.5c0.1,1.5-1,2.7-2.5,2.8
	C50.1,196.6,48.8,195.4,48.9,194L48.9,194"/>
<linearGradient id="SVGID_28_" gradientUnits="userSpaceOnUse" x1="170.1556" y1="-268.5119" x2="175.3556" y2="-268.5119" gradientTransform="matrix(1 0 0 1 -121.4939 462.2619)">
	<stop  offset="0" style="stop-color:#EFBD50"/>
	<stop  offset="0.2" style="stop-color:#F4BC71"/>
	<stop  offset="1" style="stop-color:#C16000"/>
</linearGradient>
<path class="st44" d="M51.1,191.1c-1.4,0.1-2.5,1.3-2.5,2.8c0.1,1.4,1.3,2.5,2.8,2.5c1.4,0,2.6-1.2,2.6-2.6s-1.2-2.6-2.7-2.6
	L51.1,191.1L51.1,191.1z"/>
<linearGradient id="SVGID_29_" gradientUnits="userSpaceOnUse" x1="174.8571" y1="-268.4507" x2="170.6571" y2="-268.2506" gradientTransform="matrix(1 0 0 1 -121.4939 462.2619)">
	<stop  offset="0" style="stop-color:#C64473"/>
	<stop  offset="0.3" style="stop-color:#B72358"/>
	<stop  offset="1" style="stop-color:#930035"/>
</linearGradient>
<path class="st45" d="M49.3,195.4l0.3,0.3l0.3,0.2l3.4-4h-0.2L49.3,195.4z"/>
<path class="st23" d="M46.2,178.3c-0.2-1.4,0.8-2.8,2.2-3s2.8,0.8,3,2.2l0,0c0.2,1.4-0.8,2.8-2.2,3
	C47.7,180.7,46.4,179.7,46.2,178.3"/>
<linearGradient id="SVGID_30_" gradientUnits="userSpaceOnUse" x1="167.4556" y1="-284.4866" x2="172.7556" y2="-284.4866" gradientTransform="matrix(1 0 0 1 -121.4939 462.2619)">
	<stop  offset="0" style="stop-color:#EFBD50"/>
	<stop  offset="0.2" style="stop-color:#F4BC71"/>
	<stop  offset="1" style="stop-color:#C16000"/>
</linearGradient>
<path class="st46" d="M48.2,175.2c-1.4,0.2-2.4,1.6-2.2,3.1s1.6,2.4,3.1,2.1l0,0c1.5-0.1,2.5-1.4,2.4-2.9s-1.4-2.5-2.9-2.4
	L48.2,175.2L48.2,175.2z"/>
<linearGradient id="SVGID_31_" gradientUnits="userSpaceOnUse" x1="172.1591" y1="-284.6632" x2="168.0591" y2="-283.9633" gradientTransform="matrix(1 0 0 1 -121.4939 462.2619)">
	<stop  offset="0" style="stop-color:#C64473"/>
	<stop  offset="0.3" style="stop-color:#B72358"/>
	<stop  offset="1" style="stop-color:#930035"/>
</linearGradient>
<path class="st47" d="M46.8,179.6l0.4,0.3l0.3,0.2l3-4.2l-0.2-0.2L46.8,179.6z"/>
<path class="st23" d="M47.9,165.3c-0.3-1.4,0.6-2.9,2-3.2s2.9,0.6,3.2,2l0,0c0.3,1.4-0.5,2.8-1.9,3.1S48.4,166.7,47.9,165.3"/>
<linearGradient id="SVGID_32_" gradientUnits="userSpaceOnUse" x1="169.1556" y1="-297.733" x2="174.4556" y2="-297.733" gradientTransform="matrix(1 0 0 1 -121.4939 462.2619)">
	<stop  offset="0" style="stop-color:#EFBD50"/>
	<stop  offset="0.2" style="stop-color:#F4BC71"/>
	<stop  offset="1" style="stop-color:#C16000"/>
</linearGradient>
<path class="st48" d="M49.8,162c-1.4,0.3-2.3,1.7-2,3.1c0.3,1.4,1.7,2.3,3.2,2l0,0c1.4,0.1,2.6-1.1,2.7-2.5c0.1-1.4-1.1-2.6-2.5-2.7
	c-0.3,0-0.5,0-0.8,0.1C50.4,162,49.8,162,49.8,162z"/>
<linearGradient id="SVGID_33_" gradientUnits="userSpaceOnUse" x1="173.866" y1="-297.9424" x2="169.866" y2="-296.9424" gradientTransform="matrix(1 0 0 1 -121.4939 462.2619)">
	<stop  offset="0" style="stop-color:#C64473"/>
	<stop  offset="0.3" style="stop-color:#B72358"/>
	<stop  offset="1" style="stop-color:#930035"/>
</linearGradient>
<path class="st49" d="M48.7,166.6l0.3,0.3l0.4,0.1l2.6-4.5h-0.1L48.7,166.6z"/>
<path class="st23" d="M54.4,148.4c0-1.4,1.2-2.6,2.7-2.5c1.4,0,2.6,1.2,2.5,2.6c-0.1,1.4-1.3,2.6-2.7,2.5S54.3,149.7,54.4,148.4
	L54.4,148.4"/>
<linearGradient id="SVGID_34_" gradientUnits="userSpaceOnUse" x1="175.6556" y1="-313.959" x2="180.9614" y2="-313.959" gradientTransform="matrix(1 0 0 1 -121.4939 462.2619)">
	<stop  offset="0" style="stop-color:#EFBD50"/>
	<stop  offset="0.2" style="stop-color:#F4BC71"/>
	<stop  offset="1" style="stop-color:#C16000"/>
</linearGradient>
<path class="st50" d="M54.3,148.2c-0.1,1.4,1.1,2.6,2.5,2.7c1.4,0.1,2.6-1.1,2.7-2.5c0.1-1.4-1.1-2.6-2.5-2.7l0,0h-0.1
	C55.5,145.7,54.3,146.7,54.3,148.2L54.3,148.2z"/>
<linearGradient id="SVGID_35_" gradientUnits="userSpaceOnUse" x1="180.3552" y1="-313.676" x2="176.2552" y2="-313.8759" gradientTransform="matrix(1 0 0 1 -121.4939 462.2619)">
	<stop  offset="0" style="stop-color:#C64473"/>
	<stop  offset="0.3" style="stop-color:#B72358"/>
	<stop  offset="1" style="stop-color:#930035"/>
</linearGradient>
<path class="st51" d="M54.7,149.8l0.3,0.3l0.3,0.3l3.7-3.6l-0.1-0.2L54.7,149.8z"/>
<path class="st23" d="M64.6,137.4c-0.5-1.4,0.2-2.9,1.6-3.4s2.9,0.2,3.4,1.6s-0.2,2.9-1.6,3.4S65.1,138.8,64.6,137.4L64.6,137.4"/>
<linearGradient id="SVGID_36_" gradientUnits="userSpaceOnUse" x1="185.7556" y1="-325.7807" x2="190.9556" y2="-325.7807" gradientTransform="matrix(1 0 0 1 -121.4939 462.2619)">
	<stop  offset="0" style="stop-color:#EFBD50"/>
	<stop  offset="0.2" style="stop-color:#F4BC71"/>
	<stop  offset="1" style="stop-color:#C16000"/>
</linearGradient>
<path class="st52" d="M65.9,134c-1.4,0.5-2.1,2.1-1.5,3.5c0.5,1.4,2.1,2.1,3.4,1.5c1.4-0.3,2.4-1.7,2.1-3.1s-1.7-2.4-3.1-2.1
	C66.6,133.8,66.3,133.8,65.9,134L65.9,134z"/>
<linearGradient id="SVGID_37_" gradientUnits="userSpaceOnUse" x1="190.3602" y1="-326.372" x2="186.4602" y2="-324.872" gradientTransform="matrix(1 0 0 1 -121.4939 462.2619)">
	<stop  offset="0" style="stop-color:#C64473"/>
	<stop  offset="0.3" style="stop-color:#B72358"/>
	<stop  offset="1" style="stop-color:#930035"/>
</linearGradient>
<path class="st53" d="M65.4,138.6l0.4,0.3h0.4l2-4.7h-0.1L65.4,138.6z"/>
<path class="st54" d="M91.5,131.5c2.8,0,5.6,0.4,8.4,1.2c19,5.3,29.3,27.3,23.2,49.2c-5,17.6-19,29.7-34.2,31h-5.5
	c-1.9-0.1-3.8-0.5-5.7-1c-18.9-5.3-29.2-27.3-23-49.2C59.8,144,75.4,131.5,91.5,131.5z"/>
<path class="st8" d="M91.5,131.5c2.8,0,5.6,0.4,8.4,1.2c3.4,0.9,6.7,2.4,9.6,4.5c10,11.8,8.4,30.3,5.9,44.3c-5,24-29,29.4-32,29.4
	c-4.2,0.8-8-0.5-11.9-1.5c-17.2-9.6-21.1-28.6-16.9-46.7C59.8,144,75.4,131.5,91.5,131.5L91.5,131.5z"/>
<path class="st12" d="M81.8,208.1c9.9,0.5,27.8-9.2,30.3-27c3.4-23.5-6.4-47.4-20.6-47.6c-26.1-0.3-41.1,29.6-34.2,58.7
	C59.7,202.6,78.8,208.1,81.8,208.1"/>
<path class="st12" d="M69,194.6c4.5-2.4,6.8-3.4,9.2-20.6c4.2-30.4,18.1-35.9,13.4-38.2c-15-1.6-40.5,23.2-34,52.5
	C59,194.9,65.2,197.6,69,194.6"/>
<path class="st55" d="M104.1,134.2c13.7,5.7,21,21.2,20.7,35.5c0,5.8-0.6,7.4-1.7,12.2c-5,17.6-19,29.7-34.2,31h-5.5
	c-1.9-0.1-3.8-0.4-5.7-1c-15.9-5.4-26.1-20.9-24.8-37.7c2.7,31.2,46.6,43,63.7,16.1c12.1-21.3,7.3-42.1-12.5-56L104.1,134.2
	L104.1,134.2z"/>
<radialGradient id="SVGID_38_" cx="229.0556" cy="-281.0119" r="17.0686" gradientTransform="matrix(1 0 0 1 -121.4939 462.2619)" gradientUnits="userSpaceOnUse">
	<stop  offset="0" style="stop-color:#FFFFFF"/>
	<stop  offset="0" style="stop-color:#FFFFFF"/>
	<stop  offset="1" style="stop-color:#FFFFFF;stop-opacity:0.2"/>
</radialGradient>
<path class="st56" d="M121.2,152.1c4,8.1,4,17,2.8,25.7c-2.4,14.4-11.8,26.6-25.1,32.6c-3.9-3.4-6.5-7.9-7.5-13
	c-3.4-16.2,4.9-31.5,18-40.7C112.9,154.1,117,152.5,121.2,152.1L121.2,152.1z"/>
<radialGradient id="SVGID_39_" cx="196.1665" cy="-299.8562" r="21.8885" gradientTransform="matrix(1 0 0 1 -121.4939 462.2619)" gradientUnits="userSpaceOnUse">
	<stop  offset="0" style="stop-color:#FFFFFF"/>
	<stop  offset="1" style="stop-color:#FFFFFF;stop-opacity:0.2"/>
</radialGradient>
<path class="st57" d="M86,132.1c6.4,2.7,9,10.6,10,16.9c1.4,12.2-0.1,24.5-4.4,36c-3.3,7.4-13,7.8-19.9,7.7
	c-2.8-0.2-5.7-0.3-8.4-1.2c-4.7-0.6-7.8-5.1-9.9-9c-0.6-8.3-1-7.2,0.3-15.7C56.2,149.6,69.1,135.8,86,132.1L86,132.1z"/>
</svg>
