<svg xmlns="http://www.w3.org/2000/svg" xmlns:xlink="http://www.w3.org/1999/xlink" viewBox="0 0 490.3577 263.4439"><defs><style>.a{isolation:isolate;}.b{fill:#9bae9b;}.b,.r{opacity:0.48;}.c{fill:#2c6b99;}.d{fill:#c34030;}.e{fill:#fbb042;}.aa,.ab,.ac,.ad,.av,.aw,.ay,.f,.j,.n,.o,.q,.t,.u,.v,.x,.y,.z{mix-blend-mode:color-dodge;}.f{fill:url(#a);}.g{fill:#103f5f;}.h,.p,.w{fill:#7f8b7f;}.i{fill:#718db1;}.j{fill:url(#b);}.k{fill:#171e32;}.l,.m{fill:#3e3e4b;}.m{opacity:0.46;}.n{fill:url(#c);}.o{fill:url(#d);}.p{opacity:0.37;}.au,.ax,.p,.s,.w{mix-blend-mode:multiply;}.q{fill:url(#e);}.r{fill:#f9fbed;}.s{fill:url(#f);}.t{fill:url(#g);}.u{fill:url(#h);}.v{fill:url(#i);}.w{opacity:0.64;}.x{fill:url(#j);}.y{fill:url(#k);}.z{fill:url(#l);}.aa{fill:url(#m);}.ab{fill:url(#n);}.ac{fill:url(#o);}.ad{fill:url(#p);}.ae{fill:#afbdae;}.af{fill:#29aae1;}.ag{fill:#a9604f;}.ah{fill:#fff;}.ai{fill:#525c54;}.aj{fill:#777a74;}.ak{fill:#6c6464;}.al{fill:#474142;}.am{fill:#657066;}.an{fill:#3d4740;}.ao{fill:#0c4f81;}.ap{fill:#2a3c90;}.aq{fill:#13416c;}.ar{fill:#a13e23;}.as{fill:#4464af;}.at{fill:#231f20;}.au{fill:#610c0e;opacity:0.39;}.av{fill:url(#q);}.aw{opacity:0.57;fill:url(#r);}.ax{opacity:0.54;fill:url(#s);}.ay{fill:url(#t);}</style><radialGradient id="a" cx="170.0136" cy="-25.9297" r="143.3054" gradientUnits="userSpaceOnUse"><stop offset="0" stop-color="#fff"/><stop offset="0.283" stop-color="#b0b0b0"/><stop offset="0.6351" stop-color="#525252"/><stop offset="0.8822" stop-color="#181818"/><stop offset="1" stop-color="#010101"/></radialGradient><radialGradient id="b" cx="241.3598" cy="210.8668" r="114.4117" xlink:href="#a"/><radialGradient id="c" cx="245.1904" cy="186.3561" r="45.7404" xlink:href="#a"/><radialGradient id="d" cx="209.2973" cy="249.1479" r="52.1979" xlink:href="#a"/><radialGradient id="e" cx="343.573" cy="101.0017" r="151.5326" xlink:href="#a"/><linearGradient id="f" x1="261.0686" y1="6.2623" x2="377.0983" y2="142.1829" gradientUnits="userSpaceOnUse"><stop offset="0.005" stop-color="#fff"/><stop offset="1" stop-color="#010101"/></linearGradient><radialGradient id="g" cx="28.6908" cy="148.1014" r="44.8537" xlink:href="#a"/><radialGradient id="h" cx="71.3977" cy="149.6957" r="30.4223" xlink:href="#a"/><radialGradient id="i" cx="109.2808" cy="80.3832" r="114.0505" xlink:href="#a"/><radialGradient id="j" cx="216.0585" cy="158.9932" r="42.3004" xlink:href="#a"/><radialGradient id="k" cx="174.5951" cy="157.201" r="39.8621" xlink:href="#a"/><radialGradient id="l" cx="149.5289" cy="156.6046" r="35.8379" xlink:href="#a"/><radialGradient id="m" cx="126.6174" cy="156.8389" r="33.0277" xlink:href="#a"/><radialGradient id="n" cx="276.4973" cy="161.6712" r="42.4251" xlink:href="#a"/><radialGradient id="o" cx="321.325" cy="160.9715" r="34.8185" xlink:href="#a"/><radialGradient id="p" cx="347.1766" cy="159.9495" r="31.9719" xlink:href="#a"/><radialGradient id="q" cx="248.4405" cy="171.2911" r="45.8134" xlink:href="#a"/><radialGradient id="r" cx="248.268" cy="121.6199" r="82.4398" xlink:href="#a"/><radialGradient id="s" cx="252.7626" cy="83.8978" r="199.4294" xlink:href="#a"/><radialGradient id="t" cx="188.5534" cy="0.7185" r="153.8993" xlink:href="#a"/></defs><g class="a"><path class="b" d="M245.2469,262.956l22.4916-27.8751,15.5-21.7,11.6252-2.3251,10.0752-12.4L353.765,191.68s3.1-2.325,7.75-6.2,24.8-23.25,24.8-23.25l45.7258-11.6252s10.85-26.35,24.8-40.3007a95.2967,95.2967,0,0,1,31.0006-20.15l-65.8762-8.5251,2.3251-7.75-25.5755-6.2L373.14,63.8029l20.9253,11.6252s-94.5516,12.4-140.2774,11.6252-120.9021-5.4251-120.9021-5.4251L98.7856,74.653l18.6-9.3-37.2007,4.65L65.46,73.103l4.65,7.75-67.4262,9.3,19.3753,7.75s17.8253,19.3753,25.5755,29.4505,10.85,24.8,10.85,24.8l45.762,9.3016,18.5,18.5,14,12,48,7,10,12,10.5,1.5Z"/><path class="c" d="M98.7856,74.653,245.2046,1.9759,394.0657,75.4281S328.6582,90.0652,219.2994,86.9208C136.7643,86.3183,98.7856,74.653,98.7856,74.653Z"/><path class="d" d="M432.0414,150.6044s10.4249-24.2994,16.3676-31.3226S472.72,96.0511,472.72,96.0511s-57.2664,14.0464-94.5435,18.3684-81.0373,9.7245-81.0373,9.7245-69.1518,2.161-103.7277-1.0805S94.006,110.6378,94.006,110.6378L16.21,94.43s19.4489,16.2075,27.5527,27.5527,14.722,30.1714,14.722,30.1714,53.3493,10.3473,86.8447,13.5887,87.52,7.0233,87.52,7.0233h59.4274l79.4165-8.644S424.3178,154.9146,432.0414,150.6044Z"/><path class="e" d="M450.76,116.6156l-26.4125,4.807-5.7463,22.5264,17.338-4.27s11.9-21.6717,14.8208-23.0635Z"/><polygon class="e" points="393.53 126.772 385.831 150.575 410.048 146.105 415.404 121.188 393.53 126.772 393.53 126.772"/><path class="e" d="M53.7426,140.1672c-1.3446-.26-4.707-8.4587-5.3956-9.66A98.3609,98.3609,0,0,0,39.465,117.09c7.953-4.7494,20.0283,3.1219,27.774,5.4967l6.0672,21.3624Z"/><polygon class="e" points="76.503 121.188 81.859 146.105 106.077 150.575 98.377 126.772 76.503 121.188 76.503 121.188"/><path class="c" d="M170.2237,133.74c-.922-.0052-1.8434-.022-2.7627-.09a49.13,49.13,0,0,0-6.3962-.4712,51.0972,51.0972,0,0,1-7.4435-.4137c-2.5994-.2479-5.18-.661-7.7581-1.0739-6.1582-.9861-12.6395-1.5327-18.6552-3.1286a62.5171,62.5171,0,0,0-17.2048-2.1467,1.02,1.02,0,0,0-.7529.238c-.2383.2685-.1333.6851-.0141,1.0238a216.3351,216.3351,0,0,0,11.0672,25.9284c.3115.6153,6.3129.82,7.2068.9477q3.7477.5364,7.4821,1.1617c2.0824.3492,4.059.1678,6.15.32l9.6447.7014L180.83,158.922l30.7414,2.2358,15.075,1.0963.0493.0036,78.6638-2.6939,67.2747-6.5446,10.33-26.1282L282.73,137.4732c-2.6809-.0233-5.1171-.3837-7.8388-.23q-4.872.2754-9.7483.4682-9.6.38-19.2086.44-7.6174.0474-15.2344-.1064c-4.889-.0987-10.2784.3059-15.1-.53-4.4786-.7767-9.1967-.5271-13.7677-.7545-4.9977-.2486-9.9908-.6539-14.9477-1.347a124.0346,124.0346,0,0,0-13.7276-1.648C172.18,133.7382,171.2015,133.7457,170.2237,133.74Z"/><path class="f" d="M147.0658,76.03c16.93,1.4722,33.9545,2.0248,50.9339,2.61,15.7552.5428,49.3757,7.0815,49.3113-17.6009-.0507-19.4326-1.8721-39.2068-2.6551-58.6844l-53.7426,27.19L149.186,50.6553c-5.6073,2.8369-11.2584,5.6018-16.8274,8.5134-5.1327,2.6835-12.2026,8.1429-5.1122,13.8454C131.1535,76.1564,142.2985,75.6152,147.0658,76.03Z"/><path class="g" d="M117.7455,66.562s-4.19,5.5254,3.6946,8.1535,61.7608,7.2274,108.41,7.2274,116.9514-4.5993,116.9514-4.5993,29.5663-2.6281,30.88-4.5992-1.3141-4.5992-1.3141-4.5992l16.31,6.2379s-63.6157,13.473-125.3765,13.473-136.6623-5.9132-136.6623-5.9132L97.8606,74.7994l19.8849-8.2374Z"/><path class="h" d="M249.561,95.7405l-75.5585-1.3141-49.9343-3.9421-44.021-9.8555L68.2008,73.1326l3.4106,15.7588a264.7715,264.7715,0,0,0,68.8826,15.39c38.7648,3.2851,81.4717,5.9133,81.4717,5.9133l75.5585-1.9711s44.678,0,73.5874-5.9133A464.5332,464.5332,0,0,0,420.01,89.7234L422.85,74.38s-32.0277,13.4765-87.2183,17.4187-86.0709,3.9422-86.0709,3.9422Z"/><path class="h" d="M103.5941,160.9712l27.0444,24.7824s19.7109,6.57,70.3023,9.1985a976.3507,976.3507,0,0,0,115.6373-1.3141c15.7687-1.3141,32.8515-5.9133,32.8515-5.9133l21.2795-23.701s-58.0732,7.2753-94.8669,7.9323S149.0354,166.7,149.0354,166.7l-45.4413-5.7286Z"/><path class="i" d="M118.7254,135.4547l7.9046,18.4784s51.8038,7.21,83.7456,7.5775,63.5645-.9583,63.5645-.9583l43.0979-.427,49.2155-6.0266,7.1559-17.5944-71.614,6.649-77.8353,2.57-74.1638-6.9758-31.0709-3.2928Z"/><path class="j" d="M128.7187,151.1894c17.0743,2.2928,34.21,4.2319,51.3781,5.6672a576.69,576.69,0,0,0,61.92,1.6053c19-.4574,38.0318-.4994,56.8865-1.8212,21.7741-1.5264,43.5747-2.6533,65.2354-5.3058l4.6319-11.3877-66.6973,6.1934-.0889.0078-.09.0029-36.91,1.2188-26.429.8728a250.9061,250.9061,0,0,1-32.6965-1.2085l-24.3447-2.2905-31.9991-3.0106-26.02-2.7558Z"/><path class="k" d="M187.0342,199.1155l4.2127,9.34s7,4,10.5,4,32,4,32,4l37.6679-1.2718,23.4492-4.1288,6.8829-6.5994,2.6181-6.779s-46.089,4.8694-62.089,4.3694-55.2418-2.9309-55.2418-2.9309Z"/><path class="l" d="M245.6436,262.0675l38.7405-48.7361S270.2358,216.7,248.34,216.1948s-42.6134-3.2-42.6134-3.2l39.9174,49.0729Z"/><path class="m" d="M203.3681,200.5306l6.4,12.6324s10.4429,2.19,31.6653,2.6949,39.2448-1.179,39.4132-1.6843,5.7267-8.59,5.8952-9.0954,1.8527-5.39,1.8527-5.39S259.2877,203.3939,203.3681,200.5306Z"/><path class="n" d="M225.3551,204.8777a23.66,23.66,0,0,0-3.5559,1.2063c-4.5017,1.96,1.1419,4.5754,3.3313,5.0169a129.07,129.07,0,0,0,14.8665,1.7068c2.3854.1954,4.7731.3909,7.1663.4179,6.5273.0737,12.9966-1.1044,19.4179-2.2782,6.0472-1.1054,6.7584-4.99.3859-6.5207-4.8779-1.1715-10.3421-.0772-15.3157-.1729C243.7108,204.1009,233.5154,202.7789,225.3551,204.8777Z"/><polygon class="o" points="245 261.985 241.247 217.456 219.655 213.753 205.247 212.456 245 261.985 245 261.985"/><path class="p" d="M252.9136,96.6227V109.956L275.58,124.6227l.0635,12.0075L291.58,143.956l-4.6667,16-9.3333-.6667-1.7381,12.6667H259.58l-1.3334,27.3333,12,1.3334-5.3955,15.0552-19.2168,44.6485,35.2124-46.1528,13.5949-1.5059L305.99,198.6269l40.2569-7.3376,24.4622-27.2656,53.5378-11.401s2.6667-16,12-29.3334,28.6667-26.6666,28.6667-26.6666L418.89,89.2594l3.96-14.88s-33.27,10.91-69.9366,14.91-100,7.3334-100,7.3334Z"/><path class="q" d="M144.9136,129.2893s24.5043,4.2748,56.9188,7.4707,73.8114-.13,73.8114-.13l13.27,7.3258s-59.3333,2.6667-102.6667-2-41.3333-12.6667-41.3333-12.6667Z"/><path class="r" d="M71.6114,88.8914l-49.96,6.4617s73.0247,18.2562,137.2864,24.0982,51.8476,5.1117,51.8476,5.1117l-17.526-16.0654S95.2826,102.8767,71.6114,88.8914Z"/><path class="s" d="M244.6559,2.3542s53.759,50.6446,55.22,58.6773S280.889,76.3667,280.889,76.3667s36.5123,0,48.1963-1.46,25.5586-1.46,24.8283-6.5722S244.6559,2.3542,244.6559,2.3542Z"/><path class="p" d="M118.0439,164.7266l9.4932,10.2234s78.1364,7.3025,135.0957,6.5722A913.8863,913.8863,0,0,0,362.6766,174.95l8.0325-10.9263S264.8235,183.713,118.0439,164.7266Z"/><path class="t" d="M43.7629,121.983l18.7823,1.85,5.1117,16.7957-13.9143-.4612S48.0607,126.8761,43.7629,121.983Z"/><polygon class="u" points="81.532 128.214 85.183 141.359 97.597 143.549 94.676 130.405 81.532 128.214"/><path class="v" d="M36.9865,101.1951l11.684,16.0654s79.1175,12.3326,118.7905,16.39,73.9946,4.7874,73.9946,4.7874V124.563s-70.1037,0-119.03-8.0327S36.9865,101.1951,36.9865,101.1951Z"/><path class="w" d="M325.4482,195.0291a119.3539,119.3539,0,0,0,17.71-16.463c8.73-9.9775,9.4786-12.2225,9.4786-12.2225l-4.7393,1.2472s-7.7326,10.4764-14.7169,17.2113-11.7236,10.9753-11.7236,10.9753Z"/><path class="w" d="M301.0032,197.7729s7.2337-11.7236,10.227-17.2113a41.3562,41.3562,0,0,0,3.991-10.4764l-3.991.2494s-3.991,10.7259-7.2337,16.463-6.7349,11.7236-6.7349,11.7236Z"/><path class="w" d="M247.8728,173.0785s-1.9955,11.4742-1.4967,16.7124,1.4967,11.2247,1.4967,11.2247h-1.9955A99.8391,99.8391,0,0,1,244.3806,185.8a78.4013,78.4013,0,0,1,.4989-13.47Z"/><path class="w" d="M188.2569,170.3346a61.6667,61.6667,0,0,0,5.9865,16.2136,103.8476,103.8476,0,0,0,9.1247,13.9824L200.23,199.519a95.9938,95.9938,0,0,1-10.7259-16.2135c-4.24-8.481-4.7393-13.47-4.7393-13.47Z"/><path class="w" d="M147.1,166.8425a102.1262,102.1262,0,0,0,11.9731,17.2113,152.8567,152.8567,0,0,0,13.22,12.9708l2.7439.2494s-13.47-12.7213-18.9574-20.7034-5.4876-9.7281-5.4876-9.7281Z"/><path class="p" d="M125.3983,164.5976l13.22,15.964,12.2225,13.22,2.9933.2494s-13.47-15.2157-18.708-22.2l-5.2382-6.9843Z"/><path class="x" d="M198.5066,190.131c.3764.6405.6668,1.1349.8168,1.4243a2.2086,2.2086,0,0,0,2.3286,1.537l34.5724,2.3612c1.0979.0749,2.4276.0364,2.9926-.908a3.0278,3.0278,0,0,0,.2179-1.8468c-.2716-2.9128-1.0247-6.119-.8858-9.0361.0809-1.701,1.6411-5.1626.0372-6.5022a2.1872,2.1872,0,0,0-1.0609-.3852c-4.851-.83-9.46-.0321-14.2978-.4547-4.75-.415-9.525-.2492-14.2869-.329-4.6892-.0785-9.3864-1.5371-14.0842-.71C190.2537,176.0933,196.1155,186.062,198.5066,190.131Z"/><path class="y" d="M162.0658,173.5774s-3.7415-.4989-4.24.9977,10.7258,15.4652,12.9708,16.9618,20.9528,2.7439,20.9528,2.7439a104.9432,104.9432,0,0,1-6.7348-12.2225c-2.2449-5.2382-2.9933-6.9843-5.7371-7.4832S162.0658,173.5774,162.0658,173.5774Z"/><path class="z" d="M139.8658,171.8313s-3.4922-.7483-2.7438,1.9955,10.7258,14.4674,10.7258,14.4674a34.73,34.73,0,0,0,7.4832,1.9955c2.9933.2495,6.9843.7484,6.9843.7484s-7.7326-9.7281-9.7281-12.472-1.7461-5.4876-4.49-5.9865S139.8658,171.8313,139.8658,171.8313Z"/><path class="aa" d="M112.677,170.3346l14.4674,1.7461a6.2457,6.2457,0,0,1,3.991,2.7438c1.2472,2.245,9.7281,12.7214,9.7281,12.7214l-10.9753-1.2472S113.4253,171.083,112.677,170.3346Z"/><path class="ab" d="M252.8615,177.5684s-2.7438,0-2.9932,1.4966.2494,13.47.2494,14.7169a2.084,2.084,0,0,0,.7483,1.7461s32.926-.9978,39.1619-.9978a10.2146,10.2146,0,0,0,9.4787-5.9865c.7483-1.4967,4.24-9.9776,4.24-9.9776s.7483-2.2449-4.7394-1.9955S252.8615,177.5684,252.8615,177.5684Z"/><path class="ac" d="M318.4639,175.5729a7.5891,7.5891,0,0,0-4.24,2.4943c-1.4967,1.9956-3.7416,8.481-5.2382,10.7259s-2.9933,4.24-2.9933,4.24l16.7124-1.2472a58.29,58.29,0,0,0,5.9865-5.9865c2.7439-3.2428,5.9866-6.9843,5.9866-6.9843s3.991-3.9911,1.4966-3.7416S318.4639,175.5729,318.4639,175.5729Z"/><path class="ad" d="M349.6438,173.8268s-6.7349,7.982-9.2293,10.227-6.4854,5.7371-6.4854,5.7371a120.3453,120.3453,0,0,1,12.472-2.7439c4.24-.4988,4.9888-1.4966,4.9888-1.4966l8.98-9.4787s1.4966-3.2427-1.7461-2.9932S349.6438,173.8268,349.6438,173.8268Z"/><path class="ae" d="M67.2377,74.6592C83.73,70.0835,100.74,68.0846,117.7455,66.562c1.0077-.09,1.0172-1.6759,0-1.5848-17.1432,1.535-34.303,3.5408-50.9291,8.1538a.7931.7931,0,0,0,.4213,1.5282Z"/><path class="af" d="M97.9159,76.0187q59.4318-28.77,118.19-58.9212C225.8911,12.052,235.5911,6.839,245.3836,1.809c.72-.37.0777-1.4853-.6374-1.09-37.411,20.6564-76.0458,39.33-114.363,58.2281Q113.906,67.0733,97.3847,75.11c-.6092.2961-.0762,1.2027.5312.9087Z"/><path class="ag" d="M58.5062,148.8921a101.07,101.07,0,0,0-21.3813-35.5382A131,131,0,0,0,21.7855,98.6932a32.4139,32.4139,0,0,0-11.885-6.2456,4.7667,4.7667,0,0,1,2.168,2.3668,36.16,36.16,0,0,1,10.3418,6.479,149.1341,149.1341,0,0,1,14.2677,13.93,98.5456,98.5456,0,0,1,20.3,34.09C57.301,150.2753,58.8321,149.8627,58.5062,148.8921Z"/><path class="ah" d="M.8324,90.9178c14.39,5.6817,29.85,9.0343,45.08,12.1678,15.5638,3.2022,31.2641,5.7945,46.9914,8.2018,32.0072,4.8991,63.9466,8.809,96.308,11.06a760.064,760.064,0,0,0,99.4994.8722q24.5333-1.5061,48.9118-4.5912c4.0435-.5059,8.1281-.5925,12.1743-1.0078,4.11-.4219,8.1849-1.1737,12.3054-1.5813,7.8773-.7794,15.6345-1.7935,23.4594-2.9592,17.73-2.6415,35.4526-5.3724,53.0248-8.8174,17.1791-3.3678,34.7375-6.9471,50.9394-13.3444,1.87-.7385.2574-3.2665-1.6-2.5333-14.6612,5.7889-30.5585,9.0839-46.0809,12.2309-15.3792,3.1179-30.8863,5.6555-46.4181,8.024-15.8944,2.4237-31.8641,4.8043-47.9084,6.1385-15.8886,1.3213-31.6847,3.5148-47.6006,4.7335-64.8925,4.9691-130.1222.2967-194.2792-9.2609C88.3028,107.6679,70.9742,105,53.7858,101.6617,36.5147,98.3076,18.7193,94.8154,2.4322,88.3845c-1.8553-.7325-3.4722,1.794-1.6,2.5333Z"/><path class="ae" d="M1.6323,90.1721c22.68-2.4929,45.4227-4.9648,68.0047-8.24.7539-.1093.4337-1.2554-.316-1.1461C46.82,84.0663,24.1734,86.3633,1.6323,89.355c-.51.0676-.5275.8751,0,.8171Z"/><path class="ai" d="M70.05,89.5018c20.4821,8.3928,42.1881,12.8239,64.1046,15.4,23.5079,2.7633,47.1817,4.56,70.8241,5.6683,47.5164,2.2279,95.1009-.3278,142.411-4.8493,24.9386-2.3835,49.6251-6.6741,72.9191-16.2191.9309-.3815.5234-1.9153-.4213-1.5282-20.6579,8.4648-42.8053,13.2164-64.9786,15.4279-23.4783,2.3417-47.0052,4.2491-70.5761,5.3564a931.6841,931.6841,0,0,1-139.67-4.2813c-25.3536-2.6227-50.4833-6.7881-74.1918-16.503-.9431-.3864-1.3538,1.1461-.4213,1.5282Z"/><path class="ai" d="M67.3582,76.189c21.0448,8.5028,43.311,12.9049,65.7874,15.4936,23.6076,2.719,47.3729,4.4905,71.11,5.5959,47.877,2.23,95.8262-.2781,143.5049-4.7408,25.7141-2.4068,51.1719-6.6243,75.24-16.3487,1.8671-.7544,1.0512-3.8216-.8426-3.0564-21.3109,8.61-44.0642,13.2865-66.8876,15.5168-23.4537,2.2919-46.954,4.1566-70.4961,5.2445a958.1072,958.1072,0,0,1-141.1745-4.2495c-25.7486-2.6165-51.2782-6.7663-75.3986-16.5118-1.8906-.7639-2.7128,2.3008-.8426,3.0564Z"/><path class="ai" d="M97.4393,76.3276c18.414,4.3176,37.2123,6.3966,56.0218,8.0965,19.392,1.7527,38.8558,3.122,58.3152,3.8314,39.1067,1.4258,78.2586-.2094,117.2416-3.4039,21.4617-1.7587,42.8874-3.597,63.8992-8.5236.9926-.2327.5724-1.7612-.4213-1.5282-19.05,4.4666-38.4039,6.3292-57.86,7.9959-19.2889,1.6525-38.6111,2.9485-57.9574,3.6913a953.917,953.917,0,0,1-114.5767-2.9045c-21.5421-1.7634-43.1612-3.84-64.2415-8.7831-.992-.2326-1.4154,1.2951-.4213,1.5282Z"/><path class="ae" d="M372.5272,66.5205c17.0236,1.4275,34.082,3.1833,50.5934,7.7585a.7931.7931,0,0,0,.4213-1.5282c-16.6455-4.6123-33.8536-6.376-51.0147-7.8151-1.0163-.0853-1.0106,1.5,0,1.5848Z"/><path class="aj" d="M102.9287,161.6366c5.492,5.3175,10.9867,10.6325,16.58,15.8439,5.2946,4.9334,10.4968,10.156,16.27,14.5311.3973.3011.84-.3327.5176-.6709-5.1163-5.3631-10.9411-10.1113-16.3924-15.1318-5.4732-5.0406-10.9356-10.0916-16.31-15.2377-.4374-.4187-1.1016.243-.6654.6654Z"/><path class="ak" d="M204.6392,212.287c12.9075,17.1763,26.0937,34.3541,40.304,50.4809.4271.4847,1.0953-.2143.7-.7-13.5356-16.6633-27.2262-33.13-40.1812-50.2617-.365-.4827-1.1926-.0105-.8232.4812Z"/><path class="af" d="M392.6773,74.3831q-59.136-28.8084-117.65-58.8868c-9.7206-5.0282-19.5957-9.888-29.0966-15.323-1.4232-.8141-2.722,1.4649-1.2748,2.1809,18.0692,8.94,35.7883,18.6425,53.7771,27.7533q30.0226,15.2056,60.2318,30.0394,16.4456,8.087,32.95,16.0536c1.2134.5864,2.2821-1.2232,1.0623-1.8174Z"/><path class="ag" d="M482.6126,91.9953c-5.1477.8055-9.9025,3.4108-14.04,6.6979a131.1945,131.1945,0,0,0-15.3394,14.6607,101.0731,101.0731,0,0,0-21.3813,35.5382c-.3255.969,1.2045,1.3847,1.5281.4213a98.5447,98.5447,0,0,1,20.3-34.09,153.487,153.487,0,0,1,13.8755-13.5892c4.1306-3.5918,8.84-6.6754,14.09-7.8236A5.395,5.395,0,0,1,482.6126,91.9953Z"/><path class="ae" d="M488.726,89.355c-22.1645-2.9461-44.4244-5.2371-66.5582-8.4044-.7483-.107-1.0711,1.0387-.3159,1.1462,22.2158,3.1617,44.57,5.628,66.8741,8.0753.5267.0578.51-.7493,0-.8171Z"/><path class="aj" d="M386.7643,160.9712c-5.3744,5.1461-10.8368,10.1971-16.31,15.2377-5.4511,5.02-11.2762,9.7689-16.3924,15.1318-.3192.3347.1164.9749.5177.6709,5.7736-4.3752,10.9755-9.5976,16.27-14.5311,5.593-5.2114,11.0877-10.5264,16.58-15.8439.4361-.4222-.2278-1.0843-.6653-.6654Z"/><path class="al" d="M283.1482,213.336q-9.549,12.519-19.39,24.8121c-6.366,7.9269-13.1436,15.5566-19.3934,23.5692-.761.9758.5165,2.3649,1.4008,1.4008,7.1269-7.77,13.611-16.2555,20.185-24.4937q9.5976-12.0272,18.8443-24.3261c.7392-.9842-.9132-1.9236-1.6464-.9623Z"/><path class="ai" d="M66.8974,75.3062c.7468,2.4257,1.4265,4.8565,2.2423,7.2709.7014,2.0759,1.1278,4.569,2.4717,6.3143.3248.4218,1.1355.354,1.1074-.3-.1008-2.3526-1.4808-4.7022-2.34-6.882-.8917-2.2632-1.9-4.4422-2.848-6.6705-.1543-.3626-.7478-.1036-.6337.2672Z"/><path class="am" d="M422.85,74.38c-1.0559,2.3016-1.24,4.9918-1.8877,7.442-.6488,2.4531-1.9125,4.91-2.0723,7.4378a.6623.6623,0,0,0,1.12.464c1.6015-2.0463,2.1436-4.9108,2.7757-7.399.6352-2.5005,1.4549-5.2321,1.0824-7.8117A.5621.5621,0,0,0,422.85,74.38Z"/><path class="al" d="M245.6346,260.3264c7.5539-14.2485,13.5494-29.5708,19.2168-44.6485.1136-.3023-.371-.4331-.4836-.1333-5.7006,15.1835-12.4928,29.8025-18.931,44.6662-.057.1316.1271.249.1978.1156Z"/><path class="an" d="M321.9505,195.8086a171.0557,171.0557,0,0,0,26.1367-27.8347c.235-.3065-.2863-.6059-.5185-.303A222.41,222.41,0,0,1,321.5915,195.45c-.2434.2252.1115.5638.359.3589Z"/><path class="ao" d="M108.1151,127.53c35.8882,4.9122,71.7958,9.9,108.0186,11.4918A704.2021,704.2021,0,0,0,323.99,135.1933c19.8825-2.1848,39.6948-4.9511,59.51-7.6634,1.5089-.2065.8665-2.4973-.6319-2.2922-35.6193,4.8753-71.2709,9.8571-107.2252,11.3925A706.0732,706.0732,0,0,1,170.23,133.0971c-20.5456-2.2012-41.0128-5.0576-61.483-7.8594-1.496-.2048-2.1432,2.0854-.6319,2.2922Z"/><path class="ap" d="M118.8376,135.6681c32.9257,4.5007,65.9012,8.7337,99.1319,10.1018a693.7538,693.7538,0,0,0,99.7807-3.2412c18.5967-1.92,37.1278-4.4126,55.649-6.9455,1.0059-.1376.5777-1.6648-.4213-1.5282-33.1525,4.5339-66.3583,8.8223-99.8219,10.1395a696.0348,696.0348,0,0,1-97.1971-3.0389c-18.95-1.91-37.8313-4.4365-56.7-7.0157-.9973-.1363-1.4288,1.39-.4213,1.5282Z"/><path class="aq" d="M119.38,154.06c65.2469,10.2231,131.8734,10.6194,197.6583,6.0657,18.4733-1.2787,36.9007-3.2036,55.1983-6.0657,1.0046-.1572.578-1.6845-.4213-1.5282-32.3814,5.0652-65.1386,7.1048-97.8749,8.0209-32.58.9117-65.1487.9234-97.6681-1.5123q-28.354-2.1238-56.471-6.5086c-.9977-.1563-1.4275,1.3705-.4213,1.5282Z"/><path class="ao" d="M107.5184,124.74c3.745,9.4219,7.9414,18.685,11.9342,28.0045.1376.3211.6077.0441.47-.275-3.9967-9.2924-7.8125-18.694-12.0538-27.8773-.09-.195-.4314-.0549-.3508.1478Z"/><path class="ao" d="M382.6878,126.0932c-4.4349,8.3186-7.7272,17.4471-11.4652,26.1011-.4135.9571,1,1.7885,1.4111.8249,3.7246-8.7308,8.11-17.4761,11.1064-26.4823a.5783.5783,0,0,0-1.0523-.4437Z"/><path class="ar" d="M393.0377,125.8943c-1.5125,3.9571-2.8181,8.008-4.2471,11.9979-1.4186,3.9609-3.1423,7.9391-4.1829,12.0157-.1625.6366.8065,1.1072,1.1032.4651,1.7079-3.6958,2.85-7.7053,4.2048-11.5435,1.478-4.1875,3.095-8.3438,4.4831-12.56.288-.8749-1.0424-1.2088-1.3611-.3752Z"/><path class="ar" d="M386.0824,151.4886c8.2472-1.2174,16.5079-3.0682,24.6977-4.649.9733-.1878.5452-1.6143-.4049-1.4685a171.2849,171.2849,0,0,0-24.5446,5.2042.474.474,0,0,0,.2518.9133Z"/><path class="ar" d="M393.53,126.7724c7.5177-.3182,15.0588-2.1,22.3285-3.9372a.855.855,0,0,0-.4543-1.6475c-7.2769,1.8895-14.6806,2.9922-22.0026,4.6362a.4851.4851,0,0,0,.1284.9485Z"/><path class="ar" d="M415.6023,122.642c-2.13,3.33-2.6071,8.1588-3.3971,11.99-.7375,3.5764-2.3691,7.85-2.1568,11.4733a.5339.5339,0,0,0,.9863.2671c1.9631-3.02,2.1608-7.7806,2.8534-11.2765.7867-3.9705,2.4867-8.19,2.6486-12.2009a.5055.5055,0,0,0-.9344-.2531Z"/><path class="ar" d="M418.6011,143.949a135.7487,135.7487,0,0,0,5.7882-21.6158.6785.6785,0,0,0-1.3073-.36c-2.0607,7.2035-3.2666,14.5344-5.9136,21.5812-.3369.8968,1.097,1.2814,1.4327.395Z"/><path class="ar" d="M424.6683,122.5866c4.3809-.8547,8.7342-1.8538,13.0929-2.8147,4.2868-.945,8.884-1.6233,12.9987-3.1563.9426-.3511.915-2.0586-.2592-1.9152-4.2611.52-8.5214,1.9477-12.6661,3.0513-4.5014,1.1987-9.0169,2.36-13.4872,3.6709a.6041.6041,0,0,0,.3209,1.164Z"/><path class="ar" d="M417.132,145.0133c3.1852-.5748,6.3652-1.16,9.543-1.7759,3.115-.6039,6.5013-.9208,9.469-2.0444.7639-.2892.7237-1.5429-.2049-1.5139-3.0658.0957-6.1638,1.04-9.1618,1.6548q-5.0444,1.0344-10.07,2.1392c-1.0128.2215-.5748,1.7205.4246,1.54Z"/><path class="ar" d="M97.5085,126.27c1.3882,4.2165,3.005,8.3722,4.4831,12.56,1.3544,3.8373,2.4974,7.8488,4.2048,11.5435.2938.6358,1.2674.1783,1.1032-.4651-1.04-4.0761-2.7645-8.0555-4.1829-12.0157-1.429-3.99-2.7346-8.0407-4.2471-11.9979-.3182-.8322-1.65-.5013-1.3611.3752Z"/><path class="ar" d="M106.0767,150.5753a171.2721,171.2721,0,0,0-24.5446-5.2042c-.9486-.1456-1.38,1.28-.4049,1.4685,8.19,1.5808,16.4506,3.4316,24.6977,4.649a.474.474,0,0,0,.2518-.9133Z"/><path class="ar" d="M98.5054,125.8239c-7.3222-1.6441-14.7257-2.7467-22.0026-4.6362a.855.855,0,0,0-.4543,1.6475c7.27,1.8376,14.8109,3.619,22.3285,3.9372a.4851.4851,0,0,0,.1284-.9485Z"/><path class="ar" d="M75.3706,122.8951c.1616,4.0036,1.8641,8.2416,2.6486,12.2009.6975,3.5207.8825,8.2447,2.8534,11.2765a.5339.5339,0,0,0,.9863-.2671c.2115-3.61-1.4238-7.9187-2.1568-11.4733-.7939-3.85-1.2615-8.651-3.3971-11.99a.5055.5055,0,0,0-.9344.2531Z"/><path class="ar" d="M74.7389,143.554c-2.6469-7.0465-3.853-14.3777-5.9136-21.5812a.6785.6785,0,0,0-1.3073.36,135.7458,135.7458,0,0,0,5.7882,21.6158c.3352.885,1.77.5034,1.4327-.395Z"/><path class="ar" d="M67.56,121.4226c-4.47-1.31-8.9859-2.4723-13.4873-3.6709-4.15-1.1049-8.4017-2.5305-12.666-3.0513-1.1636-.1421-1.2116,1.56-.2592,1.9152,4.1181,1.5343,8.7089,2.2106,12.9987,3.1563,4.3586.9609,8.7121,1.96,13.0929,2.8147a.6041.6041,0,0,0,.3209-1.164Z"/><path class="ar" d="M75.2,143.4731q-5.03-1.1-10.07-2.1392c-3.0013-.6154-6.0949-1.5591-9.1618-1.6548-.9211-.0288-.9757,1.2221-.2049,1.5139,2.9677,1.1236,6.354,1.44,9.469,2.0444,3.1778.616,6.3578,1.2011,9.543,1.7759.9977.18,1.4391-1.3183.4246-1.54Z"/><path class="an" d="M148.1927,169.0994a89.3961,89.3961,0,0,0,22.8109,27.315c.5156.4,1.2546-.2953.7354-.7354-9.1129-7.7236-17.0812-16.46-23.108-26.8358a.254.254,0,0,0-.4383.2562Z"/><path class="as" d="M185.9932,199.5543a26.9473,26.9473,0,0,0,3.6181,7.461c1.3382,1.9437,3.0589,4.6871,5.2663,5.6342a.7.7,0,0,0,.9486-.9486c-1.1018-2.1831-3.4505-3.905-4.878-5.9375a54.5813,54.5813,0,0,1-3.914-6.6479.5721.5721,0,0,0-1.041.4388Z"/><path class="as" d="M294.4419,212.6677A44.2751,44.2751,0,0,0,305.99,198.6269a.9417.9417,0,0,0-1.625-.95c-1.7612,2.545-3.3155,5.1624-5.2883,7.5645-1.8154,2.21-3.8612,4.1635-5.878,6.1831-.8183.8194.3812,1.9369,1.2432,1.2431Z"/><path class="an" d="M343.1858,193.01a144.5966,144.5966,0,0,0,15.09-13.94c4.4108-4.6532,9.0259-9.59,12.4335-15.0459.1831-.2933-.2526-.6436-.4861-.3751-4.3784,5.0339-8.2872,10.4049-12.8865,15.2672a187.3815,187.3815,0,0,1-14.5972,13.6473c-.3133.2675.1343.6937.4465.4465Z"/><path class="an" d="M125.152,164.89q6.5507,8.0266,13.035,16.11c3.6034,4.5141,7.1472,9.2055,12.0633,12.37.6785.4368,1.3073-.646.6312-1.08-5.1562-3.3074-8.8175-8.36-12.7178-12.9816q-6.28-7.44-12.4952-14.9353c-.3012-.3631-.8108.156-.5165.5165Z"/><path class="an" d="M297.74,198.6357c5.8819-8.3572,10.4137-18.12,13.9556-27.6809.2147-.5795-.6987-.8163-.9193-.2535-3.7948,9.6822-8.5426,18.5555-13.5494,27.6345a.2973.2973,0,0,0,.5131.3Z"/><path class="an" d="M184.6925,169.8137c1.5716,11.1643,8.1833,23.0631,15.9209,31.1292.5477.571,1.3572-.27.8579-.858a77.9423,77.9423,0,0,1-10.0064-14.18c-2.7512-5.2367-4.32-10.6836-6.1157-16.2719a.3408.3408,0,0,0-.6567.1811Z"/><path class="an" d="M244.2463,172.9172a104.726,104.726,0,0,0-.3166,14.92,83.0745,83.0745,0,0,0,1.0718,13.7493c.086.4351.7728.3305.7661-.1037-.0726-4.7506-.7179-9.5077-.8577-14.2673-.14-4.7724.1509-9.5318.0916-14.2984a.3779.3779,0,0,0-.7552,0Z"/><path class="ap" d="M118.71,135.589c2.3431,6.1967,4.6426,12.4206,7.1206,18.5646.1956.485.9882.286.8-.2205-2.31-6.214-4.8065-12.3665-7.252-18.5284-.1618-.4079-.8277-.2364-.6685.1843Z"/><path class="ap" d="M366.2535,154.0987c2.44-5.8575,5.3007-11.8293,7.0843-17.9194a.1431.1431,0,0,0-.26-.11c-3.0888,5.5956-5.32,11.8627-7.7791,17.7658-.2448.5878.7132.8442.9551.2634Z"/><path class="at" d="M373.406,136.1445a1.5378,1.5378,0,0,0-.0805-.7026.137.137,0,0,0-.2352,0,1.5405,1.5405,0,0,0-.0805.7026.1982.1982,0,0,0,.3962,0Z"/><path class="at" d="M373.45,135.6472q.3662-.6053.7325-1.21c.2339-.3867-.4069-.6929-.5884-.2481q-.2645.6481-.5288,1.2963c-.0923.2262.2652.3595.3847.1622Z"/><path class="ap" d="M108.75,127.8344c3.3446,2.4922,7.039,4.6291,9.9753,7.62.4864.4954,1.25-.2678.7617-.7617-2.9983-3.0351-6.7736-5.2416-10.4183-7.4038-.3584-.2126-.6365.3084-.3187.5452Z"/><path class="ap" d="M373.4094,136.5043c3.6268-2.4295,7.8235-5.3873,10.2543-9.0731.2971-.4505-.3341-.8425-.7-.54-1.63,1.3465-3.0153,3.0148-4.6045,4.4235a53.8859,53.8859,0,0,1-5.5,4.249c-.5763.3911-.0356,1.333.55.9408Z"/><path class="au" d="M66.7381,155.8474c46.6243,13.547,94.9185,17.5758,142.9473,20.1922,46.0179,2.5067,92.3049,1.6846,138.0692-4.4363A516.2322,516.2322,0,0,0,423.62,155.8474c1.9005-.553,1.0942-3.762-.8136-3.2069-44.32,12.896-90.1152,18.9849-135.9065,20.8-46.3547,1.8374-93.114-.3778-139.2471-5.5122-26.9984-3.0048-53.8624-7.6637-80.1015-15.2877-1.9047-.5534-2.7174,2.6537-.8135,3.2069Z"/><path class="e" d="M60.3765,153.3665c48.2866,12.9111,98.3024,16.7507,148.0436,19.2442,47.6584,2.3891,95.5956,1.6056,142.9914-4.228a575.3374,575.3374,0,0,0,78.57-15.0162,1.5861,1.5861,0,0,0-.8426-3.0563c-45.9,12.29-93.3278,18.0936-140.7516,19.8234-48.0072,1.7511-96.4336-.36-144.2114-5.2534-27.9608-2.8638-55.7826-7.304-82.9571-14.57a1.5861,1.5861,0,0,0-.8426,3.0563Z"/><path class="am" d="M137.8471,191.8948c27.6453,5.235,55.6105,9.1024,83.7512,10.1469a576.4291,576.4291,0,0,0,83.9908-3.1256q23.5908-2.5812,46.9222-7.0213c1.0009-.1893.577-1.717-.4213-1.5282-54.5089,10.3076-110.8249,13.6129-166.0243,7.3661-16.0248-1.8135-31.9542-4.366-47.7973-7.3661-.9967-.1888-1.4238,1.3383-.4213,1.5282Z"/><path class="ai" d="M.8324,91.132c14.39,6.1381,29.85,9.76,45.08,13.1454,15.5638,3.46,31.2641,6.26,46.9914,8.8608,32.0072,5.2928,63.9466,9.5168,96.308,11.9481a703.697,703.697,0,0,0,99.4994.9424q24.5333-1.6274,48.9118-4.96c4.0435-.5466,8.1281-.64,12.1743-1.0888,4.11-.4557,8.1849-1.2679,12.3054-1.7083,7.8773-.842,15.6345-1.9376,23.4594-3.197,17.73-2.8537,35.4526-5.8041,53.0248-9.5258,17.1791-3.6385,34.7375-7.5053,50.9394-14.4166,1.87-.7979.2574-3.529-1.6-2.7369-14.6612,6.2541-30.5585,9.8138-46.0809,13.2136-15.3792,3.3684-30.8863,6.11-46.4181,8.6687-15.8944,2.6185-31.8641,5.19-47.9084,6.6318-15.8886,1.4274-31.6847,3.7972-47.6006,5.1138-64.8925,5.3683-130.1222.3206-194.2792-10.005-17.3362-2.79-34.6648-5.6725-51.8532-9.2788C36.5147,99.1155,18.7193,95.3428,2.4322,88.3951.5769,87.6037-1.04,90.3333.8324,91.132Z"/><path class="av" d="M313.1791,172.0117a18.0131,18.0131,0,0,0-6.2225-2.7733q-9.2812.555-18.569.8952c-32.4776,1.1846-65.1465.5963-97.6773-1.42a29.5917,29.5917,0,0,0-7.0084,2.5061q12.3612.7824,24.7181,1.391A885.643,885.643,0,0,0,313.1791,172.0117Z"/><path class="as" d="M194.9454,211.4178c7.51,2.7659,16.1919,3.5142,24.1061,4.418a222.731,222.731,0,0,0,25.4428,1.4122,261.1952,261.1952,0,0,0,49.7569-4.6387c1.3277-.2581.7663-2.29-.5595-2.03a237.1216,237.1216,0,0,1-49.8045,4.6664q-12.1428-.22-24.2321-1.4935c-8.18-.8614-16.3771-2.8834-24.5682-3.3805-.6353-.0386-.6723.85-.1415,1.0457Z"/><path class="aw" d="M357.4476,115.8713c-3.3068.3846-6.6157.74-9.9288,1.0379-15.8886,1.4274-31.6847,3.7972-47.6006,5.1138-53.9225,4.4608-108.0773,1.7252-161.6565-5.25a52.1167,52.1167,0,0,0-6.4393,2.2142c19.05,2.5616,38.144,4.6533,57.389,6.0992a703.682,703.682,0,0,0,99.4994.9423q24.5333-1.6272,48.9119-4.96c4.0434-.5466,8.128-.64,12.1743-1.0888,4.11-.4558,8.1848-1.2679,12.3054-1.7083.8733-.0934,1.7406-.201,2.6113-.3C362.6463,117.2451,360.2142,116.544,357.4476,115.8713Z"/><path class="ax" d="M382.5921,73.8627c-3.1359,4.39-61.2718,12.5439-134.5333,12.5439S124.1877,79.5074,104.7447,76.3715c0-8.833,69.1117-16.3071,142.3733-16.3071S382.5921,65.03,382.5921,73.8627Z"/><path class="ay" d="M244.7462.7185S95.2161,74.3361,93.7285,76.5674s98.1778,11.9,124.21,11.1565C135.38,69.8734,244.7462.7185,244.7462.7185Z"/></g></svg>