<svg xmlns="http://www.w3.org/2000/svg" viewBox="0 0 97.73 159.36"><defs><style>.a{fill:#333;}.b{fill:#020f0e;opacity:0.2;}.c{fill:#249390;}.d{fill:#0c6b66;}.e{fill:#d6b9b9;}.f{fill:#053330;}.g{fill:#032824;}</style></defs><polygon class="a" points="33.8 117.32 21.57 126.92 27.69 159.35 33.8 134.22 40.09 131.42 39.33 124.2 38.81 119.28 33.8 117.32"/><polygon class="b" points="39.33 124.2 40.09 131.42 33.8 134.22 27.69 159.35 28.85 131.84 39.33 124.2"/><polygon class="a" points="63.93 117.32 76.16 126.92 70.05 159.35 63.93 134.22 57.64 131.42 58.41 124.2 58.92 119.28 63.93 117.32"/><polygon class="b" points="58.41 124.2 57.64 131.42 63.93 134.22 70.05 159.35 68.88 131.84 58.41 124.2"/><path class="b" d="M30.85,120.2V126a2.39,2.39,0,0,0,2.29,1.79l3,5.35L38.81,132l-2-8.71Z"/><path class="b" d="M66.54,120.2V126a2.39,2.39,0,0,1-2.29,1.79l-3,5.35L58.58,132l2-8.71Z"/><polygon class="c" points="63.93 69.6 33.8 99.07 33.8 102.67 63.93 73.2 63.93 69.6"/><polygon class="c" points="40.09 117.32 48.87 117.32 63.93 117.32 63.93 94.01 40.09 117.32"/><polygon class="c" points="63.93 79.06 33.8 108.53 33.8 111.77 63.93 82.3 63.93 79.06"/><polygon class="d" points="63.93 57.89 33.8 87.36 33.8 99.07 63.93 69.6 63.93 57.89"/><polygon class="d" points="63.93 82.3 33.8 111.77 33.8 117.32 40.09 117.32 63.93 94.01 63.93 82.3"/><polygon class="e" points="63.93 73.2 33.8 102.67 33.8 108.53 63.93 79.06 63.93 73.2"/><path class="e" d="M54.88,135H42.74a1.32,1.32,0,0,0-1.31,1.32l-2.62,11a1.31,1.31,0,0,0,1.31,1.31H57.5a1.31,1.31,0,0,0,1.31-1.31l-2.62-11A1.32,1.32,0,0,0,54.88,135Z"/><polygon class="b" points="41.43 136.31 41.05 137.91 56.57 137.91 56.19 136.31 41.43 136.31"/><path class="b" d="M38.81,147.35a1.31,1.31,0,0,0,1.31,1.31H57.5a1.31,1.31,0,0,0,1.31-1.31Z"/><path class="a" d="M57.33,136.52h-17a1.85,1.85,0,0,1-1.84-1.85l-3.68-15.51a1.85,1.85,0,0,1,1.84-1.84H61a1.85,1.85,0,0,1,1.85,1.84l-3.69,15.51A1.85,1.85,0,0,1,57.33,136.52Z"/><path class="b" d="M18.84,114.31a.78.78,0,0,1-.78.78H10.8a.79.79,0,0,1-.79-.78Z"/><polygon class="b" points="36.18 125.12 61.44 125.12 61.02 126.92 36.61 126.92 36.18 125.12"/><path class="d" d="M66.54,115.49a1.84,1.84,0,0,0-1.84-1.84h-32a1.84,1.84,0,0,0-1.84,1.84v2.87H66.54Z"/><path class="d" d="M30.85,123.28a1.85,1.85,0,0,0,1.84,1.84h32a1.85,1.85,0,0,0,1.84-1.84V120.2H30.85Z"/><rect class="e" x="30.85" y="118.36" width="35.69" height="1.84"/><path class="b" d="M30.85,115.49a1.84,1.84,0,0,1,1.84-1.84h32a1.84,1.84,0,0,1,1.84,1.84Z"/><path class="b" d="M30.85,123.28a1.85,1.85,0,0,0,1.84,1.84h32a1.85,1.85,0,0,0,1.84-1.84Z"/><path class="c" d="M37.9,16.85A52.07,52.07,0,0,0,33.8,37V87.36L63.93,57.89V37a52.25,52.25,0,0,0-4-20.06,19.37,19.37,0,0,0-22-.1Z"/><path class="e" d="M48.81,5a19.08,19.08,0,0,0-4.61.57,56.84,56.84,0,0,0-6.3,11.27,19.37,19.37,0,0,1,22,.1A56.9,56.9,0,0,0,53.56,5.62,18.75,18.75,0,0,0,48.81,5Z"/><path class="f" d="M53.56,5.62A42.24,42.24,0,0,0,48.87,0,42.42,42.42,0,0,0,44.2,5.58,19.08,19.08,0,0,1,48.81,5,18.75,18.75,0,0,1,53.56,5.62Z"/><circle class="f" cx="48.87" cy="39.1" r="10.14"/><path class="d" d="M48.87,30.8a8.3,8.3,0,1,1-8.31,8.3,8.3,8.3,0,0,1,8.31-8.3m0-3.69a12,12,0,1,0,12,12,12,12,0,0,0-12-12Z"/><path class="g" d="M48.87,32.64a6.46,6.46,0,1,1-6.46,6.46,6.47,6.47,0,0,1,6.46-6.46m0-1.84a8.3,8.3,0,1,0,8.3,8.3,8.3,8.3,0,0,0-8.3-8.3Z"/><path class="c" d="M49.65,29a.78.78,0,1,0-.78.78A.78.78,0,0,0,49.65,29Z"/><path class="c" d="M49.65,49.2a.78.78,0,1,0-.78.78A.78.78,0,0,0,49.65,49.2Z"/><circle class="c" cx="56.01" cy="31.96" r="0.78"/><path class="c" d="M42.27,46.8a.78.78,0,0,0-1.1-1.11.8.8,0,0,0,0,1.11A.78.78,0,0,0,42.27,46.8Z"/><path class="c" d="M59,39.88a.78.78,0,1,0-.78-.78A.78.78,0,0,0,59,39.88Z"/><path class="c" d="M38.76,39.88A.78.78,0,1,0,38,39.1.78.78,0,0,0,38.76,39.88Z"/><circle class="c" cx="56.01" cy="46.24" r="0.78"/><path class="c" d="M41.17,32.51a.78.78,0,1,0,0-1.11A.8.8,0,0,0,41.17,32.51Z"/><path class="c" d="M53.46,30.07a.78.78,0,0,0-.42-1,.78.78,0,1,0-.59,1.44A.77.77,0,0,0,53.46,30.07Z"/><path class="c" d="M45.71,48.73a.78.78,0,0,0-.42-1,.78.78,0,0,0-.6,1.44A.78.78,0,0,0,45.71,48.73Z"/><path class="c" d="M58.5,36a.78.78,0,0,0,.43-1,.79.79,0,0,0-1-.43.78.78,0,0,0-.42,1A.76.76,0,0,0,58.5,36Z"/><path class="c" d="M39.83,43.68a.78.78,0,0,0-.6-1.45.78.78,0,0,0-.42,1A.78.78,0,0,0,39.83,43.68Z"/><path class="c" d="M57.9,43.7a.78.78,0,1,0,.6-1.44.78.78,0,0,0-.6,1.44Z"/><path class="c" d="M39.24,35.94a.78.78,0,0,0,1-.42.78.78,0,1,0-1.44-.6A.77.77,0,0,0,39.24,35.94Z"/><path class="c" d="M52,48.74a.79.79,0,0,0,1,.42.78.78,0,0,0,.42-1,.76.76,0,0,0-1-.42A.78.78,0,0,0,52,48.74Z"/><path class="c" d="M44.29,30.06a.78.78,0,1,0,1.44-.6.78.78,0,1,0-1.44.6Z"/><polygon class="c" points="9.51 93.99 0 111.57 9.51 111.57 9.51 109.41 7.98 109.41 9.51 93.99"/><path class="b" d="M9.51,94s-2.45,12.94-2.22,16.34H8.55L9,111.57h.49Z"/><polygon class="a" points="33.8 72.53 19.2 93.99 11.89 93.99 11.89 102.01 19.2 102.01 33.8 92.81 33.8 72.53"/><polygon class="c" points="19.34 93.99 28.85 111.57 19.34 111.57 19.34 109.41 20.87 109.41 19.34 93.99"/><path class="b" d="M19.34,94s2.45,12.94,2.22,16.34H20.3l-.47,1.24h-.49Z"/><path class="e" d="M18.06,115.09H10.8a.79.79,0,0,1-.79-.78L8.44,107.7a.79.79,0,0,1,.79-.78h10.4a.78.78,0,0,1,.78.78l-1.57,6.61A.78.78,0,0,1,18.06,115.09Z"/><path class="d" d="M8,109.41h12.9c-.08-1.34-.17-2.6-.26-3.82H8.23C8.14,106.81,8.06,108.07,8,109.41Z"/><path class="e" d="M8.33,104.36c0,.4-.06.82-.1,1.23H20.62l-.09-1.23Z"/><polygon class="b" points="8.85 109.41 20.01 109.41 19.89 109.91 8.97 109.91 8.85 109.41"/><polygon class="b" points="32.48 93.64 33.8 92.81 33.8 72.53 32.48 93.64"/><polygon class="b" points="19.34 93.99 23.31 99.42 22.54 99.9 19.34 93.99"/><path class="d" d="M14.69,78.84a2.09,2.09,0,0,0-.26-.27h0Z"/><path class="d" d="M20.53,104.36c-.85-10.51-2.24-16.83-3.48-20.58a18.42,18.42,0,0,0-2.69-.2,18,18,0,0,0-2.55.18c-1.24,3.74-2.63,10.07-3.48,20.6Z"/><path class="f" d="M17.05,83.78a15.09,15.09,0,0,0-2.36-4.94l-.27-.27c-.07.06-1.25,1.07-2.61,5.19a18,18,0,0,1,2.55-.18A18.42,18.42,0,0,1,17.05,83.78Z"/><polygon class="c" points="88.22 93.99 97.73 111.57 88.22 111.57 88.22 109.41 89.75 109.41 88.22 93.99"/><path class="b" d="M88.22,94s2.45,12.94,2.22,16.34H89.18l-.46,1.24h-.5Z"/><polygon class="a" points="63.93 72.53 78.53 93.99 85.84 93.99 85.84 102.01 78.53 102.01 63.93 92.81 63.93 72.53"/><polygon class="c" points="78.39 93.99 68.88 111.57 78.39 111.57 78.39 109.41 76.86 109.41 78.39 93.99"/><path class="b" d="M78.39,94s-2.45,12.94-2.22,16.34h1.26l.47,1.24h.49Z"/><path class="e" d="M79.68,115.09h7.26a.78.78,0,0,0,.78-.78l1.57-6.61a.78.78,0,0,0-.78-.78H78.11a.78.78,0,0,0-.79.78l1.57,6.61A.78.78,0,0,0,79.68,115.09Z"/><path class="d" d="M89.75,109.41H76.86c.07-1.34.16-2.6.25-3.82H89.5C89.59,106.81,89.68,108.07,89.75,109.41Z"/><path class="e" d="M89.41,104.36l.09,1.23H77.11c0-.41.06-.83.1-1.23Z"/><polygon class="b" points="88.89 109.41 77.73 109.41 77.84 109.91 88.77 109.91 88.89 109.41"/><polygon class="b" points="65.25 93.64 63.93 92.81 63.93 72.53 65.25 93.64"/><polygon class="b" points="78.39 93.99 74.43 99.42 75.19 99.9 78.39 93.99"/><path class="d" d="M83.05,78.84a1.48,1.48,0,0,1,.26-.27h0S83.2,78.68,83.05,78.84Z"/><path class="d" d="M77.21,104.36c.85-10.51,2.23-16.83,3.47-20.58a18.52,18.52,0,0,1,2.69-.2,17.9,17.9,0,0,1,2.55.18c1.24,3.74,2.63,10.07,3.49,20.6Z"/><path class="f" d="M80.68,83.78a15,15,0,0,1,2.37-4.94c.15-.16.26-.26.26-.27s1.25,1.07,2.61,5.19a17.9,17.9,0,0,0-2.55-.18A18.52,18.52,0,0,0,80.68,83.78Z"/></svg>