<svg xmlns="http://www.w3.org/2000/svg" viewBox="0 0 223.6 331.4"><defs><style>.a{fill:#fc5e75;}.b{fill:#231f20;}.c{fill:#d63c61;}.d{fill:#cecece;}.e{fill:#b2b1af;}.f{fill:#6bb7dd;}.g,.h,.i{fill:none;stroke-linecap:round;stroke-linejoin:round;stroke-width:11px;}.g{stroke:#231f20;}.h{stroke:#f2f2f2;}.i{stroke:#fc5e75;}</style></defs><path class="a" d="M161.8,110a5.5488,5.5488,0,0,1-5.5-5.5l.2-38.3a5.453,5.453,0,0,1,2-4.2,5.5985,5.5985,0,0,1,3.5-1.3,2.7686,2.7686,0,0,1,.9.1,94.3061,94.3061,0,0,1,39.9,17,87.24,87.24,0,0,1,11.3,9.8,13.3643,13.3643,0,0,1-9.5,22.8C204.6,110.2,161.8,110,161.8,110Z"/><path class="b" d="M162.1,66.1a87.25,87.25,0,0,1,37.5,16,92.8618,92.8618,0,0,1,10.7,9.2,7.728,7.728,0,0,1,2.3,5.5,7.9115,7.9115,0,0,1-7.9,7.9h-.1l-42.8-.3.3-38.3m0-11a11.0033,11.0033,0,0,0-11,11l-.2,38.3a11.0986,11.0986,0,0,0,10.9,11.1l42.8.3h.1A18.9281,18.9281,0,0,0,223.6,97a18.6029,18.6029,0,0,0-5.5-13.3,109.1773,109.1773,0,0,0-12-10.4,102.83,102.83,0,0,0-24.2-13.1,91.8532,91.8532,0,0,0-18-4.8,5.6641,5.6641,0,0,0-1.8-.3Z"/><path class="a" d="M18.8,109A13.3376,13.3376,0,0,1,5.5,95.5a13.0168,13.0168,0,0,1,4-9.4A88.67,88.67,0,0,1,21,76.5,95.4128,95.4128,0,0,1,44,64.4,98.7166,98.7166,0,0,1,61,60c.3,0,.6-.1.9-.1a5.8759,5.8759,0,0,1,3.6,1.3,5.695,5.695,0,0,1,1.9,4.2l-.2,38.3a5.5488,5.5488,0,0,1-5.5,5.5C61.6,109.3,18.8,109,18.8,109Z"/><path class="b" d="M61.8,65.5l-.2,38.3-42.8-.3a7.8686,7.8686,0,0,1-7.9-8A7.4508,7.4508,0,0,1,13.3,90a92.9116,92.9116,0,0,1,10.8-9.1A90.0077,90.0077,0,0,1,45.8,69.5a89.1973,89.1973,0,0,1,16-4m0-11a9.1491,9.1491,0,0,0-1.7.1A99.2789,99.2789,0,0,0,17.7,72,90.7132,90.7132,0,0,0,5.6,82.2,18.53,18.53,0,0,0,0,95.5a19.3729,19.3729,0,0,0,5,13,18.3235,18.3235,0,0,0,13.7,6l42.8.3h.1a10.5725,10.5725,0,0,0,7.7-3.2,10.7247,10.7247,0,0,0,3.3-7.8l.2-38.3a10.8487,10.8487,0,0,0-11-11Z"/><path class="c" d="M199.6,82.1l-.1,22.6-37.6-.2.2-38.3a87.8779,87.8779,0,0,1,16,4.3A86.0779,86.0779,0,0,1,199.6,82.1Z"/><path class="c" d="M61.8,65.5l-.2,38.3L24,103.6,24.1,81A90.0077,90.0077,0,0,1,45.8,69.6,81.75,81.75,0,0,1,61.8,65.5Z"/><path class="d" d="M133.1,131.3a5.463,5.463,0,0,1-5.5-5.5l.7-102.9a17.03,17.03,0,0,1,17.2-17,16.6629,16.6629,0,0,1,11.7,4.8l7,6.7a67.1092,67.1092,0,0,1,20.7,49l-.3,42.6a22.6375,22.6375,0,0,1-5.2,14.3,22.3651,22.3651,0,0,1-17.4,8.1Z"/><path class="b" d="M145.5,11.4a11.2824,11.2824,0,0,1,7.9,3.2l7,6.7a61.1242,61.1242,0,0,1,19,45l-.3,42.6a17.0546,17.0546,0,0,1-17,17H162l-28.9-.2.7-102.9a11.5781,11.5781,0,0,1,11.7-11.4m0-11h0a22.771,22.771,0,0,0-22.7,22.5l-.7,102.9a10.9677,10.9677,0,0,0,3.2,7.8,10.7249,10.7249,0,0,0,7.8,3.3l28.9.2h.2A28.2922,28.2922,0,0,0,183.8,127a27.6757,27.6757,0,0,0,6.5-17.8l.3-42.6a73.1039,73.1039,0,0,0-22.4-53l-7-6.7A22.6187,22.6187,0,0,0,145.5.4Z"/><path class="d" d="M61.1,130.9a22.3351,22.3351,0,0,1-17.4-8.4,21.97,21.97,0,0,1-5-14.4L39,65.5A67.1666,67.1666,0,0,1,60.4,16.8l7.1-6.6A16.8485,16.8485,0,0,1,79.1,5.6a17.7593,17.7593,0,0,1,12.3,5.1,16.9241,16.9241,0,0,1,4.9,12.1l-.7,102.9a5.4632,5.4632,0,0,1-5.5,5.5C90,131.1,61.1,130.9,61.1,130.9Z"/><path class="b" d="M79,11A11.6441,11.6441,0,0,1,90.7,22.7L90,125.6l-28.9-.2a17.0213,17.0213,0,0,1-17-17.2l.3-42.6A61.8545,61.8545,0,0,1,64,20.8l7.1-6.6A11.6334,11.6334,0,0,1,79,11M79,0h0A22.4278,22.4278,0,0,0,63.7,6.1l-7.1,6.6A72.7725,72.7725,0,0,0,33.5,65.4L33.2,108a28.5192,28.5192,0,0,0,6.3,17.9,27.9529,27.9529,0,0,0,21.6,10.4l28.9.2h.1a11.0117,11.0117,0,0,0,11-10.9l.7-102.9a22.4453,22.4453,0,0,0-6.5-16A23.8836,23.8836,0,0,0,79,0Z"/><path class="b" d="M90.2,86.9l-.3,38.6L61,125.3A17.2636,17.2636,0,0,1,47.8,119,75.6,75.6,0,0,1,90.2,86.9Z"/><path class="b" d="M175.3,119.9a17.1729,17.1729,0,0,1-13.2,6.2l-28.9-.2.3-38.6A74.7809,74.7809,0,0,1,175.3,119.9Z"/><path class="e" d="M90.2,86.9l-.3,38.6L61,125.3A17.2636,17.2636,0,0,1,47.8,119,75.6,75.6,0,0,1,90.2,86.9Z"/><path class="e" d="M175.3,119.9a17.1729,17.1729,0,0,1-13.2,6.2l-28.9-.2.3-38.6A74.7809,74.7809,0,0,1,175.3,119.9Z"/><path class="d" d="M111,218.8a60.0525,60.0525,0,0,1-59.7-60.5,60.265,60.265,0,0,1,60.1-59.7h.4a60.0913,60.0913,0,0,1,59.7,60.5,59.1338,59.1338,0,0,1-12.3,36,59.8648,59.8648,0,0,1-47.8,23.7Z"/><path class="b" d="M111.3,104.1h.4a54.6081,54.6081,0,0,1,54.2,55,54.6489,54.6489,0,0,1-54.6,54.2h-.4a54.6007,54.6007,0,0,1,.4-109.2m0-11h0a65.6,65.6,0,0,0-.4,131.2h.4a65.55,65.55,0,0,0,.4-131.1l-.4-.1Z"/><path class="e" d="M154.8,191.8a54.6013,54.6013,0,0,1-87.3-.6,19.2612,19.2612,0,0,1,10.1-2.6l27,.2a20.7663,20.7663,0,0,1,6.6,1.1,20.7651,20.7651,0,0,1,6.6-1.1l27,.2A21.43,21.43,0,0,1,154.8,191.8Z"/><path class="f" d="M139.2,164.1a10.996,10.996,0,0,1-10.6-8.4,17.6665,17.6665,0,0,0-17.2-13.5h-.1a17.77,17.77,0,0,0-17.2,13.3,10.932,10.932,0,0,1-10.7,8.2,9.0309,9.0309,0,0,1-2.8-.4,11.0288,11.0288,0,0,1-7.9-13.4,39.8918,39.8918,0,0,1,38.5-29.8h.3a39.6807,39.6807,0,0,1,38.4,30.3,11.0339,11.0339,0,0,1-8.1,13.3,6.7718,6.7718,0,0,1-2.6.4Z"/><path class="b" d="M111.3,125.7h.2a34.2144,34.2144,0,0,1,33.1,26.1,5.6021,5.6021,0,0,1-4,6.7,5.8544,5.8544,0,0,1-1.3.2h0a5.444,5.444,0,0,1-5.3-4.2,23.2186,23.2186,0,0,0-22.5-17.7h-.2a23.1227,23.1227,0,0,0-22.5,17.4,5.438,5.438,0,0,1-5.3,4.1,6.7535,6.7535,0,0,1-1.4-.2,5.5068,5.5068,0,0,1-3.9-6.7,34.0286,34.0286,0,0,1,33.1-25.7m0-11h0a45.3587,45.3587,0,0,0-43.9,33.9,16.5208,16.5208,0,0,0,1.7,12.5,16.2126,16.2126,0,0,0,10.1,7.6,15.0879,15.0879,0,0,0,4.2.5,16.5707,16.5707,0,0,0,16-12.4,12.3069,12.3069,0,0,1,11.9-9.2h.1a12.397,12.397,0,0,1,11.9,9.3,16.5493,16.5493,0,0,0,15.9,12.6h.1a18.25,18.25,0,0,0,4-.5,16.556,16.556,0,0,0,12.1-20,45.32,45.32,0,0,0-43.7-34.5l-.4.2Z"/><line class="g" x1="179.4999" y1="64.4" x2="170.7999" y2="64.3"/><line class="g" x1="179.3999" y1="84.8" x2="170.6998" y2="84.7"/><line class="g" x1="52.5999" y1="63.6" x2="43.9999" y2="63.5"/><line class="g" x1="52.4999" y1="84" x2="43.7999" y2="83.9"/><line class="h" x1="150.1998" y1="39.9" x2="149.9999" y2="67"/><path class="d" d="M90.3,237.1a18.5872,18.5872,0,0,1-18.4-18.6l.1-9.7a5.5488,5.5488,0,0,1,5.5-5.5l27,.2A5.4632,5.4632,0,0,1,110,209l-.1,9.7a18.6318,18.6318,0,0,1-18.5,18.4Z"/><path class="b" d="M77.5,208.8l27,.2-.1,9.7a12.9526,12.9526,0,0,1-13,12.9H90.3a12.9115,12.9115,0,0,1-12.9-13.1l.1-9.7m0-11a11.0117,11.0117,0,0,0-11,10.9l-.1,9.7a23.8884,23.8884,0,0,0,6.9,17,23.4387,23.4387,0,0,0,16.9,7.1h1.2a24.0944,24.0944,0,0,0,24-23.8l.1-9.7a11.0964,11.0964,0,0,0-11-11.1l-27-.1Z"/><path class="d" d="M130.4,237.4a18.156,18.156,0,0,1-13-5.5,17.9591,17.9591,0,0,1-5.3-13.1l.1-9.7a5.5488,5.5488,0,0,1,5.5-5.5l27,.2a5.463,5.463,0,0,1,5.5,5.5l-.1,9.7a18.6319,18.6319,0,0,1-18.5,18.4Z"/><path class="b" d="M117.6,209.1l27,.2-.1,9.7a12.9526,12.9526,0,0,1-13,12.9h-1.1a12.9115,12.9115,0,0,1-12.9-13.1l.1-9.7m0-11a11.0117,11.0117,0,0,0-11,10.9l-.1,9.7a24.0715,24.0715,0,0,0,23.8,24.2h1.2a24.0944,24.0944,0,0,0,24-23.8l.1-9.7a11.0964,11.0964,0,0,0-11-11.1l-27-.2Z"/><line class="g" x1="134.2999" y1="245.2" x2="134.0999" y2="285.6"/><line class="g" x1="87.4999" y1="254" x2="87.2999" y2="294.5"/><line class="g" x1="110.6998" y1="285.5" x2="110.3999" y2="325.9"/><line class="g" x1="112.2999" y1="256.5" x2="112.1998" y2="264.6"/><line class="g" x1="111.0999" y1="204.1" x2="111.0999" y2="191.7"/><line class="i" x1="205.5999" y1="99.9" x2="205.2999" y2="147.1"/><line class="i" x1="17.6999" y1="98.7" x2="17.5999" y2="122.3"/><line class="i" x1="205.1998" y1="170.2" x2="205.0999" y2="178.8"/><line class="i" x1="17.4999" y1="139.6" x2="17.0999" y2="186.5"/><line class="i" x1="16.9999" y1="208" x2="16.9999" y2="216.6"/></svg>