<svg xmlns="http://www.w3.org/2000/svg" viewBox="0 0 377.9763 188.2626"><defs><style>.a{fill:#bcbec0;}.b{fill:#a7a9ac;}.c{fill:#392831;}.d{fill:#808285;}.e{fill:#414042;}.f{fill:#294238;}.g{fill:#1f372e;}.h{fill:#4f4f51;}.i{fill:#745ea8;}.j{fill:#6d6e71;}.k{fill:#e6e7e8;}.l{fill:#58595b;}.m{fill:#645193;}.n{fill:#574580;}.o{fill:#2f2029;}.p{fill:#22121c;}</style></defs><path class="a" d="M24.1131,120.2891c-4.4.3574-7.4122.5722-8.8223.6211-9.5606.4062-16.35-3.9688-15.1543-12.336s15.5371-10.375,15.5371-10.375,36.502-2.6054,81.9473-4.205c30.955-1.1,66.0488-1.7461,96.5507-.7657,75.2989,2.3887,152.3926,12.5489,168.5274,14.94,0,0,17.93,2.9883,14.9414,14.9414-2.9883,11.9512-15.7305,6.5723-15.7305,6.5723S259.1209,112.543,184.6091,112.543C121.0232,112.543,49.6189,118.3516,24.1131,120.2891Z"/><path class="b" d="M376.5369,115.6914c-3.68,9.8731-15.2227,5.0274-15.2227,5.0274s-102.791-17.1407-177.3027-17.1407c-63.5859,0-134.99,5.8086-160.4961,7.7461-4.4.3575-7.4121.5723-8.8223.6211-6.4238.2735-11.58-1.6211-13.9218-5.4257a7.557,7.557,0,0,0-.6348,2.0546c-1.1953,8.3672,5.5937,12.7422,15.1543,12.336,1.41-.0489,4.4219-.2637,8.8223-.6211,25.5058-1.9375,96.91-7.7461,160.496-7.7461,74.5118,0,177.3008,17.1387,177.3008,17.1387s12.7422,5.3789,15.7305-6.5723A9.0339,9.0339,0,0,0,376.5369,115.6914Z"/><path class="c" d="M221.0877,167.9766c-2.4141-.0235-4.877-.07-7.3633-.1192-18.5254-.3105-39.1074-.789-58.0645-1.41-3.8242-.1426-7.5527-.2637-11.2109-.4063-21.7051-.8125-40.0625-1.7929-48.8848-2.8925-.9082-.1192-1.8164-.2637-2.75-.43-26.1992-5.1621-62.6777-37.0274-68.7011-42.43,25.5058-1.9375,96.91-7.7461,160.496-7.7461,74.5118,0,177.3008,17.1387,177.3008,17.1387-2.9629,2.2226-63.707,32.0566-86.51,37.4355a29.4733,29.4733,0,0,1-4.7344.8125c20.32-17.33,26.2969-28.0879,15.539-30.4785s-19.125-2.3906-25.6972,1.793c-5.7617,3.6816-28.1113,23.9277-33.49,28.8046C225.08,168.0254,223.0955,168.002,221.0877,167.9766Z"/><path class="d" d="M286.2048,137.4512c10.7579,2.3906,4.7813,13.1484-15.539,30.4785-5.5195.3828-22.35.4063-43.6485.1191,5.379-4.8769,27.7286-25.123,33.49-28.8046C267.08,135.0606,275.447,135.0606,286.2048,137.4512Z"/><path class="e" d="M274.8494,79.4824c8.9648,9.5625-4.7813,7.77-11.3535,7.77-6.5743,0-10.7578-10.16-13.1485-15.5391s2.9883-5.9766,8.3672-5.3789S274.8494,79.4824,274.8494,79.4824Z"/><path class="f" d="M227.0173,168.0488c21.2989.2872,38.129.2637,43.6485-.1191a29.4733,29.4733,0,0,0,4.7344-.8125l.0468.2149s-3.5859,19.7226-26.2949,19.7226c-21.9922,0-27.7285-17.9531-28.0644-19.0781C223.0955,168.002,225.08,168.0254,227.0173,168.0488Z"/><path class="g" d="M259.91,184.6641c-17.4863,0-24.6777-11.3281-27.0664-16.543-1.9043-.0234-3.8379-.0469-5.8262-.0723-1.9375-.0234-3.9218-.0468-5.93-.0722.3359,1.125,6.0722,19.0781,28.0644,19.0781a29.5464,29.5464,0,0,0,12.332-2.4785C260.9529,184.6,260.4627,184.6641,259.91,184.6641Z"/><path class="a" d="M264.6912,54.9805a17.6887,17.6887,0,0,1,5.9746,10.5644C207.4373,42.07,129.2947,55.41,102.9275,61.0293c-5.8574,1.2637-9.1562,2.127-9.1562,2.127-.4063-4.3985,3.5859-7.5782,3.5859-7.5782C191.781,28.6856,264.6912,54.9805,264.6912,54.9805Z"/><path class="b" d="M269.8689,62.4883C206.6736,39.1133,128.67,52.4258,102.33,58.041c-3.9257.8477-6.6679,1.5059-8.0722,1.8536a7.2565,7.2565,0,0,0-.4863,3.2617s3.2988-.8633,9.1562-2.127c26.3672-5.6191,104.51-18.959,167.7383,4.5156A16.0034,16.0034,0,0,0,269.8689,62.4883Z"/><path class="d" d="M177.4373,0c71.7148,0,87.2539,54.9805,87.2539,54.9805s-72.91-26.2949-167.334.5976C97.3572,55.5781,105.7244,0,177.4373,0Z"/><path class="e" d="M231.4158,76.0879c7.17,11.3555-5.9766,10.7578-13.7461,10.16s-7.1719-11.3555-8.9649-17.3321c-1.7929-5.9746,4.7813-5.9746,11.3555-5.3769S231.4158,76.0879,231.4158,76.0879Z"/><path class="e" d="M189.5818,68.127c2.3906,7.77,5.9766,19.125-3.5859,19.125s-20.9161,0-17.33-12.5508c0,0,1.1953-11.3535,7.17-13.1465C181.8123,59.7617,187.1912,60.3594,189.5818,68.127Z"/><path class="f" d="M213.7244,167.8574c-1.1,3.2754-8.08,20.9434-30.3106,20.3926-20.6523-.5019-26.4375-16.7109-27.7539-21.8027C174.617,167.0684,195.199,167.5469,213.7244,167.8574Z"/><path class="g" d="M192.9763,186.4571c-18.34-.4473-24.9472-13.2618-27.1191-19.6934-3.4316-.1035-6.8457-.207-10.1973-.3164,1.3164,5.0918,7.1016,21.3008,27.7539,21.8027a33.5581,33.5581,0,0,0,12.23-1.8613C194.7693,186.4258,193.906,186.4805,192.9763,186.4571Z"/><path class="e" d="M140.7908,63.1563c6.5742-.5977,13.1484-.5977,11.3555,5.3769-1.793,5.9766-1.1954,16.7344-8.9649,17.3321-7.7676.5976-20.916,1.1953-13.7441-10.16C129.4373,75.7051,134.2185,63.752,140.7908,63.1563Z"/><path class="f" d="M144.449,166.041c-.7168,2.7735-5.2813,16.16-26.1758,15.6348-23.3066-.5977-25.6973-17.93-25.6973-17.93l.2383-1.0273c.9336.166,1.8418.3105,2.75.43C104.3865,164.2481,122.7439,165.2285,144.449,166.041Z"/><path class="g" d="M127.2381,178.09c-16.4063-.42-22.4317-9.1172-24.57-14.2383-2.7714-.2285-5.1777-.4629-7.1035-.7031-.9082-.1192-1.8164-.2637-2.75-.43l-.2383,1.0273s2.3907,17.332,25.6973,17.93c8.2012.2051,13.8594-1.7422,17.7832-4.3379A38.2489,38.2489,0,0,1,127.2381,178.09Z"/><path class="e" d="M103.406,66.2149c4.9219-.3594,9.2969.5488,7.0977,5.498-2.3906,5.3789-6.5723,15.5391-13.1465,15.5391s-20.32,1.7929-11.3555-7.77c0,0,10.7578-12.5507,16.1367-13.1484C102.5681,66.2891,103,66.2383,103.406,66.2149Z"/><path class="h" d="M266.4841,83.0684c-6.5742,0-10.7578-10.16-13.1484-15.5391a7.6752,7.6752,0,0,1-.4023-1.1406c-2.5879.5273-4.0528,2.0234-2.586,5.3242,2.3907,5.3789,6.5742,15.5391,13.1485,15.5391,5.6386,0,16.5156,1.2968,13.8418-4.3653C274.1853,83.4492,269.5584,83.0684,266.4841,83.0684Z"/><path class="h" d="M221.2556,81.4668c-7.7695-.5976-7.1718-11.3555-8.9648-17.33l-.1348-.5937c-2.8105.5351-4.4609,2.0019-3.4512,5.373,1.793,5.9766,1.1954,16.7344,8.9649,17.3321,6.4219.4941,16.4863.9668,15.7441-5.2871C230.0466,82.0332,225.0252,81.7559,221.2556,81.4668Z"/><path class="h" d="M190.7771,84.2637c-9.5625,0-20.916,0-17.332-12.5508,0,0,.6992-6.5683,3.666-10.5019-.4219.1015-.8457.2148-1.2754.3437-5.9746,1.793-7.17,13.1465-7.17,13.1465-3.586,12.5508,7.7676,12.5508,17.33,12.5508,3.0859,0,4.7871-1.1934,5.6172-3.0547Z"/><path class="h" d="M134.8162,72.7168a33.8358,33.8358,0,0,1,6.0039-9.5644l-.0293.0039c-6.5723.5957-11.3535,12.5488-11.3535,12.5488-7.1719,11.3555,5.9765,10.7578,13.7441,10.16a6.4082,6.4082,0,0,0,5.0742-2.9668C140.4529,83.4863,127.7341,83.93,134.8162,72.7168Z"/><path class="h" d="M92.5759,75.8965a88.9454,88.9454,0,0,1,9.6973-9.5742l-.1348.0117c-5.3789.5977-16.1367,13.1484-16.1367,13.1484-8.9648,9.5625,4.7813,7.77,11.3555,7.77,2.498,0,4.6484-1.4707,6.49-3.586C97.242,83.6817,83.6482,85.418,92.5759,75.8965Z"/><path class="i" d="M270.6658,65.5449C207.4373,42.07,129.2947,55.41,102.9275,61.0293c-5.8574,1.2637-9.1562,2.127-9.1562,2.127s-48.6,17.1152-78.0977,35.0429c0,0,36.502-2.6054,81.9473-4.205,30.955-1.1,66.0488-1.7461,96.5507-.7657,75.2989,2.3887,152.3926,12.5489,168.5274,14.94C362.699,108.168,314.2927,76.0879,270.6658,65.5449Zm-160.1621,6.168c-2.3906,5.3789-6.5723,15.5391-13.1465,15.5391s-20.32,1.7929-11.3555-7.77c0,0,10.7578-12.5507,16.1367-13.1484.43-.0449.8614-.0957,1.2676-.1191C108.3279,65.8555,112.7029,66.7637,110.5037,71.7129Zm41.6426-3.18c-1.793,5.9766-1.1954,16.7344-8.9649,17.3321-7.7676.5976-20.916,1.1953-13.7441-10.16,0,0,4.7812-11.9531,11.3535-12.5488C147.365,62.5586,153.9392,62.5586,152.1463,68.5332Zm33.85,18.7188c-9.5625,0-20.9161,0-17.33-12.5508,0,0,1.1953-11.3535,7.17-13.1465,5.9766-1.793,11.3555-1.1953,13.7461,6.5723C191.9724,75.8965,195.5584,87.252,185.9959,87.252ZM217.67,86.2481c-7.7695-.5977-7.1719-11.3555-8.9649-17.3321-1.7929-5.9746,4.7813-5.9746,11.3555-5.3769s11.3555,12.5488,11.3555,12.5488C238.5857,87.4434,225.4392,86.8457,217.67,86.2481Zm45.8262,1.0039c-6.5743,0-10.7578-10.16-13.1485-15.5391s2.9883-5.9766,8.3672-5.3789,16.1348,13.1484,16.1348,13.1484C283.8142,89.0449,270.0681,87.252,263.4959,87.252Z"/><path class="j" d="M164.8884,37.0508c-28.6855,3.5859-30.4785-1.793-26.8925-9.5605C146.5877,12.1817,159.7634,4.25,171.6716.1387,105.2869,3.0352,97.3572,55.5781,97.3572,55.5781c94.4238-26.8925,167.334-.5976,167.334-.5976C240.7849,43.0274,193.574,33.4649,164.8884,37.0508Z"/><path class="k" d="M234.8084,28.6856S214.49,8.3653,194.1716,2.9863c-5.9765-2.3906-1.1953,2.9883,6.5743,11.9532,7.7675,8.9648,1.7929,17.9277,13.7441,19.7207C226.4431,36.4531,248.5545,43.0274,234.8084,28.6856Z"/><path class="l" d="M117.0779,35.2578c6.7852-17.9746,24.918-28.0527,39.34-33.4121-52.3515,9.5449-59.06,53.7324-59.06,53.7324a316.8059,316.8059,0,0,1,32.84-7.4824C119.81,47.1406,115.2361,40.3242,117.0779,35.2578Z"/><path class="m" d="M223.4548,94.4219c-.8222-.0078-1.5976-.0215-2.41-.0332,65.9238,3.543,127.4414,11.6738,141.6543,13.7793,0,0-48.4063-32.08-92.0332-42.6231-.3613-.1347-.7305-.2519-1.0938-.3847C299.0994,83.2539,320.9275,95.5567,223.4548,94.4219Z"/><path class="m" d="M104.2927,83.1192c-1.9355,2.4-4.23,4.1328-6.9355,4.1328-6.5742,0-20.32,1.7929-11.3555-7.77,0,0,10.7578-12.5507,16.1367-13.1484.43-.0449.8614-.0957,1.2676-.1191,4.9219-.3594,9.2969.5488,7.0977,5.498-.4063.9141-.8672,1.9707-1.3789,3.0859,19.2226-14.0546,43.6093-19.9,61.3476-22.3144a419.2329,419.2329,0,0,0-67.5449,8.5449c-5.8574,1.2637-9.1562,2.127-9.1562,2.127s-48.6,17.1152-78.0977,35.0429c0,0,36.502-2.6054,81.9473-4.205,22.4218-.7969,47.0019-1.3457,70.4492-1.2207C127.781,90.6172,109.3787,86.8281,104.2927,83.1192Z"/><path class="n" d="M75.8416,78.8848c12.3925-10.2246,28.791-16.7481,41.7226-20.6641-5.8359,1.0059-10.7969,1.9883-14.6367,2.8086-5.8574,1.2637-9.1562,2.127-9.1562,2.127s-48.6,17.1152-78.0977,35.0429c0,0,33.4531-2.3847,76.1719-3.9961C68.2439,92.8008,69.3279,84.8555,75.8416,78.8848Z"/><path class="k" d="M276.6423,69.92s32.8692,11.3555,56.1758,26.295c0,0-28.0879-5.9746-36.4531-4.7793a36.5034,36.5034,0,0,1,14.94-2.3907S290.3884,74.7012,276.6423,69.92Z"/><path class="o" d="M184.6091,112.543c-63.5859,0-134.99,5.8086-160.496,7.7461,6.0234,5.4023,42.5019,37.2676,68.7011,42.43.9336.166,1.8418.3105,2.75.43,8.8223,1.1,27.18,2.08,48.8848,2.8925,3.6582.1426,7.3867.2637,11.2109.4063.3731.0117.7578.0234,1.1328.0351-14.3476-5.15-30.9785-13.1035-39.7148-24.25-17.33-22.1113,77.6914-26.8925,126.6953-20.916,49.0059,5.9766,76.4961,25.6973,26.8926,46.6133a29.4733,29.4733,0,0,0,4.7344-.8125c22.8027-5.3789,83.5468-35.2129,86.51-37.4355C361.91,129.6817,259.1209,112.543,184.6091,112.543Z"/><path class="p" d="M75.8416,138.6465c-11.4864-13.8809,41.041-22.3926,62.4121-25.2324-48.8379,1.6953-94.752,5.4023-114.1406,6.875,6.0234,5.4023,42.5019,37.2676,68.7011,42.43.9336.166,1.8418.3105,2.75.43,4.8164.6015,12.4844,1.166,21.9766,1.6855C104.2009,159.1055,84.7908,149.4571,75.8416,138.6465Z"/><path class="j" d="M257.5193,148.8067a37.9964,37.9964,0,0,1,17.1348-12.9375c-5.4668-.1524-10.1465.8281-14.1465,3.375-5.7617,3.6816-28.1113,23.9277-33.49,28.8046,21.2989.2872,38.129.2637,43.6485-.1191C255.7263,164.3438,248.5545,161.3555,257.5193,148.8067Z"/><path class="k" d="M277.24,141.6348s6.5742,7.1719-5.3789,18.5254c0,0,11.3555-6.5723,13.1484-15.5371S277.24,141.6348,277.24,141.6348Z"/></svg>