<svg xmlns="http://www.w3.org/2000/svg" viewBox="0 0 73.64 123.87"><defs><style>.a{fill:#7f3127;}.b{fill:#b74719;}.c{fill:#f9f9f9;}.d{fill:#e7af48;}.e{fill:#f3d634;}.f{fill:#fcf692;}.g{fill:#304d78;}.h{fill:#3c608d;}.i{fill:#8fc8eb;}.j{fill:#d1f3f7;}.k{fill:#fcfdfd;}</style></defs><polygon class="a" points="7.74 79.83 21.49 66.91 26.18 90.75 7.74 108.27 7.74 79.83"/><polygon class="a" points="65.91 79.83 52.15 66.91 47.46 90.75 65.91 108.27 65.91 79.83"/><path class="b" d="M62.38,76.51l-3-2.82a56.6,56.6,0,0,1-6.07,22.6l4.81,4.58A145.69,145.69,0,0,1,62.38,76.51Z"/><path class="b" d="M11.26,76.51l3-2.82a56.77,56.77,0,0,0,6.07,22.6l-4.81,4.58A145.69,145.69,0,0,0,11.26,76.51Z"/><path class="c" d="M36.82,100.8c-32.65,0-19.76-56.78-13-76S36.82,0,36.82,0"/><path class="c" d="M36.82,0s6.25,5.58,13,24.8,19.64,76-13,76-19.76-56.78-13-76S36.82,0,36.82,0Z"/><path class="d" d="M33.26,115.56c0,1.86,3.56,8.31,3.56,8.31s3.57-6.45,3.57-8.31a3.57,3.57,0,0,0-7.13,0Z"/><path class="e" d="M34.48,114.62c0,1.22,2.34,5.44,2.34,5.44s2.34-4.22,2.34-5.44a2.34,2.34,0,0,0-4.68,0Z"/><path class="f" d="M35.84,113.84a10.05,10.05,0,0,0,1,2.3,10.05,10.05,0,0,0,1-2.3,1,1,0,0,0-2,0Z"/><path class="g" d="M36.82,67.92c-3.92,0-6.27,26.63-6.75,39.62-.08,2.24,1,4.13,2.33,4.13h8.84c1.34,0,2.41-1.89,2.33-4.13C43.09,94.55,40.74,67.92,36.82,67.92Z"/><path class="h" d="M36.82,68.65c2.9,0,4.85,17.2,5.68,30.07.38,6-2.27,11.19-5.68,11.19h0c-3.41,0-6.06-5.22-5.67-11.19C32,85.85,33.92,68.65,36.82,68.65Z"/><path class="d" d="M3.19,115.56c0,1.86,3.56,8.31,3.56,8.31s3.57-6.45,3.57-8.31a3.47,3.47,0,0,0-3.57-3.36A3.47,3.47,0,0,0,3.19,115.56Z"/><path class="e" d="M4.42,114.62c0,1.22,2.33,5.44,2.33,5.44s2.34-4.22,2.34-5.44a2.28,2.28,0,0,0-2.34-2.2A2.27,2.27,0,0,0,4.42,114.62Z"/><path class="f" d="M5.77,113.84a10.05,10.05,0,0,0,1,2.3,10.05,10.05,0,0,0,1-2.3,1,1,0,0,0-2,0Z"/><path class="g" d="M6.75,67.92C2.83,67.92.48,94.55,0,107.54c-.08,2.24,1,4.13,2.33,4.13h8.84c1.34,0,2.41-1.89,2.33-4.13C13,94.55,10.67,67.92,6.75,67.92Z"/><path class="h" d="M6.75,68.65c2.91,0,4.85,17.2,5.68,30.07.38,6-2.27,11.19-5.68,11.19h0c-3.41,0-6.06-5.22-5.67-11.19C1.9,85.85,3.85,68.65,6.75,68.65Z"/><path class="d" d="M70.45,115.56c0,1.86-3.56,8.31-3.56,8.31s-3.57-6.45-3.57-8.31a3.57,3.57,0,0,1,7.13,0Z"/><path class="e" d="M69.23,114.62c0,1.22-2.34,5.44-2.34,5.44s-2.34-4.22-2.34-5.44a2.34,2.34,0,0,1,4.68,0Z"/><path class="f" d="M67.87,113.84a10.05,10.05,0,0,1-1,2.3,10.05,10.05,0,0,1-1-2.3,1,1,0,0,1,2,0Z"/><path class="g" d="M66.89,67.92c3.92,0,6.27,26.63,6.75,39.62.08,2.24-1,4.13-2.33,4.13H62.47c-1.34,0-2.41-1.89-2.33-4.13C60.62,94.55,63,67.92,66.89,67.92Z"/><path class="h" d="M66.89,68.65c-2.9,0-4.85,17.2-5.68,30.07-.38,6,2.27,11.19,5.68,11.19h0c3.41,0,6.06-5.22,5.67-11.19C71.74,85.85,69.79,68.65,66.89,68.65Z"/><path class="g" d="M50,46.76C50,55.09,44.07,58,36.82,58S23.69,55.09,23.69,46.76s5.88-18.93,13.13-18.93S50,38.42,50,46.76Z"/><path class="i" d="M36.82,56.47c-7.63,0-11.5-3.27-11.5-9.71,0-7.67,5.42-17.4,11.5-17.4s11.5,9.73,11.5,17.4C48.32,53.2,44.45,56.47,36.82,56.47Z"/><path class="j" d="M36.82,55.7c-7.19,0-10.68-2.92-10.68-8.94,0-7.26,5.18-16.63,10.68-16.63S47.5,39.5,47.5,46.76C47.5,52.78,44,55.7,36.82,55.7Z"/><path class="k" d="M47.5,46.76a20,20,0,0,0-1-6l-15,14.17a16.8,16.8,0,0,0,5.36.76,19.85,19.85,0,0,0,3.42-.27l7.12-6.71A13.39,13.39,0,0,0,47.5,46.76Z"/><path class="k" d="M45.32,37.76a20.21,20.21,0,0,0-1.23-2.25l-16.94,16a6.81,6.81,0,0,0,1.55,1.94Z"/><path class="k" d="M37.87,30.24,27.33,40.17a20.78,20.78,0,0,0-1.19,6.59,11.86,11.86,0,0,0,.35,3L43.1,34.08A9.57,9.57,0,0,0,37.87,30.24Z"/></svg>