<svg xmlns="http://www.w3.org/2000/svg" viewBox="0 0 344.6563 142.3681"><defs><style>.a{fill:#f9b9b4;}.b{fill:#4262ae;}.c{fill:#3354a0;}.d{fill:#f8b1b0;}.e{fill:#f27379;}.f{fill:#db3e52;}.g{fill:#6d6e71;}.h{fill:#f7a5a2;}.i{fill:#e69796;}.j{fill:#e6e7e8;}.k{fill:#f16475;}.l{fill:#58595b;}.m{fill:#ba3345;}</style></defs><path class="a" d="M139.459.5321s1.625-.0469,4.4688-.1192C127.8184,8.7313,117.2286,36.03,115.7442,40.0712c-1.5781-.0235-3.25-.0489-4.9727-.0958v-.5976S120.9317,10.0946,139.459.5321Z"/><path class="b" d="M59.377,68.661c0,14.3418,0,17.9277-14.3437,18.5254-14.4375.5976-22.1094-7.17-22.1094-19.1231,0-10.4472,14.3437-16.1367,22.5156-15.0136C56.0567,54.4852,59.377,56.7079,59.377,68.661Z"/><path class="b" d="M93.4434,53.72c32.8672-2.3906,30.4766,10.7578,29.8789,26.2969-.5976,15.5371-25.0976,10.7558-38.2461,8.9629C73.24,87.3778,75.5137,74.6376,75.2247,65.53,74.9161,55.3212,84.24,54.39,93.4434,53.72Z"/><path class="c" d="M91.65,83.0028c-11.8359-1.6016-9.5625-14.3418-9.8515-23.4492a11.9107,11.9107,0,0,1,.5508-4.1211c-4.3125,1.4531-7.3008,4.25-7.125,10.0976.289,9.1075-1.9844,21.8477,9.8515,23.4493,11.9883,1.6347,33.4063,5.746,37.5469-5.3165C114.209,86.7137,100.4122,84.1981,91.65,83.0028Z"/><path class="b" d="M202.8067,71.0516c.5976,11.3535,1.793,22.1113-11.3555,23.9043s-34.66-1.1953-34.66-1.1953-9.5625-.5977-10.16-8.3672c-.5976-7.7676-1.793-17.9277-1.793-17.9277s0-14.3438,11.3555-15.5391a162.4711,162.4711,0,0,1,34.0625,0C201.0137,53.1219,202.209,59.6962,202.8067,71.0516Z"/><path class="c" d="M197.4278,87.784c-13.1485,1.793-34.66-1.1953-34.66-1.1953s-9.5625-.5976-10.16-8.3652c-.5977-7.77-1.793-17.93-1.793-17.93a23.1677,23.1677,0,0,1,1.3828-7.2129c-7.3437,3.6719-7.3594,14.3848-7.3594,14.3848s1.1954,10.16,1.793,17.9277c.5977,7.7695,10.16,8.3672,10.16,8.3672s21.5117,2.9883,34.66,1.1953c6.66-.9082,9.6328-4.123,10.875-8.543A17.07,17.07,0,0,1,197.4278,87.784Z"/><path class="b" d="M321.7325,68.0633c0,11.9532-7.6719,19.7207-22.1133,19.1231-14.34-.5977-14.34-4.1836-14.34-18.5254,0-11.9531,3.32-14.1758,13.9336-15.6113C307.3887,51.9266,321.7325,57.6161,321.7325,68.0633Z"/><path class="c" d="M304.9981,81.8075c-14.34-.5977-14.34-4.1817-14.34-18.5254a25.9159,25.9159,0,0,1,1.07-8.5527c-4.7618,1.8789-6.4493,5.4531-6.4493,13.9316,0,14.3418,0,17.9277,14.34,18.5254,9.457.3926,15.9922-2.8223,19.3867-8.4317C315.4512,80.9286,310.7793,82.0458,304.9981,81.8075Z"/><path class="b" d="M251.2129,53.72c9.2032.67,18.5274,1.6016,18.2149,11.8105-.2852,9.1075,1.9844,21.8477-9.8477,23.4493-13.1484,1.7929-37.6484,6.5742-38.2461-8.9629C220.7364,64.4774,218.3458,51.329,251.2129,53.72Z"/><path class="c" d="M266.1543,85.3934c-13.1484,1.793-37.6484,6.5742-38.246-8.9629-.336-8.6992-1.2266-16.6445,3.8125-21.539-12.2071,3.65-10.8282,13.7422-10.3868,25.125.5977,15.5371,25.0977,10.7558,38.2461,8.9629a10.0514,10.0514,0,0,0,6.9649-3.6661Z"/><path class="d" d="M228.24,40.0712c18.8359-.334,49.7695-.8125,66-.6934,4.043.0234,7.1719.0723,8.9648.1914,12.7422.8125,40.6407,5.5937,41.43,28.6855.8125,23.1153-21.5156,30.2872-43.82,31.8887-1.2891.0957-2.7227.1914-4.2773.2871-25.0508,1.65-80.1758,4.4942-80.1758,4.4942H128.295s-55.125-2.8438-80.1758-4.4942c-1.5547-.0957-2.9883-.1914-4.2813-.2871C21.5372,98.5419-.791,91.37.0215,68.2547.8106,45.1629,28.709,40.3817,41.4473,39.5692c1.793-.1191,4.9258-.168,8.9649-.1914,14.7031-.1191,41.4531.2871,60.3593.5976,1.7227.0469,3.3946.0723,4.9727.0958,9.8281.1679,16.543.3105,16.543.3105h80.082s4.375-.0957,11.2344-.2148C225.0372,40.1434,226.5918,40.118,228.24,40.0712Zm71.3789,47.1152c14.4414.5976,22.1133-7.17,22.1133-19.1231,0-10.4472-14.3438-16.1367-22.52-15.0136C288.6,54.4852,285.2793,56.7079,285.2793,68.661,285.2793,83.0028,285.2793,86.5887,299.6192,87.1864ZM269.4278,65.53C269.74,55.3212,260.4161,54.39,251.2129,53.72c-32.8671-2.3906-30.4765,10.7578-29.8789,26.2969.5977,15.5371,25.0977,10.7558,38.2461,8.9629C271.4122,87.3778,269.1426,74.6376,269.4278,65.53ZM191.4512,94.9559c13.1485-1.793,11.9531-12.5508,11.3555-23.9043-.5977-11.3554-1.793-17.93-12.5508-19.125a162.4711,162.4711,0,0,0-34.0625,0c-11.3555,1.1953-11.3555,15.5391-11.3555,15.5391s1.1954,10.16,1.793,17.9277c.5977,7.7695,10.16,8.3672,10.16,8.3672S178.3028,96.7489,191.4512,94.9559ZM123.3223,80.0165C123.92,64.4774,126.3106,51.329,93.4434,53.72,84.24,54.39,74.9161,55.3212,75.2247,65.53c.289,9.1075-1.9844,21.8477,9.8515,23.4493C98.2247,90.7723,122.7247,95.5536,123.3223,80.0165Zm-78.289,7.17C59.377,86.5887,59.377,83.0028,59.377,68.661c0-11.9531-3.32-14.1758-13.9375-15.6113-8.1719-1.1231-22.5156,4.5664-22.5156,15.0136C22.9239,80.0165,30.5958,87.784,45.0333,87.1864Z"/><path class="e" d="M294.24,38.78v.5977c-16.2305-.1191-47.1641.3594-66,.6934C222.4083,16.19,199.2208.5321,199.2208.5321V.3172c2.0078.0723,4.0156.1426,5.9765.2149C249.42,2.3251,294.24,38.78,294.24,38.78Z"/><path class="f" d="M296.5372,100.4305c-1.1016,1.1465-10.9258,11.0215-27.3711,20.8672-88.3282,8.2735-195.4453-1.84-195.4453-1.84l-.336.5508c-15.18-9.3946-24.2148-18.4786-25.2656-19.5782,25.0508,1.65,80.1758,4.4942,80.1758,4.4942h88.0664S271.4864,102.0809,296.5372,100.4305Z"/><path class="a" d="M228.24,40.0712c-1.6485.0468-3.2031.0722-4.6367.0957-6.8125-21.9922-28.16-37.8184-31.1953-39.9942,2.2695.0254,4.5625.0723,6.8125.1445V.5321S222.4083,16.19,228.24,40.0712Z"/><path class="e" d="M223.6036,40.1669c-6.8594.1191-11.2344.2148-11.2344.2148h-80.082s-6.7149-.1426-16.543-.3105c1.4844-4.0411,12.0742-31.34,28.1836-39.6583,8.6562-.24,28.59-.6464,48.4805-.24C195.4434,2.3485,216.7911,18.1747,223.6036,40.1669Z"/><path class="g" d="M269.1661,121.2977c-15.3477,9.1817-36.4336,18.3125-61.5782,20.2735-19.125,1.7929-70.5195,0-70.5195,0-26.32-2.0567-48.1914-11.9766-63.6836-21.5625l.336-.5508S180.8379,129.5712,269.1661,121.2977Z"/><path class="e" d="M139.459.5321c-18.5273,9.5625-28.6875,38.8457-28.6875,38.8457v.5976c-18.9062-.31-45.6562-.7167-60.3593-.5976V38.78S95.2364,2.3251,139.459.5321Z"/><path class="h" d="M303.2051,39.5692c-1.7929-.1191-4.9218-.168-8.9648-.1914-2.7188-.0215-5.875-.0215-9.293-.0117,15.457,4.1523,33.1875,11.18,34.3281,21.68a11.4774,11.4774,0,0,1,2.4571,7.0175c0,11.9532-7.6719,19.7207-22.1133,19.1231a46.8244,46.8244,0,0,1-5.5039-.5078c-18.3047,4.6093-49.461,7.5234-102.0625,8.164l-.6016.1133c-6.8515.9336-15.9531.57-23.1211.0039-56.6992-.1582-91.8867-3.9531-113.2851-9.6367-2.125,1.1309-5.2774,1.668-10.0117,1.8633-14.4375.5976-22.1094-7.17-22.1094-19.1231a11.0963,11.0963,0,0,1,1.2578-5.1,17.92,17.92,0,0,1-.0625-3.2675c.5937-8.5918,8.9726-15.4219,17.27-20.1231C28.6231,40.3954.8106,45.1981.0215,68.2547-.791,91.37,21.5372,98.5419,43.8379,100.1434c1.293.0957,2.7266.1914,4.2813.2871,25.0508,1.65,80.1758,4.4942,80.1758,4.4942h88.0664s55.125-2.8438,80.1758-4.4942c1.5546-.0957,2.9882-.1914,4.2773-.2871,22.3047-1.6015,44.6328-8.7734,43.82-31.8887C343.8458,45.1629,315.9473,40.3817,303.2051,39.5692Z"/><path class="i" d="M300.8145,94.1669c-1.2891.0957-2.7227.1914-4.2773.2871-25.0508,1.65-80.1758,4.4941-80.1758,4.4941H128.295S73.17,96.1044,48.1192,94.454c-1.5547-.0957-2.9883-.1914-4.2813-.2871C22.959,92.6688,2.0606,86.284.1465,66.5067c-.0547.5723-.1054,1.15-.125,1.748C-.791,91.37,21.5372,98.5419,43.8379,100.1434c1.293.0957,2.7266.1914,4.2813.2871,25.0508,1.65,80.1758,4.4942,80.1758,4.4942h88.0664s55.125-2.8438,80.1758-4.4942c1.5546-.0957,2.9882-.1914,4.2773-.2871,22.3047-1.6015,44.6328-8.7734,43.82-31.8887-.0234-.5976-.07-1.1757-.1289-1.748C342.5918,86.284,321.6973,92.6688,300.8145,94.1669Z"/><path class="c" d="M58.1817,81.8075C51.01,87.784,34.877,80.6141,32.4864,70.454c-1.3985-5.93.2617-11.8457,1.8828-15.7559-6.0547,2.3555-11.4453,6.9609-11.4453,13.3652,0,11.9532,7.6719,19.7207,22.1094,19.1231,8.2226-.3418,11.7187-1.6777,13.2187-5.4453Z"/><path class="j" d="M52.9278,60.0985c-5.1328-5.3809-14.332-3.01-13.0156,5.2246C42.1934,79.5633,64.3926,72.1278,52.9278,60.0985Z"/><path class="j" d="M190.9786,60.6962c-5.1328-5.3809-14.336-3.01-13.0157,5.2246C180.2442,80.161,202.4434,72.7254,190.9786,60.6962Z"/><path class="j" d="M261.4981,61.2938c-5.1328-5.3809-14.3359-3.01-13.0156,5.2246C250.7637,80.7587,272.9629,73.3231,261.4981,61.2938Z"/><path class="j" d="M313.49,61.2938c-5.1328-5.3809-14.336-3.01-13.0156,5.2246C302.7559,80.7587,324.9551,73.3231,313.49,61.2938Z"/><path class="j" d="M108.6387,60.7137c-3.6289-2.32-8.3047-2.8008-10.9336.9141-5.9843,8.4648,8.9922,18.6914,14.9063,10.33C115.3536,68.079,112.6387,63.2782,108.6387,60.7137Z"/><path class="k" d="M97.045,11.118A219.1,219.1,0,0,0,50.4122,38.78v.5977c12.414-.1016,33.3945.1719,51.0117.4473C79.3614,32.454,86.1426,20.5243,97.045,11.118Z"/><path class="k" d="M135.8106,6.4891c-11.4961,11.2988-18.8477,30.2676-20.0664,33.5821,9.8281.1679,16.543.3105,16.543.3105h25.09C123.3223,38.1219,132.0684,14.1942,135.8106,6.4891Z"/><path class="k" d="M199.0958,5.5321c8.1367,15.8281,9.4726,32.9062-28.7735,34.85h42.0469s4.375-.0957,11.2344-.2148C218.8106,24.6883,206.834,12.2938,199.0958,5.5321Z"/><path class="k" d="M253.3809,13.6962l.82.582c32.8711,23.9043-5.3789,20.3183-17.332,16.7324-6.6133-1.9844-14.3164-8.1758-19.8867-13.3125A60.6485,60.6485,0,0,1,228.24,40.0712c18.8359-.334,49.7695-.8125,66-.6934V38.78A219.7661,219.7661,0,0,0,253.3809,13.6962Z"/><path class="j" d="M171.1309,2.3251a101.0849,101.0849,0,0,1,20.32,0s-8.3672,26.2949,13.7461,37.65l-29.8828.5977S194.44,23.2411,171.1309,2.3251Z"/><path class="j" d="M255.3965,40.5731s16.1368,4.7813,17.3321,23.9043,1.1953,31.6738-11.9532,37.0527l25.1016-1.7929s-20.32-42.4317,2.3906-59.1641Z"/><path class="l" d="M169.3379,136.79c-45.41-.8262-75.6992-10.7754-90.09-16.85-3.5742-.2969-5.5273-.4824-5.5273-.4824l-.336.5508c15.4922,9.5859,37.3633,19.5058,63.6836,21.5625,0,0,51.3945,1.7929,70.52,0,25.1446-1.961,46.2305-11.0918,61.5782-20.2735C269.1661,121.2977,235.0762,137.9852,169.3379,136.79Z"/><path class="m" d="M113.4278,104.1454c-18.1485-.9629-48.4961-2.6055-65.3086-3.7149,1.0508,1.1,10.0859,10.1836,25.2656,19.5782l.336-.5508s2.1132.2011,5.996.5215C76.2833,115.6805,76.2168,107.9657,113.4278,104.1454Z"/><path class="m" d="M255.4278,102.8387c10.5664,3.4961,15.1836,9.3711,10.3281,18.7676,1.1367-.1,2.2774-.2031,3.41-.3086,16.4453-9.8457,26.27-19.7207,27.3711-20.8672C286.0293,101.1239,270.2325,102.0243,255.4278,102.8387Z"/><path class="j" d="M208.7833,105.7137s26.8906,11.3535-1.1954,35.8575c0,0,9.5625-4.7813,21.5157-21.5157,2.9843-5.3789,14.34-16.7324,24.5-16.7324C253.6036,103.3231,222.5293,105.7137,208.7833,105.7137Z"/></svg>