<svg xmlns="http://www.w3.org/2000/svg" viewBox="0 0 69.06 127.52"><defs><style>.a{fill:#3c608d;}.b{fill:#304d78;}.c{fill:#858c3f;}.d{fill:#ccb74e;}.e{fill:#fcf692;}.f{fill:#92cef6;}.g{fill:#d3f3fc;}.h{fill:#8fc8eb;}.i{fill:#d1f3f7;}.j{fill:#fcfdfd;}</style></defs><polygon class="a" points="52.42 84.57 38.55 72.77 38.55 87.99 51.28 96.07 52.42 84.57"/><path class="b" d="M47.71,85.5c.34-1.38.64-2.76.93-4.14l3.78,3.21-1.14,11.5-4.46-2.83A39.7,39.7,0,0,1,47.71,85.5Z"/><path class="b" d="M40,74c1,4,2.09,8.11,2.92,12.16.34,1.65.5,3.35.68,5l-5-3.2V72.77Z"/><path class="b" d="M53.25,104.64l4.19.28,4.19-.28,2,6a24.93,24.93,0,0,1-6.16,1.1,24.93,24.93,0,0,1-6.16-1.1Z"/><path class="c" d="M61.68,117c0,2.34-4.24,10.49-4.24,10.49S53.2,119.37,53.2,117a4.24,4.24,0,0,1,8.48,0Z"/><path class="d" d="M60.22,115.84c0,1.54-2.78,6.88-2.78,6.88s-2.78-5.34-2.78-6.88a2.78,2.78,0,0,1,5.56,0Z"/><path class="e" d="M58.61,114.86a13.17,13.17,0,0,1-1.17,2.9,13.17,13.17,0,0,1-1.17-2.9,1.17,1.17,0,1,1,2.34,0Z"/><path class="a" d="M57.44,106.45c.83,0,4.38,2.37,4.38,2.37l.64,1.58a24.81,24.81,0,0,1-5,.72,24.81,24.81,0,0,1-5-.72l.87-2.15A25,25,0,0,1,57.44,106.45Z"/><path class="f" d="M65.25,111.66c-.85-3.53-6.44-6.23-7.81-6.23s-7,2.7-7.81,6.23a74,74,0,0,1-.37-27.87c2.61-15.3,8.18-24.87,8.18-24.87S63,68.49,65.62,83.79A74,74,0,0,1,65.25,111.66Z"/><path class="g" d="M57.44,58.92s18.61,45.29,0,45.29S57.44,58.92,57.44,58.92Z"/><polygon class="a" points="16.64 84.57 30.5 72.77 30.5 87.99 17.78 96.07 16.64 84.57"/><path class="b" d="M21.35,85.5c-.34-1.38-.64-2.76-.94-4.14l-3.77,3.21,1.14,11.5,4.46-2.83A39.7,39.7,0,0,0,21.35,85.5Z"/><path class="b" d="M29.07,74c-1,4-2.09,8.11-2.92,12.16-.34,1.65-.5,3.35-.69,5l5-3.2V72.77Z"/><path class="g" d="M0,27.89C0,12.49,19.13,0,34.53,0S69.06,12.49,69.06,27.89c0,10.36-8.66,16.67-19,19.69h0c-12.2,4-11.2,28.17-8.55,38.06s1.33,13.61-7,13.61-9.63-3.72-7-13.61,3.65-34-8.55-38.06h0C8.66,44.56,0,38.25,0,27.89Z"/><path class="f" d="M34.53,3.42C30,3.42,25,19.18,24.81,29.3c-.13,9.31,4.69,17.51,9.72,17.51s9.85-8.2,9.72-17.51C44.1,19.18,39.1,3.42,34.53,3.42Z"/><path class="b" d="M15.81,104.64l-4.19.28-4.19-.28-2,6a24.93,24.93,0,0,0,6.16,1.1,24.93,24.93,0,0,0,6.16-1.1Z"/><path class="c" d="M7.38,117c0,2.34,4.24,10.49,4.24,10.49s4.24-8.15,4.24-10.49a4.24,4.24,0,0,0-8.48,0Z"/><path class="d" d="M8.84,115.84c0,1.54,2.78,6.88,2.78,6.88s2.78-5.34,2.78-6.88a2.78,2.78,0,0,0-5.56,0Z"/><path class="e" d="M10.45,114.86a13.17,13.17,0,0,0,1.17,2.9,13.17,13.17,0,0,0,1.17-2.9,1.17,1.17,0,0,0-2.34,0Z"/><path class="a" d="M11.62,106.45c-.83,0-4.38,2.37-4.38,2.37L6.6,110.4a24.81,24.81,0,0,0,5,.72,24.81,24.81,0,0,0,5-.72l-.87-2.15A25,25,0,0,0,11.62,106.45Z"/><path class="f" d="M3.81,111.66c.85-3.53,6.44-6.23,7.81-6.23s7,2.7,7.81,6.23a74,74,0,0,0,.37-27.87c-2.61-15.3-8.18-24.87-8.18-24.87S6,68.49,3.44,83.79A74,74,0,0,0,3.81,111.66Z"/><path class="g" d="M11.62,58.92s-18.61,45.29,0,45.29S11.62,58.92,11.62,58.92Z"/><path class="f" d="M49.17,47.93h0c-8.27,2.71-11.12,11.83-11,18,.21,14.46,5.52,28.24-3.61,28.24s-3.82-13.78-3.61-28.24c.09-6.17-2.76-15.29-11-18h0C31.15,52.8,30.15,76,27.56,85.64c-2.66,9.89-1.33,13.61,7,13.61s9.63-3.72,7-13.61C38.91,76,37.91,52.8,49.17,47.93Z"/><path class="b" d="M34.53,3.42C30,3.42,25,17,24.81,25.7c-.13,8,4.69,15.08,9.72,15.08s9.85-7.06,9.72-15.08C44.1,17,39.1,3.42,34.53,3.42Z"/><path class="h" d="M34.53,39.67a6.31,6.31,0,0,1-4.38-2.17c-2.68-2.73-4.3-7.24-4.23-11.78C26.07,17,31.14,4.53,34.53,4.53S43,17,43.14,25.72c.07,4.54-1.55,9.05-4.23,11.78A6.31,6.31,0,0,1,34.53,39.67Z"/><path class="i" d="M34.53,39.12a5.78,5.78,0,0,0,4-2c2.59-2.63,4.14-7,4.07-11.38-.15-8.71-5.26-20.64-8-20.64s-7.9,11.93-8,20.64c-.08,4.39,1.48,8.75,4.07,11.38A5.78,5.78,0,0,0,34.53,39.12Z"/><path class="j" d="M30.55,37.11A6.39,6.39,0,0,0,33.79,39l8.12-8.12a18.3,18.3,0,0,0,.67-5.19c0-.56,0-1.14-.09-1.72L30,36.5C30.18,36.71,30.36,36.92,30.55,37.11Z"/><path class="j" d="M36.91,7l-8.65,8.65a37.33,37.33,0,0,0-1.78,10,18.68,18.68,0,0,0,.3,3.6L40.71,15.4A32.46,32.46,0,0,0,36.91,7Z"/><path class="j" d="M42,20.59c-.17-.91-.37-1.81-.6-2.71l-14,14a16.55,16.55,0,0,0,1,2.31Z"/><path class="b" d="M19.7,24a6.91,6.91,0,1,1-6.91-6.91A6.91,6.91,0,0,1,19.7,24Z"/><path class="h" d="M12.79,29.81a5.8,5.8,0,1,1,5.8-5.8A5.8,5.8,0,0,1,12.79,29.81Z"/><circle class="i" cx="12.79" cy="24.01" r="5.24"/><path class="j" d="M18,24a5.24,5.24,0,0,0-1.81-4L8.83,27.44a5.22,5.22,0,0,0,4,1.81,5.68,5.68,0,0,0,.59,0L18,24.6A5.68,5.68,0,0,0,18,24Z"/><path class="j" d="M7.56,24.36a5.19,5.19,0,0,0,.53,2l7-7a4.91,4.91,0,0,0-1.95-.52Z"/><path class="b" d="M63.18,24a6.91,6.91,0,1,1-6.91-6.91A6.91,6.91,0,0,1,63.18,24Z"/><path class="h" d="M56.27,29.81a5.8,5.8,0,1,1,5.8-5.8A5.8,5.8,0,0,1,56.27,29.81Z"/><circle class="i" cx="56.27" cy="24.01" r="5.24"/><path class="j" d="M61.51,24a5.24,5.24,0,0,0-1.81-4l-7.39,7.39a5.22,5.22,0,0,0,4,1.81,5.68,5.68,0,0,0,.59,0l4.62-4.62A5.68,5.68,0,0,0,61.51,24Z"/><path class="j" d="M51,24.36a5.19,5.19,0,0,0,.53,2l7-7a5,5,0,0,0-2-.52Z"/><path class="f" d="M0,27.89c0,.38,0,.76,0,1.14A21,21,0,0,1,5,19.77c7-8.15,8.18-1,13.06-4.35S28.8,0,34.53,0C19.13,0,0,12.49,0,27.89Z"/><path class="f" d="M69.06,27.89c0,.38,0,.76,0,1.14a21,21,0,0,0-4.92-9.26c-7-8.15-8.18-1-13.06-4.35S40.26,0,34.53,0C49.93,0,69.06,12.49,69.06,27.89Z"/></svg>
