<svg xmlns="http://www.w3.org/2000/svg" viewBox="0 0 253.2999 351.9"><defs><style>.a{fill:#0a82a3;}.b{fill:#1f2121;}.c{fill:#f26522;}</style></defs><polygon class="a" points="79.3 177.2 27.2 254.5 27.2 307.7 79.3 253.4 79.3 177.2"/><path class="b" d="M23.7,316.4v-63l59.1-87.6v89Zm7-60.9V299l45.1-47.1V188.6Z"/><polygon class="c" points="27.2 203.2 27.2 343.5 3.5 319.7 3.5 278.5 27.2 203.2"/><path class="b" d="M30.7,351.9,0,321.2V278l30.7-97.6ZM7,318.3,23.7,335V225.9L7,279Z"/><polygon class="c" points="151.5 94.9 126.6 12.2 101.8 94.9 79.3 177.2 79.3 253.4 126.6 303 173.9 253.4 173.9 177.2 151.5 94.9"/><path class="b" d="M126.6,308.1,75.8,254.8v-78l.1-.5L98.4,94,126.6,0l28.2,93.9,22.6,82.8v78ZM82.8,252l43.8,46,43.8-46V177.7L148.1,95.9,126.7,24.4,105.2,96,82.9,177.7V252Z"/><polygon class="a" points="145.6 186.5 126.6 153.9 107.7 186.5 90.5 219 90.5 249.1 126.6 268.7 162.8 249.1 162.8 219 145.6 186.5"/><path class="b" d="M126.6,272.7,87,251.2v-33l17.6-33.4,22-37.9,22.1,38,17.6,33.3v33ZM94,247l32.6,17.7L159.2,247V219.9l-16.7-31.7-15.9-27.4-15.9,27.4L94,219.9Z"/><polygon class="a" points="173.9 177.2 226 254.5 226 307.7 173.9 253.4 173.9 177.2"/><path class="b" d="M229.5,316.4l-59.1-61.7v-89l59.1,87.6Zm-52.1-64.5L222.5,299V255.5l-45.1-66.9Z"/><polygon class="c" points="226 203.2 226 343.5 249.8 319.7 249.8 278.5 226 203.2"/><path class="b" d="M222.5,351.9V180.4L253.2,278v43.2Zm7-126V335l16.7-16.7V279.1Z"/><polygon class="a" points="105.3 83.1 115 101.6 105.3 145.2 84.7 157.6 105.3 83.1"/><path class="b" d="M79,165.1l25.4-91.5,14.4,27.5-10.3,46.3Zm27.4-72.5L90.5,150.1l11.8-7.1,9.1-40.9Z"/><polygon class="a" points="147.9 83.1 138.2 101.6 147.9 145.2 168.6 157.6 147.9 83.1"/><path class="b" d="M174.3,165.1l-29.5-17.7-10.3-46.3,14.4-27.5ZM151,143l11.8,7.1L146.9,92.6l-5,9.5Z"/><rect class="a" x="225.9999" y="278.5" width="23.7" height="29.2"/><path class="b" d="M253.3,311.2H222.6V275h30.7Zm-23.8-7h16.7V282H229.5Z"/><rect class="a" x="3.4999" y="278.5" width="23.7" height="29.2"/><path class="b" d="M30.7,311.2H0V275H30.7ZM7,304.2H23.7V282H7Z"/><rect class="b" x="123.1" y="12.2" width="7" height="73.5"/><rect class="b" x="123.1" y="93.4" width="7" height="12.9"/><rect class="b" x="123.1" y="116.1" width="7" height="9.3"/><polygon class="c" points="63.3 200.9 63.3 221.5 52 237.6 37.4 239.4 63.3 200.9"/><path class="b" d="M30.1,243.9l36.7-54.4v33.1L53.9,240.9Zm29.7-31.5L44.5,235l5.5-.7,9.8-13.9Z"/><polygon class="c" points="189.9 200.9 189.9 221.5 201.2 237.6 215.9 239.4 189.9 200.9"/><path class="b" d="M223.1,243.9l-23.8-3-12.9-18.3V189.5Zm-19.9-9.6,5.5.7-15.3-22.6v8Z"/></svg>