<svg xmlns="http://www.w3.org/2000/svg" viewBox="0 0 342.125 229.1489"><defs><style>.a{fill:#0786b5;}.b{fill:#0277a2;}.c{fill:#6d6e71;}.d{fill:#58595b;}.e{fill:#be1e2d;}.f{fill:#f15a29;}.g{fill:#414042;}.h{fill:#bcbec0;}.i{fill:#3698ca;}.j{fill:#00719a;}.k{fill:#c74a20;}.l{fill:#9f1522;}.m{fill:#00658a;}.n{fill:#9fa1a4;}.o{fill:#d1d3d4;}.p{fill:#90101c;}.q{fill:#b3421b;}.r{fill:#4b4b4d;}.s{fill:#929497;}.t{fill:#7b0511;}.u{fill:#e6e7e8;}</style></defs><path class="a" d="M88.4453,82.0735c.6679-.1192,1.0273-.1914,1.0273-.1914a4.3493,4.3493,0,0,0-.1211.957,18.86,18.86,0,0,0,4.3047,2.6289c9.5625,4.1836,23.9063,1.793,30.4766-19.7207,6.5742-33.4668-14.9375-31.6738-14.9375-31.6738S90.07,32.8782,82.8984,50.2082C77.09,64.2649,81.4882,75.9524,88.4453,82.0735Z"/><path class="a" d="M269.3554,99.2141a24.9134,24.9134,0,0,0,6.4336-2.3906c6.5-3.6582,12.3789-11.7149,7.91-30.4785-5.9766-25.1016-26.8946-21.5157-26.8946-21.5157s-23.3046,0-14.9375,29.2832C246.6445,95.0305,261.5859,101.0071,269.3554,99.2141Z"/><path class="b" d="M269.3554,99.2141a24.9134,24.9134,0,0,0,6.4336-2.3906c5.875-3.3067,11.2188-10.2363,8.8946-25.3906a17.8432,17.8432,0,0,1-8.8946,12.6386,24.91,24.91,0,0,1-6.4336,2.3907c-7.7695,1.7929-22.7109-4.1836-27.4883-25.1-.4609-1.6113-.8085-3.1171-1.0859-4.5546-1.1133,4.16-1.0742,9.7539,1.0859,17.3046C246.6445,95.0305,261.5859,101.0071,269.3554,99.2141Z"/><path class="c" d="M254.414,225.9094c21.8985-5.6172,21.1094-23.9062,20.918-26.082a282.0143,282.0143,0,0,1-65.1406,8.4629C213.3007,212.7844,228.4531,232.2668,254.414,225.9094Z"/><path class="c" d="M172.5429,228.8977c32.6758,2.627,36.5274-16.1133,36.9805-20.584a331.8979,331.8979,0,0,1-73.4141-7.459C136.3007,204.8723,138.98,226.1965,172.5429,228.8977Z"/><path class="d" d="M254.414,225.9094a34.1476,34.1476,0,0,0,8.3828-3.33c-21.1367,4.6-34.914-7.9336-40.6289-14.7343-4.0117.2207-8.0117.3867-11.9765.4453C213.3007,212.7844,228.4531,232.2668,254.414,225.9094Z"/><path class="d" d="M172.5429,228.8977c12.4961,1.0059,20.77-1.1211,26.2578-4.373a58.1038,58.1038,0,0,1-16.6953.7871c-25.2226-2.0293-33-14.5743-35.3906-22.3887-3.5781-.6484-7.1211-1.3281-10.6055-2.0684C136.3007,204.8723,138.98,226.1965,172.5429,228.8977Z"/><path class="c" d="M91.2656,212.1633c23.2109,7.5547,41.0664-8.2949,44.2969-11.4277a381.492,381.492,0,0,1-68.18-21.4649l-.0235.0235S65.5664,203.7961,91.2656,212.1633Z"/><path class="d" d="M91.2656,212.1633c17.789,5.7891,32.4258-2.164,39.75-7.6074a41.0567,41.0567,0,0,1-30.7852,2.2285C84.957,201.8118,79.3945,191.1418,77.3945,183.3c-3.4336-1.332-6.7969-2.6757-10.0117-4.0293l-.0235.0235S65.5664,203.7961,91.2656,212.1633Z"/><path class="e" d="M8.3164,112.2414C-1.2227,120.49-6.4571,133.5149,14.77,150.6086c7.793,6.2637,26.4648,17.6407,52.6133,28.6621a381.492,381.492,0,0,0,68.18,21.4649l.5234-.5254s0,.2383.0234.6445a331.8979,331.8979,0,0,0,73.4141,7.459,8.8873,8.8873,0,0,0,.07-.9316s.1914.334.5977.9082a282.0143,282.0143,0,0,0,65.1406-8.4629,262.4076,262.4076,0,0,0,29.2851-9.1777c26.82-11.045,48.43-24.43,31.5313-48.2168-1.4609,6.8125-16.8086,55.9121-154.6406,47.6191C30.3554,180.968,9.9648,118.3606,8.3164,112.2414Z"/><path class="f" d="M22.6367,103.8762c-3.2031,1.5274-6.4336,3.1524-9.66,4.8985a42.4811,42.4811,0,0,0-4.66,3.4667c1.6484,6.1192,22.039,68.7266,173.1914,77.8106,137.832,8.293,153.18-40.8066,154.6406-47.6191a72.6831,72.6831,0,0,0-9.375-10.5411c.457,4.6836.6953,47.9278-142.8789,46.8047C39.1992,167.3411,23.8086,109.6594,22.6367,103.8762Z"/><polygon class="g" points="237.684 135.667 244.855 159.573 231.707 164.355 225.73 137.46 237.684 135.667"/><polygon class="g" points="220.352 138.655 225.133 164.355 212.582 166.743 209.594 141.046 220.352 138.655"/><polygon class="g" points="103.219 126.704 90.668 149.413 81.703 142.839 94.254 120.728 103.219 126.704"/><polygon class="g" points="87.082 116.544 79.91 111.763 66.762 129.693 73.934 135.667 87.082 116.544"/><polygon class="d" points="237.684 135.667 232.992 136.37 238.879 155.987 230.523 159.027 231.707 164.355 244.855 159.573 237.684 135.667"/><polygon class="d" points="220.352 138.655 216.402 139.534 220.352 160.769 212.07 162.347 212.582 166.743 225.133 164.355 220.352 138.655"/><polygon class="d" points="87.082 141.644 97.664 123.001 94.254 120.728 81.703 142.839 90.668 149.413 92.687 145.755 87.082 141.644"/><polygon class="d" points="76.312 132.208 72.34 128.896 83.266 113.999 79.91 111.763 66.762 129.693 73.934 135.667 76.312 132.208"/><path class="h" d="M183.8945,178.6965C327.4687,179.82,327.23,136.5754,326.7734,131.8918v-.0234c-10.4688-9.9453-26.9141-21.4922-50.9844-35.0449a24.9134,24.9134,0,0,1-6.4336,2.3906s7.77,31.0762-86.6562,24.502c-90.43-9.6348-93.6563-35.57-93.3477-40.877l-.9062-.7656a283.0515,283.0515,0,0,0-65.8086,21.8027C23.8086,109.6594,39.1992,167.3411,183.8945,178.6965Zm53.7891-43.0293,7.1718,23.9063-13.1484,4.7812L225.73,137.46Zm-17.3321,2.9883,4.7813,25.6992-12.5508,2.3887-2.9883-25.6973ZM94.2539,120.7278l8.9648,5.9765-12.5508,22.709-8.9648-6.5742ZM79.91,111.7629l7.1719,4.7813-13.1484,19.123-7.1719-5.9746Z"/><path class="h" d="M187.48,17.9368c31.0782,2.3906,32.2735-7.77,32.2735-7.77l.1914-.334A90.4412,90.4412,0,0,0,179.1171.009a105.531,105.531,0,0,0-26.3437,2.7969l.0469.1914S156.4062,15.5461,187.48,17.9368Z"/><path class="f" d="M184.4921,28.6946c42.1446,4.6133,48.0508-9.7305,48.3868-10.711a88.7267,88.7267,0,0,0-12.9336-8.15l-.1914.334s-1.1953,10.16-32.2735,7.77c-31.0742-2.3907-34.66-14.94-34.66-14.94l-.0469-.1914a79.3369,79.3369,0,0,0-15.18,5.2813C139.0742,11.6262,146.9648,24.5832,184.4921,28.6946Z"/><path class="e" d="M182.6992,123.7161c94.4258,6.5742,86.6562-24.502,86.6562-24.502-7.7695,1.793-22.7109-4.1836-27.4883-25.1016C233.5,44.8293,256.8046,44.8293,256.8046,44.8293s-7.3867-14.3652-23.9257-26.8457c-.336.98-6.2422,15.3243-48.3868,10.711-37.5273-4.1114-45.4179-17.0684-46.8984-20.6074-21.5391,10.0644-28.3984,25.9863-28.3984,25.9863s21.5117-1.793,14.9375,31.6738c-6.57,21.5137-20.9141,23.9043-30.4766,19.7207a18.86,18.86,0,0,1-4.3047-2.6289C89.0429,88.1457,92.27,114.0813,182.6992,123.7161ZM160.8046,65.15s3.8008-19.125,23.4024-19.7227,26.5351,14.9414,27.18,27.49c.6211,12.5508-3.2969,29.33-18.9571,31.6739C180.4062,106.384,155.1132,102.2,160.8046,65.15Z"/><path class="b" d="M89.4726,81.8821a4.3493,4.3493,0,0,0-.1211.957,18.86,18.86,0,0,0,4.3047,2.6289c9.5625,4.1836,23.9063,1.793,30.4766-19.7207,6.5742-33.4668-14.9375-31.6738-14.9375-31.6738,22.1093,8.5644,2.59,40.8379-15.7383,41.6347-5.5391.24-9.5391-2.3652-12.4414-6.1074a24.4373,24.4373,0,0,0,7.43,12.4727C89.1132,81.9543,89.4726,81.8821,89.4726,81.8821Z"/><path class="i" d="M108.3867,39.3625c-4.0664-3.705-10.9649-3.7324-16.52,3.6778-10.34,13.7871,7.1094,27.91,16.9883,13.4121C113.5312,49.5891,112.2148,42.8489,108.3867,39.3625Z"/><path class="i" d="M272.7461,58.9739s-6.375-12.75-15.9375-9.5606c-9.5625,3.1875-.7969,19.1231,5.5781,20.7168C268.7617,71.7258,277.5273,67.7375,272.7461,58.9739Z"/><path class="j" d="M256.7968,44.8293c-.32.002-8.832.127-13.5937,6.7364,0,.0058.0039.0117.0039.0175C247.9687,44.968,256.4765,44.8332,256.7968,44.8293Z"/><path class="k" d="M232.8789,17.9856v-.002c-1.9493-1.4824-4.043-2.9316-6.2618-4.33a70.1525,70.1525,0,0,1,4.7071,6.8125A8.4862,8.4862,0,0,0,232.8789,17.9856Z"/><path class="l" d="M256.7968,44.8293h.0078s-7.3867-14.3652-23.9257-26.8457v.002a8.4862,8.4862,0,0,1-1.5547,2.48c5.93,9.7461,9.6094,20.7773,11.8789,31.1C247.9648,44.9563,256.4765,44.8313,256.7968,44.8293Z"/><path class="m" d="M266.5586,99.5149a12.4388,12.4388,0,0,0,2.7968-.3008,12.3743,12.3743,0,0,1-2.7734.2969c-6.0508,0-14.418-3.7813-20.0625-13.3926,0,.02-.0039.0391-.0039.0586C252.1523,95.7629,260.5117,99.5149,266.5586,99.5149Z"/><path class="l" d="M255.7929,117.14a35.3917,35.3917,0,0,0,6.1407-3.57h-.004c9.2188-6.7969,7.4571-14.2324,7.4258-14.3535v-.002a12.4388,12.4388,0,0,1-2.7968.3008c-6.0469,0-14.4063-3.752-20.043-13.3379-1.1055,17.7656-9.1055,35.8281-40.2422,38.4492.2656,0,.5391.002.8047.002C231.7421,124.6282,246.7226,121.345,255.7929,117.14Z"/><path class="n" d="M156.9453,8.3567A70.3881,70.3881,0,0,1,169.707.302a99.744,99.744,0,0,0-16.9336,2.5039l.0469.1914S153.5156,5.4309,156.9453,8.3567Z"/><path class="k" d="M147.3984,18.0969a55.2929,55.2929,0,0,1,9.5469-9.74c-3.43-2.9258-4.125-5.3594-4.125-5.3594l-.0469-.1914a79.3369,79.3369,0,0,0-15.18,5.2813C138.3281,9.845,140.6484,13.9289,147.3984,18.0969Z"/><path class="l" d="M173.0586,122.5774C115.8086,111.343,128.91,58.0422,141.27,28.6965a48.8354,48.8354,0,0,1,6.1289-10.6c-6.75-4.168-9.07-8.2519-9.8047-10.01-21.5391,10.0644-28.3984,25.9863-28.3984,25.9863s.1992-.0176.5586-.0176c.0742,0,.1562.002.2461.0039h.0156c3.7656.08,19.0508,2.0586,14.543,29.3379a.2409.2409,0,0,0-.0079.0527l-.0234.1348v.0059c-.0195.1015-.0352.207-.0547.3086a.1817.1817,0,0,1-.0078.0449c-.0391.2226-.0781.4453-.1172.67-.0156.0762-.0273.1543-.043.23,0,.0078-.0039.0175-.0039.0254a.0418.0418,0,0,0-.0039.0214c-.0039.0274-.0117.0489-.0156.0762-.0273.1484-.0547.2988-.0859.4473-.0117.0761-.0274.1543-.043.2285-.0078.0351-.0117.0684-.0195.1035-4.8867,16.002-14.0742,21.4238-22.3946,21.43h-.02a20.178,20.178,0,0,1-8.0625-1.709,18.86,18.86,0,0,1-4.3047-2.6289v.0156C89.0625,87.9973,92.1523,112.1965,173.0586,122.5774Z"/><path class="m" d="M109.1953,34.0735s.2031-.0176.5586-.0176C109.3945,34.0559,109.1953,34.0735,109.1953,34.0735Z"/><path class="m" d="M124.1328,65.7473c-4.8867,16-14.0742,21.4219-22.3946,21.43C110.0586,87.1711,119.2461,81.7493,124.1328,65.7473Z"/><path class="o" d="M187.6718,104.9329a32.4575,32.4575,0,0,0,4.7578-.3418c11.0977-1.66,16.2969-10.57,18.1641-20.0879v-.0293h-49.668C164.5586,100.8118,177.9218,104.9329,187.6718,104.9329Z"/><path class="l" d="M184.7617,110.7864c.3711,0,.7461-.0059,1.1289-.0176,25.7773-.7832,24.7539-25.3047,24.7031-26.2656-1.8672,9.5175-7.0664,18.4277-18.1641,20.0879a32.4575,32.4575,0,0,1-4.7578.3418c-9.75,0-23.1132-4.1211-26.7461-20.459h-1.332S159.5937,110.7864,184.7617,110.7864Z"/><path class="a" d="M211.3867,72.9172c.6211,12.5508-3.2969,29.33-18.9571,31.6739-12.0234,1.7929-37.3164-2.3907-31.625-39.4414,0,0,3.8008-19.125,23.4024-19.7227S210.7421,60.3684,211.3867,72.9172Z"/><path class="b" d="M211.3867,72.9172a34.4116,34.4116,0,0,0-5.0352-16.6465c.1133,1.0469.2071,2.086.2461,3.1036.5117,12.5488-2.7031,29.33-15.5508,31.6738-9.43,1.7129-28.7851-2.0547-26.414-34.7266a28.6092,28.6092,0,0,0-3.8282,8.8282c-5.6914,37.0507,19.6016,41.2343,31.625,39.4414C208.09,102.2473,212.0078,85.468,211.3867,72.9172Z"/><path class="i" d="M192.2656,51.0071s-11.9492-4.7832-17.5313,3.1855c-5.5742,7.9688-1.5976,17.5254,6.3711,19.125C195.3554,76.175,203.8007,60.24,192.2656,51.0071Z"/><path class="h" d="M318.5039,150.2434c8.582-8.6953,8.4492-16.4687,8.2695-18.3359.18,1.8652.3008,9.6386-8.2695,18.332Z"/><path class="h" d="M319.1562,165.8176l-.0039.0078c13.3594-10.334,16.3867-20.5488,16.9961-23.3925C335.539,145.2766,332.5,155.4875,319.1562,165.8176Z"/><path class="h" d="M269.43,99.6379a12.4107,12.4107,0,0,1-1.5859,7.4278A12.38,12.38,0,0,0,269.43,99.6379Z"/><path class="h" d="M267.8437,107.0657a19.9894,19.9894,0,0,1-5.91,6.5039l.0039.0019A20.0193,20.0193,0,0,0,267.8437,107.0657Z"/><path class="p" d="M8.3164,112.2414C3.6406,116.2844,0,121.4758,0,127.7336c.0039,6.5039,3.9492,14.1621,14.77,22.875,7.793,6.2637,26.4648,17.6407,52.6133,28.6621a381.492,381.492,0,0,0,68.18,21.4649l.5234-.5254s0,.2383.0234.6445c.0586.0137.1211.0254.18.0391.2656.0547.5274.1113.793.166a333.313,333.313,0,0,0,68.2148,7.2832h.0157q1.9688,0,3.9492-.0254c.0859-.0019.1719-.0019.2617-.0039.0664-.5781.07-.91.07-.93v-.0019s.1914.334.5977.9082a282.0143,282.0143,0,0,0,65.1406-8.4629,262.4076,262.4076,0,0,0,29.2851-9.1777c20.2461-8.3379,37.5235-18.0079,37.5079-32.4805-.0079-4.6992-1.836-9.9063-5.9766-15.7363-.6094,2.8437-3.6367,13.0585-16.9961,23.3925a17.984,17.984,0,0,1-8.16,7.8946c-21.7148,11.4961-60.3242,25.039-113.7734,25.039a338.1307,338.1307,0,0,1-42.4062-2.7285c-36.2969-4.5859-71.125-18.1445-93.6836-32.7773C17.7539,142.12,9.3515,116.0774,8.3164,112.2414Z"/><path class="q" d="M319.1562,165.8176c13.3438-10.33,16.3828-20.541,16.9922-23.3847a72.6831,72.6831,0,0,0-9.375-10.5411v.0157c.18,1.8672.3125,9.6406-8.2695,18.3359C320.9687,155.8313,321.3671,161.2414,319.1562,165.8176Z"/><path class="q" d="M37.0078,128.1633C25.664,116.095,23.09,106.1106,22.6367,103.8762c-3.2031,1.5274-6.4336,3.1524-9.66,4.8985a42.4811,42.4811,0,0,0-4.66,3.4667c1.0351,3.836,9.4375,29.879,52.8125,51.0118C41.7343,150.675,31.4062,137.3039,37.0078,128.1633Z"/><polygon class="r" points="81.18 112.609 79.91 111.763 81.176 112.609 81.18 112.609"/><path class="s" d="M318.5039,150.24c8.57-8.6934,8.4492-16.4668,8.2695-18.332v-.0391c-10.4688-9.9453-26.9141-21.4922-50.9844-35.0449a24.9134,24.9134,0,0,1-6.4336,2.3906v.0078c.0625.2617,1.711,7.6192-7.4179,14.35C288.9257,117.845,311.66,134.7317,318.5039,150.24Z"/><path class="s" d="M37.0078,128.1633c1.4726-2.4023,4.0468-4.5117,7.8437-6.2383,13.4571-6.1152,24.0938-8.82,34.3946-9.2558l.664-.9063,1.2695.8457c.3594-.0058.7227-.0078,1.0821-.0078,15.4687,0,30.7109,4.9239,54.2265,10.918a119.8164,119.8164,0,0,0,29.3164,3.2754A210.39,210.39,0,0,0,196,124.425q-6.1232-.22-12.9336-.6836c-.0352-.0019-.0664-.0039-.1016-.0078-.0859-.0058-.18-.0117-.2656-.0175-87.5586-9.3282-93.3633-33.9414-93.3633-40.3106,0-.2031.0039-.3867.0156-.5508v-.0156l-.9062-.7656a283.0515,283.0515,0,0,0-65.8086,21.8027C23.09,106.1106,25.664,116.095,37.0078,128.1633Z"/><path class="p" d="M183.0664,123.7414q6.82.4688,12.9336.6836l.0234-.0039c-4.1992-.15-8.6289-.3789-13.3242-.705.0859.0058.18.0117.2656.0175C183,123.7375,183.0312,123.74,183.0664,123.7414Z"/><path class="n" d="M269.5039,101.2532v0Z"/><path class="n" d="M269.4492,102.0344c.0039-.0605.0078-.1113.0117-.168C269.457,101.9231,269.4531,101.9739,269.4492,102.0344Z"/><path class="n" d="M269.3242,102.9133c.0039-.0176.0039-.0332.0078-.0488C269.3281,102.88,269.3281,102.8957,269.3242,102.9133Z"/><path class="n" d="M269.332,102.8645c.0508-.291.09-.5684.1172-.83C269.4218,102.2961,269.3828,102.5735,269.332,102.8645Z"/><path class="n" d="M269.4609,101.8664c.0195-.2128.0352-.4218.043-.6132C269.4961,101.4446,269.48,101.6536,269.4609,101.8664Z"/><path class="n" d="M269.4882,100.2747c-.0039-.0782-.0078-.1641-.0156-.2344C269.48,100.1106,269.4843,100.1965,269.4882,100.2747Z"/><path class="n" d="M269.3242,102.9133c-.5,2.8125-2.211,6.836-7.3906,10.6563C267.125,109.7473,268.8281,105.7258,269.3242,102.9133Z"/><path class="n" d="M269.5039,100.5872c.0039.1289,0,.2753,0,.42C269.5039,100.8625,269.5078,100.7161,269.5039,100.5872Z"/><path class="n" d="M269.4882,100.2747c.0079.1015.0118.1972.0157.3125C269.5,100.4719,269.4961,100.3762,269.4882,100.2747Z"/><path class="n" d="M269.3554,99.2219a5.7122,5.7122,0,0,1,.1172.8184,5.732,5.732,0,0,0-.1172-.8242Z"/><path class="t" d="M269.5039,100.5539c.0781,2.461-.66,7.918-7.5743,13.0157C268.8437,108.4739,269.582,103.0168,269.5039,100.5539Z"/><path class="t" d="M269.4218,99.5891a7.9252,7.9252,0,0,1,.0821.9648A7.9252,7.9252,0,0,0,269.4218,99.5891Z"/><path class="u" d="M260.9882,118.3372s34.0664,15.539,45.4219,37.0527c7.7656,13.7441,5.9727,25.1-19.125,32.2715,3.5117-1.0039,8.0195-8.7461,9.3789-11.6719C305.5078,156.9817,273.6523,128.7395,260.9882,118.3372Z"/><path class="u" d="M76.9218,96.8235s-55.5781,5.9746-62.75,22.709C7,136.2649,26.7226,151.8039,46.4453,161.9641c0,0-22.711-22.1133-17.3321-37.65C34.4921,108.7747,79.3125,95.6282,76.9218,96.8235Z"/></svg>