<svg xmlns="http://www.w3.org/2000/svg" viewBox="0 0 311.2001 358.1"><defs><style>.a{fill:#0a82a3;}.b{fill:#1f2121;}.c{fill:#f26522;}</style></defs><path class="a" d="M121.4,123.1s-24.2,62-69.3,93.5C7,248,3.7,292.3,3.7,292.3H113.3Z"/><path class="b" d="M116.7,295.8H0L.3,292c.1-1.9,3.9-46.4,49.8-78.4,43.7-30.5,67.8-91.3,68-91.9l7.8-20Zm-108.9-7H110l7-147.7c-10.5,20.9-31.6,56.5-62.9,78.3C18.4,244.3,9.7,277.7,7.8,288.8Z"/><path class="a" d="M189.8,123.1s24.2,62,69.3,93.5c45.1,31.4,48.4,75.7,48.4,75.7H197.8Z"/><path class="b" d="M311.2,295.8H194.5l-9.2-193.9,7.8,19.9c.2.6,24.3,61.4,68,91.9,46,32,49.7,76.5,49.8,78.4Zm-110-7H303.4c-2-11.1-10.7-44.6-46.3-69.4-31.3-21.8-52.5-57.4-62.9-78.3Z"/><rect class="a" x="119.7" y="289.1" width="71.7" height="45.1"/><path class="b" d="M195,337.7H116.3V285.6H195Zm-71.8-7h64.7V292.6H123.2Z"/><path class="c" d="M155.6,3.8c-47.2,22.5-45.7,76.4-45.7,76.4V306.5h91.4V80.3S202.8,26.3,155.6,3.8Z"/><path class="b" d="M204.8,310H106.4V80.3a99.2572,99.2572,0,0,1,5.3-30.9c7.5-22.2,22.2-39.1,42.4-48.7l1.5-.7,1.5.7c20.2,9.6,34.8,26.4,42.4,48.7,5.7,16.7,5.4,30.4,5.3,31Zm-91.4-7h84.4V80.3c0-.6.8-50.9-42.2-72.5-43.1,21.7-42.2,71.9-42.2,72.4Z"/><rect class="b" x="90.3" y="223.1" width="7" height="69.2"/><rect class="b" x="59.1" y="249.9" width="7" height="42.4"/><rect class="b" x="213.9" y="223.1" width="7" height="69.2"/><rect class="b" x="245.1" y="249.9" width="7" height="42.4"/><rect class="b" x="109.9" y="76.8" width="91.4" height="7"/><path class="a" d="M165.2,354.6H146.1V209.4a9.6025,9.6025,0,0,1,9.6-9.6h0a9.6025,9.6025,0,0,1,9.6,9.6V354.6Z"/><path class="b" d="M168.7,358.1H142.6V209.4a13.1,13.1,0,0,1,26.2,0V358.1Zm-19.2-7h12.1V209.4a6.1243,6.1243,0,0,0-6.1-6.1,6.0607,6.0607,0,0,0-6.1,6.1V351.1Z"/><path class="a" d="M155.6,53.6s-26,1-32,17.3h64C181.6,54.6,155.6,53.6,155.6,53.6Z"/><path class="b" d="M192.6,74.4h-74l1.7-4.7c6.7-18.3,34-19.5,35.1-19.6h.2c1.2,0,28.4,1.3,35.1,19.6Zm-62.9-7h51.8c-7.6-9-24.2-10.2-25.9-10.3C153.9,57.2,137.3,58.4,129.7,67.4Z"/><rect class="b" x="109.9" y="93.1" width="36.2" height="7"/><rect class="b" x="109.9" y="106.3" width="36.2" height="7"/><rect class="b" x="165.2" y="93.1" width="36.2" height="7"/><rect class="b" x="165.2" y="106.3" width="36.2" height="7"/><polygon class="a" points="109.9 172.1 134.2 188.2 134.2 240 109.9 251.6 109.9 172.1"/><path class="b" d="M109.9,255.1a4.1362,4.1362,0,0,1-1.9-.5,3.5263,3.5263,0,0,1-1.6-3V172.1a3.5318,3.5318,0,0,1,1.8-3.1,3.5812,3.5812,0,0,1,3.6.2l24.3,16.1a3.3559,3.3559,0,0,1,1.6,2.9V240a3.5627,3.5627,0,0,1-2,3.2l-24.3,11.6A4.0126,4.0126,0,0,1,109.9,255.1Zm3.5-76.5V246l17.3-8.2V190.1Z"/><polygon class="a" points="201.3 172.1 177 188.2 177 240 201.3 251.6 201.3 172.1"/><path class="b" d="M201.3,255.1a4.0126,4.0126,0,0,1-1.5-.3l-24.3-11.6a3.5626,3.5626,0,0,1-2-3.2V188.2a3.3558,3.3558,0,0,1,1.6-2.9l24.3-16.1a3.5812,3.5812,0,0,1,3.6-.2,3.5318,3.5318,0,0,1,1.8,3.1v79.5a3.6571,3.6571,0,0,1-1.6,3A4.1362,4.1362,0,0,1,201.3,255.1Zm-20.8-17.3,17.3,8.2V178.6L180.5,190Z"/></svg>