<?xml version="1.0" encoding="utf-8"?>
<!-- Generator: Adobe Illustrator 25.2.0, SVG Export Plug-In . SVG Version: 6.00 Build 0)  -->
<svg version="1.1" id="Layer_1" xmlns="http://www.w3.org/2000/svg" xmlns:xlink="http://www.w3.org/1999/xlink" x="0px" y="0px"
	 viewBox="0 0 897.4 690.9" style="enable-background:new 0 0 897.4 690.9;" xml:space="preserve">
<style type="text/css">
	.st0{opacity:0.99;fill-rule:evenodd;clip-rule:evenodd;fill:url(#SVGID_1_);enable-background:new    ;}
	.st1{opacity:0.99;fill-rule:evenodd;clip-rule:evenodd;fill:url(#SVGID_2_);enable-background:new    ;}
	.st2{fill-rule:evenodd;clip-rule:evenodd;fill:url(#SVGID_3_);stroke:#000000;}
	.st3{fill-rule:evenodd;clip-rule:evenodd;fill:url(#SVGID_4_);stroke:#000000;}
	
		.st4{opacity:0.99;fill:url(#SVGID_5_);stroke:#000000;stroke-width:0.7338;stroke-linejoin:bevel;stroke-miterlimit:2.9352;enable-background:new    ;}
	
		.st5{opacity:0.99;fill:url(#SVGID_6_);stroke:#4D4E60;stroke-width:12.4011;stroke-linejoin:bevel;stroke-miterlimit:2.9352;enable-background:new    ;}
	
		.st6{opacity:0.99;fill:url(#SVGID_7_);stroke:url(#SVGID_8_);stroke-width:12.853;stroke-linejoin:bevel;enable-background:new    ;}
	
		.st7{opacity:0.99;fill:url(#SVGID_9_);stroke:url(#SVGID_10_);stroke-width:12.853;stroke-linejoin:bevel;enable-background:new    ;}
</style>
<g transform="translate(106.98 -193.36)">
	<g transform="matrix(1.725 -1.4278 1.5881 1.5508 -3121.9 985.85)">
		
			<radialGradient id="SVGID_1_" cx="1293.0392" cy="1284.6979" r="300.09" gradientTransform="matrix(0.497 -0.1351 0.1051 -0.3583 374.2285 1531.5699)" gradientUnits="userSpaceOnUse">
			<stop  offset="0" style="stop-color:#FFDF00"/>
			<stop  offset="0.3919" style="stop-color:#FFAF3F"/>
			<stop  offset="1" style="stop-color:#EE0A0A"/>
		</radialGradient>
		<path class="st0" d="M1088.9,911.5c39.6-23.1-13.4,33,1.9,18.6c21.9-20.5,25.3,4.9,10.1,14.6c-21.7,10.8,117.6-54.8,33.1-4.9
			c143.6-31,42.6-58.8,73.3-67.8C1121.5,865.6,1085.1,896,1088.9,911.5L1088.9,911.5z"/>
		
			<radialGradient id="SVGID_2_" cx="1618.0636" cy="1171.1238" r="300.09" gradientTransform="matrix(0.3806 -0.341 -0.2312 -0.2886 831.9379 1796.5714)" gradientUnits="userSpaceOnUse">
			<stop  offset="0" style="stop-color:#FFDF00"/>
			<stop  offset="0.3919" style="stop-color:#FFAF3F"/>
			<stop  offset="1" style="stop-color:#EE0A0A"/>
		</radialGradient>
		<path class="st1" d="M1148.7,962.5c9.6-38.5,14,30.7,14,12c0-26.7,19.6-10.8,16.5,4.6c-6.5,19.7,38-104.6,17.9-22
			c71-102.4-12.9-65.3,0.6-88.9C1138.2,911.9,1135.6,953.7,1148.7,962.5L1148.7,962.5z"/>
	</g>
	
		<linearGradient id="SVGID_3_" gradientUnits="userSpaceOnUse" x1="631.97" y1="60.7441" x2="322.4" y2="60.7441" gradientTransform="matrix(1 0 0 -1 106.98 590.6682)">
		<stop  offset="0" style="stop-color:#C4C9F5"/>
		<stop  offset="1" style="stop-color:#436697"/>
	</linearGradient>
	<path class="st2" d="M429.9,339.9c154,53.2,297.2,228,360,380c-320.8-233.5-332-75.5-340-100L429.9,339.9z"/>
	
		<linearGradient id="SVGID_4_" gradientUnits="userSpaceOnUse" x1="-162.533" y1="55.6641" x2="147.04" y2="55.6641" gradientTransform="matrix(1 0 0 -1 106.98 590.6682)">
		<stop  offset="0" style="stop-color:#C4C9F5"/>
		<stop  offset="1" style="stop-color:#436697"/>
	</linearGradient>
	<path class="st3" d="M253.5,345c-153.9,53.2-297.2,228-360,380c320.8-233.5,332-75.5,340-100L253.5,345z"/>
	<g transform="matrix(.73379 0 0 .73379 102.63 400.06)">
		
			<radialGradient id="SVGID_5_" cx="225.5154" cy="-141.6376" r="198.5433" gradientTransform="matrix(1.1879 1.055924e-02 1.198793e-02 -1.3486 62.2 -25.1954)" gradientUnits="userSpaceOnUse">
			<stop  offset="0" style="stop-color:#C4C9F5"/>
			<stop  offset="1" style="stop-color:#436697"/>
		</radialGradient>
		<path class="st4" d="M520,105.5c35.3,161.3-82.7,362.3-201.4,352.9C219.9,450.4,94,308,140,105.5
			c38.8-171,187.1-387.1,187.1-387.1S482.5-65.8,520,105.5L520,105.5z"/>
		
			<linearGradient id="SVGID_6_" gradientUnits="userSpaceOnUse" x1="-199.6079" y1="354.2364" x2="-32.8979" y2="354.2364" gradientTransform="matrix(0.7338 0 0 -0.7338 391.4133 266.8069)">
			<stop  offset="0" style="stop-color:#B0C2C9"/>
			<stop  offset="1" style="stop-color:#FFFFFF"/>
		</linearGradient>
		<path class="st5" d="M411.2,6.9c0.3,71-36.5,129-82.3,129.5c-45.8,0.5-83.1-56.7-83.4-127.7c0-0.6,0-1.2,0-1.8
			c-0.3-71,36.5-129,82.3-129.5s83.1,56.7,83.4,127.7C411.2,5.7,411.2,6.3,411.2,6.9z"/>
	</g>
	
		<radialGradient id="SVGID_7_" cx="444.294" cy="291.9399" r="146.7213" gradientTransform="matrix(-0.4726 0 0 0.673 505.3073 518.7004)" gradientUnits="userSpaceOnUse">
		<stop  offset="0" style="stop-color:#5B5757"/>
		<stop  offset="1" style="stop-color:#000000"/>
	</radialGradient>
	
		<radialGradient id="SVGID_8_" cx="-1300.5962" cy="1000.0925" r="152.1629" gradientTransform="matrix(0.2895 0 0 -0.2238 671.7911 939.0215)" gradientUnits="userSpaceOnUse">
		<stop  offset="0" style="stop-color:#5B5757"/>
		<stop  offset="1" style="stop-color:#000000"/>
	</radialGradient>
	<path class="st6" d="M337.5,715.2c0,16.3-18.9,29.5-42.2,29.5c-23.3,0-42.2-13.2-42.2-29.5c0-16.3,18.9-29.5,42.2-29.5
		C318.6,685.7,337.5,698.9,337.5,715.2C337.5,715.2,337.5,715.2,337.5,715.2z"/>
	
		<radialGradient id="SVGID_9_" cx="444.294" cy="291.9399" r="146.7213" gradientTransform="matrix(-0.4726 0 0 0.673 594.4173 518.1805)" gradientUnits="userSpaceOnUse">
		<stop  offset="0" style="stop-color:#5B5757"/>
		<stop  offset="1" style="stop-color:#000000"/>
	</radialGradient>
	
		<radialGradient id="SVGID_10_" cx="-1300.5962" cy="1000.0925" r="152.1629" gradientTransform="matrix(0.2895 0 0 -0.2238 760.9011 938.5016)" gradientUnits="userSpaceOnUse">
		<stop  offset="0" style="stop-color:#5B5757"/>
		<stop  offset="1" style="stop-color:#000000"/>
	</radialGradient>
	<path class="st7" d="M426.6,714.6c0,16.3-18.9,29.5-42.2,29.5c-23.3,0-42.2-13.2-42.2-29.5c0-16.3,18.9-29.5,42.2-29.5
		C407.7,685.2,426.6,698.4,426.6,714.6C426.6,714.6,426.6,714.6,426.6,714.6z"/>
</g>
</svg>
