<svg xmlns="http://www.w3.org/2000/svg" xmlns:xlink="http://www.w3.org/1999/xlink" viewBox="0 0 296.5472 428.1585"><defs><style>.a{isolation:isolate;}.b{fill:#c9d3c8;}.c{fill:#a84234;}.d{fill:#6c546a;}.e{fill:#b7c3b5;}.f{fill:#7f8b7f;}.g,.l{fill:#9bae9b;}.aa,.ab,.av,.h,.i,.j,.k,.p,.s,.t,.u,.v,.y,.z{mix-blend-mode:color-dodge;}.h{fill:url(#a);}.i{fill:url(#b);}.j{fill:url(#c);}.k{fill:url(#d);}.l{opacity:0.48;}.m{fill:#7992a9;}.n{fill:#14476a;}.o{fill:#2c6b99;}.p{fill:url(#e);}.q,.r{fill:#fbb042;}.q{opacity:0.4;}.s{fill:url(#f);}.t{fill:url(#g);}.u{fill:url(#h);}.v{fill:url(#i);}.ac,.w,.x{mix-blend-mode:multiply;}.w{fill:url(#j);}.x{fill:url(#k);}.y{fill:url(#l);}.z{fill:url(#m);}.aa{fill:url(#n);}.ab{fill:url(#o);}.ac{fill:url(#p);}.ad{fill:#c8702e;}.ae,.ag{fill:#fff;}.ae{opacity:0.57;}.af{fill:#8d798a;}.ag{opacity:0.35;}.ah{fill:#ba6b57;}.ai{fill:#90382a;}.aj{fill:#71281a;}.ak{fill:#e1e5df;}.al{fill:#4f6170;}.am{fill:#adbac9;}.an{fill:#3c4d58;}.ao{fill:#672314;}.ap{fill:#f89521;}.aq{fill:#823022;}.ar{fill:#f8ed33;}.as{fill:#5b655c;}.at{fill:#4f3d4f;}.au{fill:#657066;}.av{fill:url(#q);}</style><linearGradient id="a" x1="226.5987" y1="312.6363" x2="281.2034" y2="390.0759" gradientUnits="userSpaceOnUse"><stop offset="0" stop-color="#010101"/><stop offset="0.1178" stop-color="#181818"/><stop offset="0.3649" stop-color="#525252"/><stop offset="0.717" stop-color="#b0b0b0"/><stop offset="1" stop-color="#fff"/></linearGradient><linearGradient id="b" x1="55.273" y1="308.5285" x2="54.8208" y2="418.5478" xlink:href="#a"/><linearGradient id="c" x1="258.4629" y1="381.2579" x2="227.3287" y2="379.6065" xlink:href="#a"/><linearGradient id="d" x1="36.4243" y1="381.9019" x2="63.9184" y2="376.5905" xlink:href="#a"/><radialGradient id="e" cx="147.1656" cy="225.4384" r="44.258" gradientUnits="userSpaceOnUse"><stop offset="0.005" stop-color="#fff"/><stop offset="1" stop-color="#010101"/></radialGradient><radialGradient id="f" cx="28.128" cy="136.0491" r="88.4667" xlink:href="#e"/><radialGradient id="g" cx="245.3916" cy="114.2785" r="83.7034" xlink:href="#e"/><radialGradient id="h" cx="247.8925" cy="235.7733" r="73.7041" xlink:href="#e"/><radialGradient id="i" cx="9.3555" cy="236.079" r="73.7467" xlink:href="#e"/><linearGradient id="j" x1="52.7066" y1="231.5554" x2="119.9064" y2="211.5254" xlink:href="#e"/><linearGradient id="k" x1="249.0908" y1="232.8755" x2="181.1101" y2="214.0688" xlink:href="#e"/><radialGradient id="l" cx="142.6347" cy="394.155" r="100.4728" xlink:href="#e"/><radialGradient id="m" cx="154.2469" cy="374.6112" r="20.4084" xlink:href="#e"/><linearGradient id="n" x1="143.9289" y1="316.2152" x2="150.9618" y2="347.3416" xlink:href="#a"/><radialGradient id="o" cx="107.0026" cy="-41.8425" r="127.9394" xlink:href="#e"/><linearGradient id="p" x1="182.1832" y1="11.2291" x2="143.2645" y2="89.0664" xlink:href="#e"/><radialGradient id="q" cx="-47.1471" cy="171.2574" r="231.3214" gradientUnits="userSpaceOnUse"><stop offset="0" stop-color="#fff"/><stop offset="0.283" stop-color="#b0b0b0"/><stop offset="0.6351" stop-color="#525252"/><stop offset="0.8822" stop-color="#181818"/><stop offset="1" stop-color="#010101"/></radialGradient></defs><g class="a"><path class="b" d="M79.0227,278.875s-6.3441-56.52,1.73-99.7751S99.7852,92.59,99.7852,92.59L109.59,62.6l14.9951-34.604L134.966,7.81S139.0031.8889,145.9239.8889s10.3813,1.73,14.4184,6.3441,17.8788,34.6041,17.8788,34.6041,18.4555,47.8689,27.6832,86.51,12.1114,81.8963,12.1114,81.8963l-2.3069,70.9383-20.1857,30.5669s-23.6461,10.3813-57.0967,7.4976-43.2551-9.2278-43.2551-9.2278Z"/><path class="c" d="M79.0227,357.8876s22.7754,8.9637,58.56,10.006c34.3333,1,51.6667-3.8333,51.6667-3.8333l32.8039-7.9029-17.302-46.1388s-27.1066,12.6882-66.3245,9.2278-47.869-8.0743-47.869-8.0743L71.5252,349.2366S68.6415,354.4272,79.0227,357.8876Z"/><path class="c" d="M134.966,7.81,117.6639,41.8371,109.59,62.6s10.3812,7.4976,16.1485,6.9208,29.99,1.1535,29.99,1.1535l16.7253-3.46,12.6882-6.3441S179.3745,41.8371,171.3,27.4187,160.3423,7.233,160.3423,7.233,154.5749-.8413,145.9239.8889,136.1194,6.08,134.966,7.81Z"/><path class="c" d="M87.6737,133.5379S61.7207,154.3,47.3023,177.9464s-24.8,42.1016-24.8,42.1016L8.0844,252.3452.5868,274.8378s2.307,9.8045,7.4976,14.4184a79.9453,79.9453,0,0,1,9.8045,10.9579s16.7253-5.7673,31.72-12.1114,28.26-16.7253,28.26-16.7253-3.46-24.8,0-65.7477A693.929,693.929,0,0,1,87.6737,133.5379Z"/><path class="c" d="M207.0578,131.8077s23.6461,19.6089,47.2922,53.6363,31.1437,61.7106,31.1437,61.7106l9.8045,26.53s-.5768,8.651-4.6139,13.8416-13.2649,12.1114-13.2649,12.1114-23.6461-7.4975-32.2971-11.5347-28.26-16.7253-28.26-16.7253,4.0371-31.72,1.1534-61.1338S207.0578,131.8077,207.0578,131.8077Z"/><path class="d" d="M83.4032,275.9707s0-6.8992,2.6283-10.1846a25.8824,25.8824,0,0,1,6.8993-5.5851s6.5707-1.9712,10.8417.6571,6.2422,4.2709,7.5564,6.8992,2.9568,7.2278,2.6283,10.5132-2.6283,9.199-2.3,14.1271A76.22,76.22,0,0,0,113.3,302.9107a13.328,13.328,0,0,1-2.3,7.2279c-2.3,2.9568-6.8992,3.6139-6.8992,3.6139L98.8445,312.11l5.5851-10.1847s.6571-12.8129.9856-17.7409,1.3141-11.17,1.3141-11.17-2.6282-3.9424-6.2422-4.928a13.3271,13.3271,0,0,0-7.5563.657l-2.9568,1.3142Z"/><path class="d" d="M209.5613,275.6422s1.9713-7.5563-3.9424-12.8129a15.2368,15.2368,0,0,0-12.8129-3.6139s-8.2135,2.9568-10.5132,7.8848-3.6139,5.5852-3.2854,9.5276,2.6283,12.1559,2.6283,12.1559l-.6571,9.5275-1.3141,6.8993s.9856,3.9424,3.9424,5.5851a17.6164,17.6164,0,0,0,5.9137,1.9713l4.271-1.3142-5.2566-8.87s-.3286-10.8417-.6571-17.741a55.6893,55.6893,0,0,0-1.6427-11.4988s1.3142-3.9424,5.2566-4.5995a24.7012,24.7012,0,0,1,7.5564,0l3.6139,1.3142Z"/><path class="e" d="M82.7824,423.3655l-3.76-65.4779s1.7154-8.63,8.36-23.9629,17.0473-32,17.0473-32l2.3-28.9112a7.5184,7.5184,0,0,0-6.2422-4.928c-4.9274-.603-10.5131,1.9712-10.5131,1.9712L79.0227,278.875s-25.3724,23.8731-37.1275,41.25S24.007,346.7019,24.007,346.7019L30.14,367.1456l16.866,31.6876,14.8216,24.0213S75.1161,432.0541,82.7824,423.3655Z"/><path class="e" d="M188.535,302.5822s10.7761,17.543,17.9314,33.8979,8.6885,20.4437,8.6885,20.4437L212.6,399.8554,210.5551,425.41a34.45,34.45,0,0,0,10.7329,1.0222c5.1109-.5111,11.7551-4.6,11.7551-4.6l15.3327-27.0878L264.22,364.079l4.6-17.8881s-7.1552-12.2662-25.0434-34.7542-41.1139-41.38-41.1139-41.38-11.6146-5.1656-16.4269,3.2853C188.5782,282.3045,188.535,302.5822,188.535,302.5822Z"/><path class="f" d="M55.0514,355.9336a294.088,294.088,0,0,1,21.0735-41.189c12.7718-20.4349,30.6044-41.7307,30.6044-41.7307l-2.1872,15.2292-.1125,13.682L88.2581,331.9865l-7.3438,18.8384-3.1929,7.0245,1.5964,11.8139,3.193,55.5574S71.6548,407.6594,64.95,389.46A264.2306,264.2306,0,0,1,55.0514,355.9336Z"/><path class="f" d="M186.2352,273.3424s2.0621,10.1919,2.44,15.102-.14,14.1378-.14,14.1378,7.3953,10.1705,17.9314,33.8979,8.6885,20.4437,8.6885,20.4437l-2.3071,38.41L210.5551,425.41s8.3359-13.08,12.8683-22.5222,9.4425-24.9282,9.4425-24.9282l4.91-22.6621s-7.554-21.9066-20.0181-40.4139S186.2352,273.3424,186.2352,273.3424Z"/><path class="g" d="M237.9991,356.1422s13.4165-2.2486,20.9165-5.7486,10.0448-3.5025,10.0448-3.5025a244.5936,244.5936,0,0,1-10.0448,29.0025c-6.5,15.5-19.5,35.5-19.5,35.5L231.9984,422.9s-7.5828,3.4939-12.5828,3.9939-6.73-1.278-6.73-1.278,11.73-20.722,17.23-38.722S237.9991,356.1422,237.9991,356.1422Z"/><path class="g" d="M24.007,346.7019s11.4086,6.1917,15.9086,7.1917,15.1358,2.04,15.1358,2.04,1.9321,14.092,9.8982,33.526,15.966,34.934,15.966,34.934a25.5542,25.5542,0,0,1-9,2c-4.5,0-10.0879-3.5391-10.0879-3.5391L38.4156,384.3936S23.0984,353.51,24.007,346.7019Z"/><path class="h" d="M237.9991,356.1422l17.9165-3.2486,13.0448-6.0025s-17.5448-28.4975-30.5448-42.9975-17-17-17-17l-14,12a255.7685,255.7685,0,0,1,18,28A214.8332,214.8332,0,0,1,237.9991,356.1422Z"/><path class="i" d="M24.007,346.7019s9.9086,6.6917,15.9086,7.1917,15.1358,2.04,15.1358,2.04,7.3642-17.04,11.8642-25.04,19.5-30.5,19.5-30.5l-23-5S31.0984,332.01,24.007,346.7019Z"/><path class="j" d="M263.0423,366.1569s-3.5742,2.8869-6.5986,3.5743-5.0865.9623-5.0865.9623l-7.561,14.572-4.674,10.31s3.5743-.55,5.7738-.9623a19.0054,19.0054,0,0,0,5.0865-2.2Z"/><path class="k" d="M30.1656,366.1436s3.75,3,6.25,3.75a19.695,19.695,0,0,0,5,.75s8,12.25,9.75,16.75,3.25,8,3.25,8l-6-.75-4.25-1.75S31.6656,372.8936,30.1656,366.1436Z"/><path class="g" d="M84.4156,265.8936s-3.5-35-1-64,12-77.5,12-77.5l15.5-56c-.8516,3.077,30.1522,7.1417,32.7154,6.9695,9.6338-.6473,20.0974-.3294,29.3122-3.47,4.5078,9.6392,6.69,21.2433,9.9724,31.5009,7,27,17.5,81.5,17.5,81.5l5,51.5.2033,26.4357,4.2967,6.5643v8l5.7932,3.7883a348.77,348.77,0,0,0,2.2068-58.2883c-1.5-32-12.0113-94.5463-12.0113-94.5463L192.9156,82.8936l-7.7737-22.0243s-20.7263,9.5243-42.7263,10.5243S109.59,62.6,109.59,62.6a788.38,788.38,0,0,0-23.6741,86.2941c-9.5,45.5-9,88.5-9,88.5l2.1071,41.4814,4.38-2.9043S80.4156,267.8936,84.4156,265.8936Z"/><path class="l" d="M148.9156,70.8936s11.5,65.5,13.5,128.5a777.6333,777.6333,0,0,1-5,115l26.1913-3.598s-4.6913-.902-2.6913-8.402-1.5-19-1.5-19-2-13.5,5.5-20.5,12.5-4,12.5-4l8,1.5a714.6587,714.6587,0,0,0-7.5-92.5c-7.5-51.5-25.4619-100.68-25.4619-100.68S156.4156,73.8936,148.9156,70.8936Z"/><circle class="m" cx="147.1656" cy="171.6436" r="41.25"/><circle class="n" cx="147.1656" cy="171.6436" r="33.75"/><circle class="o" cx="147.1656" cy="171.6436" r="27.25"/><path class="p" d="M147.1656,184.9061a46.7807,46.7807,0,0,1-23.1047-5.73,23.72,23.72,0,0,0,46.2095,0A46.7811,46.7811,0,0,1,147.1656,184.9061Z"/><path class="q" d="M87.6737,133.5379S66.689,149.9993,47.3023,177.9464,19.249,224.56,19.249,224.56l-15.3334,40L.5868,274.8378l3.3288-1.6109s11.3334-20,28-45.3333,40-48.6667,40-48.6667l10.6667-10Z"/><path class="q" d="M207.0578,131.8077s20.1912,14.0859,30.8578,27.4192a281.2816,281.2816,0,0,1,20,29.3334l20,38,17.3826,47.1241-3.3826-1.7908s-16-34.6667-36.6666-58.6667-41.3334-43.3333-41.3334-43.3333Z"/><path class="r" d="M133.249,12.56s13.3333,2.6666,18,2.6666S161.9156,10.56,161.9156,10.56s-3.3333-7.3334-10.6666-9.3334S133.9156,4.56,133.249,12.56Z"/><path class="s" d="M87.6737,133.5379S66.5823,151.8936,51.249,171.8936s-26,42.6667-26,42.6667l-8.6667,18.6666s8.6667-17.3333,17.3333-19.3333l8.6667-2s20-23.3333,26.6667-30,13.3333-12.6667,13.3333-12.6667Z"/><path class="t" d="M207.0578,131.8077l3.5245,16.7526,3.3333,21.3333s25.3334,26,33.3334,34.6667,19.3333,25.3333,19.3333,25.3333-8-10.6667-4.6667-19.3333,0-12.6667,0-12.6667S226.2,145.0551,207.0578,131.8077Z"/><path class="u" d="M253.101,282.6839A93.1808,93.1808,0,0,0,263.8,266.6352a117.9159,117.9159,0,0,0,7.538-16.5349,27.2176,27.2176,0,0,1,5.5927,5.1064c1.7022,2.4316,5.35,8.9969,5.35,8.9969s-3.8906,7.7812-7.0517,12.8876a58.3939,58.3939,0,0,1-8.7538,10.2127S257.4779,288.2766,253.101,282.6839Z"/><path class="v" d="M25.054,250.4239a44.0876,44.0876,0,0,0-7.774,7.774c-2.7208,3.8869-2.7208,5.4417-2.7208,5.4417s3.11,8.5514,7.3852,14.3818,7.3852,9.7174,7.3852,9.7174a37.2986,37.2986,0,0,0,9.3287-1.9435c3.887-1.5547,5.0531-3.11,5.0531-3.11S28.9409,262.4735,25.054,250.4239Z"/><path class="w" d="M82.5823,169.2269S56.15,197.1725,48.3758,206.1125s-16.46,21.7811-16.46,21.7811,10.241,28.75,18.015,38.0782A194.4443,194.4443,0,0,0,64.3123,281.52l13.557-10.1423s-1.8961-29.8935-1.5074-50.1057S82.5823,169.2269,82.5823,169.2269Z"/><path class="x" d="M213.9156,169.8936s3.6794,32.4662,4,53-1.0533,48.4838-1.0533,48.4838L238.06,283.0745s13.6043-24.0992,17.88-38.0923a159.8181,159.8181,0,0,0,5.4418-22.5444S221.6446,174.8765,213.9156,169.8936Z"/><path class="y" d="M109.79,316.8911,90.7437,348.3755s26.82,5.4418,50.9193,6.9965,60.6367-5.83,60.6367-5.83l-10.8835-22.9331-6.6079-9.3287s-38.0923,4.6643-46.6436,3.4982S109.79,316.8911,109.79,316.8911Z"/><path class="z" d="M143.9952,367.0329l-.7774-3.8869,1.1661-2.3322L166.54,361.98l.3887,5.053S145.1612,368.5877,143.9952,367.0329Z"/><path class="aa" d="M130.78,320.0006l-1.9435,13.2157s7.3852,2.7209,11.6609,3.11a17.063,17.063,0,0,0,8.1626-1.5548l.7774-5.83,8.5513,1.1661,5.8305-1.1661s1.1661-3.4983.7774-5.0531l-.7774-3.11Z"/><path class="ab" d="M110.1785,60.74s0,3.4983,6.6079,5.4418,20.99,3.887,20.99,3.887l11.14.8249s-1.4222-23.3693-3.3657-40.472L143.6065,13.319l-5.8305.3886L133.249,12.56S114.8429,44.8034,110.1785,60.74Z"/><path class="ac" d="M151.249,15.2269s2.4636-4.6288,10.6262,19.47,10.5785,32.5161,10.5785,32.5161L186.3631,60.74,168.8717,22.259,161.9156,10.56Z"/><path class="ad" d="M136.2212,7.4885s5.0531,2.7209,13.2157,1.5548,10.9054-1.81,10.9054-1.81l1.5733,3.3273a43.591,43.591,0,0,1-12.8674,3.1473c-7.7739.7774-11.2722,0-11.2722,0l-3.11-1.9434Z"/><path class="ae" d="M143.6164,2.0742a8.861,8.861,0,0,0-5.2312,4.4052,11.3216,11.3216,0,0,0,11.3015-1.242A2.1706,2.1706,0,0,0,150.59,4.098a1.7621,1.7621,0,0,0-.422-1.4369,4.3031,4.3031,0,0,0-3.7408-1.4151,11.4788,11.4788,0,0,0-3.942,1.2767Z"/><path class="af" d="M187.9179,262.4735s-4.2757,3.4983-3.887,6.2192a9.456,9.456,0,0,0,2.2043,4.65s3.6262-5.4271,8.6792-5.0384a47.0877,47.0877,0,0,1,8.94,1.5548s5.0837-3.5642,1.7645-7.0295S192.9709,256.6431,187.9179,262.4735Z"/><path class="af" d="M89.9663,261.6961s-3.4983,2.3322-2.7209,4.6644a8.1046,8.1046,0,0,0,2.7286,3.6966s6.2635-3.7442,10.5131-1.9712a14.34,14.34,0,0,1,6.2422,4.928s6.5273-1.1389,4.6-5.2566S98.9063,255.0883,89.9663,261.6961Z"/><path class="f" d="M112.5107,309.1171s25.654,4.6644,41.5906,4.2757a127.7957,127.7957,0,0,0,28.3748-3.887l8.5514,3.4983s-8.1627,5.8305-34.2054,6.9965-33.8166-1.9434-33.8166-1.9434l-21.3783-4.6644S106.68,313.3928,112.5107,309.1171Z"/><path class="ag" d="M156.6329,150.8487a2.9744,2.9744,0,1,0,.1779-.017,1.6177,1.6177,0,0,1-.1641-.9342Z"/><path class="ag" d="M161.7731,157.6017a3.1767,3.1767,0,0,0-3.1225,3.04,7.0735,7.0735,0,0,0,.813,3.0916c1.5428,3.9069,1.4724,8.2348,1.4407,12.4352-.0164,2.1676.162,4.6948,1.9525,5.9167a4.4466,4.4466,0,0,0,5.2239-.6447,10.34,10.34,0,0,0,2.7649-4.8581,20.7144,20.7144,0,0,0,.9362-9.7476,11.9151,11.9151,0,0,0-5.1353-8.1085A8.255,8.255,0,0,0,161.7731,157.6017Z"/><path class="ah" d="M109.379,64.2585c3.0539,4.396,8.2216,5.4812,13.2017,6.3144a159.0764,159.0764,0,0,0,22.3149,2.6078A83.0448,83.0448,0,0,0,165.7022,71.06a82.1665,82.1665,0,0,0,10.3136-3.1188c3.1773-1.1933,6.8163-2.4275,9.5238-4.4907.7577-.5774.3734-2.0234-.7068-1.6766-2.902.9317-5.6,2.5579-8.4434,3.6773a81.2012,81.2012,0,0,1-9.2728,3.0141,80.174,80.174,0,0,1-19.5119,2.5961,152.4432,152.4432,0,0,1-19.4325-1.4764c-5.8337-.6994-13.7589-.7691-17.5568-6.0486-.5311-.7383-1.7664-.04-1.2364.7226Z"/><path class="ai" d="M109.379,62.6347c3.0539,4.396,8.2216,5.4812,13.2017,6.3144a159.0914,159.0914,0,0,0,22.3149,2.6079,83.0449,83.0449,0,0,0,20.8066-2.1213,82.1665,82.1665,0,0,0,10.3136-3.1188c3.1773-1.1933,6.8163-2.4274,9.5238-4.4907.7577-.5774.3734-2.0234-.7068-1.6766-2.902.9317-5.6,2.5579-8.4434,3.6773a81.2012,81.2012,0,0,1-9.2728,3.0141,80.174,80.174,0,0,1-19.5119,2.5961,152.4432,152.4432,0,0,1-19.4325-1.4764c-5.8337-.6994-13.7589-.7691-17.5568-6.0486-.5311-.7383-1.7664-.04-1.2364.7226Z"/><path class="f" d="M136.4141,6.8355a14.6526,14.6526,0,0,1,11.4748-5.1921c4.6479.1892,8.0815,2.54,11.1319,5.8326.6966.7518,2.0368-.243,1.4407-1.1116-5.9025-8.6023-18.6779-8.1354-25.2181-.7-.7009.7969.4629,1.9713,1.1707,1.1707Z"/><path class="aj" d="M133.07,10.8137c2.3415,3.739,7.7661,4.4219,11.8178,4.6471A35.1358,35.1358,0,0,0,160.8752,12.46c1.1711-.5105.3165-2.5844-.8793-2.0855-8.0738,3.3686-18.5525,4.6595-26.2981-.1886a.462.462,0,0,0-.6275.6275Z"/><path class="ak" d="M187.8109,178.2184a40.6545,40.6545,0,0,1-80.824-2.6678,5.8019,5.8019,0,0,1-1.1656-.2188c1.3871,21.8911,19.5621,40.2511,41.7157,40.2511,21.166,0,38.6972-16.7607,41.4289-37.347A4.9575,4.9575,0,0,1,187.8109,178.2184Z"/><path class="al" d="M147.537,213.4581a41.8106,41.8106,0,1,1,41.8106-41.8106A41.8581,41.8581,0,0,1,147.537,213.4581Zm0-82.4757a40.6652,40.6652,0,1,0,40.6651,40.6651A40.7113,40.7113,0,0,0,147.537,130.9824Z"/><path class="am" d="M147.537,207.89a36.2424,36.2424,0,1,1,36.2421-36.2424A36.2838,36.2838,0,0,1,147.537,207.89Zm0-70.09a33.8473,33.8473,0,1,0,33.847,33.8473A33.8858,33.8858,0,0,0,147.537,137.8Z"/><path class="an" d="M147.537,206.3147a34.6672,34.6672,0,1,1,34.6669-34.6672A34.7068,34.7068,0,0,1,147.537,206.3147Zm0-67.0434a32.3762,32.3762,0,1,0,32.3759,32.3762A32.413,32.413,0,0,0,147.537,139.2713Z"/><path class="am" d="M148.2556,205.7983a40.2222,40.2222,0,0,1,.766,7.9309.1735.1735,0,0,0,.3468,0,34.2094,34.2094,0,0,0-.6382-8.0618c-.0633-.3109-.5343-.1785-.4746.1309Z"/><path class="am" d="M152.0943,205.6841c.19,2.4993.3837,5.0631.8055,7.5346.0377.2207.4.1693.39-.0527-.1179-2.5045-.4828-5.0481-.8329-7.531-.0289-.2046-.3784-.1579-.3626.0491Z"/><path class="am" d="M138.6,131.9a35.9945,35.9945,0,0,1,1.205,7.9428c.0093.3269.52.328.509,0a29.2846,29.2846,0,0,0-1.3095-8.0543.21.21,0,0,0-.4045.1115Z"/><path class="am" d="M142.0545,131.8276a14.1028,14.1028,0,0,0,1.0824,7.0411c.1213.2786.6087.0775.4958-.209a14.807,14.807,0,0,1-1.0468-6.8321c.03-.3415-.4991-.3372-.5314,0Z"/><path class="am" d="M109.1976,186.914c-.0287-.38,3.2945-1.5122,3.7884-1.7182,1.0008-.4173,2.0092-.819,2.9963-1.2678.234-.1063.0665-.5123-.1767-.4191-1.3236.5073-2.6227,1.0833-3.93,1.6322a9.5923,9.5923,0,0,0-2.8082,1.233c-.4346.44-.31,1.2317.4032.8256a.18.18,0,0,0,.08-.1976l-.0242-.1327a.1686.1686,0,0,0-.33.0446Z"/><path class="am" d="M110.3306,189.2036a15.7339,15.7339,0,0,1,3.1641-2.2078,34.2724,34.2724,0,0,1,3.6054-1.3671c.1154-.0448.1144-.2493-.032-.2362-2.5546.2276-5.1063,1.9122-6.9273,3.6212-.1268.1191.0613.3037.19.19Z"/><path class="am" d="M179.065,159.6227c1.94-.7011,3.8523-1.5512,5.741-2.381.2179-.0957.0595-.48-.1637-.3885-1.9081.7849-3.8469,1.5722-5.6979,2.4833-.1575.0775-.047.3468.1206.2862Z"/><path class="am" d="M179.74,162.5194c2.3167-1.4771,4.82-2.5574,7.1745-3.946a.118.118,0,0,0-.0905-.2147,32.3523,32.3523,0,0,0-7.2591,3.8613c-.1869.12-.014.42.1751.2994Z"/><path class="b" d="M88.3926,131C53.7179,158.7389,29.7291,197.5963,12.85,238.1957,7.9243,250.0426,3.92,262.1.0365,274.3138c-.2678.8422,1.0166,1.1738,1.3105.3613,14.9173-41.224,33.9051-82.6711,63.0178-115.9038A210.1375,210.1375,0,0,1,89.03,134.8607,5.5918,5.5918,0,0,1,88.3926,131Z"/><path class="ao" d="M.5793,275.8148a43.2656,43.2656,0,0,0,16.87,23.6178c.8806.63,1.7693-.8587.8554-1.4634A41.5573,41.5573,0,0,1,1.7766,275.4847a.6214.6214,0,0,0-1.1973.33Z"/><path class="ao" d="M18.0757,300.2274c11.0092-1.4364,21.9973-5.9871,32.04-10.5585a170.4406,170.4406,0,0,0,15.189-7.8431c4.9549-2.8866,10.1985-5.8844,14.5754-9.6108,1.24-1.0553-.3566-3.0394-1.7182-2.2269-4.742,2.83-9.1708,6.1732-13.9519,8.9683q-7.1616,4.1867-14.68,7.726c-5.046,2.3675-10.2094,4.4858-15.4511,6.38-5.3636,1.9385-10.9092,3.3664-16.2461,5.3685-.8807.33-.8581,1.94.2431,1.7963Z"/><path class="ao" d="M5.23,274.5087a33.3364,33.3364,0,0,0,6.7634,14.2846c2.7928,3.6007,7.1094,8.3351,11.6135,9.71a.7013.7013,0,0,0,.6775-1.1639c-1.7409-1.5079-3.89-2.4946-5.6976-3.95a34.73,34.73,0,0,1-5.4188-5.5036c-3.2847-4.1484-5.1376-8.722-6.7568-13.7032a.613.613,0,0,0-1.1812.3256Z"/><path class="ap" d="M5.2389,274.1207a376.9484,376.9484,0,0,1,24.6557-41.598q6.9935-10.2082,14.6722-19.9241C49.44,206.4392,55.0443,200.764,59.7386,194.49c.52-.695-.5712-1.44-1.16-.8947-5.8753,5.4472-10.8708,12.3437-15.8145,18.6315q-7.3068,9.2935-14.0082,19.0416a356.6249,356.6249,0,0,0-24.85,42.0727c-.4435.8846.88,1.6665,1.333.7792Z"/><path class="aq" d="M58.5355,190.2983a3.2745,3.2745,0,0,0,1.7806,4.571,2.9905,2.9905,0,0,0,3.8876-2.5857,3.1327,3.1327,0,0,0-2.7353-3.7615c-1.5924-.1436-4.11,1.0683-3.7054,3a.3628.3628,0,0,0,.6029.1592c.7373-.8818,1.3091-1.7939,2.5714-1.9013a1.8179,1.8179,0,0,1,2.0316,1.9154c-.0118,1.0165-.7237,2.223-1.8915,2.039a1.9979,1.9979,0,0,1-1.4407-2.7929.6381.6381,0,0,0-1.1012-.6436Z"/><path class="ap" d="M81.4811,168.718c-2.9461,2.8143-5.6458,6.05-8.3868,8.9614-3.3,3.5047-7.3122,6.8778-10.0279,10.85-.2847.4163.2931,1.02.7118.7117,4.0125-2.9549,7.38-7.2518,10.89-10.7833,2.5182-2.5336,5.288-5.0613,7.7655-7.7544A4.7731,4.7731,0,0,1,81.4811,168.718Z"/><path class="aq" d="M12.5741,260.7772c3.6584,9.66,9.3654,20.1557,17.34,26.9652a.2127.2127,0,0,0,.3006-.3006c-3.433-4.1391-7.0442-7.9525-9.9793-12.5039A76.4421,76.4421,0,0,1,13.06,260.6434c-.114-.3-.6005-.17-.4854.1338Z"/><path class="aq" d="M30.5711,287.1822a15.9071,15.9071,0,0,0,13.4118-3.9572c.263-.2311-.1216-.6121-.3836-.3836-3.7587,3.2771-8.09,4.3135-12.9747,3.9453a.2022.2022,0,0,0-.0535.3955Z"/><path class="aq" d="M22.2865,240.7314A118.6871,118.6871,0,0,0,42.6152,282.86c.2878.3781.9382.0085.6472-.3782a123.9761,123.9761,0,0,1-20.663-41.8361.1624.1624,0,0,0-.3129.0862Z"/><path class="f" d="M41.15,261.2648a3.2624,3.2624,0,0,0,.9853,4.7628c1.7015,1.01,3.5286-.1918,3.9943-1.9463.4715-1.776-.5207-3.8247-2.554-3.755-1.822.0625-3.9742,2.0725-3.0884,3.9848a.2112.2112,0,0,0,.3908-.1058,2.9926,2.9926,0,0,1,2.6976-3.41c1.7479-.0818,2.5209,1.6827,2.1369,3.1709-.3864,1.4972-1.8892,2.5834-3.3769,1.7187a2.96,2.96,0,0,1-.98-4.2146c.117-.1433-.085-.35-.2057-.2056Z"/><path class="f" d="M46.2242,261.5085c10.8879-7.2657,22.0937-14.5023,32.2857-22.7307.2115-.1707-.0657-.53-.2914-.3778-10.8844,7.35-21.3279,15.359-32.24,22.6884-.2585.1736-.016.5947.2456.42Z"/><path class="aq" d="M14.5147,264.1257a38.5435,38.5435,0,0,1,11.0116-14.2724c.1987-.1551-.08-.4295-.2768-.2769A33.134,33.134,0,0,0,14.2642,264.02c-.0526.1448.1831.2456.25.1056Z"/><path class="aq" d="M.9489,275.4128l2.7024-.8054a11.4774,11.4774,0,0,0,2.3641-.791.18.18,0,0,0-.09-.3335,11.4894,11.4894,0,0,0-2.4015.6614l-2.6921.8424a.2211.2211,0,0,0,.1174.4261Z"/><path class="aq" d="M59.9431,189.0826A48.595,48.595,0,0,1,57.5357,166.64a4.1214,4.1214,0,0,1-.5642.4223,43.85,43.85,0,0,0,2.47,22.1586C59.56,189.528,60.056,189.4017,59.9431,189.0826Z"/><path class="b" d="M296.5106,274.3138c-13.4458-42.2837-32.0178-83.4217-61.3269-117.2418a206.4648,206.4648,0,0,0-27.2841-26.28c-1.6962-1.3522-4.1218,1.0374-2.4086,2.4086,34.6112,27.7021,58,65.9312,75.4638,106.151,5.0437,11.6157,9.9358,23.4138,14.2452,35.3231.2936.8112,1.5789.4824,1.3106-.3613Z"/><path class="ao" d="M294.77,275.4847a41.5574,41.5574,0,0,1-16.5284,22.4845c-.913.604-.0261,2.0942.8553,1.4634a43.2643,43.2643,0,0,0,16.87-23.6178.6214.6214,0,0,0-1.1974-.33Z"/><path class="ao" d="M278.7144,298.4311c-5.18-1.9432-10.5618-3.3325-15.7723-5.1988-5.4049-1.936-10.7272-4.1113-15.9248-6.55q-7.2828-3.4169-14.2461-7.4722c-4.9359-2.8667-9.4993-6.306-14.386-9.2221-1.3478-.8042-2.97,1.1611-1.7183,2.2269,4.2538,3.6216,9.335,6.5362,14.1417,9.3563a170.2451,170.2451,0,0,0,15.6227,8.0976c10.0422,4.5712,21.0311,9.1221,32.04,10.5585,1.0912.1424,1.133-1.4625.2431-1.7963Z"/><path class="ao" d="M290.1363,274.1831c-1.6192,4.9811-3.4675,9.5558-6.7569,13.7032a34.308,34.308,0,0,1-5.0828,5.2263c-1.9074,1.5646-4.1856,2.6264-6.0336,4.2271a.7014.7014,0,0,0,.6776,1.1639c4.5126-1.3778,8.8107-6.1074,11.6134-9.71a33.281,33.281,0,0,0,6.7634-14.2846.613.613,0,0,0-1.1811-.3256Z"/><path class="ap" d="M292.6411,273.3415a357.191,357.191,0,0,0-24.8505-42.0727q-6.6918-9.7455-14.0082-19.0416c-4.9438-6.288-9.9393-13.1844-15.8144-18.6315-.5822-.54-1.6847.193-1.16.8947,4.6946,6.2739,10.2988,11.9485,15.1718,18.1082q7.6774,9.7044,14.6722,19.9241a376.9484,376.9484,0,0,1,24.6557,41.598c.4528.8863,1.777.1062,1.333-.7792Z"/><path class="aq" d="M236.91,190.9419a1.9983,1.9983,0,0,1-1.4408,2.7929c-1.1659.1837-1.88-1.0217-1.8914-2.039A1.8149,1.8149,0,0,1,235.61,189.78c1.2559.1069,1.8362,1.0221,2.5713,1.9013a.3629.3629,0,0,0,.603-.1592c.3944-1.8832-2.0291-3.1111-3.6-3.0121a3.138,3.138,0,0,0-2.84,3.7732,3.0005,3.0005,0,0,0,3.7855,2.6224,3.278,3.278,0,0,0,1.8826-4.6077.6381.6381,0,0,0-1.1011.6436Z"/><path class="ap" d="M233.4806,188.5289c-2.7172-3.9739-6.7269-7.3438-10.0278-10.85-3.5319-3.7508-6.9915-8.0525-11.0035-11.2787-.6035-.4853-1.7456.1678-1.186.915,3.0177,4.029,7.07,7.5746,10.6158,11.1417,3.51,3.5311,6.88,7.8306,10.89,10.7832.4185.3082.9964-.2953.7117-.7117Z"/><path class="aq" d="M283.4875,260.6434a76.4417,76.4417,0,0,1-7.1757,14.2945c-2.9351,4.5514-6.5464,8.3648-9.9793,12.5039a.2127.2127,0,0,0,.3.3006c7.9764-6.8111,13.6806-17.3023,17.34-26.9652.1149-.3034-.3712-.434-.4854-.1338Z"/><path class="aq" d="M265.9224,286.7867c-4.88.3678-9.2093-.6623-12.9746-3.9453-.262-.2284-.6468.1524-.3837.3836a15.9088,15.9088,0,0,0,13.4118,3.9572.2022.2022,0,0,0-.0535-.3955Z"/><path class="aq" d="M273.9477,240.6452a123.9807,123.9807,0,0,1-20.663,41.8361c-.2907.3863.3591.7567.6471.3782a118.6871,118.6871,0,0,0,20.3287-42.1281.1623.1623,0,0,0-.3128-.0862Z"/><path class="f" d="M255.191,261.47a2.96,2.96,0,0,1-.98,4.2146c-1.4877.8647-2.9906-.2215-3.377-1.7187-.384-1.4882.389-3.2527,2.137-3.1709a2.9926,2.9926,0,0,1,2.6975,3.41.2112.2112,0,0,0,.3909.1058c.8855-1.9118-1.2657-3.9222-3.0884-3.9848-2.0336-.07-3.0257,1.9785-2.5541,3.755.4656,1.7539,2.2932,2.9557,3.9943,1.9463a3.2619,3.2619,0,0,0,.9853-4.7628c-.1207-.1443-.3227.0623-.2056.2056Z"/><path class="f" d="M250.5684,261.0884c-10.9119-7.3294-21.3555-15.3388-32.24-22.6884-.2233-.1507-.5052.2052-.2915.3778,10.1919,8.2283,21.3979,15.465,32.2857,22.7307.2614.1745.5044-.2463.2456-.42Z"/><path class="aq" d="M282.2828,264.02a33.1326,33.1326,0,0,0-10.9852-14.4437c-.1965-.1526-.4756.1218-.2769.2769a38.5372,38.5372,0,0,1,11.0116,14.2724c.0667.1384.3037.0408.25-.1056Z"/><path class="aq" d="M295.7156,274.9867l-2.6922-.8424a11.4877,11.4877,0,0,0-2.4015-.6614.18.18,0,0,0-.09.3335,11.4794,11.4794,0,0,0,2.3641.791l2.7024.8054a.2211.2211,0,0,0,.1175-.4261Z"/><path class="aq" d="M239.0857,167.2709a48.4267,48.4267,0,0,1-2.4817,21.8117c-.1129.3186.3832.4459.5016.1382a43.9608,43.9608,0,0,0,2.5608-21.4927A4.9217,4.9217,0,0,1,239.0857,167.2709Z"/><path class="ar" d="M135.2888,7.222c7.1355,3.2482,16.1381,3.7649,23.3072.2659a.2444.2444,0,0,0-.1874-.4447c-7.7832,2.6272-15.2515,2.9937-22.956-.21-.22-.0916-.3828.2888-.1638.3885Z"/><path class="as" d="M194.0692,312.69c-30.7293,9.43-63.9451,8.4212-94.58-.8616a5.47,5.47,0,0,1-1.326,2.4361c-.0412.0448-.0943.0735-.1372.116,31.2879,9.6221,65.3819,10.7143,96.8046,1.071C196.5873,314.9122,195.838,312.147,194.0692,312.69Z"/><path class="f" d="M23.9991,346.2475c10.2566-13.63,19.5-27.8561,30.8767-40.6411a297.123,297.123,0,0,1,36.3908-34.5479c.6619-.53-.2275-1.7007-.915-1.1859a225.5215,225.5215,0,0,0-36.7253,35.1663c-10.83,12.8428-21.6384,26.3828-30.0619,40.9545-.1666.2882.245.5062.4347.2541Z"/><path class="f" d="M23.775,346.0352c.2894,6.3183,2.652,12.8719,4.9413,18.7105a156.9094,156.9094,0,0,0,8.7229,18.1621c7.2149,13.138,14.8518,26.0547,22.2956,39.0641a.8228.8228,0,0,0,1.42-.83c-7.2227-12.5455-14.5731-25.029-21.6182-37.6752-3.158-5.6689-6.1789-11.4233-8.77-17.376-2.868-6.5877-4.4146-13.28-6.3648-20.14a.32.32,0,0,0-.6262.0847Z"/><path class="f" d="M61.2553,422.9a19.1293,19.1293,0,0,0,10.1038,4.8547c3.2717.5537,7.7981.8026,10.7061-1.055a1.0149,1.0149,0,0,0-.5081-1.8761c-3.3138.0753-6.3321,1.091-9.7315.6383a27.27,27.27,0,0,1-9.7976-3.5633c-.6155-.3522-1.3161.4989-.7727,1.0014Z"/><path class="at" d="M83.128,426.2524c-.4673-11.1773-1.5605-22.3378-2.2806-33.5066-.72-11.1749-1.0128-22.39-1.8238-33.5553-.0541-.7451-1.1856-.7646-1.1746,0,.1617,11.1779,1.08,22.403,1.8212,33.5553.7424,11.1749,1.3769,22.4053,2.8537,33.5066.05.3719.6208.4.6041,0Z"/><path class="at" d="M77.0287,360.3529c8.2144-19.683,16.94-39.2016,27.8874-57.5493a.7165.7165,0,0,0-1.2364-.7227c-10.3417,18.7507-20.1186,37.8876-27.4276,58.0579-.18.4961.5823.68.7766.2141Z"/><path class="at" d="M107.1364,273.251a103.0506,103.0506,0,0,0-3.0353,29.2674c.0171.6326,1.0065.6341.9844,0a130.71,130.71,0,0,1,2.6334-29.1068c.0714-.377-.4805-.5412-.5825-.1606Z"/><path class="au" d="M89.5263,270.62c6.4572-2.8111,13.4628-3.1453,17.4289,3.5187a.4551.4551,0,0,0,.8281-.3491c-2.5356-7.8231-12.904-6.5777-18.5506-3.6719-.3394.1747-.0413.6481.2936.5023Z"/><path class="au" d="M56.5223,356.6767c1.636-3.7233,2.7892-7.64,4.4195-11.3747,1.6285-3.73,3.4431-7.3681,5.2846-10.9966a207.9159,207.9159,0,0,1,12.2-20.7183c4.4669-6.7386,9.2472-13.2646,14.1775-19.67q3.8189-4.9614,7.7443-9.84c2.5224-3.1513,5.3854-6.1921,7.5886-9.5731.8548-1.3118-1.0631-2.7414-2.1435-1.6538-2.98,3-5.4786,6.6458-8.105,9.9589q-3.5015,4.4167-6.9368,8.8854c-5.1179,6.6747-10.0807,13.4737-14.703,20.5028a199.6879,199.6879,0,0,0-12.2748,21.24c-1.7024,3.4472-3.1879,7.0164-4.5617,10.6064a72.1114,72.1114,0,0,0-3.9574,12.0986c-.1342.7123.9293,1.3044,1.2676.5345Z"/><path class="au" d="M54.6193,356.3392c.452,5.8442,2.42,11.7709,4.0379,17.3817,1.78,6.1733,3.7215,12.2694,5.996,18.2807,4.3336,11.4534,9.3582,23.2387,15.9153,33.614a1.1867,1.1867,0,0,0,2.0477-1.197C76.8307,413.378,71.02,402.6152,66.49,390.958c-2.1332-5.489-4.1441-11.0671-5.8544-16.7031-1.8039-5.944-2.8389-12.2308-4.94-18.0614-.1953-.5419-1.1276-.512-1.0767.1457Z"/><path class="f" d="M24.2934,346.8911a55.1684,55.1684,0,0,0,14.8985,7.552,65.3385,65.3385,0,0,0,7.8825,2.13c2.4367.5055,5.494,1.4727,7.9291.701a1.45,1.45,0,0,0,.3421-2.6171c-2.1331-1.2344-4.9012-1.1188-7.3021-1.5992-2.5047-.5012-4.9756-1.1484-7.4225-1.879a117.2221,117.2221,0,0,1-15.2888-6.0655,1.03,1.03,0,0,0-1.0388,1.7773Z"/><path class="at" d="M114.16,283.98c1.0722-7.2886.9169-14.4758-4.3664-20.1429-4.3077-4.62-11.1708-6.9921-17.245-4.6527-6.1072,2.352-11.4054,9.2428-9.9309,16.01a.8427.8427,0,0,0,1.6479-.223c-.2268-7.4411,4.8616-14.4562,12.8077-14.5676,7.1215-.1,13.5344,5.7811,14.9595,12.5849,1.6542,7.8966-2.1507,15.7914-1.319,23.7369.4266,4.0766,2.439,8.3529-.6359,11.93-2.709,3.1511-7.0718,3.1163-10.3.9644a5.08,5.08,0,0,1-1.2937,2.8074c5.1155,3.2147,11.8636,1.815,14.709-3.9176,1.5885-3.2,1.0061-6.344.3245-9.6893C112.4989,293.82,113.4284,288.951,114.16,283.98Z"/><path class="f" d="M30.3487,366.2611a17.2991,17.2991,0,0,0,11.628,4.6334.2686.2686,0,0,0,0-.5369,18.85,18.85,0,0,1-11.4421-4.2823c-.1294-.1013-.3117.0657-.1859.1858Z"/><path class="f" d="M41.7007,371.0587a266.2632,266.2632,0,0,1,12.3868,24.9688.2868.2868,0,1,0,.5265-.222,175.2225,175.2225,0,0,0-12.58-24.9416.1931.1931,0,0,0-.3333.1948Z"/><path class="f" d="M43.5705,392.6353a18.6173,18.6173,0,0,0,11.009,3.0086c.3952-.012.3966-.6286,0-.6153a20.4962,20.4962,0,0,1-10.8142-2.7265.1931.1931,0,0,0-.1948.3332Z"/><path class="f" d="M269.6893,345.9934c-8.4226-14.57-19.2287-28.1158-30.0619-40.9545a225.7733,225.7733,0,0,0-36.7252-35.1663c-.68-.5092-1.5842.65-.9151,1.1859a297.1239,297.1239,0,0,1,36.3909,34.5479c11.3765,12.7849,20.62,27.0113,30.8767,40.6411.1894.2518.6014.0344.4346-.2541Z"/><path class="f" d="M268.8526,345.9505c-1.8631,6.5538-3.316,12.971-6.0013,19.2854a192.2108,192.2108,0,0,1-9.134,18.2308c-7.0451,12.6462-14.3955,25.13-21.6183,37.6752a.8228.8228,0,0,0,1.42.83c7.4439-13.0093,15.0808-25.9261,22.2956-39.0641a158.5806,158.5806,0,0,0,8.535-17.6893c2.373-5.9715,4.8326-12.7059,5.1293-19.1833a.32.32,0,0,0-.6262-.0847Z"/><path class="au" d="M231.2258,421.8983a27.171,27.171,0,0,1-9.7977,3.5633c-3.3907.4446-6.4226-.5631-9.7314-.6383a1.015,1.015,0,0,0-.5082,1.8761c2.9115,1.86,7.4294,1.6095,10.7062,1.055A19.139,19.139,0,0,0,231.9984,422.9c.5384-.4978-.1512-1.357-.7726-1.0014Z"/><path class="at" d="M210.73,426.2524c1.4769-11.1014,2.1113-22.3316,2.8538-33.5066.7409-11.1524,1.6594-22.3774,1.8211-33.5553.0111-.7633-1.12-.7463-1.1746,0-.811,11.1653-1.1032,22.38-1.8238,33.5553-.72,11.1688-1.8132,22.3294-2.2806,33.5066-.0166.3992.5546.3725.6041,0Z"/><path class="at" d="M217.0017,360.1388c-7.309-20.17-17.086-39.3072-27.4276-58.0579a.7165.7165,0,0,0-1.2364.7227c10.9477,18.3477,19.6729,37.8662,27.8873,57.5493.194.4649.9568.2829.7767-.2141Z"/><path class="at" d="M185.5349,273.4116a130.6976,130.6976,0,0,1,2.6333,29.1068c-.022.6331.9674.6337.9844,0a103.0459,103.0459,0,0,0-3.0353-29.2674c-.1018-.38-.654-.2171-.5824.1606Z"/><path class="at" d="M204.021,270.1177c-5.65-2.9077-16.0142-4.1534-18.55,3.6719a.4551.4551,0,0,0,.8281.3491c3.9714-6.6728,10.98-6.3261,17.4288-3.5187.3347.1456.6334-.3274.2936-.5023Z"/><path class="au" d="M237.9991,356.1422c-1.4249-7.5672-4.9554-15.36-8.3025-22.2662a192.2282,192.2282,0,0,0-12.4915-21.6788c-4.5314-6.8909-9.39-13.5608-14.4016-20.109q-3.5762-4.6729-7.2381-9.2792c-2.6247-3.3109-5.1277-6.9617-8.1051-9.9589-1.07-1.0769-3.0065.3293-2.1434,1.6538,2.1144,3.2449,4.8569,6.1639,7.279,9.1868q4.07,5.0792,8.0539,10.2262c4.9308,6.4051,9.7106,12.9317,14.1775,19.67a207.9466,207.9466,0,0,1,12.2,20.7183c1.7677,3.4831,3.5145,6.9741,5.089,10.55,1.7082,3.8795,2.9137,7.9493,4.615,11.8215.3353.763,1.4032.1853,1.2677-.5345Z"/><path class="au" d="M237.5578,356.1935c-2.0422,5.6683-3.0528,11.7806-4.79,17.563-1.7443,5.8069-3.8081,11.5508-6.0041,17.2015-4.53,11.6574-10.3408,22.42-16.1264,33.4606a1.1867,1.1867,0,0,0,2.0478,1.197c6.5571-10.3754,11.5816-22.1606,15.9152-33.614,2.2133-5.8495,4.1052-11.778,5.8508-17.781,1.6763-5.765,3.7184-11.8725,4.1832-17.8814.05-.6519-.88-.693-1.0767-.1457Z"/><path class="f" d="M267.9215,345.1138a117.2208,117.2208,0,0,1-15.2887,6.0655c-2.447.7306-4.9178,1.3778-7.4225,1.879-2.4009.48-5.169.3648-7.3021,1.5992a1.4492,1.4492,0,0,0,.342,2.6171c2.321.7355,5.0948-.1338,7.4286-.6008a65.7163,65.7163,0,0,0,8.3831-2.2307,55.1885,55.1885,0,0,0,14.8985-7.552,1.03,1.03,0,0,0-1.0389-1.7773Z"/><path class="at" d="M202.7184,260.157c-5.4981-3.1956-12.3512-2.06-17.21,1.7952-6.0081,4.7671-7.6175,11.8493-6.7906,19.194.491,4.359,1.5382,8.674,1.5165,13.079-.02,4.0082-1.9806,8.0816-.9911,12.08a10.1679,10.1679,0,0,0,15.3021,6.2569,6.2324,6.2324,0,0,1-.7186-.5637,4.3523,4.3523,0,0,1-1.1567-1.893,7.5855,7.5855,0,0,1-9.4936-1.45c-2.9779-3.403-1.1976-7.532-.7022-11.4312,1.0305-8.1152-2.9409-16.1743-1.2527-24.2352,1.3984-6.6772,7.5913-12.4631,14.5627-12.589,8.1126-.1465,13.4353,6.9973,13.2044,14.5717a.8428.8428,0,0,0,1.6481.223C211.9652,269.0959,207.8,263.1109,202.7184,260.157Z"/><path class="f" d="M262.7192,366.0753a18.8452,18.8452,0,0,1-11.4422,4.2823.2686.2686,0,0,0,0,.5369,17.2972,17.2972,0,0,0,11.6281-4.6334c.1257-.12-.0565-.2871-.1859-.1858Z"/><path class="f" d="M251.22,370.8639a175.212,175.212,0,0,0-12.58,24.9416.2868.2868,0,1,0,.5265.222,266.2625,266.2625,0,0,1,12.3867-24.9688.1931.1931,0,0,0-.3332-.1948Z"/><path class="f" d="M249.4885,392.3021a20.4775,20.4775,0,0,1-10.8143,2.7265c-.3959-.0133-.3957.6033,0,.6153a18.6184,18.6184,0,0,0,11.0091-3.0086.1931.1931,0,0,0-.1948-.3332Z"/><path class="aq" d="M84.3948,347.4054c9.4967,4.2187,20.5841,6.1062,30.8013,7.6873A226.8824,226.8824,0,0,0,146.5,357.7508a224.1737,224.1737,0,0,0,32.0165-1.8136q7.5065-.9684,14.9378-2.4239c5.4-1.0663,11.2086-1.9975,16.34-4.0242a1.3884,1.3884,0,0,0-.7375-2.6752c-5.1619.8557-10.2358,2.5264-15.3762,3.5721q-8.0491,1.6375-16.2081,2.67a224.22,224.22,0,0,1-30.4466,1.7176,221.2522,221.2522,0,0,1-31.0438-2.5309c-5.2026-.8-10.3815-1.7434-15.52-2.8858-5.118-1.1379-10.2264-2.6775-15.3858-3.5667-.9008-.1552-1.67,1.1761-.681,1.6152Z"/><path class="f" d="M116.7131,289.7742c-2.3313,1.2653-1.2735,4.9469.3618,6.32a4.0051,4.0051,0,0,0,6.08-1.3395,4.3132,4.3132,0,0,0-1.75-6.2244c-2.06-.8955-5.6542-.22-6.0738,2.3838a.4063.4063,0,0,0,.6731.3918c1.1812-1.0722,2.5468-1.9443,4.218-1.518a2.6381,2.6381,0,0,1,1.654,3.8634c-.7024,1.4868-2.484,2.3016-3.8084,1.0427-1.2663-1.2037-1.0564-2.5851-.451-4.0162.246-.5817-.2748-1.244-.903-.9031Z"/><path class="f" d="M121.98,292.6523a65.3882,65.3882,0,0,0,49.8329,2.27c.9677-.35.5487-1.909-.4282-1.5533a64.966,64.966,0,0,1-48.7836-1.78c-.7133-.3211-1.342.7251-.6211,1.0625Z"/><path class="f" d="M172.2771,288.9526c-1.9647,1.6872-2.4371,4.9744-.36,6.7923a3.29,3.29,0,0,0,5.397-1.39c.6378-1.847.6592-5.6415-1.3084-6.7139-1.6414-.8947-5.2487.4673-5.28,2.5235a.4854.4854,0,0,0,.481.481c1.21-.0558,1.95-1.25,3.1024-1.5462,1.7983-.4626,1.74,2.3178,1.6254,3.511-.1336,1.3843-1.095,3.0539-2.6853,1.9937-1.7906-1.1936-.7632-3.4312-.0228-4.9191a.6069.6069,0,0,0-.9487-.7321Z"/><path class="aq" d="M79.3421,358.5118c8.285,3.3819,17.6788,5.0636,26.4609,6.606a235.53,235.53,0,0,0,79.1981.3777A233.4334,233.4334,0,0,0,215.13,358.412c.7278-.2223.417-1.3682-.3152-1.1434a234.0878,234.0878,0,0,1-106.1324,7.2285q-7.2532-1.1859-14.43-2.7989c-4.9426-1.1169-9.82-2.6578-14.789-3.6286a.23.23,0,0,0-.1219.4422Z"/><path class="aq" d="M89.6683,361.5127c.4355-3.99.5076-8.0463.7092-12.0543.0265-.5262-.7858-.5225-.8166,0-.2362,4.0037-.6078,8.0432-.6085,12.0543,0,.4709.6671.4478.7159,0Z"/><path class="aq" d="M91.34,347.7735q8.6749-15.9031,18.1108-31.3075c.2874-.4687-.4405-.8887-.7341-.4291a345.4626,345.4626,0,0,0-17.85,31.46c-.1565.3133.3031.5888.4733.2767Z"/><path class="aq" d="M201.4005,350.171a47.007,47.007,0,0,1,.7768,10.18c-.0747,1.0446,1.5788,1.0511,1.6333,0a24.9738,24.9738,0,0,0-1.31-10.4831.571.571,0,0,0-1.1.3033Z"/><path class="aq" d="M184.3855,317.1364c4.65,4.1177,7.0061,10.0022,9.6224,15.49,3.0255,6.3457,5.8842,12.6271,8.4689,19.1541.0961.2428.5453.2452.5054-.0684-.3775-2.9659-1.7338-5.7711-2.9917-8.4584-1.6481-3.5209-3.3753-7.0068-5.0829-10.499-2.7715-5.6677-5.25-11.7946-10.1187-16.0212-.2755-.2393-.68.1588-.4034.4034Z"/><path class="aq" d="M143.7552,367.2177a13.481,13.481,0,0,1-.0967-2.9009c.08-.9671.4076-1.8886.4759-2.8478a.203.203,0,0,0-.3753-.1016c-.9678,1.6526-.8165,4.1029-.52,5.92.0471.2891.5556.2243.5163-.07Z"/><path class="aq" d="M144.0054,361.4563a104.6771,104.6771,0,0,0,15.2723.5418c1.4315-.035,6.26-.9568,7.1251.1.3044.3722.0373,2.4131.079,2.8827a23.2109,23.2109,0,0,0,.4753,2.9662c.1224.5544.9362.3131.8413-.232a27.9584,27.9584,0,0,1-.43-6.5773.4613.4613,0,0,0-.4588-.4588c-7.6751.4926-15.228.3238-22.9037.1058-.4428-.0125-.4162.62,0,.6712Z"/><path class="aq" d="M130.0879,320.1923c-.593,3.854-1.5919,8.1931-1.3778,12.082a.3035.3035,0,0,0,.5933.08c1.0846-3.755,1.082-8.1951,1.3668-12.0835.0241-.3287-.5313-.4106-.5823-.0788Z"/><path class="aq" d="M128.1805,333.5461c5.8327,3.4863,13.4368,4.0575,19.9518,2.5406.5839-.136.3355-1.0186-.2468-.8954-6.9111,1.4627-12.9893.3236-19.4378-2.279-.3724-.15-.5944.4383-.2672.6338Z"/><path class="aq" d="M148.8567,336.3633c.7226-4.9207.7713-10.0077,1.09-14.9689.03-.4744-.7079-.4726-.7383,0-.3174,4.9335-.9243,9.96-.8356,14.9035.0048.2651.4417.35.4835.0654Z"/><path class="aq" d="M149.7476,329.6643a12.1893,12.1893,0,0,0,2.3252-.1165.13.13,0,0,0,0-.2481,12.1975,12.1975,0,0,0-2.3252-.1164.2406.2406,0,0,0,0,.481Z"/><path class="aq" d="M150.83,329.63a32.6162,32.6162,0,0,0,12.79.2768c.5225-.0914.3027-.8939-.22-.7982a31.5006,31.5006,0,0,1-12.3767-.18c-.4559-.0969-.6514.6-.1933.7012Z"/><path class="aq" d="M164.4969,329.5412a12.9413,12.9413,0,0,0-.568-8.8361c-.1935-.4723-.9714-.2681-.7767.2142a15.1989,15.1989,0,0,1,.73,8.4524.3191.3191,0,0,0,.6149.17Z"/><path class="ak" d="M217.14,212.793c-10.445,17.576-32.0172,24.5063-51.3131,26.5426-21.3514,2.2533-44.0006-.2513-64.004-8.2178-8.5508-3.4054-17.6741-8.0875-23.2256-15.6923-.5456-.7473-1.8061-.0275-1.2557.734,4.84,6.6969,12.1943,11.3864,19.5812,14.8237a118.5777,118.5777,0,0,0,30.6147,9.0757c22.0852,3.67,46.3151,3.374,67.1459-5.6938,9.4256-4.1031,17.9334-10.3444,23.5681-18.9709A5.1353,5.1353,0,0,1,217.14,212.793Z"/><path class="f" d="M217.14,211.4266c-10.445,17.5759-32.0172,24.5062-51.3131,26.5426-21.3514,2.2533-44.0006-.2513-64.004-8.2178-8.5508-3.4055-17.6741-8.0875-23.2256-15.6923-.5456-.7473-1.8061-.0276-1.2557.734,4.84,6.6969,12.1943,11.3864,19.5812,14.8236a118.5779,118.5779,0,0,0,30.6147,9.0758c22.0852,3.67,46.3151,3.374,67.1459-5.6939,9.4256-4.103,17.9334-10.3443,23.5681-18.9708A5.1357,5.1357,0,0,1,217.14,211.4266Z"/><path class="f" d="M174.621,74.2752c5.5446,18.9086,11.27,37.6544,15.6267,56.8924q6.57,29.0093,10.3888,58.5532,2.1435,16.5319,3.4113,33.1582c.0288.3706.61.3742.5817,0a625.8127,625.8127,0,0,0-19.9371-116.2461c-2.9417-10.879-5.97-21.8294-9.8125-32.4291-.058-.16-.3082-.0968-.2589.0714Z"/><path class="f" d="M205.4863,230.8885c.1813,5.7382.46,11.4574.4114,17.2015-.0482,5.7367-.6372,11.4642-.674,17.191-.001.1555.2554.2008.28.0379a120.6848,120.6848,0,0,0,.8639-16.6737,172.6906,172.6906,0,0,0-.5458-17.7567c-.0195-.2112-.3425-.2193-.3356,0Z"/><path class="f" d="M134.5355,6.336C115.3617,37.6505,102.5587,72.39,93.39,107.8237a563.6489,563.6489,0,0,0-17.3719,107.25c-1.2543,21.1547-1.1319,42.4117,2.2528,63.3761.293,1.8147,3.053,1.0446,2.7615-.7613-5.9006-36.5473-2.4025-74.3225,3.222-110.6757C89.6864,131.9057,97.77,97.0438,110.0774,63.6757A318.1094,318.1094,0,0,1,137.0083,7.7813c.965-1.576-1.5109-3.0163-2.4728-1.4453Z"/><path class="f" d="M158.6511,7.7813c18.0232,30.4746,30.7107,63.6885,39.7514,97.8529,4.547,17.1831,8.2095,34.5913,11.2979,52.0924,3.2752,18.5594,5.9847,37.16,7.0852,55.9878a334.7257,334.7257,0,0,1-2.4849,66.21c-.2538,1.8024,2.5051,2.5815,2.7615.7613,5.4412-38.6368,3.1713-77.3009-3.2186-115.6592-5.9-35.4171-13.9662-70.6252-26.7171-104.2529A351.9092,351.9092,0,0,0,161.1238,6.336a1.4329,1.4329,0,0,0-2.4727,1.4453Z"/><path class="av" d="M137.776,13.7076S124.9039,37.61,111.5848,86.6481c-14.9678,55.11-20.9589,112.673-19.2133,169.6879,3.4718-1.5037,7.2579-3.0387,10.9321-2.1362a14.8575,14.8575,0,0,1,5.7014,3.2363,25.09,25.09,0,0,1,8.4117,12.5864c.8639,3.1789-.5463,11.0342,2.644,12.7744,0,0,13.3189,7.2648,21.189,7.2648h16.3458S153.3577,145.9764,149.12,84.831s-6.6594-68.41-6.6594-68.41Z"/></g></svg>