<svg xmlns="http://www.w3.org/2000/svg" viewBox="0 0 289.7151 220.9439"><defs><style>.a{fill:#6d6e71;}.b{fill:#58595b;}.c{fill:#27aae1;}.d{fill:#bcbec0;}.e{fill:#fcb125;}.f{fill:#f15a29;}.g{fill:#2390bf;}.h{fill:#44ade2;}.i{fill:#4f5052;}.j{fill:#9fa1a4;}.k{fill:#cf931e;}.l{fill:#c74a20;}.m{fill:#1c7ba3;}.n{fill:#e6e7e8;}</style></defs><path class="a" d="M206.5139,57.7793c2.2227-7.65,9.9922-25.0274,28.2793-39.4434a13.7808,13.7808,0,0,1-.5977-3.9922,14.7548,14.7548,0,0,1,29.4981,0,14.5368,14.5368,0,0,1-14.7481,14.3438,14.8905,14.8905,0,0,1-11.7148-5.6426c-6.502,6.5039-16.4473,22.9727-24.1426,49.0762l-.1679.0469a46.5453,46.5453,0,0,0-6.6446-14.2208Z"/><polygon class="b" points="272.85 173.72 281.815 165.352 272.85 155.79 264.483 159.974 272.85 173.72"/><polygon class="b" points="254.92 182.681 266.873 176.704 259.701 163.556 248.945 167.743 254.92 182.681"/><polygon class="b" points="237.59 191.645 249.543 186.267 244.164 170.727 232.809 175.509 237.59 191.645"/><polygon class="a" points="272.85 173.72 281.815 165.352 272.85 155.79 269.949 157.239 276.436 164.157 270.438 169.755 272.85 173.72"/><polygon class="a" points="254.92 182.681 266.873 176.704 259.701 163.556 255.803 165.075 261.494 175.509 253.625 179.446 254.92 182.681"/><polygon class="a" points="237.59 191.645 249.543 186.267 244.164 170.727 239.83 172.556 244.164 185.071 236.645 188.454 237.59 191.645"/><path class="a" d="M223.2463,220.9306c8.5352-.5234,9.9219-16.2812,10.1367-19.6757a163.595,163.595,0,0,1-33.1093.4336C202.4494,204.7939,214.5705,221.4814,223.2463,220.9306Z"/><path class="b" d="M200.2737,201.6885c2.1757,3.1054,14.2968,19.7929,22.9726,19.2421a7.5615,7.5615,0,0,0,5.7442-3.6328c-6.4942-.3593-14.584-9.3672-19.0782-15.0859C206.7873,202.1142,203.5842,201.95,200.2737,201.6885Z"/><path class="a" d="M37.9846,161.7666c6.5742,6.57,26.8926-5.3789,26.8926-5.3789l.2148-.3321a203.0612,203.0612,0,0,1-24.1914-18.6484C40.0412,139.0322,31.7444,155.5244,37.9846,161.7666Z"/><path class="b" d="M40.9006,137.4072c-.8594,1.625-9.1562,18.1172-2.916,24.3594,3.1641,3.164,9.5059,2.0234,15.24.0039-3.27.4062-6.2187.0508-8.0683-1.7969-4.1328-4.1328-1.8887-12.7422.3457-18.5742C43.9338,140.0713,42.383,138.7431,40.9006,137.4072Z"/><path class="c" d="M206.2756,57.9472C200.25,49.1972,190.52,41.26,175.6291,35.0683c0,0-44.6074-18.3339-70.1132,4.7813s16.7343,43.0293,48.6,53.3809C186.0041,103.6015,215.4787,102,214.69,83.668c-.0469-1.2188-.1426-2.44-.2871-3.6817A49.3475,49.3475,0,0,0,212.92,72.168,46.5453,46.5453,0,0,0,206.2756,57.9472Z"/><path class="d" d="M105.5159,39.85A219.95,219.95,0,0,0,80.967,35.498L80.8225,36.67s-35.0684,42.2168,50.9883,77.2832c78.8144,32.1338,106.5683-1.3359,106.7832-18.9062-11.93-8.2227-21.8477-13.77-24.1914-15.0606.1445,1.2422.24,2.4629.2871,3.6817.789,18.332-28.6856,19.9335-60.5742,9.5625C122.25,82.8789,80.01,62.9648,105.5159,39.85Z"/><path class="e" d="M80.967,35.498a196.0019,196.0019,0,0,0-24.5742-1.5293c-19.7226,18.4551-16.16,49.7227-1.7207,69.6094,17.1133,23.5244,45.6563,33.8291,71.4,44.751,27.4219,11.6445,58.33,20.9414,87.9473,12.1211,19.8418-5.8789,49.41-21.3242,49.2675-45.919A233.3621,233.3621,0,0,0,238.594,95.0469c-.2149,17.57-27.9688,51.04-106.7832,18.9062C45.7541,78.8867,80.8225,36.67,80.8225,36.67Z"/><path class="f" d="M3.5139,53.4043c-9.92,14.6289.74,50.8926,37.3867,84.0029A203.0612,203.0612,0,0,0,65.092,156.0556a251.8781,251.8781,0,0,0,55.5567,27.2266c30.8613,10.8516,57.3476,16.5859,79.625,18.4063a163.595,163.595,0,0,0,33.1093-.4336c29.5938-3.68,47.57-16.5664,54.5977-33.1055,6.7422-18.07-7.17-37.5547-24.6934-53.6182.1426,24.5948-29.4257,40.04-49.2675,45.919-29.6172,8.82-60.5254-.4766-87.9473-12.1211-25.7441-10.9219-54.2871-21.2266-71.4-44.751C40.2327,83.6914,36.67,52.4238,56.3928,33.9687,35.6662,34.0879,13.9377,38.3437,3.5139,53.4043ZM272.85,155.79l8.9649,9.5625L272.85,173.72l-8.3671-13.7461Zm-13.1484,7.7656,7.1719,13.1485L254.92,182.6806l-5.9747-14.9375Zm-15.5371,7.1719,5.3789,15.5391L237.59,191.6455l-4.7813-16.1367Z"/><path class="g" d="M156.19,29.7031c-15.1719-2.73-36.0547-3.1016-50.6738,10.1465C80.01,62.9648,122.25,82.8789,154.1155,93.2305,186.0041,103.6015,215.4787,102,214.69,83.668c-.0469-1.2188-.1426-2.44-.2871-3.6817A49.3475,49.3475,0,0,0,212.92,72.168c-.127-.459-.2969-.9141-.4375-1.3731.8808,11.3457-11.2618,25.4043-40.0333,19.8535C138.385,84.0742,112.6877,63.1562,122.25,44.0332,127.6272,33.2734,143.4143,30.2715,156.19,29.7031Z"/><path class="h" d="M175.6291,35.0683s-17.5234-7.7675-25.291,3.586c-7.7695,11.3554,7.17,29.8808,26.2949,35.8574,19.1231,5.9766,33.4668-8.9648,22.709-23.9043C189.78,40.4472,175.6291,35.0683,175.6291,35.0683Z"/><polygon class="i" points="259.701 163.556 259.445 163.653 259.445 163.657 259.701 163.556"/><path class="j" d="M198.5452,98.9375c9.7871,2.6914,18.3652,8.418,28.4394,17.1172,8.01-6.586,11.5332-14.793,11.6094-21.0078-11.93-8.2227-21.8477-13.77-24.1914-15.0606.1445,1.2422.24,2.4629.2871,3.6817,0,.0195.0019.0371.0019.0566l.002.0273v.0274c0,.0117.0019.0215.0019.0351V83.83c.0059.1816.01.3593.01.5371C214.7112,92.5762,208.43,97.2812,198.5452,98.9375Z"/><path class="j" d="M104.86,40.459l.0332-.0332.002-.002c.0117-.01.0214-.02.0332-.0312h.0019l.0293-.0293.0059-.0059c.0117-.0117.0215-.02.0312-.0293l.0059-.0059.0312-.0273.0059-.0059.0293-.0293.0058-.0039c.0118-.0117.0215-.0214.0333-.0312l.0039-.0039c.0234-.0215.0449-.041.0683-.0645h.002c.0117-.0117.0254-.0234.0351-.0332l.0039-.0019c.01-.0117.0215-.0215.0313-.0313l.0039-.0039.07-.0644.002-.002a.1494.1494,0,0,0,.0253-.0234l.0137-.0117.0117-.01c.0313-.0293.0664-.0625.1-.0918.0118-.01.0254-.0215.0372-.0332A219.95,219.95,0,0,0,80.967,35.498L80.8225,36.67a35.5866,35.5866,0,0,0-7.07,21.082A34.788,34.788,0,0,0,76.553,71.289a195.2431,195.2431,0,0,1,34.3418,9.7969,270.2463,270.2463,0,0,0,42.4765,11.9024c-15.8027-5.1817-33.9824-12.68-45.1543-21.73l-.0078-.0059-.0176-.0156-.0234-.0176c-11.0566-8.9765-15.2109-19.4765-3.3105-30.76Z"/><path class="k" d="M226.9846,116.0547c5.3652,4.6328,11.1563,10.11,17.7773,16.4228a59.124,59.124,0,0,1,6.6446,7.461c7.0644-6.9141,11.8926-15.3438,11.8808-25.2627v-.1446A233.3621,233.3621,0,0,0,238.594,95.0469C238.5178,101.2617,234.9983,109.4687,226.9846,116.0547Z"/><path class="k" d="M80.967,35.498c-.1562-.02-.3144-.0371-.4726-.0566-.0215-.0039-.043-.0059-.0645-.0078-.0371-.0059-.0762-.01-.1133-.0137l-.0527-.0059c-.1191-.0156-.2383-.0293-.3574-.0429-.0235-.002-.0488-.0059-.0742-.0078a195.2851,195.2851,0,0,0-22.5274-1.3965h-.02c-.2969,0-.5957,0-.8926.0019-9.5918,8.9746-13.6758,20.9805-13.68,33.2344q-.0028,2.0332.1465,4.0723a55.385,55.385,0,0,1,14.9238-1.8145,107.7451,107.7451,0,0,1,18.77,1.8281,34.788,34.788,0,0,1-2.8008-13.5371,35.5866,35.5866,0,0,1,7.07-21.082Z"/><path class="l" d="M3.5139,53.4043C1.1994,56.8183.0041,61.4121,0,66.8672c-.0136,17.9218,12.8067,45.1562,40.9,70.54A203.0612,203.0612,0,0,0,65.092,156.0556a251.8781,251.8781,0,0,0,55.5567,27.2266c30.8613,10.8516,57.3476,16.5859,79.625,18.4063l.32.0234a.8237.8237,0,0,0,.0957.0078l.16.0117a.7617.7617,0,0,0,.0918.0078l.2715.0235q7.421.5508,14.2188.5508h.0175a145.1837,145.1837,0,0,0,17.3809-.9922c.0918-.0078.1836-.02.2754-.0313l.2773-.0351c29.5938-3.68,47.57-16.5664,54.5977-33.1055a27.39,27.39,0,0,0,1.7344-9.6328c.0058-15.1836-11.9844-30.75-26.4278-43.9854v.1446c.0118,9.9189-4.8164,18.3486-11.8808,25.2627,5.8945,7.9257,8.4844,16.1406,8.039,23.7148l.2559-.0977,7.1719,13.1485L254.92,182.6806l-1.293-3.2343-.1348-.336a31.8282,31.8282,0,0,1-4.7578,4.82l.8086,2.336L237.59,191.6455l-.3477-1.1758a57.48,57.48,0,0,1-11.0078,2.9688,109.21,109.21,0,0,1-18.1426,1.3828c-35.4394,0-84.1484-13.25-123.4922-35.4453C37.9846,133.0791,17.6662,93.039,30.2151,78.6953c3.0625-3.502,7.375-5.9336,12.6445-7.42q-.1466-2.0391-.1465-4.0723c.0039-12.2539,4.0879-24.26,13.68-33.2344C35.6662,34.0879,13.9377,38.3437,3.5139,53.4043ZM264.4827,159.9736,272.85,155.79l8.9649,9.5625L272.85,173.72Z"/><path class="m" d="M212.8909,91.0058c-.2051.34-.377.6993-.6153,1.0176C212.5139,91.7051,212.6858,91.3457,212.8909,91.0058Z"/><path class="m" d="M213.6272,89.7051a11.8533,11.8533,0,0,1-.7363,1.3007A11.8533,11.8533,0,0,0,213.6272,89.7051Z"/><path class="m" d="M212.2756,92.0234a12.8553,12.8553,0,0,1-1.0488,1.1485A12.5856,12.5856,0,0,0,212.2756,92.0234Z"/><path class="m" d="M211.2268,93.1719c-.2715.2832-.5078.5878-.8106.8515C210.719,93.76,210.9553,93.4551,211.2268,93.1719Z"/><path class="m" d="M214.44,87.0605a12.1432,12.1432,0,0,1-.4258,1.461A12.1432,12.1432,0,0,0,214.44,87.0605Z"/><path class="m" d="M214.7053,84.3672c0-.1778-.0039-.3555-.01-.5371a14.7172,14.7172,0,0,1-.123,1.8847C214.6135,85.2637,214.7053,84.8418,214.7053,84.3672Z"/><path class="m" d="M210.4162,94.0234a15.3127,15.3127,0,0,1-1.3652.9961A15.3127,15.3127,0,0,0,210.4162,94.0234Z"/><path class="m" d="M214.0139,88.5215a11.664,11.664,0,0,1-.3867,1.1836A11.664,11.664,0,0,0,214.0139,88.5215Z"/><path class="m" d="M214.5725,85.7148c-.041.4492-.0508.918-.1328,1.3457C214.5217,86.6328,214.5315,86.166,214.5725,85.7148Z"/><path class="m" d="M198.5452,98.9375c1.2519-.209,2.4414-.4707,3.5722-.7774a36.2842,36.2842,0,0,1-3.5762.7774Z"/><path class="m" d="M153.4045,92.9941c-15.8105-5.1816-34.0078-12.6816-45.1875-21.7363,11.1719,9.0508,29.3516,16.5488,45.1543,21.73Z"/><path class="m" d="M209.051,95.02c-.3262.2285-.6191.4805-.9707.69C208.4338,95.5,208.7248,95.248,209.051,95.02Z"/><polygon class="m" points="105.184 40.154 105.18 40.156 105.182 40.156 105.184 40.154"/><polygon class="m" points="105.33 40.019 105.328 40.019 105.326 40.021 105.33 40.019"/><path class="m" d="M208.08,95.709c-.5371.32-1.1465.59-1.74.8691C206.9338,96.2988,207.5432,96.0293,208.08,95.709Z"/><path class="m" d="M202.9729,97.875c-.293.0879-.5547.2031-.8555.2851C202.4182,98.0781,202.68,97.9629,202.9729,97.875Z"/><path class="m" d="M206.34,96.5781c-.35.166-.666.3555-1.0352.5078C205.6741,96.9336,205.9905,96.7441,206.34,96.5781Z"/><path class="m" d="M205.3049,97.0859c-.7305.2988-1.5312.543-2.332.7891C203.7737,97.6289,204.5744,97.3847,205.3049,97.0859Z"/><path class="n" d="M190.3772,52.998s-9.5606-13.1484-14.3418-10.16,5.3789,6.5742,8.9648,20.916c3.586,14.3437-5.3789,25.1016,6.5723,26.2969C203.5256,91.2461,210.1,77.5,190.3772,52.998Z"/><path class="b" d="M210.1252,64.6445a46.8788,46.8788,0,0,1,2.795,7.5235l.1679-.0469c7.6953-26.1035,17.6406-42.5723,24.1426-49.0762C223.7112,28.9258,213.9709,53.416,210.1252,64.6445Z"/><path class="b" d="M256.6135,2.1094l.1.09c7.77,6.5742,4.7813,17.93-2.3906,20.918-7.17,2.9883-17.0918-.0723-17.0918-.0723a14.8905,14.8905,0,0,0,11.7148,5.6426,14.5368,14.5368,0,0,0,14.7481-14.3438A14.2466,14.2466,0,0,0,256.6135,2.1094Z"/><path class="n" d="M251.9338,8.7734a4.7813,4.7813,0,1,1-4.7812-4.7812A4.7825,4.7825,0,0,1,251.9338,8.7734Z"/></svg>