<svg xmlns="http://www.w3.org/2000/svg" viewBox="0 0 122.41 140.14"><defs><style>.a{fill:#f9f9f9;}.b{fill:#dfdfdf;}.c{fill:#e7af48;}.d{fill:#f3d634;}.e{fill:#fcf692;}.f{fill:#304d78;}.g{fill:#3c608d;}.h{fill:#b23a6c;}.i{fill:#de597f;}.j{fill:#4e2b4b;}.k{fill:#8fc8eb;}.l{fill:#d1f3f7;}.m{fill:#fcfdfd;}</style></defs><path class="a" d="M61.21,0s-36.07,12.61-54,54.48-2.6,49,45.27,49c0,0-14.77-37.93-14.46-29.61.76,20.38-23.37,16.56-20.29-13s36.6-53.5,31-38.79,12.41,4.6,12.41,4.6Z"/><path class="b" d="M17.48,88.1c4.29,0,8.67,7.91,11.54,14.44-8.3-.85-14.8-2.38-19.55-4.91C11.16,92.67,13.73,88.1,17.48,88.1Z"/><path class="c" d="M22.07,111.4c0,2.69-4.59,12-4.59,12s-4.59-9.33-4.59-12a4.73,4.73,0,0,1,4.59-4.86A4.74,4.74,0,0,1,22.07,111.4Z"/><path class="d" d="M20.48,110c0,1.76-3,7.88-3,7.88s-3-6.12-3-7.88a3,3,0,1,1,6,0Z"/><path class="e" d="M18.74,108.92a15.59,15.59,0,0,1-1.26,3.31,15.52,15.52,0,0,1-1.27-3.31,1.27,1.27,0,1,1,2.53,0Z"/><path class="b" d="M17.48,87.8c5,0,8.07,10.94,8.68,16.27.11.93-1.26,1.7-3,1.7H11.79c-1.73,0-3.1-.77-3-1.7C9.4,98.74,12.44,87.8,17.48,87.8Z"/><path class="a" d="M17.48,88.1c3.74,0,6.24,7.07,7.3,12.35.49,2.45-2.91,4.6-7.3,4.6h0c-4.39,0-7.8-2.15-7.31-4.6C11.24,95.17,13.74,88.1,17.48,88.1Z"/><path class="b" d="M37.62,79.15a20,20,0,0,0,.44-5.28c-.31-8.32,14.46,29.61,14.46,29.61q-4.52,0-8.64-.09A72.69,72.69,0,0,1,37.62,79.15Z"/><path class="b" d="M45.07,18.39h0C36.9,22.31,19.92,40.19,17.77,60.85c-.86,8.3.42,14.57,2.69,18.85C16.62,73.88,11.58,63.18,16,52.11,22.54,35.93,35.08,22.54,45.07,18.39Z"/><path class="b" d="M23.82,84.08l.14.13h0Z"/><path class="a" d="M61.21,0s36.06,12.61,54,54.48,2.6,49-45.28,49c0,0,14.77-37.93,14.46-29.61-.76,20.38,23.37,16.56,20.29-13s-36.59-53.5-31-38.79-12.41,4.6-12.41,4.6Z"/><path class="b" d="M104.94,88.1c-4.3,0-8.67,7.91-11.55,14.44,8.3-.85,14.81-2.38,19.55-4.91C111.25,92.67,108.69,88.1,104.94,88.1Z"/><path class="c" d="M100.35,111.4c0,2.69,4.59,12,4.59,12s4.58-9.33,4.58-12a4.59,4.59,0,1,0-9.17,0Z"/><path class="d" d="M101.93,110c0,1.76,3,7.88,3,7.88s3-6.12,3-7.88a3,3,0,1,0-6,0Z"/><path class="e" d="M103.67,108.92a15.52,15.52,0,0,0,1.27,3.31,15.59,15.59,0,0,0,1.26-3.31,1.27,1.27,0,1,0-2.53,0Z"/><path class="b" d="M104.94,87.8c-5,0-8.08,10.94-8.69,16.27-.1.93,1.27,1.7,3,1.7h11.37c1.74,0,3.11-.77,3-1.7C113,98.74,110,87.8,104.94,87.8Z"/><path class="a" d="M104.94,88.1c-3.74,0-6.25,7.07-7.31,12.35-.49,2.45,2.92,4.6,7.31,4.6h0c4.39,0,7.79-2.15,7.3-4.6C111.18,95.17,108.67,88.1,104.94,88.1Z"/><path class="b" d="M84.8,79.15a20.43,20.43,0,0,1-.45-5.28c.31-8.32-14.46,29.61-14.46,29.61q4.52,0,8.64-.09A73,73,0,0,0,84.8,79.15Z"/><path class="b" d="M77.35,18.39h0c8.16,3.91,25.14,21.79,27.29,42.45.87,8.3-.41,14.57-2.69,18.85,3.84-5.82,8.88-16.52,4.43-27.59C99.87,35.93,87.33,22.54,77.35,18.39Z"/><path class="b" d="M98.59,84.08l-.14.13h0A.72.72,0,0,0,98.59,84.08Z"/><path class="f" d="M60,100.14l-5.41.38-5.41-.38-2.54,8.25a30.49,30.49,0,0,0,8,1.51,30.49,30.49,0,0,0,7.95-1.51Z"/><path class="f" d="M62.44,100.14l5.41.38,5.41-.38,2.54,8.25a30.49,30.49,0,0,1-8,1.51,30.48,30.48,0,0,1-7.94-1.51Z"/><path class="f" d="M68.08,101.91l-6.87.48-6.88-.48-3.23,10.5a39,39,0,0,0,10.11,1.91,38.87,38.87,0,0,0,10.1-1.91Z"/><path class="g" d="M67,106.23l-5.79.27-5.8-.27-2.71,6a47,47,0,0,0,8.51,1.08,47.18,47.18,0,0,0,8.51-1.08Z"/><path class="c" d="M54.5,121.89c0,4.08,7,18.25,7,18.25s7-14.17,7-18.25a7,7,0,1,0-13.92,0Z"/><path class="d" d="M56.9,119.83c0,2.67,4.56,12,4.56,12s4.56-9.29,4.56-12a4.57,4.57,0,1,0-9.12,0Z"/><path class="e" d="M59.54,118.12c0,1.13,1.92,5,1.92,5s1.92-3.91,1.92-5a1.92,1.92,0,1,0-3.84,0Z"/><path class="c" d="M47.67,117.55c0,1.68,2.87,7.51,2.87,7.51s2.86-5.83,2.86-7.51a2.87,2.87,0,1,0-5.73,0Z"/><path class="d" d="M48.66,116.7c0,1.1,1.88,4.92,1.88,4.92s1.88-3.82,1.88-4.92a1.88,1.88,0,1,0-3.76,0Z"/><path class="e" d="M49.75,116a9.8,9.8,0,0,0,.79,2.07,9.8,9.8,0,0,0,.79-2.07.79.79,0,1,0-1.58,0Z"/><path class="c" d="M74.74,117.55c0,1.68-2.86,7.51-2.86,7.51S69,119.23,69,117.55a2.87,2.87,0,1,1,5.73,0Z"/><path class="d" d="M73.75,116.7c0,1.1-1.87,4.92-1.87,4.92S70,117.8,70,116.7a1.88,1.88,0,1,1,3.75,0Z"/><path class="e" d="M72.67,116a9.8,9.8,0,0,1-.79,2.07,9.72,9.72,0,0,1-.8-2.07.8.8,0,1,1,1.59,0Z"/><path class="h" d="M82.93,49.86C76,19.18,61.21,0,61.21,0S46.4,19.18,39.48,49.86c-5,22-1.07,36.7,4.72,46.2a19.92,19.92,0,0,0,17,9.71h0a19.92,19.92,0,0,0,17-9.71C84,86.56,87.89,71.87,82.93,49.86Z"/><path class="i" d="M40.68,48.55C47.22,20.18,61.21,2.44,61.21,2.44s14,17.74,20.52,46.11c4.69,20.35,1,33.93-4.45,42.72a18.92,18.92,0,0,1-16.07,9h0a18.93,18.93,0,0,1-16.08-9C39.67,82.48,36,68.9,40.68,48.55Z"/><path class="j" d="M75.3,43.28c0,10.06-6.31,13.58-14.09,13.58s-14.1-3.52-14.1-13.58,6.31-22.86,14.1-22.86S75.3,33.21,75.3,43.28Z"/><path class="k" d="M61.21,55C53,55,48.86,51.06,48.86,43.28c0-9.26,5.82-21,12.35-21S73.55,34,73.55,43.28C73.55,51.06,69.4,55,61.21,55Z"/><path class="l" d="M61.21,54.08c-7.72,0-11.47-3.54-11.47-10.8,0-8.77,5.56-20.08,11.47-20.08S72.68,34.51,72.68,43.28C72.68,50.54,68.92,54.08,61.21,54.08Z"/><path class="m" d="M72.68,43.28a27.13,27.13,0,0,0-1.08-7.23L55.46,53.15a16,16,0,0,0,5.75.93,18.86,18.86,0,0,0,3.67-.34l7.64-8.09A17.66,17.66,0,0,0,72.68,43.28Z"/><path class="m" d="M70.33,32.41A26.19,26.19,0,0,0,69,29.7L50.83,49a8,8,0,0,0,1.66,2.35Z"/><path class="m" d="M62.34,23.34,51,35.33a27.66,27.66,0,0,0-1.28,8,15.73,15.73,0,0,0,.38,3.58L68,28C66.31,25.56,64.36,23.82,62.34,23.34Z"/></svg>