<svg xmlns="http://www.w3.org/2000/svg" viewBox="0 0 425 393.4"><defs><style>.a{fill:#f26522;}.b{fill:#1f2121;}.c{fill:#0a82a3;}</style></defs><rect class="a" x="32.2" y="180.3" width="13.9" height="58.2"/><path class="b" d="M49.6,242H28.7V176.8H49.6Zm-13.9-7h6.9V183.8H35.7Z"/><rect class="a" x="75.1" y="159.8" width="13.9" height="106.9"/><path class="b" d="M92.5,270.2H71.6V156.3H92.5Zm-13.9-7h6.9V163.3H78.6Z"/><polygon class="a" points="212.5 206.8 212.5 301 132.2 282.8 132.2 213.3 212.5 206.8"/><path class="b" d="M216,305.4l-87.3-19.8V210l87.3-7ZM135.7,280,209,296.6V210.5l-73.3,5.9Z"/><polygon class="c" points="132.2 213.3 59.3 213.3 59.3 262.6 132.2 291.6 132.2 213.3"/><path class="b" d="M135.7,296.8,55.8,265V209.8h79.9ZM62.8,260.3l65.9,26.2V216.8H62.8Z"/><polygon class="a" points="59.3 213.3 3.5 213.3 3.5 235.5 59.3 253.9 59.3 213.3"/><path class="b" d="M62.8,258.8,0,238.1V209.9H62.8ZM7,233l48.8,16.1V216.8H7Z"/><polygon class="b" points="175.8 291.6 168.8 291.6 168.8 244.9 211 225.2 214 231.5 175.8 249.3 175.8 291.6"/><polygon class="a" points="69.5 266.7 77.6 253.9 106.3 264.4 114.2 284.5 69.5 266.7"/><path class="b" d="M120.4,290.7,64.3,268.4l11.8-18.8,32.8,12ZM74.7,265l33.2,13.2-4.4-11.1-24.5-9Z"/><rect class="a" x="378.9" y="180.3" width="13.9" height="58.2"/><path class="b" d="M396.3,242H375.4V176.8h20.9Zm-13.9-7h6.9V183.8h-6.9Z"/><rect class="a" x="336" y="159.8" width="13.9" height="106.9"/><path class="b" d="M353.4,270.2H332.5V156.3h20.9Zm-13.9-7h6.9V163.3h-6.9Z"/><polygon class="a" points="212.5 206.8 212.5 301 292.8 282.8 292.8 213.3 212.5 206.8"/><path class="b" d="M209,305.4V203l87.3,7v75.6Zm7-94.8v86.1l73.3-16.6V216.5Z"/><polygon class="a" points="212.5 301 144 285.5 144 306.3 212.5 335.1 281 306.3 281 285.5 212.5 301"/><path class="b" d="M212.5,338.9l-72-30.3V281.1l72,16.3,72-16.3v27.5Zm-65-34.9,65,27.4,65-27.4V289.9l-65,14.7-65-14.7V304Z"/><polygon class="c" points="292.8 213.3 365.7 213.3 365.7 262.6 292.8 291.6 292.8 213.3"/><path class="b" d="M289.3,296.8v-87h79.9V265Zm7-80v69.7l65.9-26.2V216.8Z"/><polygon class="a" points="365.7 213.3 421.5 213.3 421.5 235.5 365.7 253.9 365.7 213.3"/><path class="b" d="M362.2,258.8v-49H425V238Zm7-42v32.3L418,233V216.8Z"/><polygon class="b" points="256.1 291.6 249.1 291.6 249.1 249.3 211 231.5 214 225.2 256.1 244.9 256.1 291.6"/><polygon class="a" points="355.4 266.7 347.4 253.9 318.7 264.4 310.8 284.5 355.4 266.7"/><path class="b" d="M304.6,290.7l11.5-29.1,32.8-12,11.8,18.8Zm16.8-23.5L317,278.3l33.2-13.2-4.3-6.8Z"/><polygon class="c" points="259.8 216.2 311.9 139 311.9 85.7 259.8 140.1 259.8 216.2"/><path class="b" d="M256.3,227.7v-89L315.4,77v63Zm7-86.2v63.3l45.1-66.9V94.4Z"/><polygon class="a" points="187.7 298.5 212.5 381.3 237.3 298.5 259.8 216.2 259.8 140.1 212.5 10.2 165.2 140.1 165.2 216.2 187.7 298.5"/><path class="b" d="M212.5,393.4l-28.2-93.9-22.6-82.8V139.5l.2-.6L212.5,0l50.8,139.5v77.2l-22.6,82.7ZM168.7,215.8,191,297.6l21.4,71.5,21.5-71.6,22.3-81.7v-75L212.5,20.4,168.7,140.7Z"/><polygon class="c" points="193.5 206.9 212.5 239.6 231.5 206.9 248.6 174.4 248.6 144.3 212.5 124.7 176.4 144.3 176.4 174.4 193.5 206.9"/><path class="b" d="M212.5,246.5l-22.1-38-17.6-33.3v-33l39.6-21.5L252,142.2v33l-17.6,33.4Zm-15.9-41.3,15.9,27.4,15.9-27.4,16.7-31.7V146.4l-32.6-17.7-32.6,17.7v27.1Z"/><polygon class="c" points="165.2 216.2 113.1 139 113.1 85.7 165.2 140.1 165.2 216.2"/><path class="b" d="M168.7,227.7l-59.1-87.6v-63l59.1,61.7Zm-52.1-89.8,45.1,66.9V141.5L116.6,94.4Z"/><polygon class="c" points="233.8 310.3 224.1 291.8 233.8 248.2 254.4 235.8 233.8 310.3"/><path class="b" d="M234.8,319.8l-14.4-27.5L230.7,246l29.5-17.7Zm-7-28.5,5,9.5,15.9-57.5-11.8,7.1Z"/><polygon class="c" points="191.2 310.3 200.9 291.8 191.2 248.2 170.6 235.8 191.2 310.3"/><path class="b" d="M190.2,319.8l-25.4-91.5L194.3,246l10.3,46.3Zm-13.9-76.4,15.9,57.5,5-9.5-9.1-40.9Z"/><rect class="b" x="209" y="307.7" width="7" height="73.5"/><rect class="b" x="209" y="287.2" width="7" height="12.9"/><rect class="b" x="209" y="268.1" width="7" height="9.3"/><polygon class="a" points="275.8 192.5 275.8 172 287.1 155.9 301.8 154 275.8 192.5"/><path class="b" d="M272.3,203.9V170.8l12.9-18.3,23.8-3Zm7-30.8v8l15.3-22.6-5.5.7Z"/><polygon class="a" points="149.2 192.5 149.2 172 137.9 155.9 123.2 154 149.2 192.5"/><path class="b" d="M152.7,203.9,116,149.5l23.8,3,12.9,18.3v33.1Zm-22.3-45.4,15.3,22.6v-8l-9.8-13.9Z"/><path class="a" d="M102.5,60.6h0A10.7121,10.7121,0,0,0,91.8,71.3v72.1a10.7121,10.7121,0,0,0,10.7,10.7h0a10.7121,10.7121,0,0,0,10.7-10.7V71.3A10.6484,10.6484,0,0,0,102.5,60.6Z"/><path class="b" d="M102.5,157.5a14.2547,14.2547,0,0,1-14.2-14.2V71.2a14.2,14.2,0,1,1,28.4,0v72.1A14.19,14.19,0,0,1,102.5,157.5Zm0-93.4a7.17,7.17,0,0,0-7.2,7.2v72.1a7.2,7.2,0,0,0,14.4,0V71.3A7.17,7.17,0,0,0,102.5,64.1Z"/><path class="a" d="M322.4,60.6h0a10.7121,10.7121,0,0,1,10.7,10.7v72.1a10.7121,10.7121,0,0,1-10.7,10.7h0a10.7121,10.7121,0,0,1-10.7-10.7V71.3A10.7118,10.7118,0,0,1,322.4,60.6Z"/><path class="b" d="M322.4,157.5a14.2547,14.2547,0,0,1-14.2-14.2V71.2a14.2,14.2,0,0,1,28.4,0v72.1A14.19,14.19,0,0,1,322.4,157.5Zm0-93.4a7.17,7.17,0,0,0-7.2,7.2v72.1a7.2,7.2,0,0,0,14.4,0V71.3A7.17,7.17,0,0,0,322.4,64.1Z"/></svg>