<svg xmlns="http://www.w3.org/2000/svg" viewBox="0 0 322.6429 209.9094"><defs><style>.a{fill:#5f9f44;}.b{fill:#6d6e71;}.c{fill:#76c153;}.d{fill:#f9ed32;}.e{fill:#58595b;}.f{fill:#a2d06d;}.g{fill:#2bb673;}.h{fill:#15a469;}.i{fill:#60be7d;}.j{fill:#e6e7e8;}.k{fill:#89c769;}.l{fill:#7cc364;}</style></defs><path class="a" d="M255.8689,183.23c-.5,3.5156-2.9219,13.6992-13.4141,16.3281-18.3359,6.3828-32.6757-4.7813-32.6757-4.7813l-.0508-.3828A215.07,215.07,0,0,0,255.8689,183.23Z"/><path class="a" d="M189.8455,196.3313c-2.2266,3.8711-9.3516,13.5781-24.6758,13.5781-16.8281,0-29.9531-12.3359-32.8672-15.2734A327.8139,327.8139,0,0,0,189.8455,196.3313Z"/><path class="a" d="M115.76,192.386s-15.9453,9.5625-32.6777,4.7813c-14.4863-4.1368-19.4121-14.8438-20.4883-17.6407C77.1775,184.7376,94.7478,189.136,115.76,192.386Z"/><polygon class="b" points="265.572 155.741 269.541 165.304 262.369 168.484 259.978 157.32 265.572 155.741"/><polygon class="b" points="253.619 159.71 257.588 169.273 250.416 172.472 248.025 161.312 253.619 159.71"/><polygon class="b" points="240.853 164.491 244.845 174.05 237.674 177.253 235.283 166.093 240.853 164.491"/><path class="c" d="M63.17,140.5852c1.6,8.7735-6.3828,19.125-12.7422,19.9375-6.3828.7891-7.1719-4.7812-7.1719-4.7812,5.57,1.5781,15.9219-10.375,11.1406-20.7266C54.3962,135.0149,61.5681,131.8352,63.17,140.5852Z"/><path class="c" d="M37.6619,113.4983c1.6015,8.7744-6.3594,19.126-12.74,19.915-6.3828.8125-7.1718-4.7812-7.1718-4.7812,5.57,1.6016,15.9433-10.3516,11.164-20.7C28.9138,107.9319,36.0837,104.7288,37.6619,113.4983Z"/><path class="d" d="M54.3962,135.0149c4.7813,10.3516-5.57,22.3047-11.1406,20.7266-5.5937-1.6016-11.9531-9.5625-4.7812-18.336S54.3962,135.0149,54.3962,135.0149Z"/><path class="d" d="M28.9138,107.9319c4.7793,10.3486-5.5937,22.3018-11.164,20.7-5.57-1.5781-11.9532-9.5625-4.7813-18.31C20.14,101.5491,28.9138,107.9319,28.9138,107.9319Z"/><path class="b" d="M89.4646,27.4456c17.9512-8.08,28.5645,13.2676,20.2246,27.85C99.0486,73.8909,81.91,65.0237,77.3455,51.9241,74.3806,43.44,76.699,33.1839,89.4646,27.4456Z"/><path class="e" d="M110.9783,35.926a22.2675,22.2675,0,0,1-2.8848,11.4024C97.7791,65.3616,81.3494,57.5667,76.2029,45.1331a19.913,19.913,0,0,0,1.1426,6.791c4.5644,13.1,21.7031,21.9668,32.3437,3.3711A22.5436,22.5436,0,0,0,110.9783,35.926Z"/><path class="b" d="M223.33,28.2346c12.7657,5.7618,15.086,16.0176,12.125,24.4786-4.57,13.123-21.707,21.9667-32.3437,3.3945C194.7673,41.5022,205.3806,20.178,223.33,28.2346Z"/><path class="e" d="M207.0916,49.7346a22.57,22.57,0,0,1-1.4688-18.9336c-5.7773,5.9122-7.3945,16.7559-2.5117,25.3067,10.3125,18.0078,26.7344,10.2422,31.8906-2.209C227.8767,61.9788,215.4705,64.36,207.0916,49.7346Z"/><path class="b" d="M158.3806,44.18A22.709,22.709,0,1,1,135.67,66.8889,22.7051,22.7051,0,0,1,158.3806,44.18Z"/><path class="e" d="M180.01,59.9592a22.6928,22.6928,0,0,1-44.0508,3.4961A22.7,22.7,0,1,0,180.01,59.9592Z"/><path class="c" d="M52.0056,88.8089c-6.3594-16.7325,9.5625-29.4981,9.5625-29.4981l.6934.168c-3.6113,14.1758-10.8067,41.8554,92.5332,46.0625,117.9492,4.7812,98.0117-43.84,98.0117-43.84,10.375,4.7813,15.1563,11.9532,13.5547,22.3262-2.0078,12.9785-36.6484,46.2061-109.1758,43.0264C91.9021,124.1868,58.3884,105.5413,52.0056,88.8089Z"/><path class="a" d="M62.2615,59.4788l-.6934-.168s-.3808.3125-.959.85a20.5571,20.5571,0,0,0,.5918,3.8594C61.5173,62.3987,61.906,60.8733,62.2615,59.4788Z"/><path class="a" d="M253.7517,62.1663l-.9453-.4649a15.132,15.132,0,0,1,.625,2.0684C253.5564,63.2249,253.6658,62.6917,253.7517,62.1663Z"/><path class="a" d="M157.1853,115.9007C91.9021,113.03,58.3884,94.3889,52.0056,77.6546a22.9351,22.9351,0,0,1-.748-2.4551,22.0379,22.0379,0,0,0,.748,13.6094c6.3828,16.7324,39.8965,35.3779,105.18,38.2451,72.5274,3.18,107.168-30.0479,109.1758-43.0264a20.72,20.72,0,0,0-.4922-9.27C261.1345,88.7835,226.4509,118.9368,157.1853,115.9007Z"/><path class="f" d="M37.6619,113.4983c-1.5782-8.7695-8.7481-5.5664-8.7481-5.5664s-8.7734-6.3828-15.9453,2.3906c-7.1719,8.7471-.789,16.7315,4.7813,18.31,0,0,.789,5.5937,7.1718,4.7812C31.3025,132.6243,39.2634,122.2727,37.6619,113.4983ZM63.17,140.5852c-1.6016-8.75-8.7735-5.57-8.7735-5.57s-8.75-6.3828-15.9218,2.3906-.8125,16.7344,4.7812,18.336c0,0,.7891,5.57,7.1719,4.7812C56.7869,159.71,64.7693,149.3587,63.17,140.5852ZM255.8689,183.23a215.07,215.07,0,0,1-46.1406,11.164q-9.6445,1.33-19.8828,1.9375a327.8139,327.8139,0,0,1-57.543-1.6953c-1.7969-.1914-3.5859-.41-5.3828-.6484-3.82-.5-7.5508-1.0274-11.16-1.6016-21.0117-3.25-38.582-7.6484-53.166-12.8594C2.8572,158.1555-6.49,123.0383,3.406,95.1682,15.9568,59.86,66.3474,44.6565,67.9021,44.2014A53.9977,53.9977,0,0,0,63.17,55.3421a34.2937,34.2937,0,0,1-.9082,4.1367l-.6934-.168S45.6462,72.0764,52.0056,88.8089c6.3828,16.7324,39.8965,35.3779,105.18,38.2451,72.5274,3.18,107.168-30.0479,109.1758-43.0264,1.6016-10.373-3.18-17.5449-13.5547-22.3262A137.4227,137.4227,0,0,0,243.2673,44.18c1.6993.2852,73.3672,12.4766,78.8633,55.7676C326.6736,136.2571,300.7127,166.6438,255.8689,183.23Zm-11.0234-9.18-3.9922-9.5586-5.57,1.6015,2.3906,11.16Zm12.7422-4.7774-3.9688-9.5625-5.5937,1.6016,2.3906,11.16Zm2.3906-11.9531,2.3906,11.1641,7.1719-3.18-3.9688-9.5625Z"/><path class="g" d="M89.4646,27.4456C76.699,33.1839,74.3806,43.44,77.3455,51.9241c4.5644,13.1,21.7031,21.9668,32.3437,3.3711C118.0291,40.7132,107.4158,19.3655,89.4646,27.4456Zm145.99,25.2676c2.961-8.461.6407-18.7168-12.125-24.4786-17.9492-8.0566-28.5625,13.2676-20.2187,27.8731C213.7478,74.68,230.8845,65.8362,235.4548,52.7132ZM146.8337.3616c54.9844-3.7051,82.1641,21.7773,96.4336,43.8183a137.4227,137.4227,0,0,1,9.5391,17.5215s19.9375,48.6211-98.0117,43.84C51.4548,101.3342,58.65,73.6546,62.2615,59.4788a34.2937,34.2937,0,0,0,.9082-4.1367,53.9977,53.9977,0,0,1,4.7324-11.1407h.0234C76.197,29.1194,97.3513,3.7092,146.8337.3616Zm34.2618,66.5273a22.7129,22.7129,0,1,0-22.7149,22.709A22.7051,22.7051,0,0,0,181.0955,66.8889Z"/><path class="h" d="M252.8064,61.7014A137.4227,137.4227,0,0,0,243.2673,44.18C234.3611,30.42,220.42,15.3225,197.83,6.8186c.7969.502,1.57.9785,2.3946,1.5059a75.36,75.36,0,0,1,20.582,18.9687,21.9354,21.9354,0,0,1,2.5234.9414c12.7657,5.7618,15.086,16.0176,12.125,24.4786a22.91,22.91,0,0,1-4.8906,8.0566c-2.5859,23.6523-25.2461,43.3965-63.0117,41.5762-41.7031-2.0078-62.16-18.2735-68.4023-37.211C90.09,68.3225,80.574,61.1878,77.3455,51.9241c-2.9649-8.4844-.6465-18.74,12.1191-24.4785,5.459-2.459,10.2363-2.1836,14.0117-.2129A69.877,69.877,0,0,1,123.783,3.887C90.4822,12.1448,74.7771,31.7112,67.9255,44.2014h-.0234A53.9977,53.9977,0,0,0,63.17,55.3421a34.2937,34.2937,0,0,1-.9082,4.1367c-3.6113,14.1758-10.8067,41.8554,92.5332,46.0625C272.7439,110.3225,252.8064,61.7014,252.8064,61.7014Z"/><path class="i" d="M128.6658,27.43c.9726,6.0176,5.375,9.4161,11.2148,11.6563,14.836,5.6836,37.3906,3.4258,51.5821-3.67,10.8984-5.4551,8.3671-21.377-4.0547-31.8594-11.4961-2.93-24.9024-4.25-40.5743-3.1953-2.457.166-4.8281.4-7.1484.6738-4.4023.5195-11.3555,20.1953-11.2109,24.4024A15.2663,15.2663,0,0,0,128.6658,27.43Z"/><path class="j" d="M186.6814,16.6917c0,4.6191-8.207,8.3652-18.332,8.3652s-18.3282-3.7461-18.3282-8.3652c0-4.6211,8.2032-8.3672,18.3282-8.3672S186.6814,12.0706,186.6814,16.6917Z"/><path class="k" d="M10.031,120.3743a10.1489,10.1489,0,0,1,.4024-5.6651C13.0056,90.3714,25.5388,74.7815,36.8728,69.68c8.3027-3.7343,13.3418-2.0585,16.2832.4a35.1919,35.1919,0,0,1,8.4121-10.7695l.6934.168a34.2937,34.2937,0,0,0,.9082-4.1367,53.9977,53.9977,0,0,1,4.7324-11.1407C66.3474,44.6565,15.9568,59.86,3.406,95.1682c-5.9121,16.65-4.9433,35.8936,9.5293,53.2412A104.5037,104.5037,0,0,1,10.031,120.3743Z"/><path class="k" d="M322.1306,99.9475c-5.4961-43.291-77.164-55.4824-78.8633-55.7676a137.4227,137.4227,0,0,1,9.5391,17.5215c10.375,4.7813,15.1563,11.9532,13.5547,22.3262-2.0078,12.9785-36.6484,46.2061-109.1758,43.0264-9.6055-.4219-18.5039-1.1953-26.75-2.2422,44.84,15.543,91.3047,9.41,91.3047,9.41s49.4023,7.1719-28.6836,39.043a241.5152,241.5152,0,0,1-85.8672,17.6914c2.7969.4961,5.6406.9766,8.57,1.43,3.6094.5742,7.34,1.1016,11.16,1.6016,1.7969.2382,3.5859.457,5.3828.6484a327.8139,327.8139,0,0,0,57.543,1.6953q10.2539-.6093,19.8828-1.9375a215.07,215.07,0,0,0,46.1406-11.164C300.7127,166.6438,326.6736,136.2571,322.1306,99.9475Zm-84.457,77.3057-2.3906-11.16,5.57-1.6015,3.9922,9.5586Zm12.7422-4.7813-2.3906-11.16,5.5937-1.6016,3.9688,9.5625Zm11.9531-3.9882L259.9783,157.32l5.5937-1.5781,3.9688,9.5625Z"/><path class="l" d="M266.3611,84.0276c-1.5547,10.0508-22.6953,32.2295-65.82,40.2568,13.7265-2.5546,27.9375-2.1914,41.2109-6.9726,10.4766-3.7666,19.7266-10.3252,29.1094-16.1611,11.3672-7.07,37.582-27.1543,49.0078-10.2247C306.447,54.95,244.8416,44.4456,243.2673,44.18a137.4227,137.4227,0,0,1,9.5391,17.5215C263.1814,66.4827,267.9627,73.6546,266.3611,84.0276Z"/><path class="j" d="M23.3279,112.7092a3.403,3.403,0,0,1-3.5859,3.1836,3.21,3.21,0,1,1,0-6.375A3.404,3.404,0,0,1,23.3279,112.7092Z"/><path class="j" d="M49.6228,140.1985a4.0065,4.0065,0,1,1-3.9844-3.5859A3.8,3.8,0,0,1,49.6228,140.1985Z"/></svg>