<svg xmlns="http://www.w3.org/2000/svg" viewBox="0 0 276.2594 206.5948"><defs><style>.a{fill:#ef4136;}.b{fill:#f15841;}.c{fill:#939598;}.d{fill:#4c81a5;}.e{fill:#27aae1;}.f{fill:#fff200;}.g{fill:#6671a3;}.h{fill:#58628f;}.i{fill:#4d567e;}.j{fill:#5b6693;}.k{fill:#427393;}.l{fill:#808285;}.m{fill:#e6e7e8;}</style></defs><path class="a" d="M134.73,162.9587c23.7344,4.8047,41.4492,16.207,39.5625,25.4843-1.8672,9.2735-22.6172,12.9063-46.3515,8.1016-23.7149-4.7812-41.43-16.207-39.5625-25.457C90.2651,161.81,111.0151,158.1774,134.73,162.9587Z"/><path class="b" d="M130.3315,189.3727c-21.1875-4.2656-37.5391-13.8437-39.4649-22.43a7.8826,7.8826,0,0,0-2.4882,4.1446c-1.8672,9.25,15.8476,20.6758,39.5625,25.457,23.7343,4.8047,44.4843,1.1719,46.3515-8.1016a7.2852,7.2852,0,0,0-.0937-3.0273C167.7612,191.5055,150.1049,193.3766,130.3315,189.3727Z"/><path class="c" d="M183.9252,176.1774c11.1641,15.1328-.789,23.9063-7.1718,26.2969l.0468.6719c-10.7109,3.7734-27.9453,5.6133-55.82-.6719-26.7226-6.0469-39.9414-15.1094-46.3984-22.16l.1953-.1679s-15.9453-24.6953,27.082-30.2657C144.8862,144.2907,172.7846,161.0212,183.9252,176.1774Zm-9.6328,12.2656c1.8867-9.2773-15.8281-20.68-39.5625-25.4843-23.7148-4.7813-44.4648-1.1485-46.3515,8.1289-1.8672,9.25,15.8476,20.6758,39.5625,25.457C151.6752,201.3493,172.4252,197.7165,174.2924,188.443Z"/><path class="d" d="M212.73,164.2009c-.5742.91-1.2422,1.9375-1.9609,3.0156-5.8555,8.914-15.1563,22.7812-18.8594,26.4844A38.0961,38.0961,0,0,1,176.8,203.1462l-.0468-.6719c6.3828-2.3906,18.3359-11.1641,7.1718-26.2969-11.1406-15.1562-39.039-31.8867-82.0664-26.2969-43.0273,5.57-27.082,30.2657-27.082,30.2657l-.1953.1679c-5.52-5.9726-6.1875-10.5195-6.1875-10.5195l-6.7656-21.2734-1.8672-5.8555L57.23,134.7282c-3.875-12.168,6.9531-27.4424,16.8985-32.63,12.8593-6.7187,29.2109-7.4375,43.4375-6.8359,29.7343,1.289,60.6484,10.9687,85.4843,27.5088,26.293,17.5508,12.7617,36.6718,12.7617,36.6718S214.6205,161.31,212.73,164.2009Zm-25.6015.0234,17.5234-19.9336s-7.1719-11.1445-18.3359-14.3477L175.1752,153.06Zm-25.5079-17.5469,12.7422-25.4844s-4.7812-8.7744-23.9062-9.5634L145.6752,141.9Zm-31.0781-6.3554,5.57-31.0752s-9.5625-7.1719-27.082-3.9922l2.3906,31.8642ZM97.0776,138.72l-3.9922-31.0752s-15.918,2.3906-20.6992,7.9541l7.9609,29.5Z"/><path class="e" d="M204.6518,144.2907l-17.5234,19.9336L175.1752,153.06l11.1407-23.1172C197.48,133.1462,204.6518,144.2907,204.6518,144.2907Z"/><path class="e" d="M174.3627,121.193l-12.7422,25.4844L145.6752,141.9l4.7813-30.2705C169.5815,112.4186,174.3627,121.193,174.3627,121.193Z"/><path class="e" d="M136.1127,109.2468l-5.57,31.0752-19.1211-3.2032-2.3906-31.8642C126.55,102.0749,136.1127,109.2468,136.1127,109.2468Z"/><path class="e" d="M93.0854,107.6452,97.0776,138.72l-16.7305,6.3789-7.9609-29.5C77.1674,110.0358,93.0854,107.6452,93.0854,107.6452Z"/><path class="c" d="M57.23,134.7282l2.5313,7.9375-.1407.0469S41.308,133.1462,42.0971,117.99c.7891-15.126,10.3516-33.4619,47.8086-37.4306,37.457-3.9922,93.2305,7.9609,124.3086,31.8593,31.0273,23.8643,20.7734,46.9541-1.4844,51.7823,1.8906-2.8907,3.082-4.7579,3.082-4.7579s13.5313-19.121-12.7617-36.6718c-24.8359-16.54-55.75-26.22-85.4843-27.5088-14.2266-.6016-30.5782.1172-43.4375,6.8359C64.183,107.2858,53.3549,122.56,57.23,134.7282Z"/><path class="f" d="M252.4565,128.3649a6.7676,6.7676,0,1,1-6.7617,6.77A6.7593,6.7593,0,0,1,252.4565,128.3649Z"/><path class="f" d="M146.4877,60.6218a6.7773,6.7773,0,1,1-6.789,6.789A6.7759,6.7759,0,0,1,146.4877,60.6218Z"/><path class="f" d="M20.9877,74.1764a6.7774,6.7774,0,1,1-6.789,6.7657A6.7735,6.7735,0,0,1,20.9877,74.1764Z"/><path class="d" d="M269.98,147.8024c-15.7265,20.7031-58.9453,19.6016-58.9453,19.6016l-.2656-.1875c.7187-1.0781,1.3867-2.1055,1.9609-3.0156,22.2578-4.8282,32.5117-27.918,1.4844-51.7823C183.1362,88.52,127.3627,76.5671,89.9057,80.5593,52.4487,84.528,42.8862,102.8639,42.0971,117.99c-.7891,15.1563,17.5234,24.7227,17.5234,24.7227l.1407-.0469,1.8672,5.8555C-7.1685,117.42-1.5279,85.3171,1.6518,76.52,9.2768,67.1452,43.433,34.71,140.1049,51.8718,245.6948,70.5905,275.98,130.1384,269.98,147.8024Zm-10.7578-12.6679a6.7637,6.7637,0,1,0-6.7656,6.7656A6.7593,6.7593,0,0,0,259.2221,135.1345ZM153.2534,67.4108a6.7774,6.7774,0,1,0-6.7657,6.7656A6.7759,6.7759,0,0,0,153.2534,67.4108Zm-125.5,13.5313a6.7774,6.7774,0,1,0-6.7657,6.789A6.7735,6.7735,0,0,0,27.7534,80.9421Z"/><path class="d" d="M150.8627,1.2663a89.0444,89.0444,0,0,1,30.961,10.52C173.7651,20.3444,159.23,9.6335,159.23,9.6335c-15.9453,13.5527-23.9062-3.18-23.9062-3.18-14.3438,5.2109-23.3516-.7891-26.1485-3.1074A99.5774,99.5774,0,0,1,150.8627,1.2663Z"/><path class="g" d="M219.3979,56.2233c67.293,34.1836,56.1758,76.11,56.1758,76.11a27.2422,27.2422,0,0,1-5.5938,15.4687c6-17.664-24.2851-77.2119-129.875-95.9306C43.433,34.71,9.2768,67.1452,1.6518,76.52a14.06,14.06,0,0,1,1-2.3438C2.7026,74.0827,16.71,39.18,66.9565,28.5651c21.0625-4.4707,48.48-4.6621,83.9062,3.7774C179.8393,39.2507,202.1869,47.4753,219.3979,56.2233Z"/><path class="h" d="M181.8237,11.7858a86.1162,86.1162,0,0,1,37.5742,44.4375c-17.211-8.748-39.5586-16.9726-68.5352-23.8808-35.4258-8.44-62.8437-8.2481-83.9062-3.7774,1.6484-1.9355,16.039-18.1426,42.2187-25.2187,2.7969,2.3183,11.8047,8.3183,26.1485,3.1074,0,0,7.9609,16.7324,23.9062,3.18C159.23,9.6335,173.7651,20.3444,181.8237,11.7858Z"/><path class="i" d="M181.8237,11.7858c30.5547,30.836-26.5782,17.77-61.6368,12.1914-17.7929-2.83-19.57-11.2011-17.0117-18.7636-22.3593,7.7148-34.6992,21.57-36.2187,23.3515,21.0625-4.4707,48.48-4.6621,83.9062,3.7774,28.9766,6.9082,51.3242,15.1328,68.5352,23.8808A86.1162,86.1162,0,0,0,181.8237,11.7858Z"/><path class="j" d="M234.726,64.9889c18.1524,17.0469,25.41,38.3125-12.5469,12.375C174.3705,44.694,89.9057,39.9147,67.5971,43.8971c-22.3125,3.9844-35.0625,5.58-31.875-1.5917.5469-1.2227,2.0547-2.7266,4.1641-4.3692C11.4565,52.321,2.6909,74.0983,2.6518,74.1764a14.06,14.06,0,0,0-1,2.3438C9.2768,67.1452,43.433,34.71,140.1049,51.8718c105.59,18.7187,135.875,78.2666,129.875,95.9306a27.2422,27.2422,0,0,0,5.5938-15.4687S284.8549,97.1686,234.726,64.9889Z"/><path class="k" d="M46.8784,94.8952c-11.1563,9.5625-28.6875,14.3437-37.4532-6.375a23.7358,23.7358,0,0,1,.2539-19.7813A53.0667,53.0667,0,0,0,1.6518,76.52c-3.18,8.7969-8.82,40.8994,59.9766,72.001l-1.8672-5.8555-.1407.0469S41.308,133.1462,42.0971,117.99c.7891-15.126,10.3516-33.4619,47.8086-37.4306,19.3164-2.0625,43.4922.1328,66.6445,6.0039C99.7377,65.9675,57.476,85.8093,46.8784,94.8952Z"/><path class="k" d="M227.6284,84.7624c14.5937,22.2031,5.621,28.8359-27.7071,18.4062a114.2451,114.2451,0,0,1,14.293,9.25c31.0273,23.8643,20.7734,46.9541-1.4844,51.7823-.5742.91-1.2422,1.9375-1.9609,3.0156l.2656.1875s43.2188,1.1015,58.9453-19.6016C273.7846,136.5993,262.96,108.5593,227.6284,84.7624ZM252.4565,141.9a6.7676,6.7676,0,1,1,6.7656-6.7656A6.7427,6.7427,0,0,1,252.4565,141.9Z"/><path class="l" d="M230.3119,130.1227c-6.4882,1.9453-28.7773-18.0634-61.52-28.0556-47.0156-14.3438-96.414-18.3282-109.9609,10.3593-8.0508,17.0479-13.57,12.1416-16.7188,5.36l-.0156.2031c-.7891,15.1563,17.5234,24.7227,17.5234,24.7227l.1407-.0469L57.23,134.7282c-3.875-12.168,6.9531-27.4424,16.8985-32.63,12.8593-6.7187,29.2109-7.4375,43.4375-6.8359,29.7343,1.289,60.6484,10.9687,85.4843,27.5088,26.293,17.5508,12.7617,36.6718,12.7617,36.6718s-1.1914,1.8672-3.082,4.7579C229.3471,160.5954,239.2651,146.81,230.3119,130.1227Z"/><path class="k" d="M147.2768,152.2673c-16.4063-7.6172-40.543-7.0625-50.6016-16.68l.4024,3.1328-16.7305,6.3789-7.9609-29.5c4.7812-5.5635,20.6992-7.9541,20.6992-7.9541l.914,7.11c4.8438-10.6259,17.918-16.2041,29.6133-19.11-2.0156-.1641-4.039-.2969-6.0468-.3828-14.2266-.6016-30.5782.1172-43.4375,6.8359-9.9454,5.1875-20.7735,20.4619-16.8985,32.63l2.5313,7.9375,1.8672,5.8555,6.7656,21.2734s.6679,4.5469,6.1875,10.5195l.1953-.1679s-15.9453-24.6953,27.082-30.2657c19.5117-2.5312,35.8711-.4531,49.0117,3.961C149.6713,153.3376,148.4721,152.822,147.2768,152.2673Z"/><path class="k" d="M203.05,122.7712a156.295,156.295,0,0,0-15.4218-8.9932c6.6562,7.72,10.5859,16.3682,11.3867,23.915a41.9728,41.9728,0,0,1,5.6367,6.5977l-17.5234,19.9336-4.9454-4.6172c-7.2226,1.0938-16.0546-.3047-25.2031-3.4414,12.6016,5.3438,21.6719,12.84,26.9453,20.0117,11.1641,15.1328-.789,23.9063-7.1718,26.2969l.0468.6719a38.0961,38.0961,0,0,0,15.1094-9.4453c3.7031-3.7032,13.0039-17.57,18.8594-26.4844.7187-1.0781,1.3867-2.1055,1.9609-3.0156,1.8906-2.8907,3.082-4.7579,3.082-4.7579S229.3432,140.322,203.05,122.7712Z"/><path class="m" d="M128.1518,155.4548s46.2187,7.9687,52.5937,31.8711C180.7455,187.3259,181.5424,155.4548,128.1518,155.4548Z"/><path class="m" d="M127.3549,86.9264S76.3627,78.1608,54.05,108.4421C54.05,108.4421,58.8315,73.38,127.3549,86.9264Z"/><polygon class="m" points="77.16 116.412 81.937 134.74 86.718 132.349 82.738 114.02 77.16 116.412"/><polygon class="m" points="113.015 108.442 113.812 129.162 118.593 128.357 120.98 107.645 113.015 108.442"/><polygon class="m" points="152.058 114.818 149.667 134.74 153.652 135.533 159.23 116.412 152.058 114.818"/><polygon class="m" points="187.917 133.138 179.152 150.673 182.339 153.861 194.292 137.923 187.917 133.138"/></svg>