<svg xmlns="http://www.w3.org/2000/svg" viewBox="0 0 96.51 156.89"><defs><style>.a{fill:#9b342f;}.b{fill:#389b13;}.c{fill:#32687f;}.d{fill:#0c0b0b;opacity:0.3;}.e,.i{fill:#fff;}.e{opacity:0.1;}.f{fill:#4ee224;}.g{fill:#3a1212;}.h{fill:#541919;}.i{opacity:0.2;}.j{fill:none;stroke:#4ee224;stroke-miterlimit:10;stroke-width:2.19px;}</style></defs><polygon class="a" points="29.17 77.52 1.9 118.77 32.03 109.17 29.17 77.52"/><path class="a" d="M5.42,86.42c-3,3.63-3.52,10.23-3.52,10.23h7S8.4,90.05,5.42,86.42Z"/><path class="b" d="M48,19,26.42,46.2c.07,1.44.19,3,.34,4.7l1.57,17.32,1.46-.9L28.59,54c-.15-1.57-.25-3-.32-4.3L48,24.82,68.2,50.28c-.07,1.15-.16,2.39-.29,3.74l-1.22,13.6,1.46.9L69.74,50.9c.14-1.46.24-2.82.31-4.08Z"/><path class="c" d="M68.2,50.28,48,24.82,28.27,49.72c.07,1.31.17,2.73.32,4.3l1.2,13.3L48,56.1l18.7,11.52L67.91,54C68,52.67,68.13,51.43,68.2,50.28Z"/><path class="d" d="M29.17,77.52s-.79,21,1.13,32.2l1.73-.55Z"/><path class="d" d="M10.83,105.25v10.67l1-.32S12.45,113.05,10.83,105.25Z"/><polygon class="a" points="67.35 77.52 94.62 118.77 64.49 109.17 67.35 77.52"/><path class="a" d="M91.1,86.42c3,3.63,3.52,10.23,3.52,10.23h-7S88.11,90.05,91.1,86.42Z"/><path class="d" d="M67.35,77.52s.79,21-1.13,32.2l-1.73-.55Z"/><path class="d" d="M85.68,105.25v10.67l-1-.32S84.06,113.05,85.68,105.25Z"/><polygon class="e" points="47.99 18.99 47.99 56.1 28.33 68.22 26.42 46.2 47.99 18.99"/><path class="f" d="M0,127.08a2.2,2.2,0,0,0,2.19,2.19H8.64a2.2,2.2,0,0,0,2.19-2.19V124.8H0Z"/><path class="f" d="M10.83,96.2A2.2,2.2,0,0,0,8.64,94H2.19A2.2,2.2,0,0,0,0,96.2V121H10.83Z"/><rect class="a" y="120.96" width="10.83" height="3.84"/><path class="f" d="M96.51,96.2A2.2,2.2,0,0,0,94.32,94H87.88a2.21,2.21,0,0,0-2.2,2.2V121H96.51Z"/><path class="f" d="M85.68,127.08a2.2,2.2,0,0,0,2.2,2.19h6.44a2.2,2.2,0,0,0,2.19-2.19V124.8H85.68Z"/><rect class="a" x="85.68" y="120.96" width="10.83" height="3.84"/><path class="d" d="M0,127.08a2.2,2.2,0,0,0,2.19,2.19H8.64a2.2,2.2,0,0,0,2.19-2.19Z"/><path class="d" d="M85.68,127.08a2.2,2.2,0,0,0,2.2,2.19h6.44a2.2,2.2,0,0,0,2.19-2.19Z"/><path class="d" d="M0,96.2A2.2,2.2,0,0,1,2.19,94H8.64a2.2,2.2,0,0,1,2.19,2.2Z"/><path class="d" d="M85.68,96.2a2.21,2.21,0,0,1,2.2-2.2h6.44a2.2,2.2,0,0,1,2.19,2.2Z"/><polygon class="f" points="31.08 98.67 34.2 133.28 46.49 133.28 47.89 133.28 62.3 133.28 65.38 99.15 47.99 81.76 31.08 98.67"/><polygon class="f" points="66.8 83.48 68.15 68.52 47.99 56.1 28.33 68.22 29.66 83 47.99 64.68 66.8 83.48"/><polygon class="a" points="47.99 64.68 29.66 83 31.08 98.67 47.99 81.76 65.38 99.15 66.8 83.48 47.99 64.68"/><path class="f" d="M68.37,30.93l-4.5-7.6L48,7.45l-14.6,14.6-5.26,8.88S25.7,33,26.42,46.2L48,19,70.05,46.82C70.87,33.05,68.37,30.93,68.37,30.93Z"/><path class="a" d="M63.87,23.33,51.78,2.91A5.34,5.34,0,0,0,48.25,0s-2,.26-3.52,2.91L33.39,22.05,48,7.45Z"/><path class="g" d="M39.19,146.37s-7.48,4.48,0,10.52C39.19,156.89,46,151.77,39.19,146.37Z"/><path class="g" d="M57.56,146.37s7.48,4.48,0,10.52C57.56,156.89,50.73,151.77,57.56,146.37Z"/><rect class="a" x="27.39" y="129.27" width="41.83" height="15.38" rx="2.19"/><path class="d" d="M69.21,142.45a2.2,2.2,0,0,1-2.19,2.2H29.58a2.2,2.2,0,0,1-2.19-2.2Z"/><path class="d" d="M69.21,131.47a2.2,2.2,0,0,0-2.19-2.2H29.58a2.2,2.2,0,0,0-2.19,2.2Z"/><polygon class="h" points="62.3 145.91 61.87 144.65 52.76 144.65 52.34 145.91 49.78 153.54 56.52 153.54 58.12 153.54 64.86 153.54 62.3 145.91"/><polygon class="d" points="62.3 145.91 61.87 144.65 52.76 144.65 52.34 145.91 62.3 145.91"/><polygon class="h" points="43.72 144.65 34.6 144.65 34.18 145.91 31.62 153.54 38.36 153.54 39.96 153.54 46.7 153.54 44.14 145.91 43.72 144.65"/><polygon class="d" points="44.14 145.91 43.72 144.65 34.6 144.65 34.18 145.91 44.14 145.91"/><polygon class="i" points="47.99 18.99 47.99 56.1 49.12 56.8 60.81 35.16 47.99 18.99"/><polygon class="i" points="64.11 39.32 53.14 59.27 54.52 60.13 65.09 40.56 64.11 39.32"/><polygon class="i" points="70.05 46.82 66.92 42.87 56.88 61.58 68.15 68.52 70.05 46.82"/><polygon class="i" points="60.81 35.16 49.12 56.8 53.14 59.27 64.11 39.32 60.81 35.16"/><polygon class="i" points="60.81 35.16 49.12 56.8 53.14 59.27 64.11 39.32 60.81 35.16"/><polygon class="i" points="65.09 40.56 54.52 60.13 56.88 61.58 66.92 42.87 65.09 40.56"/><polygon class="i" points="65.09 40.56 54.52 60.13 56.88 61.58 66.92 42.87 65.09 40.56"/><polygon class="i" points="35.15 35.17 46.84 56.81 42.82 59.29 31.86 39.33 35.15 35.17"/><polygon class="i" points="30.87 40.57 41.44 60.14 39.08 61.59 29.04 42.88 30.87 40.57"/><line class="j" x1="47.99" y1="16.07" x2="47.99" y2="60.88"/></svg>