<svg xmlns="http://www.w3.org/2000/svg" viewBox="0 0 74.55 157.27"><defs><style>.a{fill:#5e4d42;}.b{fill:#8e7564;}.c{fill:#d66f1a;}.d{fill:#b75a15;}.e{fill:#b75b16;}.f{fill:#bc9980;}.g{fill:#99613a;}.h{fill:#eacab2;}.i{fill:#d6b096;}.j{fill:#351d0c;}.k{fill:#492812;}.l{fill:#fff;opacity:0.2;}</style></defs><polygon class="a" points="43.66 104.96 39.41 104.96 35.85 104.96 31.59 104.96 20.95 136.68 35.85 136.68 39.41 136.68 54.32 136.68 43.66 104.96"/><polygon class="b" points="49.35 107.21 37.63 107.21 25.91 107.21 18.82 121.94 37.63 121.94 56.45 121.94 49.35 107.21"/><path class="c" d="M37.63,0s-22,12.43-22,43.31v67.45h44V43.31C59.64,12.43,37.63,0,37.63,0Z"/><path class="d" d="M59.64,43.31c0-20.28-9.49-32.6-16-38.67a35.36,35.36,0,0,0-6-4.64,36.09,36.09,0,0,0-6.19,4.81c-6.51,6.13-15.82,18.41-15.82,38.5Z"/><path class="e" d="M59.64,43.31c0-30.88-22-43.31-22-43.31s-22,12.43-22,43.31Z"/><rect class="f" x="15.62" y="94.1" width="43.67" height="16.66"/><path class="g" d="M25.43,102.43a3.8,3.8,0,1,0-3.8,3.8A3.8,3.8,0,0,0,25.43,102.43Z"/><path class="g" d="M41.07,102.43a3.8,3.8,0,1,0-3.79,3.8A3.8,3.8,0,0,0,41.07,102.43Z"/><path class="g" d="M56.72,102.43a3.8,3.8,0,1,0-3.8,3.8A3.8,3.8,0,0,0,56.72,102.43Z"/><path class="h" d="M17.75,79.88s-8.52-1.07-11,13.84S0,157.27,0,157.27l13-38.71,13-38.7Z"/><path class="i" d="M25.92,79.86l-13,38.7L0,157.27S12.78,80.55,25.92,79.86Z"/><path class="h" d="M56.8,79.88s8.52-1.07,11,13.84,6.74,63.55,6.74,63.55l-13-38.71-13-38.7Z"/><path class="i" d="M48.64,79.86l13,38.7,13,38.71S61.77,80.55,48.64,79.86Z"/><circle class="j" cx="37.28" cy="61.89" r="11.24"/><path class="e" d="M37.28,53.13a8.76,8.76,0,1,1-8.76,8.76,8.76,8.76,0,0,1,8.76-8.76m0-5A13.73,13.73,0,1,0,51,61.89,13.75,13.75,0,0,0,37.28,48.16Z"/><path class="k" d="M37.28,54.55a7.34,7.34,0,1,1-7.34,7.34,7.34,7.34,0,0,1,7.34-7.34m0-1.42A8.76,8.76,0,1,0,46,61.89a8.76,8.76,0,0,0-8.75-8.76Z"/><path class="l" d="M40.21,56l-7.79,10.3a3.16,3.16,0,0,0,1.85,1.47l7.83-10.4A3.33,3.33,0,0,0,40.21,56Z"/><path class="l" d="M42.61,57.9,34.82,68a2.08,2.08,0,0,0,.71.38L43,58.46S43,58.27,42.61,57.9Z"/></svg>