<svg xmlns="http://www.w3.org/2000/svg" viewBox="0 0 326.424 247.3454"><defs><style>.a{fill:#ffe46f;}.b{fill:#414042;}.c{fill:#231f20;}.d{fill:#d1d3d4;}.e{fill:#f1f2f2;}.f{fill:#be1e2d;}.g{fill:#ffd461;}.h{fill:#fff795;}.i{fill:#fec555;}.j{fill:#e6e7e8;}.k{fill:#a31724;}.l{fill:#8e0f1b;}</style></defs><path class="a" d="M215.696,50.8779c15.7266,16.9492,23.7617,41.8086,27.586,64.1875,0,0-12.7422,24.6914-58.16,32.6758a166.1922,166.1922,0,0,1-43.82,0c-45.418-7.961-58.16-32.6524-58.1836-32.6758-2.125-4.1133,4.09-20.0352,5.4766-24.48a104.04,104.04,0,0,1,8.582-19.9375,90.1322,90.1322,0,0,1,14.1016-19.0742,78.8158,78.8158,0,0,1,11.5468-9.707c17.4727-11.9024,39.3243-15.6328,63.2266-9.2032a60.1991,60.1991,0,0,1,18.1914,8.293A64.2006,64.2006,0,0,1,215.696,50.8779Z"/><path class="b" d="M220.9773,214.7216c-.5,1.5079-11.2813,33.3985-50.1992,32.6094-44.7735,0-59.4532-27.4922-61.793-32.6328C134.321,219.05,177.5906,223.5888,220.9773,214.7216Z"/><path class="c" d="M189.1023,242.55c-32.793,0-49.43-14.7422-56.91-24.6563-8.7383-.918-16.5937-2.0625-23.207-3.1953,2.34,5.1406,17.0195,32.6328,61.793,32.6328a55.28,55.28,0,0,0,25.1054-4.9922A65.9093,65.9093,0,0,1,189.1023,242.55Z"/><path class="d" d="M271.1765,150.9209c9.5625,8.77,8.7734,18.332-1.6016,23.9023-10.3476,5.57-28.6836,11.1641-35.0429-7.9609,0,0-7.9844-15.9414,3.9687-22.3243C250.4538,138.1787,261.614,142.1474,271.1765,150.9209Z"/><path class="d" d="M224.157,174.8232c4.7812,10.3516-.7891,17.5234-15.1328,19.9141-14.34,2.3906-28.6836,5.5937-28.6836-13.5313,0,0-1.6016-19.9375,15.1328-21.5156C212.2038,158.0888,219.3757,164.4716,224.157,174.8232Z"/><path class="e" d="M271.1765,150.9209c-6.1563-5.6524-12.9844-9.2852-20.2539-9.4766a38.3287,38.3287,0,0,1,12.2851,7.8789c9.5625,8.7734,8.7735,18.3359-1.6015,23.9063-4.8438,2.6093-11.4375,5.2187-17.7305,5.3007,8.1211,3.8047,18.7227.0508,25.6992-3.707C279.95,169.2529,280.739,159.69,271.1765,150.9209Z"/><path class="e" d="M224.157,174.8232c-4-8.6641-9.6993-14.5234-21.2539-15.2734,6.4609,2.4218,10.332,7.289,13.2851,13.68,4.7813,10.3515-.789,17.5234-15.1328,19.914-5.09.8477-10.1641,1.7813-14.6094,1.8008,5.5117,2.8945,14.0313,1.2148,22.5782-.207C223.3679,192.3466,228.9382,185.1748,224.157,174.8232Z"/><path class="f" d="M220.9773,214.7216c-43.3867,8.8672-86.6563,4.3282-111.9922-.0234-14.1055-2.4375-22.6641-4.8047-22.6641-4.8047-99.6093-30.289-88.4472-66.1445-82.875-72.5273,20.7227-24.6914,79.6719-22.3008,79.6719-22.3008.0234.0234,12.7656,24.7148,58.1836,32.6758a166.1922,166.1922,0,0,0,43.82,0c45.418-7.9844,58.16-32.6758,58.16-32.6758s58.9726-2.3906,79.6992,22.3008c5.5664,6.3828,16.7305,42.2383-82.8789,72.5273C233.7663,211.831,227.3835,213.4091,220.9773,214.7216Zm48.5976-39.8984c10.375-5.57,11.1641-15.1328,1.6016-23.9023-9.5625-8.7735-20.7227-12.7422-32.6758-6.3829-11.9531,6.3829-3.9687,22.3243-3.9687,22.3243C240.8913,185.9873,259.2273,180.3935,269.5749,174.8232Zm-60.5507,19.9141c14.3437-2.3907,19.914-9.5625,15.1328-19.9141s-11.9532-16.7344-28.6836-15.1328c-16.7344,1.5781-15.1328,21.5156-15.1328,21.5156C180.3406,200.331,194.6843,197.1279,209.0242,194.7373Z"/><path class="b" d="M245.6726,9.8818c7.1719,7.9609,13.5547,19.9141,3.2031,31.0742-10.375,11.1641-27.8984,1.6016-27.8984,1.6016l-5.2813,8.32a64.2006,64.2006,0,0,0-11.4531-9.9219l6.3828-7.1719s-12.7656-14.34-1.6015-27.082C220.1882-6.06,238.5007,1.9209,245.6726,9.8818Z"/><path class="b" d="M122.18,40.956l.6445.91a78.8158,78.8158,0,0,0-11.5468,9.707l-.2618-.2656-5.57-8.75S87.8992,52.12,77.5476,40.956c-10.3477-11.16-3.9922-23.1133,3.18-31.0742s25.5078-15.9414,36.6719-3.18c11.1406,12.7422-1.6016,27.082-1.6016,27.082Z"/><path class="c" d="M122.18,40.956l-6.3828-7.1719a28.3961,28.3961,0,0,0,5.543-10.6484c-4.6446,9.07-23.9375,18.6094-35.0274,8.2656C80.5085,25.98,79.04,18.3193,79.0515,11.8545,72.657,19.7451,68.02,30.6787,77.5476,40.956,87.8992,52.12,105.446,42.5576,105.446,42.5576l5.57,8.75.2618.2656a78.8158,78.8158,0,0,1,11.5468-9.707Z"/><path class="c" d="M220.9773,32.1943c-11.09-13.168-11.3125-26.3281,3.4961-32.1523a19.0478,19.0478,0,0,0-15.4492,6.66c-11.1641,12.7422,1.6015,27.082,1.6015,27.082l-6.3828,7.1719a64.2006,64.2006,0,0,1,11.4531,9.9219l5.2813-8.32s16.8867,9.1758,27.3164-1.0664C241.18,42.4482,229.3718,42.1591,220.9773,32.1943Z"/><path class="g" d="M129.3406,72.0341c11.9218-27.18,32.3984-37.5156,46.9257-41.4414-20.07-3.1523-38.3828,1.0157-53.4414,11.2735a78.8158,78.8158,0,0,0-11.5468,9.707A90.1322,90.1322,0,0,0,97.1765,70.6474a104.04,104.04,0,0,0-8.582,19.9375c-1.3868,4.4453-7.6016,20.3672-5.4766,24.48.0234.0234,12.7656,24.7148,58.1836,32.6758a166.1922,166.1922,0,0,0,43.82,0c45.418-7.9844,58.16-32.6758,58.16-32.6758C182.7156,164.4638,109.4226,117.456,129.3406,72.0341Z"/><path class="h" d="M213.29,67.3076c-5.211-12.3516-17.3086-24-27.1055-24.1992C164.9031,42.6748,166.0476,68.28,175.5593,80.8c6.7578,8.8945,25.0508,18.7617,35.1445,10.0312C217.22,85.19,216.9851,76.0693,213.29,67.3076Z"/><path class="i" d="M101.4538,86.3779c4.1172-26.2344,21.836-42.8242,33.8907-51.3008a70.8616,70.8616,0,0,0-12.52,6.7891,78.8158,78.8158,0,0,0-11.5468,9.707A90.1322,90.1322,0,0,0,97.1765,70.6474a104.04,104.04,0,0,0-8.582,19.9375c-1.3868,4.4453-7.6016,20.3672-5.4766,24.48.0234.0234,12.7656,24.7148,58.1836,32.6758a166.1922,166.1922,0,0,0,43.82,0c2.5-.4414,4.8828-.9375,7.1875-1.4727C141.739,151.999,95.6257,123.5263,101.4538,86.3779Z"/><ellipse class="j" cx="102.6492" cy="12.2763" rx="8.3672" ry="7.1719"/><path class="j" d="M238.1257,18.9091c-2.7695,2.84-7.6953,2.5235-11-.7031-3.3086-3.2265-3.75-8.1406-.9883-10.9726,2.77-2.84,7.6953-2.52,11,.707C240.446,11.163,240.8913,16.0732,238.1257,18.9091Z"/><path class="k" d="M322.9812,137.3662c-20.7266-24.6914-79.6992-22.3008-79.6992-22.3008s-4.3047,8.3086-16.7735,16.8437c17.8477-1.3164,40.5039-.3711,55.6211,10.3516,37.5078,26.6133-36.664,65.7813-57.4961,70.875-14.4414,3.5352-30.2578,4.7188-45.0937,4.7188-75.6992,0-127.4883-21.5157-144.2227-47.0118-16.7344-25.5,15.1367-38.2461,71.7149-23.9023,24.43,6.1914,44.0937,5.25,58.5625,2.18a150.73,150.73,0,0,1-24.293-1.3789c-45.418-7.961-58.16-32.6524-58.1836-32.6758,0,0-58.9492-2.3906-79.6719,22.3008-5.5722,6.3828-16.7343,42.2383,82.875,72.5273,0,0,8.5586,2.3672,22.6641,4.8047,25.3359,4.3516,68.6055,8.8906,111.9922.0234,6.4062-1.3125,12.789-2.8906,19.125-4.8281C339.7117,179.6045,328.5476,143.749,322.9812,137.3662Z"/><path class="l" d="M17.1882,135.3818c13.1289-15.0039,54.9453-13.4531,72.3555-12.09a39.8883,39.8883,0,0,1-6.4258-8.2266S24.1687,112.6748,3.446,137.3662c-3.98,4.5625-10.81,24.18,21.9805,46.0586C9.68,169.5693,1.2859,153.5576,17.1882,135.3818Z"/><path class="l" d="M322.9812,137.3662c-20.7266-24.6914-79.6992-22.3008-79.6992-22.3008a34.9671,34.9671,0,0,1-4.3789,5.9883c105.0351,1.9883,69.3281,56.16,69.3281,56.16-1.8164,1.7188-3.6328,3.3789-5.4531,5.0039C333.5437,160.8271,326.8874,141.8466,322.9812,137.3662Z"/></svg>