<svg xmlns="http://www.w3.org/2000/svg" viewBox="0 0 293.1 356.5"><defs><style>.a{fill:#0a82a3;}.b{fill:#1f2121;}.c{fill:#f26522;}</style></defs><path class="a" d="M95.1,218.9,14.7,277.6A27.3307,27.3307,0,0,0,3.5,299.7v22.5l112.7-25.4Z"/><path class="b" d="M0,326.5V299.7a30.9761,30.9761,0,0,1,12.6-24.9l84.5-61.7,23.4,86.2ZM93,224.8,16.7,280.5a24.0625,24.0625,0,0,0-9.8,19.2v18.1l104.9-23.7Z"/><path class="a" d="M198,218.9l80.4,58.7a27.3307,27.3307,0,0,1,11.2,22.1v22.5L176.9,296.8Z"/><path class="b" d="M293.1,326.5,172.5,299.3l23.4-86.2,84.5,61.7A30.9761,30.9761,0,0,1,293,299.7v26.8ZM181.2,294.1l104.9,23.7V299.7a23.7789,23.7789,0,0,0-9.8-19.2L200,224.8Z"/><path class="c" d="M140.1,6.3c-22.8,23.5-94,117.9-24.4,328.3v18.5h61.8V334.6c69.6-210.4-1.6-304.8-24.4-328.3A9,9,0,0,0,140.1,6.3Z"/><path class="b" d="M180.9,356.5H112.1V335.1c-69.7-211.3,1.8-307,25.4-331.3a12.3219,12.3219,0,0,1,9-3.8,12.7235,12.7235,0,0,1,9,3.8c23.6,24.3,95.1,120,25.4,331.3v21.4Zm-61.7-7H174V334l.2-.5C243,125.6,173.5,32.4,150.6,8.8a5.5559,5.5559,0,0,0-8,0C119.7,32.4,50.3,125.6,119,333.5l.2.5v15.5Z"/><rect class="b" x="143" y="79.3" width="7" height="273.8"/><path class="a" d="M146.5,79.3a156.5987,156.5987,0,0,0,45.4-6.5c-12.5-35.8-29.7-57-39-66.5a9,9,0,0,0-13,0c-9.2,9.5-26.4,30.7-39,66.5A163.6348,163.6348,0,0,0,146.5,79.3Z"/><path class="b" d="M146.5,82.8A161.8176,161.8176,0,0,1,100,76.2l-3.5-1.1,1.2-3.5c12.8-36.5,30.4-58.1,39.7-67.8a12.3218,12.3218,0,0,1,9-3.8,12.7238,12.7238,0,0,1,9,3.8c9.4,9.6,27,31.3,39.7,67.8l1.2,3.5-3.5,1.1A162.9265,162.9265,0,0,1,146.5,82.8ZM105.7,70.4a157.048,157.048,0,0,0,40.9,5.3,157.0488,157.0488,0,0,0,40.9-5.3c-12.2-33.1-28.3-52.8-36.9-61.7a5.5557,5.5557,0,0,0-8,0C133.9,17.6,117.9,37.3,105.7,70.4Z"/><path class="a" d="M146.5,210.8a9.9226,9.9226,0,0,0-9.9,9.9V340.6h19.7V220.7A9.7125,9.7125,0,0,0,146.5,210.8Z"/><path class="b" d="M159.9,344.1H133.2V220.7a13.4,13.4,0,1,1,26.8,0V344.1Zm-19.7-7h12.7V220.7a6.4,6.4,0,1,0-12.8,0V337.1Z"/><rect class="b" x="68.5495" y="237.5615" width="7" height="26.1999" transform="translate(-55.5104 23.1735) rotate(-13.2441)"/><rect class="b" x="40.915" y="257.313" width="6.9999" height="18.6998" transform="matrix(0.966, -0.2585, 0.2585, 0.966, -67.4235, 20.5451)"/><rect class="b" x="207.8679" y="247.1299" width="26.1999" height="7" transform="translate(-73.6198 408.3011) rotate(-76.7559)"/><rect class="b" x="239.2479" y="263.2052" width="18.7008" height="7.0003" transform="translate(-73.3383 437.8476) rotate(-75.0077)"/><rect class="b" x="112.7" y="76.4" width="7" height="28.4"/><rect class="b" x="112.7" y="113.1" width="7" height="11.1"/><rect class="b" x="173.4" y="76.4" width="7" height="28.4"/><rect class="b" x="173.4" y="113.1" width="7" height="11.1"/><rect class="b" x="1.1611" y="292.9506" width="101.5015" height="7.0001" transform="translate(-85.7863 28.837) rotate(-17.2952)"/><rect class="b" x="237.6424" y="245.7581" width="7.0001" height="101.5015" transform="translate(-113.6505 438.5974) rotate(-72.7048)"/></svg>