<svg xmlns="http://www.w3.org/2000/svg" viewBox="0 0 299.7757 191.0727"><defs><style>.a{fill:#6d6e71;}.b{fill:#286a94;}.c{fill:#0c769c;}.d{fill:#a7a9ac;}.e{fill:#faa94f;}.f{fill:#f89c43;}.g{fill:#f1eb5b;}.h{fill:#edd055;}.i{fill:#fff572;}.j{fill:#939598;}.k{fill:#bcbec0;}.l{fill:#fff;}.m{fill:#58595b;}</style></defs><path class="a" d="M206.28,171.7094l.0234.1914s-8.9649,20.3164-53.7852,19.1211c-39.1562-1.0507-53.6914-19.41-56.75-24.0468a298.18,298.18,0,0,0,54.3594,7.3125A283.1167,283.1167,0,0,0,206.28,171.7094Z"/><path class="b" d="M230.6632,51.2524a71.8221,71.8221,0,0,1,2.914,8.3672c.7422,2.6992,1.0078,4.3008,1.0078,4.3008s1.43,7.2187-3.875,15.207C210.5616,43.7719,214.7647,31.53,216.5069,28.6157A80.715,80.715,0,0,1,230.6632,51.2524Z"/><path class="b" d="M163.2725,48.7876c20.32-7.168,35.2383,10.1406,41.836,46.57-12.0235,3.4922-28.9258,5.4726-52.59,4.4218C152.5186,99.78,142.9561,55.9594,163.2725,48.7876Z"/><path class="c" d="M162.6788,92.6079S156.12,62.4985,165.46,48.1157c-.7265.1953-1.4531.414-2.1875.6719C142.9561,55.9594,152.5186,99.78,152.5186,99.78c23.6641,1.0508,40.5664-.93,52.59-4.4218-.2891-1.6016-.6016-3.1485-.9219-4.6719C193.421,92.53,179.835,93.37,162.6788,92.6079Z"/><path class="b" d="M105.3077,41.62c21.9687,4.6367,12.0469,46.1836,9.7734,54.2851-23.7578-4.2773-37.5039-11.164-45.25-18.2148l.2149-.2148S82.5968,36.8383,105.3077,41.62Z"/><path class="c" d="M82.98,75.2993l.2148-.2149s7.73-25.0117,22.0313-33.4765c-22.6563-4.6641-35.18,35.8672-35.18,35.8672l-.2149.2148c7.7461,7.0508,21.4922,13.9375,45.25,18.2148.3086-1.0937.7578-2.8125,1.2422-4.9492C99.71,86.7407,89.3272,81.0766,82.98,75.2993Z"/><path class="d" d="M65.171,44.7485C73.6554,28.0141,96.7491-2.7242,150.9171.1938c33.1054,1.7656,53.332,14.6719,65.59,28.4219-1.7422,2.914-5.9453,15.1562,14.2031,50.5117-3.8515,5.832-11.332,12.0938-25.6015,16.2305-6.5977-36.43-21.5156-53.7383-41.836-46.57C142.9561,55.9594,152.5186,99.78,152.5186,99.78a285.0382,285.0382,0,0,1-37.4375-3.875c2.2735-8.1015,12.1953-49.6484-9.7734-54.2851C82.5968,36.8383,70.046,77.4751,70.046,77.4751l-.2149.2148C60.0538,68.7993,59.7686,59.643,60.89,55.17A60.44,60.44,0,0,1,65.171,44.7485Z"/><path class="e" d="M233.796,59.5454c31.6719,31.6758-15.5391,59.7656-84.2656,57.375S50.3272,85.2446,50.9249,72.1C51.5186,58.9516,60.89,55.17,60.89,55.17c-1.1211,4.4726-.8359,13.6289,8.9414,22.5195,7.7461,7.0508,21.4922,13.9375,45.25,18.2148a285.0382,285.0382,0,0,0,37.4375,3.875c23.6641,1.0508,40.5664-.93,52.59-4.4218,14.2695-4.1367,21.75-10.3985,25.6015-16.2305,5.3047-7.9883,3.875-15.207,3.875-15.207s-.2656-1.6016-1.0078-4.3008Z"/><path class="f" d="M234.3272,70.479a23.5172,23.5172,0,0,0,2.5625-7.5157c-.9375-1.1328-1.9531-2.2695-3.0937-3.4179l-.2188.0742c.7422,2.6992,1.0078,4.3008,1.0078,4.3008A18.7,18.7,0,0,1,234.3272,70.479Z"/><path class="f" d="M151.921,110.3422c-68.7266-2.3867-99.2071-31.6718-98.6094-44.82a25.26,25.26,0,0,1,.4336-3.582,21.7131,21.7131,0,0,0-2.82,10.16c-.5977,13.1445,29.8789,42.43,98.6055,44.82,51.2187,1.7812,90.4687-13.375,94.039-34.32C233.7491,100.0454,197.6046,111.936,151.921,110.3422Z"/><path class="g" d="M95.7686,166.9516C27.2569,150.9126-7.38,113.1157,1.3194,87.0376,11.3624,56.92,58.8585,46.0688,65.171,44.7485A60.44,60.44,0,0,0,60.89,55.17s-9.3711,3.7812-9.9648,16.93c-.5977,13.1445,29.8789,42.43,98.6055,44.82s115.9375-25.6992,84.2656-57.375l-.2188.0742a71.8221,71.8221,0,0,0-2.914-8.3672c14.8906,2.0547,63.539,18.1211,68.8672,44.1523,3.3515,31.9844-27.6329,66.2657-93.25,76.3047a283.1167,283.1167,0,0,1-56.1524,2.5782,298.18,298.18,0,0,1-54.3594-7.3125Z"/><path class="h" d="M54.7413,60.4165A16.074,16.074,0,0,1,60.89,55.17,60.44,60.44,0,0,1,65.171,44.7485c-3.6289.7578-20.8555,4.6719-36.7656,13.5781C44.1905,51.5219,51.4327,55.2172,54.7413,60.4165Z"/><path class="h" d="M233.796,59.5454a37.8478,37.8478,0,0,1,8.2187,11.5156c3.6758-15.125,28.8672-5.7969,43.586,4.125-17.0352-14.0234-44.4141-22.4805-54.9375-23.9336a71.8221,71.8221,0,0,1,2.914,8.3672Z"/><path class="h" d="M299.53,95.4047a26.4612,26.4612,0,0,0-2.68-7.2343c2.91,12.9609-10.1563,32.0937-28.9922,45.4843C193.753,182.061,74.8272,149.19,38.9718,134.2485,16.7374,124.9868.4952,107.4516.4679,90.479-4.3056,116.3422,30.21,151.6,95.7686,166.9516v.0235a298.18,298.18,0,0,0,54.3594,7.3125,283.1167,283.1167,0,0,0,56.1524-2.5782C271.8975,161.67,302.8819,127.3891,299.53,95.4047Z"/><path class="i" d="M62.1046,128.4047a14.4791,14.4791,0,0,1-4.0742-.3789c-4.836-1.1367-9.7071-3.9023-14.1407-6.0976C32.2686,116.186,19.2061,104.7641,16.5772,91.44,14.5811,81.311,22.2686,66.9438,31.4054,62.9516,47.9835,55.7133,48.28,73.2485,41.921,83.5766c-5.2227,8.4922-2.4961,18.3477,5.0547,24.711,5.3945,4.539,11.7382,8.1015,16.84,12.9687C68.6593,125.8735,66.1163,128.1547,62.1046,128.4047Z"/><path class="i" d="M186.4054,134.2485c23.3945-2.6641,49.414-13.6133,63.1171-28.6836a23.8067,23.8067,0,0,0,5.3868-22.1133S253.37,76.28,260.296,74.4907c6.93-1.7969,13.8554,4.18,19.2422,13.1406,18.2031,30.2852-31.8555,43.75-59.9532,49.18-7.8359,1.5156-37.7343,10.6953-42.414,1.625C175.6632,135.5063,185.98,134.2993,186.4054,134.2485Z"/><path class="j" d="M223.835,66.0688c-2.3437,10.52-8.7968,19.18-19.8828,23.5078.4063,1.8711.7969,3.793,1.1563,5.7813,14.2695-4.1367,21.75-10.3985,25.6015-16.2305C227.9952,74.3618,225.7335,70.03,223.835,66.0688Z"/><path class="j" d="M89.7686,23.69a34.7,34.7,0,0,1,4.93-11.0273A80.0343,80.0343,0,0,0,65.171,44.7485,60.44,60.44,0,0,0,60.89,55.17c-1.1211,4.4726-.8359,13.6289,8.9414,22.5195l.2149-.2148s7.82-25.2813,22.2695-33.6094C89.23,36.6352,88.2843,29.6274,89.7686,23.69Z"/><path class="j" d="M118.9718,74.3813a125.2391,125.2391,0,0,1-3.8907,21.5234,285.0382,285.0382,0,0,0,37.4375,3.875s-.9882-4.539-1.6523-10.9179A103.232,103.232,0,0,1,118.9718,74.3813Z"/><path class="k" d="M139.37,3.9672S111.8819,5.7641,104.71,20.104c-7.1718,14.3437,19.7188,28.09,50.7969,25.6992,31.0742-2.3906,40.6367-11.9531,40.6367-21.5156S177.0225,2.1782,139.37,3.9672Z"/><path class="l" d="M124.1358,9.561s-7.7851,3.0469-8.2656,9.07c-.48,6.0274,8.8711,8.8984,17.6328,5.32s10.4688-8.0078,9.3984-11.6172C141.835,8.7329,134.8741,5.6469,124.1358,9.561Z"/><path class="m" d="M135.3233,173.28a289.0479,289.0479,0,0,1-39.5547-6.3046c3.0586,4.6367,17.5938,22.9961,56.75,24.0468,44.82,1.1953,53.7852-19.1211,53.7852-19.1211l-.0234-.1914C175.8272,193.7172,149.6007,183.0376,135.3233,173.28Z"/></svg>