<?xml version="1.0" encoding="utf-8"?>
<!-- Generator: Adobe Illustrator 25.2.0, SVG Export Plug-In . SVG Version: 6.00 Build 0)  -->
<svg version="1.1"
	 id="Layer_1" xmlns:cc="http://creativecommons.org/ns#" xmlns:dc="http://purl.org/dc/elements/1.1/" xmlns:inkscape="http://www.inkscape.org/namespaces/inkscape" xmlns:rdf="http://www.w3.org/1999/02/22-rdf-syntax-ns#" xmlns:sodipodi="http://sodipodi.sourceforge.net/DTD/sodipodi-0.dtd" xmlns:svg="http://www.w3.org/2000/svg"
	 xmlns="http://www.w3.org/2000/svg" xmlns:xlink="http://www.w3.org/1999/xlink" x="0px" y="0px" viewBox="0 0 448 446.6"
	 style="enable-background:new 0 0 448 446.6;" xml:space="preserve">
<style type="text/css">
	.st0{fill-rule:evenodd;clip-rule:evenodd;fill:#D2D2D2;}
	.st1{fill-rule:evenodd;clip-rule:evenodd;fill:#1BC0FF;}
	.st2{opacity:0.42;fill-rule:evenodd;clip-rule:evenodd;fill:#868686;enable-background:new    ;}
	.st3{fill:#00BADB;}
	.st4{fill:#C9C9C9;}
	.st5{fill:#1EDCFF;}
	.st6{fill:#E8E8E8;}
	.st7{fill:#DADCDB;}
	.st8{fill:#24C3FF;}
	.st9{fill-rule:evenodd;clip-rule:evenodd;fill:#00B5F7;}
</style>
<sodipodi:namedview  bordercolor="#666666" borderopacity="1" gridtolerance="10" guidetolerance="10" id="namedview4843" inkscape:current-layer="g5034" inkscape:cx="193.39487" inkscape:cy="216.61496" inkscape:pageopacity="0" inkscape:pageshadow="2" inkscape:window-height="1001" inkscape:window-maximized="1" inkscape:window-width="1920" inkscape:window-x="-9" inkscape:window-y="-9" inkscape:zoom="1.8101934" objecttolerance="10" pagecolor="#ffffff" showgrid="true">
	<inkscape:grid  id="grid4975" type="xygrid"></inkscape:grid>
</sodipodi:namedview>
<g id="g4933" transform="translate(0,-590)">
</g>
<g id="g5034" transform="matrix(0,1.3071351,-1.3071351,0,644.55555,1303.7992)">
	
		<path id="path4883" sodipodi:cx="263.8327" sodipodi:cy="914.56073" sodipodi:end="3.1415927" sodipodi:open="true" sodipodi:rx="114.32182" sodipodi:ry="81.138268" sodipodi:start="0" sodipodi:type="arc" class="st0" d="
		M-770.7,388.5c0,29-21.8,55.8-57.2,70.3c-35.4,14.5-79,14.5-114.3,0c-35.4-14.5-57.2-41.3-57.2-70.3"/>
	
		<path id="path4920" sodipodi:cx="262.28207" sodipodi:cy="917.04175" sodipodi:end="3.1415927" sodipodi:open="true" sodipodi:rx="107.13324" sodipodi:ry="74.935738" sodipodi:start="0" sodipodi:type="arc" class="st1" d="
		M-779.4,391c0,26.8-20.4,51.5-53.6,64.9c-33.1,13.4-74,13.4-107.1,0c-33.1-13.4-53.6-38.1-53.6-64.9"/>
	
		<path id="path4926" sodipodi:cx="262.59216" sodipodi:cy="915.80127" sodipodi:end="3.1415927" sodipodi:open="true" sodipodi:rx="106.20286" sodipodi:ry="74.935738" sodipodi:start="0" sodipodi:type="arc" class="st0" d="
		M-780.1,389.7c0,26.8-20.2,51.5-53.1,64.9c-32.9,13.4-73.3,13.4-106.2,0c-32.9-13.4-53.1-38.1-53.1-64.9"/>
	
		<path id="path4918" sodipodi:cx="272.75107" sodipodi:cy="903.9682" sodipodi:end="3.1415927" sodipodi:open="true" sodipodi:rx="102.35911" sodipodi:ry="81.138268" sodipodi:start="0" sodipodi:type="arc" class="st2" d="
		M-773.7,377.9c0,29-19.5,55.8-51.2,70.3s-70.7,14.5-102.4,0s-51.2-41.3-51.2-70.3"/>
	
		<path id="path4883-9" sodipodi:cx="263.94193" sodipodi:cy="-780.22375" sodipodi:end="3.1415927" sodipodi:open="true" sodipodi:rx="114.32182" sodipodi:ry="81.138268" sodipodi:start="0" sodipodi:type="arc" class="st0" d="
		M-770.6,254.1c0-29-21.8-55.8-57.2-70.3c-35.4-14.5-79-14.5-114.3,0c-35.4,14.5-57.2,41.3-57.2,70.3"/>
	
		<path id="path4920-3" sodipodi:cx="262.3913" sodipodi:cy="-777.74274" sodipodi:end="3.1415927" sodipodi:open="true" sodipodi:rx="107.13324" sodipodi:ry="74.935738" sodipodi:start="0" sodipodi:type="arc" class="st1" d="
		M-779.3,251.7c0-26.8-20.4-51.5-53.6-64.9c-33.1-13.4-74-13.4-107.1,0s-53.6,38.1-53.6,64.9"/>
	
		<path id="path4926-5" sodipodi:cx="262.70139" sodipodi:cy="-778.98322" sodipodi:end="3.1415927" sodipodi:open="true" sodipodi:rx="106.20286" sodipodi:ry="74.935738" sodipodi:start="0" sodipodi:type="arc" class="st0" d="
		M-779.9,252.9c0-26.8-20.2-51.5-53.1-64.9c-32.9-13.4-73.3-13.4-106.2,0s-53.1,38.1-53.1,64.9"/>
	
		<path id="path4918-0" sodipodi:cx="272.86029" sodipodi:cy="-790.81628" sodipodi:end="3.1415927" sodipodi:open="true" sodipodi:rx="102.35911" sodipodi:ry="81.138268" sodipodi:start="0" sodipodi:type="arc" class="st2" d="
		M-773.6,264.7c0-29-19.5-55.8-51.2-70.3c-31.7-14.5-70.7-14.5-102.4,0c-31.7,14.5-51.2,41.3-51.2,70.3"/>
	<g id="XMLID_174_" transform="matrix(0.87074884,0,0,1,-1465.6985,-335.99447)">
	</g>
	<g id="XMLID_193_" transform="matrix(0.87074884,0,0,1,-1465.6985,-335.99447)">
	</g>
	<g id="XMLID_61_" transform="matrix(0.87074884,0,0,1,-1465.6985,-335.99447)">
		<path id="XMLID_163_" inkscape:connector-curvature="0" class="st3" d="M864.5,675.1c36.3,0,65.7,6.8,65.7,15.2
			c0,8.4-29.4,15.2-65.7,15.2V675.1z"/>
		
			<rect id="XMLID_66_" x="830.1" y="686.3" transform="matrix(2.535182e-06 1 -1 2.535182e-06 1544.9426 -164.2762)" class="st4" width="48.9" height="8"/>
		<path id="XMLID_165_" inkscape:connector-curvature="0" class="st3" d="M864.5,609.7c36.3,0,65.7,6.8,65.7,15.2
			S900.8,640,864.5,640V609.7z"/>
		
			<rect id="XMLID_164_" x="830.1" y="620.9" transform="matrix(2.535182e-06 1 -1 2.535182e-06 1479.5493 -229.6693)" class="st4" width="48.9" height="8"/>
		<path id="path4358" inkscape:connector-curvature="0" class="st5" d="M864.6,614.6c23.6,0,42.6,4.4,42.6,9.8
			c0,5.4-19.1,9.8-42.6,9.8V614.6z"/>
		<path id="path4513" inkscape:connector-curvature="0" class="st5" d="M864.6,680.4c23.6,0,42.6,4.4,42.6,9.8
			c0,5.4-19.1,9.8-42.6,9.8V680.4z"/>
	</g>
	<path id="XMLID_183_" inkscape:connector-curvature="0" class="st6" d="M-806.5,207.7c19.5,10.7,41.3,28.1,57.2,50.2h15.4
		c5.2,0,9.4,3.7,9.4,8.2v111.2c0,4.5-4.2,8.2-9.4,8.2h-14c-14.7,20.3-34.8,36-53.5,47.3c-84.6,51.4-193.8-7.7-196-107.4c0-1,0-2,0-3
		v-0.8c0.1-18.5,3.9-36,10.6-51.9C-957.1,199.4-873.1,171.1-806.5,207.7z"/>
	<path id="XMLID_176_" inkscape:connector-curvature="0" class="st7" d="M-806.5,207.7c19.5,10.7,42.7,28.1,58.6,50.2h14
		c5.2,0,9.4,3.7,9.4,8.2v55.6h-272.9c0.1-18.5,3.9-36,10.6-51.9C-957.1,199.4-873.1,171.1-806.5,207.7L-806.5,207.7z"/>
	
		<rect id="XMLID_50_" x="-803.2" y="341.6" transform="matrix(2.535182e-06 1 -1 2.535182e-06 -397.0612 1087.632)" class="st7" width="121.7" height="7.4"/>
	
		<rect id="XMLID_181_" x="-790.7" y="286" transform="matrix(2.535182e-06 1 -1 2.535182e-06 -452.615 1032.0784)" class="st4" width="96.7" height="7.4"/>
	<g id="XMLID_151_" transform="matrix(0.87074884,0,0,1,-1465.6985,-335.99447)">
		<g id="XMLID_166_">
		</g>
	</g>
	<path id="XMLID_210_" inkscape:connector-curvature="0" class="st4" d="M-759,379c-11.3,15.7-27.5,30-48.1,42.5
		c-33,20-72.1,22.6-107.3,6.9c-41.6-18.5-68-58.1-68.9-103.4c0-0.9,0-1.7,0-2.6v-0.7c0.1-16.2,3.3-32,9.5-46.7
		c13.4-31.8,40.1-55.6,73.3-65.4c29.9-8.9,61.5-5.5,88.9,9.6c19.9,11,38.6,27.3,51.4,45.1l-0.8,0.4c-12.7-17.6-31.3-34-51.1-44.8
		c-27.2-14.9-58.5-18.3-88.2-9.5c-32.9,9.8-59.4,33.4-72.7,65c-6.2,14.6-9.4,30.3-9.5,46.4v0.7c0,0.9,0,1.7,0,2.6
		c1,45,27.2,84.4,68.4,102.7c34.9,15.5,73.7,13,106.4-6.9c20.5-12.5,36.6-26.6,47.8-42.2L-759,379z"/>
	<g id="XMLID_198_" transform="matrix(0.87074884,0,0,1,-1465.6985,-335.99447)">
	</g>
	<g id="XMLID_204_" transform="matrix(0.87074884,0,0,1,-1465.6985,-335.99447)">
	</g>
	<circle id="XMLID_171_" class="st8" cx="-922.5" cy="235.1" r="13.2"/>
	<circle id="XMLID_212_" class="st8" cx="-818.2" cy="235.1" r="13.2"/>
	<circle id="XMLID_217_" class="st8" cx="-922.5" cy="408.4" r="13.2"/>
	<circle id="XMLID_216_" class="st8" cx="-818.2" cy="408.4" r="13.2"/>
	<g id="g4858" transform="matrix(0,1,-0.87074884,0,-647.98235,1376.2876)">
		<ellipse id="path4853" class="st1" cx="-1054.1" cy="256.4" rx="67.4" ry="77.4"/>
	</g>
	
		<path id="circle4855" sodipodi:cx="277.63159" sodipodi:cy="-848.27136" sodipodi:end="3.1415927" sodipodi:rx="59.209007" sodipodi:ry="51.556175" sodipodi:start="0" sodipodi:type="arc" class="st9" d="
		M-812,322.2c0-18.4-11.3-35.4-29.6-44.6c-18.3-9.2-40.9-9.2-59.2,0c-18.3,9.2-29.6,26.2-29.6,44.6h59.2L-812,322.2z"/>
	
		<rect id="rect4869" x="-759.9" y="318.9" transform="matrix(2.535182e-06 1 -1 2.535182e-06 -414.0168 1057.3802)" class="st1" width="48.4" height="5.5"/>
	
		<rect id="rect4871" x="-747.8" y="287" transform="matrix(2.535182e-06 1 -1 2.535182e-06 -445.9827 1025.4144)" class="st9" width="24.2" height="5.5"/>
	
		<rect id="rect4877" x="-771.1" y="318.9" transform="matrix(2.535182e-06 1 -1 2.535182e-06 -425.2168 1068.5803)" class="st1" width="48.4" height="5.5"/>
	
		<rect id="rect4879" x="-759" y="287" transform="matrix(2.535182e-06 1 -1 2.535182e-06 -457.1827 1036.6145)" class="st9" width="24.2" height="5.5"/>
</g>
</svg>
