<svg xmlns="http://www.w3.org/2000/svg" viewBox="0 0 304.5 354.0001"><defs><style>.a{fill:#0a82a3;}.b{fill:#1f2121;}.c{fill:#f26522;}</style></defs><polygon class="a" points="105 223.1 52.8 255.3 52.8 308.6 105 299.3 105 223.1"/><path class="b" d="M49.3,312.8V253.4l59.1-36.5v85.3Zm7-55.5v47.1l45.1-8.1V229.4Z"/><polygon class="c" points="52.8 204 52.8 344.3 29.1 320.6 29.1 279.4 52.8 204"/><path class="b" d="M56.3,352.8,25.6,322V278.8l30.7-97.6ZM32.6,319.1l16.7,16.7v-109L32.6,279.9Z"/><polygon class="c" points="177.1 140.8 152.2 58.1 127.4 140.8 105 223.1 105 299.3 152.2 348.9 199.5 299.3 199.5 223.1 177.1 140.8"/><path class="b" d="M152.2,354l-50.8-53.3v-78L124,140l28.2-94,28.2,93.9L203,222.7v78Zm-43.7-56.1,43.8,46,43.8-46V223.6l-22.3-81.8L152.4,70.3l-21.5,71.6-22.3,81.7v74.3Z"/><path class="a" d="M171.2,232.4h0a21.8723,21.8723,0,0,0-37.9,0h0l-17.2,32.5V295l36.1-14.3L188.3,295V264.9Z"/><path class="b" d="M191.9,300.1l-39.6-15.7-39.7,15.7v-36l17.6-33.4a25.4051,25.4051,0,0,1,44,0l.1.1,17.6,33.3v36Zm-72.3-34.3v24l32.6-12.9,32.6,12.9v-24l-16.7-31.7a18.4408,18.4408,0,0,0-31.8,0Z"/><polygon class="a" points="199.5 223.1 251.7 255.3 251.7 308.6 199.5 299.3 199.5 223.1"/><path class="b" d="M255.2,312.8l-59.1-10.6V216.9l59.1,36.5ZM203,296.3l45.1,8.1V257.3L203,229.4Z"/><polygon class="c" points="251.7 204 251.7 344.3 275.4 320.6 275.4 279.4 251.7 204"/><path class="b" d="M248.2,352.8V181.2l30.7,97.6V322Zm7-126V335.9l16.7-16.7V280Z"/><polygon class="a" points="131 129 140.6 147.5 131 191.1 110.3 203.5 131 129"/><path class="b" d="M104.6,211,130,119.5,144.4,147l-10.3,46.3ZM132,138.5,116.1,196l11.8-7.1L137,148Z"/><polygon class="a" points="173.5 129 163.8 147.5 173.5 191.1 194.2 203.5 173.5 129"/><path class="b" d="M199.9,211l-29.5-17.7-10.3-46.2,14.4-27.5Zm-23.3-22.1,11.8,7.1-15.9-57.5-5,9.5Z"/><rect class="b" x="148.7" y="58.1" width="7" height="73.5"/><rect class="b" x="148.7" y="139.3" width="7" height="12.9"/><rect class="b" x="148.7" y="162.0001" width="7" height="9.3"/><polygon class="c" points="131 129 50.1 84.7 67.3 8.7 18.7 45.8 3.8 126.2 109.2 207.6 131 129"/><path class="b" d="M111.2,213.6,0,127.7,15.5,43.9,72.9,0,54.2,82.9l80.9,44.4ZM7.6,124.7l99.6,77,19.7-70.9L46.2,86.6,61.8,17.4,21.9,47.9Z"/><polygon class="a" points="26 143.4 56.4 126.2 82.7 145.7 78.9 184.2 26 143.4"/><path class="b" d="M81.7,190.9l-62-48,37-20.9,29.7,22ZM32.3,143.8,76,177.6l3-30.3-22.9-17Z"/><rect class="b" x="77.7114" y="75.8533" width="7" height="100.6993" transform="matrix(0.5163, -0.8564, 0.8564, 0.5163, -68.7993, 130.5938)"/><polygon class="a" points="63.5 25.3 44.4 40.7 40.3 60.1 51.5 78.5 63.5 25.3"/><path class="b" d="M53.1,87.7l-16.4-27,4.6-22,28-22.5Zm-9-28.3,6,9.8,7.9-35L47.6,42.5Z"/><polygon class="c" points="173.5 129 254.3 84.7 237.2 8.7 285.8 45.8 300.7 126.2 195.3 207.6 173.5 129"/><path class="b" d="M193.3,213.6l-23.9-86.3,80.9-44.4L231.6,0,289,43.9l15.5,83.8Zm-15.7-82.8,19.7,70.9,99.6-77L282.6,47.8,242.7,17.3l15.6,69.2Z"/><polygon class="a" points="278.5 143.4 248.1 126.2 221.7 145.7 225.6 184.2 278.5 143.4"/><path class="b" d="M222.7,190.9,218,144.1l29.7-22,37,20.9Zm2.7-43.6,3,30.3,43.7-33.8-23.8-13.5Z"/><rect class="b" x="172.9359" y="122.7337" width="100.7045" height="7.0003" transform="translate(-33.1114 133.4329) rotate(-31.0895)"/><polygon class="a" points="240.9 25.3 260.1 40.7 264.1 60.1 252.9 78.5 240.9 25.3"/><path class="b" d="M251.4,87.7,235.3,16.3l28,22.5,4.6,22Zm-4.8-53.4,7.9,35,6-9.8L257,42.7Z"/><path class="c" d="M67.4,246.3c-.4.2,0,27,0,27l15.4,20.6V236.8Z"/><path class="b" d="M86.2,304.5,63.9,274.6v-1.1c-.4-28.8-.4-28.8,1.7-30l20.7-12.8v73.8ZM70.9,272.1l8.4,11.2V243.1l-8.5,5.2C70.7,252.2,70.7,262.6,70.9,272.1Z"/><path class="c" d="M237.1,246.3c.4.2,0,27,0,27l-15.4,20.6V236.8Z"/><path class="b" d="M218.2,304.5V230.6l20.7,12.8c2.1,1.3,2.1,1.3,1.7,30v1.1Zm7-61.4v40.3l8.4-11.3c.1-9.6.2-19.9.1-23.8Z"/></svg>