<?xml version="1.0" encoding="utf-8"?>
<!-- Generator: Adobe Illustrator 25.2.0, SVG Export Plug-In . SVG Version: 6.00 Build 0)  -->
<svg version="1.1"
	 id="svg2" xmlns:cc="http://creativecommons.org/ns#" xmlns:dc="http://purl.org/dc/elements/1.1/" xmlns:inkscape="http://www.inkscape.org/namespaces/inkscape" xmlns:rdf="http://www.w3.org/1999/02/22-rdf-syntax-ns#" xmlns:sodipodi="http://sodipodi.sourceforge.net/DTD/sodipodi-0.dtd" xmlns:svg="http://www.w3.org/2000/svg"
	 xmlns="http://www.w3.org/2000/svg" xmlns:xlink="http://www.w3.org/1999/xlink" x="0px" y="0px" viewBox="0 0 491.3 493"
	 style="enable-background:new 0 0 491.3 493;" xml:space="preserve">
<style type="text/css">
	.st0{fill:#DADCDB;}
	.st1{fill:#F0F0F0;}
	.st2{fill:#C9C9C9;}
	.st3{fill:#C3C3C3;}
	.st4{fill:#AEAEAE;}
	.st5{fill:#24C3FF;}
	.st6{fill:#00A3E1;}
	.st7{fill-rule:evenodd;clip-rule:evenodd;fill:#24C3FF;}
	.st8{fill:#0087BA;}
	.st9{fill:#5AD2FF;}
	.st10{clip-path:url(#SVGID_2_);fill-rule:evenodd;clip-rule:evenodd;fill:#00A3E1;}
</style>
<sodipodi:namedview  bordercolor="#666666" borderopacity="1" gridtolerance="10" guidetolerance="10" id="namedview4" inkscape:current-layer="svg2" inkscape:cx="15.623113" inkscape:cy="75.107911" inkscape:pagecheckerboard="true" inkscape:pageopacity="0.6745098" inkscape:pageshadow="2" inkscape:window-height="1001" inkscape:window-maximized="1" inkscape:window-width="1920" inkscape:window-x="-9" inkscape:window-y="-9" inkscape:zoom="0.834386" objecttolerance="10" pagecolor="#000000" showgrid="true">
	<inkscape:grid  id="grid5385" type="xygrid"></inkscape:grid>
</sodipodi:namedview>
<g id="XMLID_5_" transform="matrix(0,0.92436531,-0.92436608,0,545.05314,375.89467)">
</g>
<g id="g5544" transform="matrix(0,0.92436531,-0.92436608,0,426.15979,73.418116)">
	<g id="g5474" transform="matrix(1.9780425,0,0,1.9780425,-438.77709,-321.3201)">
		<polygon id="XMLID_133_" class="st0" points="305.1,174.5 316.4,201.9 317.8,205.2 254.2,205.2 254.2,184.3 300.5,126.8 		"/>
		<polygon id="XMLID_135_" class="st1" points="317.8,317.5 316.4,320.8 304.9,348.7 300.5,395.9 254.2,338.4 254.2,317.5 		"/>
		<polygon id="XMLID_127_" class="st2" points="317.8,205.2 254.2,205.2 254.2,197.5 305.1,174.5 316.4,201.9 		"/>
		<polygon id="XMLID_129_" class="st2" points="316.4,320.8 304.9,348.7 254.2,325.9 254.2,317.5 317.8,317.5 		"/>
		
			<rect id="XMLID_168_" x="322.6" y="194.9" transform="matrix(2.535182e-06 1 -1 2.535182e-06 528.4802 -128.1027)" class="st2" width="11.3" height="10.5"/>
		<polygon id="XMLID_136_" class="st1" points="352.1,289.3 220.7,289.3 214.8,281.1 200.7,261.7 214.8,242.2 220.7,234.1 
			352.1,234.1 363,242.1 363,281.2 		"/>
		<polygon id="XMLID_128_" class="st0" points="352.1,234.1 363,242.1 363,261.7 200.7,261.7 214.8,242.2 220.7,234.1 		"/>
		<polygon id="XMLID_160_" class="st0" points="254.2,205.2 318.2,176.3 340.1,229.5 342,234.1 245,234.1 		"/>
		<polygon id="XMLID_158_" class="st2" points="340.1,229.5 342,234.1 253.3,234.1 254.2,229.5 		"/>
		<polygon id="XMLID_130_" class="st2" points="333.2,231.9 314.4,188.2 273.2,205.6 272.8,204.8 314.9,187 334.1,231.6 		"/>
		
			<rect id="XMLID_142_" x="322.6" y="317.9" transform="matrix(2.535182e-06 1 -1 2.535182e-06 651.4801 -5.1031)" class="st2" width="11.3" height="10.5"/>
		<polygon id="XMLID_134_" class="st1" points="254.2,318.1 318.2,347 340.1,293.9 342,289.3 245,289.3 		"/>
		<polygon id="XMLID_132_" class="st2" points="340.1,293.9 342,289.3 252.3,289.3 254.2,293.9 		"/>
		<polygon id="XMLID_111_" class="st2" points="314.9,336.3 272.8,318.6 273.2,317.7 314.4,335.1 333.2,291.4 334.1,291.8 		"/>
		<g id="XMLID_60_">
		</g>
		
			<rect id="XMLID_58_" x="349.8" y="256.5" transform="matrix(2.535182e-06 1 -1 2.535182e-06 630.1301 -106.553)" class="st3" width="37.1" height="10.6"/>
		
			<rect id="rect5403" x="359.1" y="247.2" transform="matrix(2.535182e-06 1 -1 2.535182e-06 620.8419 -115.8412)" class="st4" width="18.5" height="10.6"/>
		<g id="g5413" transform="matrix(1,0,0,2.1163046,0,-344.49162)">
			
				<rect id="XMLID_62_" x="321.4" y="285" transform="matrix(2.535182e-06 1 -1 2.535182e-06 635.4769 -62.5553)" class="st5" width="55.2" height="3"/>
			
				<rect id="rect5409" x="335.2" y="278.4" transform="matrix(2.535182e-06 1 -1 2.535182e-06 628.9546 -69.0775)" class="st6" width="27.6" height="3"/>
		</g>
		
			<path id="path5415" inkscape:flatsided="true" inkscape:randomized="0" inkscape:rounded="0" inkscape:transform-center-x="5.0000011" inkscape:transform-center-y="-3.5683603" sodipodi:arg1="0.5880026" sodipodi:arg2="1.6352002" sodipodi:cx="88.982117" sodipodi:cy="197.94891" sodipodi:r1="18.027756" sodipodi:r2="9.0138779" sodipodi:sides="3" sodipodi:type="star" class="st7" d="
			M300.2,359.2l-1.8,30.2l-23.2-30.1L300.2,359.2z"/>
		
			<path id="path5417" inkscape:flatsided="true" inkscape:randomized="0" inkscape:rounded="0" inkscape:transform-center-x="-4.9999976" inkscape:transform-center-y="-3.5683603" sodipodi:arg1="0.5880026" sodipodi:arg2="1.6352002" sodipodi:cx="88.982117" sodipodi:cy="197.94891" sodipodi:r1="18.027756" sodipodi:r2="9.0138779" sodipodi:sides="3" sodipodi:type="star" class="st7" d="
			M300.2,164.2l-1.8-30.2l-23.2,30.1L300.2,164.2z"/>
		<g id="g5423" transform="translate(0,-0.93631725)">
			<path id="XMLID_141_" inkscape:connector-curvature="0" class="st8" d="M335.3,327.4c20.7,0,37.4-1.5,37.4-3.2
				s-16.8-3.2-37.4-3.2V327.4z"/>
			<path id="path5419" inkscape:connector-curvature="0" class="st9" d="M335.3,326c10.8,0,19.5-0.8,19.5-1.7
				c0-0.9-8.8-1.7-19.5-1.7V326z"/>
		</g>
		<g id="g5429" transform="translate(122.89408,-1.03972)">
			<path id="path5425" inkscape:connector-curvature="0" class="st8" d="M212.3,204.6c20.7,0,37.4-1.5,37.4-3.2
				c0-1.7-16.8-3.2-37.4-3.2V204.6z"/>
			<path id="path5427" inkscape:connector-curvature="0" class="st9" d="M212.3,203.2c10.8,0,19.5-0.8,19.5-1.7s-8.8-1.7-19.5-1.7
				V203.2z"/>
		</g>
		<g id="g5441" transform="translate(0,-1.4830508)">
			<path id="XMLID_170_" inkscape:connector-curvature="0" class="st8" d="M375.6,245.8c31.6,0,57.2,7.8,57.2,17.4
				c0,9.6-25.6,17.4-57.2,17.4V245.8z"/>
			<path id="path5431" inkscape:connector-curvature="0" class="st9" d="M375.6,254c16.8,0,30.4,4.1,30.4,9.2s-13.6,9.2-30.4,9.2
				V254z"/>
		</g>
	</g>
	<g id="g5401" transform="matrix(1.1266935,0,0,1.1266935,-27.769183,-72.776098)">
		<g id="g5407" transform="translate(-167.07998,6.9266074)">
			
				<path id="path5393" inkscape:flatsided="true" inkscape:randomized="0" inkscape:rounded="0" sodipodi:arg1="1.0471976" sodipodi:arg2="1.5707963" sodipodi:cx="449.15253" sodipodi:cy="205.08475" sodipodi:r1="43.253559" sodipodi:r2="37.458683" sodipodi:sides="6" sodipodi:type="star" class="st7" d="
				M258.4,269.7h-43.3l-21.6-37.5l21.6-37.5h43.3l21.6,37.5L258.4,269.7z"/>
			<g>
				<defs>
					<rect id="SVGID_1_" x="215.1" y="162.8" width="46.9" height="93.7"/>
				</defs>
				<clipPath id="SVGID_2_">
					<use xlink:href="#SVGID_1_"  style="overflow:visible;"/>
				</clipPath>
				
					<path id="path5373" inkscape:flatsided="true" inkscape:randomized="0" inkscape:rounded="0" sodipodi:arg1="1.0471976" sodipodi:arg2="1.5707963" sodipodi:cx="449.15253" sodipodi:cy="205.08475" sodipodi:r1="43.253559" sodipodi:r2="37.458683" sodipodi:sides="6" sodipodi:type="star" class="st10" d="
					M258.4,269.7h-43.3l-21.6-37.5l21.6-37.5h43.3l21.6,37.5L258.4,269.7z"/>
			</g>
		</g>
	</g>
</g>
</svg>
