<svg xmlns="http://www.w3.org/2000/svg" viewBox="0 0 354.2686 278.8259"><defs><style>.a{fill:#6d6e71;}.b{fill:#414042;}.c{fill:#a97c50;}.d{fill:#8d6842;}.e{fill:#4d4d4f;}.f{fill:#d1d3d4;}.g{fill:#bcbec0;}.h{fill:#a7a9ac;}.i{fill:#9d9fa2;}.j{fill:#939598;}.k{fill:#808285;}.l{fill:#726658;}.m{fill:#9b8579;}.n{fill:#8d796e;}.o{fill:#e6e7e8;}.p{fill:#6b6053;}.q{fill:#5e5449;}</style></defs><path class="a" d="M273.227,242.97s7.9609,19.9335-.7891,25.5039c-8.7734,5.57-31.3593-17.4258-31.3593-17.4258q16.2421-3.334,32.125-8.1524Z"/><path class="b" d="M276.4223,260.5094c-5.8594,3.7188-17.8828-5.3086-25.2226-11.7109-3.3633.7929-6.7383,1.5547-10.1211,2.25,0,0,22.5859,22.9961,31.3593,17.4258,2.6289-1.6758,3.7344-4.6524,4.0157-7.9883Z"/><path class="a" d="M198.6958,256.4508c-1.629,5.2813-7.5547,22.3751-16.3048,22.3751-9.1328,0-13.9375-17.9805-14.9413-22.2071Q183.0413,257.2985,198.6958,256.4508Z"/><path class="b" d="M188.7622,274.8454c-7.2111,0-11.7111-11.1915-13.7853-17.9883q-3.7675-.0762-7.5272-.2383c1.0038,4.2266,5.8085,22.2071,14.9413,22.2071,2.7188,0,5.168-1.66,7.2969-4.0938Z"/><path class="a" d="M119.7113,251.3141c-3.73,2.5078-25.5313,16.8985-31.34,13.9805-5.4726-2.75-.3827-16.66,1.1719-20.5117Q104.5316,248.5914,119.7113,251.3141Z"/><path class="b" d="M97.9378,261.31c-3.7811-1.9023-2.5234-9.1289-.8671-14.6836q-3.7677-.8905-7.5274-1.8437c-1.5546,3.8515-6.6445,17.7617-1.1719,20.5117,2.6758,1.3476,8.7539-.9961,14.8946-4.1524C101.016,261.7516,99.1292,261.9079,97.9378,261.31Z"/><path class="c" d="M288.36,185.5954c13.5547,5.5937,25.5078,13.5546,12.7656,24.7187-12.7656,11.1406-36.6718,25.4844-51.8046,1.5781,0,0-11.16-8.75,4.7812-19.914C270.0473,180.8141,274.8286,180.025,288.36,185.5954Z"/><path class="d" d="M304.3129,202.3454c-12.7656,11.1406-36.6718,25.4843-51.8046,1.5781a10.7663,10.7663,0,0,1-3.7813-7.2031c-7.5156,8.8007.5938,15.1718.5938,15.1718,15.1328,23.9063,39.039,9.5625,51.8046-1.5781,4.2344-3.7109,5.7305-7.07,5.3594-10.1016A26.92,26.92,0,0,1,304.3129,202.3454Z"/><path class="c" d="M230.9887,208.7125c7.9844,5.57,22.3242,19.125,8.7735,25.5079-13.5547,6.3593-46.2071,17.5234-50.1993-10.375,0,0-2.3906-11.1407,5.57-14.3438C203.1176,206.3219,223.0278,203.1422,230.9887,208.7125Z"/><path class="d" d="M242.9458,227.0485c-13.5508,6.3594-46.2032,17.5234-50.1954-10.375a20.3321,20.3321,0,0,1-.2421-5.5352c-4.7422,4.3086-2.9454,12.7071-2.9454,12.7071,3.9922,27.8984,36.6446,16.7343,50.1993,10.375,4.6562-2.1954,6.0195-5.2344,5.48-8.5079A14.0131,14.0131,0,0,1,242.9458,227.0485Z"/><path class="b" d="M254.102,135.3961c3.9922,13.5547-19.1211,23.1172-19.1211,23.1172-7.9609,3.9922-8.7734-5.57-11.1641-16.7344-2.3906-11.16-7.1718-36.6445,0-39.8475C230.9887,98.7517,250.11,121.8689,254.102,135.3961Z"/><path class="b" d="M199.1254,140.1774c3.18,11.9531,3.9922,27.8945-19.1251,27.8945s-27.8984-11.16-22.3046-31.0742c0,0,6.3593-28.6835,19.125-29.4726C189.5629,106.7126,195.9458,128.2283,199.1254,140.1774Z"/><path class="e" d="M242.1528,151.3414c-7.961,3.9922-8.7735-5.57-11.1641-16.7343-1.7148-7.996-4.6289-23.3085-3.5195-32.5507a4.999,4.999,0,0,0-3.6524-.125c-7.1718,3.203-2.3906,28.6874,0,39.8475,2.3907,11.1641,3.2032,20.7266,11.1641,16.7344,0,0,12.1367-5.0234,17.2969-12.9492A55.062,55.062,0,0,1,242.1528,151.3414Z"/><path class="e" d="M187.1723,160.9039c-23.1173,0-27.8985-11.164-22.3048-31.0741,0,0,2.7969-12.59,8.3907-21.32-10.3829,5.1486-15.5625,28.4883-15.5625,28.4883-5.5938,19.9141-.8125,31.0742,22.3046,31.0742,11.4884,0,17.0626-3.9375,19.3751-9.3672A29.228,29.228,0,0,1,187.1723,160.9039Z"/><path class="b" d="M131.3988,101.9314c7.1719,3.203,2.3906,28.6874,0,39.8475-2.3906,11.1641-3.2031,20.7266-11.1641,16.7344,0,0-23.1133-9.5625-19.121-23.1172C105.1058,121.8689,124.2269,98.7517,131.3988,101.9314Z"/><path class="e" d="M110.6761,132.2086c2.77-9.3866,12.8164-23.3749,21.1056-30.0116l-.3829-.2656c-7.1719-3.18-26.293,19.9375-30.2851,33.4647-3.9923,13.5547,19.121,23.1172,19.121,23.1172,4.418,2.2149,6.6328.25,8.1367-3.832C123.3988,152.3258,107.2894,143.7047,110.6761,132.2086Z"/><path class="f" d="M183.18,5.5251v.043a56.8125,56.8125,0,0,0-7.9609-.832,29.1508,29.1508,0,0,0-6.3359.3086l-.0469-.3086S176.0082-6.428,183.18,5.5251Z"/><path class="g" d="M183.18,5.5681c8.797,1.5781,9.6329,5.1172,10.2306,9.207a91.7608,91.7608,0,0,0-17.4024-1.2929,108.4108,108.4108,0,0,0-18.2657,1.0039c.2422-1.9375,1.77-7.9844,11.1407-9.4414a29.1508,29.1508,0,0,1,6.3359-.3086A56.8125,56.8125,0,0,1,183.18,5.5681Z"/><path class="h" d="M193.4106,14.7751c5.0664.9063,10.16,2.461,13.6758,5.09,7.3125,5.4726-8.18,7.6992-22.2813,8.082-4.3751.1172-8.5821.07-11.9766-.1211-1.2891-.0742-2.6563-.1679-4.0391-.2851-14.0586-1.3672-31.6757-5.7149-22.2577-10.0664a42.1384,42.1384,0,0,1,11.2108-2.9883,108.4108,108.4108,0,0,1,18.2657-1.0039A91.7608,91.7608,0,0,1,193.4106,14.7751Z"/><path class="i" d="M207.3637,20.115c-4.1758,1.9023-13.207,2.8164-21.7617,3.0508-4.3751.1172-8.586.07-11.9767-.1211-1.2929-.0743-2.6562-.168-4.0429-.2853-8.7539-.8514-18.8789-2.8593-23.0077-5.3007l-.043.0157c-9.418,4.3515,8.1991,8.6992,22.2577,10.0664,1.3828.1172,2.75.2109,4.0391.2851,3.3945.1914,7.6015.2383,11.9766.1211C198.6879,27.5681,213.86,25.4,207.3637,20.115Z"/><path class="j" d="M184.8051,27.947l5.5469,43.7188c-11.1407,7.1718-25.4845,0-25.4845,0l3.9219-44.125c1.3828.1172,2.75.2109,4.0391.2851C176.223,28.0173,180.43,28.0642,184.8051,27.947Z"/><path class="k" d="M172.0394,67.6814l3.5313-39.7383c-.961-.0273-1.879-.0664-2.7422-.1172-1.2891-.0742-2.6563-.1679-4.0391-.2851l-3.9219,44.125s14.3438,7.1718,25.4845,0l-.1484-1.18C180.9613,72.1189,172.0394,67.6814,172.0394,67.6814Z"/><path class="l" d="M198.6958,256.4508q-15.6387.8613-31.2461.168a364.5313,364.5313,0,0,1-47.715-5.3047h-.0234q-15.1641-2.6953-30.168-6.5312c-13.0976-3.32-26.0351-7.2657-38.7461-11.6875-20.18-7.004-58.8828-21.1094-49.2969-50.68,9.875-30.3086,81.7305-37.5547,88.711-38.1993-.07,16.043,18,27.8985,30.5508,34.02a114.3852,114.3852,0,0,0,11.4492,4.7812c28.2812,10.0391,61.461,9.3907,89.1407-.1718,16.3281-5.6172,43.7266-17.711,43.6055-38.629,6.7422.5977,78.8633,7.8165,88.7578,38.1993,1.34,5.1406.0976,11.2617-2.1289,15.8984-9.4922,19.7695-37.7188,30.5273-56.6524,37.3867q-10.7577,3.9083-21.73,7.1953-15.8848,4.8048-32.125,8.1524A286.5956,286.5956,0,0,1,198.6958,256.4508Zm102.43-46.1367c12.7422-11.1641.7891-19.125-12.7656-24.7187-13.5312-5.57-18.3125-4.7813-34.2578,6.3828-15.9414,11.164-4.7812,19.914-4.7812,19.914C264.4536,235.7985,288.36,221.4547,301.1254,210.3141ZM239.7622,234.22c13.5507-6.3829-.7891-19.9375-8.7735-25.5079-7.9609-5.57-27.8711-2.3906-35.8554.7891-7.961,3.2031-5.57,14.3438-5.57,14.3438C193.5551,251.7438,226.2075,240.58,239.7622,234.22Z"/><path class="m" d="M264.9575,144.2164c.1211,20.918-27.2774,33.0118-43.6055,38.629,0,0-3.8945-77.711-31-111.18,0,0,59.7578,4.7812,74.1016,67.7225A24.5077,24.5077,0,0,1,264.9575,144.2164Zm-29.9766,14.2969s23.1133-9.5625,19.1211-23.1172c-3.9922-13.5272-23.1133-36.6444-30.2852-33.4647-7.1718,3.203-2.3906,28.6874,0,39.8475C226.2075,152.943,227.02,162.5055,234.9809,158.5133Z"/><path class="m" d="M190.352,71.6658c27.1055,33.4686,31,111.18,31,111.18-27.68,9.5625-60.8595,10.2109-89.1407.1718.3828-4.1406,7.1484-74.25,32.6562-111.3514C164.8675,71.6658,179.2113,78.8376,190.352,71.6658ZM180,168.0719c23.1173,0,22.3048-15.9414,19.1251-27.8945-3.18-11.9491-9.5625-33.4648-22.3047-32.6523-12.7657.7891-19.125,29.4726-19.125,29.4726C152.1019,156.9118,156.8832,168.0719,180,168.0719Z"/><path class="m" d="M90.2113,144.2164a21.2463,21.2463,0,0,1,.5508-4.8281c14.3437-62.9413,74.1054-67.7225,74.1054-67.7225-25.5078,37.1015-32.2734,107.2108-32.6562,111.3514a114.3852,114.3852,0,0,1-11.4492-4.7812C108.2113,172.1149,90.141,160.2594,90.2113,144.2164Zm41.1875-2.4375c2.3906-11.16,7.1719-36.6445,0-39.8475-7.1719-3.18-26.293,19.9375-30.2851,33.4647-3.9923,13.5547,19.121,23.1172,19.121,23.1172C128.1957,162.5055,129.0082,152.943,131.3988,141.7789Z"/><path class="n" d="M90.7621,139.3883a21.2463,21.2463,0,0,0-.5508,4.8281c-.07,16.043,18,27.8985,30.5508,34.02,1.4179.6875,2.8711,1.3164,4.3242,1.9453-.0156-.3672-.02-.7422-.0274-1.1094-4.6211-3.0195-18.2772-13.3515-20.5507-31.4062-2.961-3.4766-4.7579-7.6407-3.3945-12.27,1.4843-5.0351,5.0663-11.3944,9.3476-17.2381C123.0238,92.8142,148.5238,79.4,163.7542,73.3689c.3711-.57.7305-1.1485,1.1133-1.7031C164.8675,71.6658,105.1058,76.447,90.7621,139.3883Z"/><path class="n" d="M152.11,157.72c-2.539-18.43,9.0977-66.7187,13.922-85.539-.7306-.3047-1.1642-.5156-1.1642-.5156-25.5078,37.1015-32.2734,107.2108-32.6562,111.3514,28.2812,10.0391,61.461,9.3907,89.1407-.1718C188.602,188.8532,155.2972,180.8258,152.11,157.72Z"/><path class="n" d="M222.2348,152.1422c-3.1875-19.9218-11.9531-50.203-18.3281-66.1366-2.7383-6.84,1.1758-9.0625,6.7031-9.2773a82.8594,82.8594,0,0,0-20.2578-5.0625c27.1055,33.4686,31,111.18,31,111.18,16.3281-5.6172,43.7266-17.711,43.6055-38.629C248.7192,171.3532,225.4184,172.0641,222.2348,152.1422Z"/><path class="o" d="M173.6253,84.408s29.4806,20.7187,37.4494,70.1249c0,0-3.9805-38.25-18.3243-68.5273C192.75,86.0056,186.3754,81.2244,173.6253,84.408Z"/><path class="o" d="M219.8442,87.5954s20.7148,3.1876,33.4648,36.6563C253.309,124.2517,243.7465,105.9236,219.8442,87.5954Z"/><path class="o" d="M149.7191,83.615s-31.875,4.7812-46.2149,31.8711C103.5042,115.4861,117.055,97.9548,149.7191,83.615Z"/><polygon class="o" points="179.204 31.021 178.407 65.287 184.782 64.486 179.204 31.021"/><path class="o" d="M194.3442,18.2751S180,13.4939,168.0472,17.4783C168.0472,17.4783,175.2191,21.4587,194.3442,18.2751Z"/><path class="o" d="M187.1723,9.5094s-8.77-2.39-12.75,0A20.07,20.07,0,0,0,187.1723,9.5094Z"/><path class="p" d="M353.7153,182.4157c-9.8945-30.3828-82.0156-37.6016-88.7578-38.1993.0508,8.8516-4.836,16.1172-11.7149,21.9883,17.8047-2.2422,73.4649,3.7266,69.086,32.0664-3.5352,22.8633-38.3828,30.1133-55.6407,36.3086-25.43,9.1328-50.7539,14.8516-77.8828,15.8242a335.5845,335.5845,0,0,1-58.211-3.4414c-90.8359-12.75-105.9766-47.0156-99.6016-58.1679s33.4688-22.3125,100.3985-2.3907c31.5312,9.3868,56.1641,6.5665,73.3985.961-23.7423,4.8867-49.75,3.7539-72.5782-4.3477a114.3852,114.3852,0,0,1-11.4492-4.7812c-12.5508-6.1211-30.6211-17.9766-30.5508-34.02-6.98.6446-78.836,7.8907-88.711,38.1993-9.5859,29.57,29.1172,43.6757,49.2969,50.68,12.711,4.4218,25.6485,8.3671,38.7461,11.6875q14.9883,3.8085,30.1914,6.5312a364.5313,364.5313,0,0,0,47.715,5.3047q15.5916.68,31.2461-.168a286.5956,286.5956,0,0,0,42.3828-5.4023q16.2421-3.334,32.125-8.1524,10.9688-3.2635,21.73-7.1953c18.9336-6.8594,47.16-17.6172,56.6524-37.3867C353.8129,193.6774,355.0551,187.5563,353.7153,182.4157Z"/><path class="q" d="M336.18,176.8454c9.8242,7.8593,15.2774,13.4453,16.2578,19.4765,1.66-4.3125,2.4336-9.4687,1.2774-13.9062-9.8945-30.3828-82.0156-37.6016-88.7578-38.1993.0351,6.2383-2.41,11.6719-6.2461,16.4024C270.2192,159.6735,312.2661,157.7125,336.18,176.8454Z"/><path class="q" d="M21.43,219.8688c-22.3086-15.93-19.125-35.0586,7.1719-52.5859,18.8828-12.59,50.9063-9.9766,67.4688-7.5-3.5547-4.6094-5.8829-9.8125-5.8594-15.5665-6.98.6446-78.836,7.8907-88.711,38.1993-6.3593,19.6172,8.5352,32.4218,25.1719,40.8672C24.5,221.9547,22.7269,220.7985,21.43,219.8688Z"/><path class="o" d="M99.52,171.2633a84.3413,84.3413,0,0,0,44.6211,19.918s-63.7422,2.3906-46.2149,52.5937c0,0-35.0624-4.7812-50.9961-19.125C46.93,224.65,105.0941,229.4313,99.52,171.2633Z"/><path class="o" d="M261.2739,173.6539s43.8281-11.1523,62.1562,3.9844-.7968,33.4649-.7968,33.4649S341.7543,170.4625,261.2739,173.6539Z"/></svg>