<svg xmlns="http://www.w3.org/2000/svg" viewBox="0 0 268.3008 363.5"><defs><style>.a{fill:#fc5e75;}.b{fill:#231f20;}.c{fill:#d63c61;}.d{fill:#cecece;}.e{fill:#b2b1af;}.f,.g,.j,.k{fill:none;stroke-linecap:round;stroke-linejoin:round;stroke-width:11px;}.f{stroke:#231f20;}.g{stroke:#fc5e75;}.h{fill:#6bb7dd;}.i{fill:#58a7c6;}.j{stroke:#9ad2e8;}.k{stroke:#f2f2f2;}</style></defs><path class="a" d="M195.5,215.8a5.8939,5.8939,0,0,1-3.9-1.6,5.5206,5.5206,0,0,1-1.6-3.9l-.3-46.8a5.5346,5.5346,0,0,1,1.9-4.2,5.3268,5.3268,0,0,1,3.6-1.3,2.7686,2.7686,0,0,1,.9.1,109.26,109.26,0,0,1,20.6,5.3A115.2836,115.2836,0,0,1,244.5,178a110.0265,110.0265,0,0,1,13.8,11.6,14.8428,14.8428,0,0,1,4.5,10.6,15.7265,15.7265,0,0,1-4.1,10.5,14.5969,14.5969,0,0,1-11,4.8C247.8,215.5,195.5,215.8,195.5,215.8Z"/><path class="b" d="M195.2,163.5a107.7545,107.7545,0,0,1,46.1,18.9,106.3178,106.3178,0,0,1,13.2,11.1,9.4323,9.4323,0,0,1,2.9,6.7,9.7616,9.7616,0,0,1-9.6,9.8l-52.2.3-.4-46.8m0-11a10.75,10.75,0,0,0-7.2,2.7,10.5681,10.5681,0,0,0-3.8,8.4l.3,46.8a11.0971,11.0971,0,0,0,11,11h.1l52.2-.3a20.6564,20.6564,0,0,0,20.5-20.8,20.0544,20.0544,0,0,0-6.2-14.5,130.0076,130.0076,0,0,0-14.5-12.2,122.5725,122.5725,0,0,0-29.1-15.3,119.9823,119.9823,0,0,0-21.6-5.5,3.416,3.416,0,0,0-1.7-.3Z"/><path class="a" d="M20.7,217A15.3025,15.3025,0,0,1,5.5,201.9a14.9714,14.9714,0,0,1,4.4-10.7,102.719,102.719,0,0,1,13.7-11.8,113.4088,113.4088,0,0,1,27.6-14.9A110.7323,110.7323,0,0,1,71.7,159a2.7686,2.7686,0,0,1,.9-.1,5.0784,5.0784,0,0,1,3.5,1.3,5.6289,5.6289,0,0,1,2,4.2l.3,46.8a5.484,5.484,0,0,1-5.5,5.5C73.1,216.6,20.8,217,20.7,217Z"/><path class="b" d="M72.7,164.3l.3,46.8-52.2.3h-.1a9.6846,9.6846,0,0,1-9.7-9.6,9.368,9.368,0,0,1,2.8-6.8,105.4284,105.4284,0,0,1,13-11.2,108.0207,108.0207,0,0,1,26.3-14.2,105.37,105.37,0,0,1,19.6-5.3m0-11a12.2523,12.2523,0,0,0-1.9.2A119.0018,119.0018,0,0,0,20.3,175,112.5382,112.5382,0,0,0,6,187.4,20.4925,20.4925,0,0,0,0,202a20.7857,20.7857,0,0,0,20.7,20.6h.1l52.3-.3A10.9061,10.9061,0,0,0,84,211.2l-.3-46.8a11.3244,11.3244,0,0,0-3.9-8.4,10.5005,10.5005,0,0,0-7.1-2.7Z"/><path class="c" d="M241.3,182.4l.2,27.6-46,.3-.3-46.8a107.7545,107.7545,0,0,1,46.1,18.9Z"/><path class="c" d="M72.7,164.3l.3,46.8-46,.3-.2-27.6a108.0207,108.0207,0,0,1,26.3-14.2A105.37,105.37,0,0,1,72.7,164.3Z"/><path class="d" d="M160.9,235.2a5.7018,5.7018,0,0,1-3.9-1.6,5.5206,5.5206,0,0,1-1.6-3.9l-.3-194.9a19.7505,19.7505,0,0,1,5.6-13.9A20.2546,20.2546,0,0,1,174.8,15a19.64,19.64,0,0,1,13.3,5.3l8.7,8.1a81.0856,81.0856,0,0,1,25.7,58.7l-.2,121.3a26.4556,26.4556,0,0,1-26.2,26.5C196.2,235,160.9,235.2,160.9,235.2Z"/><path class="b" d="M174.8,20.6a14.3122,14.3122,0,0,1,9.6,3.8l8.7,8.1a75.6489,75.6489,0,0,1,24,54.7l-.2,121.3a21.4433,21.4433,0,0,1-4.6,13.3,20.6507,20.6507,0,0,1-16.1,7.7h-2.8l-28.4.2h-4.1l-.1-86.7V118.8l-.1-43.9-.1-40.2a14.099,14.099,0,0,1,14.2-14.1m0-11h0a25.35,25.35,0,0,0-18,7.5,24.4467,24.4467,0,0,0-7.2,17.8l.1,40.1.1,43.9v24.2l.1,86.7a11.0971,11.0971,0,0,0,11,11h4.2l28.4-.2h2.8a31.8118,31.8118,0,0,0,24.5-11.8,32.291,32.291,0,0,0,7.1-20.2l.2-121.2v-.1a86.7865,86.7865,0,0,0-27.5-62.6l-8.7-8.1a24.3092,24.3092,0,0,0-17.1-7Z"/><path class="d" d="M72.7,235.8a26.3668,26.3668,0,0,1-26.3-26.2l.2-121.3A81.2693,81.2693,0,0,1,71.5,29.4l8.6-8.2a19.68,19.68,0,0,1,13.5-5.5,19.4426,19.4426,0,0,1,19.7,19.5l.2,105.9v2.3l.1,86.7a5.484,5.484,0,0,1-5.5,5.5Z"/><path class="b" d="M93.6,21.2a14.0933,14.0933,0,0,1,14.2,14.1l.1,39.7.1,43.8v24.6l.1,86.7H104l-28.4.2H72.7a20.7856,20.7856,0,0,1-20.8-20.7l.2-121.3a76.056,76.056,0,0,1,23.2-55l8.6-8.2a13.85,13.85,0,0,1,9.7-3.9m0-11h0a25.0423,25.0423,0,0,0-17.3,7l-8.6,8.2a86.54,86.54,0,0,0-26.6,63l-.2,121.2v.1a31.9479,31.9479,0,0,0,31.9,31.7h3l28.4-.2h4.1a10.9469,10.9469,0,0,0,10.9-11l-.2-86.8V118.9l-.1-43.8-.1-39.7v-.1A25.242,25.242,0,0,0,93.6,10.2Z"/><path class="e" d="M160.6,75l.1,43.9v19.4c.8.6,1.6,1.2,2.4,1.7a35.346,35.346,0,0,0,6.2-20V98.3A34.4586,34.4586,0,0,0,160.6,75Z"/><path class="e" d="M108,138.7V118.8L107.9,75a35.0359,35.0359,0,0,0-8.8,23.3V120a34.8288,34.8288,0,0,0,6.6,20.5C106.4,139.9,107.2,139.3,108,138.7Z"/><path class="e" d="M107.9,118.8l.2,111.3-32.5.2a72.8722,72.8722,0,0,1,32.3-111.5Z"/><path class="e" d="M207.2,186.9a72.2751,72.2751,0,0,1-13.8,42.6l-32.5.2-.2-110.8A73.0557,73.0557,0,0,1,207.2,186.9Z"/><line class="f" x1="216.4" y1="87.6" x2="205.9" y2="87.6"/><line class="f" x1="216.6" y1="112.5" x2="206" y2="112.6"/><line class="f" x1="61.5" y1="88.6" x2="50.9" y2="88.7"/><line class="f" x1="61.6" y1="113.5" x2="51.1" y2="113.6"/><line class="g" x1="248.9" y1="204.1" x2="249.3" y2="230.3"/><line class="g" x1="19.4" y1="205.6" x2="19.6" y2="234.4"/><line class="g" x1="250.4" y1="251.9" x2="250.5" y2="286.5"/><line class="g" x1="19.7" y1="255.6" x2="20.1" y2="267.3"/><path class="d" d="M74.4,269.3a18.5222,18.5222,0,0,1-18.5-18.5v-9.7a5.5488,5.5488,0,0,1,5.5-5.5h27a5.5488,5.5488,0,0,1,5.5,5.5v9.7a18.5222,18.5222,0,0,1-18.5,18.5Z"/><path class="b" d="M88.4,241.1v9.7a12.9741,12.9741,0,0,1-13,13h-1a12.9741,12.9741,0,0,1-13-13v-9.7h27m0-11h-27a10.9683,10.9683,0,0,0-11,11v9.7a24.0706,24.0706,0,0,0,24,24h1a24.0706,24.0706,0,0,0,24-24v-9.7a10.9683,10.9683,0,0,0-11-11Z"/><path class="d" d="M113.5,269.3a17.4631,17.4631,0,0,1-17.4-17V241a5.5488,5.5488,0,0,1,5.5-5.5h27a5.5488,5.5488,0,0,1,5.5,5.5v10.8a17.8135,17.8135,0,0,1-3.8,10.9,17.1531,17.1531,0,0,1-13.6,6.5h-3.2Z"/><path class="b" d="M128.5,241.1v10.8a12.3883,12.3883,0,0,1-2.6,7.5,11.96,11.96,0,0,1-9.3,4.5h-3.1a11.8874,11.8874,0,0,1-11.9-11.7v-11h26.9m0-11.1h-27a10.9683,10.9683,0,0,0-11,11v11.5a23.0218,23.0218,0,0,0,22.9,22.2h3.1a22.75,22.75,0,0,0,17.9-8.6,22.4451,22.4451,0,0,0,5-14.3V241.1a10.8214,10.8214,0,0,0-10.9-11Z"/><line class="f" x1="118.5" y1="277.1" x2="118.5" y2="317.5"/><line class="f" x1="71.7" y1="269.2" x2="71.7" y2="326.7"/><line class="f" x1="95.1" y1="317.5" x2="95.1" y2="337.8"/><line class="f" x1="96.5" y1="288.5" x2="96.5" y2="296.7"/><path class="d" d="M151.9,269.3a17.3288,17.3288,0,0,1-17.4-17.4V241.1a5.5488,5.5488,0,0,1,5.5-5.5h27a5.5488,5.5488,0,0,1,5.5,5.5v11.3a17.4436,17.4436,0,0,1-17.4,16.9Z"/><path class="b" d="M166.9,241.1v11A11.8873,11.8873,0,0,1,155,263.8h-3.1a11.66,11.66,0,0,1-9.3-4.5,11.9552,11.9552,0,0,1-2.6-7.5V241h26.9m0-10.9h-27a10.9683,10.9683,0,0,0-11,11v10.8a23.5241,23.5241,0,0,0,5,14.4,22.75,22.75,0,0,0,17.9,8.6h3.1a23.0218,23.0218,0,0,0,22.9-22.2V241.2a10.845,10.845,0,0,0-10.9-11.1Z"/><path class="e" d="M101.5,241.1h27v10.8a12.3883,12.3883,0,0,1-2.6,7.5,72.002,72.002,0,0,1-24.4-7.3v-11Z"/><path class="e" d="M166.9,241.1v11a72.002,72.002,0,0,1-24.4,7.3,11.9547,11.9547,0,0,1-2.6-7.5V241.1Z"/><path class="d" d="M193.1,269.3a18.5222,18.5222,0,0,1-18.5-18.5v-9.7a5.5488,5.5488,0,0,1,5.5-5.5h27a5.5488,5.5488,0,0,1,5.5,5.5v9.7a18.5222,18.5222,0,0,1-18.5,18.5Z"/><path class="b" d="M207,241.1v9.7a12.9741,12.9741,0,0,1-13,13h-1a12.9741,12.9741,0,0,1-13-13v-9.7h27m0-11H180a10.9683,10.9683,0,0,0-11,11v9.7a24.0706,24.0706,0,0,0,24,24h1a24.0706,24.0706,0,0,0,24-24v-9.7a10.9683,10.9683,0,0,0-11-11Z"/><line class="f" x1="197" y1="277.1" x2="197" y2="317.5"/><line class="f" x1="150.3" y1="286.3" x2="150.3" y2="345.2"/><line class="f" x1="173.6" y1="317.5" x2="173.6" y2="358"/><line class="f" x1="175.1" y1="288.5" x2="175.1" y2="296.7"/><path class="h" d="M134.2,245.1a57.4707,57.4707,0,0,1-33.3-10.5l-.4-.3a58.3284,58.3284,0,0,1,3.3-97.2l1.5-.9a58.4027,58.4027,0,0,1,28.9-7.7,57.3821,57.3821,0,0,1,29.2,7.9c.4.2.7.4,1.1.6,1.2.8,2.4,1.5,3.5,2.3a58.264,58.264,0,0,1,13.6,81.2A59.2032,59.2032,0,0,1,168.2,234,57.8325,57.8325,0,0,1,134.2,245.1Z"/><path class="b" d="M134.3,134.1a51.8168,51.8168,0,0,1,26.5,7.2c.3.2.7.4,1,.6a33.676,33.676,0,0,1,3.1,2.1,52.8068,52.8068,0,0,1,12.3,73.6,56.0367,56.0367,0,0,1-12.1,12.2,52.8072,52.8072,0,0,1-61,.4c-.1-.1-.3-.2-.4-.3a52.8531,52.8531,0,0,1,3.1-88,5.3877,5.3877,0,0,1,1.3-.7,51.2827,51.2827,0,0,1,26.2-7.1m0-11v0a63.9526,63.9526,0,0,0-31.7,8.4,8.636,8.636,0,0,0-1.6,1,63.9525,63.9525,0,0,0-18.6,17.3,63.7611,63.7611,0,0,0,14.8,88.9c.1,0,.1.1.2.1l.1.1c.1.1.2.1.3.2a63.6665,63.6665,0,0,0,73.7-.5,63.6655,63.6655,0,0,0-.1-103.6c-1.2-.8-2.4-1.7-3.7-2.5a7.4586,7.4586,0,0,0-1.2-.7,64.575,64.575,0,0,0-32.2-8.7Z"/><path class="i" d="M161.7,141.9c-.3.4-.7.8-1,1.2a35.2727,35.2727,0,0,1-26.5,12.1A34.7124,34.7124,0,0,1,108,143.4c-.4-.5-.9-1-1.3-1.5a5.3877,5.3877,0,0,1,1.3-.7,52.7143,52.7143,0,0,1,52.8.2A4.0534,4.0534,0,0,1,161.7,141.9Z"/><path class="j" d="M151.6,162.5a29.9506,29.9506,0,0,1,7,41.8"/><line class="f" x1="134.2" y1="125.7" x2="134.2" y2="5.5"/><path class="d" d="M134.2,140.4a20.528,20.528,0,0,1-20.5-20.5V98.2a20.5,20.5,0,0,1,41,0v21.7A20.528,20.528,0,0,1,134.2,140.4Z"/><path class="b" d="M134.2,83.3a14.98,14.98,0,0,1,15,15V120a14.98,14.98,0,0,1-15,15h0a14.98,14.98,0,0,1-15-15V98.3a14.98,14.98,0,0,1,15-15h0m0-11a26.0764,26.0764,0,0,0-26,26V120a26,26,0,0,0,52,0V98.3a26.0764,26.0764,0,0,0-26-26Z"/><path class="d" d="M134.2,140.4a20.528,20.528,0,0,1-20.5-20.5V98.2a20.5,20.5,0,0,1,41,0v21.7A20.528,20.528,0,0,1,134.2,140.4Z"/><path class="b" d="M134.2,83.3a14.98,14.98,0,0,1,15,15V120a14.98,14.98,0,0,1-15,15h0a14.98,14.98,0,0,1-15-15V98.3a14.98,14.98,0,0,1,15-15h0m0-11a26.0764,26.0764,0,0,0-26,26V120a26,26,0,0,0,52,0V98.3a26.0764,26.0764,0,0,0-26-26Z"/><line class="k" x1="181.6" y1="47.9" x2="181.6" y2="75"/></svg>