<?xml version="1.0" encoding="iso-8859-1"?>
<!-- Generator: Adobe Illustrator 19.0.0, SVG Export Plug-In . SVG Version: 6.00 Build 0)  -->
<svg version="1.1" id="Layer_1" xmlns="http://www.w3.org/2000/svg" xmlns:xlink="http://www.w3.org/1999/xlink" x="0px" y="0px"
	 viewBox="0 0 512 512" style="enable-background:new 0 0 512 512;" xml:space="preserve">
<g>
	<path style="fill:#FF9737;" d="M183.942,420.82c-4.766,8.764-7.501,18.792-7.501,29.474c0,22.902,12.447,42.881,30.937,53.583
		c18.492-10.702,30.944-30.681,30.944-53.583c0-10.681-2.735-20.71-7.501-29.474H183.942z"/>
	<path style="fill:#FF9737;" d="M281.184,420.82c-4.766,8.764-7.499,18.792-7.499,29.474c0,22.902,12.447,42.881,30.936,53.583
		c18.492-10.702,30.944-30.681,30.944-53.583c0-10.681-2.735-20.71-7.499-29.474H281.184z"/>
</g>
<path style="fill:#90C8EC;" d="M256,8.123c-58.875,23.042-100.595,80.303-100.595,147.346v55.875v153.599v35.762
	c0,11.108,9.005,20.115,20.119,20.115h160.957c11.108,0,20.113-9.007,20.113-20.115v-35.762V211.344v-55.875
	C356.595,88.426,314.881,31.166,256,8.123z"/>
<path style="fill:#CAE9F7;" d="M211.423,375h-56.018v25.704c0,11.108,9.005,20.115,20.119,20.115h160.957
	c11.108,0,20.113-9.007,20.113-20.115V375H238.5"/>
<g>
	<path style="fill:#578CAD;" d="M297.906,274.985c0,23.144-18.759,41.906-41.905,41.906c-23.142,0-41.903-18.762-41.903-41.906
		c0-23.143,18.761-41.905,41.903-41.905C279.146,233.078,297.906,251.84,297.906,274.985z"/>
	<path style="fill:#578CAD;" d="M256.002,82.215c-22.525,0-40.789,18.26-40.789,40.789h81.577
		C296.791,100.476,278.529,82.215,256.002,82.215z"/>
	<polygon style="fill:#578CAD;" points="444.302,240.9 356.595,190.613 356.595,397.911 503.789,397.911 	"/>
	<polygon style="fill:#578CAD;" points="67.702,240.9 155.405,190.613 155.405,397.911 8.212,397.911 	"/>
</g>
<g style="opacity:0.2;">
	<path style="fill:#231F20;" d="M200.989,447.045c0-9.384,2.113-18.263,5.857-26.225h-22.905
		c-4.766,8.764-7.501,18.792-7.501,29.474c0,22.902,12.447,42.881,30.937,53.583c5.166-2.989,9.86-6.704,13.942-11.004
		C208.837,481.555,200.989,465.223,200.989,447.045z"/>
</g>
<g style="opacity:0.2;">
	<path style="fill:#231F20;" d="M298.233,447.045c0-9.384,2.111-18.263,5.855-26.225h-22.905
		c-4.766,8.764-7.499,18.792-7.499,29.474c0,22.902,12.447,42.881,30.936,53.583c5.166-2.989,9.86-6.704,13.942-11.004
		C306.081,481.555,298.233,465.223,298.233,447.045z"/>
</g>
<g style="opacity:0.2;">
	<path style="fill:#231F20;" d="M238.646,274.985c0-18.872,12.478-34.826,29.63-40.075c-3.883-1.188-8.004-1.83-12.276-1.83
		c-23.142,0-41.903,18.762-41.903,41.905c0,23.144,18.761,41.906,41.903,41.906c4.272,0,8.393-0.643,12.276-1.83
		C251.123,309.812,238.646,293.857,238.646,274.985z"/>
</g>
<g style="opacity:0.2;">
	<path style="fill:#231F20;" d="M268.278,84.098c-3.875-1.221-7.999-1.882-12.276-1.882c-22.525,0-40.789,18.26-40.789,40.789
		h24.549C239.762,104.754,251.75,89.308,268.278,84.098z"/>
</g>
<g style="opacity:0.2;">
	<polygon style="fill:#231F20;" points="90.084,258.23 155.405,220.777 155.405,190.613 67.702,240.9 8.212,397.911 37.162,397.911 
			"/>
</g>
<g>
	<polygon style="fill:#3A5D74;" points="155.405,397.911 155.405,246.629 106.724,274.544 59.98,397.911 	"/>
	<polygon style="fill:#3A5D74;" points="356.595,397.911 356.595,246.629 405.281,274.544 452.025,397.911 	"/>
</g>
<g>
	<path style="fill:#231F20;" d="M306.029,274.985c0-27.586-22.444-50.028-50.028-50.028c-27.585,0-50.026,22.442-50.026,50.028
		c0,27.587,22.442,50.029,50.026,50.029C283.586,325.014,306.029,302.571,306.029,274.985z M222.22,274.985
		c0-18.628,15.153-33.782,33.78-33.782c18.628,0,33.782,15.154,33.782,33.782c0,18.629-15.154,33.783-33.782,33.783
		C237.373,308.768,222.22,293.613,222.22,274.985z"/>
	<path style="fill:#231F20;" d="M215.213,131.127h81.577c4.487,0,8.123-3.637,8.123-8.123c0-26.97-21.942-48.912-48.912-48.912
		c-26.97,0-48.912,21.942-48.912,48.912C207.09,127.49,210.727,131.127,215.213,131.127z M256.002,90.338
		c15.209,0,28.024,10.447,31.644,24.543h-63.289C227.979,100.787,240.794,90.338,256.002,90.338z"/>
	<path style="fill:#231F20;" d="M511.384,395.032l-59.487-157.01c-0.666-1.76-1.924-3.233-3.556-4.169l-83.623-47.946v-30.438
		c0-34.118-10.26-66.903-29.672-94.812c-18.957-27.257-45.267-48.039-76.086-60.099c-1.904-0.745-4.017-0.745-5.921,0
		c-30.817,12.061-57.126,32.843-76.084,60.099c-19.413,27.91-29.673,60.695-29.673,94.812v30.438l-83.621,47.946
		c-1.632,0.936-2.889,2.41-3.556,4.169L0.616,395.032c-0.946,2.495-0.605,5.297,0.912,7.493c1.516,2.197,4.015,3.508,6.685,3.508
		H59.98h87.813c2.268,11.821,11.926,21.04,23.965,22.651c-2.266,6.963-3.441,14.271-3.441,21.61
		c0,24.896,13.409,48.121,34.992,60.613c1.259,0.728,2.663,1.093,4.069,1.093c1.405,0,2.811-0.364,4.069-1.093
		c21.588-12.492,34.997-35.719,34.997-60.613c0-7.247-1.145-14.466-3.354-21.351h25.825c-2.209,6.884-3.353,14.103-3.353,21.351
		c0,24.895,13.407,48.121,34.99,60.613c1.259,0.728,2.663,1.093,4.069,1.093c1.405,0,2.811-0.364,4.069-1.093
		c21.588-12.492,34.997-35.719,34.997-60.613c0-7.338-1.176-14.645-3.441-21.608c12.036-1.612,21.694-10.831,23.961-22.651h87.817
		h0.022h51.742c2.669,0,5.167-1.311,6.685-3.507C511.99,400.329,512.33,397.528,511.384,395.032z M74.266,246.5l73.016-41.865
		v37.288l-44.599,25.575c-1.632,0.936-2.89,2.41-3.556,4.169L54.371,389.788H19.977L74.266,246.5z M113.289,280.143l33.993-19.493
		V375v14.786H71.745L113.289,280.143z M230.199,450.294c0,17.5-8.635,33.928-22.82,43.946
		c-14.182-10.016-22.814-26.444-22.814-43.946c0-7.333,1.527-14.628,4.445-21.351h36.744
		C228.672,435.666,230.199,442.96,230.199,450.294z M304.621,494.24c-14.182-10.016-22.813-26.445-22.813-43.946
		c0-7.335,1.526-14.63,4.444-21.351h36.746c2.918,6.724,4.445,14.018,4.445,21.351C327.441,467.794,318.807,484.222,304.621,494.24z
		 M348.472,400.705c0,6.612-5.379,11.992-11.99,11.992h-8.418h-46.881h-50.363h-46.879h-8.417c-6.614,0-11.996-5.38-11.996-11.992
		v-2.794v-14.786h47.895c4.487,0,8.123-3.637,8.123-8.123s-3.636-8.123-8.123-8.123h-47.895v-120.25v-56.016v-35.144
		c0-61.157,36.19-115.21,92.472-138.588c56.282,23.376,92.472,77.428,92.472,138.588v35.144v56.016v120.249H238.5
		c-4.487,0-8.123,3.637-8.123,8.123c0,4.486,3.636,8.123,8.123,8.123h109.972v14.786V400.705z M364.718,389.788v-14.786V260.65
		l33.998,19.494l41.544,109.643H364.718z M457.633,389.788l-44.756-118.122c-0.667-1.76-1.924-3.233-3.556-4.169l-44.603-25.575
		v-37.288l73.018,41.865l54.288,143.288L457.633,389.788L457.633,389.788z"/>
</g>
<g style="opacity:0.2;">
	<path style="fill:#231F20;" d="M180.773,405.682v-36.717V211.261v-57.368c0-61.167,33.823-114.399,83.773-142.101
		c-2.81-1.295-5.649-2.535-8.545-3.668c-58.875,23.042-100.595,80.303-100.595,147.346v55.875v153.599v35.762
		c0,11.108,9.005,20.115,20.119,20.115h11.887C183.336,417.048,180.773,411.671,180.773,405.682z"/>
</g>
<g>
</g>
<g>
</g>
<g>
</g>
<g>
</g>
<g>
</g>
<g>
</g>
<g>
</g>
<g>
</g>
<g>
</g>
<g>
</g>
<g>
</g>
<g>
</g>
<g>
</g>
<g>
</g>
<g>
</g>
</svg>
