<?xml version="1.0" encoding="iso-8859-1"?>
<!-- Generator: Adobe Illustrator 19.0.0, SVG Export Plug-In . SVG Version: 6.00 Build 0)  -->
<svg version="1.1" id="Layer_1" xmlns="http://www.w3.org/2000/svg" xmlns:xlink="http://www.w3.org/1999/xlink" x="0px" y="0px"
	 viewBox="0 0 511.999 511.999" style="enable-background:new 0 0 511.999 511.999;" xml:space="preserve">
<path style="fill:#FF9737;" d="M196.876,416.211c0,39.698,24.461,73.664,59.125,87.705c34.665-14.041,59.125-48.007,59.125-87.705
	c0-13.088-2.671-25.545-7.479-36.878H204.357C199.55,390.666,196.876,403.123,196.876,416.211z"/>
<path style="fill:#FFD960;" d="M224.578,379.332c1.518,19.471,14.081,35.837,31.423,42.862
	c17.345-7.026,29.903-23.391,31.421-42.862H224.578z"/>
<path style="fill:#CAE9F7;" d="M329.049,139.328v-25.669c0-36.308-29.434-65.742-65.743-65.742h-14.611
	c-36.31,0-65.743,29.434-65.743,65.742v247.662c0,9.947,8.063,18.012,18.013,18.012h110.071c9.948,0,18.013-8.065,18.013-18.012
	V165.735"/>
<path style="fill:#90C8EC;" d="M182.953,335.303v26.017c0,9.947,8.063,18.012,18.013,18.012h110.071
	c9.948,0,18.013-8.065,18.013-18.012v-26.017H182.953z"/>
<g>
	<circle style="fill:#3A5D74;" cx="256.001" cy="261.249" r="32.021"/>
	<path style="fill:#3A5D74;" d="M418.108,385.337v-50.034c0-22.187-10.76-36.459-14.446-40.696l-74.613-80.983V361.32l78.583,36.2
		C410.563,398.659,418.108,400.154,418.108,385.337z"/>
	<path style="fill:#3A5D74;" d="M93.893,385.337v-50.034c0-22.187,10.76-36.459,14.446-40.696l74.613-80.983V361.32l-78.581,36.2
		C101.438,398.659,93.893,400.154,93.893,385.337z"/>
</g>
<g style="opacity:0.2;">
	<path style="fill:#231F20;" d="M222.026,418.9c0-14.042,2.868-27.408,8.025-39.567h-25.696c-4.806,11.333-7.48,23.79-7.48,36.878
		c0,39.698,24.461,73.664,59.125,87.705c2.491-1.008,4.921-2.132,7.301-3.34C238.27,482.093,222.026,452.402,222.026,418.9z"/>
</g>
<g style="opacity:0.2;">
	<path style="fill:#231F20;" d="M208.103,361.32V113.659c0-34.533,26.63-62.825,60.472-65.512c-1.74-0.138-3.493-0.229-5.27-0.229
		h-14.611c-36.31,0-65.743,29.434-65.743,65.742v247.662c0,9.947,8.063,18.012,18.013,18.012h25.151
		C216.166,379.332,208.103,371.268,208.103,361.32z"/>
</g>
<g style="opacity:0.2;">
	<path style="fill:#231F20;" d="M249.13,261.254c0-13.221,8.012-24.567,19.445-29.456c-3.861-1.65-8.11-2.566-12.575-2.566
		c-17.686,0-32.021,14.336-32.021,32.022c0,17.685,14.335,32.021,32.021,32.021c4.465,0,8.714-0.916,12.575-2.566
		C257.142,285.821,249.13,274.474,249.13,261.254z"/>
</g>
<g style="opacity:0.2;">
	<path style="fill:#231F20;" d="M119.043,342.848c0-22.187,10.76-36.459,14.446-40.696l49.462-53.686v-34.843l-74.613,80.983
		c-3.686,4.237-14.446,18.509-14.446,40.696v50.034c0,14.818,7.545,13.323,10.478,12.185l14.672-6.759
		C119.043,390.762,119.043,342.848,119.043,342.848z"/>
</g>
<g>
	<path style="fill:#231F20;" d="M215.895,261.254c0,22.114,17.991,40.105,40.105,40.105s40.105-17.991,40.105-40.105
		c0-22.115-17.991-40.106-40.105-40.106C233.886,221.147,215.895,239.138,215.895,261.254z M279.937,261.254
		c0,13.199-10.738,23.937-23.937,23.937c-13.199,0-23.937-10.738-23.937-23.937c0-13.2,10.738-23.938,23.937-23.938
		C269.199,237.316,279.937,248.054,279.937,261.254z"/>
	<path style="fill:#231F20;" d="M409.76,289.302c-0.051-0.058-0.101-0.114-0.154-0.171l-72.473-78.662v-44.733
		c0-4.465-3.618-8.084-8.084-8.084c-4.466,0-8.084,3.62-8.084,8.084v47.89v113.595H191.036V213.625v-99.966
		c0-31.793,25.865-57.658,57.659-57.658h14.611c31.794,0,57.659,25.865,57.659,57.658v25.669c0,4.465,3.618,8.084,8.084,8.084
		c4.466,0,8.084-3.62,8.084-8.084v-25.669c0-40.447-32.699-73.385-73.048-73.806V8.084c0-4.465-3.618-8.084-8.084-8.084
		c-4.466,0-8.084,3.62-8.084,8.084v31.769c-40.349,0.421-73.049,33.359-73.049,73.806v96.809l-72.473,78.661
		c-0.053,0.057-0.103,0.113-0.154,0.171c-4.94,5.678-16.431,21.528-16.431,46.002v50.033c0,19.432,11.657,20.943,15.231,20.943
		c2.062,0,4.167-0.412,6.257-1.222c0.155-0.06,0.307-0.125,0.457-0.194l69.747-32.131c3.137,6.421,8.83,11.374,15.749,13.519
		c-2.959,9.674-4.458,19.709-4.458,29.959c0,42.04,25.189,79.407,64.174,95.197c0.972,0.395,2.004,0.592,3.034,0.592
		s2.062-0.197,3.034-0.591c38.984-15.79,64.174-53.157,64.174-95.199c0-10.252-1.499-20.288-4.457-29.959
		c6.918-2.145,12.612-7.098,15.748-13.519l69.75,32.131c0.15,0.069,0.301,0.134,0.455,0.193c2.089,0.811,4.194,1.222,6.256,1.223
		c0.001,0,0.002,0,0.002,0c4.594,0,8.617-2.048,11.331-5.768c2.624-3.596,3.899-8.56,3.899-15.176v-50.033
		C426.193,310.829,414.7,294.979,409.76,289.302z M102.326,389.562c-0.182-0.883-0.348-2.236-0.348-4.225v-50.033
		c0-19.393,9.387-31.831,12.39-35.308l60.5-65.665v100.974v20.841L102.326,389.562z M256.001,495.128
		c-31.117-13.975-51.04-44.598-51.04-78.917c0-9.9,1.653-19.562,4.923-28.794h7.721c4.002,18.816,17.28,34.946,35.361,42.271
		c0.972,0.395,2.004,0.592,3.034,0.592s2.062-0.197,3.034-0.591c18.081-7.323,31.357-23.455,35.358-42.272h7.724
		c3.268,9.229,4.922,18.89,4.922,28.794C307.041,450.53,287.117,481.153,256.001,495.128z M234.268,387.416h43.464
		c-3.339,11.133-11.223,20.642-21.731,25.913C245.492,408.058,237.607,398.547,234.268,387.416z M311.037,371.247h-3.392h-20.223
		h-62.844h-20.221h-3.391c-5.475,0-9.928-4.453-9.928-9.927v-17.933h129.929v17.933
		C320.965,366.795,316.511,371.247,311.037,371.247z M410.024,385.337c0,1.99-0.166,3.343-0.348,4.224l-72.542-33.417v-20.841
		V234.329l60.5,65.665c3.003,3.476,12.39,15.915,12.39,35.308V385.337z"/>
</g>
<g>
</g>
<g>
</g>
<g>
</g>
<g>
</g>
<g>
</g>
<g>
</g>
<g>
</g>
<g>
</g>
<g>
</g>
<g>
</g>
<g>
</g>
<g>
</g>
<g>
</g>
<g>
</g>
<g>
</g>
</svg>
