<svg xmlns="http://www.w3.org/2000/svg" viewBox="0 0 109.82 127.61"><defs><style>.a{fill:#3c608d;}.b{fill:#304d78;}.c{fill:#70afdf;}.d{fill:#92cef6;}.e{fill:#d3f3fc;}.f{fill:#dfdfdf;}.g{fill:#f9f9f9;}.h{fill:#e48c3e;}.i{fill:#ebb750;}.j{fill:#a1593a;}.k{fill:#8fc8eb;}.l{fill:#d1f3f7;}.m{fill:#fcfdfd;}</style></defs><polygon class="a" points="36.62 66.56 8.9 78.11 8.9 90.61 36.62 90.61 36.62 66.56"/><path class="b" d="M27.44,70.39a189.24,189.24,0,0,0-.09,20.22h9.27v-24Z"/><path class="b" d="M8.9,78.11,12,76.84c1.12,4.14,2.22,9.34,3,13.77H8.9Z"/><path class="c" d="M9.59,107c0,2.41-4.35,10.76-4.35,10.76S.88,109.38.88,107a4.36,4.36,0,0,1,8.71,0Z"/><path class="d" d="M8.09,105.76c0,1.57-2.85,7-2.85,7s-2.85-5.48-2.85-7a2.85,2.85,0,0,1,5.7,0Z"/><path class="e" d="M6.44,104.75a13.6,13.6,0,0,1-1.2,3,13.6,13.6,0,0,1-1.2-3,1.2,1.2,0,0,1,2.4,0Z"/><path class="f" d="M7.45,66.56c3.37,0,6.77,36.4,5.39,38.24S6.32,99,3.05,99.4-.72,97.75.88,88.16,4.07,66.56,7.45,66.56Z"/><path class="g" d="M7.33,67.6c2.91,0,5.84,31.42,4.66,33s-5.63-5-8.46-4.66S.28,94.52,1.66,86.24,4.41,67.6,7.33,67.6Z"/><path class="b" d="M61.1,93.83l-6.19.41-6.19-.41-2.9,8.92a36.85,36.85,0,0,0,9.09,1.62A36.85,36.85,0,0,0,64,102.75Z"/><path class="c" d="M48.64,112.12c0,3.46,6.27,15.49,6.27,15.49s6.26-12,6.26-15.49a6.27,6.27,0,1,0-12.53,0Z"/><path class="d" d="M50.8,110.37c0,2.27,4.11,10.15,4.11,10.15s4.1-7.88,4.1-10.15a4.11,4.11,0,1,0-8.21,0Z"/><path class="e" d="M53.18,108.91c0,1,1.73,4.28,1.73,4.28s1.73-3.32,1.73-4.28a1.73,1.73,0,0,0-3.46,0Z"/><polygon class="a" points="73.2 66.56 100.92 78.11 100.92 90.61 73.2 90.61 73.2 66.56"/><path class="b" d="M82.38,70.39a189.24,189.24,0,0,1,.09,20.22H73.2v-24Z"/><path class="b" d="M100.92,78.11l-3.06-1.27C96.74,81,95.64,86.18,94.8,90.61h6.12Z"/><path class="c" d="M100.23,107c0,2.41,4.35,10.76,4.35,10.76s4.35-8.35,4.35-10.76a4.35,4.35,0,0,0-8.7,0Z"/><path class="d" d="M101.73,105.76c0,1.57,2.85,7,2.85,7s2.85-5.48,2.85-7a2.85,2.85,0,0,0-5.7,0Z"/><path class="e" d="M103.38,104.75a13.6,13.6,0,0,0,1.2,3,13.6,13.6,0,0,0,1.2-3,1.2,1.2,0,0,0-2.4,0Z"/><path class="f" d="M102.37,66.56C99,66.56,95.6,103,97,104.8s6.51-5.76,9.79-5.4,3.76-1.65,2.16-11.24S105.75,66.56,102.37,66.56Z"/><path class="g" d="M102.49,67.6c-2.92,0-5.85,31.42-4.66,33s5.63-5,8.46-4.66,3.25-1.43,1.86-9.71S105.4,67.6,102.49,67.6Z"/><path class="h" d="M70.81,107.31c-1.73-7.19-13.11-12.68-15.9-12.68S40.74,100.12,39,107.31c0,0-15-24.59-9.57-56.72A99.36,99.36,0,0,1,54.91,0,99.31,99.31,0,0,1,80.37,50.59C85.84,82.72,70.81,107.31,70.81,107.31Z"/><path class="i" d="M54.91,0s-50.86,86.67,0,86.67S54.91,0,54.91,0Z"/><path class="a" d="M54.91,96.5c-1.22,0-6.47,3.5-6.47,3.5l-.95,2.33a36.45,36.45,0,0,0,7.42,1.07,36.29,36.29,0,0,0,7.41-1.07L61,99.16S55.92,96.5,54.91,96.5Z"/><path class="j" d="M54.91,68.78c12,0,15.78-15.61,13.91-26.7C66.55,28.67,58.47,11.45,54.91,11.45S43.27,28.67,41,42.08C39.13,53.17,42.92,68.78,54.91,68.78Z"/><path class="k" d="M54.91,67.19a10.15,10.15,0,0,1-8.07-3.82c-4.48-5.3-5.36-14.61-4.27-21C44.84,28.94,52.38,14,54.91,13.06,57.44,14,65,28.94,67.25,42.35c1.09,6.41.21,15.72-4.27,21A10.15,10.15,0,0,1,54.91,67.19Z"/><path class="l" d="M54.91,66.4a9.43,9.43,0,0,1-7.47-3.54c-4.31-5.11-5.14-14.15-4.09-20.38,2.21-13,9.16-26.76,11.56-28.52,2.4,1.76,9.35,15.47,11.56,28.52,1,6.23.22,15.27-4.1,20.38A9.4,9.4,0,0,1,54.91,66.4Z"/><path class="m" d="M66.72,44.42,47.85,63.29a9.33,9.33,0,0,0,5.62,3L66.38,53.38A33.65,33.65,0,0,0,66.72,44.42Z"/><path class="m" d="M62.05,27.09A64.9,64.9,0,0,0,56.56,16L49.49,23a82.35,82.35,0,0,0-6.14,19.45,31.88,31.88,0,0,0-.38,3.7Z"/><path class="m" d="M66.25,41.3c-.18-1-.4-2-.63-3L45.06,58.9a18.14,18.14,0,0,0,1.23,2.36Z"/><path class="m" d="M65,36c-.25-.94-.52-1.86-.81-2.78L43.54,53.9a26.75,26.75,0,0,0,.72,2.87Z"/></svg>