<svg xmlns="http://www.w3.org/2000/svg" viewBox="0 0 96.89 127.28"><defs><style>.a{fill:#82943f;}.b{fill:#6b7d31;}.c{fill:#b74719;}.d{fill:#e27a3a;}.e{fill:#ebb161;}.f{fill:#dfdfdf;}.g{fill:#f9f9f9;}.h{fill:#304d78;}.i{fill:#8fc8eb;}.j{fill:#d1f3f7;}.k{fill:#fcfdfd;}.l{fill:#3c608d;}</style></defs><path class="a" d="M48.44,94c11.62,1.06,48.33,17.57,48.33,17.57S99.13,65.13,82.32,29c0,0-15.48-2.56-9.65,0s13.56,53.63,9.65,58.12-25,1.28-20.39-18.45S48.44,94,48.44,94Z"/><path class="b" d="M62.54,65.71l-.73-1.46C58.72,68.39,48.44,94,48.44,94a55.21,55.21,0,0,1,10.44,2.53c.59-5.58,1.49-12.5,2.82-18.9a20,20,0,0,1,.23-9C62.22,67.45,62.42,66.46,62.54,65.71Z"/><path class="b" d="M90,108.63c-1.55-6.84-4.85-17.1-10.7-17.1-3.55,0-6.75,4.54-9.06,9C77.48,103.35,84.83,106.42,90,108.63Z"/><path class="b" d="M72.67,29c5.82,2.56,13.56,53.63,9.65,58.12,4.9-4.49,1.8-20.81,0-36.44s-.9-16.37,0-21.68C82.32,29,66.84,26.45,72.67,29Z"/><path class="a" d="M48.44,94C36.83,95.1.11,111.61.11,111.61S-2.24,65.13,14.56,29c0,0,15.49-2.56,9.66,0S10.66,82.64,14.56,87.13s25,1.28,20.39-18.45S48.44,94,48.44,94Z"/><path class="b" d="M34.35,65.71l.73-1.46C38.17,68.39,48.44,94,48.44,94A55.57,55.57,0,0,0,38,96.57c-.58-5.58-1.48-12.5-2.81-18.9a20,20,0,0,0-.24-9Q34.53,66.84,34.35,65.71Z"/><path class="b" d="M6.93,108.63c1.55-6.84,4.86-17.1,10.71-17.1,3.54,0,6.75,4.54,9.06,9C19.41,103.35,12.06,106.42,6.93,108.63Z"/><path class="b" d="M24.22,29c-5.83,2.56-13.56,53.63-9.66,58.12-4.89-4.49-1.79-20.81,0-36.44s.89-16.37,0-21.68C14.56,29,30.05,26.45,24.22,29Z"/><path class="c" d="M22.28,115.11c0,2.72-4.64,12.17-4.64,12.17S13,117.83,13,115.11a4.79,4.79,0,0,1,4.64-4.92A4.79,4.79,0,0,1,22.28,115.11Z"/><path class="d" d="M20.68,113.74c0,1.78-3,8-3,8s-3-6.19-3-8a3.13,3.13,0,0,1,3-3.22A3.13,3.13,0,0,1,20.68,113.74Z"/><path class="e" d="M18.92,112.6A15.85,15.85,0,0,1,17.64,116a15.85,15.85,0,0,1-1.28-3.36,1.28,1.28,0,1,1,2.56,0Z"/><path class="f" d="M17.64,91.23c5.1,0,8.17,11.07,8.79,16.47.1.93-1.28,1.72-3,1.72H11.88c-1.75,0-3.14-.79-3-1.72C9.47,102.3,12.54,91.23,17.64,91.23Z"/><path class="g" d="M17.64,91.53c3.78,0,6.32,7.15,7.39,12.5.5,2.48-3,4.65-7.39,4.65h0c-4.44,0-7.89-2.17-7.39-4.65C11.32,98.68,13.86,91.53,17.64,91.53Z"/><path class="g" d="M78.49,31.57c-12.91-4.26-15.8-3.64-15.55,1.11s4.43,22.19-2,40.76-12.46,24-12.46,24-6-5.4-12.46-24-2.27-36-2-40.76-2.64-5.37-15.56-1.11S27.7,0,48.44,0,91.41,35.82,78.49,31.57Z"/><circle class="h" cx="48.44" cy="18.19" r="12.54"/><circle class="i" cx="48.44" cy="18.19" r="10.52"/><circle class="j" cx="48.44" cy="18.19" r="9.51"/><path class="k" d="M58,18.19A9.51,9.51,0,0,0,54.67,11L41.26,24.42a9.51,9.51,0,0,0,7.18,3.29,9.63,9.63,0,0,0,1.08-.07l8.37-8.37A9.63,9.63,0,0,0,58,18.19Z"/><path class="k" d="M39,18.82a9.49,9.49,0,0,0,.95,3.56L52.62,9.66a9.58,9.58,0,0,0-3.55-.95Z"/><path class="c" d="M44.84,110.88c0,2,3.6,8.92,3.6,8.92s3.61-6.93,3.61-8.92a3.61,3.61,0,1,0-7.21,0Z"/><path class="d" d="M46.08,109.87c0,1.3,2.36,5.84,2.36,5.84s2.37-4.54,2.37-5.84a2.37,2.37,0,1,0-4.73,0Z"/><path class="e" d="M47.45,109a11.22,11.22,0,0,0,1,2.46,11.15,11.15,0,0,0,1-2.46,1,1,0,0,0-2,0Z"/><path class="h" d="M48.44,59.69c-4,0-6.35,28.61-6.82,42.56-.09,2.42,1,4.45,2.35,4.45h9c1.36,0,2.43-2,2.35-4.45C54.79,88.3,52.41,59.69,48.44,59.69Z"/><path class="l" d="M48.44,60.47c-2.94,0-4.91,18.49-5.74,32.32-.39,6.4,2.29,12,5.74,12h0c3.45,0,6.13-5.61,5.75-12C53.35,79,51.38,60.47,48.44,60.47Z"/><path class="c" d="M74.6,115.11c0,2.72,4.65,12.17,4.65,12.17s4.64-9.45,4.64-12.17a4.65,4.65,0,1,0-9.29,0Z"/><path class="d" d="M76.2,113.74c0,1.78,3,8,3,8s3-6.19,3-8a3,3,0,1,0-6.09,0Z"/><path class="e" d="M78,112.6A15.85,15.85,0,0,0,79.25,116a15.85,15.85,0,0,0,1.28-3.36,1.28,1.28,0,1,0-2.56,0Z"/><path class="f" d="M79.25,91.23c-5.11,0-8.17,11.07-8.79,16.47-.11.93,1.28,1.72,3,1.72H85c1.76,0,3.14-.79,3-1.72C87.42,102.3,84.35,91.23,79.25,91.23Z"/><path class="g" d="M79.25,91.53c-3.79,0-6.32,7.15-7.39,12.5-.5,2.48,3,4.65,7.39,4.65h0c4.44,0,7.89-2.17,7.39-4.65C85.57,98.68,83,91.53,79.25,91.53Z"/></svg>