<svg xmlns="http://www.w3.org/2000/svg" xmlns:xlink="http://www.w3.org/1999/xlink" viewBox="0 0 429.7978 297.4148"><defs><style>.a{isolation:isolate;}.b{fill:#6eb7d3;}.ab,.ag,.ai,.ak,.am,.ao,.aq,.as,.au,.aw,.c,.p,.r{mix-blend-mode:color-dodge;}.c{fill:url(#a);}.d{fill:#b7c3b5;}.e,.x{fill:#808a9e;}.f{fill:#a84234;}.g{fill:#5a8ba3;}.h{fill:#2c6b99;opacity:0.23;}.az,.h,.l,.o,.x{mix-blend-mode:multiply;}.i,.s,.v{mix-blend-mode:color-burn;}.i{fill:url(#b);}.j,.y{fill:#fff;}.j{opacity:0.39;mix-blend-mode:overlay;}.ay,.az,.k,.l,.o{fill:#7f8b7f;}.k{opacity:0.52;}.l{opacity:0.47;}.af,.ah,.aj,.al,.an,.ap,.ar,.at,.av,.ax,.m,.w,.z{mix-blend-mode:screen;}.m{fill:url(#c);}.n{fill:#b66f4f;}.o{opacity:0.41;}.p{fill:url(#d);}.q{fill:#8b5f3d;}.bf,.q{opacity:0.66;}.r{fill:url(#e);}.s{fill:url(#f);}.t{fill:#9eddf9;}.u{fill:#fdf8c0;}.v{fill:url(#g);}.w{fill:url(#h);}.y{opacity:0.32;}.z{fill:url(#i);}.aa{fill:#6e2618;}.ab{fill:url(#j);}.ac{fill:#3c2517;}.ad{fill:#f89521;}.ae{fill:#fcee23;}.af{fill:url(#k);}.ag{fill:url(#l);}.ah{fill:url(#m);}.ai{fill:url(#n);}.aj{fill:url(#o);}.ak{fill:url(#p);}.al{fill:url(#q);}.am{fill:url(#r);}.an{fill:url(#s);}.ao{fill:url(#t);}.ap{fill:url(#u);}.aq{fill:url(#v);}.ar{fill:url(#w);}.as{fill:url(#x);}.at{fill:url(#y);}.au{fill:url(#z);}.av{fill:url(#aa);}.aw{fill:url(#ab);}.ax{fill:url(#ac);}.az{opacity:0.49;}.ba{fill:#89cbf0;}.bb{fill:#9bae9b;}.bc{fill:#212457;}.bd{fill:#511a0d;}.be{fill:#657066;}.bg{fill:#704d2f;}.bh{fill:#3c3049;}.bi{fill:#434e46;}</style><radialGradient id="a" cx="142.7211" cy="-34.2353" r="156.0592" gradientUnits="userSpaceOnUse"><stop offset="0" stop-color="#fff"/><stop offset="0.283" stop-color="#b0b0b0"/><stop offset="0.6351" stop-color="#525252"/><stop offset="0.8822" stop-color="#181818"/><stop offset="1" stop-color="#010101"/></radialGradient><radialGradient id="b" cx="247.721" cy="334.7653" r="297.6355" gradientUnits="userSpaceOnUse"><stop offset="0" stop-color="#010101"/><stop offset="0.1178" stop-color="#181818"/><stop offset="0.3649" stop-color="#525252"/><stop offset="0.717" stop-color="#b0b0b0"/><stop offset="1" stop-color="#fff"/></radialGradient><radialGradient id="c" cx="224.0367" cy="223.6615" r="147.4681" xlink:href="#a"/><radialGradient id="d" cx="99.8582" cy="64.5448" r="116.9322" gradientUnits="userSpaceOnUse"><stop offset="0.005" stop-color="#fff"/><stop offset="1" stop-color="#010101"/></radialGradient><radialGradient id="e" cx="216.9056" cy="168.2688" r="100.9427" gradientTransform="translate(0 34.6999) scale(1 0.8342)" xlink:href="#a"/><linearGradient id="f" x1="300.3136" y1="237.5107" x2="499.2791" y2="237.5107" xlink:href="#d"/><linearGradient id="g" x1="177.6658" y1="176.9043" x2="402.2313" y2="176.9043" gradientUnits="userSpaceOnUse"><stop offset="0" stop-color="#010101"/><stop offset="0.995" stop-color="#fff"/></linearGradient><radialGradient id="h" cx="59.0973" cy="193.3145" r="48.0566" xlink:href="#a"/><radialGradient id="i" cx="252.3467" cy="193.4833" r="124.6436" xlink:href="#a"/><radialGradient id="j" cx="109.7634" cy="146.3142" r="7.0617" gradientTransform="translate(236.7376 14.7123) rotate(80.7826)" xlink:href="#a"/><radialGradient id="k" cx="109.3815" cy="144.5279" r="5.3997" xlink:href="#a"/><radialGradient id="l" cx="131.1199" cy="151.8179" r="7.0617" gradientTransform="translate(68.1403 -38.5927) rotate(22.5)" xlink:href="#a"/><radialGradient id="m" cx="130.738" cy="150.0316" r="5.3997" xlink:href="#a"/><radialGradient id="n" cx="154.0347" cy="155.3994" r="7.0617" gradientTransform="translate(282.8853 -21.3574) rotate(80.7826)" xlink:href="#a"/><radialGradient id="o" cx="153.6528" cy="153.6131" r="5.3997" xlink:href="#a"/><radialGradient id="p" cx="174.9645" cy="157.8254" r="7.0618" gradientTransform="translate(288.5014 -48.5504) rotate(76.7175)" xlink:href="#a"/><radialGradient id="q" cx="174.5826" cy="156.0391" r="5.3997" xlink:href="#a"/><radialGradient id="r" cx="200.0968" cy="159.9809" r="7.0618" gradientTransform="translate(309.9573 -71.3502) rotate(76.7175)" xlink:href="#a"/><radialGradient id="s" cx="199.7149" cy="158.1945" r="5.3997" xlink:href="#a"/><radialGradient id="t" cx="223.4301" cy="159.3142" r="7.0618" gradientTransform="translate(178.2 -111.249) rotate(45)" xlink:href="#a"/><radialGradient id="u" cx="223.0482" cy="157.5279" r="5.3997" xlink:href="#a"/><radialGradient id="v" cx="248.4533" cy="158.4068" r="7.0617" xlink:href="#a"/><radialGradient id="w" cx="248.0714" cy="156.6205" r="5.3997" xlink:href="#a"/><radialGradient id="x" cx="273.7634" cy="157.3142" r="7.0617" gradientTransform="translate(81.1018 -92.7617) rotate(22.5)" xlink:href="#a"/><radialGradient id="y" cx="273.3815" cy="155.5279" r="5.3997" xlink:href="#a"/><radialGradient id="z" cx="299.4301" cy="153.9809" r="7.0618" gradientTransform="translate(196.6886 -166.5512) rotate(45)" xlink:href="#a"/><radialGradient id="aa" cx="299.0482" cy="152.1945" r="5.3997" xlink:href="#a"/><radialGradient id="ab" cx="324.0968" cy="149.6475" r="7.0618" gradientTransform="translate(395.4104 -199.9925) rotate(76.7174)" xlink:href="#a"/><radialGradient id="ac" cx="323.7149" cy="147.8612" r="5.3997" xlink:href="#a"/></defs><g class="a"><path class="b" d="M93.7382,118.6986s3.65-32.2463,27.3789-65.101,47.4568-40.7642,47.4568-40.7642A236.55,236.55,0,0,1,225.7654,1.8818c31.0295-1.8252,45.0231,11.56,46.8484,11.56s23.7284,12.7769,41.981,42.59,19.4695,49.282,19.4695,49.282l3.6505,18.2526s-28.5958,13.3853-46.8484,14.6021-52.9326,3.6506-52.9326,3.6506l-73.01-2.4337-46.24-7.3011S93.13,129.0417,93.7382,118.6986Z"/><path class="c" d="M93.7382,118.6986s3.65-32.2463,27.3789-65.101,47.4568-40.7642,47.4568-40.7642A236.55,236.55,0,0,1,225.7654,1.8818c31.0295-1.8252,45.0231,11.56,46.8484,11.56s23.7284,12.7769,41.981,42.59,19.4695,49.282,19.4695,49.282l3.6505,18.2526s-28.5958,13.3853-46.8484,14.6021-52.9326,3.6506-52.9326,3.6506l-73.01-2.4337-46.24-7.3011S93.13,129.0417,93.7382,118.6986Z"/><path class="d" d="M109.766,253.3811s37.7539,10.1032,65.4047,12.7619,93.0554,1.0635,93.0554,1.0635,46.2618-4.254,57.96-7.4444,32.4365-10.6349,45.73-21.8016A154.1844,154.1844,0,0,0,394.25,214.5637l5.8492-10.1031,20.7381-9.5714s9.04-4.254,7.9761-12.7619-4.2539-11.1667-4.2539-11.1667L386.8053,155.54,360.75,142.2464,354.9006,146.5s-5.8492-5.8492-9.5715-5.8492-7.4444,7.9762-7.4444,7.9762l-.5317,6.381s-11.6984,7.9761-24.9921,9.04-37.2221,4.7857-37.2221,4.7857a426.2262,426.2262,0,0,1-78.1666,1.5953c-41.4761-3.19-66.4681-6.381-66.4681-6.381L91.1549,155.54s5.3175-6.9127-1.5952-12.23-11.6984-.5318-11.6984-.5318l-2.6587,4.254-7.4444-4.7857L41.7026,157.1353,6.6075,170.4289S.2265,175.2146.7583,180,7.671,193.8257,7.671,193.8257s11.1666,6.9127,16.4841,9.5714l5.3174,2.6587c.8212.4106,2.0605,3.8957,2.5641,4.7019A54.7932,54.7932,0,0,0,41.7211,222.15c15.63,14.1917,34.3446,20.3038,53.6878,28.0411Z"/><path class="e" d="M109.766,253.3811s-2.6967,15.6968,9.5086,24.0186,36.061,13.87,36.061,13.87,37.1706,4.9931,56.0333,4.9931,56.0333-2.2192,56.0333-2.2192l32.7323-4.4382s21.0818-7.2122,26.0749-12.76,5.5478-10.5409,5.5478-10.5409l1.11-8.3218s-32.1775,6.6574-52.15,8.8766a270.1377,270.1377,0,0,1-35.5062,1.6643l-44.3828.5548a392.8557,392.8557,0,0,1-49.9307-6.6574C122.6033,256.8727,109.766,253.3811,109.766,253.3811Z"/><path class="f" d="M92.6449,120.95l-9.4313-.5548s-13.3149,3.8835-14.9792,9.4314-.4762,12.42-.4762,12.42l7.4444,4.7857s3.0179-6.11,8.5657-6.11a10.29,10.29,0,0,1,8.3218,4.4383l1.6644,4.4382-2.6,5.7409,46.9824,8.6836a476.4774,476.4774,0,0,0,72.122,6.6574c39.39.5548,52.15-.5548,52.15-.5548l39.39-2.7739,35.5541-12.544s-.305-10.4856,3.8356-12.4214a16.7779,16.7779,0,0,1,8.8765-1.11l4.8355,5.0229s6.26-2.249,5.1507-11.68-7.767-11.0957-7.767-11.0957L337.86,120.3955l-.1451,3.17A109.9742,109.9742,0,0,1,310.6754,133.71a237.8471,237.8471,0,0,1-29.4036,4.4383l-78.2247,2.2191-43.828-1.6644-35.5062-5.5478S98.1927,128.7173,92.6449,120.95Z"/><path class="g" d="M121.432,115.7262s-30.4306,2.5012-25.4283,6.2529,12.9226,6.67,12.9226,6.67,11.672,7.0866,62.5287,9.5878,63.3623,2.0843,63.3623,2.0843l45.0207-2.9181,32.5149-5.0022,19.1754-5.4192,6.1865-3.4155-2.4347-6.1722s-27.0958-5.4192-78.7862-5.836S139.7738,113.2251,121.432,115.7262Z"/><path class="h" d="M231.312,1.8463s38,26,55,59,18,74,18,74l23-4L337.86,120.3955S322.312,11.8463,231.312,1.8463Z"/><path class="i" d="M93.7382,118.6986s3.65-32.2463,27.3789-65.101,47.4568-40.7642,47.4568-40.7642A236.55,236.55,0,0,1,225.7654,1.8818c31.0295-1.8252,45.0231,11.56,46.8484,11.56s23.7284,12.7769,41.981,42.59,19.4695,49.282,19.4695,49.282l3.6505,18.2526s-28.5958,13.3853-46.8484,14.6021-52.9326,3.6506-52.9326,3.6506l-73.01-2.4337-46.24-7.3011S93.13,129.0417,93.7382,118.6986Z"/><path class="j" d="M236.312,1.8463s-32,24-43,53-13,86-13,86l-40-4-31.3857-8.1975-15.1881-9.95s2.184-31.35,27.3789-65.101S182.312,1.8463,236.312,1.8463Z"/><path class="k" d="M44.775,211.5859a619.1425,619.1425,0,0,0,114.537,22.26c40,4,86,1,86,1l62-6c25.3415-4.3134,52.1558-6.8135,75.6221-17.8923-8.0644,18.5249-24.332,32.63-42.5884,41.2855-37.44,17.75-79.7565,14.9483-120.0337,15.6068l-64-4c-10.4006-.65-21.6216-4.8613-31.7771-7.1446-17.7752-3.9965-36.0837-9.6771-51.9438-18.86C61.4373,231.3829,51.3819,222.6525,44.775,211.5859Z"/><path class="l" d="M34.5323,212.2177s27.4725,12.3346,95.8735,21.8659,135.12,4.4853,135.12,4.4853,50.46-4.4853,77.3716-10.6526a523.5161,523.5161,0,0,0,53.263-15.6986l2.2427-7.2886a442.5357,442.5357,0,0,1-94.7522,24.6692,653.831,653.831,0,0,1-100.3588,5.6066l-57.7484-3.364L78.264,220.067,29.4725,206.0558S31.1683,211.657,34.5323,212.2177Z"/><path class="m" d="M116.95,163.44,59.7621,200.4437s39.8072,15.138,109.89,19.0626S302.53,215.021,302.53,215.021L351.868,205.49l43.1711-13.4559L337.353,155.0083c-7.7842,4.1135-16.6865,6.31-25.2406,8.0931-23.069,4.8087-46.59,6.46-69.916,9.24-23.4648,2.7968-47.1206-.6185-70.5227-2.415-12.0542-.9253-24.1154-1.8893-36.1312-3.2341C130.72,166.1524,121.0379,166.6179,116.95,163.44Z"/><path class="n" d="M93.7382,118.6986l-12.6708,3.2522s-8.9707,2.2427-2.8034,7.2886,15.6986,13.456,81.857,21.8659,136.8019,2.2427,159.2285-5.6066,37.0038-16.2593,35.8825-19.0626-6.728-4.4853-6.728-4.4853L337.86,120.3955s.5521,2.6766-4.4938,5.48-24.6692,9.5312-24.6692,9.5312l-53.2631,5.046-75.1218.3936-56.5991-7.6907S95.1957,128.3416,93.7382,118.6986Z"/><path class="o" d="M63.1261,146.62s10.6526,11.2133,45.9744,19.0626,80.175,14.5772,119.4214,12.3346,70.6437-3.364,91.3882-8.41,47.0958-21.8659,47.0958-21.8659l-6.2561-5.4949-6.6392,6.0556s-2.9857-10.8164-8.7815-7.6509a16.1182,16.1182,0,0,0-7.4444,7.9762l-.5317,6.381s-20.2462,10.1136-41.5514,11.2349-33.3925,4.083-33.3925,4.083l-61.92.963-59.991-6.1673L91.1549,155.54s6.3365-4.327-1.5952-12.23-14.3571,3.7222-14.3571,3.7222l-7.4444-4.7857Z"/><path class="p" d="M92.6449,120.95l-9.4313-.5548s-4.95,3.798,3.46,9.9653,40.9285,12.3346,51.02,13.4559,57.7484,5.046,57.7484,5.046l5.6066-7.8493s-35.3218-.5607-48.7777-2.8033-31.3972-6.1673-31.3972-6.1673S95.2518,127.7991,92.6449,120.95Z"/><path class="q" d="M8.4336,176.75c6.72-2.4615,31.17,16.7329,37.0743,19.1963,18.0216,7.509,39.5474,14.0168,39.5474,14.0168l60.0721,9.0109,63.5763,2.0024,53.0637-.5006,63.0757-8.01,41.0492-9.0108L420.9584,182.43s6.0072,1.0012,3.5042,6.5078-5.006,7.509-5.006,7.509-36.5439,14.5174-50.06,19.0228-50.06,12.5151-50.06,12.5151-62.0745,9.0108-100.12,8.01-82.5991-4.5054-82.5991-4.5054l-44.5535-8.01-41.55-11.5139-21.0414-5.91c-10.935-4.59-25.0994-10.3243-23.5093-24.7344a6.5647,6.5647,0,0,1,1.5813-4.0166A2.4212,2.4212,0,0,1,8.4336,176.75Z"/><path class="r" d="M113.59,214.7866s-21.0253-1.2529-22.0265.8352,3.5042,5.8468,3.5042,5.8468,72.0865,10.44,120.1442,10.0229,104.125-6.2643,104.125-6.2643,14.5174-2.5058,15.018-7.5172-5.5066-7.5172-13.5162-5.8468-45.5547,5.4291-45.5547,5.4291-44.5535,2.9234-74.0889,2.0881-52.0625-1.67-53.5643-2.0881S113.59,214.7866,113.59,214.7866Z"/><path class="s" d="M235.2355,234.9933s38.5463,3.0036,30.5367,16.0192-41.55,12.0144-41.55,12.0144,61.0733,4.0048,105.6268-10.012,51.0612-41.55,51.0612-41.55-34.5414,11.5139-65.5786,17.0205S235.2355,234.9933,235.2355,234.9933Z"/><path class="t" d="M258.2632,8.2211s33.54,16.52,53.0636,51.0613,22.0393,66.5931,22.0393,66.5931l4.3487-2.31S331.3509,37.7566,258.2632,8.2211Z"/><path class="u" d="M367.0059,147.7413l-3.116,1.6493,61.0733,27.533,3.5042-1.5018-4.0048-6.0072S368.12,146.5927,367.0059,147.7413Z"/><path class="u" d="M337.7159,123.5645c.7315-.9273,9.2742,1.4387,10.3008,1.9082,3.5782,1.6368,7.3744,5.1859,8.7914,8.9553.5511,1.4661,1.9607,9.3706.574,10.4571l3.3677-2.6387a13.6253,13.6253,0,0,0-.8647-11.8787C356.3812,123.86,343.0794,116.7652,337.7159,123.5645Z"/><path class="o" d="M424.5592,170.9606s-7.105,8.466-31.6344,16.9762-84.101,23.5282-103.1238,25.5306-77.5931,3.5043-108.13,1.5018-60.5727-2.0024-99.119-13.0156-57.5691-24.0288-57.5691-24.0288L11.9676,168.914l-5.36,1.5149s8.3637,9.9989,13.87,12.5019,31.0373,15.5186,31.0373,15.5186S92.5643,211.6,113.59,214.7866s45.5546,5.1887,45.5546,5.1887l59.0709,1.5018s38.5463-.5006,71.5859-4.0048a440.9387,440.9387,0,0,0,58.07-10.0121l40.5487-11.0132,32.539-14.0168,7.509-7.0084S428.16,170.5043,424.5592,170.9606Z"/><path class="v" d="M298.3112,165.91s2.0024,10.5126,11.0132,25.5306,15.5187,21.0252,15.5187,21.0252l49.0588-12.0144,43.5523-17.02L354.1106,148.302s-2.7357-6.4205-6.74-6.9211-9.96,3.98-9.4854,7.2464a15.9445,15.9445,0,0,1-.5317,6.381S324.8431,161.405,298.3112,165.91Z"/><path class="w" d="M32.9928,188.938,80.55,156.9s-9.5114-3.5042-12.0144-5.5066-5.4094-4.773-5.4094-4.773L6.6075,170.4289S25.9844,189.4386,32.9928,188.938Z"/><path class="x" d="M113.4459,256.05c-1.9979,1.2287.08,5.5144,1.3542,6.8477a8.1979,8.1979,0,0,0,3.288,1.79c3.455,1.2388,7.2319,2.2785,10.3645,4.2305,2.0368,1.2692,2.56,3.5295,4.0229,5.408,2.578,3.31,6.4916,5.895,10.0143,8.099,3.7889,2.3706,8.135,3.6539,11.9131,5.8957a117.129,117.129,0,0,1-10.8538-7.289,18.239,18.239,0,0,1-4.5223-4.4077c-.7188-1.1107-2.136-4.1131-.962-5.3318,1.0323-1.0716,3.455-.1077,4.5944.2611a27.5471,27.5471,0,0,0,7.1982.8053,48.113,48.113,0,0,1,6.3955.7418,8.8693,8.8693,0,0,1,3.0965,1.0172c1.8147,1.1216,3.0735,3.258,4.2773,4.9493a15.083,15.083,0,0,0,4.5794,3.7579c3.1623,1.96,6.6228,5.6421,10.2328,6.5641a59.8227,59.8227,0,0,1-8.6179-7.9414,8.4085,8.4085,0,0,1-2.0922-3.3515c-1.1353-4.4351,4.8429-4.1321,7.6376-3.9054,4.0816.3311,8.1576.8124,12.2192,1.329,2.5711.3271,6.1784.18,8.5452,1.1681,2.3933.9993,4.4311,3.8679,6.2838,5.61,3.4872,3.279,7.9241,5.85,11.8628,8.5487a22.3145,22.3145,0,0,1-4.9842-4.83,8.0737,8.0737,0,0,1-1.4776-2.77c-1.6408-6.38,5.8-5.9291,9.6627-5.7172q7.1209.39,14.2531.5155,4.6.0807,9.2015-.0033c1.741-.0294,7.0422-1.1163,8.2585.4468a2.5748,2.5748,0,0,1,.3575,2.0808,8.8694,8.8694,0,0,1-2.4155,3.924l-7.547,8.466,16.87-13.31c5.0163-3.9576,12.7074-3.0782,18.7713-3.6249,1.5789-.1423,4.4049-1.0143,5.9047-.5887,2.4336.6905,1.2911,2.6283-.2349,3.6074l-12.7838,8.2015A254.7613,254.7613,0,0,1,299.88,273.74c1.9784-.6869,8.1084-3.4718,8.8153-.0187a4.6211,4.6211,0,0,1-1.0224,3.4925c-.726,1.0162-1.6408,1.8949-2.2894,2.9621,3.6685-1.9254,6.7506-4.7743,10.0155-7.3248s6.896-4.8837,10.9955-5.4824c1.6708-.244,3.6052-.3029,4.6525-1.6274a4.8441,4.8441,0,0,0,.8181-2.0952,21.4773,21.4773,0,0,0,.4176-4.3278,1.6383,1.6383,0,0,0-.2343-1.0051c-.4941-.6444-1.506-.2866-2.2329.0755-5.9262,2.9522-13.519,3.5652-19.9985,4.5414-10.5748,1.5932-21.2227,2.6957-31.8848,3.5q-9.3238.7036-18.6673,1.1017a710.4484,710.4484,0,0,1-84.0932-1.3892c-6.5717-.5861-13.222-2.2629-19.7194-3.3749l-26.3151-4.5038-10.3427-1.77c-1.3876-.2375-3.82-1.1234-5.109-.5683A1.8654,1.8654,0,0,0,113.4459,256.05Z"/><path class="y" d="M215.8619,280.4921a2.2368,2.2368,0,0,0-2.545,1.9267,4.8392,4.8392,0,0,0,1.0115,3.3681c1.6888,2.5175,4.2254,4.32,6.7046,6.0643,1.4965,1.053,3.1,2.1446,4.9267,2.2439,1.807.0981,3.5031-.7926,5.0926-1.6577,3.1118-1.6939,11.8216-4.7237,9.3183-9.9883-1.3223-2.78-9.4378-1.0619-11.7254-.9336a24.0531,24.0531,0,0,1-7.5539-.2785,27.8605,27.8605,0,0,0-3.3066-.9261,6.0714,6.0714,0,0,0-2.5614.1972Z"/><path class="y" d="M259.9335,280.9386a4.3723,4.3723,0,0,0-.6612.175c-4.1113,1.7014-7.5183,5.98-10.715,8.9459,8.2239-.4894,15.8447-4.2936,23.106-8.1855.8257-.4425,1.7624-1.0632,1.7683-2C273.4361,279.17,262.8925,280.32,259.9335,280.9386Z"/><path class="y" d="M271.8189,287.3717c7.8-2.8631,15.6321-5.741,22.9259-9.72,2.4141-1.3168,5.0537-2.8043,7.747-2.2493a2.0839,2.0839,0,0,1,1.1184.5319c.8557.9024.02,2.3907-.9565,3.1611a18.0066,18.0066,0,0,1-5.9147,2.7215,164.3887,164.3887,0,0,1-25.0866,5.7328,7.6366,7.6366,0,0,0,3.0192-1.079Z"/><path class="y" d="M206.5766,291.8519c-2.903-.1011-5.629-3.03-7.46-4.962a76.334,76.334,0,0,0-6.9158-6.3385c-2.9422-2.4454-10.2529-1.3881-13.8042-1.2984-1.0588.0268-2.3361.2151-2.7512,1.1894-.4252.998.37,2.0669,1.1231,2.8479a27.1959,27.1959,0,0,0,6.1274,5.0688c3.89,2.1744,8.4818,2.6237,12.9277,2.9324Q201.1948,291.6646,206.5766,291.8519Z"/><path class="y" d="M164.2418,283.999c-3.1371-2.5767-5.8086-7.0872-9.9656-7.8877a34.8738,34.8738,0,0,0-3.5315-.2508,11.4986,11.4986,0,0,1-2.8578-.6277c-1.0794-.3867-2.4238-.8878-3.2452-.0879-.829.8073-.3264,2.2321.4147,3.1207,2.9245,3.5064,8.5988,5.6768,12.7413,7.2591a54.9751,54.9751,0,0,0,15.1172,3.4438C169.6024,288.35,166.8458,286.1378,164.2418,283.999Z"/><path class="z" d="M108.9787,237.18s43.3333,8.6667,111.3333,8,109.3334-12,107.3334-6-6,14.6667-46,18S147.6454,262.513,108.9787,237.18Z"/><path class="aa" d="M93.7545,149.7991s53.8909,15.38,126.5575,15.38,117.5727-16.5523,117.5727-16.5523l-.5317,6.381s-17.041,6.838-22.3743,8.1713-37.3333,8-94.6667,8-82.1747-6.956-82.1747-6.956L91.1549,155.54Z"/><circle class="ab" cx="109.7227" cy="146.4819" r="8.5827" transform="translate(-52.4434 231.3241) rotate(-80.7826)"/><path class="ac" d="M115.2037,146.513a4.8917,4.8917,0,1,1-4.8917-4.8917A4.8917,4.8917,0,0,1,115.2037,146.513Z"/><circle class="ad" cx="110.312" cy="146.513" r="4.2713"/><path class="ae" d="M113.0945,146.0167a3.0927,3.0927,0,1,1-3.0926-3.0927A3.0927,3.0927,0,0,1,113.0945,146.0167Z"/><circle class="af" cx="110.312" cy="146.513" r="4.2713"/><circle class="ag" cx="131.0792" cy="151.9857" r="8.5826" transform="translate(-48.1847 61.7312) rotate(-22.5)"/><path class="ac" d="M136.56,152.0167a4.8917,4.8917,0,1,1-4.8917-4.8916A4.8916,4.8916,0,0,1,136.56,152.0167Z"/><circle class="ad" cx="131.6685" cy="152.0167" r="4.2713"/><path class="ae" d="M134.451,151.52a3.0927,3.0927,0,1,1-3.0926-3.0926A3.0926,3.0926,0,0,1,134.451,151.52Z"/><circle class="ah" cx="131.6685" cy="152.0167" r="4.2713"/><circle class="ai" cx="153.994" cy="155.5671" r="8.5827" transform="translate(-24.2314 282.6536) rotate(-80.7826)"/><path class="ac" d="M159.475,155.5982a4.8917,4.8917,0,1,1-4.8917-4.8917A4.8917,4.8917,0,0,1,159.475,155.5982Z"/><circle class="ad" cx="154.5833" cy="155.5982" r="4.2713"/><path class="ae" d="M157.3658,155.1019a3.0927,3.0927,0,1,1-3.0926-3.0927A3.0927,3.0927,0,0,1,157.3658,155.1019Z"/><circle class="aj" cx="154.5833" cy="155.5982" r="4.2713"/><circle class="ak" cx="174.9237" cy="157.9931" r="8.5827" transform="translate(-19.032 291.9383) rotate(-76.7175)"/><path class="ac" d="M180.4047,158.0242a4.8917,4.8917,0,1,1-4.8916-4.8917A4.8917,4.8917,0,0,1,180.4047,158.0242Z"/><circle class="ad" cx="175.5131" cy="158.0242" r="4.2713"/><circle class="ae" cx="175.2029" cy="157.5279" r="3.0927"/><circle class="al" cx="175.5131" cy="158.0242" r="4.2713"/><circle class="am" cx="200.056" cy="160.1486" r="8.5827" transform="translate(-1.7717 318.0585) rotate(-76.7175)"/><path class="ac" d="M205.537,160.18a4.8917,4.8917,0,1,1-4.8916-4.8916A4.8917,4.8917,0,0,1,205.537,160.18Z"/><circle class="ad" cx="200.6454" cy="160.1796" r="4.2713"/><path class="ae" d="M203.4279,159.6834a3.0927,3.0927,0,1,1-3.0927-3.0927A3.0927,3.0927,0,0,1,203.4279,159.6834Z"/><circle class="an" cx="200.6454" cy="160.1796" r="4.2713"/><circle class="ao" cx="223.3894" cy="159.4819" r="8.5827" transform="translate(-47.3415 204.6713) rotate(-45)"/><path class="ac" d="M228.87,159.513a4.8916,4.8916,0,1,1-4.8916-4.8917A4.8916,4.8916,0,0,1,228.87,159.513Z"/><circle class="ad" cx="223.9787" cy="159.513" r="4.2713"/><path class="ae" d="M226.7612,159.0167a3.0927,3.0927,0,1,1-3.0927-3.0927A3.0927,3.0927,0,0,1,226.7612,159.0167Z"/><circle class="ap" cx="223.9787" cy="159.513" r="4.2713"/><circle class="aq" cx="248.4125" cy="158.5746" r="8.5826"/><path class="ac" d="M253.8935,158.6056a4.8917,4.8917,0,1,1-4.8916-4.8916A4.8917,4.8917,0,0,1,253.8935,158.6056Z"/><circle class="ad" cx="249.0019" cy="158.6056" r="4.2713"/><path class="ae" d="M251.7844,158.1094a3.0927,3.0927,0,1,1-3.0927-3.0927A3.0927,3.0927,0,0,1,251.7844,158.1094Z"/><circle class="ar" cx="249.0019" cy="158.6056" r="4.2713"/><circle class="as" cx="273.7227" cy="157.482" r="8.5826" transform="translate(-39.4299 116.737) rotate(-22.5)"/><path class="ac" d="M279.2037,157.513a4.8917,4.8917,0,1,1-4.8917-4.8917A4.8917,4.8917,0,0,1,279.2037,157.513Z"/><circle class="ad" cx="274.312" cy="157.513" r="4.2713"/><path class="ae" d="M277.0945,157.0167a3.0927,3.0927,0,1,1-3.0926-3.0927A3.0927,3.0927,0,0,1,277.0945,157.0167Z"/><circle class="at" cx="274.312" cy="157.513" r="4.2713"/><circle class="au" cx="299.3894" cy="154.1486" r="8.5827" transform="translate(-21.3104 256.8493) rotate(-45)"/><path class="ac" d="M304.87,154.18a4.8916,4.8916,0,1,1-4.8916-4.8916A4.8916,4.8916,0,0,1,304.87,154.18Z"/><circle class="ad" cx="299.9787" cy="154.1796" r="4.2713"/><path class="ae" d="M302.7612,153.6834a3.0927,3.0927,0,1,1-3.0927-3.0927A3.0926,3.0926,0,0,1,302.7612,153.6834Z"/><circle class="av" cx="299.9787" cy="154.1796" r="4.2713"/><circle class="aw" cx="324.0561" cy="149.8153" r="8.5826" transform="translate(103.7953 430.7817) rotate(-76.7174)"/><path class="ac" d="M329.537,149.8463a4.8917,4.8917,0,1,1-4.8916-4.8916A4.8916,4.8916,0,0,1,329.537,149.8463Z"/><circle class="ad" cx="324.6454" cy="149.8463" r="4.2713"/><path class="ae" d="M327.4279,149.35a3.0927,3.0927,0,1,1-3.0927-3.0926A3.0927,3.0927,0,0,1,327.4279,149.35Z"/><circle class="ax" cx="324.6454" cy="149.8463" r="4.2713"/><path class="l" d="M405.6454,189.18l-13-11s-6-3.3333-10.3334-2-8.3333,5.6667-8.3333,5.6667-3.3333,3.3333-.6667,6.6667,12.3334,8,12.3334,8S401.6454,190.8463,405.6454,189.18Z"/><path class="ay" d="M24.6454,186.18l8.3333-7s7-1.6666,12,1,6,4.6667,6,4.6667a32.0621,32.0621,0,0,1-4,5,42.24,42.24,0,0,1-6,4.6667S25.6454,188.8463,24.6454,186.18Z"/><path class="az" d="M87.99,151.8476a5.0146,5.0146,0,1,1-5.0146-5.0146A5.0146,5.0146,0,0,1,87.99,151.8476Z"/><path class="ba" d="M93.7184,120.9193c7.406-43.1414,32.0427-85.2124,72.7117-104.3523,11.95-5.6242,24.9283-8.91,37.9545-10.85,13.995-2.0842,28.5928-3.0136,42.5383-.0921,24.502,5.1332,45.1815,23.9743,59.7617,43.5452a148.2382,148.2382,0,0,1,28.7,73.456c.25,2.5025,4.1978,2.5274,3.9442,0a151.9373,151.9373,0,0,0-24.4681-68.6C301.2792,33.53,281.755,13.7043,258.3665,4.8988,245.0762-.1049,230.5542-.6772,216.5428.55,202.58,1.7724,188.5652,4.3435,175.3606,9.1208c-21.8072,7.89-40.4166,22.336-54.4958,40.6624a144.0535,144.0535,0,0,0-28.7415,70.92c-.1045.9017,1.44,1.1173,1.5951.2159Z"/><path class="bb" d="M337.4827,122.8892c7.2469-.7671,16.4214.5812,20.5888,7.3719a12.6838,12.6838,0,0,1,1.4067,9.5044c-.8919,3.6523-3.0281,5.2631-5.9533,7.2667-.7379.5054-.5618,1.9386.5009,1.85,7.9927-.6694,9.5941-12.1407,7.0981-17.9955-3.8032-8.9211-14.9732-11.2241-23.6412-10.24-1.4145.1606-1.44,2.3953,0,2.2429Z"/><path class="bc" d="M92.1563,121.1588c5.246,6.829,15.5438,9.4645,23.4245,11.5056,14.4156,3.7336,29.3361,5.5434,44.1375,6.9186a662.0366,662.0366,0,0,0,112.474.75c9.5779-.7483,19.1381-1.7694,28.6413-3.185,12.9606-1.9306,26.3245-4.76,37.5248-11.8976a1.4447,1.4447,0,0,0-1.4573-2.4931c-17.9231,10.4107-39.412,12.381-59.6941,14.1916-17.8848,1.5965-35.8476,2.3026-53.8007,2.4-33.63.1817-68.072-.9671-101.1038-7.7932a120.1148,120.1148,0,0,1-17.97-5.009c-3.8921-1.461-8.05-3.17-10.7589-6.4807-.6415-.784-2.0426.2793-1.4171,1.0934Z"/><path class="bd" d="M90.3929,156.2822c64.7435,17.4252,133.3867,21.3028,199.8582,12.9706,16.3962-2.0552,33.8774-4.2657,48.1073-13.3339a1.4448,1.4448,0,0,0-1.4573-2.4932c-13.5662,7.88-28.7978,10.5289-44.1557,12.5364q-24.31,3.1776-48.8439,4.1354a538.3526,538.3526,0,0,1-98.6791-5.185c-18.2362-2.6583-36.4171-6.1325-54.35-10.37a.9031.9031,0,0,0-.48,1.74Z"/><path class="bb" d="M11.0941,170.4311q14.65-5.6476,28.9026-12.2375,7.3283-3.4013,14.5413-7.0433c4.746-2.397,9.8285-4.6494,14.24-7.6233a1.1611,1.1611,0,0,0-1.1711-2.0034c-4.7248,2.0385-9.2044,4.8182-13.7987,7.1492q-6.9273,3.5146-13.9646,6.8069-14.4906,6.7762-29.3871,12.64c-1.4151.5587-.81,2.87.6374,2.3118Z"/><path class="bb" d="M10.76,168.736c-10.3472.3918-13.8216,12.8121-7.8219,20.1049.886,1.0769,2.41-.4627,1.5313-1.5313-5.579-6.7814-1.19-15.0795,6.462-17.3076a.6475.6475,0,0,0-.1714-1.266Z"/><path class="bb" d="M424.06,169.2955c-10.9123-4.2941-21.7815-8.7165-32.5182-13.434q-7.9341-3.4858-15.75-7.233c-4.8078-2.32-9.4753-5.2033-14.4072-7.2219-1.2911-.5284-1.8957,1.42-.894,2.12,4.6921,3.28,10.3948,5.5761,15.5523,8.0348q7.8458,3.74,15.8253,7.1915c10.416,4.5348,20.9531,8.7735,31.5545,12.8541,1.4446.556,2.0559-1.7537.6374-2.3119Z"/><path class="be" d="M5.2726,172.4728c21.4555,19.3366,49.7867,30.1769,77.3141,37.5939,15.3279,4.13,30.9,6.3827,46.6777,7.9313,16.7806,1.647,33.5151,3.41,50.3648,4.2109,60.3522,2.8674,122.4486-1.3249,181.0781-16.5334,23.2128-6.0214,48.0586-13.69,67.67-27.9959,1.3028-.95.0906-3.1372-1.2882-2.2037-17.528,11.8671-37.63,19.3306-57.864,25.15-26.946,7.75-54.74,12.563-82.58,15.669a682.1051,682.1051,0,0,1-93.2783,3.9339q-23.9466-.6218-47.8044-3.0228c-16.736-1.7157-33.5243-2.9761-50.0124-6.4638C63.995,204.0672,31.237,192.575,6.33,171.4156c-.7253-.6163-1.7788.407-1.0573,1.0572Z"/><path class="bd" d="M338.8035,154.4438c.089-4.38,1.413-10.5373,6.5607-11.6958a7.8475,7.8475,0,0,1,5.14.8833c1.6775,1.0359,1.9973,2.7681,2.515,4.5355.3182,1.0863,2.1544.9361,2.0509-.2776-.4229-4.9592-4.4322-7.9585-9.3977-7.4724-6.346.6213-10.0185,8.69-8.9956,14.3148.2242,1.2326,2.1028.8958,2.1269-.2878Z"/><path class="bd" d="M75.3375,147.9186c1.5835-5.1721,8.6775-7.4809,13.214-4.706a7.4323,7.4323,0,0,1,3.473,6.57c-.0847,2.43-1.6758,3.8138-2.4581,5.93-.1987.5374.3882.9816.8721.872,2.9188-.6606,3.9676-4.5312,3.8819-7.1654a9.5921,9.5921,0,0,0-4.7282-7.9862c-5.5631-3.1677-13.9993-.1875-15.8208,6.0546a.8128.8128,0,0,0,1.5661.4318Z"/><path class="be" d="M86.919,155.6266c1.8822-1.8713,1.6-5.5647.2383-7.6719-1.6174-2.5026-4.8626-2.49-7.1047-.8107a5.4167,5.4167,0,0,0-1.2324,7.7389c1.7773,2.1541,5.9868,2.6661,8.0942.7392.196-.1792-.0542-.4822-.2772-.3594-2.3393,1.2881-6.0917,1.4661-7.7432-1.02-1.691-2.5461-.3472-5.7012,2.17-7.0725,5.06-2.7568,8.54,4.4079,5.5223,8.124C86.3994,155.5242,86.6994,155.8449,86.919,155.6266Z"/><path class="be" d="M24.6641,186.1168c3.0566-2.1889,6.04-4.4625,9.0254-6.7478.2634-.2017.0025-.6556-.2635-.4508-2.9964,2.3072-5.9811,4.615-8.9025,7.0164-.1007.0829.0334.2591.1406.1822Z"/><path class="be" d="M33.59,179.1086a22.1123,22.1123,0,0,1,14.73,3.6174c1.8427,1.2657,2.4127,1.5882,1.6391,3.5519a10.7444,10.7444,0,0,1-2.3907,2.9946,24.023,24.023,0,0,1-6.2006,4.5643c-.2868.1531-.0339.5784.2537.4341a23.0061,23.0061,0,0,0,9.7783-9.41.2584.2584,0,0,0-.04-.3076A22.186,22.186,0,0,0,33.59,178.69c-.262.0315-.2716.4435,0,.4189Z"/><path class="be" d="M44.8356,180.6435c6.4633-3.9967,12.8087-8.201,19.1429-12.3985,5.9708-3.9567,12.3-7.7044,17.9032-12.1676.1166-.0929-.0327-.2737-.1562-.2025-6.3719,3.6759-12.3383,8.2494-18.4759,12.3127-6.1734,4.087-12.42,8.063-18.5929,12.15-.1888.125-.0167.4271.1789.3061Z"/><path class="be" d="M342.79,147.75c-1.5025,1.7676-1.5635,5.2822.2656,6.8845,1.9286,1.6894,4.52.6881,5.8966-1.1434,1.4133-1.8806,2.017-4.93.1659-6.7571-1.6481-1.6266-5.4452-1.1491-6.4056,1.0275a.2494.2494,0,0,0,.39.3007c1.5875-1.3017,4.4254-2.5213,5.882-.3,1.1178,1.7044.4148,4.0746-.7985,5.5305-1.3386,1.606-3.9479,2.2221-5.2119.1334-1.0014-1.6549-.5274-3.81.1394-5.4876C343.184,147.76,342.9112,147.6072,342.79,147.75Z"/><path class="be" d="M347.2862,154.64a125.5235,125.5235,0,0,0,15.51,14.259c4.83,3.7143,10.3811,7.8782,16.2,9.8522.3014.1023.4563-.3337.2086-.4947-5.5864-3.6307-11.4554-6.49-16.766-10.6146a158.1881,158.1881,0,0,1-14.7613-13.3939c-.2531-.2536-.6337.1307-.3919.392Z"/><path class="be" d="M405.8048,188.3178c-7.8865-5.4437-14.4593-15.7248-25.5028-11.1382-3.2774,1.3611-8.1233,5.3681-8.5442,9.2043-.2517,2.2942,2.638,3.7351,4.1676,4.9395,2.5609,2.0164,5.1949,3.9292,7.9361,5.6939.3532.2274.68-.3359.3285-.5621-2.2233-1.4308-4.3714-2.9549-6.4717-4.5607-2.7268-2.0849-6.2341-3.7433-4.1238-7.8851a14.0315,14.0315,0,0,1,11.6327-7.2467c9.2216-.3616,13.2094,7.9749,20.3466,11.95a.229.229,0,0,0,.231-.3951Z"/><path class="be" d="M275.6375,268.0079c9.951-.7752,18.4072-6.3947,25.0633-13.5544a103.82,103.82,0,0,0,10.1534-13.27c2.7428-4.117,6.4972-8.6049,7.2462-13.6188a.2774.2774,0,0,0-.5345-.1473c-1.64,4.7189-4.3323,8.7227-7.0676,12.8664a111.0645,111.0645,0,0,1-9.5119,12.7911c-6.6137,7.4331-15.1778,13.5639-25.3489,14.4372-.3153.027-.32.5211,0,.4962Z"/><path class="be" d="M297.2651,166.8568c4.2233,16.4705,14.574,32.93,26.5831,44.84.3645.3615.9025-.1843.56-.56a131.5678,131.5678,0,0,1-15.8363-20.6938c-4.5341-7.5555-7.6892-15.5325-10.9158-23.6938a.2032.2032,0,0,0-.3915.108Z"/><g class="bf"><path class="bg" d="M25.2145,185.9424c-.4769,6.6825.6688,14.0786,4.0958,19.92.153.2609.6274.0862.5065-.2135-2.6254-6.512-4.25-12.6144-3.9513-19.7067.0177-.4213-.6214-.4143-.651,0Z"/><path class="bg" d="M44.5189,194.845a21.7278,21.7278,0,0,0,1.9644,17.683c.1917.3049.7622.1086.6126-.2583-2.4131-5.9146-3.3016-10.9146-2.08-17.2876a.258.258,0,0,0-.4972-.1371Z"/><path class="bg" d="M322.13,226.3182l.3759.9853c.1834.4809.9889.7592,1.2518.1636,1.6961-3.8423,3.7508-11.0493.85-14.7573-.3343-.4272-.9147-.0241-.9572.3965-.2051,2.0277.6125,4.0541.6006,6.1266a19.6077,19.6077,0,0,1-1.6759,7.5428l1.2518.1636q-.1957-.49-.3916-.9809c-.3176-.7954-1.618-.46-1.3051.36Z"/><path class="bg" d="M65.427,203.8c-2.4778,3.1636-2.133,9.7752,1.09,12.4019a.4728.4728,0,0,0,.7389-.57c-.8276-1.9092-1.8876-3.4531-2.1123-5.5943a17.6366,17.6366,0,0,1,.8117-5.93c.0639-.2782-.319-.5739-.5279-.3073Z"/><path class="bg" d="M82.9467,208.91c-2.3727,2.4576-2.4993,9.4658.7346,11.3344a.385.385,0,0,0,.5586-.4294c-.33-1.8018-1.4682-3.2449-1.6028-5.1643-.1366-1.9478.5779-3.5122.9883-5.3457a.4093.4093,0,0,0-.6787-.395Z"/><path class="bg" d="M101.7784,214.881c-.8329,3.1809-.9649,8.176,1.0211,10.9756.22.31.83.2455.7926-.2147-.1445-1.78-.8743-3.4487-1.0464-5.252a28.6957,28.6957,0,0,1,.1568-5.3838c.0493-.5348-.7922-.629-.9241-.1251Z"/><path class="bg" d="M123.59,215.5531c-1.4464,4.66-.6616,11.1686,2.4619,15.0273a.4737.4737,0,0,0,.7864-.4578,36.8978,36.8978,0,0,1-2.3583-6.627,25.0583,25.0583,0,0,1,.11-7.8072c.0721-.5888-.8371-.66-1-.1353Z"/><path class="bg" d="M144.26,218.9355a32.284,32.284,0,0,0,2.2289,14.135c.229.542.99.13.8952-.3774-.434-2.3138-1.1562-4.5557-1.5355-6.8871-.3766-2.3154-.4881-4.6548-.8037-6.9767-.0642-.4726-.752-.3115-.7849.1062Z"/><path class="bg" d="M167.3823,220.8381c-.072,1.7474.1151,16.6922,4.1587,14.2406a.4631.4631,0,0,0-.1093-.8364c-2.1019-.5884-1.9574-5.2714-2.1667-6.8283a38.8772,38.8772,0,0,0-1.3-6.6547.2979.2979,0,0,0-.5823.0788Z"/><path class="bg" d="M188.3237,222.1617a27.1365,27.1365,0,0,0,.9,14.78.49.49,0,0,0,.9447-.26c-.3536-2.5576-.9894-5.0256-1.1557-7.6218-.1453-2.2681-.0212-4.5365-.0183-6.8067a.3431.3431,0,0,0-.6709-.0908Z"/><path class="bg" d="M214.6842,223.3985c-.9809,1.7488-.5405,4.105-.3657,6.0341a40.735,40.735,0,0,0,1.2127,6.8743.774.774,0,0,0,1.4915-.4112,45.2044,45.2044,0,0,1-1.2473-7.3643c-.1282-1.7327.19-3.5352-.5347-5.1329a.3244.3244,0,0,0-.5565,0Z"/><path class="bg" d="M240.8454,222.8831a83.0535,83.0535,0,0,0,.3537,12.0344c.0723.5243.8628.3621.8862-.12a82.1286,82.1286,0,0,0-.7243-11.9144.258.258,0,0,0-.5156,0Z"/><path class="bg" d="M264.3042,220.467c.6859,4.8748.5027,9.4691.5624,14.35.0079.6475,1.027.8321,1.1647.1577.9677-4.741.4511-10.1338-.4966-14.8466-.165-.82-1.3418-.452-1.2305.3393Z"/><path class="bg" d="M285.0776,219.0832a16.92,16.92,0,0,1-.0225,12.2682c-.3019.7786.9634,1.1279,1.2554.3461a16.8946,16.8946,0,0,0-.3376-12.9917c-.221-.5034-1.0887-.1432-.8953.3774Z"/><path class="bg" d="M304.9671,215.7426a20.5952,20.5952,0,0,1,1.2527,7.6564c-.0921,2.3518-.8868,4.4972-1.1924,6.7956-.0613.461.5938.535.8047.218,2.768-4.1617,1.858-10.5792.1293-14.9441-.2391-.604-1.2183-.3613-.9943.2741Z"/><path class="bg" d="M341.9239,209.9372c1.826,3.9383,2.3728,7.9175.5922,12.0037-.3913.8981.9377,1.6776,1.3245.7742,1.827-4.2665,1.8878-9.4789-.8371-13.409a.6257.6257,0,0,0-1.08.6311Z"/><path class="bg" d="M364.5413,203.1934a13.1472,13.1472,0,0,1,2.0081,7.1454c-.09,2.1925-1.2957,3.91-1.4812,5.9938a.4148.4148,0,0,0,.6206.3562c1.9576-1.3239,2.35-4.5431,2.3423-6.7466a12.087,12.087,0,0,0-2.5079-7.5064c-.4546-.5687-1.3159.1577-.9819.7576Z"/><path class="bg" d="M388.2454,196.0118a14.46,14.46,0,0,1,1.6494,6.4091c.0155,2.1308-.6838,3.8436-1.1355,5.8653a.5764.5764,0,0,0,1.0484.442c2.5111-3.766,1.6216-9.62-.5161-13.3279-.3934-.6824-1.3865-.0824-1.0462.6115Z"/><path class="bg" d="M403.3543,189.9891c1.3087,4.37.9457,8.0343.4493,12.4554a.5775.5775,0,0,0,1.0689.29c1.76-4.0834,1.0591-9.1479-.6465-13.1124-.2149-.5-1.0245-.1425-.8717.3675Z"/><path class="bg" d="M415.039,184.1031a20.903,20.903,0,0,1,1.2037,6.99c.0467,2.1765-.629,4.3779-.52,6.499a.5919.5919,0,0,0,1.0929.2961c1.2831-1.7945,1.0038-5.1053.8893-7.181a19.6447,19.6447,0,0,0-1.5-7.0957c-.2968-.6508-1.4227-.1859-1.1661.4917Z"/><path class="bg" d="M12.8893,196.1648a25.46,25.46,0,0,1-1.93-8.3485c-.0183-.9335.9759-9.3886,2.3268-8.7317a.5424.5424,0,0,0,.7858-.6041q-.039-.2036-.0782-.4072a.7441.7441,0,0,0-.7089-.54c-2.9156-.1069-3.4678,4.8914-3.74,6.8637a19.427,19.427,0,0,0,2.1313,12.2791c.3677.63,1.4755.2147,1.2134-.5116Z"/></g><path class="bh" d="M108.2805,253.17a24.5446,24.5446,0,0,0,6.9692,21.2786c5.6879,5.8092,14.4411,9.0454,21.9435,11.7821,17.767,6.481,36.8145,9.0431,55.6058,10.2331a419.1769,419.1769,0,0,0,61.7348-.38c10.8831-.9229,21.6984-2.4144,32.4364-4.4054a191.88,191.88,0,0,0,20.2368-4.4347c6.73-2.0186,13.5134-4.8736,18.666-9.7865,5.4593-5.2054,7.8726-12.136,7.9935-19.5785a.8319.8319,0,0,0-1.6628,0c-.2285,6.936-2.5364,13.4295-7.62,18.289-4.64,4.4347-10.7138,7.0948-16.7587,9.0056-14.9983,4.7408-31.39,6.93-46.9567,8.5722a412.01,412.01,0,0,1-57.5922,1.5654c-17.5592-.6135-35.2321-2.2058-52.3033-6.5323-16.5672-4.1987-45.2134-12.7322-41.2193-35.2023.1708-.9609-1.3-1.374-1.4728-.406Z"/><path class="bh" d="M126.8465,259.1592c.2714,12.5986,10.5827,21.8823,21.5259,26.3251,7.2978,2.9629,15.15,4.3987,22.89,5.6633q11.9708,1.9557,24.0881,2.7939a311.9725,311.9725,0,0,0,50.8673-.741c16.0715-1.4982,32.8648-3.3247,48.2621-8.3661,13.7345-4.497,26.6985-13.0461,32.2537-26.9032.1882-.4695-.5722-.6741-.7581-.2091-5.2724,13.1877-17.5468,21.5289-30.5672,25.9965-14.2583,4.8924-29.83,6.6986-44.75,8.2818-30.0448,3.188-61.3057,2.975-90.8731-3.8034-14.9057-3.4172-31.4173-11.8485-32.5715-29.0378-.0156-.2335-.3725-.2387-.3673,0Z"/><path class="bh" d="M158.1669,264.4811c-.9358,11.8559,11.7659,20.6682,21.0057,25.5148,5.8346,3.06,11.99,4.2638,18.5238,4.61,7.8926.4187,15.9578,1.0009,23.8585.8362a.3644.3644,0,0,0,0-.7283c-13.1063-1.26-27.6456,1.1549-39.94-4.4734-9.5919-4.391-23.85-13.6787-22.9968-25.76.02-.29-.4284-.2875-.4511,0Z"/><path class="bh" d="M289.5459,267.7163c-5.3925,10.6691-15.6678,16.5864-26.67,20.2665a129.6624,129.6624,0,0,1-19.0277,4.6981c-7.4109,1.2808-14.8119,1.395-22.2555,2.1843a.3386.3386,0,0,0,0,.6767c7.3935.5415,15.227-.6813,22.5044-1.9582a122.5477,122.5477,0,0,0,21.3024-5.5533c10.0237-3.7065,20.4129-9.7567,24.6062-20.12.1066-.2635-.3317-.4462-.4594-.1937Z"/><path class="bh" d="M198.0012,268.5585c3.4379,13.6728,14.0695,26.5433,29.0855,26.5985,15.4555.0569,27.23-12.1288,30.3162-26.6338.1127-.53-.7-.7565-.8142-.2245-3.0221,14.1212-14.4218,26.0264-29.502,25.9841-15.4837-.0434-23.8678-12.82-28.6194-25.8528a.2419.2419,0,0,0-.4661.1285Z"/><path class="bh" d="M107.6291,261.0449c11.7748,6.88,25.2614,9.4688,38.6347,11.18,14.9937,1.9189,30.0824,3.3359,45.1529,4.4894,30.4735,2.3326,61.215,2.9871,91.6276-.5123a293.09,293.09,0,0,0,49.6619-9.9226.6322.6322,0,0,0-.3358-1.2181c-57.6316,17.0362-118.4706,13.5206-177.4613,7.0244-16.1256-1.7758-32.38-3.9695-46.8961-11.6979a.3806.3806,0,0,0-.3839.6567Z"/><path class="n" d="M92.9354,119.582c-8.7033-.95-20.9292,1.9382-25.2268,10.4561-2.9788,5.9039-1.6662,18.122,6.716,18.8437,1.06.0912,1.24-1.3458.501-1.85-3.048-2.0776-5.2492-3.7865-6.0408-7.6385a12.4727,12.4727,0,0,1,2.4819-10.4832c4.9529-5.8875,14.247-7.8314,21.5687-7.0856,1.4381.1464,1.4186-2.088,0-2.2429Z"/><path class="be" d="M27.9638,204.9552c4.9545,12.52,15.4709,21.6578,26.7848,28.4372,13.6515,8.18,28.9605,13.8847,44.0862,18.6606,32.4821,10.2562,66.2381,15.77,100.2092,17.7234a584.4075,584.4075,0,0,0,77.8267-.6636c23.3268-1.7853,46.96-5.447,68.7472-14.29,23.8122-9.6651,44.1341-25.9472,55.48-49.3617.8284-1.71-1.7267-3.2147-2.56-1.4964C377.57,247.2062,328.8318,261.1515,284.5,265.51a569.82,569.82,0,0,1-70.21,2.045c-33.061-.85-66.2416-4.7679-98.257-13.2148C98.2239,249.641,80.4807,243.9717,63.9209,235.82c-14.33-7.0536-27.4847-16.7371-34.52-31.4711-.3788-.7933-1.7666-.2266-1.4372.6059Z"/><path class="bi" d="M.203,180.1186c1.61,11.3476,10.9987,18.2107,20.7769,22.6828,12.4749,5.7056,26.0266,9.56,39.18,13.3166a541.4993,541.4993,0,0,0,100.317,18.3235,665.1069,665.1069,0,0,0,104.44.6351c34.72-2.3527,69.0075-7.861,102.3069-18.1256a452.668,452.668,0,0,0,49.2235-18.6234c4.8794-2.15,9.9892-4.7968,12.1732-9.9756,2.7006-6.4038.5506-13.7652-4.36-18.42-.6861-.65-1.7271.387-1.039,1.0391,5.4356,5.15,7.1934,14.2625,1.8978,20.1874-3.5974,4.0249-9.1934,5.7407-13.9727,7.8919a382.595,382.595,0,0,1-44.9058,16.6844c-31.7265,9.7292-64.3695,15.2078-97.4328,17.6374-64.9623,4.7736-130.6065,1.3071-193.91-14.7234a444.3911,444.3911,0,0,1-46.4857-14.2709c-11.6914-4.37-24.9858-10.8839-27.116-24.5608-.1126-.723-1.1947-.41-1.0937.3016Z"/><path class="j" d="M226.8394,4.304S183.9289,36.02,175.8444,82.6623c-4.1753,26.5126-7.03,58.5773,6.3188,82.9729,2.9188,5.3343,6.5866,10.5887,7.0516,16.6515.4951,6.4567-2.8041,12.6558-7.0066,17.5826-12.6184,14.7931-39.9048,12.0133-57.8168,10.4393-16.9944-1.4933-34.5047-5.0654-50.9795-9.1741A69.3347,69.3347,0,0,1,44.6539,186.1c-2.2036-1.929-4.3581-4.1146-5.2543-6.9026-1.8808-5.8513,2.3724-11.8817,7.0567-15.8607A52.6144,52.6144,0,0,1,72.727,151.4523c-1.0005-7.117,4.7073-13.7982,11.4126-16.3848s14.1534-2.0556,21.3178-1.4865c.07-7.6341-.9889-16.2955.4877-23.7952C117.7938,49.608,171.06,18.5615,226.8394,4.304Z"/></g></svg>