<?xml version="1.0" encoding="utf-8"?>
<!-- Generator: Adobe Illustrator 25.2.0, SVG Export Plug-In . SVG Version: 6.00 Build 0)  -->
<svg version="1.1"
	 id="svg2" xmlns:cc="http://creativecommons.org/ns#" xmlns:dc="http://purl.org/dc/elements/1.1/" xmlns:inkscape="http://www.inkscape.org/namespaces/inkscape" xmlns:rdf="http://www.w3.org/1999/02/22-rdf-syntax-ns#" xmlns:sodipodi="http://sodipodi.sourceforge.net/DTD/sodipodi-0.dtd" xmlns:svg="http://www.w3.org/2000/svg"
	 xmlns="http://www.w3.org/2000/svg" xmlns:xlink="http://www.w3.org/1999/xlink" x="0px" y="0px" viewBox="0 0 494 495"
	 style="enable-background:new 0 0 494 495;" xml:space="preserve">
<style type="text/css">
	.st0{fill-rule:evenodd;clip-rule:evenodd;fill:#B3B3B3;}
	.st1{fill-rule:evenodd;clip-rule:evenodd;fill:#C9C9C9;}
	.st2{fill:#C9C9C9;}
	.st3{fill:#DADCDB;}
	.st4{fill:#E8E8E8;}
	.st5{fill:#24C3FF;}
	.st6{fill:#0083B5;}
	.st7{fill:#58D1FF;}
	.st8{fill:#00ABEC;}
</style>
<sodipodi:namedview  bordercolor="#666666" borderopacity="1" gridtolerance="10" guidetolerance="10" id="namedview4" inkscape:current-layer="XMLID_49_" inkscape:cx="-153.312" inkscape:cy="320.34989" inkscape:pagecheckerboard="true" inkscape:pageopacity="0.6745098" inkscape:pageshadow="2" inkscape:window-height="1001" inkscape:window-maximized="1" inkscape:window-width="1920" inkscape:window-x="-9" inkscape:window-y="-9" inkscape:zoom="1" objecttolerance="10" pagecolor="#000000" showgrid="true">
	<inkscape:grid  id="grid6199" type="xygrid"></inkscape:grid>
</sodipodi:namedview>
<g id="XMLID_49_" transform="translate(242.36077,35.197006)">
	<polygon id="rect6003" class="st0" points="-92.8,71.6 -23.5,107.9 -22.4,233.4 -91.6,197.1 	"/>
	<polygon id="rect6005" class="st0" points="82,79.3 12.7,115.5 11.6,241.1 80.8,204.8 	"/>
	<rect id="rect6195" x="-103.9" y="353" class="st1" width="18.6" height="18.6"/>
	<rect id="rect6197" x="93.6" y="352.4" class="st1" width="18.6" height="18.6"/>
	<rect id="XMLID_12_" x="152.4" y="296.5" class="st2" width="22.6" height="21"/>
	<rect id="XMLID_30_" x="192.6" y="280.1" class="st2" width="22.6" height="21"/>
	<polygon id="XMLID_21_" class="st3" points="80.8,360.3 80.8,-23.1 119.8,5.1 136.2,17.1 136.2,338.3 120,360.3 	"/>
	<polygon id="XMLID_20_" class="st3" points="136.2,142.5 193.8,142.5 251.6,270.5 145.4,314.5 136.2,318.3 	"/>
	<polygon id="XMLID_15_" class="st2" points="61,226.5 80.8,238.7 80.8,300.7 44,282.3 61.6,228.7 	"/>
	<polygon id="XMLID_17_" class="st2" points="145.4,142.5 145.4,314.5 136.2,318.3 136.2,142.5 	"/>
	<polygon id="XMLID_14_" class="st4" points="119.8,26.3 136.2,38.1 136.2,338.3 120,360.3 119.8,360.3 	"/>
	<polygon id="XMLID_8_" class="st2" points="141,302.3 140.4,300.7 227.8,263.1 193,180.5 194.6,179.9 230.2,264.1 	"/>
	<rect id="XMLID_40_" x="95" y="175.3" class="st2" width="1.8" height="168"/>
	<rect id="XMLID_42_" x="95" y="138.3" class="st2" width="1.8" height="24"/>
	<circle id="XMLID_3_" class="st5" cx="211" cy="255.1" r="9.8"/>
	<rect id="XMLID_9_" x="80.8" y="113.7" class="st5" width="55.4" height="15"/>
	<rect id="XMLID_13_" x="80.8" y="98.1" class="st5" width="55.4" height="5.6"/>
	<rect id="XMLID_57_" x="-166" y="296.5" class="st2" width="22.6" height="21"/>
	<rect id="XMLID_54_" x="-206" y="280.1" class="st2" width="22.6" height="21"/>
	<polygon id="XMLID_47_" class="st3" points="-71.8,360.3 -71.8,-23.1 -110.8,5.1 -127,17.1 -127,338.3 -111,360.3 	"/>
	<polygon id="XMLID_46_" class="st3" points="-127,142.5 -184.8,142.5 -242.4,270.5 -136.2,314.5 -127,318.3 	"/>
	<polygon id="XMLID_45_" class="st2" points="-52,226.5 -71.8,238.7 -71.8,300.7 -35,282.3 -52.6,228.7 	"/>
	<polygon id="XMLID_44_" class="st2" points="-136.2,142.5 -136.2,314.5 -127,318.3 -127,142.5 	"/>
	<polygon id="XMLID_43_" class="st4" points="-110.8,26.3 -127,38.1 -127,338.3 -111,360.3 -110.8,360.3 	"/>
	<polygon id="XMLID_41_" class="st2" points="-132,302.3 -221,264.1 -185.6,179.9 -184,180.5 -218.6,263.1 -131.2,300.7 	"/>
	<rect id="XMLID_65_" x="-87.8" y="175.3" class="st2" width="1.8" height="168"/>
	<rect id="XMLID_71_" x="-87.8" y="138.3" class="st2" width="1.8" height="24"/>
	<rect id="XMLID_36_" x="-127" y="113.7" class="st5" width="55.2" height="15"/>
	<rect id="XMLID_31_" x="-127" y="98.1" class="st5" width="55.2" height="5.6"/>
	<path id="XMLID_53_" inkscape:connector-curvature="0" class="st6" d="M-201.4,303.9c0,41.4,3,74.8,6.4,74.8s6.4-33.6,6.4-74.8
		H-201.4z"/>
	<path id="path6201" inkscape:connector-curvature="0" class="st7" d="M-198.4,303.8c0,22.1,1.6,40,3.4,40c1.8,0,3.4-18,3.4-40
		H-198.4z"/>
	<path id="XMLID_35_" inkscape:connector-curvature="0" class="st3" d="M-60.8,223.5l40.4-138c1.6-5.6,5-10.2,9.4-13.6
		c4.4-3.2,9.8-5.2,15.6-5.2c11.6,0,21.8,7.6,25,18.6l40.4,138l-30.8,93.8h-69L-60.8,223.5z"/>
	<path id="XMLID_33_" inkscape:connector-curvature="0" class="st4" d="M-60.8,223.5l40.4-138c1.6-5.6,5-10.2,9.4-13.6
		c4.4-3.2,9.8-5.2,15.6-5.2v250.6H-30L-60.8,223.5z"/>
	<rect id="XMLID_11_" x="-22.4" y="267.3" class="st5" width="54" height="6"/>
	<rect id="XMLID_22_" x="-22.4" y="252.1" class="st5" width="54" height="6"/>
	<path id="XMLID_35_-6" inkscape:connector-curvature="0" class="st5" d="M-41.1,208.1l28.6-97.6c1.1-4,3.5-7.2,6.6-9.6
		c3.1-2.3,6.9-3.7,11-3.7c8.2,0,15.4,5.4,17.7,13.2L51.4,208l-21.8,66.3h-48.8L-41.1,208.1z"/>
	<path id="XMLID_33_-9" inkscape:connector-curvature="0" class="st8" d="M51.4,208l-28.6-97.6c-1.1-4-3.5-7.2-6.6-9.6
		c-3.1-2.3-6.9-3.7-11-3.7v177.2h24.5L51.4,208z"/>
	<path id="XMLID_53_-4" inkscape:connector-curvature="0" class="st6" d="M-160.3,319.9c0,41.4,3,74.8,6.4,74.8s6.4-33.6,6.4-74.8
		H-160.3z"/>
	<path id="path6201-4" inkscape:connector-curvature="0" class="st7" d="M-157.4,319.9c0,22.1,1.6,40,3.4,40s3.4-18,3.4-40H-157.4z"
		/>
	<g id="g6573">
		<path id="XMLID_53_-8" inkscape:connector-curvature="0" class="st6" d="M-101.2,373.9c0,41.4,3,74.8,6.4,74.8s6.4-33.6,6.4-74.8
			H-101.2z"/>
		<path id="path6201-9" inkscape:connector-curvature="0" class="st7" d="M-98.2,373.9c0,22.1,1.6,40,3.4,40c1.8,0,3.4-18,3.4-40
			H-98.2z"/>
	</g>
	<path id="XMLID_53_-7" inkscape:connector-curvature="0" class="st6" d="M96.8,373.9c0,41.4,3,74.8,6.4,74.8s6.4-33.6,6.4-74.8
		H96.8z"/>
	<path id="path6201-1" inkscape:connector-curvature="0" class="st7" d="M99.8,373.9c0,22.1,1.6,40,3.4,40c1.8,0,3.4-18,3.4-40H99.8
		z"/>
	<path id="XMLID_53_-6" inkscape:connector-curvature="0" class="st6" d="M157.7,319.9c0,41.4,3,74.8,6.4,74.8s6.4-33.6,6.4-74.8
		H157.7z"/>
	<path id="path6201-6" inkscape:connector-curvature="0" class="st7" d="M160.6,319.9c0,22.1,1.6,40,3.4,40c1.8,0,3.4-18,3.4-40
		H160.6z"/>
	<g id="g6598">
		<path id="XMLID_53_-9" inkscape:connector-curvature="0" class="st6" d="M197.7,303.9c0,41.4,3,74.8,6.4,74.8s6.4-33.6,6.4-74.8
			H197.7z"/>
		<path id="path6201-0" inkscape:connector-curvature="0" class="st7" d="M200.6,303.9c0,22.1,1.6,40,3.4,40c1.8,0,3.4-18,3.4-40
			H200.6z"/>
	</g>
	<circle id="circle6448" class="st5" cx="-201.1" cy="257" r="9.8"/>
</g>
</svg>
