<svg xmlns="http://www.w3.org/2000/svg" viewBox="0 0 121.57 128.61"><defs><style>.a{fill:#644768;}.b{fill:#8a527e;}.c{fill:#70afdf;}.d{fill:#92cef6;}.e{fill:#d3f3fc;}.f{fill:#f9f9f9;}.g{fill:#304d78;}.h{fill:#8fc8eb;}.i{fill:#d1f3f7;}.j{fill:#fcfdfd;}.k{fill:#dfdfdf;}</style></defs><path class="a" d="M84.36,100.41s.39-33.5-8.26-39.9S64.4,90.43,64.4,90.43A30.45,30.45,0,0,0,84.36,100.41Z"/><path class="b" d="M76.71,61A56.37,56.37,0,0,1,70,84.18c2.18,4.58,4.78,9.48,6.51,14.46a28.71,28.71,0,0,0,7.85,1.77S84.72,68.54,76.71,61Z"/><path class="a" d="M108.28,48.18s.39-33.49-8.26-39.9S88.33,38.2,88.33,38.2A30.42,30.42,0,0,0,108.28,48.18Z"/><path class="a" d="M13.29,48.18s-.39-33.49,8.26-39.9S33.24,38.2,33.24,38.2A30.42,30.42,0,0,1,13.29,48.18Z"/><path class="b" d="M14.63,47.11A80,80,0,0,0,25.11,44a17.3,17.3,0,0,0,7.57-5.9l-1.2-6.33s-9,3.05-12.26,6.49S14.63,47.11,14.63,47.11Z"/><path class="a" d="M37.21,100.41s-.39-33.5,8.26-39.9,11.7,29.92,11.7,29.92A30.45,30.45,0,0,1,37.21,100.41Z"/><path class="b" d="M44.86,61a56.37,56.37,0,0,0,6.71,23.14c-2.19,4.58-4.78,9.48-6.51,14.46a28.71,28.71,0,0,1-7.85,1.77S36.85,68.54,44.86,61Z"/><path class="c" d="M51.83,106.44c0,3.29-5.62,14.71-5.62,14.71s-5.61-11.42-5.61-14.71a5.62,5.62,0,1,1,11.23,0Z"/><path class="d" d="M49.89,104.78c0,2.15-3.68,9.63-3.68,9.63s-3.68-7.48-3.68-9.63a3.69,3.69,0,1,1,7.36,0Z"/><path class="e" d="M47.76,103.4c0,.9-1.55,4.06-1.55,4.06s-1.55-3.16-1.55-4.06a1.55,1.55,0,1,1,3.1,0Z"/><path class="c" d="M18,54.45c0,3.09,5.27,13.82,5.27,13.82s5.28-10.73,5.28-13.82a5.44,5.44,0,0,0-5.28-5.59A5.44,5.44,0,0,0,18,54.45Z"/><path class="d" d="M19.81,52.89c0,2,3.45,9,3.45,9s3.46-7,3.46-9a3.46,3.46,0,1,0-6.91,0Z"/><path class="e" d="M21.81,51.59a17.9,17.9,0,0,0,1.45,3.82,17.82,17.82,0,0,0,1.46-3.82,1.46,1.46,0,1,0-2.91,0Z"/><path class="f" d="M121.43,54.23c-5.23-6.41-18.19-18.83-31-23s-15.61-3.6-15.37,1.1,4.39,21.92-2,40.27S60.78,96.24,60.78,96.24s-5.92-5.35-12.31-23.68-2.25-35.57-2-40.27S43.85,27,31.09,31.19,5.37,47.82.14,54.23h0A28.94,28.94,0,0,1,1.62,41.81c2.2-6.29,6.45-15.48,13.78-21.65C27.52,10,40.29,0,60.78,0s33.27,10,45.38,20.16c7.34,6.17,11.58,15.36,13.79,21.65a28.94,28.94,0,0,1,1.48,12.42Z"/><path class="b" d="M106.94,47.11A80,80,0,0,1,96.46,44a17.3,17.3,0,0,1-7.57-5.9l1.2-6.33s9,3.05,12.26,6.49S106.94,47.11,106.94,47.11Z"/><path class="g" d="M60.78,48.41c5.28,0,11-15.66,11.22-25.72.16-9.25-5.41-17.41-11.22-17.41S49.41,13.44,49.57,22.69C49.74,32.75,55.51,48.41,60.78,48.41Z"/><path class="h" d="M60.78,6.57a7.27,7.27,0,0,1,5.06,2.5c3.1,3.15,5,8.36,4.88,13.6-.17,10.06-6,24.46-9.94,24.46S51,32.73,50.85,22.67c-.09-5.24,1.78-10.45,4.88-13.6A7.26,7.26,0,0,1,60.78,6.57Z"/><path class="i" d="M60.78,7.21a6.68,6.68,0,0,1,4.6,2.31c3,3,4.78,8.07,4.7,13.14-.17,10.05-6.08,23.83-9.3,23.83s-9.12-13.78-9.29-23.83c-.08-5.07,1.71-10.11,4.7-13.14A6.68,6.68,0,0,1,60.78,7.21Z"/><path class="j" d="M65.38,9.52A7.34,7.34,0,0,0,61.63,7.3l-9.36,9.36a21,21,0,0,0-.78,6c0,.65,0,1.31.1,2L66,10.22C65.81,10,65.6,9.74,65.38,9.52Z"/><path class="j" d="M58,44.24l10-10a43.09,43.09,0,0,0,2.06-11.59,21.38,21.38,0,0,0-.35-4.16L53.64,34.58A37.92,37.92,0,0,0,58,44.24Z"/><path class="j" d="M52.14,28.6q.28,1.56.69,3.12L69,15.58a19.31,19.31,0,0,0-1.14-2.67Z"/><path class="c" d="M69.74,106.44c0,3.29,5.62,14.71,5.62,14.71S81,109.73,81,106.44a5.62,5.62,0,1,0-11.23,0Z"/><path class="d" d="M71.68,104.78c0,2.15,3.68,9.63,3.68,9.63S79,106.93,79,104.78a3.68,3.68,0,1,0-7.35,0Z"/><path class="e" d="M73.81,103.4c0,.9,1.55,4.06,1.55,4.06s1.54-3.16,1.54-4.06a1.55,1.55,0,1,0-3.09,0Z"/><path class="c" d="M103.58,54.45c0,3.09-5.27,13.82-5.27,13.82S93,57.54,93,54.45a5.28,5.28,0,1,1,10.55,0Z"/><path class="d" d="M101.76,52.89c0,2-3.45,9-3.45,9s-3.46-7-3.46-9a3.46,3.46,0,1,1,6.91,0Z"/><path class="e" d="M99.76,51.59a17.9,17.9,0,0,1-1.45,3.82,17.82,17.82,0,0,1-1.46-3.82,1.46,1.46,0,1,1,2.91,0Z"/><path class="c" d="M52.58,109.6c0,4.25,7.69,19,7.69,19S68,113.85,68,109.6a7.69,7.69,0,1,0-15.38,0Z"/><path class="d" d="M55.23,107.45c0,2.79,5,12.46,5,12.46s5-9.67,5-12.46a5,5,0,0,0-10.07,0Z"/><path class="e" d="M58.15,105.67c0,1.17,2.12,5.25,2.12,5.25s2.12-4.08,2.12-5.25a2.12,2.12,0,1,0-4.24,0Z"/><path class="k" d="M60.27,79.75c-5.5,0-8.8,12.14-9.47,18.07-.11,1,1.38,1.88,3.27,1.88h12.4c1.88,0,3.37-.86,3.26-1.88C69.07,91.89,65.76,79.75,60.27,79.75Z"/><path class="f" d="M60.27,80.08c-4.08,0-6.81,7.85-8,13.72-.54,2.72,3.17,5.1,8,5.1h0c4.78,0,8.49-2.38,8-5.1C67.07,87.93,64.34,80.08,60.27,80.08Z"/></svg>