<svg xmlns="http://www.w3.org/2000/svg" viewBox="0 0 266 353.1"><defs><style>.a{fill:#fc5e75;}.b{fill:#231f20;}.c{fill:#d63c61;}.d{fill:#cecece;}.e,.h,.i,.j{fill:none;stroke-linecap:round;stroke-linejoin:round;stroke-width:11px;}.e{stroke:#231f20;}.f{fill:#b2b1af;}.g{fill:#6bb7dd;}.h{stroke:#f2f2f2;}.i{stroke:#fc5e75;}.j{stroke:#cecece;}</style></defs><path class="a" d="M185,131a5.5488,5.5488,0,0,1-5.5-5.5V82.4a5.5488,5.5488,0,0,1,5.5-5.5,14.0866,14.0866,0,0,1,9.9,4.1,13.9119,13.9119,0,0,1,4.1,9.9v34.6a5.5488,5.5488,0,0,1-5.5,5.5Z"/><path class="b" d="M185,82.4a8.4551,8.4551,0,0,1,6,2.5,8.6366,8.6366,0,0,1,2.5,6v34.6H185V82.4m0-11a10.9683,10.9683,0,0,0-11,11v43.1a10.9683,10.9683,0,0,0,11,11h8.5a10.9683,10.9683,0,0,0,11-11V90.9A19.461,19.461,0,0,0,185,71.4Z"/><path class="c" d="M81,92.9v32.7"/><path class="c" d="M193.5,104.7v20.8H185V92.8A102.3323,102.3323,0,0,0,193.5,104.7Z"/><path class="a" d="M72.5,131a5.5488,5.5488,0,0,1-5.5-5.5V90.9A14.0868,14.0868,0,0,1,71.1,81,14.2653,14.2653,0,0,1,81,76.9a5.5488,5.5488,0,0,1,5.5,5.5v43.1A5.5488,5.5488,0,0,1,81,131Z"/><path class="b" d="M81,82.4v43.1H72.5V90.9a8.6366,8.6366,0,0,1,2.5-6,8.4551,8.4551,0,0,1,6-2.5m0-11A19.4611,19.4611,0,0,0,61.5,90.9v34.6a10.9683,10.9683,0,0,0,11,11H81a10.9683,10.9683,0,0,0,11-11V82.4a11.0323,11.0323,0,0,0-11-11Z"/><path class="c" d="M81,125.5H72.5V104.7A97.96,97.96,0,0,0,81,92.9"/><path class="d" d="M112.4,258.9a18.5222,18.5222,0,0,1-18.5-18.5v-9.7a5.5488,5.5488,0,0,1,5.5-5.5h27a5.5488,5.5488,0,0,1,5.5,5.5v9.7a18.5222,18.5222,0,0,1-18.5,18.5Z"/><path class="b" d="M126.4,230.7v9.7a12.9741,12.9741,0,0,1-13,13h-1a12.9742,12.9742,0,0,1-13-13v-9.7h27m0-11h-27a10.9684,10.9684,0,0,0-11,11v9.7a24.0706,24.0706,0,0,0,24,24h1a24.0706,24.0706,0,0,0,24-24v-9.7a10.9683,10.9683,0,0,0-11-11Z"/><path class="d" d="M152.6,258.9a18.5222,18.5222,0,0,1-18.5-18.5v-9.7a5.5488,5.5488,0,0,1,5.5-5.5h27a5.5488,5.5488,0,0,1,5.5,5.5v9.7a18.5222,18.5222,0,0,1-18.5,18.5Z"/><path class="b" d="M166.6,230.7v9.7a12.9742,12.9742,0,0,1-13,13h-1a12.9741,12.9741,0,0,1-13-13v-9.7h27m0-11h-27a10.9683,10.9683,0,0,0-11,11v9.7a24.0706,24.0706,0,0,0,24,24h1a24.0706,24.0706,0,0,0,24-24v-9.7a11.0323,11.0323,0,0,0-11-11Z"/><line class="e" x1="156.5001" y1="266.7" x2="156.5001" y2="307.1"/><line class="e" x1="109.8002" y1="275.9" x2="109.8002" y2="316.3"/><line class="e" x1="133.2002" y1="307.1" x2="133.2002" y2="347.6"/><line class="e" x1="134.6001" y1="278.1" x2="134.6001" y2="286.3"/><path class="d" d="M91.8,229.3a5.5358,5.5358,0,0,1-5.1-3.4l-7.8-18.8a35.3631,35.3631,0,0,0-27.3-21.4,30.76,30.76,0,0,0-5.3-.4H11.1a5.5488,5.5488,0,0,1-5.5-5.5,30.2408,30.2408,0,0,1,21.7-29.2l2.9-.9A113.0515,113.0515,0,0,0,106.3,71l12.3-46.5a15.0207,15.0207,0,0,1,29,0L159.9,71A113.0512,113.0512,0,0,0,236,149.7l2.9.9a30.2139,30.2139,0,0,1,15.7,11,30.5483,30.5483,0,0,1,6,18.2,5.5488,5.5488,0,0,1-5.5,5.5H219.9a30.7607,30.7607,0,0,0-5.3.4,35.5136,35.5136,0,0,0-27.4,21.4l-7.8,18.8a5.5358,5.5358,0,0,1-5.1,3.4Z"/><path class="b" d="M133,18.9a9.3745,9.3745,0,0,1,9.2,7.1l12.3,46.5a117.8989,117.8989,0,0,0,79.8,82.6l2.9.9a25.3593,25.3593,0,0,1,12.9,9,25.0971,25.0971,0,0,1,4.9,14.9H219.8a43.1842,43.1842,0,0,0-6.2.5A40.9321,40.9321,0,0,0,182,205.1l-7.8,18.8H91.8L84,205.1a40.7764,40.7764,0,0,0-31.6-24.7,42.0535,42.0535,0,0,0-6.2-.5H11a24.9912,24.9912,0,0,1,17.8-24l2.9-.9a117.7194,117.7194,0,0,0,79.8-82.6l12.3-46.5a9.2815,9.2815,0,0,1,9.2-7m0-11a20.2431,20.2431,0,0,0-19.8,15.2L100.9,69.6a107.0977,107.0977,0,0,1-72.4,74.8l-2.9.9A36.0024,36.0024,0,0,0,0,179.8a10.9683,10.9683,0,0,0,11,11H46.2a34.0125,34.0125,0,0,1,4.5.3,30.1013,30.1013,0,0,1,23.1,18.1L81.6,228a11.0207,11.0207,0,0,0,10.2,6.8h82.4a11.1245,11.1245,0,0,0,10.2-6.8l7.8-18.8a30.1013,30.1013,0,0,1,23.1-18.1,34.0125,34.0125,0,0,1,4.5-.3H255a10.9683,10.9683,0,0,0,11-11,36.2264,36.2264,0,0,0-7.1-21.5,35.6486,35.6486,0,0,0-18.5-13l-2.9-.9a107.6557,107.6557,0,0,1-72.4-74.8L152.8,23.1A20.2427,20.2427,0,0,0,133,7.9Z"/><path class="f" d="M114.4,187.7v27.2a29.0446,29.0446,0,0,1-1.3,8.9H91.7L83.9,205a40.7766,40.7766,0,0,0-31.6-24.7,26.3689,26.3689,0,0,1,25.3-18.9H88A26.2264,26.2264,0,0,1,114.4,187.7Z"/><path class="f" d="M213.6,180.3A40.9324,40.9324,0,0,0,182,205l-7.8,18.8H152.9a32.4462,32.4462,0,0,1-1.3-8.9V187.7A26.3536,26.3536,0,0,1,178,161.4h10.4A26.1,26.1,0,0,1,213.6,180.3Z"/><path class="g" d="M127,113.7a9.222,9.222,0,0,1-8.9-11.6l6.4-23.4a8.8077,8.8077,0,0,1,17,0l6.3,23.4a8.8767,8.8767,0,0,1-1.6,8,9.1406,9.1406,0,0,1-7.3,3.6Z"/><path class="b" d="M133,77.6a3.267,3.267,0,0,1,3.2,2.4l6.3,23.4A3.6548,3.6548,0,0,1,139,108H127a3.7176,3.7176,0,0,1-3.6-4.6L129.7,80a3.4686,3.4686,0,0,1,3.3-2.4m0-11a14.1172,14.1172,0,0,0-13.8,10.6l-6.3,23.4a14.6642,14.6642,0,0,0,2.5,12.8,14.4476,14.4476,0,0,0,11.7,5.8h12a14.7324,14.7324,0,0,0,14.2-18.6l-6.4-23.5A14.46,14.46,0,0,0,133,66.6Z"/><path class="g" d="M129,152.7a11.1816,11.1816,0,0,1-11.2-11.2v-15A11.1816,11.1816,0,0,1,129,115.3h7.9a11.1816,11.1816,0,0,1,11.2,11.2v15a11.1816,11.1816,0,0,1-11.2,11.2Z"/><path class="b" d="M137,120.7a5.6973,5.6973,0,0,1,5.7,5.7v15a5.6973,5.6973,0,0,1-5.7,5.7h-7.9a5.6973,5.6973,0,0,1-5.7-5.7v-15a5.6973,5.6973,0,0,1,5.7-5.7H137m0-11h-7.9a16.73,16.73,0,0,0-16.7,16.7v15a16.73,16.73,0,0,0,16.7,16.7H137a16.73,16.73,0,0,0,16.7-16.7v-15A16.73,16.73,0,0,0,137,109.7Z"/><line class="e" x1="84.7002" y1="208.8" x2="181.3002" y2="208.8"/><line class="e" x1="189.3002" y1="76.7" x2="189.3002" y2="5.5"/><line class="e" x1="76.7002" y1="76.7" x2="76.7002" y2="5.5"/><path class="h" d="M170,132.2s13.2,17.7,32.5,25.1"/><path class="a" d="M82.9,231.7a16.8364,16.8364,0,0,1-16.8-16.8V187.7a11.6083,11.6083,0,0,1,11.6-11.6H88.1a11.6083,11.6083,0,0,1,11.6,11.6v27.2A16.7723,16.7723,0,0,1,82.9,231.7Z"/><path class="b" d="M88.1,181.5a6.0607,6.0607,0,0,1,6.1,6.1v27.2a11.3,11.3,0,0,1-22.6,0V187.6a6.0606,6.0606,0,0,1,6.1-6.1H88.1m0-11H77.7a17.1567,17.1567,0,0,0-17.1,17.1v27.2a22.3,22.3,0,0,0,44.6,0V187.6a17.1568,17.1568,0,0,0-17.1-17.1Z"/><path class="a" d="M183.1,231.7a16.8364,16.8364,0,0,1-16.8-16.8V187.7a11.6083,11.6083,0,0,1,11.6-11.6h10.4a11.6083,11.6083,0,0,1,11.6,11.6v27.2A16.709,16.709,0,0,1,183.1,231.7Z"/><path class="b" d="M188.3,181.5a6.0606,6.0606,0,0,1,6.1,6.1v27.2a11.2881,11.2881,0,0,1-11.3,11.3h0a11.2882,11.2882,0,0,1-11.3-11.3V187.6a6.0607,6.0607,0,0,1,6.1-6.1h10.4m0-11H177.9a17.1567,17.1567,0,0,0-17.1,17.1v27.2a22.3,22.3,0,0,0,44.6,0V187.6a17.0289,17.0289,0,0,0-17.1-17.1Z"/><line class="i" x1="188.8002" y1="212.7" x2="188.8002" y2="258.7"/><line class="i" x1="77.2002" y1="212.7" x2="77.2002" y2="242.1"/><line class="i" x1="77.2002" y1="261.2" x2="77.2002" y2="275.9"/><line class="j" x1="40.4001" y1="172.3" x2="40.4001" y2="226.2"/><line class="j" x1="237.5001" y1="176.9" x2="237.5001" y2="194.7"/><line class="j" x1="237.5001" y1="215" x2="237.5001" y2="237.4"/><line class="j" x1="40.4001" y1="242.1" x2="40.4001" y2="250.9"/></svg>