<svg xmlns="http://www.w3.org/2000/svg" viewBox="0 0 282 309.7"><defs><style>.a{fill:#fc5e75;}.b{fill:#231f20;}.c{fill:#d63c61;}.d{fill:#cecece;}.e{fill:#6bb7dd;}.f,.g,.h,.i{fill:none;stroke-linecap:round;stroke-linejoin:round;}.f,.g{stroke:#fc5e75;}.f{stroke-width:12px;}.g,.h,.i{stroke-width:11px;}.h{stroke:#231f20;}.i{stroke:#f2f2f2;}</style></defs><path class="a" d="M141,181.5a5.5488,5.5488,0,0,1-5.5-5.5V105.6a5.5488,5.5488,0,0,1,5.5-5.5h13.8a163.8331,163.8331,0,0,1,115.9,48,19.4033,19.4033,0,0,1,5.8,13.7,19.7176,19.7176,0,0,1-19.6,19.7Z"/><path class="b" d="M154.8,105.6a158.6864,158.6864,0,0,1,112,46.4,13.6264,13.6264,0,0,1,4.1,9.8A14.0933,14.0933,0,0,1,256.8,176H141V105.6h13.8m0-11H141a10.9683,10.9683,0,0,0-11,11V176a10.9683,10.9683,0,0,0,11,11H256.9A25.2015,25.2015,0,0,0,282,161.8a24.51,24.51,0,0,0-7.4-17.6,170.8336,170.8336,0,0,0-61.5-39.3,168.5443,168.5443,0,0,0-58.3-10.3Z"/><path class="a" d="M25.1,181.5A19.6533,19.6533,0,0,1,5.5,161.8a18.9953,18.9953,0,0,1,5.8-13.7,163.8331,163.8331,0,0,1,115.9-48H141a5.5488,5.5488,0,0,1,5.5,5.5V176a5.5488,5.5488,0,0,1-5.5,5.5Z"/><path class="b" d="M141,105.6V176H25.1A14.0322,14.0322,0,0,1,11,161.8a13.8754,13.8754,0,0,1,4.1-9.8,157.9121,157.9121,0,0,1,57.5-36.7,159.6236,159.6236,0,0,1,54.5-9.7H141m0-11H127.2A167.8176,167.8176,0,0,0,68.9,105,169.9834,169.9834,0,0,0,7.4,144.3,24.68,24.68,0,0,0,0,161.9a25.2015,25.2015,0,0,0,25.1,25.2H141a10.9683,10.9683,0,0,0,11-11V105.6a10.9683,10.9683,0,0,0-11-11Z"/><path class="c" d="M209.2,176H72.8a47.0457,47.0457,0,0,1-6.2-38.3l6.1-22.4a159.6227,159.6227,0,0,1,54.5-9.7h27.5a156.8453,156.8453,0,0,1,54.5,9.7l6.1,22.4A46.2663,46.2663,0,0,1,209.2,176Z"/><path class="d" d="M112,181.5a31.4155,31.4155,0,0,1-30.4-39.6L112.7,27.2a29.3391,29.3391,0,0,1,56.6,0l31.1,114.7A31.4155,31.4155,0,0,1,170,181.5Z"/><path class="b" d="M141,11a23.2021,23.2021,0,0,1,22.9,17.6L195,143.2A26.016,26.016,0,0,1,169.9,176H112a26.0269,26.0269,0,0,1-25.1-32.8L118,28.5C121.2,16.8,131.1,11,141,11m0-11a34.4678,34.4678,0,0,0-33.6,25.7L76.3,140.4A36.9257,36.9257,0,0,0,112,187h57.9a36.8958,36.8958,0,0,0,29.4-14.5,36.266,36.266,0,0,0,6.3-32.1L174.5,25.7A34.2671,34.2671,0,0,0,141,0Z"/><path class="e" d="M131.5,103.4a11.2736,11.2736,0,0,1-9-4.4,10.813,10.813,0,0,1-1.9-9.8l10.1-37.1a10.7956,10.7956,0,0,1,20.8,0l10.1,37.1a11.431,11.431,0,0,1-1.9,9.8,11.2736,11.2736,0,0,1-9,4.4Z"/><path class="b" d="M141,49.5a5.1668,5.1668,0,0,1,5.1,3.9l10.1,37.1a5.8731,5.8731,0,0,1-5.6,7.4h-19a5.8374,5.8374,0,0,1-5.6-7.4l10.1-37.1a4.8029,4.8029,0,0,1,4.9-3.9m0-11a16.1505,16.1505,0,0,0-15.7,12L115.2,87.6a16.8438,16.8438,0,0,0,16.3,21.2h19a16.8439,16.8439,0,0,0,16.3-21.2L156.7,50.5a16.15,16.15,0,0,0-15.7-12Z"/><path class="e" d="M131.5,103.4a11.2736,11.2736,0,0,1-9-4.4,10.9579,10.9579,0,0,1-1.9-9.9L130.7,52a10.7956,10.7956,0,0,1,20.8,0l10.1,37.1a11.7106,11.7106,0,0,1-1.9,9.9,11.2736,11.2736,0,0,1-9,4.4Z"/><path class="b" d="M141,49.5a5.1668,5.1668,0,0,1,5.1,3.9l10.1,37.1a5.8731,5.8731,0,0,1-5.6,7.4h-19a5.8374,5.8374,0,0,1-5.6-7.4l10.1-37.1a4.8029,4.8029,0,0,1,4.9-3.9m0-11a16.1505,16.1505,0,0,0-15.7,12L115.2,87.6a16.8438,16.8438,0,0,0,16.3,21.2h19a16.8612,16.8612,0,0,0,13.4-6.6,16.6359,16.6359,0,0,0,2.9-14.6L156.7,50.4A16.175,16.175,0,0,0,141,38.5Z"/><line class="f" x1="33.7" y1="167.8" x2="33.7" y2="198.7"/><line class="f" x1="56.2" y1="169.8" x2="56.2" y2="217.1"/><line class="g" x1="241.5" y1="169.8" x2="241.5" y2="207.4"/><line class="g" x1="241.5" y1="226.3" x2="241.5" y2="232.5"/><path class="d" d="M120.3,215.5A18.5221,18.5221,0,0,1,101.8,197v-9.7a5.5488,5.5488,0,0,1,5.5-5.5h27a5.5488,5.5488,0,0,1,5.5,5.5V197a18.5222,18.5222,0,0,1-18.5,18.5Z"/><path class="b" d="M134.3,187.3V197a12.9741,12.9741,0,0,1-13,13h-1a12.974,12.974,0,0,1-13-13v-9.7h27m0-11h-27a10.9683,10.9683,0,0,0-11,11V197a24.07,24.07,0,0,0,24,24h1a24.0706,24.0706,0,0,0,24-24v-9.7a11.0323,11.0323,0,0,0-11-11Z"/><path class="d" d="M160.4,215.5A18.5222,18.5222,0,0,1,141.9,197v-9.7a5.5488,5.5488,0,0,1,5.5-5.5h27a5.5488,5.5488,0,0,1,5.5,5.5V197a18.5222,18.5222,0,0,1-18.5,18.5Z"/><path class="b" d="M174.4,187.3V197a12.9741,12.9741,0,0,1-13,13h-1a12.9741,12.9741,0,0,1-13-13v-9.7h27m0-11h-27a10.9683,10.9683,0,0,0-11,11V197a24.0706,24.0706,0,0,0,24,24h1a24.0706,24.0706,0,0,0,24-24v-9.7a10.9683,10.9683,0,0,0-11-11Z"/><line class="h" x1="164.4" y1="223.3" x2="164.4" y2="263.7"/><line class="h" x1="117.6" y1="232.5" x2="117.6" y2="272.9"/><line class="h" x1="141" y1="263.7" x2="141" y2="304.2"/><line class="h" x1="142.4" y1="234.7" x2="142.4" y2="242.9"/><line class="g" x1="217" y1="176" x2="217" y2="193.5"/><path class="i" d="M171,121c1,3.4,2.2,7.3,3.6,12.2"/><line class="h" x1="84.1" y1="155.6" x2="200.7" y2="155.6"/><line class="h" x1="141" y1="105.6" x2="141" y2="119.3"/></svg>