<svg xmlns="http://www.w3.org/2000/svg" viewBox="0 0 282.8 343.7"><defs><style>.a{fill:#785ca7;}.b{fill:#654b9e;}.c{fill:#fdd836;}.d{fill:#d3437b;}.e{fill:#d0c3e0;}.f{fill:#ea3f7a;}.g{fill:#f9c12e;}.h{fill:#f8a725;}.i{fill:#f27e21;}</style></defs><path class="a" d="M282.7,117.7h0a7.5868,7.5868,0,0,0-2.7-5.8L162,7.8a31.3673,31.3673,0,0,0-41.4,0L2.6,111.9A7.6864,7.6864,0,0,0,0,117.8H0v68.3l4.5-43.2a8.9886,8.9886,0,0,1,14.6-6.1l111.1,88.3a18.0321,18.0321,0,0,0,22.4,0l111.1-88.3a9.0337,9.0337,0,0,1,14.6,6.1l4.5,43.2V117.7Z"/><path class="b" d="M230.5,111.9,154.6,7.8c-7.6-10.4-19-10.4-26.6,0L52.2,111.9c-2.4,3.3-2.3,9,.2,12.1l81.7,101.1c4.2,5.2,10.2,5.2,14.4,0L230.2,124C232.7,121,232.8,115.2,230.5,111.9Z"/><path class="c" d="M47.1,244.3c-7.9,0-14.4-2-14.4-4.4v14.6h0c0,2.4,6.4,4.4,14.4,4.4s14.4-2,14.4-4.4h0V239.9C61.5,242.3,55,244.3,47.1,244.3Z"/><path class="d" d="M139.4,173.4,83.3,181a58.6157,58.6157,0,0,0-50.6,58v.9c0,2.4,6.4,4.4,14.4,4.4s14.4-2,14.4-4.4V239a29.92,29.92,0,0,1,25.7-29.5l56.1-7.6Z"/><path class="c" d="M235.6,244.3c7.9,0,14.4-2,14.4-4.4v14.6h0c0,2.4-6.4,4.4-14.4,4.4s-14.4-2-14.4-4.4h0V239.9C221.2,242.3,227.7,244.3,235.6,244.3Z"/><path class="d" d="M143.3,173.4l56.1,7.6A58.6157,58.6157,0,0,1,250,239v.9c0,2.4-6.4,4.4-14.4,4.4s-14.4-2-14.4-4.4V239a29.92,29.92,0,0,0-25.7-29.5l-56.1-7.6Z"/><path class="e" d="M141.3,43.6a30.49,30.49,0,0,1,28.4,19.6V55.5a28.4,28.4,0,1,0-56.8,0v7.7A30.4472,30.4472,0,0,1,141.3,43.6Z"/><path class="f" d="M169.7,63.2a30.3755,30.3755,0,0,0-56.8,0,29.6156,29.6156,0,0,0-2,10.8V224.2a30.4,30.4,0,1,0,60.8,0V73.9A29.0835,29.0835,0,0,0,169.7,63.2Z"/><circle class="c" cx="141.3" cy="79.6" r="10.8" transform="matrix(0.1602, -0.9871, 0.9871, 0.1602, 40.0941, 206.3249)"/><circle class="c" cx="141.3" cy="123.3" r="7.4"/><circle class="c" cx="141.3" cy="162.3" r="4.7"/><path class="g" d="M65.2,266.3A25.59,25.59,0,0,0,24,295.4l23.1,48.3,23.1-48.3A25.8247,25.8247,0,0,0,65.2,266.3Z"/><path class="h" d="M30.9,284.5a17.9458,17.9458,0,1,1,32.4,0L47.1,318.4Z"/><path class="i" d="M38.5,272.8A9.6288,9.6288,0,0,1,40.3,262a9.4517,9.4517,0,0,1,15.2,10.8L47,290.7Z"/><path class="g" d="M253.7,266.3a25.59,25.59,0,0,0-41.2,29.1l23.1,48.3,23.1-48.3A25.4927,25.4927,0,0,0,253.7,266.3Z"/><path class="h" d="M219.4,284.5a17.9458,17.9458,0,1,1,32.4,0l-16.2,33.9Z"/><path class="i" d="M227.1,272.8a9.6288,9.6288,0,0,1,1.8-10.8,9.4517,9.4517,0,0,1,15.2,10.8l-8.5,17.9Z"/></svg>