<svg xmlns="http://www.w3.org/2000/svg" xmlns:xlink="http://www.w3.org/1999/xlink" viewBox="0 0 46.1244 81.3456"><defs><style>.a{isolation:isolate;}.b,.c,.d,.e,.f,.g,.h,.i,.j{mix-blend-mode:color-dodge;}.b{fill:url(#a);}.c{fill:url(#b);}.d{fill:url(#c);}.e{fill:url(#d);}.f{fill:url(#e);}.g{fill:url(#f);}.h{fill:url(#g);}.i{fill:url(#h);}.j{fill:url(#i);}.k{fill:url(#k);}.l{fill:url(#l);}.m{fill:url(#m);}.n{fill:url(#n);}.o{fill:url(#o);}.p{fill:url(#p);}.q{fill:url(#q);}.r{fill:url(#r);}.s{fill:url(#s);}.t{fill:url(#t);}.u{fill:url(#u);}.v{fill:url(#v);}.w{fill:url(#w);}.x{fill:url(#x);}.y{fill:url(#y);}.bj,.en,.z{opacity:0.45;}.bj,.ck,.z{mix-blend-mode:soft-light;}.z{fill:url(#z);}.aa{opacity:0.24;mix-blend-mode:screen;fill:url(#aa);}.ab{fill:url(#ab);}.ac{fill:#8974b7;}.ac,.ad,.af,.bl,.by,.bz,.ca,.cb,.cc,.cd,.ce,.cf,.cg,.ch,.ci,.er{mix-blend-mode:multiply;}.ad{fill:url(#ac);}.ae,.bi,.bm,.cj{opacity:0.5;}.ae{fill:url(#ad);}.af,.by,.bz,.ca,.cb,.cc,.cd,.ce,.cf,.cg,.ch,.ci{opacity:0.28;}.ag{fill:url(#ae);}.ah{fill:url(#af);}.ai{fill:url(#ag);}.aj{fill:url(#ah);}.ak{fill:url(#ai);}.al{fill:url(#aj);}.am{fill:url(#ak);}.an{fill:url(#al);}.ao{fill:url(#am);}.ap{fill:url(#an);}.aq{fill:url(#ao);}.ar{fill:url(#ap);}.as{fill:url(#aq);}.at{fill:url(#ar);}.au{fill:url(#as);}.av{fill:url(#at);}.aw{fill:url(#au);}.ax{fill:url(#av);}.ay{fill:url(#aw);}.az{fill:url(#ax);}.ba{fill:url(#ay);}.bb{fill:url(#az);}.bc{fill:url(#ba);}.bd{fill:url(#bb);}.be{fill:url(#bc);}.bf{fill:url(#bd);}.bg{fill:url(#be);}.bh{fill:url(#bf);}.bi,.cm,.eo,.ep,.eq{fill:#fff;}.bj{fill:url(#bg);}.bk{fill:url(#bh);}.bl{opacity:0.2;fill:url(#bi);}.bn{fill:url(#bj);}.bo{fill:url(#bk);}.bp{fill:url(#bl);}.bq{fill:url(#bm);}.br{fill:url(#bn);}.bs{fill:url(#bo);}.bt{fill:url(#bp);}.bu{fill:url(#bq);}.bv{fill:url(#br);}.bw{fill:url(#bs);}.bx{fill:url(#bt);}.by{fill:url(#bu);}.bz{fill:url(#bv);}.ca{fill:url(#bw);}.cb{fill:url(#bx);}.cc{fill:url(#by);}.cd{fill:url(#bz);}.ce{fill:url(#ca);}.cf{fill:url(#cb);}.cg{fill:url(#cc);}.ch{fill:url(#cd);}.ci{fill:url(#ce);}.cj{fill:url(#cf);}.ck{fill:url(#cg);}.cl{fill:url(#ch);}.cm{opacity:0;}.cn{fill:#fefffe;opacity:0.0085;}.co{fill:#fdfffe;opacity:0.017;}.cp{fill:#fcfffd;opacity:0.0255;}.cq{fill:#fbfffd;opacity:0.034;}.cr{fill:#fafffc;opacity:0.0425;}.cs{fill:#f9fffc;opacity:0.0509;}.ct{fill:#f8fffb;opacity:0.0594;}.cu{fill:#f7fffb;opacity:0.0679;}.cv{fill:#f6fffa;opacity:0.0764;}.cw{fill:#f5fffa;opacity:0.0849;}.cx{fill:#f4fff9;opacity:0.0934;}.cy{fill:#f3fff9;opacity:0.1019;}.cz{fill:#f2fff8;opacity:0.1104;}.da{fill:#f1fff8;opacity:0.1189;}.db{fill:#f0fff7;opacity:0.1274;}.dc{fill:#effff7;opacity:0.1358;}.dd{fill:#eefff6;opacity:0.1443;}.de{fill:#edfff5;opacity:0.1528;}.df{fill:#ecfff5;opacity:0.1613;}.dg{fill:#ebfff4;opacity:0.1698;}.dh{fill:#eafff4;opacity:0.1783;}.di{fill:#e9fff3;opacity:0.1868;}.dj{fill:#e8fff3;opacity:0.1953;}.dk{fill:#e7fff2;opacity:0.2038;}.dl{fill:#e6fff2;opacity:0.2123;}.dm,.dn{fill:#e5fff1;}.dm{opacity:0.2208;}.dn{opacity:0.2292;}.do{fill:#e4fff0;opacity:0.2377;}.dp{fill:#e3fff0;opacity:0.2462;}.dq{fill:#e2ffef;opacity:0.2547;}.dr{fill:#e1ffef;opacity:0.2632;}.ds{fill:#e0ffee;opacity:0.2717;}.dt{fill:#dfffee;opacity:0.2802;}.du{fill:#deffed;opacity:0.2887;}.dv{fill:#ddffed;opacity:0.2972;}.dw{fill:#dcffec;opacity:0.3057;}.dx{fill:#dbffeb;opacity:0.3142;}.dy{fill:#daffeb;opacity:0.3226;}.dz{fill:#d9ffea;opacity:0.3311;}.ea{fill:#d8ffea;opacity:0.3396;}.eb{fill:#d7ffe9;opacity:0.3481;}.ec{fill:#d6ffe9;opacity:0.3566;}.ed{fill:#d5ffe8;opacity:0.3651;}.ee{fill:#d4ffe8;opacity:0.3736;}.ef{fill:#d3ffe7;opacity:0.3821;}.eg{fill:#d2ffe7;opacity:0.3906;}.eh{fill:#d1ffe6;opacity:0.3991;}.ei{fill:#d0ffe6;opacity:0.4075;}.ej{fill:#cfffe5;opacity:0.416;}.ek{fill:#ceffe5;opacity:0.4245;}.el{fill:#cdffe4;opacity:0.433;}.em{fill:#ccffe4;opacity:0.4415;}.en{fill:#cbffe3;}.eo{opacity:0.27;}.ep{opacity:0.22;}.eq{opacity:0.14;}.er{fill:#6178ca;opacity:0.46;}</style><radialGradient id="a" cx="-33.3432" cy="49.114" r="11.5223" gradientTransform="matrix(1.1147, 0.0526, -0.0592, 1.2572, 62.2146, -11.1276)" gradientUnits="userSpaceOnUse"><stop offset="0" stop-color="#fff"/><stop offset="0.1551" stop-color="#c2c2c2"/><stop offset="0.3235" stop-color="#888"/><stop offset="0.4864" stop-color="#575757"/><stop offset="0.6395" stop-color="#313131"/><stop offset="0.7805" stop-color="#161616"/><stop offset="0.905" stop-color="#060606"/><stop offset="1"/></radialGradient><radialGradient id="b" cx="20.7136" cy="-6591.0471" r="2.6382" gradientTransform="matrix(1.2027, 0.0567, -0.45, 9.5448, -2969.3838, 62964.4846)" gradientUnits="userSpaceOnUse"><stop offset="0" stop-color="#fff"/><stop offset="1"/></radialGradient><radialGradient id="c" cx="-49.7352" cy="-6585.3762" r="2.0123" gradientTransform="matrix(0.9989, 0.0471, -0.3286, 6.9682, -2094.9433, 45942.229)" gradientUnits="userSpaceOnUse"><stop offset="0" stop-color="#fff"/><stop offset="0.1075" stop-color="#cdcdcd"/><stop offset="0.2374" stop-color="#979797"/><stop offset="0.369" stop-color="#696969"/><stop offset="0.4994" stop-color="#434343"/><stop offset="0.6285" stop-color="#262626"/><stop offset="0.7558" stop-color="#111"/><stop offset="0.8806" stop-color="#040404"/><stop offset="1"/></radialGradient><radialGradient id="d" cx="-51.9017" cy="-6570.2936" r="1.735" gradientTransform="matrix(0.9989, 0.0471, -0.4366, 9.2592, -2799.6333, 60888.8181)" xlink:href="#b"/><radialGradient id="e" cx="-115.0449" cy="-6568.2612" r="1.2014" gradientTransform="matrix(0.8663, 0.0408, -0.3589, 7.6114, -2241.6564, 50044.091)" gradientUnits="userSpaceOnUse"><stop offset="0" stop-color="#fff"/><stop offset="0.0869" stop-color="#dfdfdf"/><stop offset="0.2802" stop-color="#9c9c9c"/><stop offset="0.4639" stop-color="#646464"/><stop offset="0.6326" stop-color="#393939"/><stop offset="0.7835" stop-color="#1a1a1a"/><stop offset="0.9111" stop-color="#070707"/><stop offset="1"/></radialGradient><radialGradient id="f" cx="3015.3417" cy="-6585.3774" r="2.0123" gradientTransform="matrix(0, -1, -6.976, 0, -45914.8027, 3067.0087)" xlink:href="#c"/><radialGradient id="g" cx="3013.1989" cy="-6570.2946" r="1.735" gradientTransform="matrix(-0.9989, -0.0471, -0.4366, 9.2592, 168.1576, 61028.7606)" xlink:href="#b"/><radialGradient id="h" cx="3071.8702" cy="-6568.2623" r="1.2014" gradientTransform="matrix(-0.8663, -0.0408, -0.3589, 7.6114, 332.1257, 50165.4556)" xlink:href="#e"/><radialGradient id="i" cx="-46.4623" cy="178.4493" r="14.9862" gradientTransform="matrix(0.9988, 0.0471, -0.0232, 0.4923, 73.0337, -44.1095)" xlink:href="#a"/><linearGradient id="k" x1="-55.7416" y1="83.2157" x2="-37.1545" y2="83.2157" gradientTransform="matrix(0.9988, 0.0471, -0.0471, 0.9988, 72.8695, -40.928)" gradientUnits="userSpaceOnUse"><stop offset="0" stop-color="#fff"/><stop offset="0.0688" stop-color="#baabe5"/><stop offset="0.8543" stop-color="#8461e5"/><stop offset="1" stop-color="#543a96"/></linearGradient><linearGradient id="l" x1="-55.7418" y1="83.0294" x2="-37.1548" y2="83.0294" gradientTransform="matrix(0.9988, 0.0471, -0.0471, 0.9988, 72.8695, -40.928)" gradientUnits="userSpaceOnUse"><stop offset="0" stop-color="#fff"/><stop offset="0.0688" stop-color="#c0b2ee"/><stop offset="0.8543" stop-color="#8964ee"/><stop offset="1" stop-color="#583d9e"/></linearGradient><linearGradient id="m" x1="-55.7423" y1="82.7694" x2="-37.1541" y2="82.7694" xlink:href="#k"/><linearGradient id="n" x1="-55.7418" y1="82.5083" x2="-37.1543" y2="82.5083" xlink:href="#l"/><linearGradient id="o" x1="-55.6549" y1="82.2484" x2="-37.2454" y2="82.2484" xlink:href="#k"/><radialGradient id="p" cx="-63.8602" cy="76.8437" r="30.2125" gradientTransform="matrix(0.9988, 0.0471, -0.0471, 0.9988, 72.8695, -40.928)" gradientUnits="userSpaceOnUse"><stop offset="0" stop-color="#c0b2ee"/><stop offset="0.4737" stop-color="#8964ee"/><stop offset="1" stop-color="#583d9e"/></radialGradient><radialGradient id="q" cx="-63.8601" cy="76.8434" r="30.2107" xlink:href="#p"/><radialGradient id="r" cx="-63.8602" cy="76.8479" r="30.2103" gradientTransform="matrix(0.9988, 0.0471, -0.0471, 0.9988, 72.8695, -40.928)" gradientUnits="userSpaceOnUse"><stop offset="0" stop-color="#cabbfb"/><stop offset="0.4737" stop-color="#9069fb"/><stop offset="1" stop-color="#5f42ab"/></radialGradient><radialGradient id="s" cx="-63.86" cy="76.8477" r="30.2104" xlink:href="#r"/><radialGradient id="t" cx="-63.8602" cy="76.8478" r="30.2104" xlink:href="#p"/><radialGradient id="u" cx="-63.1281" cy="62.8918" r="32.397" gradientTransform="matrix(0.9988, 0.0471, -0.0471, 0.9988, 72.8695, -40.928)" gradientUnits="userSpaceOnUse"><stop offset="0" stop-color="#c0b2ee"/><stop offset="0.0892" stop-color="#b7a5ee"/><stop offset="0.3183" stop-color="#a389ee"/><stop offset="0.5477" stop-color="#9474ee"/><stop offset="0.7755" stop-color="#8c68ee"/><stop offset="1" stop-color="#8964ee"/></radialGradient><radialGradient id="v" cx="-58.0639" cy="61.4293" r="32.3977" gradientTransform="matrix(0.9988, 0.0471, -0.0471, 0.9988, 72.8695, -40.928)" gradientUnits="userSpaceOnUse"><stop offset="0" stop-color="#c0b2ee"/><stop offset="0.1631" stop-color="#b5a3ee"/><stop offset="0.5969" stop-color="#9b7eee"/><stop offset="0.8274" stop-color="#9170ee"/><stop offset="0.8615" stop-color="#8a67ec"/><stop offset="0.9394" stop-color="#7e57e7"/><stop offset="1" stop-color="#7a51e6"/></radialGradient><radialGradient id="w" cx="-61.5529" cy="63.904" r="32.3974" xlink:href="#u"/><radialGradient id="x" cx="-59.752" cy="63.9039" r="32.3974" xlink:href="#u"/><radialGradient id="y" cx="-63.1285" cy="62.891" r="32.3971" xlink:href="#u"/><linearGradient id="z" x1="-38.1529" y1="70.6757" x2="-30.3878" y2="74.676" gradientTransform="matrix(0.9988, 0.0471, -0.0471, 0.9988, 72.8695, -40.928)" gradientUnits="userSpaceOnUse"><stop offset="0" stop-color="#4e5673"/><stop offset="0.3379" stop-color="#505875"/><stop offset="0.5056" stop-color="#585f7d"/><stop offset="0.6357" stop-color="#656a8a"/><stop offset="0.7466" stop-color="#787a9d"/><stop offset="0.8451" stop-color="#908fb5"/><stop offset="0.9335" stop-color="#ada9d2"/><stop offset="1" stop-color="#c9c1ee"/></linearGradient><linearGradient id="aa" x1="-49.8289" y1="72.7083" x2="-48.9107" y2="66.7399" gradientTransform="matrix(0.9988, 0.0471, -0.0471, 0.9988, 72.8695, -40.928)" gradientUnits="userSpaceOnUse"><stop offset="0" stop-color="#fff"/><stop offset="0.0456" stop-color="#ebebeb"/><stop offset="0.1986" stop-color="#aeaeae"/><stop offset="0.3505" stop-color="#797979"/><stop offset="0.4976" stop-color="#4d4d4d"/><stop offset="0.6389" stop-color="#2c2c2c"/><stop offset="0.7728" stop-color="#141414"/><stop offset="0.8964" stop-color="#050505"/><stop offset="1"/></linearGradient><linearGradient id="ab" x1="-60.7689" y1="64.7779" x2="-32.2362" y2="64.7779" xlink:href="#l"/><linearGradient id="ac" x1="-59.344" y1="63.9667" x2="-54.3212" y2="63.9667" gradientTransform="matrix(0.9988, 0.0471, -0.0471, 0.9988, 72.8695, -40.928)" gradientUnits="userSpaceOnUse"><stop offset="0" stop-color="#a996d8"/><stop offset="1" stop-color="#6f5b9e"/></linearGradient><linearGradient id="ad" x1="-59.4476" y1="64.9891" x2="-33.2172" y2="64.9891" gradientTransform="matrix(0.9988, 0.0471, -0.0471, 0.9988, 72.8695, -40.928)" gradientUnits="userSpaceOnUse"><stop offset="0" stop-color="#fff"/><stop offset="0.1374" stop-color="#f9f8fd"/><stop offset="0.3372" stop-color="#eae5f7"/><stop offset="0.5753" stop-color="#d1c5ed"/><stop offset="0.8405" stop-color="#ae99e0"/><stop offset="1" stop-color="#967bd7"/></linearGradient><linearGradient id="ae" x1="-46.5026" y1="67.5198" x2="-46.5026" y2="64.8776" gradientTransform="translate(89.689 69.7091) rotate(90.0026)" gradientUnits="userSpaceOnUse"><stop offset="0" stop-color="#252f51"/><stop offset="0.0863" stop-color="#2a355a"/><stop offset="0.7067" stop-color="#4f609a"/><stop offset="1" stop-color="#5d71b3"/></linearGradient><linearGradient id="af" x1="-47.952" y1="67.5198" x2="-47.952" y2="64.8777" gradientTransform="matrix(0.9988, 0.0471, -0.0471, 0.9988, 72.8695, -40.928)" xlink:href="#ae"/><linearGradient id="ag" x1="-49.16" y1="67.5198" x2="-49.16" y2="64.8777" gradientTransform="matrix(0.9988, 0.0471, -0.0471, 0.9988, 72.8695, -40.928)" xlink:href="#ae"/><linearGradient id="ah" x1="-50.3241" y1="67.5198" x2="-50.3241" y2="64.8777" gradientTransform="matrix(0.9988, 0.0471, -0.0471, 0.9988, 72.8695, -40.928)" xlink:href="#ae"/><linearGradient id="ai" x1="-51.5287" y1="67.5198" x2="-51.5287" y2="64.8776" gradientTransform="matrix(0.9988, 0.0471, -0.0471, 0.9988, 72.8695, -40.928)" xlink:href="#ae"/><linearGradient id="aj" x1="-52.6346" y1="67.5199" x2="-52.6346" y2="64.8777" gradientTransform="matrix(0.9988, 0.0471, -0.0471, 0.9988, 72.8695, -40.928)" xlink:href="#ae"/><linearGradient id="ak" x1="-53.8266" y1="67.5199" x2="-53.8266" y2="64.8777" gradientTransform="matrix(0.9988, 0.0471, -0.0471, 0.9988, 72.8695, -40.928)" xlink:href="#ae"/><linearGradient id="al" x1="-54.9999" y1="67.5199" x2="-54.9999" y2="64.8777" gradientTransform="matrix(0.9988, 0.0471, -0.0471, 0.9988, 72.8695, -40.928)" xlink:href="#ae"/><linearGradient id="am" x1="-56.3608" y1="67.52" x2="-56.3608" y2="64.8777" gradientTransform="matrix(0.9988, 0.0471, -0.0471, 0.9988, 72.8695, -40.928)" xlink:href="#ae"/><linearGradient id="an" x1="-57.345" y1="67.5198" x2="-57.345" y2="64.8777" gradientTransform="matrix(0.9988, 0.0471, -0.0471, 0.9988, 72.8695, -40.928)" xlink:href="#ae"/><linearGradient id="ao" x1="-58.5311" y1="67.52" x2="-58.5311" y2="64.8778" gradientTransform="matrix(0.9988, 0.0471, -0.0471, 0.9988, 72.8695, -40.928)" xlink:href="#ae"/><linearGradient id="ap" x1="-59.6504" y1="67.52" x2="-59.6504" y2="64.8778" gradientTransform="matrix(0.9988, 0.0471, -0.0471, 0.9988, 72.8695, -40.928)" xlink:href="#ae"/><linearGradient id="aq" x1="-59.4065" y1="67.52" x2="-59.4065" y2="64.8777" gradientTransform="matrix(0.9988, 0.0471, -0.0471, 0.9988, 72.8695, -40.928)" xlink:href="#ae"/><linearGradient id="ar" x1="-58.961" y1="67.5198" x2="-58.961" y2="64.8777" gradientTransform="matrix(0.9988, 0.0471, -0.0471, 0.9988, 72.8695, -40.928)" xlink:href="#ae"/><linearGradient id="as" x1="-45.0549" y1="67.5198" x2="-45.0549" y2="64.8777" gradientTransform="matrix(0.9988, 0.0471, -0.0471, 0.9988, 72.8695, -40.928)" xlink:href="#ae"/><linearGradient id="at" x1="-43.8494" y1="67.5198" x2="-43.8494" y2="64.8776" gradientTransform="matrix(0.9988, 0.0471, -0.0471, 0.9988, 72.8695, -40.928)" xlink:href="#ae"/><linearGradient id="au" x1="-42.687" y1="67.5198" x2="-42.687" y2="64.8776" gradientTransform="matrix(0.9988, 0.0471, -0.0471, 0.9988, 72.8695, -40.928)" xlink:href="#ae"/><linearGradient id="av" x1="-41.4832" y1="67.5198" x2="-41.4832" y2="64.8776" gradientTransform="matrix(0.9988, 0.0471, -0.0471, 0.9988, 72.8695, -40.928)" xlink:href="#ae"/><linearGradient id="aw" x1="-40.3833" y1="67.5198" x2="-40.3833" y2="64.8777" gradientTransform="matrix(0.9988, 0.0471, -0.0471, 0.9988, 72.8695, -40.928)" xlink:href="#ae"/><linearGradient id="ax" x1="-39.2133" y1="67.5197" x2="-39.2133" y2="64.8776" gradientTransform="matrix(0.9988, 0.0471, -0.0471, 0.9988, 72.8695, -40.928)" xlink:href="#ae"/><linearGradient id="ay" x1="-38.0306" y1="67.5197" x2="-38.0306" y2="64.8776" gradientTransform="matrix(0.9988, 0.0471, -0.0471, 0.9988, 72.8695, -40.928)" xlink:href="#ae"/><linearGradient id="az" x1="-36.6487" y1="67.5197" x2="-36.6487" y2="64.8776" gradientTransform="matrix(0.9988, 0.0471, -0.0471, 0.9988, 72.8695, -40.928)" xlink:href="#ae"/><linearGradient id="ba" x1="-35.6045" y1="67.5199" x2="-35.6045" y2="64.8776" gradientTransform="matrix(0.9988, 0.0471, -0.0471, 0.9988, 72.8695, -40.928)" xlink:href="#ae"/><linearGradient id="bb" x1="-34.4311" y1="67.5196" x2="-34.4311" y2="64.8775" gradientTransform="matrix(0.9988, 0.0471, -0.0471, 0.9988, 72.8695, -40.928)" xlink:href="#ae"/><linearGradient id="bc" x1="-33.3548" y1="67.5197" x2="-33.3548" y2="64.8776" gradientTransform="matrix(0.9988, 0.0471, -0.0471, 0.9988, 72.8695, -40.928)" xlink:href="#ae"/><linearGradient id="bd" x1="-33.5988" y1="67.5195" x2="-33.5988" y2="64.8776" gradientTransform="matrix(0.9988, 0.0471, -0.0471, 0.9988, 72.8695, -40.928)" xlink:href="#ae"/><linearGradient id="be" x1="-33.9989" y1="67.5197" x2="-33.9989" y2="64.8776" gradientTransform="matrix(0.9988, 0.0471, -0.0471, 0.9988, 72.8695, -40.928)" xlink:href="#ae"/><linearGradient id="bf" x1="-52.7951" y1="53.6512" x2="-41.1738" y2="56.8309" gradientTransform="matrix(0.9988, 0.0471, -0.0471, 0.9988, 72.8695, -40.928)" gradientUnits="userSpaceOnUse"><stop offset="0" stop-color="#c0b2ee"/><stop offset="0.0087" stop-color="#beafee"/><stop offset="0.1531" stop-color="#a187ee"/><stop offset="0.2672" stop-color="#906dee"/><stop offset="0.336" stop-color="#8964ee"/><stop offset="0.3633" stop-color="#8762eb"/><stop offset="1" stop-color="#583d9e"/></linearGradient><linearGradient id="bg" x1="-44.6849" y1="51.083" x2="-40.1264" y2="50.4077" gradientTransform="matrix(0.9988, 0.0471, -0.0471, 0.9988, 72.8695, -40.928)" gradientUnits="userSpaceOnUse"><stop offset="0" stop-color="#252f51"/><stop offset="0.1604" stop-color="#273255"/><stop offset="0.3188" stop-color="#2f3a61"/><stop offset="0.4766" stop-color="#3b4875"/><stop offset="0.634" stop-color="#4d5c91"/><stop offset="0.7912" stop-color="#6375b4"/><stop offset="0.9462" stop-color="#7e94e0"/><stop offset="0.9919" stop-color="#879eee"/></linearGradient><linearGradient id="bh" x1="-69.5918" y1="73.5652" x2="-23.4158" y2="73.5652" xlink:href="#l"/><linearGradient id="bi" x1="-69.5918" y1="73.9193" x2="-23.4158" y2="73.9193" gradientTransform="matrix(0.9988, 0.0471, -0.0471, 0.9988, 72.8695, -40.928)" gradientUnits="userSpaceOnUse"><stop offset="0" stop-color="#cbb8ff"/><stop offset="0.1463" stop-color="#c7b4fa"/><stop offset="0.3209" stop-color="#bba9eb"/><stop offset="0.5102" stop-color="#a897d3"/><stop offset="0.7097" stop-color="#8d7db2"/><stop offset="0.9153" stop-color="#6a5d87"/><stop offset="1" stop-color="#5a4e73"/></linearGradient><linearGradient id="bj" x1="-69.5921" y1="72.7211" x2="-23.9145" y2="72.7211" xlink:href="#ad"/><linearGradient id="bk" x1="-24.0443" y1="71.0015" x2="-23.6223" y2="71.0015" xlink:href="#l"/><linearGradient id="bl" x1="-29.141" y1="73.2103" x2="-28.7189" y2="73.2103" xlink:href="#l"/><linearGradient id="bm" x1="-34.8075" y1="74.605" x2="-34.3854" y2="74.605" xlink:href="#l"/><linearGradient id="bn" x1="-40.6676" y1="75.421" x2="-40.2455" y2="75.421" xlink:href="#l"/><linearGradient id="bo" x1="-46.5561" y1="75.7507" x2="-46.1341" y2="75.7507" xlink:href="#l"/><linearGradient id="bp" x1="-52.6704" y1="75.6496" x2="-52.2483" y2="75.6496" xlink:href="#l"/><linearGradient id="bq" x1="-58.4823" y1="75.0508" x2="-58.0602" y2="75.0508" xlink:href="#l"/><linearGradient id="br" x1="-64.1379" y1="73.6963" x2="-63.7158" y2="73.6963" xlink:href="#l"/><linearGradient id="bs" x1="-69.2437" y1="71.1066" x2="-68.8216" y2="71.1066" xlink:href="#l"/><linearGradient id="bt" x1="-54.518" y1="51.0272" x2="-37.8046" y2="51.4212" gradientTransform="matrix(0.9988, 0.0471, -0.0471, 0.9988, 72.8695, -40.928)" gradientUnits="userSpaceOnUse"><stop offset="0" stop-color="#c0b2ee"/><stop offset="0.0131" stop-color="#beafee"/><stop offset="0.2306" stop-color="#a187ee"/><stop offset="0.4024" stop-color="#906dee"/><stop offset="0.5061" stop-color="#8964ee"/><stop offset="0.5263" stop-color="#8762eb"/><stop offset="1" stop-color="#583d9e"/></linearGradient><linearGradient id="bu" x1="-52.9072" y1="52.3672" x2="-52.9072" y2="49.6926" gradientTransform="matrix(0.9988, 0.0471, -0.0471, 0.9988, 72.8695, -40.928)" xlink:href="#ae"/><linearGradient id="bv" x1="-45.1281" y1="52.3671" x2="-45.1281" y2="49.6926" gradientTransform="matrix(0.9988, 0.0471, -0.0471, 0.9988, 72.8695, -40.928)" xlink:href="#ae"/><linearGradient id="bw" x1="-41.7773" y1="52.3671" x2="-41.7773" y2="49.6926" gradientTransform="matrix(0.9988, 0.0471, -0.0471, 0.9988, 72.8695, -40.928)" xlink:href="#ae"/><linearGradient id="bx" x1="-43.6271" y1="52.3671" x2="-43.6271" y2="49.6926" gradientTransform="matrix(0.9988, 0.0471, -0.0471, 0.9988, 72.8695, -40.928)" xlink:href="#ae"/><linearGradient id="by" x1="-40.0602" y1="52.3671" x2="-40.0602" y2="49.6926" gradientTransform="matrix(0.9988, 0.0471, -0.0471, 0.9988, 72.8695, -40.928)" xlink:href="#ae"/><linearGradient id="bz" x1="-38.5262" y1="52.367" x2="-38.5262" y2="49.6926" gradientTransform="matrix(0.9988, 0.0471, -0.0471, 0.9988, 72.8695, -40.928)" xlink:href="#ae"/><linearGradient id="ca" x1="-46.5027" y1="52.3671" x2="-46.5027" y2="49.6926" gradientTransform="matrix(-0.0001, 0.9999, -0.9999, -0.0001, 74.7868, 54.097)" xlink:href="#ae"/><linearGradient id="cb" x1="-47.7838" y1="52.3672" x2="-47.7838" y2="49.6926" gradientTransform="matrix(0.9988, 0.0471, -0.0471, 0.9988, 72.8695, -40.928)" xlink:href="#ae"/><linearGradient id="cc" x1="-49.3096" y1="52.3671" x2="-49.3096" y2="49.6926" gradientTransform="matrix(0.9988, 0.0471, -0.0471, 0.9988, 72.8695, -40.928)" xlink:href="#ae"/><linearGradient id="cd" x1="-51.0639" y1="52.3671" x2="-51.0639" y2="49.6926" gradientTransform="matrix(0.9988, 0.0471, -0.0471, 0.9988, 72.8695, -40.928)" xlink:href="#ae"/><linearGradient id="ce" x1="-54.4083" y1="52.3672" x2="-54.4083" y2="49.6926" gradientTransform="matrix(0.9988, 0.0471, -0.0471, 0.9988, 72.8695, -40.928)" xlink:href="#ae"/><linearGradient id="cf" x1="-55.3449" y1="51.095" x2="-38.1894" y2="51.095" gradientTransform="matrix(0.9988, 0.0471, -0.0471, 0.9988, 72.8695, -40.928)" gradientUnits="userSpaceOnUse"><stop offset="0" stop-color="#fff"/><stop offset="0.106" stop-color="#f9f8fc"/><stop offset="0.2603" stop-color="#e8e5f2"/><stop offset="0.444" stop-color="#cdc5e2"/><stop offset="0.6504" stop-color="#a798cc"/><stop offset="0.873" stop-color="#7660b0"/><stop offset="1" stop-color="#583d9e"/></linearGradient><linearGradient id="cg" x1="-69.5921" y1="63.9638" x2="-23.4158" y2="63.9638" gradientTransform="matrix(0.9988, 0.0471, -0.0471, 0.9988, 72.8695, -40.928)" gradientUnits="userSpaceOnUse"><stop offset="0" stop-color="#ff8040"/><stop offset="0.231" stop-color="#cb4a4f"/><stop offset="0.4737" stop-color="#99155e"/><stop offset="0.5409" stop-color="#7a165a"/><stop offset="0.6352" stop-color="#541755"/><stop offset="0.7294" stop-color="#371752"/><stop offset="0.8223" stop-color="#22184f"/><stop offset="0.9133" stop-color="#15184e"/><stop offset="1" stop-color="#11184d"/></linearGradient><linearGradient id="ch" x1="-58.6206" y1="58.7012" x2="-34.384" y2="58.7012" gradientTransform="matrix(0.9988, 0.0471, -0.0471, 0.9988, 72.8695, -40.928)" gradientUnits="userSpaceOnUse"><stop offset="0" stop-color="#827abf"/><stop offset="0.085" stop-color="#ada5e8"/><stop offset="0.1623" stop-color="#948ccd"/><stop offset="0.2967" stop-color="#6d66a4"/><stop offset="0.419" stop-color="#514a86"/><stop offset="0.5239" stop-color="#403974"/><stop offset="0.5992" stop-color="#3a336e"/><stop offset="0.736" stop-color="#3d3671"/><stop offset="0.8334" stop-color="#453e7a"/><stop offset="0.9182" stop-color="#534d8a"/><stop offset="0.9959" stop-color="#6761a0"/><stop offset="1" stop-color="#6862a1"/></linearGradient></defs><g class="a"><path class="b" d="M34.9815,49.4706c-.3772,8-6.4335,14.2144-13.5271,13.88S8.916,56.26,9.2933,48.2594s6.4335-14.2145,13.5272-13.88S35.3587,41.47,34.9815,49.4706Z"/><path class="c" d="M25.2252,55.7591c-.67,14.2194-2.7386,25.6747-4.6193,25.586s-2.8618-11.6877-2.1913-25.9072,2.7386-25.6746,4.6193-25.5859S25.8957,41.54,25.2252,55.7591Z"/><path class="d" d="M21.2571,51.6047c-.3734,7.9183-1.642,14.2917-2.8334,14.2355S16.5689,59.32,16.9423,51.4013,18.5842,37.11,19.7757,37.1657,21.63,43.6865,21.2571,51.6047Z"/><path class="e" d="M18.8262,51.094c-.4278,9.0718-1.6073,16.3866-2.6346,16.3381S14.6782,59.99,15.106,50.9186s1.6073-16.3864,2.6346-16.338S19.2539,42.0224,18.8262,51.094Z"/><path class="f" d="M17.0351,45.8979c-.2435,5.1637-.941,9.3262-1.558,9.2971s-.92-4.2387-.6761-9.4024.941-9.3262,1.5579-9.2971S17.2785,40.7341,17.0351,45.8979Z"/><ellipse class="g" cx="24.5761" cy="51.7612" rx="14.3532" ry="2.1598" transform="translate(-28.2851 73.8722) rotate(-87.3005)"/><path class="h" d="M24.8869,51.38c-.4277,9.0717.0583,16.4651,1.0856,16.5135s2.2068-7.2664,2.6345-16.3381-.0582-16.465-1.0855-16.5134S25.3146,42.3082,24.8869,51.38Z"/><path class="i" d="M27.159,46.3752c-.2435,5.1638.0592,9.3733.6761,9.4024s1.3144-4.1333,1.5579-9.297-.0592-9.3733-.6761-9.4024S27.4025,41.2115,27.159,46.3752Z"/><path class="j" d="M37.4505,42.2628c-.1922,4.0749-7.0495,7.0622-15.3165,6.6724S7.3213,44.9261,7.5134,40.8513s7.05-7.0623,15.3165-6.6725S37.6426,38.1879,37.4505,42.2628Z"/><path class="j" d="M37.4505,42.2628c-.1922,4.0749-7.0495,7.0622-15.3165,6.6724S7.3213,44.9261,7.5134,40.8513s7.05-7.0623,15.3165-6.6725S37.6426,38.1879,37.4505,42.2628Z"/><path class="k" d="M31.87,39.7094a1.4667,1.4667,0,0,1-.1952.557,2.0579,2.0579,0,0,1-.5889.6247,3.3825,3.3825,0,0,1-1.5455.5541,43.0464,43.0464,0,0,1-7.0592.0981,42.9245,42.9245,0,0,1-7.0183-.7315,3.3673,3.3673,0,0,1-1.469-.6777,2.0258,2.0258,0,0,1-.536-.6742,1.456,1.456,0,0,1-.1484-.58.9367.9367,0,0,1,.1059-.49.5987.5987,0,0,1,.3948-.3076c1.35.2175,2.7933.4038,4.309.5547,1.39.1365,2.8414.2438,4.3321.3142,1.5482.073,3.0543.1017,4.498.0937,1.5808-.01,3.0894-.0672,4.4951-.1666a.603.603,0,0,1,.3614.3314A.9392.9392,0,0,1,31.87,39.7094Z"/><path class="l" d="M31.0856,40.8911c-5.0461.847-13.7674.064-17.092-.757-.9378-.7913-.828-1.9015-.1837-2.052,1.35.2175,2.7933.4038,4.309.5547,1.39.1365,2.8414.2438,4.3321.3142,1.5482.073,3.0543.1017,4.498.0937,1.5808-.01,3.0894-.0672,4.4951-.1666C32.0682,39.085,32.0771,40.1873,31.0856,40.8911Z"/><path class="m" d="M31.6745,40.2664c-5.2325,1.0733-15.3406.0964-18.2169-.8065-.3062-.64-.1211-1.2666.3523-1.3778,1.35.2175,2.7933.4038,4.309.5547,1.39.1365,2.8414.2438,4.3321.3142,1.5482.073,3.0543.1017,4.498.0937,1.5808-.01,3.0894-.0672,4.4951-.1666C31.9018,39.03,32.0292,39.6612,31.6745,40.2664Z"/><path class="n" d="M31.87,39.7094c-5.2886,1.1534-15.9137.1-18.56-.8294a.724.724,0,0,1,.5007-.7979c1.35.2175,2.7933.4038,4.309.5547,1.39.1365,2.8414.2438,4.3321.3142,1.5482.073,3.0543.1017,4.498.0937,1.5808-.01,3.0894-.0672,4.4951-.1666A.72.72,0,0,1,31.87,39.7094Z"/><path class="o" d="M31.8055,39.21c-5.2631,1.1124-15.6313.0945-18.39-.82a.5987.5987,0,0,1,.3948-.3076c1.35.2175,2.7933.4038,4.309.5547,1.39.1365,2.8414.2438,4.3321.3142,1.5482.073,3.0543.1017,4.498.0937,1.5808-.01,3.0894-.0672,4.4951-.1666A.603.603,0,0,1,31.8055,39.21Z"/><path class="p" d="M1.0141,27.039c-.1634,3.4671,5.7311,8.4284,12.9287,11.0916a8.6844,8.6844,0,0,0,1.3074.3372,57.3775,57.3775,0,0,0,7.4725.7341l.6159-11.11Z"/><path class="q" d="M23.3386,28.0916l-.6159,11.11a53.1178,53.1178,0,0,0,7.5108-.0969,7.8011,7.8011,0,0,0,1.0737-.1894c7.368-1.9883,13.6427-6.3471,13.8054-9.7973Z"/><path class="r" d="M22.4832,32.1041,6.5808,30.6361C7.66,33.7054,11.33,36.76,15.25,38.4678a57.3775,57.3775,0,0,0,7.4725.7341l.3952-7.1311Z"/><path class="s" d="M36.0377,31.3911l-12.92.68-.3952,7.1311a53.1178,53.1178,0,0,0,7.5108-.0969c4-1.3495,7.8469-4.0091,9.1893-6.92Z"/><path class="t" d="M25.75,39.2806A11.3118,11.3118,0,0,0,29.0966,33.43l-6.6134-1.3259-5.7393.7435a11.2964,11.2964,0,0,0,2.7976,6.1554A45.1619,45.1619,0,0,0,25.75,39.2806Z"/><path class="u" d="M23.5474,32.6529c-.7157-.0185-1.4481-.0429-2.1969-.0783C6.15,31.8579.9661,28.0575,1.0141,27.039a4.5187,4.5187,0,0,1,1.6548-2.9406A24.1851,24.1851,0,0,1,9.15,20.275l14.9176.7035-.0959,2.1385-.2185,4.9215Z"/><path class="v" d="M45.1123,29.117c-.03.6448-3.4379,2.14-9.7724,2.972a73.5243,73.5243,0,0,1-9.07.5871c-.88.0052-1.7864-.0007-2.7216-.0226l.01-.2183.0313-.716.1637-3.6805.2174-4.9214.0958-2.1381,13.58.64c.048.0243.0983.0538.1486.0807.419.2335.8712.4908,1.3371.7707C41.9165,24.1453,45.2285,26.599,45.1123,29.117Z"/><path class="w" d="M12.7732,20.4451a15.76,15.76,0,0,0-6.23,8.4991l4.2157,2.6916,12.8156.3984.4922-11.0565Z"/><path class="x" d="M39.4274,30.4946a15.8235,15.8235,0,0,0-5.4025-9.0474l-9.9581-.4695-.4922,11.0565,10.8535.3374Z"/><path class="y" d="M19.3638,32.3837c1.3292.0758,2.6557.1616,3.9832.2675a39.0835,39.0835,0,0,0,5.68.0342c.6156-3.9684-.8229-7.7312-1.683-9.6941l-8.0647-.38c-1.04,1.8717-2.8227,5.4778-2.587,9.4825C17.5819,32.1968,18.4682,32.3327,19.3638,32.3837Z"/><path class="z" d="M45.1123,29.117A33.2973,33.2973,0,0,1,35.34,32.089a46.514,46.514,0,0,1-9.07.5871,25.4956,25.4956,0,0,1-2.7113-.2409,9.8948,9.8948,0,0,1-2.2467-.5556c.79-.0242,1.5494-.0793,2.278-.16,6.6914-.7386,10.8564-3.6579,12.8314-6.4594a6.72,6.72,0,0,0,1.3744-3.56c.419.2335.8712.4908,1.3371.7707C41.9165,24.1453,45.2285,26.599,45.1123,29.117Z"/><path class="aa" d="M39.1327,22.4709l0,.0024A6.2884,6.2884,0,0,1,36.4212,25.26a9.9625,9.9625,0,0,1-1.4568.7225,32.9324,32.9324,0,0,1-11.2109,2.0564C15,28.2673,6.1852,25.994,2.67,24.0984A24.1276,24.1276,0,0,1,9.15,20.2759l.9708.0457c2.5757,2.23,8.3232,2.9038,13.85,2.7957A45.5436,45.5436,0,0,0,35.7282,21.561c.0275-.0086.0574-.017.0873-.0278l1.8315.0863c.048.0243.0983.0538.1486.0807C38.2146,21.9337,38.6668,22.191,39.1327,22.4709Z"/><path class="ab" d="M37.65,21.6a.4792.4792,0,0,1-.0107.084,1.0724,1.0724,0,0,1-.512.6417c-.0489.0349-.1029.07-.1586.1024a4.9123,4.9123,0,0,1-.77.3525c-.0533.02-.1083.0371-.1632.0564-.2869.1-.6107.1927-.9647.2791q-.08.0191-.1641.0379c-.323.076-.6728.1457-1.0442.211-.0546.0093-.1108.0185-.1671.0293q-.6.0985-1.2709.18c-.0545.0076-.1105.0134-.1666.0192q-.5175.0618-1.0716.1084c-.0543.0058-.11.01-.1664.0157q-.5521.045-1.1378.08c-.0559.0025-.1119.0066-.1677.009h-.0018c-.3337.018-.6759.034-1.0247.0479-.0558.0008-.1117.0032-.1676.0057q-.5409.0176-1.1014.0241l-.1674.0023c-.3654.0047-.7372.0057-1.1123.0032-.0558.0008-.1115,0-.1673-.0011-.3666-.0021-.7381-.0094-1.1129-.0186-.0556-.001-.1131-.002-.1687-.0046q-.6635-.0162-1.3414-.048L23.18,23.81q-.678-.0319-1.34-.0784c-.0557-.0026-.1129-.007-.1685-.0113-.3739-.0261-.7445-.0537-1.11-.0861-.0556-.0044-.1128-.0088-.1683-.0148q-.5605-.049-1.1037-.1077-.0832-.0065-.1665-.0181c-.3715-.0394-.738-.0821-1.0959-.1277-.057-.0077-.1125-.0155-.1679-.0214-.346-.0468-.6835-.0931-1.0141-.1441-.057-.0078-.1141-.0173-.1695-.0249-.3842-.0605-.76-.1221-1.1219-.1864-.0553-.0111-.1123-.0206-.1676-.0316q-.5454-.0993-1.0533-.2069c-.0551-.0127-.11-.0238-.1656-.0365-.44-.0968-.8578-.1959-1.2484-.2988-.055-.0162-.11-.0306-.1652-.0451q-.5456-.15-1.0181-.3083-.0823-.0265-.16-.0531-.5189-.1817-.9359-.3686c-.0529-.0245-.1042-.0488-.1555-.0716a4.9132,4.9132,0,0,1-.7338-.4233c-.0523-.0379-.1028-.0776-.1483-.1168a1.0694,1.0694,0,0,1-.4493-.6888.4619.4619,0,0,1-.0028-.083.59.59,0,0,1,.0355-.1775l0-.0017c.1264-.3523.5742-.6726,1.2869-.95l.0051,0c.1051-.0424.21-.0813.3269-.1215q.3323-.111.7233-.2143c-.04.2313-.0776.4628-.1105.6962-.02.1274-.0375.2551-.0537.3844-.0181.1327-.0346.2671-.0477.4035a.5784.5784,0,0,0-.0088.0772c-.0077.0555-.0138.1126-.02.1682l0,.0016c.1181.0394.2363.0771.3562.1165.1849.0578.373.1174.5648.172.1916.06.385.1145.5819.1694.2184.0627.44.1221.6642.18.1084.0287.2186.0577.3289.0848.1437.0355.2907.0712.4377.1068.3026.0717.6086.1419.92.2073h.0017c.1187.0277.2374.0535.36.078.2728.0567.5474.11.8289.1624l.0017,0c.0921.0178.1843.034.2782.05.2647.05.5313.0944.8014.1375.09.0162.1845.0307.2767.0453.2618.041.5269.0805.7939.1167l.2217.0308.0017,0c.3107.0417.6215.0816.9374.1185.0639.0064.13.0146.1952.0211q.4311.0507.8711.0918c.0588.0061.12.0106.1783.0169.3182.0285.6379.0554.9614.0791l.17.0131.0017,0c.4008.0289.807.0532,1.2151.0724l.1686.008q.6122.0288,1.2149.0421l.1723.0031c.3225.0067.6418.01.9594.0114.0626,0,.125.0008.1859,0,.289,0,.5765-.0032.8623-.0083.07-.0018.1387-.0018.2081-.0037.3147-.0071.6278-.0161.936-.0285.08-.0031.1574-.0062.2354-.0109.2608-.0114.5183-.0246.776-.0411h.0017c.1017-.0053.2034-.0124.3035-.0194.2491-.0154.4968-.0341.7411-.0547l.0017,0c.1188-.01.2325-.02.35-.0309.2664-.0229.5263-.05.788-.08l.0034,0c.1409-.0137.282-.0307.4214-.0478l.0017,0c.3127-.036.6187-.0757.9216-.1188l.0017,0c.1514-.0216.3028-.0432.451-.0667.1515-.0232.3014-.0466.45-.0717.1908-.0316.38-.0633.5658-.0985.23-.0415.4585-.0848.6821-.13.1655-.0328.3277-.0673.49-.1037l.0017,0c.1229-.0263.2441-.0527.3655-.0808v-.0016c-.0007-.0559-.0015-.1134-.0038-.1693a.59.59,0,0,0-.0014-.0778c-.0016-.1471-.0048-.2942-.0114-.44-.0027-.12-.009-.2388-.0153-.3573-.0109-.2338-.0269-.4678-.0463-.7l.0017,0c.2524.093.4863.1869.7.2815.1026.0454.1984.0922.2909.1387l.0016,0c.6986.3472,1.1242.7121,1.2184,1.08l0,.0017A.5874.5874,0,0,1,37.65,21.6Z"/><path class="ac" d="M36.0728,21.4347a24.9049,24.9049,0,0,1-4.92.6418c-.215.0068-.5685.0137-1.0334.0155a1.5249,1.5249,0,0,1,.862-1.9723A10.585,10.585,0,0,1,36.0728,21.4347Z"/><path class="ad" d="M15.6277,19.7811c-2.8108-.4283-4.766-.1825-5.0368.185.3054.6905,2.0181,1.1092,2.9917,1.0706S15.6277,19.7811,15.6277,19.7811Z"/><path class="ae" d="M10.5085,19.92c-.1964.5823.6144,1.4524,6.3069,2.4523a54.246,54.246,0,0,0,15.83.3238c1.9606-.3171,3.9185-1.0336,4.0425-1.5a18.2139,18.2139,0,0,1-5.5344.88C29.0371,22.1457,13.5309,22.1329,10.5085,19.92Z"/><g class="af"><rect class="ag" x="22.6845" y="23.1214" width="1.2172" height="0.1688" transform="translate(-0.9832 45.3811) rotate(-87.3026)"/><path class="ah" d="M22.0207,22.5214l-.0024.0133a8.353,8.353,0,0,0-.1781,1.1967c-.0557-.0026-.1129-.007-.1685-.0113a8.8071,8.8071,0,0,1,.1789-1.2118Z"/><path class="ai" d="M20.8892,22.4292l-.0149.03a3.93,3.93,0,0,0-.3123,1.1752c-.0556-.0044-.1128-.0088-.1683-.0148a4.1013,4.1013,0,0,1,.3172-1.2069C20.77,22.4184,20.83,22.4229,20.8892,22.4292Z"/><path class="aj" d="M19.84,22.3205l-.0255.0376a2.253,2.253,0,0,0-.5243,1.1534q-.0832-.0065-.1665-.0181a2.4034,2.4034,0,0,1,.5211-1.194C19.7085,22.3058,19.7741,22.314,19.84,22.3205Z"/><path class="ak" d="M18.7055,22.1808l-.0564.05a2.0515,2.0515,0,0,0-.6215,1.1352c-.057-.0077-.1125-.0155-.1679-.0214l.0023-.0117a2.2864,2.2864,0,0,1,.6218-1.1826Z"/><path class="al" d="M17.69,22.0333l-.0971.0528A1.6575,1.6575,0,0,0,16.8456,23.2c-.057-.0078-.1141-.0173-.1695-.0249a1.9963,1.9963,0,0,1,.7371-1.1873C17.5037,22.0042,17.5977,22.0187,17.69,22.0333Z"/><path class="am" d="M16.6118,21.8505l-.0733.049a.1261.1261,0,0,1-.0208.0109,1.5654,1.5654,0,0,0-.9635,1.0785c-.0553-.0111-.1123-.0206-.1676-.0316l.002-.0067a1.7935,1.7935,0,0,1,.9433-1.15l.0017,0C16.4257,21.8181,16.5179,21.8343,16.6118,21.8505Z"/><path class="an" d="M15.503,21.6378l-.0986.0477a.1105.1105,0,0,1-.0308.0086c-.5071.0353-.8568.3906-1.04,1.0563-.0551-.0127-.11-.0238-.1656-.0365l.0021-.0066a1.4506,1.4506,0,0,1,.9718-1.1475h.0017C15.262,21.5875,15.3807,21.6133,15.503,21.6378Z"/><path class="ao" d="M14.2217,21.3525l-.1623.038a.0518.0518,0,0,1-.0221.0023c-.4841-.0194-.86.3262-1.118,1.0223-.055-.0162-.11-.0306-.1652-.0451l.0038-.0082c.242-.6528.5859-1.0287,1.0261-1.1161C13.9277,21.2812,14.0747,21.3169,14.2217,21.3525Z"/><path class="ap" d="M13.4551,21.1609l-.3578-.01a1.3724,1.3724,0,0,0-1.3613.911q-.0823-.0265-.16-.0531V22.007a1.6319,1.6319,0,0,1,1.2146-1.0262C13.0093,21.0435,13.2313,21.1029,13.4551,21.1609Z"/><path class="aq" d="M12.209,20.8114l-.2723.0041a.0787.0787,0,0,1-.0184-.0026,1.2307,1.2307,0,0,0-1.2737.8087L10.64,21.64c-.0529-.0245-.1042-.0488-.1555-.0716a1.4319,1.4319,0,0,1,1.1593-.929C11.8291,20.6972,12.0172,20.7568,12.209,20.8114Z"/><path class="ar" d="M11.3814,20.4411a.0645.0645,0,0,1-.0046.0251l-.0018.0033a.04.04,0,0,1-.0128.02.0327.0327,0,0,1-.0158.0145l-.007.0064a.0718.0718,0,0,1-.0242.009.0757.0757,0,0,1-.0271.0022l-.0134-.0024a.0506.0506,0,0,1-.0167-.0058.09.09,0,0,1-.0445-.06.8223.8223,0,0,0-.0726-.1454.9351.9351,0,0,0-.61-.4022,1.482,1.482,0,0,0-1.3191.3755l-.0586.0581a.4619.4619,0,0,1-.0028-.083.59.59,0,0,1,.0355-.1775l0-.0017a1.6687,1.6687,0,0,1,1.3814-.3371,1.0825,1.0825,0,0,1,.7489.5357.8391.8391,0,0,1,.06.1312l.0013.0085A.0671.0671,0,0,1,11.3814,20.4411Z"/><path class="as" d="M11.3814,20.4411a.0645.0645,0,0,1-.0046.0251l-.0018.0033a.04.04,0,0,1-.0128.02.0327.0327,0,0,1-.0158.0145l-.007.0064a.0718.0718,0,0,1-.0242.009.051.051,0,0,1-.0272.0038l-.0133-.004-.0051,0a1.3806,1.3806,0,0,0-1.1459.1065.718.718,0,0,0-.3655.4763l-.0071.0436c-.0523-.0379-.1028-.0776-.1483-.1168a.8783.8783,0,0,1,.4348-.5474,1.5423,1.5423,0,0,1,1.1033-.1728,1.4612,1.4612,0,0,1,.1669.045l.0166.0059a.0848.0848,0,0,1,.0532.0566A.0671.0671,0,0,1,11.3814,20.4411Z"/><path class="at" d="M11.4505,19.9069a.092.092,0,0,1-.022.0023.0819.0819,0,0,1-.0642-.0368.0716.0716,0,0,1-.0155-.0294l-.0375-.1725a.87.87,0,0,0-.6681-.5267l-.1649-.0162c.1051-.0424.21-.0813.3269-.1215a1.1218,1.1218,0,0,1,.6128.4819.5476.5476,0,0,1,.0573.1463l.0392.1709A.0848.0848,0,0,1,11.4505,19.9069Z"/><path class="au" d="M24.859,23.8687l0,.0017c-.0556-.001-.1131-.002-.1687-.0046l0-.0067a8.3623,8.3623,0,0,0-.0651-1.2l-.0044-.0154.1723.0031A8.4938,8.4938,0,0,1,24.859,23.8687Z"/><path class="av" d="M26.1393,23.8851l0,.005c-.0558.0008-.1115,0-.1673-.0011l0-.0033a3.9451,3.9451,0,0,0-.199-1.1925l-.02-.0347c.0626,0,.125.0008.1859,0A4.0245,4.0245,0,0,1,26.1393,23.8851Z"/><path class="aw" d="M27.4191,23.8779l0,.0067-.1674.0023,0-.0035A2.237,2.237,0,0,0,26.8426,22.7l-.0417-.0493c.07-.0018.1387-.0018.2081-.0037A2.4015,2.4015,0,0,1,27.4191,23.8779Z"/><path class="ax" d="M28.6883,23.843l-.0005.0118c-.0558.0008-.1117.0032-.1676.0057l0-.0035a2.0571,2.0571,0,0,0-.51-1.185l-.0651-.0538c.08-.0031.1574-.0062.2354-.0109A2.2919,2.2919,0,0,1,28.6883,23.843Z"/><path class="ay" d="M29.882,23.7979c-.0559.0025-.1119.0066-.1677.009h-.0018a1.6682,1.6682,0,0,0-.6306-1.1757l-.1238-.065c.1017-.0053.2034-.0124.3035-.0194a1.974,1.974,0,0,1,.6193,1.2376A.0366.0366,0,0,1,29.882,23.7979Z"/><path class="az" d="M31.02,23.718l0-.0033a1.5666,1.5666,0,0,0-.86-1.1611l-.156-.0614c.1188-.01.2325-.02.35-.0309a1.7772,1.7772,0,0,1,.8312,1.2273l.001.0137C31.1319,23.7081,31.0759,23.7122,31.02,23.718Z"/><path class="ba" d="M32.4245,23.57l0,.0051c-.0545.0076-.1105.0134-.1666.0192l0-.0017c-.12-.6749-.4349-1.0633-.9381-1.1462l-.1744-.0639c.1409-.0137.282-.0307.4214-.0478l.0017,0A1.4546,1.4546,0,0,1,32.4245,23.57Z"/><path class="bb" d="M33.6953,23.3946l0-.0051c-.1928-.7155-.535-1.0916-1.0172-1.1177a.0758.0758,0,0,1-.0416-.0138.9514.9514,0,0,0-.145-.0423c.1514-.0216.3028-.0432.451-.0667.4317.1285.7388.5335.9183,1.2078l.0013.0085C33.8078,23.3746,33.7516,23.3838,33.6953,23.3946Z"/><path class="bc" d="M35.0707,23.1148v.0016q-.08.0191-.1641.0379l-.0014-.0051A1.3673,1.3673,0,0,0,33.6489,22.12a.0507.0507,0,0,1-.0219-.001l-.2346-.0415c.1908-.0316.38-.0633.5658-.0985A1.6379,1.6379,0,0,1,35.0707,23.1148Z"/><path class="bd" d="M36.1986,22.7809c-.0533.02-.1083.0371-.1632.0564l-.0005-.0253a1.235,1.235,0,0,0-1.1922-.9182.1011.1011,0,0,1-.0321-.0015l-.17-.0435c.1655-.0328.3277-.0673.49-.1037l.0017,0A1.4336,1.4336,0,0,1,36.1986,22.7809Z"/><path class="be" d="M37.65,21.6a.4792.4792,0,0,1-.0107.084l-.0543-.0668a1.4814,1.4814,0,0,0-1.2764-.4962.9285.9285,0,0,0-.6432.3432.7909.7909,0,0,0-.0912.1428.0844.0844,0,0,1-.0463.05.0671.0671,0,0,1-.0307.0054.0545.0545,0,0,1-.0284-.0048l-.0067-.0037a.0374.0374,0,0,1-.0181-.0093.0544.0544,0,0,1-.0177-.0211l-.0078-.0139-.0015-.0017-.0014-.0052L35.4143,21.6a.0667.0667,0,0,1-.0022-.0254.0688.0688,0,0,1,.0063-.025l.002-.0084a.8541.8541,0,0,1,.0719-.1251,1.082,1.082,0,0,1,.7959-.4627,1.6688,1.6688,0,0,1,1.3436.4656l0,.0017A.5874.5874,0,0,1,37.65,21.6Z"/><path class="bf" d="M37.1276,22.326c-.0489.0349-.1029.07-.1586.1024l-.003-.044a.7175.7175,0,0,0-.3191-.5086,1.3808,1.3808,0,0,0-1.1307-.2139.0678.0678,0,0,1-.0187.0025.0539.0539,0,0,1-.0284-.0064l-.0067-.0037a.0374.0374,0,0,1-.0181-.0093.0544.0544,0,0,1-.0177-.0211l-.0078-.0139-.0029-.0069L35.4143,21.6a.0667.0667,0,0,1-.0022-.0254.0688.0688,0,0,1,.0063-.025.0847.0847,0,0,1,.0582-.0514l.0171-.0043a1.463,1.463,0,0,1,.172-.029,1.5392,1.5392,0,0,1,1.0806.2757A.8783.8783,0,0,1,37.1276,22.326Z"/><path class="bg" d="M36.4118,20.3385l-.1341.0123a.8742.8742,0,0,0-.7233.4644l-.0735.1606c-.0027-.12-.009-.2388-.0153-.3573a1.1256,1.1256,0,0,1,.6553-.4187C36.2235,20.2452,36.3193,20.292,36.4118,20.3385Z"/></g><path class="bh" d="M35.4975,21.6644a45.9191,45.9191,0,0,1-12.1757.9335,45.9069,45.9069,0,0,1-12.0338-2.075c.0193-.1934.0418-.3851.0678-.5765.0122-.116.0277-.23.0449-.3443q.0573-.408.1278-.81l.0022-.01c.0165-.1006.0365-.2011.0547-.3016.009-.0452.0161-.09.0267-.1357.0182-.1005.0382-.1993.06-.298.0045-.0234.009-.0469.0151-.07.0243-.12.05-.2427.078-.3631q.0421-.193.0892-.3862c.0314-.1286.0629-.2573.0959-.3842s.066-.2537.1007-.3806c.0346-.1251.0694-.2519.1057-.3769.02-.0667.04-.1333.0584-.2.0241-.0818.0483-.1617.074-.2417.0721-.2382.149-.473.2276-.7059.0353-.1031.07-.2045.1057-.3059.0761-.2162.1537-.4288.2348-.6414.05-.1345.1023-.2689.1558-.4016.04-.1046.0825-.2074.1245-.31q.2347-.57.4888-1.12c.0377-.0827.0754-.1654.1147-.2464q.33-.7019.69-1.37c.0611-.1137.1222-.2274.1833-.3395.1534-.2784.31-.55.4678-.8179q.0744-.1258.1486-.2465c.0678-.1134.1374-.2268.2069-.3385.0111-.02.0239-.0394.0366-.059.0421-.0691.0841-.1364.1279-.2036q.2328-.3668.47-.72.3162-.4668.6363-.9113A25.8,25.8,0,0,1,22.9038.6354l.0053-.0031a5.8441,5.8441,0,0,1,.9227-.499,1.4033,1.4033,0,0,1,.5555-.1327c.99.0467,4.2586,2.9489,6.9955,7.5973q.2769.4719.5476.9672.2028.3747.4.7609c.0356.0693.0712.14.1083.213l0,.0017c.07.1385.139.2786.2051.4186q.0624.1273.1247.2594c.132.2818.2622.5668.3888.8584.05.1172.1.2362.1505.3553q.2942.6982.558,1.429c.0315.0843.0612.17.0911.2562.2353.6719.4511,1.3632.6408,2.0718.0144.0531.0288.1062.0431.1609.0258.0993.0514.2.0754.3011.0314.1232.0627.2479.0906.3726.0379.1641.0758.3281.11.492.0194.0888.0389.1777.0568.2663.0261.1263.05.2543.0749.3822.0272.14.051.28.0766.4193.0238.1381.0476.2795.0681.419.0168.109.0337.218.0488.3268q.0251.1661.0452.3318l.0152.1089c.0118.1069.0254.214.0372.3211.0025.017.0034.0357.006.0527.0144.124.0272.248.0381.3736.0123.1324.0246.2665.0353.4q.0339.4074.0526.8188c.0046.1152.0094.23.0123.3471C35.492,21.2772,35.4965,21.47,35.4975,21.6644Z"/><path class="bi" d="M19.2113,10.0917c-.1942,5.5141-2.1669,2.9419-2.01-.3771.1113-2.3609,3.2728-7.2822,5.7028-9.0792l.0053-.0031a5.8441,5.8441,0,0,1,.9227-.499A15.4007,15.4007,0,0,0,19.2113,10.0917Z"/><path class="bj" d="M34.5977,15.1894c-5.4025,1.023-16.1552-.515-12.3894-4.14,4.6032-4.4308,3.9787-9.108,2.179-11.0487.99.0467,4.2586,2.9489,6.9955,7.5973q.2769.4719.5476.9672.2028.3747.4.7609c.0356.0693.0712.14.1083.213l0,.0017c.07.1385.139.2786.2051.4186q.0624.1273.1247.2594c.132.2818.2622.5668.3888.8584.05.1172.1.2362.1505.3553q.2942.6982.558,1.429c.0315.0843.0612.17.0911.2562C34.1922,13.79,34.408,14.4808,34.5977,15.1894Z"/><path class="bk" d="M45.6677,29.9641c-1.76,1.1543-10.0122,4.2991-24.3649,3.6223C11.46,33.1224,4.4659,31.2225.5154,27.94c-.0521-.043-.096-.0806-.1351-.1111a1.0129,1.0129,0,0,1,1.2661-1.5814c.0473.0377.1009.0824.1644.1345,4.4871,3.73,13.1287,4.8764,19.5875,5.1809,14.0541.6627,21.8408-2.4281,23.1577-3.2922a1.0139,1.0139,0,0,1,1.4025.2909.9765.9765,0,0,1,.1314.2969A1.0089,1.0089,0,0,1,45.6677,29.9641Z"/><path class="bl" d="M45.6677,29.9641c-1.76,1.1543-10.0122,4.2991-24.3649,3.6223C11.46,33.1224,4.4659,31.2225.5154,27.94c-.0521-.043-.096-.0806-.1351-.1111a1.0177,1.0177,0,0,1-.3626-.9838c5.4187,4.6457,17.06,5.7621,27.1734,5.7768,8.3232.0122,15.6646-1.9729,18.8988-3.7634A1.0089,1.0089,0,0,1,45.6677,29.9641Z"/><g class="bm"><path class="bn" d="M45.6663,28.2723a1.715,1.715,0,0,0-1.1988.2629c-1.5836,1.0374-9.0883,4.0249-23.1408,3.3623-6.4588-.3045-15.1-1.4506-19.5875-5.181-.0634-.052-.1188-.0969-.1644-.1345A1.0126,1.0126,0,0,0,0,27a1.014,1.014,0,0,1,1.6461-.7521c.0473.0377.1009.0824.1644.1345,4.4871,3.73,13.1287,4.8764,19.5875,5.1809,14.0541.6627,21.8408-2.4281,23.1577-3.2922A1.01,1.01,0,0,1,45.6663,28.2723Z"/></g><path class="bo" d="M45.5087,28.8586a.211.211,0,1,0,.2207-.2009A.211.211,0,0,0,45.5087,28.8586Z"/><path class="bp" d="M40.7355,30.8446a.211.211,0,1,1-.2008-.2207A.2111.2111,0,0,1,40.7355,30.8446Z"/><path class="bq" d="M35.01,31.9708a.211.211,0,1,1-.2008-.2207A.211.211,0,0,1,35.01,31.9708Z"/><path class="br" d="M29.1181,32.51a.211.211,0,1,1-.2009-.2206A.2112.2112,0,0,1,29.1181,32.51Z"/><path class="bs" d="M23.2208,32.5618a.211.211,0,1,1-.2009-.2208A.211.211,0,0,1,23.2208,32.5618Z"/><path class="bt" d="M17.1185,32.1728a.211.211,0,1,1-.2008-.2207A.2111.2111,0,0,1,17.1185,32.1728Z"/><path class="bu" d="M11.3415,31.3009a.211.211,0,1,1-.2009-.2208A.2111.2111,0,0,1,11.3415,31.3009Z"/><path class="bv" d="M5.7563,29.6816a.211.211,0,1,1-.2009-.2208A.211.211,0,0,1,5.7563,29.6816Z"/><path class="bw" d="M.7784,26.8543a.211.211,0,1,1-.2009-.2206A.2112.2112,0,0,1,.7784,26.8543Z"/><path class="bx" d="M32.6985,9.5157a.3321.3321,0,0,1-.169.036.4364.4364,0,0,1-.0907-.0127q-.6621-.1529-1.3454-.2848l-.1692-.0334c-.5628-.1059-1.1379-.204-1.72-.289-.0553-.0094-.1124-.0171-.1679-.0231-.6042-.0893-1.2175-.1656-1.8364-.23-.0571-.0079-.116-.014-.1732-.0184-.4793-.0512-.964-.0944-1.4508-.1309-.0572-.0044-.1128-.0087-.1684-.0113q-.6645-.049-1.3331-.0815l-.1687-.0079q-.622-.0294-1.24-.0433c-.0574-.0027-.1132-.0036-.1706-.0046q-.7445-.02-1.4831-.0159c-.0575.0007-.1149,0-.1725.002-.585.0029-1.1671.0176-1.7411.0413l-.0221.0023c-.0576.0024-.1134.0049-.1711.0088q-.963.0459-1.8959.1355c-.0561.0057-.1138.0115-.17.019q-.6928.0687-1.3651.1672a.0465.0465,0,0,1-.0153.0009l-.0017,0a.34.34,0,0,1-.1667-.0129l-.0116-.0039a.2038.2038,0,0,1-.07-.0489c-.3013-.3151.3961-1.5921,1.4249-1.76l.0033,0c.024-.004.0478-.0079.0715-.01.073-.0085.1461-.0151.2207-.0218l.0036-.0015c.3209-.0322.6433-.0609.9706-.0844l.2137-.0152c.0543-.0042.1085-.0084.1628-.011l.1356-.0088c.4458-.028.8962-.0473,1.35-.0614l.0017,0,.3385-.0094c.4415-.0113.888-.0156,1.3357-.013l.2434.0012c.3869.0013.7753.01,1.1652.0195.0642.0013.13.0045.1958.0059l.0017,0c.3122.01.6244.0209.938.0357l.1687.008q.5235.0248,1.0451.0577c.0624.0029.1247.0076.1871.01q.5661.0368,1.1267.0835c.0808.0073.1634.0128.2442.02q.7447.0654,1.4784.1525c.0857.0107.17.02.2554.0323q.6475.0813,1.2808.1838h.0018c.1627.0263.3236.0541.4844.0837.3319.06.6584.124.983.1935.0486.0089.0954.02.1423.03a1.7266,1.7266,0,0,1,.1918.0531l.005.0019a2.024,2.024,0,0,1,.75.4055C32.9368,8.5839,33.0177,9.34,32.6985,9.5157Z"/><path class="by" d="M18.1166,6.7832l-.2137.0152a2.3635,2.3635,0,0,0-.9853,1.1824,1.0271,1.0271,0,0,0-.0786.5928c.0561-.0075.1138-.0133.17-.019a.8319.8319,0,0,1,.0665-.5141,2.0727,2.0727,0,0,1,1.34-1.2771l-.1356.0088C18.2251,6.7748,18.1709,6.779,18.1166,6.7832Z"/><path class="bz" d="M25.1987,6.8078A2.6333,2.6333,0,0,1,25.41,8.5027l-.0024.0152c.0556.0026.1112.0069.1684.0113a2.9543,2.9543,0,0,0-.19-1.7109C25.3234,6.8154,25.2611,6.8107,25.1987,6.8078Z"/><path class="ca" d="M28.4905,7.1067c-.0856-.0125-.17-.0216-.2554-.0323A2.1881,2.1881,0,0,1,29.04,8.887a.1191.1191,0,0,0-.0044.0217c.0555.006.1126.0137.1679.0231A1.877,1.877,0,0,0,28.4905,7.1067Z"/><path class="cb" d="M26.7567,6.9219c-.0808-.0073-.1634-.0128-.2442-.02a2.0111,2.0111,0,0,1,.573.9329.9965.9965,0,0,1-.0474.7888.0721.0721,0,0,0-.0118.0366c.0572.0044.1161.0105.1732.0184a1.24,1.24,0,0,0,.05-.8867A1.7768,1.7768,0,0,0,26.7567,6.9219Z"/><path class="cc" d="M30.2575,7.3742c-.1608-.03-.3217-.0574-.4844-.0837h-.0018l0,.0033a1.94,1.94,0,0,1,1.1367,1.3415.9345.9345,0,0,1,.0163.5855l.1692.0334a1.1526,1.1526,0,0,0-.0212-.6636A2.1882,2.1882,0,0,0,30.2575,7.3742Z"/><path class="cd" d="M31.58,7.6529l-.005-.0019a1.7266,1.7266,0,0,0-.1918-.0531c-.0469-.0106-.0937-.0213-.1423-.03a3.7514,3.7514,0,0,1,.5585.4876c.0387.0373.0776.0747.1129.1135a1.9884,1.9884,0,0,1,.6163,1.3728l.0013.01a.3321.3321,0,0,0,.169-.036A2.437,2.437,0,0,0,31.58,7.6529Z"/><rect class="ce" x="23.1854" y="7.5048" width="1.6882" height="0.1688" transform="translate(15.3201 31.2358) rotate(-87.3083)"/><path class="cf" d="M22.8494,6.7a2.5216,2.5216,0,0,0-.3547,1.68c.0574.001.1132.0019.1706.0046a.0815.0815,0,0,0-.0009-.0186,1.8605,1.8605,0,0,1-.0181-.513q.0059-.0707.0169-.1411a2.7409,2.7409,0,0,1,.097-.4467c.0161-.0534.0337-.1049.0529-.1531.0114-.0281.023-.0563.0343-.0828a1.105,1.105,0,0,1,.0924-.1681.3931.3931,0,0,1,.0361-.049.295.295,0,0,1,.0357-.04.0857.0857,0,0,0,.0353-.0643V6.7064l-.0017,0C22.9794,6.7049,22.9136,6.7017,22.8494,6.7Z"/><path class="cg" d="M20.8391,8.3667c.0576-.0024.115-.0013.1725-.002a.0842.0842,0,0,0-.0069-.0341,1.2015,1.2015,0,0,1,.0918-.9254,2.0693,2.0693,0,0,1,.5877-.7243L21.4408,6.68A1.6927,1.6927,0,0,0,20.8391,8.3667Z"/><path class="ch" d="M19.7649,6.702a1.7887,1.7887,0,0,0-.7961.86,1.0617,1.0617,0,0,0-.064.8571c.0577-.0039.1135-.0064.1711-.0088l.0221-.0023a.08.08,0,0,0-.0458-.07l-.0045-.012a.201.201,0,0,1-.0132-.0412.2763.2763,0,0,1-.0155-.065.4387.4387,0,0,1-.0087-.068l0-.0016a.6.6,0,0,1-.0014-.08,1.234,1.234,0,0,1,.1137-.4407,1.5141,1.5141,0,0,1,.9192-.8542.0886.0886,0,0,0,.0631-.0832l-.3385.0094Z"/><path class="ci" d="M16.9287,6.8843c-.0746.0067-.1477.0133-.2207.0218-.0237.0022-.0475.0061-.0715.01-.0486.0281-.0972.0562-.1443.0861s-.0941.06-.14.0915l-.0018.0016c-.0472.0332-.0927.0666-.1366.1017l-.0017,0c-.0439.0352-.0861.072-.1267.1073-.0423.0369-.0829.0739-.1219.1125l-.0054.0049c-.0373.0371-.0728.0742-.1084.1131a2.4494,2.4494,0,0,0-.2829.3721q-.0328.0517-.0607.1036c-.0075.0149-.0148.028-.0222.0412-.0129.0247-.0242.0479-.0355.071-.0093.02-.0188.0413-.0282.0629a1.6555,1.6555,0,0,0-.0721.2011c-.0078.0233-.0122.045-.0184.0667s-.0105.0452-.0149.0669c-.0045.0235-.0088.0453-.0116.0671-.0051.0352-.01.07-.0116.1042a.062.062,0,0,0-.0135.0332l.0116.0039a.34.34,0,0,0,.1667.0129l.0017,0,0-.005a1.6375,1.6375,0,0,1,.504-1.0757,4.9945,4.9945,0,0,1,.9694-.7782Z"/><path class="cj" d="M32.33,8.0584c-2.6029-1.1335-16.5843-1.61-17.1212.6175-.3094-.3222.4312-1.6546,1.5-1.77a48.4868,48.4868,0,0,1,7.3612-.16,43.8326,43.8326,0,0,1,7.3136.8518A2.1329,2.1329,0,0,1,32.33,8.0584Z"/><path class="ck" d="M46.09,28.8584a.9765.9765,0,0,0-.1314-.2969.9975.9975,0,0,0-.3526-.3232c-.0259-.0147-.0516-.03-.0787-.0422-.0232-.01-.0469-.0185-.0708-.0272a.9938.9938,0,0,0-.1012-.0312c-.0211-.0053-.0419-.0106-.0632-.0144a1.0183,1.0183,0,0,0-.1489-.0163l-.0218-.0017a1.0321,1.0321,0,0,0-.1381.0083c-.6313-2.1559-3.4384-4.1918-5.85-5.6427-.4659-.28-.9181-.5372-1.3371-.7707-.05-.0268-.1-.0559-.1478-.08l.0025-.02a.5908.5908,0,0,0-.0186-.18l0-.0017c-.0942-.3678-.52-.7327-1.2184-1.08l-.0017,0c-.0923-.0467-.1882-.0934-.2908-.1388-.2136-.0946-.4475-.1885-.7-.2815l-.0017,0c.0194.2325.0354.4665.0464.7l.0027.0642c-.0123-.256-.028-.5109-.0491-.7644-.0106-.1339-.0229-.2681-.0353-.4-.011-.1256-.0237-.25-.0381-.3736-.0026-.017-.0035-.0357-.006-.0527-.0118-.1071-.0254-.2142-.0372-.3211-.0051-.0358-.01-.0733-.0152-.109q-.02-.1658-.0452-.3317c-.0151-.1088-.032-.2178-.0489-.3267-.02-.14-.0442-.281-.068-.4191-.0256-.14-.0494-.2795-.0766-.4193-.0245-.128-.0488-.2559-.0749-.3822-.0179-.0886-.0374-.1775-.0568-.2663-.0346-.1639-.0724-.3279-.11-.492-.0279-.1247-.0592-.2494-.0906-.3726-.024-.1009-.05-.2018-.0754-.3011-.0143-.0547-.0287-.1078-.0431-.1609-.19-.7087-.4055-1.4-.6408-2.0718-.03-.086-.06-.1719-.0911-.2562q-.2622-.73-.558-1.429c-.05-.1191-.1-.238-.1505-.3553-.12-.2777-.2447-.5487-.37-.8173l.001,0c-.0074-.0138-.0135-.0276-.0195-.0414q-.0623-.1322-.1248-.2593c-.066-.14-.1354-.28-.205-.4187l0-.0017a.4364.4364,0,0,0,.0907.0127.3321.3321,0,0,0,.169-.036c.3192-.1759.2383-.9318-.3689-1.4573a1.9644,1.9644,0,0,0-.176-.1339c-.0211-.0143-.0443-.0273-.0663-.0412-.0424-.0264-.0856-.0521-.1314-.0761-.0326-.0171-.0668-.033-.1013-.0489s-.0709-.0312-.108-.0456c-.0492-.02-.1-.0378-.1524-.0546L31.58,7.6529l-.005-.002a1.7484,1.7484,0,0,0-.1918-.053C28.6459,2.95,25.3772.0473,24.3873.0006a1.4033,1.4033,0,0,0-.5555.1327,5.8524,5.8524,0,0,0-.9227.499l-.0053.0031A25.8,25.8,0,0,0,16.708,6.9061c-.0237.0022-.0475.0061-.0715.01l-.0033,0c-.0225.0037-.0439.0107-.0659.0153-.03.0064-.0592.0125-.0882.0206-.0337.0093-.0666.0205-.0995.0321-.0283.01-.0568.02-.0845.0314-.0322.0135-.0633.0285-.0945.0439-.0268.0132-.0535.026-.08.0406-.03.017-.06.0356-.0894.0543-.0248.0157-.05.031-.0738.0478-.0288.02-.0563.0417-.0838.0633-.0228.0177-.0458.035-.0677.0537-.0267.0227-.0518.0463-.0771.07-.0208.0195-.0418.0383-.0617.0584-.0242.0245-.0466.05-.0694.0748-.0188.0208-.038.0413-.0557.0625-.0212.0252-.04.0508-.06.0764-.0169.0221-.0344.0438-.05.0661-.0178.0251-.0336.05-.05.0754-.0151.0233-.0307.0463-.0445.07s-.0263.0475-.0391.0714-.0268.0484-.0383.0723c-.0107.022-.0189.0432-.0282.0649-.0108.025-.0223.05-.0313.0745-.0072.02-.012.0382-.018.0574-.0078.025-.0165.05-.0223.0743-.0042.0174-.0057.0333-.0088.05-.0042.0238-.0095.0482-.0115.0706-.0013.0154,0,.0288,0,.0434a.5186.5186,0,0,0,.0006.0638.3374.3374,0,0,0,.01.04.3267.3267,0,0,0,.0125.05.2309.2309,0,0,0,.0452.0705.2038.2038,0,0,0,.07.0489l.0116.0039a.34.34,0,0,0,.1668.0129l.0016,0a.0557.0557,0,0,0,.0135-.0008c-.0111.02-.0237.0393-.0348.059-.0695.1116-.1391.225-.2069.3384q-.0742.1206-.1486.2465c-.1579.268-.3144.54-.4678.818-.0611.112-.1222.2257-.1833.3394q-.3587.6678-.69,1.37c-.0393.081-.077.1637-.1147.2464q-.2541.5508-.4888,1.12c-.042.1028-.0841.2056-.1245.31-.0537.1326-.1055.2671-.1558.4016-.0811.2126-.1587.4252-.2348.6414-.0352.1014-.07.2028-.1057.306-.0786.2328-.1556.4675-.2276.7058-.0257.08-.05.16-.074.2416-.0184.0668-.0384.1334-.0584.2-.0364.125-.0711.2518-.1057.3769-.0347.1269-.0676.2538-.1007.3806s-.0645.2556-.0959.3842-.0611.2575-.0892.3862c-.0276.12-.0537.2426-.0779.3631-.0062.0234-.0107.0469-.0152.07-.0215.0987-.0415.1975-.06.298-.0106.0452-.0178.09-.0267.1357-.0182.1005-.0382.201-.0547.3016l-.0022.01c-.04.2309-.076.4638-.11.6976l-.0005-.0014c.0329-.2334.0709-.4649.1105-.6962q-.39.1034-.7233.2143c-.1169.04-.2218.0791-.3269.1215l-.005,0c-.7128.2773-1.1606.5976-1.2871.95v.0016a.59.59,0,0,0-.0355.1775c0,.006.0007.0124.0007.0186l-.0015,0a24.1851,24.1851,0,0,0-6.481,3.8234,5.6318,5.6318,0,0,0-1.4343,1.9547A.9992.9992,0,0,0,.14,26.5273c-.0086.0146-.0161.03-.024.0446-.0155.03-.0295.06-.0419.091-.0059.0146-.012.0291-.0172.0439a1.0155,1.0155,0,0,0-.0389.1382.9785.9785,0,0,0-.0161.1436L0,27l.0014-.0028a1.014,1.014,0,0,0,.3786.8321c.0391.03.083.0681.1351.1111q.3624.3012.76.5868c1.1979,3.2645,6.38,7.2484,12.5449,9.5569l-.01-.0015a.5915.5915,0,0,0-.12.0422c-.01.0046-.018.0111-.0274.0163l-.0005,0-.03.018c-.0159.01-.0323.019-.0471.03-.01.0074-.0176.0163-.0267.0243-.0139.012-.0281.0238-.0408.0371l-.0058.0052-.0173.02-.019.0254a.6811.6811,0,0,0-.0558.0828l-.0038.0056-.0007.0017-.012.0254a.7913.7913,0,0,0-.0333.0729c-.0057.0149-.01.0308-.0147.0463l-.0057.018-.0087.0275,0,.0011-.0021.0068-.0044.02c-.0046.02-.0069.0415-.01.0624l-.002.012c-.0021.0148-.0055.0287-.0071.0437l-.0011.0131-.0008.0166c-.0011.0164-.0006.0334-.0012.05-.0007.0231-.0023.0458-.0016.07l0,.003c.0008.0253.0043.0517.0067.0777.0015.0157.0019.0307.004.0466a1.34,1.34,0,0,0,.0329.1687l.008.0262c.0047.0169.01.0336.0155.0506.0084.0263.0165.0526.0265.0792.0048.0127.0108.0254.016.038.0125.031.0241.0618.0389.093l.0148.0269c.01.02.0215.0392.0323.0589.02.037.04.0739.0641.1107.01.0148.0211.0295.0311.0443.028.0408.0561.0815.0884.1218l.0247.0282c.0368.0444.0745.0884.1169.1315q.0759.0776.1637.1519a3.3689,3.3689,0,0,0,1.469.6777,42.9245,42.9245,0,0,0,7.0183.7315,43.0423,43.0423,0,0,0,7.0591-.0982,3.3814,3.3814,0,0,0,1.5456-.554c.064-.0455.1235-.0927.1792-.1411.0237-.02.0442-.042.0664-.063.03-.0281.06-.056.0876-.0848.0254-.0269.0475-.0544.0707-.0816.02-.0237.041-.0471.0594-.0711.0244-.0319.0459-.0642.0677-.0965.0128-.0192.0266-.0382.0384-.0575.0061-.01.0137-.0193.0195-.0291.018-.031.0329-.0619.0484-.093l.0138-.0263c.013-.027.0241-.0537.0352-.0805.0069-.0167.0138-.0331.02-.05l0,0,.0083-.02a1.3873,1.3873,0,0,0,.0479-.1667c.0032-.0146.0051-.0286.0078-.043.0048-.0257.0107-.0518.0137-.0771l.0006-.0089.0014-.0236c.0015-.0154.002-.0305.0028-.0456s.0025-.0292.0027-.0434c0-.0055.0009-.0114.0009-.017,0-.023-.0027-.0446-.0042-.0671s-.0021-.0456-.0051-.0674l-.0041-.0245-.0069-.0308c-.0049-.024-.0094-.0483-.016-.0712-.0044-.0147-.01-.0285-.0155-.0428l-.011-.03-.0058-.0161-.004-.0113-.0075-.013c-.0095-.02-.021-.0374-.032-.0557-.01-.0166-.0193-.0338-.0307-.0493l-.0073-.0108-.0026-.0028-.014-.0151-.0011-.0012-.0212-.0229c-.0115-.0124-.0218-.0258-.0342-.0371l-.0058-.0059c-.01-.0091-.0224-.0158-.0333-.0241s-.021-.0159-.0321-.0232c-.0089-.0061-.0167-.0133-.0261-.0188l-.0033-.0022a.5875.5875,0,0,0-.11-.0493l-.0047,0c6.3939-1.7532,11.939-5.2819,13.3371-8.4341a7.5279,7.5279,0,0,0,.8912-.48A1.0089,1.0089,0,0,0,46.09,28.8584Zm-10.609-7.8826.0014.0532c-.0013-.0424-.0029-.0843-.0046-.1265C35.4786,20.9271,35.48,20.9512,35.4809,20.9758Z"/><path class="cl" d="M35.4972,21.6655a45.95,45.95,0,0,1-12.1751.9323,45.922,45.922,0,0,1-12.0334-2.0737c.0191-.1957.04-.3863.0665-.5768q.0193-.176.0457-.3443c.0375-.2735.0822-.5441.1268-.8123l.0029-.01c.017-.1.0364-.2.056-.302a1.2746,1.2746,0,0,1,.0259-.1339c.0172-.1025.039-.2.0584-.2994.006-.0219.01-.0464.0157-.0707.0252-.1191.0506-.2408.0784-.3623.0282-.129.0589-.2577.0895-.3866s.0613-.2575.0943-.3837.0659-.2525.1015-.381c.0353-.1237.0709-.2522.1062-.3759.02-.0678.0407-.1332.0586-.2011.0234-.08.0469-.16.0727-.24.0727-.24.15-.4745.2275-.7068.0369-.1039.0711-.2055.1078-.3069.0741-.2152.1529-.4278.2342-.64.0507-.1353.1012-.2705.1566-.403.0393-.1038.081-.2075.1226-.3088q.237-.5711.49-1.1194c.036-.0843.0742-.166.1149-.2477.2185-.4664.449-.9249.6887-1.3706.0619-.1126.1239-.2276.1831-.3379.1533-.28.311-.5505.4686-.8182.0506-.0836.0988-.1673.1491-.246l.0268-.0455c.0587-.098.12-.1958.1784-.2938a.4852.4852,0,0,0,.0349-.06l.0024,0q.6717-.0972,1.3643-.1666c.0567-.0072.116-.0142.17-.019.6221-.0592,1.2557-.1055,1.8959-.1342.0593-.0046.1134-.007.1725-.0091l.0223-.0039c.5736-.0221,1.1542-.0389,1.7392-.0408.0591-.0021.1156-.0019.1745-.0016.4915-.0014.9852.0022,1.481.0157.0589,0,.1153.003.1717.0057.4125.0072.8246.0217,1.239.0412l.1691.008c.4462.021.89.0493,1.3328.0825.0564.0027.1127.0078.1691.01.4872.0377.9717.08,1.4509.1323.0564.0027.1149.01.1736.018.6187.0636,1.2317.1416,1.837.2291.0537.0075.1123.0152.1659.0251.5833.084,1.1586.1824,1.7212.2875.0584.0126.1119.0225.17.0327.4554.0878.903.185,1.3453.287.07.1385.1393.2793.2038.42.0428.0831.0829.1709.1254.259a.3226.3226,0,0,0,.02.04c.1225.2687.2472.54.3692.8185.0487.1153.1.2356.1505.3535.1942.4662.383.9445.5567,1.4293.0329.0851.0608.17.0911.2575.2535.722.4838,1.4676.6835,2.2314.0273.0995.052.2015.0768.3009.031.1243.062.2486.09.3728.0366.164.0754.3279.1095.4918.02.0893.0383.1786.0562.268.026.1265.0519.2531.0754.3819.0278.1389.0506.28.076.4189s.0482.28.0687.4185c.017.1089.034.2179.0486.3266.0168.1114.0312.2226.0458.3314.0056.0372.0112.0742.0144.1088.0121.1087.0268.215.039.3213l.0048.0543c.0139.1235.0277.2471.039.3729.0109.1332.0242.2664.0352.4.0215.2714.0406.5449.0521.8207q.0069.17.0132.3471C35.491,21.277,35.4966,21.469,35.4972,21.6655Z"/><path class="cm" d="M32.0767,9.6554a22.01,22.01,0,0,1,2.1845,5.4771,19.7577,19.7577,0,0,1,.9347,6.3318A25.059,25.059,0,0,1,28.2215,22.53a46.9018,46.9018,0,0,1-5.4951-.1086,48.5437,48.5437,0,0,1-6.3351-.914,15.8139,15.8139,0,0,1,1.7431-4.862,13.3886,13.3886,0,0,1,7.9061-6.3468A17.1,17.1,0,0,1,32.0767,9.6554Z"/><path class="cn" d="M32.1,9.751a21.5562,21.5562,0,0,1,2.1574,5.4268,19.59,19.59,0,0,1,.9152,6.2722,24.5684,24.5684,0,0,1-6.8729,1.0586,46.2476,46.2476,0,0,1-5.4177-.1017,47.0457,47.0457,0,0,1-6.277-.8936,15.5412,15.5412,0,0,1,1.7489-4.789,13.6493,13.6493,0,0,1,3.2126-3.8276,13.2489,13.2489,0,0,1,1.142-.8373,13.8174,13.8174,0,0,1,3.462-1.6256,15.6329,15.6329,0,0,1,2.4035-.5389A16.9743,16.9743,0,0,1,32.1,9.751Z"/><path class="co" d="M32.1227,9.8465a21.1045,21.1045,0,0,1,2.13,5.3766,19.4155,19.4155,0,0,1,.8957,6.2127,24.0871,24.0871,0,0,1-6.7712,1.0517,45.6425,45.6425,0,0,1-5.3405-.0949,45.6175,45.6175,0,0,1-6.2188-.8732,14.1584,14.1584,0,0,1,.9914-3.1945,15.524,15.524,0,0,1,.7633-1.5214A13.6788,13.6788,0,0,1,21.76,13.0249a13.3539,13.3539,0,0,1,1.13-.83,13.93,13.93,0,0,1,3.41-1.6252,16.423,16.423,0,0,1,5.8229-.7228Z"/><path class="cp" d="M32.1457,9.9421a20.6543,20.6543,0,0,1,2.1031,5.3263,19.2455,19.2455,0,0,1,.8762,6.1531,23.5973,23.5973,0,0,1-6.67,1.0448,46.2549,46.2549,0,0,1-5.2633-.088,45.1,45.1,0,0,1-6.1607-.8529A13.2375,13.2375,0,0,1,18.03,18.381a15.8556,15.8556,0,0,1,.7624-1.4983,13.7155,13.7155,0,0,1,3.1627-3.73,13.4782,13.4782,0,0,1,1.1171-.8235,14.0668,14.0668,0,0,1,3.3576-1.6248,15.9073,15.9073,0,0,1,2.3175-.5627A14.3832,14.3832,0,0,1,32.1457,9.9421Z"/><path class="cq" d="M32.1687,10.0377a20.2192,20.2192,0,0,1,2.076,5.276,19.075,19.075,0,0,1,.8567,6.0935,23.1129,23.1129,0,0,1-6.568,1.038,46.0294,46.0294,0,0,1-5.1861-.0812,44.0014,44.0014,0,0,1-6.1025-.8325A12.4,12.4,0,0,1,18.25,18.4371a16.2037,16.2037,0,0,1,.7615-1.4752,13.66,13.66,0,0,1,4.2423-4.4974A14.229,14.229,0,0,1,26.559,10.84a16.0956,16.0956,0,0,1,2.2745-.5746A13.2777,13.2777,0,0,1,32.1687,10.0377Z"/><path class="cr" d="M32.1917,10.1332a19.7859,19.7859,0,0,1,2.0488,5.2258,18.8953,18.8953,0,0,1,.8372,6.034,22.6325,22.6325,0,0,1-6.4663,1.031,45.7863,45.7863,0,0,1-5.1088-.0743,42.9658,42.9658,0,0,1-6.0444-.8121A11.632,11.632,0,0,1,18.47,18.4932c.2333-.4947.48-.9825.7605-1.4521a13.8883,13.8883,0,0,1,3.1127-3.6318q.522-.4287,1.0922-.81a14.3962,14.3962,0,0,1,3.2534-1.6241,16.2994,16.2994,0,0,1,2.2314-.5864A12.2723,12.2723,0,0,1,32.1917,10.1332Z"/><path class="cs" d="M32.2147,10.2288a19.3592,19.3592,0,0,1,2.0217,5.1755,18.7262,18.7262,0,0,1,.8177,5.9744,22.1543,22.1543,0,0,1-6.3647,1.0242,45.58,45.58,0,0,1-5.0316-.0675,41.9333,41.9333,0,0,1-5.9863-.7917A10.93,10.93,0,0,1,18.69,18.5493c.2347-.4857.48-.9664.76-1.429a13.9617,13.9617,0,0,1,3.0877-3.5829q.5165-.4243,1.08-.8028a14.5931,14.5931,0,0,1,3.2012-1.6236,16.54,16.54,0,0,1,2.1884-.5984A11.3526,11.3526,0,0,1,32.2147,10.2288Z"/><path class="ct" d="M32.2377,10.3243A18.9407,18.9407,0,0,1,34.2323,15.45a18.5467,18.5467,0,0,1,.7981,5.9148,21.6684,21.6684,0,0,1-6.263,1.0173,45.36,45.36,0,0,1-4.9544-.0606,40.9146,40.9146,0,0,1-5.9281-.7714A10.284,10.284,0,0,1,18.91,18.6054c.236-.4767.48-.95.7587-1.406a14.0474,14.0474,0,0,1,3.0628-3.5339q.5109-.42,1.0673-.7958a14.9454,14.9454,0,0,1,3.149-1.6233,17.0878,17.0878,0,0,1,2.1454-.61A10.5225,10.5225,0,0,1,32.2377,10.3243Z"/><path class="cu" d="M32.2607,10.42a18.5231,18.5231,0,0,1,1.9674,5.075,18.37,18.37,0,0,1,.7787,5.8552,21.1888,21.1888,0,0,1-6.1614,1.0105,45.1259,45.1259,0,0,1-4.8772-.0538,39.9392,39.9392,0,0,1-5.87-.751A9.6888,9.6888,0,0,1,19.13,18.6615c.2372-.4677.48-.9341.7577-1.3829a14.14,14.14,0,0,1,3.0379-3.4849q.5054-.4159,1.0548-.789a15.2326,15.2326,0,0,1,3.0969-1.6229A17.4735,17.4735,0,0,1,29.18,10.76,9.7586,9.7586,0,0,1,32.2607,10.42Z"/><path class="cv" d="M32.2837,10.5154a18.12,18.12,0,0,1,1.94,5.0248,18.194,18.194,0,0,1,.7591,5.7957,20.7144,20.7144,0,0,1-6.06,1.0035,44.8734,44.8734,0,0,1-4.8-.0469,38.9921,38.9921,0,0,1-5.8118-.7306A9.135,9.135,0,0,1,19.35,18.7176c.2383-.4587.48-.918.7567-1.36a14.2444,14.2444,0,0,1,3.0129-3.436q.5-.4116,1.0424-.782a15.5372,15.5372,0,0,1,3.0448-1.6225,17.8944,17.8944,0,0,1,2.0594-.6341A9.06,9.06,0,0,1,32.2837,10.5154Z"/><path class="cw" d="M32.3067,10.611A17.7136,17.7136,0,0,1,34.22,15.5854a18.0155,18.0155,0,0,1,.74,5.7362,20.2412,20.2412,0,0,1-5.9581.9967,44.6621,44.6621,0,0,1-4.7227-.04,38.0616,38.0616,0,0,1-5.7537-.71,8.6288,8.6288,0,0,1,1.0455-2.7944c.2394-.45.48-.9017.7558-1.3366A14.3589,14.3589,0,0,1,23.3142,14.05q.4943-.4074,1.03-.7751a15.9031,15.9031,0,0,1,2.9926-1.6221,18.4268,18.4268,0,0,1,2.0164-.646A8.4181,8.4181,0,0,1,32.3067,10.611Z"/><path class="cx" d="M32.33,10.7065a17.3157,17.3157,0,0,1,1.886,4.9242,17.8355,17.8355,0,0,1,.72,5.6766,19.7631,19.7631,0,0,1-5.8565.99,44.4073,44.4073,0,0,1-4.6455-.0332,37.1577,37.1577,0,0,1-5.6955-.69A8.1545,8.1545,0,0,1,19.7906,18.83c.24-.4406.48-.8856.7549-1.3135a14.484,14.484,0,0,1,2.963-3.3381q.4887-.4032,1.0175-.7682a16.3224,16.3224,0,0,1,2.94-1.6218A19.0256,19.0256,0,0,1,29.44,11.13,7.8309,7.8309,0,0,1,32.33,10.7065Z"/><path class="cy" d="M32.3527,10.8021a16.9257,16.9257,0,0,1,1.8589,4.8739,17.6507,17.6507,0,0,1,.7006,5.6171,19.2932,19.2932,0,0,1-5.7549.9829,44.1376,44.1376,0,0,1-4.5682-.0265,36.2547,36.2547,0,0,1-5.6373-.6694,7.7139,7.7139,0,0,1,1.0589-2.6943c.2414-.4316.48-.8695.754-1.29a14.6278,14.6278,0,0,1,2.938-3.2892q.4831-.3988,1.005-.7613a16.7935,16.7935,0,0,1,2.8883-1.6213,19.6787,19.6787,0,0,1,1.93-.67A7.2887,7.2887,0,0,1,32.3527,10.8021Z"/><path class="cz" d="M32.3757,10.8977a16.5368,16.5368,0,0,1,1.8318,4.8236,17.4733,17.4733,0,0,1,.6811,5.5575,18.8218,18.8218,0,0,1-5.6533.976,43.8753,43.8753,0,0,1-4.4909-.02,35.4185,35.4185,0,0,1-5.5793-.649,7.3066,7.3066,0,0,1,1.0657-2.6443c.2423-.4226.4794-.8533.7531-1.2673a14.7827,14.7827,0,0,1,2.913-3.24q.4776-.3945.9926-.7543a17.3367,17.3367,0,0,1,2.8362-1.621c.6058-.27,1.2436-.4675,1.8873-.6817A6.7878,6.7878,0,0,1,32.3757,10.8977Z"/><path class="da" d="M32.3987,10.9932a16.1561,16.1561,0,0,1,1.8046,4.7734,17.2836,17.2836,0,0,1,.6616,5.4979,18.3543,18.3543,0,0,1-5.5516.9692A43.6293,43.6293,0,0,1,24.9,22.2209a34.5687,34.5687,0,0,1-5.5211-.6286A6.9234,6.9234,0,0,1,20.451,18.998c.243-.4136.4792-.8372.7521-1.2443a14.9547,14.9547,0,0,1,2.8881-3.1912q.4719-.39.98-.7475a17.9744,17.9744,0,0,1,2.784-1.6206c.593-.2728,1.2175-.4724,1.8443-.6936A6.3284,6.3284,0,0,1,32.3987,10.9932Z"/><path class="db" d="M32.4217,11.0888a15.7852,15.7852,0,0,1,1.7775,4.7231,17.1012,17.1012,0,0,1,.6421,5.4384,17.8872,17.8872,0,0,1-5.45.9622,43.3349,43.3349,0,0,1-4.3365-.0059,33.7572,33.7572,0,0,1-5.4629-.6083,6.5675,6.5675,0,0,1,1.0792-2.5442c.2438-.4047.479-.8211.7512-1.2212a15.1491,15.1491,0,0,1,2.8631-3.1423q.4664-.3861.9676-.74a18.7182,18.7182,0,0,1,2.7319-1.62c.58-.2756,1.1915-.4774,1.8013-.7054A5.9039,5.9039,0,0,1,32.4217,11.0888Z"/><path class="dc" d="M32.4447,11.1843a15.4152,15.4152,0,0,1,1.75,4.6729,16.9167,16.9167,0,0,1,.6225,5.3788,17.42,17.42,0,0,1-5.3483.9554c-1.2822.0765-2.72.0646-4.2593.0009a32.9569,32.9569,0,0,1-5.4047-.5879A6.2348,6.2348,0,0,1,20.8912,19.11c.2444-.3957.4789-.805.75-1.1981A15.3631,15.3631,0,0,1,24.48,14.8187q.4609-.3818.9552-.7336a19.5812,19.5812,0,0,1,2.68-1.62c.5674-.2785,1.1656-.4827,1.7584-.7174A5.51,5.51,0,0,1,32.4447,11.1843Z"/><path class="dd" d="M32.4677,11.28a15.0508,15.0508,0,0,1,1.7232,4.6226,16.726,16.726,0,0,1,.6031,5.3192,16.9563,16.9563,0,0,1-5.2467.9485c-1.2592.0771-2.6711.0663-4.1821.0078a32.1965,32.1965,0,0,1-5.3466-.5675,5.924,5.924,0,0,1,1.0927-2.4442c.245-.3868.4787-.7888.7494-1.175a15.5982,15.5982,0,0,1,2.8131-3.0444q.4554-.3777.9428-.7267a20.6,20.6,0,0,1,2.6276-1.62c.5545-.2812,1.14-.488,1.7153-.7293A5.1487,5.1487,0,0,1,32.4677,11.28Z"/><path class="de" d="M32.4907,11.3754a14.6944,14.6944,0,0,1,1.6961,4.5724,16.5357,16.5357,0,0,1,.5835,5.26,16.4966,16.4966,0,0,1-5.145.9416c-1.2362.0777-2.6223.068-4.1048.0146a31.4445,31.4445,0,0,1-5.2885-.5471,5.63,5.63,0,0,1,1.0995-2.3942c.2455-.3779.4784-.7727.7483-1.1519a15.866,15.866,0,0,1,2.7883-2.9955q.45-.3733.93-.72a21.8454,21.8454,0,0,1,2.5754-1.6191c.5417-.284,1.1137-.4935,1.6723-.7412A4.8151,4.8151,0,0,1,32.4907,11.3754Z"/><path class="df" d="M32.5137,11.471a14.3394,14.3394,0,0,1,1.6689,4.5221,16.3449,16.3449,0,0,1,.5641,5.2,16.0367,16.0367,0,0,1-5.0434.9347c-1.2132.0784-2.5735.07-4.0276.0215a30.6964,30.6964,0,0,1-5.23-.5268,5.3567,5.3567,0,0,1,1.1062-2.3442c.2459-.3689.4782-.7565.7474-1.1287a16.1612,16.1612,0,0,1,2.7633-2.9466q.4442-.369.9178-.7129a23.381,23.381,0,0,1,2.5233-1.6186c.5289-.2869,1.0879-.4993,1.6293-.7531A4.505,4.505,0,0,1,32.5137,11.471Z"/><path class="dg" d="M32.5367,11.5665a13.9937,13.9937,0,0,1,1.6418,4.4719,16.1549,16.1549,0,0,1,.5446,5.14,15.58,15.58,0,0,1-4.9418.9279c-1.19.0789-2.5247.0717-3.95.0283a29.9931,29.9931,0,0,1-5.1722-.5064,5.102,5.102,0,0,1,1.113-2.2942c.2463-.36.4781-.74.7465-1.1057a16.4916,16.4916,0,0,1,2.7383-2.8975q.4386-.365.9054-.706A25.257,25.257,0,0,1,28.633,13.007c.5161-.29,1.0621-.5052,1.5863-.765A4.22,4.22,0,0,1,32.5367,11.5665Z"/><path class="dh" d="M32.56,11.6621a13.6506,13.6506,0,0,1,1.6147,4.4216,15.96,15.96,0,0,1,.525,5.0809,15.123,15.123,0,0,1-4.84.921c-1.1673.08-2.4759.0737-3.8732.0352a29.2914,29.2914,0,0,1-5.114-.486,4.861,4.861,0,0,1,1.12-2.2442c.2466-.3513.4779-.7242.7456-1.0826a16.865,16.865,0,0,1,2.7133-2.8486q.4332-.3606.893-.6991a27.6838,27.6838,0,0,1,2.4189-1.6179c.5032-.2925,1.0364-.5113,1.5433-.7769A3.9552,3.9552,0,0,1,32.56,11.6621Z"/><path class="di" d="M32.5827,11.7577A13.3118,13.3118,0,0,1,34.17,16.129a15.7646,15.7646,0,0,1,.5056,5.0214,14.6737,14.6737,0,0,1-4.7386.9141c-1.1442.08-2.427.0757-3.7958.042a28.6019,28.6019,0,0,1-5.0559-.4657,4.6343,4.6343,0,0,1,1.1265-2.1941c.2467-.3425.4776-.7081.7446-1.0595a17.2794,17.2794,0,0,1,2.6884-2.8q.4275-.3563.88-.6921c.776-.5724,1.559-1.131,2.3669-1.6175.49-.2954,1.0105-.5177,1.5-.7888A3.7106,3.7106,0,0,1,32.5827,11.7577Z"/><path class="dj" d="M32.6057,11.8532a12.9828,12.9828,0,0,1,1.56,4.3211,15.5657,15.5657,0,0,1,.486,4.9618,14.22,14.22,0,0,1-4.6369.9072c-1.1212.0808-2.3782.0778-3.7186.0489a27.9359,27.9359,0,0,1-4.9977-.4453,4.4215,4.4215,0,0,1,1.1332-2.1441c.2469-.3337.4774-.692.7437-1.0364a17.7486,17.7486,0,0,1,2.6634-2.7507q.4219-.3521.868-.6853c.7635-.5673,1.5289-1.1264,2.3147-1.6171.4775-.2982.9847-.5243,1.4572-.8007A3.4859,3.4859,0,0,1,32.6057,11.8532Z"/><path class="dk" d="M32.6287,11.9488A12.6564,12.6564,0,0,1,34.162,16.22a15.3658,15.3658,0,0,1,.4665,4.9022,13.7748,13.7748,0,0,1-4.5353.9c-1.0982.0814-2.3294.08-3.6414.0557a27.3012,27.3012,0,0,1-4.94-.4249,4.2232,4.2232,0,0,1,1.14-2.0941c.2469-.325.4771-.6759.7428-1.0133a18.2843,18.2843,0,0,1,2.6384-2.7018q.4164-.3478.8556-.6783c.751-.5623,1.4987-1.1219,2.2625-1.6168.4647-.3011.959-.5311,1.4143-.8126A3.2766,3.2766,0,0,1,32.6287,11.9488Z"/><path class="dl" d="M32.6517,12.0443a12.3371,12.3371,0,0,1,1.5061,4.2206,15.1643,15.1643,0,0,1,.447,4.8427,13.3323,13.3323,0,0,1-4.4336.8934c-1.0752.0821-2.2807.0823-3.5642.0626a26.6609,26.6609,0,0,1-4.8814-.4045c.007-.6329.53-1.2537,1.1467-2.0441.2469-.3163.4769-.66.7419-.99a18.8994,18.8994,0,0,1,2.6135-2.6529q.4109-.3435.8431-.6714c.7386-.5572,1.4686-1.1174,2.21-1.6164.4519-.3039.9331-.5381,1.3713-.8245A3.0852,3.0852,0,0,1,32.6517,12.0443Z"/><path class="dm" d="M32.6747,12.14a12.018,12.018,0,0,1,1.479,4.17,14.9605,14.9605,0,0,1,.4275,4.7831,12.89,12.89,0,0,1-4.332.8866c-1.0522.0826-2.2319.0846-3.4869.0694a26.0408,26.0408,0,0,1-4.8233-.3842c-.0013-.6123.5275-1.2138,1.1534-1.994.2468-.3076.4767-.6437.741-.9672A19.6077,19.6077,0,0,1,26.4219,16.1q.4053-.3393.8306-.6645c.7262-.5522,1.4385-1.113,2.1583-1.616.439-.3069.9072-.5455,1.3282-.8364C31.41,12.5193,31.9432,12.0548,32.6747,12.14Z"/><path class="dn" d="M32.6977,12.2354a11.7085,11.7085,0,0,1,1.4519,4.12,14.7576,14.7576,0,0,1,.408,4.7235,12.4484,12.4484,0,0,1-4.23.88c-1.0293.0833-2.1832.087-3.41.0763a25.445,25.445,0,0,1-4.7652-.3638c-.0095-.5918.5253-1.1742,1.16-1.9441.2465-.2989.4763-.6275.74-.944a20.4333,20.4333,0,0,1,2.5635-2.5549q.4-.3351.8182-.6576c.7137-.5472,1.4084-1.1085,2.1061-1.6156.4262-.31.8812-.5531,1.2852-.8483C31.4807,12.6279,31.9868,12.15,32.6977,12.2354Z"/><path class="do" d="M32.7207,12.331a11.4029,11.4029,0,0,1,1.4247,4.07,14.55,14.55,0,0,1,.3885,4.664,12.017,12.017,0,0,1-4.1287.8728c-1.0063.0839-2.1344.09-3.3325.0831a24.86,24.86,0,0,1-4.707-.3434c-.0178-.5714.5228-1.1346,1.167-1.8941.2463-.29.4761-.6114.739-.9209a21.4039,21.4039,0,0,1,2.5386-2.506q.3942-.3308.8058-.6506c.7012-.5422,1.3782-1.1041,2.0539-1.6153.4134-.3127.8552-.5609,1.2422-.86C31.551,12.7362,32.03,12.2453,32.7207,12.331Z"/><path class="dp" d="M32.7437,12.4266a11.1019,11.1019,0,0,1,1.3976,4.02,14.34,14.34,0,0,1,.369,4.6044,11.5818,11.5818,0,0,1-4.0271.8659c-.9833.0846-2.0857.0921-3.2553.09a24.2883,24.2883,0,0,1-4.6488-.323c-.0261-.5509.52-1.0951,1.1737-1.8441.246-.2818.4758-.5953.7381-.8978a22.53,22.53,0,0,1,2.5137-2.457q.3885-.3266.7933-.6438c.6888-.5371,1.348-1.1,2.0017-1.6148.4006-.3157.8291-.569,1.1992-.8721C31.6213,12.8441,32.074,12.3406,32.7437,12.4266Z"/><path class="dq" d="M32.7667,12.5221a10.8055,10.8055,0,0,1,1.37,3.9693,14.1269,14.1269,0,0,1,.3494,4.5448,11.1533,11.1533,0,0,1-3.9254.8591c-.96.0851-2.037.0947-3.178.0968a23.7288,23.7288,0,0,1-4.5907-.3027c-.0344-.53.5174-1.0557,1.18-1.794.2456-.2734.4755-.5792.7372-.8747a23.88,23.88,0,0,1,2.4887-2.4081q.3831-.3224.7808-.6368c.6764-.5321,1.318-1.0954,1.95-1.6145.3877-.3186.8027-.5774,1.1561-.884C31.6913,12.9516,32.1176,12.4359,32.7667,12.5221Z"/><path class="dr" d="M32.79,12.6177a10.5148,10.5148,0,0,1,1.3433,3.919,13.9133,13.9133,0,0,1,.33,4.4853,10.7286,10.7286,0,0,1-3.8238.8521c-.9373.0858-1.9882.0976-3.1008.1037a23.1851,23.1851,0,0,1-4.5326-.2823c-.0426-.51.5145-1.0165,1.1873-1.744.245-.265.4751-.5632.7362-.8516a25.5254,25.5254,0,0,1,2.4637-2.3592q.3775-.318.7684-.63c.6639-.527,1.2878-1.091,1.8975-1.6141.3748-.3216.7763-.5859,1.1132-.8959C31.7612,13.0587,32.1612,12.5311,32.79,12.6177Z"/><path class="ds" d="M32.8127,12.7132a10.23,10.23,0,0,1,1.3162,3.8688,13.6956,13.6956,0,0,1,.31,4.4257,10.3067,10.3067,0,0,1-3.7221.8453c-.9143.0864-1.9395.1-3.0236.11a22.6534,22.6534,0,0,1-4.4744-.2618c-.0509-.4893.5113-.9774,1.194-1.694.2444-.2566.4748-.5471.7353-.8286a27.5673,27.5673,0,0,1,2.4387-2.31q.372-.3138.756-.623c.6515-.522,1.2576-1.0867,1.8453-1.6137.362-.3246.75-.5948,1.07-.9079C31.8307,13.1655,32.2048,12.6264,32.8127,12.7132Z"/><path class="dt" d="M32.8357,12.8088a9.9486,9.9486,0,0,1,1.2891,3.8185,13.4788,13.4788,0,0,1,.2909,4.3661,9.887,9.887,0,0,1-3.6206.8384c-.8912.087-1.8907.1034-2.9463.1173a22.1426,22.1426,0,0,1-4.4162-.2414c-.0593-.4688.5079-.9385,1.2007-1.644.2438-.2483.4745-.531.7344-.8055a30.13,30.13,0,0,1,2.4138-2.2612q.3663-.3094.7434-.6161c.6391-.5169,1.2274-1.0824,1.7932-1.6133.3491-.3276.723-.6039,1.0272-.92C31.9,13.2719,32.2484,12.7217,32.8357,12.8088Z"/><path class="du" d="M32.8587,12.9043a9.6721,9.6721,0,0,1,1.2619,3.7683,13.2545,13.2545,0,0,1,.2715,4.3065,9.4749,9.4749,0,0,1-3.519.8316c-.8683.0876-1.842.1064-2.869.1241a21.631,21.631,0,0,1-4.3582-.2211c-.0675-.4482.5045-.9,1.2075-1.5939.2432-.24.4742-.515.7335-.7824.7054-.7275,1.5189-1.4762,2.3888-2.2123q.3609-.3052.731-.6092c.6266-.5118,1.1972-1.0781,1.7411-1.6129.3362-.3306.6959-.6131.9841-.9316C31.9689,13.3779,32.292,12.8169,32.8587,12.9043Z"/><path class="dv" d="M32.8817,13a9.4,9.4,0,0,1,1.2348,3.718,13.0325,13.0325,0,0,1,.2519,4.247,9.0648,9.0648,0,0,1-3.4173.8246c-.8453.0883-1.7932.11-2.7918.131a21.14,21.14,0,0,1-4.3-.2007c-.0758-.4277.5007-.8612,1.2143-1.544.2423-.2319.4737-.4988.7325-.7592.7012-.7056,1.5072-1.4374,2.3638-2.1633q.3554-.301.7186-.6023a20.9827,20.9827,0,0,0,1.6889-1.6126c.3233-.3336.6687-.6225.9411-.9435C32.0374,13.4835,32.3356,12.9122,32.8817,13Z"/><path class="dw" d="M32.9047,13.0954a9.134,9.134,0,0,1,1.2077,3.6677,12.8058,12.8058,0,0,1,.2324,4.1875,8.66,8.66,0,0,1-3.3157.8177c-.8223.0889-1.7445.1128-2.7146.1379a20.6566,20.6566,0,0,1-4.2418-.18c-.0841-.4073.4968-.8229,1.221-1.494.2415-.2238.4734-.4828.7316-.7361.6969-.6838,1.4955-1.3987,2.3389-2.1144q.35-.2967.7061-.5954a17.5686,17.5686,0,0,0,1.6367-1.6121c.31-.3367.6413-.6322.8981-.9554C32.1053,13.5888,32.3792,13.0075,32.9047,13.0954Z"/><path class="dx" d="M32.9277,13.191a8.8706,8.8706,0,0,1,1.18,3.6174,12.573,12.573,0,0,1,.2129,4.1279,8.2582,8.2582,0,0,1-3.214.8109c-.7993.09-1.6958.1161-2.6374.1447a20.1893,20.1893,0,0,1-4.1837-.16c-.0923-.3868.4927-.7849,1.2278-1.444.2407-.2158.473-.4668.7306-.713.6927-.662,1.4839-1.36,2.314-2.0655q.3441-.2925.6936-.5884a14.9752,14.9752,0,0,0,1.5846-1.6118c.2975-.34.6136-.6419.8551-.9673C32.1727,13.6939,32.4228,13.1028,32.9277,13.191Z"/><path class="dy" d="M32.9507,13.2866a8.6136,8.6136,0,0,1,1.1534,3.5671,12.3434,12.3434,0,0,1,.1934,4.0684,7.8647,7.8647,0,0,1-3.1124.8039c-.7763.09-1.6471.12-2.56.1516a19.7209,19.7209,0,0,1-4.1256-.14c-.1006-.3662.4884-.747,1.2345-1.3939.24-.2078.4726-.4508.73-.69.6883-.64,1.4722-1.321,2.289-2.0164q.3385-.2883.6812-.5816a12.9653,12.9653,0,0,0,1.5325-1.6114c.2845-.3428.5855-.6517.812-.9792C32.24,13.7986,32.4664,13.198,32.9507,13.2866Z"/><path class="dz" d="M32.9737,13.3821A8.3618,8.3618,0,0,1,34.1,16.899a12.1071,12.1071,0,0,1,.1738,4.0088,7.4737,7.4737,0,0,1-3.0107.7971c-.7533.0907-1.5983.1231-2.4829.1584a19.2756,19.2756,0,0,1-4.0674-.1192c-.1089-.3457.4839-.7095,1.2412-1.3439.2388-.2.4722-.4348.7288-.6669.6839-.6184,1.46-1.2822,2.264-1.9675q.3331-.2839.6688-.5746a11.3475,11.3475,0,0,0,1.48-1.611c.2715-.346.5573-.6616.7691-.9911C32.3057,13.9031,32.51,13.2933,32.9737,13.3821Z"/><path class="ea" d="M32.9967,13.4777a8.1119,8.1119,0,0,1,1.0991,3.4666,11.8691,11.8691,0,0,1,.1544,3.9492,7.0872,7.0872,0,0,1-2.9091.79c-.73.0914-1.55.1268-2.4057.1653a18.8258,18.8258,0,0,1-4.0092-.0988c-.1173-.3252.4792-.6724,1.248-1.2939.2377-.1922.4717-.4189.7278-.6438.6795-.5967,1.4488-1.2434,2.2391-1.9186q.3274-.28.6563-.5677a10.0333,10.0333,0,0,0,1.4281-1.6106c.2586-.3491.5288-.6715.7261-1.003C32.3712,14.0075,32.5536,13.3886,32.9967,13.4777Z"/><path class="eb" d="M33.02,13.5732a7.8707,7.8707,0,0,1,1.072,3.4164,11.6309,11.6309,0,0,1,.1349,3.89,6.7117,6.7117,0,0,1-2.8075.7833c-.7074.092-1.5008.13-2.3285.1721a18.4,18.4,0,0,1-3.9511-.0784c-.1255-.3047.4745-.6356,1.2548-1.2439.2367-.1846.4713-.4029.7269-.6207.675-.5751,1.4371-1.2047,2.2141-1.87.2146-.1837.43-.3706.6438-.5608a8.9437,8.9437,0,0,0,1.376-1.61,12.0443,12.0443,0,0,0,.6831-1.0149C32.4359,14.1117,32.5972,13.4839,33.02,13.5732Z"/><path class="ec" d="M33.0427,13.6688c.412.3486.8059,1.8187,1.0449,3.3661a11.3858,11.3858,0,0,1,.1153,3.83,6.3366,6.3366,0,0,1-2.7058.7764c-.6844.0927-1.4521.1344-2.2512.179a17.9638,17.9638,0,0,1-3.893-.0581c-.1338-.2841.4694-.599,1.2615-1.1938.2356-.177.4709-.387.726-.5976.6705-.5535,1.4254-1.1659,2.1891-1.8207q.3164-.2712.6314-.5539a8.0408,8.0408,0,0,0,1.3239-1.61,11.3178,11.3178,0,0,0,.64-1.0269C32.5,14.2158,32.6408,13.5791,33.0427,13.6688Z"/><path class="ed" d="M33.0657,13.7643c.4058.3335.7886,1.7868,1.0177,3.3159a11.1363,11.1363,0,0,1,.0959,3.77,5.9717,5.9717,0,0,1-2.6042.77c-.6614.0932-1.4033.1384-2.174.1858a17.5456,17.5456,0,0,1-3.8348-.0377c-.1421-.2636.4642-.563,1.2682-1.1438.2345-.1695.47-.3711.7251-.5745.6659-.532,1.4137-1.1271,2.1642-1.7718.2071-.1779.4141-.36.6189-.5469a7.2643,7.2643,0,0,0,1.2717-1.61,10.6449,10.6449,0,0,0,.597-1.0387C32.563,14.32,32.6844,13.6744,33.0657,13.7643Z"/><path class="ee" d="M33.0887,13.86c.3995.3183.7712,1.7548.9906,3.2656a10.8884,10.8884,0,0,1,.0763,3.711,5.6118,5.6118,0,0,1-2.5026.7626c-.6383.0939-1.3544.1425-2.0967.1927a17.134,17.134,0,0,1-3.7767-.0173c-.15-.2432.459-.5273,1.2751-1.0939.2333-.162.47-.3551.7241-.5514.6614-.51,1.402-1.0882,2.1392-1.7227.2035-.1752.4063-.3551.6064-.54a6.6,6.6,0,0,0,1.22-1.6091,10.1146,10.1146,0,0,0,.554-1.0506C32.6254,14.4242,32.7281,13.77,33.0887,13.86Z"/><path class="ef" d="M33.1117,13.9554c.3932.3031.7539,1.7229.9634,3.2154a10.6356,10.6356,0,0,1,.0569,3.6514,5.2607,5.2607,0,0,1-2.401.7558c-.6153.0945-1.3056.1467-2.02.2a16.7277,16.7277,0,0,1-3.7185.0031c-.1586-.2227.4535-.4922,1.2818-1.0439.2322-.1547.4694-.3393.7232-.5283.6568-.4891,1.39-1.0494,2.1142-1.6738.2-.1723.3985-.35.594-.5331a6.0321,6.0321,0,0,0,1.1674-1.6088,9.6674,9.6674,0,0,0,.511-1.0625C32.6871,14.5286,32.7717,13.8649,33.1117,13.9554Z"/><path class="eg" d="M33.1347,14.051c.387.2879.7366,1.691.9363,3.1651a10.3759,10.3759,0,0,1,.0373,3.5918,4.9136,4.9136,0,0,1-2.2993.7489c-.5923.0951-1.2568.151-1.9422.2064a16.31,16.31,0,0,1-3.66.0234c-.1669-.2021.4478-.4573,1.2885-.9938.2311-.1475.4689-.3235.7223-.5052.6521-.4677,1.3786-1.0106,2.0892-1.6249.1961-.1694.3907-.3447.5816-.5262a5.537,5.537,0,0,0,1.1152-1.6083,9.3155,9.3155,0,0,0,.468-1.0744C32.7479,14.6332,32.8153,13.96,33.1347,14.051Z"/><path class="eh" d="M33.1577,14.1466c.3807.2727.7192,1.659.9092,3.1148a10.1221,10.1221,0,0,1,.0178,3.5323,4.58,4.58,0,0,1-2.1977.742c-.5693.0957-1.208.1554-1.865.2132a15.9011,15.9011,0,0,1-3.6022.0438c-.1753-.1816.442-.4231,1.2952-.9438.23-.14.4684-.3077.7213-.4821a23.6556,23.6556,0,0,0,2.0644-1.5759c.1923-.1667.3828-.34.5691-.5193a5.1094,5.1094,0,0,0,1.0631-1.608,9.0564,9.0564,0,0,0,.425-1.0863C32.8081,14.738,32.8589,14.0555,33.1577,14.1466Z"/><path class="ei" d="M33.1807,14.2421c.3744.2576.7019,1.6271.882,3.0646a9.8579,9.8579,0,0,1-.0016,3.4727,4.2506,4.2506,0,0,1-2.0961.7351c-.5464.0964-1.1591.16-1.7878.22a15.4971,15.4971,0,0,1-3.5441.0642c-.1835-.1611.4363-.3894,1.302-.8938.2289-.1333.4679-.2919.72-.459a19.6118,19.6118,0,0,0,2.0394-1.527c.1887-.1638.3749-.3345.5566-.5124a4.7293,4.7293,0,0,0,1.011-1.6076,8.863,8.863,0,0,0,.382-1.0982C32.8676,14.8432,32.9025,14.1508,33.1807,14.2421Z"/><path class="ej" d="M33.2037,14.3377c.3682.2423.6845,1.5951.8549,3.0143a9.5921,9.5921,0,0,1-.0212,3.4131,3.9317,3.9317,0,0,1-1.9944.7283c-.5234.0969-1.11.1647-1.7106.2269a15.0853,15.0853,0,0,1-3.4859.0846c-.1918-.1406.43-.3563,1.3088-.8438.2278-.1264.4672-.2762.7194-.4359a16.5867,16.5867,0,0,0,2.0144-1.4781c.185-.1609.3671-.3293.5442-.5055a4.3969,4.3969,0,0,0,.9588-1.6071,8.7,8.7,0,0,0,.339-1.11C32.9265,14.9488,32.9461,14.246,33.2037,14.3377Z"/><path class="ek" d="M33.2267,14.4332c.3619.2272.6672,1.5632.8278,2.9641a9.3265,9.3265,0,0,1-.0407,3.3535,3.6216,3.6216,0,0,1-1.8928.7214c-.5.0976-1.0612.17-1.6333.2338a14.6619,14.6619,0,0,1-3.4278.1049c-.2-.12.4243-.3236,1.3155-.7937.2267-.12.4667-.2605.7185-.4129a14.224,14.224,0,0,0,1.9894-1.429c.1813-.1582.3593-.3242.5318-.4986a4.1036,4.1036,0,0,0,.9066-1.6068,8.6166,8.6166,0,0,0,.296-1.122C32.9848,15.0548,32.99,14.3413,33.2267,14.4332Z"/><path class="el" d="M33.25,14.5288c.3556.212.65,1.5312.8006,2.9138a9.0542,9.0542,0,0,1-.06,3.294,3.3234,3.3234,0,0,1-1.7911.7145c-.4774.0982-1.0122.1745-1.5561.2406a14.2313,14.2313,0,0,1-3.37.1253c-.2083-.0995.4184-.2916,1.3223-.7437.2257-.1129.4662-.2449.7176-.39a12.3474,12.3474,0,0,0,1.9645-1.38c.1775-.1553.3514-.319.5192-.4917a3.8451,3.8451,0,0,0,.8546-1.6064,8.6225,8.6225,0,0,0,.2529-1.1339C33.0426,15.1613,33.0333,14.4366,33.25,14.5288Z"/><path class="em" d="M33.2727,14.6243c.3494.1969.6325,1.4993.7735,2.8636a8.7835,8.7835,0,0,1-.08,3.2344,3.0339,3.0339,0,0,1-1.69.7076c-.4544.0988-.9631.18-1.4789.2474a13.784,13.784,0,0,1-3.3115.1458c-.2166-.0791.4124-.26,1.329-.6938.2248-.1062.4654-.23.7167-.3666a10.9076,10.9076,0,0,0,1.94-1.3312c.1738-.1524.3436-.3138.5068-.4847a3.6257,3.6257,0,0,0,.8024-1.606,8.7575,8.7575,0,0,0,.21-1.1459C33.1,15.2682,33.0769,14.5318,33.2727,14.6243Z"/><path class="en" d="M27.7,21.8292a13.3205,13.3205,0,0,0,3.2533-.1662c1.4064-.2,2.7689-.5323,2.9895-.955a8.5074,8.5074,0,0,0,.0993-3.1748c-.1312-1.346-.4033-2.6316-.7464-2.8133-.1752-.0928-.1384.6558-.2182,1.5986a4.7121,4.7121,0,0,1-.9171,2.7633,9.6726,9.6726,0,0,1-3.1246,2.1036C28.1063,21.6,27.4751,21.7706,27.7,21.8292Z"/><path class="eo" d="M16.6206,8.94c.9425-.0974,1.928-.171,2.954-.2088a29.9023,29.9023,0,0,0-3.7755,12.361,35.5925,35.5925,0,0,1-3.5765-.9276,19.6132,19.6132,0,0,1,1.5406-6.04A35.1266,35.1266,0,0,1,16.6206,8.94Z"/><path class="ep" d="M32.0289,21.6732q-1.1253.1548-2.3308.2552A32.583,32.583,0,0,0,27.6414,9.0559c.5513.0648,1.0937.1378,1.6239.22A26.4869,26.4869,0,0,1,32.0289,21.6732Z"/><path class="eq" d="M34.6007,21.22q-.73.1608-1.5129.29A24.9976,24.9976,0,0,0,30.0989,9.4118c.4008.0679.7927.1421,1.18.22a26.3749,26.3749,0,0,1,2.5192,6.0037A22.1128,22.1128,0,0,1,34.6007,21.22Z"/><path class="er" d="M32.7891,10.2593c-.9115-.9669-11.1276-2.5235-17.5312-1.1657.0587-.098.12-.1958.1784-.2938a.4852.4852,0,0,0,.0349-.06l.0024,0q.6717-.0972,1.3643-.1666c.0567-.0072.116-.0142.17-.019.6221-.0592,1.2557-.1055,1.8959-.1342.0593-.0046.1134-.007.1725-.0091l.0223-.0039c.5736-.0221,1.1542-.0389,1.7392-.0408.0591-.0021.1156-.0019.1745-.0016.4915-.0014.9852.0022,1.481.0157.0589,0,.1153.003.1717.0057.4125.0072.8246.0217,1.239.0412l.1691.008c.4462.021.89.0493,1.3328.0825.0564.0027.1127.0078.1691.01.4872.0377.9717.08,1.4509.1323.0564.0027.1149.01.1736.018.6187.0636,1.2317.1416,1.837.2291.0537.0075.1123.0152.1659.0251.5833.084,1.1586.1824,1.7212.2875.0584.0126.1119.0225.17.0327.4554.0878.903.185,1.3453.287.07.1385.1393.2793.2038.42.0428.0831.0829.1709.1254.259A.3226.3226,0,0,0,32.7891,10.2593Z"/></g></svg>