<svg xmlns="http://www.w3.org/2000/svg" viewBox="0 0 269 441.8"><defs><style>.a{fill:#f9c12e;}.b{fill:#f8a725;}.c{fill:#f27e21;}.d{fill:#019a8a;}.e{fill:#22a59a;}.f{fill:#20b99e;}.g{fill:#ffeeb3;}.h{fill:#89cfc2;}.i{fill:#64c3a6;}.j{fill:#007a6a;}</style></defs><path class="a" d="M101.6,378.2a15.9727,15.9727,0,0,0-25.7,18.2l14.4,30.2,14.4-30.2A16.0139,16.0139,0,0,0,101.6,378.2Z"/><path class="b" d="M80.1,389.6a11.2972,11.2972,0,0,1,2.2-12.8,11.1061,11.1061,0,0,1,15.8,0,11.2971,11.2971,0,0,1,2.2,12.8L90.2,410.8Z"/><path class="c" d="M84.9,382.3a5.7715,5.7715,0,0,1,1.2-6.7,6.0384,6.0384,0,0,1,8.4,0,5.9931,5.9931,0,0,1,1.2,6.7l-5.3,11.2Z"/><path class="a" d="M190,378.2a15.9727,15.9727,0,0,0-25.7,18.2l14.4,30.2,14.4-30.2A15.851,15.851,0,0,0,190,378.2Z"/><path class="b" d="M168.6,389.6a11.2972,11.2972,0,0,1,2.2-12.8,11.1061,11.1061,0,0,1,15.8,0,11.2971,11.2971,0,0,1,2.2,12.8l-10.1,21.2Z"/><path class="c" d="M173.4,382.3a5.7715,5.7715,0,0,1,1.2-6.7,6.0384,6.0384,0,0,1,8.4,0,5.9931,5.9931,0,0,1,1.2,6.7l-5.3,11.2Z"/><path class="d" d="M83.5,375.1H97a4.7892,4.7892,0,0,0,4.8-4.3l1.3-11.2H77.4l1.3,11.2A4.7892,4.7892,0,0,0,83.5,375.1Z"/><polygon class="e" points="71.2 304.4 77.4 359.6 103.1 359.6 109.3 304.4 71.2 304.4"/><path class="d" d="M185.5,375.1H172a4.7892,4.7892,0,0,1-4.8-4.3l-1.3-11.2h25.7l-1.3,11.2A4.7892,4.7892,0,0,1,185.5,375.1Z"/><polygon class="e" points="197.8 304.4 191.6 359.6 165.9 359.6 159.7 304.4 197.8 304.4"/><path class="e" d="M54.5,209.1,36.1,228.2A128.7145,128.7145,0,0,0,0,317.7v66.2l6.3-14.1a129.5343,129.5343,0,0,1,68.8-67h0Z"/><path class="d" d="M11.7,317.6a117.0161,117.0161,0,0,1,32.9-81.5l3.4-3.5,13.9,63.3a139.852,139.852,0,0,0-50.1,41.7v-20Z"/><path class="e" d="M214.5,209.1l18.4,19.1A128.7145,128.7145,0,0,1,269,317.7v66.2l-6.3-14.1a129.5343,129.5343,0,0,0-68.8-67h0Z"/><path class="d" d="M257.3,317.6a117.0161,117.0161,0,0,0-32.9-81.5l-3.4-3.5-13.9,63.3a139.852,139.852,0,0,1,50.1,41.7v-20Z"/><path class="f" d="M221.2,210.3c0,116.1-38.8,128.5-86.7,128.5S47.8,326.5,47.8,210.3,86.6,0,134.5,0,221.2,94.1,221.2,210.3Z"/><path class="e" d="M193.9,210.3c0,116.1-26.6,128.5-59.4,128.5S75.1,326.5,75.1,210.3,101.7,0,134.5,0,193.9,94.1,193.9,210.3Z"/><path class="d" d="M184.6,261.5c0,69.8-22.4,77.2-50.1,77.2s-50.1-7.4-50.1-77.2,22.4-126.4,50.1-126.4S184.6,191.6,184.6,261.5Z"/><polygon class="g" points="93.4 205.8 93.4 218.1 102.8 214.9 102.8 201.1 93.4 205.8"/><polygon class="g" points="175.6 205.8 166.2 201.1 166.2 214.9 175.6 218.1 175.6 205.8"/><path class="g" d="M120.5,193.6v15.5a57.0869,57.0869,0,0,1,12.3-1.8V191.8A52.24,52.24,0,0,0,120.5,193.6Z"/><path class="g" d="M136.1,191.8v15.5a51.4956,51.4956,0,0,1,12.3,1.8V193.6A50.7687,50.7687,0,0,0,136.1,191.8Z"/><path class="g" d="M159.4,197.7a51.6066,51.6066,0,0,0-7.7-3.1v15.5c.2.1.4.1.6.2l10.5,3.6V199.5Z"/><path class="g" d="M109.6,197.7l-3.4,1.7v14.4l10.5-3.6c.2-.1.4-.1.6-.2V194.5A52.0376,52.0376,0,0,0,109.6,197.7Z"/><polygon class="h" points="134.5 240.9 134.5 441.8 114.8 267.9 134.5 240.9"/><polygon class="i" points="134.5 240.9 134.5 441.8 154.2 267.9 134.5 240.9"/><path class="j" d="M126.7,27.5v92.1c-9,1.2-17.6,8.9-20.6,15.5Z"/><path class="j" d="M142.3,27.5v92.1c9,1.2,17.6,8.9,20.6,15.5Z"/></svg>