<svg xmlns="http://www.w3.org/2000/svg" viewBox="0 0 226.1857 436.5"><defs><style>.a{fill:#c52128;}.b{fill:#e84d40;}.c{fill:#fdd836;}.d{fill:#d33f37;}.e{fill:#f9c12e;}.f{fill:#87d2f3;}.g{fill:#5ac2ef;}.h{fill:#30a6de;}</style></defs><circle class="a" cx="113.0928" cy="15.2" r="15.2"/><path class="b" d="M113.0928,21.9c-13.4,0-17.5-11.9-18.7-17.9a1.14,1.14,0,0,0-2.1-.3L1.9929,165a15.7905,15.7905,0,0,0,5,20.8l1.7,1.1a263.6449,263.6449,0,0,1,85.5,93.5h18.8V21.9Z"/><path class="c" d="M113.0928,59.5c-28.2,14.5-45,61.5-45,61.5,16.8-23.8,34.1-39.2,45-43.8Z"/><path class="a" d="M83.6928,182.4c0,43.5,13.2,78.7,29.4,78.7V239.7C96.7929,239.8,83.6928,214.1,83.6928,182.4Z"/><path class="a" d="M83.6928,182.4c0-31.7,13.2-57.3,29.4-57.3V103.7C96.7929,103.7,83.6928,139,83.6928,182.4Z"/><path class="a" d="M51.1928,109.1c-6.5,26.3,12.6,43.5,19.5,47.3C42.4929,159,40.5928,124.5,51.1928,109.1Z"/><path class="a" d="M41.0928,127.8c-6.5,26.3,12.6,43.5,19.5,47.3C32.2929,177.8,30.3929,143.2,41.0928,127.8Z"/><path class="a" d="M30.8929,146.6c-6.5,26.3,12.6,43.5,19.5,47.3C22.1928,196.5,20.2929,161.9,30.8929,146.6Z"/><path class="d" d="M113.0928,299.5h-33v-9.1c3.9-3.9,6.1-6.1,10-10h23Z"/><rect class="e" x="79.9929" y="299.5" width="33" height="7"/><polygon class="b" points="113.093 321.4 62.593 321.4 79.993 306.6 113.093 306.6 113.093 321.4"/><rect class="d" x="62.5928" y="321.4" width="50.5" height="15.5"/><path class="b" d="M113.0928,21.9c13.4,0,17.5-11.9,18.7-17.9a1.14,1.14,0,0,1,2.1-.3l90.3,161.3a15.7905,15.7905,0,0,1-5,20.8l-1.7,1.1a263.6449,263.6449,0,0,0-85.5,93.5h-18.8V21.9Z"/><path class="c" d="M113.0928,59.5c28.2,14.5,45,61.5,45,61.5-16.8-23.8-34.1-39.2-45-43.8Z"/><path class="a" d="M142.4929,182.4c0,43.5-13.2,78.7-29.4,78.7V239.7C129.2929,239.8,142.4929,214.1,142.4929,182.4Z"/><path class="a" d="M142.4929,182.4c0-31.7-13.2-57.3-29.4-57.3V103.7C129.2929,103.7,142.4929,139,142.4929,182.4Z"/><ellipse class="d" cx="113.0928" cy="182.4" rx="29.4" ry="57.3"/><path class="b" d="M113.0928,227c-5.7,0-16.7-17.4-16.7-44.6s10.9-44.6,16.7-44.6c5.7,0,16.7,17.4,16.7,44.6S118.7929,227,113.0928,227Z"/><path class="a" d="M174.8929,109.1c6.5,26.3-12.6,43.5-19.5,47.3C183.5928,159,185.4929,124.5,174.8929,109.1Z"/><path class="a" d="M185.0928,127.8c6.5,26.3-12.6,43.5-19.5,47.3C193.7929,177.8,195.6928,143.2,185.0928,127.8Z"/><path class="a" d="M195.1928,146.6c6.5,26.3-12.6,43.5-19.5,47.3C203.9929,196.5,205.8929,161.9,195.1928,146.6Z"/><path class="d" d="M113.0928,299.5h33v-9.1l-10-10h-23Z"/><rect class="e" x="113.0928" y="299.5" width="33" height="7"/><polygon class="b" points="113.093 321.4 163.493 321.4 146.093 306.6 113.093 306.6 113.093 321.4"/><rect class="d" x="113.0928" y="321.4" width="50.5" height="15.5"/><polygon class="f" points="62.593 336.8 113.093 436.5 163.493 336.8 62.593 336.8"/><polygon class="g" points="79.293 336.8 113.093 403.5 146.793 336.8 79.293 336.8"/><polygon class="h" points="94.693 336.8 113.093 373.2 131.493 336.8 94.693 336.8"/></svg>