<svg xmlns="http://www.w3.org/2000/svg" viewBox="0 0 404.9 395.9029"><defs><style>.a{fill:#f68c20;}.b{fill:#d24f27;}.c{fill:#fdd836;}.d{fill:#fbb217;}.e{fill:#90a4ae;}.f{fill:#cfdae0;}.g{fill:#afbec4;}.h{fill:#ffcb2b;}.i{fill:#f99f1e;}.j{fill:#f26f23;}.k{fill:#87d2f3;}.l{fill:#5ac2ef;}.m{fill:#30a6de;}</style></defs><polygon class="a" points="16.6 292.903 0 343.903 0 372.603 16.6 343.903 16.6 292.903"/><polygon class="a" points="388.3 292.903 404.9 343.903 404.9 372.603 388.3 343.903 388.3 292.903"/><path class="a" d="M188.1,8.7029l-29.9,59.2-11.2,126,45.6,113h9.9v-283.6l-12.9-16.8A14.3186,14.3186,0,0,0,188.1,8.7029Z"/><path class="b" d="M189.5,6.5029l12.9,16.8V.0029A15.6925,15.6925,0,0,0,189.5,6.5029Z"/><polygon class="c" points="202.4 43.603 181.6 59.603 194 93.303 202.4 93.303 202.4 43.603"/><polygon class="c" points="177.6 63.903 189.1 94.203 177.6 105.203 177.6 63.903"/><polygon class="d" points="202.4 105.203 193.6 105.203 168.1 131.903 154.9 213.203 192.6 306.903 202.4 306.903 202.4 105.203"/><path class="e" d="M57.7,209.0029a8.5475,8.5475,0,0,0-8,5.7h16A8.4132,8.4132,0,0,0,57.7,209.0029Z"/><path class="f" d="M49.7,214.6029a8.676,8.676,0,0,0-.5,2.8v10.7H66.1v-10.7a8.6755,8.6755,0,0,0-.5-2.8Z"/><rect class="e" x="49.3" y="290.6029" width="16.9" height="28"/><rect class="g" x="49.3" y="228.1029" width="16.9" height="19"/><rect class="f" x="49.3" y="247.1029" width="16.9" height="43.5"/><path class="e" d="M96,173.3029a8.5475,8.5475,0,0,0-8,5.7h16A8.6477,8.6477,0,0,0,96,173.3029Z"/><path class="f" d="M88,179.0029a8.6755,8.6755,0,0,0-.5,2.8v10.7h16.9v-10.7a8.6755,8.6755,0,0,0-.5-2.8Z"/><rect class="e" x="87.5" y="255.0029" width="16.9" height="28"/><rect class="g" x="87.5" y="192.5029" width="16.9" height="19"/><rect class="f" x="87.5" y="211.5029" width="16.9" height="43.5"/><polygon class="c" points="147 193.903 16.6 292.903 16.6 343.903 192.6 306.903 147 193.903"/><polygon class="h" points="24.6 296.903 24.6 334.103 51.1 328.503 73.9 259.503 24.6 296.903"/><polygon class="d" points="73.9 259.503 51.1 328.503 87 321.003 140.8 208.703 73.9 259.503"/><polygon class="i" points="143.5 206.603 140.8 208.703 87 321.003 181.6 301.103 143.5 206.603"/><polygon class="a" points="174.7 263.803 158.1 314.803 158.1 343.503 174.7 314.803 174.7 263.803"/><polygon class="b" points="202.4 334.103 186.1 334.103 179.9 318.603 202.4 318.603 202.4 334.103"/><path class="a" d="M216.7,8.7029l29.9,59.2,11.2,126-45.6,113h-9.9v-283.6l12.9-16.8A9.56,9.56,0,0,1,216.7,8.7029Z"/><path class="b" d="M215.4,6.5029l-12.9,16.8V.0029A15.6925,15.6925,0,0,1,215.4,6.5029Z"/><polygon class="c" points="202.4 43.603 223.3 59.603 210.9 93.303 202.4 93.303 202.4 43.603"/><polygon class="c" points="227.3 63.903 215.8 94.203 227.3 105.203 227.3 63.903"/><polygon class="d" points="202.4 105.203 211.3 105.203 236.8 131.903 250 213.203 212.3 306.903 202.4 306.903 202.4 105.203"/><path class="e" d="M347.2,209.0029a8.5475,8.5475,0,0,1,8,5.7h-16A8.4132,8.4132,0,0,1,347.2,209.0029Z"/><path class="f" d="M355.2,214.6029a8.676,8.676,0,0,1,.5,2.8v10.7h-17v-10.7a8.6755,8.6755,0,0,1,.5-2.8Z"/><rect class="e" x="338.7" y="290.6029" width="16.9" height="28"/><rect class="g" x="338.7" y="228.1029" width="16.9" height="19"/><rect class="f" x="338.7" y="247.1029" width="16.9" height="43.5"/><path class="e" d="M308.9,173.3029a8.5475,8.5475,0,0,1,8,5.7h-16A8.5475,8.5475,0,0,1,308.9,173.3029Z"/><path class="f" d="M316.9,179.0029a8.6755,8.6755,0,0,1,.5,2.8v10.7H300.5v-10.7a8.6755,8.6755,0,0,1,.5-2.8Z"/><rect class="e" x="300.5" y="255.0029" width="16.9" height="28"/><rect class="g" x="300.5" y="192.5029" width="16.9" height="19"/><rect class="f" x="300.5" y="211.5029" width="16.9" height="43.5"/><polygon class="c" points="257.9 193.903 388.3 292.903 388.3 343.903 212.3 306.903 257.9 193.903"/><polygon class="h" points="380.3 296.903 380.3 334.103 353.7 328.503 331 259.503 380.3 296.903"/><polygon class="d" points="331 259.503 353.7 328.503 317.9 321.003 264.1 208.703 331 259.503"/><polygon class="i" points="261.4 206.603 264.1 208.703 317.9 321.003 223.3 301.103 261.4 206.603"/><path class="j" d="M202.4,140.9029a27.6978,27.6978,0,0,0-27.7,27.7v149.9h55.4v-149.8A27.6555,27.6555,0,0,0,202.4,140.9029Z"/><path class="a" d="M202.4,199.5029a14.9373,14.9373,0,0,0-14.9,14.9v80.5h29.8v-80.5A14.81,14.81,0,0,0,202.4,199.5029Z"/><polygon class="a" points="230.2 263.803 246.8 314.803 246.8 343.503 230.2 314.803 230.2 263.803"/><polygon class="b" points="202.4 334.103 218.8 334.103 225 318.603 202.4 318.603 202.4 334.103"/><polygon class="k" points="187.6 334.103 202.4 395.903 217.3 334.103 187.6 334.103"/><polygon class="l" points="192.5 334.103 202.4 375.403 212.4 334.103 192.5 334.103"/><polygon class="m" points="197 334.103 202.4 356.603 207.9 334.103 197 334.103"/></svg>