<svg xmlns="http://www.w3.org/2000/svg" viewBox="0 0 341.4 438.1"><defs><style>.a{fill:#1b87c8;}.b{fill:#30a6de;}.c{fill:#5ac2ef;}.d{fill:#5dc2ee;}.e{fill:#fdd836;}.f{fill:#84d3f5;}.g{fill:#2898d4;}.h{fill:#f9c12e;}.i{fill:#f8a725;}.j{fill:#f27e21;}</style></defs><path class="a" d="M341.4,340H329.6V274.6h0a11.8218,11.8218,0,0,1,11.8,11.8Z"/><path class="b" d="M335.5,395.6h0a3.3293,3.3293,0,0,0,3.3-3.3V340h-6.7v52.3A3.3514,3.3514,0,0,0,335.5,395.6Z"/><path class="a" d="M311.4,125.7H299.6V66.2a5.8477,5.8477,0,0,1,5.9-5.9h0a5.8477,5.8477,0,0,1,5.9,5.9v59.5Z"/><path class="b" d="M305.5,181.4h0a3.3293,3.3293,0,0,0,3.3-3.3V125.8h-6.7v52.3A3.3514,3.3514,0,0,0,305.5,181.4Z"/><polygon class="b" points="227.1 179.6 266.9 209.9 227.1 274.6 227.1 179.6"/><polygon class="c" points="170.7 82.6 153.9 82.6 114.3 179.6 114.3 274.6 144.8 302.5 155.9 343.4 170.7 343.4 170.7 82.6"/><polygon class="b" points="155.9 343.4 158.3 352.2 170.7 352.2 170.7 343.4 155.9 343.4"/><polygon class="b" points="114.3 179.6 74.5 209.9 114.3 274.6 114.3 179.6"/><polygon class="d" points="74.5 209.9 11.9 274.6 11.9 318.3 114.3 274.6 74.5 209.9"/><polygon class="e" points="144.8 302.5 114.3 274.6 11.9 318.3 11.9 326.6 144.8 302.5"/><path class="a" d="M0,340H11.8V274.6h0A11.8218,11.8218,0,0,0,0,286.4Z"/><path class="b" d="M5.9,395.7h0a3.3293,3.3293,0,0,1-3.3-3.3V340.1H9.3v52.3A3.3514,3.3514,0,0,1,5.9,395.7Z"/><path class="a" d="M30,127.1H41.8V67.6a5.8476,5.8476,0,0,0-5.9-5.9h0A5.8477,5.8477,0,0,0,30,67.6v59.5Z"/><path class="b" d="M35.9,182.8h0a3.3293,3.3293,0,0,1-3.3-3.3V127.2h6.7v52.3A3.3514,3.3514,0,0,1,35.9,182.8Z"/><polygon class="e" points="41.9 118.7 114.3 179.6 125.2 152.9 41.9 111.5 41.9 118.7"/><polygon class="b" points="41.9 69.4 41.9 111.5 125.2 152.9 144.8 105 41.9 69.4"/><polygon class="e" points="170.7 109.4 156.8 123.3 164.9 171.4 170.7 171.4 170.7 109.4"/><polygon class="e" points="151.9 127.1 161.7 172.2 153.9 179.6 142.5 150.7 151.9 127.1"/><polygon class="e" points="139.2 156.4 151.5 182.8 139.2 198.4 139.2 156.4"/><polygon class="f" points="170.7 85.9 156.2 85.9 144.8 113.4 155.5 120.9 170.7 106 170.7 85.9"/><polygon class="b" points="170.7 193 145.3 217.4 145.3 280.5 159.7 294.9 170.7 294.9 170.7 193"/><polygon class="g" points="170.7 217.2 155.6 231.7 155.6 269.3 164.1 277.9 170.7 277.9 170.7 217.2"/><rect class="f" x="159.7" y="294.9" width="11" height="31.7"/><polygon class="b" points="159.7 294.9 112.8 330 112.8 340.8 159.7 326.6 159.7 294.9"/><path class="a" d="M170.7,0h0a6.6691,6.6691,0,0,0-6.6,5.7h0c-1,6.7-1.9,13.4-2.6,20.1h9.2V0Z"/><path class="a" d="M159.2,70.2V82.6h11.5V44.3H160C159.5,52.9,159.2,61.6,159.2,70.2Z"/><path class="b" d="M161.5,25.8c-.6,6.2-1.2,12.3-1.5,18.5h10.7V25.8Z"/><polygon class="c" points="170.7 82.6 187.5 82.6 227.1 179.6 227.1 274.6 196.6 302.5 185.5 343.4 170.7 343.4 170.7 82.6"/><polygon class="b" points="185.5 343.4 183.1 352.2 170.7 352.2 170.7 343.4 185.5 343.4"/><polygon class="d" points="266.9 209.9 329.5 274.6 329.5 318.3 227.1 274.6 266.9 209.9"/><polygon class="e" points="196.6 302.5 227.1 274.6 329.5 318.3 329.5 326.6 196.6 302.5"/><polygon class="e" points="299.5 118.7 227.1 179.6 216.2 152.9 299.5 111.5 299.5 118.7"/><polygon class="b" points="299.5 69.4 299.5 111.5 216.2 152.9 196.6 105 299.5 69.4"/><polygon class="e" points="170.7 109.4 184.6 123.3 176.4 171.4 170.7 171.4 170.7 109.4"/><polygon class="e" points="189.5 127.1 179.7 172.2 187.5 179.6 198.9 150.7 189.5 127.1"/><polygon class="e" points="202.2 156.4 189.9 182.8 202.2 198.4 202.2 156.4"/><polygon class="f" points="170.7 85.9 185.2 85.9 196.6 113.4 185.9 120.9 170.7 106 170.7 85.9"/><polygon class="b" points="170.7 193 196.1 217.4 196.1 280.5 181.7 294.9 170.7 294.9 170.7 193"/><polygon class="g" points="170.7 217.2 185.8 231.7 185.8 269.3 177.3 277.9 170.7 277.9 170.7 217.2"/><rect class="f" x="170.7" y="294.9" width="11" height="31.7"/><polygon class="b" points="181.7 294.9 228.6 330 228.6 340.8 181.7 326.6 181.7 294.9"/><path class="a" d="M170.7,0h0a6.6691,6.6691,0,0,1,6.6,5.7h0c1,6.7,1.9,13.4,2.6,20.1h-9.2V0Z"/><path class="a" d="M182.2,70.2V82.6H170.7V44.3h10.7C181.9,52.9,182.2,61.6,182.2,70.2Z"/><path class="b" d="M179.9,25.8c.6,6.2,1.2,12.3,1.5,18.5H170.7V25.8Z"/><path class="h" d="M187.6,360.7a25.59,25.59,0,0,0-41.2,29.1l23.1,48.3,23.1-48.3A25.4927,25.4927,0,0,0,187.6,360.7Z"/><path class="i" d="M153.3,378.9a17.9458,17.9458,0,1,1,32.4,0l-16.2,33.9Z"/><path class="j" d="M161,367.2a9.6288,9.6288,0,0,1,1.8-10.8A9.4517,9.4517,0,0,1,178,367.2l-8.5,17.9Z"/></svg>