<svg xmlns="http://www.w3.org/2000/svg" viewBox="0 0 110.25 123.3"><defs><style>.a{fill:#70afdf;}.b{fill:#304d78;}.c{fill:#e7af48;}.d{fill:#f3d634;}.e{fill:#fcf692;}.f{fill:#92cef6;}.g{fill:#3c608d;}.h{fill:#dfdfdf;}.i{fill:#f9f9f9;}.j{fill:#8fc8eb;}.k{fill:#d1f3f7;}.l{fill:#fcfdfd;}</style></defs><path class="a" d="M61.65,77.48l48.6,13.16s-.34-21.63-5.18-29.29-44.52-25-44.52-25Z"/><path class="a" d="M48.61,77.48,0,90.64S.34,69,5.18,61.35s44.52-25,44.52-25Z"/><path class="b" d="M50.15,91.08l5,.33,5-.33,2.34,7.16a29.51,29.51,0,0,1-7.31,1.31,29.51,29.51,0,0,1-7.31-1.31Z"/><path class="c" d="M60.16,105.78c0,2.78-5,12.45-5,12.45s-5-9.67-5-12.45a5,5,0,1,1,10.07,0Z"/><path class="d" d="M58.43,104.37c0,1.82-3.3,8.16-3.3,8.16s-3.3-6.34-3.3-8.16a3.3,3.3,0,1,1,6.6,0Z"/><path class="e" d="M56.52,103.2a15.63,15.63,0,0,1-1.39,3.44,15.63,15.63,0,0,1-1.39-3.44,1.39,1.39,0,1,1,2.78,0Z"/><path class="f" d="M106.57,89.64l3.68,1s-.34-21.63-5.18-29.29a14.11,14.11,0,0,0-3.21-3.19C103,68.72,105.2,79.13,106.57,89.64Z"/><path class="f" d="M74.47,65.87c1.55-6.65,3.34-13.73,6.78-19.76C78.09,44.52,75,43,72.17,41.68c-.23,10.1.4,20-1.39,30-.47,2.62-.87,5.26-1.3,7.89l3.08.83A82.82,82.82,0,0,1,74.47,65.87Z"/><path class="f" d="M106.57,89.64l3.68,1s-.34-21.63-5.18-29.29a14.11,14.11,0,0,0-3.21-3.19C103,68.72,105.2,79.13,106.57,89.64Z"/><path class="f" d="M74.47,65.87c1.55-6.65,3.34-13.73,6.78-19.76C78.09,44.52,75,43,72.17,41.68c-.23,10.1.4,20-1.39,30-.47,2.62-.87,5.26-1.3,7.89l3.08.83A82.82,82.82,0,0,1,74.47,65.87Z"/><path class="f" d="M35.78,65.87C34.23,59.22,32.44,52.14,29,46.11c3.16-1.59,6.27-3.09,9.09-4.43.22,10.1-.41,20,1.39,30,.46,2.62.87,5.26,1.3,7.89l-3.09.83A82.82,82.82,0,0,0,35.78,65.87Z"/><path class="b" d="M84.06,90.82l6,.4,5.95-.4,2.79,8.57A35.35,35.35,0,0,1,90,101a35.46,35.46,0,0,1-8.74-1.56Z"/><path class="c" d="M96,108.4c0,3.33-6,14.9-6,14.9s-6-11.57-6-14.9a6,6,0,0,1,12.05,0Z"/><path class="d" d="M94,106.72c0,2.18-3.95,9.76-3.95,9.76s-3.94-7.58-3.94-9.76a3.95,3.95,0,1,1,7.89,0Z"/><path class="e" d="M91.68,105.32c0,.92-1.67,4.11-1.67,4.11s-1.66-3.19-1.66-4.11a1.67,1.67,0,0,1,3.33,0Z"/><path class="g" d="M90,93.39c1.18,0,6.22,3.36,6.22,3.36L97.14,99A35,35,0,0,1,90,100a34.86,34.86,0,0,1-7.12-1l1.23-3S89,93.39,90,93.39Z"/><path class="h" d="M101.1,100.78c-1.2-5-9.14-8.84-11.09-8.84s-9.88,3.83-11.08,8.84c0,0-4.34-17.14-.52-39.56C82.1,39.51,90,25.93,90,25.93s7.91,13.58,11.61,35.29C105.44,83.64,101.1,100.78,101.1,100.78Z"/><path class="i" d="M90,25.93s26.41,64.28,0,64.28S90,25.93,90,25.93Z"/><path class="b" d="M26.19,90.82l-6,.4-5.95-.4L11.5,99.39A35.35,35.35,0,0,0,20.24,101,35.46,35.46,0,0,0,29,99.39Z"/><path class="c" d="M14.22,108.4c0,3.33,6,14.9,6,14.9s6-11.57,6-14.9a6,6,0,0,0-12,0Z"/><path class="d" d="M16.29,106.72c0,2.18,3.95,9.76,3.95,9.76s3.94-7.58,3.94-9.76a3.95,3.95,0,1,0-7.89,0Z"/><path class="e" d="M18.58,105.32c0,.92,1.66,4.11,1.66,4.11s1.66-3.19,1.66-4.11a1.66,1.66,0,0,0-3.32,0Z"/><path class="g" d="M20.24,93.39c-1.17,0-6.22,3.36-6.22,3.36L13.11,99a35,35,0,0,0,7.13,1,35,35,0,0,0,7.13-1l-1.24-3S21.21,93.39,20.24,93.39Z"/><path class="h" d="M9.15,100.78c1.21-5,9.14-8.84,11.09-8.84s9.88,3.83,11.09,8.84c0,0,4.33-17.14.52-39.56-3.7-21.71-11.61-35.29-11.61-35.29S12.33,39.51,8.63,61.22C4.82,83.64,9.15,100.78,9.15,100.78Z"/><path class="i" d="M20.24,25.93s-26.41,64.28,0,64.28S20.24,25.93,20.24,25.93Z"/><path class="i" d="M53.83,94.17C41.1,94.17,26.44,16.33,55.13,0c28.68,16.33,14,94.17,1.3,94.17l.49.07-1.79.07-1.8-.07Z"/><path class="b" d="M55.13,11.28c-5.08,0-10.62,15.06-10.78,24.72-.15,8.9,5.2,16.73,10.78,16.73S66.06,44.9,65.91,36C65.74,26.34,60.2,11.28,55.13,11.28Z"/><path class="j" d="M55.13,51.5a7,7,0,0,1-4.86-2.41c-3-3-4.78-8-4.69-13.07.16-9.67,5.78-23.51,9.55-23.51S64.51,26.35,64.67,36c.09,5-1.71,10-4.69,13.07A7,7,0,0,1,55.13,51.5Z"/><path class="k" d="M55.13,50.89a6.38,6.38,0,0,0,4.41-2.23c2.87-2.91,4.6-7.75,4.52-12.63-.16-9.66-5.84-22.9-8.93-22.9S46.36,26.37,46.19,36c-.08,4.88,1.65,9.72,4.52,12.63A6.4,6.4,0,0,0,55.13,50.89Z"/><path class="l" d="M50.71,48.66a7,7,0,0,0,3.6,2.14l9-9A20.18,20.18,0,0,0,64.06,36c0-.62,0-1.26-.1-1.9L50.1,48C50.3,48.22,50.5,48.45,50.71,48.66Z"/><path class="l" d="M57.77,15.29l-9.6,9.6a41.64,41.64,0,0,0-2,11.14,20.45,20.45,0,0,0,.34,4L62,24.58A36.35,36.35,0,0,0,57.77,15.29Z"/><path class="l" d="M63.44,30.33c-.19-1-.41-2-.67-3L47.26,42.84a18.44,18.44,0,0,0,1.1,2.56Z"/><path class="f" d="M54.58,91.35l-3.91,1.06s.36-23,5.5-31.08a15.46,15.46,0,0,1,3.41-3.39C58.41,69.15,56,80.2,54.58,91.35Z"/></svg>