<svg xmlns="http://www.w3.org/2000/svg" viewBox="0 0 343.2999 378.5"><defs><style>.a{fill:#f9c12e;}.b{fill:#f8a725;}.c{fill:#f27e21;}.d{fill:#bdbdbd;}.e{fill:#9f9e9e;}.f{fill:#cfdb39;}.g{fill:#b0b537;}.h{fill:#9d9e37;}.i{fill:#f79820;}.j{fill:#bfcc34;}.k{fill:#f8eb38;}</style></defs><path class="a" d="M69.8,300a21.439,21.439,0,0,0-34.5,24.4l19.3,40.5,19.3-40.5A21.3124,21.3124,0,0,0,69.8,300Z"/><path class="b" d="M41.1,315.2a14.9842,14.9842,0,0,1,24.1-17.1,14.9416,14.9416,0,0,1,2.9,17.1L54.5,343.6Z"/><path class="c" d="M47.5,305.4a8.0766,8.0766,0,0,1,1.5-9,7.9674,7.9674,0,0,1,11.2,0,7.7729,7.7729,0,0,1,1.5,9l-7.2,15Z"/><path class="a" d="M106.1,299.8A15.9727,15.9727,0,0,0,80.4,318l14.4,30.2L109.2,318A16.0139,16.0139,0,0,0,106.1,299.8Z"/><path class="b" d="M84.7,311.2a11.2974,11.2974,0,0,1,2.2-12.8,11.1062,11.1062,0,0,1,15.8,0,11.2972,11.2972,0,0,1,2.2,12.8L94.8,332.4Z"/><path class="c" d="M89.4,303.8a5.7715,5.7715,0,0,1,1.2-6.7,6.0381,6.0381,0,0,1,8.4,0,5.9929,5.9929,0,0,1,1.2,6.7L94.9,315Z"/><path class="a" d="M273.6,300a21.439,21.439,0,0,1,34.5,24.4l-19.3,40.5-19.3-40.5A21.1523,21.1523,0,0,1,273.6,300Z"/><path class="b" d="M302.3,315.2a14.9841,14.9841,0,0,0-24.1-17.1,14.9416,14.9416,0,0,0-2.9,17.1l13.6,28.4Z"/><path class="c" d="M295.9,305.4a8.0765,8.0765,0,0,0-1.5-9,7.9673,7.9673,0,0,0-11.2,0,7.7727,7.7727,0,0,0-1.5,9l7.2,15Z"/><path class="a" d="M237.2,299.8A15.9726,15.9726,0,0,1,262.9,318l-14.4,30.2L234.1,318A16.0139,16.0139,0,0,1,237.2,299.8Z"/><path class="b" d="M258.7,311.2a11.2974,11.2974,0,0,0-2.2-12.8,11.1061,11.1061,0,0,0-15.8,0,11.2971,11.2971,0,0,0-2.2,12.8l10.1,21.2Z"/><path class="c" d="M253.9,303.8a5.7716,5.7716,0,0,0-1.2-6.7,6.0381,6.0381,0,0,0-8.4,0,5.9927,5.9927,0,0,0-1.2,6.7l5.3,11.2Z"/><rect class="d" x="45.1" y="259.3" width="19" height="28.3"/><rect class="e" x="45.1" y="287.6" width="19" height="8.1"/><rect class="d" x="90.2999" y="237.7" width="8.9" height="49.8"/><rect class="e" x="90.2999" y="287.6" width="8.9" height="8.1"/><rect class="d" x="244.1" y="237.7" width="8.9" height="49.8"/><rect class="e" x="244.1" y="287.6" width="8.9" height="8.1"/><path class="f" d="M171.7,0h0A147.8355,147.8355,0,0,0,23.9,147.8v9.3l147.8-29.8Z"/><polygon class="g" points="23.9 157.1 171.7 232.2 171.7 127.3 23.9 157.1"/><polygon class="g" points="171.7 73.8 136.6 84.9 136.6 249.3 171.7 249.3 171.7 73.8"/><polygon class="h" points="171.7 92.1 155.8 97.1 155.8 249.3 171.7 249.3 171.7 92.1"/><path class="i" d="M171.7,22.2c-22.5,0-55.6,3.3-82.7,31.9a6.8255,6.8255,0,0,0,.3,9.7,6.8851,6.8851,0,0,0,9.7-.2c11.2-11.9,31-27.7,72.7-27.7h0V22.2Z"/><polygon class="j" points="136.6 123.4 0 245.3 0 285.2 136.6 203.7 136.6 123.4"/><polygon class="k" points="0 285.2 0 299.6 136.6 232.2 136.6 203.7 0 285.2"/><rect class="f" x="132.5" y="249.3" width="39.2" height="10"/><rect class="g" x="136.6" y="259.3" width="35.1" height="13.2"/><polygon class="f" points="136.6 272.5 125.2 285.2 171.7 285.2 171.7 272.5 136.6 272.5"/><rect class="g" x="125.2" y="285.2" width="46.5" height="10.5"/><circle class="k" cx="41.1" cy="140.9" r="6.5"/><path class="i" d="M41.1,144.5a3.6,3.6,0,1,1,3.6-3.6A3.65,3.65,0,0,1,41.1,144.5Z"/><circle class="k" cx="79.6" cy="133.8" r="6.5"/><path class="i" d="M79.6,137.5a3.6,3.6,0,1,1,3.6-3.6A3.585,3.585,0,0,1,79.6,137.5Z"/><circle class="k" cx="118.1" cy="126.8" r="6.5"/><path class="i" d="M118.1,130.5a3.6,3.6,0,1,1,3.6-3.6A3.65,3.65,0,0,1,118.1,130.5Z"/><rect class="d" x="279.2" y="259.3" width="19" height="28.3"/><rect class="e" x="279.2" y="287.6" width="19" height="8.1"/><path class="f" d="M171.7,0h0A147.8355,147.8355,0,0,1,319.5,147.8v9.3L171.7,127.3Z"/><polygon class="g" points="319.5 157.1 171.7 232.2 171.7 127.3 319.5 157.1"/><polygon class="g" points="171.7 73.8 206.7 84.9 206.7 249.3 171.7 249.3 171.7 73.8"/><polygon class="h" points="171.7 92.1 187.5 97.1 187.5 249.3 171.7 249.3 171.7 92.1"/><path class="i" d="M171.7,22.2c22.5,0,55.6,3.3,82.7,31.9a6.8255,6.8255,0,0,1-.3,9.7,6.8851,6.8851,0,0,1-9.7-.2c-11.2-11.9-31-27.7-72.7-27.7h0V22.2Z"/><polygon class="j" points="206.7 123.4 343.3 245.3 343.3 285.2 206.7 203.7 206.7 123.4"/><polygon class="k" points="343.3 285.2 343.3 299.6 206.7 232.2 206.7 203.7 343.3 285.2"/><rect class="f" x="171.7" y="249.3" width="39.2" height="10"/><rect class="g" x="171.7" y="259.3" width="35.1" height="13.2"/><polygon class="f" points="206.7 272.5 218.1 285.2 171.7 285.2 171.7 272.5 206.7 272.5"/><rect class="g" x="171.7" y="285.2" width="46.5" height="10.5"/><circle class="k" cx="302.2999" cy="140.9" r="6.5"/><path class="i" d="M302.3,144.5a3.6,3.6,0,1,0-3.6-3.6A3.585,3.585,0,0,0,302.3,144.5Z"/><circle class="k" cx="263.7999" cy="133.8" r="6.5"/><path class="i" d="M263.8,137.5a3.6,3.6,0,1,0-3.6-3.6A3.585,3.585,0,0,0,263.8,137.5Z"/><circle class="k" cx="225.2999" cy="126.8" r="6.5"/><path class="i" d="M225.3,130.5a3.6,3.6,0,1,0-3.6-3.6A3.585,3.585,0,0,0,225.3,130.5Z"/><polygon class="a" points="129.7 295.7 171.7 378.5 213.6 295.7 129.7 295.7"/><polygon class="b" points="143.6 295.7 171.7 351.1 199.7 295.7 143.6 295.7"/><polygon class="c" points="156.4 295.7 171.7 325.9 187 295.7 156.4 295.7"/></svg>