<svg xmlns="http://www.w3.org/2000/svg" viewBox="0 0 293.2 370.4"><defs><style>.a{fill:#fc5e75;}.b{fill:#231f20;}.c{fill:#d63c61;}.d{fill:#cecece;}.e,.h{fill:none;stroke-linecap:round;stroke-linejoin:round;stroke-width:11px;}.e{stroke:#231f20;}.f{fill:#b2b1af;}.g{fill:#6bb7dd;}.h{stroke:#cecece;}</style></defs><path class="a" d="M237.2,234.1a5.4439,5.4439,0,0,1-3.9-1.6L185,184.2a5.5531,5.5531,0,0,1,0-7.8l10.6-10.6a9.4655,9.4655,0,0,1,6.7-2.8,9.2945,9.2945,0,0,1,6.7,2.8l22.4,22.4,23.1,23.1a5.5531,5.5531,0,0,1,0,7.8l-13.4,13.4A5.8939,5.8939,0,0,1,237.2,234.1Z"/><path class="b" d="M202.3,168.4a3.784,3.784,0,0,1,2.8,1.2L227.5,192l23.1,23.1-7.5,7.5-6,6-6-6-3.6-3.6-38.7-38.7,10.6-10.6a4.0509,4.0509,0,0,1,2.9-1.3m0-11a14.9851,14.9851,0,0,0-10.6,4.4l-10.6,10.7a10.9677,10.9677,0,0,0-3.2,7.8,11.4036,11.4036,0,0,0,3.2,7.8l38.7,38.7,3.6,3.6,6,6a10.9682,10.9682,0,0,0,7.8,3.2,11.4036,11.4036,0,0,0,7.8-3.2l6-6,7.5-7.5a10.9679,10.9679,0,0,0,3.2-7.8,11.4036,11.4036,0,0,0-3.2-7.8l-23.1-23.1L213,161.8a15.2187,15.2187,0,0,0-10.7-4.4Z"/><path class="c" d="M227.6,192v26.9l-38.7-38.7,10.6-10.6a3.9845,3.9845,0,0,1,5.7,0Z"/><path class="d" d="M225.2,280.3a18.4154,18.4154,0,0,1-18.4-18.4v-8.8a5.5488,5.5488,0,0,1,5.5-5.5h25.8a5.5488,5.5488,0,0,1,5.5,5.5v8.8A18.48,18.48,0,0,1,225.2,280.3Z"/><path class="b" d="M238.1,253.1v8.8a12.9,12.9,0,0,1-25.8,0v-8.8h25.8m0-11H212.3a10.9683,10.9683,0,0,0-11,11v8.8a23.9,23.9,0,0,0,47.8,0v-8.8a10.9683,10.9683,0,0,0-11-11Z"/><path class="d" d="M263.6,280.3a18.4154,18.4154,0,0,1-18.4-18.4v-8.8a5.5488,5.5488,0,0,1,5.5-5.5h25.8a5.5488,5.5488,0,0,1,5.5,5.5v8.8A18.48,18.48,0,0,1,263.6,280.3Z"/><path class="b" d="M276.5,253.1v8.8a12.9315,12.9315,0,0,1-12.9,12.9h0a12.9315,12.9315,0,0,1-12.9-12.9v-8.8h25.8m0-11H250.7a10.9683,10.9683,0,0,0-11,11v8.8a23.9,23.9,0,0,0,47.8,0v-8.8a10.9683,10.9683,0,0,0-11-11Z"/><line class="e" x1="266.9" y1="287.5" x2="266.9" y2="326.2"/><line class="e" x1="222.2" y1="296.3" x2="222.2" y2="335"/><line class="e" x1="244.5" y1="326.2" x2="244.5" y2="364.9"/><line class="e" x1="245.9" y1="298.4" x2="245.9" y2="306.3"/><path class="d" d="M206.6,248.6a5.5488,5.5488,0,0,1-5.5-5.5,26.0764,26.0764,0,0,1,26-26h34.6a25.9482,25.9482,0,0,1,26,26,5.5488,5.5488,0,0,1-5.5,5.5Z"/><path class="b" d="M261.7,222.6a20.4853,20.4853,0,0,1,20.5,20.5H206.6a20.528,20.528,0,0,1,20.5-20.5h34.6m0-11H227.1a31.4961,31.4961,0,0,0-31.5,31.5,10.9683,10.9683,0,0,0,11,11h75.6a10.9683,10.9683,0,0,0,11-11,31.4112,31.4112,0,0,0-31.5-31.5Z"/><path class="f" d="M227.1,222.6h.5a54.1392,54.1392,0,0,1-4.9,20.5h-16A20.379,20.379,0,0,1,227.1,222.6Z"/><path class="a" d="M56,234.1a5.4439,5.4439,0,0,1-3.9-1.6L38.6,219a5.5531,5.5531,0,0,1,0-7.8l23.5-23.5,22-22a9.4655,9.4655,0,0,1,6.7-2.8,9.2945,9.2945,0,0,1,6.7,2.8l10.6,10.6a5.5532,5.5532,0,0,1,0,7.8L59.9,232.5A5.8939,5.8939,0,0,1,56,234.1Z"/><path class="b" d="M90.9,168.4a3.784,3.784,0,0,1,2.8,1.2l10.6,10.6L66,218.5l-4.1,4-6,6-6-6L42.4,215l23.5-23.5,22-22a4.8228,4.8228,0,0,1,3-1.1m0-11a14.9851,14.9851,0,0,0-10.6,4.4l-22,22L34.8,207.3a10.9679,10.9679,0,0,0-3.2,7.8,11.4036,11.4036,0,0,0,3.2,7.8l7.5,7.5,6,6a10.9677,10.9677,0,0,0,7.8,3.2,11.4036,11.4036,0,0,0,7.8-3.2l6-6,4-4,38.3-38.3a11.0449,11.0449,0,0,0,0-15.6l-10.6-10.6a15.07,15.07,0,0,0-10.7-4.5Z"/><path class="c" d="M93.7,169.6l10.6,10.6L66,218.5v-27l22-22A4.0762,4.0762,0,0,1,93.7,169.6Z"/><path class="d" d="M68,280.3a18.4154,18.4154,0,0,1-18.4-18.4v-8.8a5.5488,5.5488,0,0,1,5.5-5.5H80.9a5.5488,5.5488,0,0,1,5.5,5.5v8.8A18.4154,18.4154,0,0,1,68,280.3Z"/><path class="b" d="M80.9,253.1v8.8a12.9,12.9,0,1,1-25.8,0v-8.8H80.9m0-11H55.1a10.9683,10.9683,0,0,0-11,11v8.8a23.9,23.9,0,1,0,47.8,0v-8.8a10.9683,10.9683,0,0,0-11-11Z"/><path class="d" d="M29.6,280.3a18.4154,18.4154,0,0,1-18.4-18.4v-8.8a5.5488,5.5488,0,0,1,5.5-5.5H42.5a5.5488,5.5488,0,0,1,5.5,5.5v8.8A18.4154,18.4154,0,0,1,29.6,280.3Z"/><path class="b" d="M42.5,253.1v8.8a12.9,12.9,0,1,1-25.8,0v-8.8H42.5m0-11H16.7a10.9683,10.9683,0,0,0-11,11v8.8a23.9,23.9,0,1,0,47.8,0v-8.8a10.9683,10.9683,0,0,0-11-11Z"/><line class="e" x1="26.3" y1="287.5" x2="26.3" y2="326.2"/><line class="e" x1="71" y1="296.3" x2="71" y2="335"/><line class="e" x1="48.7" y1="326.2" x2="48.7" y2="364.9"/><line class="e" x1="47.3" y1="298.4" x2="47.3" y2="306.3"/><path class="d" d="M11,248.6a5.5488,5.5488,0,0,1-5.5-5.5,25.9482,25.9482,0,0,1,26-26H66.1a26.0764,26.0764,0,0,1,26,26,5.5488,5.5488,0,0,1-5.5,5.5Z"/><path class="b" d="M66.1,222.6a20.528,20.528,0,0,1,20.5,20.5H11a20.4853,20.4853,0,0,1,20.5-20.5H66.1m0-11H31.5a31.6488,31.6488,0,0,0-22.3,9.2A31.23,31.23,0,0,0,0,243.1a10.9683,10.9683,0,0,0,11,11H86.6a10.9683,10.9683,0,0,0,11-11,31.4961,31.4961,0,0,0-31.5-31.5Z"/><path class="f" d="M86.6,243.1H71a54.1392,54.1392,0,0,1-4.9-20.5h0A20.528,20.528,0,0,1,86.6,243.1Z"/><path class="a" d="M74.5,107.1A14.297,14.297,0,0,1,60.2,92.8a13.9974,13.9974,0,0,1,4.2-10A104.26,104.26,0,0,1,91.2,63.4c1.8-.9,3.6-1.8,5.5-2.6,1.8-.8,3.7-1.6,5.6-2.3a104.4821,104.4821,0,0,1,35.9-6.4h17.2a102.1668,102.1668,0,0,1,35.9,6.4c1.9.7,3.8,1.5,5.7,2.3,1.8.8,3.7,1.7,5.5,2.6a102.0772,102.0772,0,0,1,26.7,19.4,14.2129,14.2129,0,0,1-10.1,24.3Z"/><path class="b" d="M155.4,57.6a100.1538,100.1538,0,0,1,34,6c1.8.7,3.6,1.4,5.3,2.1,1.8.8,3.5,1.6,5.2,2.5a96.7208,96.7208,0,0,1,25.3,18.3,8.5788,8.5788,0,0,1,2.6,6.1,8.7433,8.7433,0,0,1-8.8,8.8H74.5a8.7433,8.7433,0,0,1-8.8-8.8,8.5788,8.5788,0,0,1,2.6-6.1A97.7457,97.7457,0,0,1,93.6,68.2c1.7-.9,3.5-1.7,5.2-2.5,1.8-.8,3.5-1.5,5.3-2.1a97.7823,97.7823,0,0,1,34-6h17.3m0-11H138.2a110.2606,110.2606,0,0,0-37.8,6.7,60.7009,60.7009,0,0,0-5.9,2.4c-2,.9-3.9,1.8-5.8,2.7A106.4514,106.4514,0,0,0,60.6,78.8a19.7284,19.7284,0,0,0,14,33.7H219.2a19.7284,19.7284,0,0,0,14-33.7A109.2466,109.2466,0,0,0,205,58.4a61.0806,61.0806,0,0,0-5.8-2.7c-1.9-.8-3.9-1.6-5.9-2.4a111.2494,111.2494,0,0,0-37.9-6.7Z"/><path class="c" d="M227.9,92.7a8.7433,8.7433,0,0,1-8.8,8.8H199.9V68.2a98.902,98.902,0,0,1,25.4,18.3A8.972,8.972,0,0,1,227.9,92.7Z"/><path class="c" d="M93.6,68.3v33.3H74.4a8.7433,8.7433,0,0,1-8.8-8.8,8.5788,8.5788,0,0,1,2.6-6.1A96.3228,96.3228,0,0,1,93.6,68.3Z"/><path class="c" d="M194.8,65.8v35.8H98.9V65.8c1.8-.8,3.5-1.5,5.3-2.1a97.7823,97.7823,0,0,1,34-6h17.2a100.1538,100.1538,0,0,1,34,6Q192.1,64.6,194.8,65.8Z"/><path class="d" d="M119.9,258.9a38.3674,38.3674,0,0,1-38.3-38.3V173.5a11.8646,11.8646,0,0,1,11.9-11.9,20.955,20.955,0,0,0,20.9-20.9V37.9a32.5,32.5,0,0,1,65,0V140.6a20.9551,20.9551,0,0,0,20.9,20.9,11.8645,11.8645,0,0,1,11.9,11.9v47.1a38.3674,38.3674,0,0,1-38.3,38.3h-54Z"/><path class="b" d="M146.8,11a27.015,27.015,0,0,1,27,27V140.7a26.3748,26.3748,0,0,0,26.4,26.4h0a6.4449,6.4449,0,0,1,6.4,6.4v47.1a32.8191,32.8191,0,0,1-32.8,32.8H119.9a32.8191,32.8191,0,0,1-32.8-32.8V173.5a6.4449,6.4449,0,0,1,6.4-6.4h0a26.3748,26.3748,0,0,0,26.4-26.4V37.9A26.8445,26.8445,0,0,1,146.8,11h0m0-11a38.0472,38.0472,0,0,0-38,38V140.7a15.4066,15.4066,0,0,1-15.4,15.4A17.4125,17.4125,0,0,0,76,173.5v47.1a43.8514,43.8514,0,0,0,43.8,43.8h53.9a43.8514,43.8514,0,0,0,43.8-43.8V173.5a17.4125,17.4125,0,0,0-17.4-17.4,15.4066,15.4066,0,0,1-15.4-15.4V37.9A37.8764,37.8764,0,0,0,146.8,0Z"/><path class="d" d="M221,114.3a5.5488,5.5488,0,0,1-5.5-5.5V60.7a15.8,15.8,0,1,1,31.6,0v48.1a5.5488,5.5488,0,0,1-5.5,5.5Z"/><path class="b" d="M231.3,50.4a10.2854,10.2854,0,0,1,10.3,10.3v48.1H221.1V60.7a10.1381,10.1381,0,0,1,10.2-10.3h0m0-11A21.3175,21.3175,0,0,0,210,60.7v48.1a10.9683,10.9683,0,0,0,11,11h20.5a10.9683,10.9683,0,0,0,11-11V60.7a21.2324,21.2324,0,0,0-21.2-21.3Z"/><path class="d" d="M52.1,114.3a5.5488,5.5488,0,0,1-5.5-5.5V60.7a15.8,15.8,0,1,1,31.6,0v48.1a5.5488,5.5488,0,0,1-5.5,5.5Z"/><path class="b" d="M62.4,50.4A10.2854,10.2854,0,0,1,72.7,60.7v48.1H52.2V60.7A10.1381,10.1381,0,0,1,62.4,50.4h0m0-11A21.3175,21.3175,0,0,0,41.1,60.7v48.1a10.9683,10.9683,0,0,0,11,11H72.6a10.9683,10.9683,0,0,0,11-11V60.7A21.2324,21.2324,0,0,0,62.4,39.4Z"/><path class="g" d="M130,229.6a15.8215,15.8215,0,0,1-15.3-20l17.9-66a14.83,14.83,0,0,1,28.6,0l17.9,66a15.8215,15.8215,0,0,1-15.3,20Z"/><path class="b" d="M146.8,138.1a9.1589,9.1589,0,0,1,9,6.9l17.9,66a10.3842,10.3842,0,0,1-10,13.1H130A10.3842,10.3842,0,0,1,120,211l17.9-66a8.97,8.97,0,0,1,8.9-6.9m0-11a20.0313,20.0313,0,0,0-19.6,15l-17.9,66a21.0406,21.0406,0,0,0,3.7,18.6,21.41,21.41,0,0,0,17,8.4h33.7a20.7968,20.7968,0,0,0,16.9-8.4,21.3519,21.3519,0,0,0,3.7-18.6l-17.9-66a20.0313,20.0313,0,0,0-19.6-15Z"/><line class="e" x1="154.4" y1="60.9" x2="173.1" y2="60.9"/><line class="e" x1="154" y1="79.6" x2="172.6" y2="79.6"/><line class="e" x1="211.4" y1="167.4" x2="211.4" y2="140.2"/><line class="e" x1="80.9" y1="167.4" x2="80.9" y2="140.2"/><line class="e" x1="221" y1="92.7" x2="241.5" y2="92.7"/><line class="e" x1="52.1" y1="92.7" x2="72.6" y2="92.7"/><line class="h" x1="119.6" y1="243.1" x2="119.6" y2="315.6"/><line class="h" x1="172.6" y1="243.1" x2="172.6" y2="285.3"/><line class="h" x1="231.3" y1="107.1" x2="231.3" y2="128.2"/><line class="h" x1="62.4" y1="107.1" x2="62.4" y2="128.2"/><line class="h" x1="62.4" y1="147.8" x2="62.4" y2="155.1"/><line class="h" x1="172.6" y1="313.2" x2="172.6" y2="330.2"/><line class="h" x1="146.8" y1="274.3" x2="146.8" y2="291.3"/></svg>