<?xml version="1.0" encoding="utf-8"?>
<!-- Generator: Adobe Illustrator 25.2.0, SVG Export Plug-In . SVG Version: 6.00 Build 0)  -->
<svg version="1.1"
	 id="svg2" xmlns:cc="http://creativecommons.org/ns#" xmlns:dc="http://purl.org/dc/elements/1.1/" xmlns:inkscape="http://www.inkscape.org/namespaces/inkscape" xmlns:rdf="http://www.w3.org/1999/02/22-rdf-syntax-ns#" xmlns:sodipodi="http://sodipodi.sourceforge.net/DTD/sodipodi-0.dtd" xmlns:svg="http://www.w3.org/2000/svg"
	 xmlns="http://www.w3.org/2000/svg" xmlns:xlink="http://www.w3.org/1999/xlink" x="0px" y="0px" viewBox="0 0 535.6 535.1"
	 style="enable-background:new 0 0 535.6 535.1;" xml:space="preserve">
<style type="text/css">
	.st0{fill:#57585C;}
	.st1{fill-rule:evenodd;clip-rule:evenodd;fill:#59595B;}
	.st2{fill:#4C4C4E;}
	.st3{fill-rule:evenodd;clip-rule:evenodd;fill:#4C4C4E;}
	.st4{fill-rule:evenodd;clip-rule:evenodd;fill:#CCD0D3;}
	.st5{fill:#B0B3B8;}
	.st6{fill-rule:evenodd;clip-rule:evenodd;fill:#4C4B4F;}
	.st7{fill-rule:evenodd;clip-rule:evenodd;fill:#EBEFF0;}
	.st8{fill:#CDD1D4;}
	.st9{fill-rule:evenodd;clip-rule:evenodd;fill:#585858;}
	.st10{clip-path:url(#SVGID_2_);fill-rule:evenodd;clip-rule:evenodd;fill:#4B4B4D;}
	.st11{fill-rule:evenodd;clip-rule:evenodd;fill:#EAEEF1;}
	.st12{clip-path:url(#SVGID_4_);fill-rule:evenodd;clip-rule:evenodd;fill:#CCD0D3;}
	.st13{fill-rule:evenodd;clip-rule:evenodd;fill:#42A6ED;}
	.st14{fill-rule:evenodd;clip-rule:evenodd;fill:#347FB3;}
	.st15{fill:#24C3FF;}
	.st16{fill:#007FAF;}
</style>
<sodipodi:namedview  bordercolor="#666666" borderopacity="1" fit-margin-bottom="0" fit-margin-left="0" fit-margin-right="0" fit-margin-top="0" gridtolerance="10" guidetolerance="10" id="namedview4" inkscape:current-layer="g6491" inkscape:cx="-115.22802" inkscape:cy="526.96056" inkscape:pagecheckerboard="true" inkscape:pageopacity="0.6745098" inkscape:pageshadow="2" inkscape:window-height="1001" inkscape:window-maximized="1" inkscape:window-width="1920" inkscape:window-x="-9" inkscape:window-y="-9" inkscape:zoom="0.417193" objecttolerance="10" pagecolor="#000000" showgrid="false">
	<inkscape:grid  id="grid5477" originx="55.400935" originy="-9.5504312e-006" type="xygrid"></inkscape:grid>
</sodipodi:namedview>
<g id="g6491" transform="translate(-1463.2431,-653.29734)">
	<g id="g4402">
		<path id="path5508" inkscape:connector-curvature="0" class="st0" d="M1698.6,1062.1h16.8l4.2,12.6h-25.2L1698.6,1062.1z"/>
		<path id="rect5475-9" class="st1" d="M1689.1,1045.3h102.2c0.1,0,0.2,0.1,0.2,0.2v17.5c0,0.1-0.1,0.2-0.2,0.2h-102.2
			c-0.1,0-0.2-0.1-0.2-0.2v-17.5C1688.9,1045.4,1689,1045.3,1689.1,1045.3z"/>
		<path id="path5510" inkscape:connector-curvature="0" class="st2" d="M1765.7,1062.1h16.8l4.2,12.6h-25.2L1765.7,1062.1z"/>
		<path id="rect5506" class="st3" d="M1739.1,1045.3h52.1c0.1,0,0.2,0.1,0.2,0.2v17.5c0,0.1-0.1,0.2-0.2,0.2h-52.1
			c-0.1,0-0.2-0.1-0.2-0.2v-17.5C1738.9,1045.4,1739,1045.3,1739.1,1045.3z"/>
		<g id="g5612" transform="matrix(0,1.2355199,-0.83838207,0,1966.8579,557.52232)">
			
				<path id="path5518" sodipodi:cx="300" sodipodi:cy="410" sodipodi:end="6.2798988" sodipodi:rx="120" sodipodi:ry="120" sodipodi:start="4.7249024" sodipodi:type="arc" class="st4" d="
				M299.8,192.5c0.6-96.6,36.7-174.3,81.2-174.6l0.3,176.8L299.8,192.5z"/>
			<path id="path5520" inkscape:connector-curvature="0" class="st5" d="M293,210.4l6.8-17.9l95,2.3v15.6L293,210.4"/>
			
				<rect id="rect5522" x="323" y="103.7" transform="matrix(2.535182e-06 1 -1 2.535182e-06 501.6711 -274.3362)" class="st6" width="130" height="20"/>
		</g>
		<g id="g5619" transform="matrix(0,0.83838207,-0.83838207,0,1966.8579,672.31132)">
			<g id="g5606" transform="matrix(1.4696695,0,0,1,-79.022928,0)">
				
					<path id="path5512" sodipodi:cx="-158.33757" sodipodi:cy="410" sodipodi:end="6.2798988" sodipodi:rx="120" sodipodi:ry="120" sodipodi:start="4.7249024" sodipodi:type="arc" class="st7" d="
					M261.2,348.4c0.6,96.3,36.8,173.8,81.4,174.2l0.3-176.4L261.2,348.4z"/>
				<path id="path5516" inkscape:connector-curvature="0" class="st8" d="M254.4,331l6.8,17.9l95.3-2.3V331H254.4"/>
				
					<rect id="rect5514" x="284.7" y="417.1" transform="matrix(2.535182e-06 1 -1 2.535182e-06 776.7369 77.3882)" class="st1" width="130" height="20"/>
			</g>
		</g>
		<g id="g5498" transform="matrix(0,0.83838207,-0.83838207,0,1966.8579,672.31132)">
			<g id="g5473">
				<path id="rect5445" class="st9" d="M-23.2,270.4L-23.2,270.4c0-33.1,31.1-59.9,69.5-59.9h306.2c38.4,0,69.5,26.8,69.5,59.9l0,0
					c0,33.1-31.1,59.9-69.5,59.9H46.3C7.9,330.3-23.2,303.5-23.2,270.4z"/>
				<g>
					<defs>
						<path id="SVGID_1_" d="M-45.3,272.1v-98.6c0-0.1,0.1-0.1,0.2-0.1h485.5c0.1,0,0.2,0.1,0.2,0.1v98.6c0,0.1-0.1,0.1-0.2,0.1
							H-45.2C-45.3,272.2-45.3,272.1-45.3,272.1z"/>
					</defs>
					<clipPath id="SVGID_2_">
						<use xlink:href="#SVGID_1_"  style="overflow:visible;"/>
					</clipPath>
					<path id="rect5457" class="st10" d="M-23.2,270.4L-23.2,270.4c0-33.1,31.1-59.9,69.5-59.9h306.2c38.4,0,69.5,26.8,69.5,59.9v0
						c0,33.1-31.1,59.9-69.5,59.9H46.3C7.9,330.3-23.2,303.5-23.2,270.4z"/>
				</g>
			</g>
			<g id="g5469" transform="matrix(1.0208658,0,0,1.0208658,-4.7889138,-8.5197071)">
				<path id="rect5463" class="st11" d="M2.8,273.2L2.8,273.2c0-33.1,30.5-59.9,68.1-59.9h280.3c37.6,0,68.1,26.8,68.1,59.9l0,0
					c0,33.1-30.5,59.9-68.1,59.9H70.9C33.3,333.1,2.8,306.3,2.8,273.2z"/>
				<g>
					<defs>
						<path id="SVGID_3_" d="M-17.9,274.9v-98.6c0-0.1,0.1-0.1,0.1-0.1h454.1c0.1,0,0.1,0.1,0.1,0.1v98.6c0,0.1-0.1,0.1-0.1,0.1
							H-17.7C-17.8,275-17.9,275-17.9,274.9z"/>
					</defs>
					<clipPath id="SVGID_4_">
						<use xlink:href="#SVGID_3_"  style="overflow:visible;"/>
					</clipPath>
					<path id="rect5465" class="st12" d="M2.8,273.2L2.8,273.2c0-33.1,30.5-59.9,68.1-59.9h280.3c37.6,0,68.1,26.8,68.1,59.9v0
						c0,33.1-30.5,59.9-68.1,59.9H70.9C33.3,333.1,2.8,306.3,2.8,273.2z"/>
				</g>
			</g>
			<path id="rect5475" class="st11" d="M363.5,331.3V209.4c0-0.2,0.1-0.3,0.3-0.3h80.8c0.2,0,0.3,0.1,0.3,0.3v121.9
				c0,0.2-0.1,0.3-0.3,0.3h-80.8C363.6,331.6,363.5,331.4,363.5,331.3z"/>
			<path id="rect5479" class="st4" d="M363.5,271.6v-62.2c0-0.2,0.1-0.3,0.3-0.3h80.8c0.2,0,0.3,0.1,0.3,0.3v62.2
				c0,0.2-0.1,0.3-0.3,0.3h-80.8C363.6,271.9,363.5,271.8,363.5,271.6z"/>
		</g>
		<g id="g5561" transform="matrix(0,0.5239611,-0.5239611,0,1961.7525,1137.5987)">
			
				<path id="path5555" sodipodi:cx="-519.99957" sodipodi:cy="110.2625" sodipodi:end="6.2799041" sodipodi:open="true" sodipodi:rx="80" sodipodi:ry="80" sodipodi:start="3.1487545" sodipodi:type="arc" class="st13" d="
				M-744.8,502.1c-44-0.3-79.5-36.1-79.4-80.2s35.7-79.7,79.7-79.8"/>
			
				<path id="path5557" sodipodi:cx="-519.99957" sodipodi:cy="110.2625" sodipodi:end="6.2751191" sodipodi:rx="80" sodipodi:ry="80" sodipodi:start="4.6938831" sodipodi:type="arc" class="st14" d="
				M-824.2,423.6c-0.4-21.4,7.8-42,22.7-57.3c14.9-15.3,35.3-24,56.7-24.2l0.6,80L-824.2,423.6z"/>
		</g>
		<g id="g5600" transform="matrix(0,0.83838207,-0.83838207,0,1899.7873,672.27812)">
			
				<rect id="rect5569" x="329.2" y="186.4" transform="matrix(2.535182e-06 1 -1 2.535182e-06 609.4785 -228.6609)" class="st13" width="179.8" height="8"/>
			
				<rect id="rect5573-9" x="372.9" y="156.9" transform="matrix(2.535182e-06 1 -1 2.535182e-06 579.919 -258.2203)" class="st14" width="92.4" height="8"/>
		</g>
		<g id="g5646" transform="matrix(0,0.50002643,-0.50002631,0,1791.8869,572.55394)">
			<g id="g5650" transform="translate(-4.1944706,19.998928)">
				<circle id="path5555-5" class="st13" cx="723.6" cy="87" r="34"/>
				
					<path id="path5557-3" sodipodi:cx="585" sodipodi:cy="125" sodipodi:end="1.5689298" sodipodi:rx="49.997356" sodipodi:ry="49.997356" sodipodi:start="4.6938831" sodipodi:type="arc" class="st14" d="
					M673.6,87.9c-0.3-18,9-34.7,24.4-43.9c15.4-9.2,34.6-9.4,50.2-0.5s25.3,25.4,25.3,43.4l-50,0.1L673.6,87.9z"/>
			</g>
		</g>
		<g id="g4356" transform="matrix(2.0000143,0,0,1,-1575.265,0)">
			<path id="path6495" inkscape:connector-curvature="0" class="st15" d="M1646.7,1076.8c0,61.6-2.5,111.6-5.7,111.6
				c-3.1,0-5.7-49.9-5.7-111.6H1646.7z"/>
			<path id="path6514" inkscape:connector-curvature="0" class="st16" d="M1644.4,1076.8c0,41.3-1.5,74.8-3.4,74.8
				c-1.9,0-3.4-33.5-3.4-74.8H1644.4z"/>
		</g>
		<g id="g4362" transform="matrix(2.0000143,0,0,1,-1575.265,67.483048)">
			<path id="path4358" inkscape:connector-curvature="0" class="st15" d="M1680.5,1009.4c0,61.6-2.5,111.6-5.7,111.6
				c-3.1,0-5.7-49.9-5.7-111.6H1680.5z"/>
			<path id="path4360" inkscape:connector-curvature="0" class="st16" d="M1678.2,1009.4c0,41.3-1.5,74.8-3.4,74.8
				s-3.4-33.5-3.4-74.8H1678.2z"/>
		</g>
	</g>
</g>
</svg>
