<svg xmlns="http://www.w3.org/2000/svg" viewBox="0 0 231.575 345.2"><defs><style>.a{fill:#fc5e75;}.b{fill:#231f20;}.c{fill:#d63c61;}.d{fill:#cecece;}.e,.h,.i,.j{fill:none;stroke-linecap:round;stroke-linejoin:round;stroke-width:11px;}.e{stroke:#231f20;}.f{fill:#b2b1af;}.g{fill:#6bb7dd;}.h{stroke:#9ad2e8;}.i{stroke:#f2f2f2;}.j{stroke:#fc5e75;}</style></defs><path class="a" d="M207.15,239.7a12.6274,12.6274,0,0,1-9-3.7l-65.5-65.5a5.5531,5.5531,0,0,1,0-7.8l25.3-25.3a5.5531,5.5531,0,0,1,7.8,0l50.4,50.4a34.04,34.04,0,0,1,0,48.2A12.6274,12.6274,0,0,1,207.15,239.7Z"/><path class="b" d="M161.85,141.2l48.8,48.8,1.6,1.6a28.6085,28.6085,0,0,1,0,40.5,7.2429,7.2429,0,0,1-10.2,0L180.95,211l-44.4-44.4,25.3-25.4m0-11a11.3179,11.3179,0,0,0-7.8,3.2l-25.3,25.3a11.0451,11.0451,0,0,0,0,15.6l44.4,44.4,21.1,21.1a18.3218,18.3218,0,0,0,12.9,5.3,18.0886,18.0886,0,0,0,12.8-5.3,39.6535,39.6535,0,0,0,0-56.1l-1.6-1.6-48.8-48.8a10.891,10.891,0,0,0-7.7-3.1Z"/><path class="c" d="M210.65,190a20.5007,20.5007,0,0,1-8.5,2.1,24.5189,24.5189,0,0,0-2.7.2,20.9923,20.9923,0,0,0-16,12.5l-2.5,6.1-44.4-44.4,25.3-25.3Z"/><path class="a" d="M24.45,239.7a12.6275,12.6275,0,0,1-9-3.7,34.2219,34.2219,0,0,1,0-48.3l50.4-50.4a5.5531,5.5531,0,0,1,7.8,0l25.3,25.3a5.6158,5.6158,0,0,1,0,7.8l-65.5,65.5A12.3223,12.3223,0,0,1,24.45,239.7Z"/><path class="b" d="M69.75,141.2l25.3,25.3L29.55,232a7.1065,7.1065,0,0,1-5.1,2.1,7.2762,7.2762,0,0,1-5.1-2.1,28.6085,28.6085,0,0,1,0-40.5l50.4-50.3m0-11a11.4036,11.4036,0,0,0-7.8,3.2l-50.4,50.4a39.7144,39.7144,0,0,0,0,56,18.3492,18.3492,0,0,0,25.8,0l65.5-65.5a11.0449,11.0449,0,0,0,0-15.6l-25.3-25.3a11.4037,11.4037,0,0,0-7.8-3.2Z"/><path class="c" d="M69.75,141.2l25.3,25.3-44.4,44.4-2.5-6.1a20.9925,20.9925,0,0,0-16-12.5h-.1a15.6449,15.6449,0,0,0-3.1-.2h-.8a20.13,20.13,0,0,1-7.8-1.6Z"/><path class="c" d="M63.75,85v32.7"/><path class="d" d="M95.25,251.1a18.5222,18.5222,0,0,1-18.5-18.5v-9.7a5.5488,5.5488,0,0,1,5.5-5.5h27a5.5488,5.5488,0,0,1,5.5,5.5v9.7a18.5222,18.5222,0,0,1-18.5,18.5Z"/><path class="b" d="M109.25,222.8v9.7a12.9741,12.9741,0,0,1-13,13h-1a12.9741,12.9741,0,0,1-13-13v-9.7h27m0-11h-27a10.9684,10.9684,0,0,0-11,11v9.7a24.0706,24.0706,0,0,0,24,24h1a24.0706,24.0706,0,0,0,24-24v-9.7a11.0323,11.0323,0,0,0-11-11Z"/><path class="d" d="M135.45,251.1a18.5222,18.5222,0,0,1-18.5-18.5v-9.7a5.5488,5.5488,0,0,1,5.5-5.5h27a5.5488,5.5488,0,0,1,5.5,5.5v9.7a18.5221,18.5221,0,0,1-18.5,18.5Z"/><path class="b" d="M149.35,222.8v9.7a12.9741,12.9741,0,0,1-13,13h-1a12.9741,12.9741,0,0,1-13-13v-9.7h27m0-11h-27a10.9683,10.9683,0,0,0-11,11v9.7a24.0706,24.0706,0,0,0,24,24h1a24.0706,24.0706,0,0,0,24-24v-9.7a11.0323,11.0323,0,0,0-11-11Z"/><line class="e" x1="139.35" y1="258.8" x2="139.35" y2="299.3"/><line class="e" x1="92.65" y1="268" x2="92.65" y2="308.4"/><line class="e" x1="115.95" y1="299.3" x2="115.95" y2="339.7"/><line class="e" x1="117.45" y1="270.2" x2="117.45" y2="278.4"/><path class="d" d="M74.65,221.4a5.5358,5.5358,0,0,1-5.1-3.4l-7.8-18.8a35.3635,35.3635,0,0,0-27.3-21.4,30.7592,30.7592,0,0,0-5.3-.4h-.8a5.5488,5.5488,0,0,1-5.5-5.5,58.1824,58.1824,0,0,1,23.9-46.8,111.5848,111.5848,0,0,0,29.6-32,112.4636,112.4636,0,0,0,12.9-30l12.3-46.5a15.0207,15.0207,0,0,1,29,0l12.3,46.5a109.3316,109.3316,0,0,0,12.9,30,108.65,108.65,0,0,0,27.4,30.3,62.4127,62.4127,0,0,1,20.3,27.1,59.5324,59.5324,0,0,1,3.9,21.3,5.4633,5.4633,0,0,1-5.4,5.5,34.1878,34.1878,0,0,0-4.5.4,35.3634,35.3634,0,0,0-27.3,21.4l-7.8,18.8a5.5358,5.5358,0,0,1-5.1,3.4H74.65Z"/><path class="b" d="M115.85,11a9.3745,9.3745,0,0,1,9.2,7.1l12.3,46.5a120.8322,120.8322,0,0,0,13.5,31.5,117.8632,117.8632,0,0,0,28.7,31.8,56.95,56.95,0,0,1,18.5,24.7,55.179,55.179,0,0,1,3.6,19.4h0a30.5175,30.5175,0,0,0-5.2.5,40.9324,40.9324,0,0,0-31.6,24.7l-7.8,18.8H74.65l-7.8-18.8a40.7766,40.7766,0,0,0-31.6-24.7,42.0524,42.0524,0,0,0-6.2-.5h-.8a53.4154,53.4154,0,0,1,4.2-20.6,51.808,51.808,0,0,1,17.3-21.8,115.6852,115.6852,0,0,0,31-33.6,117.9985,117.9985,0,0,0,13.5-31.5L106.55,18a9.473,9.473,0,0,1,9.3-7m0-11a20.2431,20.2431,0,0,0-19.8,15.2L83.75,61.7a107.5716,107.5716,0,0,1-12.2,28.5,105.8615,105.8615,0,0,1-28.1,30.4,63.1083,63.1083,0,0,0-21,26.4,62.3317,62.3317,0,0,0-5.1,24.9,10.9683,10.9683,0,0,0,11,11h.8a34.0125,34.0125,0,0,1,4.5.3,30.1011,30.1011,0,0,1,23.1,18.1l7.8,18.8a11.0209,11.0209,0,0,0,10.2,6.8h82.3a11.1246,11.1246,0,0,0,10.2-6.8l7.8-18.8a30.1013,30.1013,0,0,1,23.1-18.1,23.402,23.402,0,0,1,3.8-.3,10.9711,10.9711,0,0,0,10.7-11,63.7577,63.7577,0,0,0-4.3-23.3,67.1157,67.1157,0,0,0-22.1-29.5,107.4759,107.4759,0,0,1-26.1-28.9,104.4015,104.4015,0,0,1-12.2-28.5l-12.3-46.5A20.2433,20.2433,0,0,0,115.85,0Z"/><path class="f" d="M198.05,152.5,172.55,178a5.7163,5.7163,0,0,1-.8.7,59.7524,59.7524,0,0,1-34.6,37.1H92.75a59.7534,59.7534,0,0,1-35.3-39.6l-24.9-24.9a51.808,51.808,0,0,1,17.3-21.8,115.6856,115.6856,0,0,0,31-33.6l9.9,9.9a59.1659,59.1659,0,0,1,24.1-5.1,58.3909,58.3909,0,0,1,25.4,5.7l10.5-10.5a117.8632,117.8632,0,0,0,28.7,31.8A57.2617,57.2617,0,0,1,198.05,152.5Z"/><path class="d" d="M73.45,169.3a5.444,5.444,0,0,1-3.9-1.6l-46.3-46.4a31.8677,31.8677,0,0,1,0-45,12.0236,12.0236,0,0,1,8.6-3.6,12.1969,12.1969,0,0,1,8.6,3.6l37.2,37.2,23.1,23.1a5.5534,5.5534,0,0,1,0,7.8l-23.3,23.3A6.3516,6.3516,0,0,1,73.45,169.3Z"/><path class="b" d="M31.75,78.3a6.5737,6.5737,0,0,1,4.7,1.9l37.2,37.2,23.1,23.1-23.3,23.3-46.3-46.3a26.2547,26.2547,0,0,1,0-37.2,6.2285,6.2285,0,0,1,4.6-2m0-11a17.3056,17.3056,0,0,0-12.5,5.2,37.4816,37.4816,0,0,0,0,52.8l46.3,46.3a11.14,11.14,0,0,0,7.8,3.2,11.3179,11.3179,0,0,0,7.8-3.2l23.3-23.3a10.9677,10.9677,0,0,0,3.2-7.8,11.4036,11.4036,0,0,0-3.2-7.8l-23.1-23.1L44.15,72.4a17.054,17.054,0,0,0-12.4-5.1Z"/><path class="d" d="M158.25,169.3a5.4439,5.4439,0,0,1-3.9-1.6l-23.3-23.3a5.6158,5.6158,0,0,1,0-7.8l60.3-60.3a12.0722,12.0722,0,0,1,17.2,0,31.8677,31.8677,0,0,1,0,45l-31.1,31.1-15.4,15.3A5.4641,5.4641,0,0,1,158.25,169.3Z"/><path class="b" d="M199.85,78.3a6.5739,6.5739,0,0,1,4.7,1.9,26.2547,26.2547,0,0,1,0,37.2l-31.1,31.1-15.2,15.2-23.3-23.3,22.1-22.1,38.1-38.1a6.5739,6.5739,0,0,1,4.7-1.9m0-11a17.3056,17.3056,0,0,0-12.5,5.2l-38.1,38.1-22.2,22.2a10.9677,10.9677,0,0,0-3.2,7.8,11.4036,11.4036,0,0,0,3.2,7.8l23.3,23.3a11.1408,11.1408,0,0,0,7.8,3.2,11.3179,11.3179,0,0,0,7.8-3.2l15.2-15.2,31.1-31.1a37.3,37.3,0,0,0,0-52.8,16.6327,16.6327,0,0,0-12.4-5.3Z"/><path class="f" d="M73.65,117.4l23.1,23.1-23.3,23.3-16.7-16.7A60.5536,60.5536,0,0,1,73.65,117.4Z"/><path class="f" d="M173.45,148.6l-15.2,15.2-23.3-23.3,22.1-22.2A59.3393,59.3393,0,0,1,173.45,148.6Z"/><path class="g" d="M114.95,205.4a45,45,0,1,1,45-45A45.0679,45.0679,0,0,1,114.95,205.4Z"/><path class="b" d="M114.95,121a39.5,39.5,0,1,1-39.5,39.5,39.52,39.52,0,0,1,39.5-39.5m0-11a50.5,50.5,0,1,0,50.5,50.5,50.5518,50.5518,0,0,0-50.5-50.5Z"/><path class="h" d="M114.95,138.1a22.3632,22.3632,0,0,1,22.4,22.4"/><path class="i" d="M117.45,54.1s5,19.6,11.9,30.9"/><line class="j" x1="190.25" y1="215.9" x2="190.25" y2="268.8"/><line class="j" x1="190.25" y1="287.5" x2="190.25" y2="294"/><line class="j" x1="41.65" y1="213.1" x2="41.65" y2="256"/><line class="j" x1="20.25" y1="267.5" x2="20.25" y2="293"/><line class="j" x1="20.25" y1="221.5" x2="20.25" y2="247"/><line class="j" x1="209.75" y1="215.9" x2="209.75" y2="319.5"/></svg>