<?xml version="1.0"?>
<svg xmlns="http://www.w3.org/2000/svg" viewBox="0 0 80 80">
    <path d="M 40 10.234375 L 39.175781 11.433594 C 39.175781 11.433594 34 18.903598 34 28.25 L 34 38 L 30 38 C 28.906937 38 28 38.906937 28 40 L 28 44 L 17 44 L 17 41 C 17 40.083614 16.570969 39.267129 15.914062 38.714844 C 16.581627 37.999109 17 37.048156 17 36 C 17 34.149699 15.715786 32.594409 14 32.144531 L 14 23.728516 A 2 2 0 0 0 15 22 A 2 2 0 0 0 13 20 A 2 2 0 0 0 11 22 A 2 2 0 0 0 12 23.730469 L 12 32.144531 C 10.284214 32.594409 9 34.149699 9 36 C 9 37.048156 9.4183734 37.999109 10.085938 38.714844 C 9.4290313 39.267129 9 40.083614 9 41 L 9 56.091797 C 9 58.289131 10.802666 60.091797 13 60.091797 C 14.753159 60.091797 16.237869 58.937373 16.773438 57.357422 L 27 61.193359 L 27 69 L 35 69 L 35 64.193359 L 40 66.068359 L 45 64.193359 L 45 69 L 53 69 L 53 61.193359 L 63.226562 57.357422 C 63.762131 58.937373 65.246841 60.091797 67 60.091797 C 69.197334 60.091797 71 58.289131 71 56.091797 L 71 41 C 71 40.083614 70.570969 39.267129 69.914062 38.714844 C 70.581627 37.999109 71 37.048156 71 36 C 71 34.149699 69.715786 32.594409 68 32.144531 L 68 23.728516 A 2 2 0 0 0 69 22 A 2 2 0 0 0 67 20 A 2 2 0 0 0 65 22 A 2 2 0 0 0 66 23.730469 L 66 32.144531 C 64.284214 32.594409 63 34.149699 63 36 C 63 37.048156 63.418373 37.999109 64.085938 38.714844 C 63.429031 39.267129 63 40.083614 63 41 L 63 44 L 52 44 L 52 40 C 52 38.906937 51.093063 38 50 38 L 46 38 L 46 28.25 C 46 18.903598 40.824219 11.433594 40.824219 11.433594 L 40 10.234375 z M 13 12 A 1 1 0 0 0 12 13 A 1 1 0 0 0 13 14 A 1 1 0 0 0 14 13 A 1 1 0 0 0 13 12 z M 67 12 A 1 1 0 0 0 66 13 A 1 1 0 0 0 67 14 A 1 1 0 0 0 68 13 A 1 1 0 0 0 67 12 z M 40 14.142578 C 41.132977 16.013432 44 21.115702 44 28.25 L 44 40 A 1 1 0 0 0 45 41 A 1 1 0 0 0 46 40 L 50 40 L 50 46 A 1 1 0 0 0 51 47 A 1 1 0 0 0 52 46 L 63 46 L 63 55.306641 L 40 63.931641 L 17 55.306641 L 17 46 L 28 46 A 1 1 0 0 0 29 47 A 1 1 0 0 0 30 46 L 30 40 L 34 40 A 1 1 0 0 0 35 41 A 1 1 0 0 0 36 40 L 36 28.25 C 36 21.115702 38.867023 16.013432 40 14.142578 z M 13 16 A 1 1 0 0 0 12 17 A 1 1 0 0 0 13 18 A 1 1 0 0 0 14 17 A 1 1 0 0 0 13 16 z M 67 16 A 1 1 0 0 0 66 17 A 1 1 0 0 0 67 18 A 1 1 0 0 0 68 17 A 1 1 0 0 0 67 16 z M 40 22 A 1 1 0 0 0 39 23 A 1 1 0 0 0 40 24 A 1 1 0 0 0 41 23 A 1 1 0 0 0 40 22 z M 40 26 A 1 1 0 0 0 39 27 A 1 1 0 0 0 40 28 A 1 1 0 0 0 41 27 A 1 1 0 0 0 40 26 z M 39.984375 29.986328 A 1.0001 1.0001 0 0 0 39 31 L 39 39 A 1.0001 1.0001 0 1 0 41 39 L 41 31 A 1.0001 1.0001 0 0 0 39.984375 29.986328 z M 12.910156 34.009766 A 1.0001 1.0001 0 0 0 13.091797 34.009766 C 14.163368 34.05779 15 34.915136 15 36 C 15 37.116414 14.116414 38 13 38 C 11.883586 38 11 37.116414 11 36 C 11 34.914472 11.837639 34.056819 12.910156 34.009766 z M 66.910156 34.009766 A 1.0001 1.0001 0 0 0 67.091797 34.009766 C 68.163368 34.05779 69 34.915136 69 36 C 69 37.116414 68.116414 38 67 38 C 65.883586 38 65 37.116414 65 36 C 65 34.914472 65.837639 34.056819 66.910156 34.009766 z M 12 40 L 13 40 L 14 40 C 14.56503 40 15 40.43497 15 41 L 15 44 L 15 56.091797 C 15 57.208463 14.116666 58.091797 13 58.091797 C 11.883334 58.091797 11 57.208463 11 56.091797 L 11 41 C 11 40.43497 11.43497 40 12 40 z M 66 40 L 68 40 C 68.56503 40 69 40.43497 69 41 L 69 56.091797 C 69 57.208463 68.116666 58.091797 67 58.091797 C 65.883334 58.091797 65 57.208463 65 56.091797 L 65 44 L 65 41 C 65 40.43497 65.43497 40 66 40 z M 35 43 A 1 1 0 0 0 34 44 A 1 1 0 0 0 35 45 A 1 1 0 0 0 36 44 A 1 1 0 0 0 35 43 z M 45 43 A 1 1 0 0 0 44 44 A 1 1 0 0 0 45 45 A 1 1 0 0 0 46 44 A 1 1 0 0 0 45 43 z M 34.984375 46.986328 A 1.0001 1.0001 0 0 0 34 48 C 34 51.175693 36.516033 53.732672 39.644531 53.927734 A 1.0001 1.0001 0 0 0 40 54 A 1.0001 1.0001 0 0 0 40.359375 53.927734 C 43.486034 53.730727 46 51.174364 46 48 A 1.0001 1.0001 0 1 0 44 48 C 44 50.220375 42.220375 52 40 52 C 37.779625 52 36 50.220375 36 48 A 1.0001 1.0001 0 0 0 34.984375 46.986328 z M 29 49 A 1 1 0 0 0 28 50 A 1 1 0 0 0 29 51 A 1 1 0 0 0 30 50 A 1 1 0 0 0 29 49 z M 51 49 A 1 1 0 0 0 50 50 A 1 1 0 0 0 51 51 A 1 1 0 0 0 52 50 A 1 1 0 0 0 51 49 z M 29 53 A 1 1 0 0 0 28 54 A 1 1 0 0 0 29 55 A 1 1 0 0 0 30 54 A 1 1 0 0 0 29 53 z M 51 53 A 1 1 0 0 0 50 54 A 1 1 0 0 0 51 55 A 1 1 0 0 0 52 54 A 1 1 0 0 0 51 53 z M 29 61.943359 L 33 63.443359 L 33 67 L 29 67 L 29 61.943359 z M 51 61.943359 L 51 67 L 47 67 L 47 63.443359 L 51 61.943359 z"/>
</svg>
