<svg xmlns="http://www.w3.org/2000/svg" viewBox="0 0 81.02 120.68"><defs><style>.a{fill:#f9f9f9;}.b{fill:#dfdfdf;}.c{fill:#70afdf;}.d{fill:#92cef6;}.e{fill:#fcf692;}.f{fill:#7f3127;}.g{fill:#b74719;}.h{fill:#304d78;}.i{fill:#8fc8eb;}.j{fill:#d1f3f7;}.k{fill:#fcfdfd;}</style></defs><path class="a" d="M6.39,60.58c7.69-3.63,16-7.49,21.33-10,1.93,9.48.39,30.14,2.22,38.57C27.47,85.77,24.4,84,19.62,83.29a30.57,30.57,0,0,0-10.27.25C8.61,75.86,7.55,68.21,6.39,60.58Z"/><path class="b" d="M29.44,88.53a13.2,13.2,0,0,0-4.82-3.83c-.78-5-2.61-26.95-.65-32.36l1.42-.66Z"/><path class="b" d="M5.72,60.89l3.05-1.43A94.6,94.6,0,0,1,15,83a28.56,28.56,0,0,0-6.06.67A187.74,187.74,0,0,0,5.72,60.89Z"/><path class="c" d="M3.15,93.49c0,2,3.52,8.7,3.52,8.7s3.51-6.75,3.51-8.7a3.52,3.52,0,1,0-7,0Z"/><path class="d" d="M4.36,92.51c0,1.27,2.31,5.7,2.31,5.7S9,93.78,9,92.51a2.31,2.31,0,1,0-4.61,0Z"/><path class="e" d="M5.69,91.69a10.78,10.78,0,0,0,1,2.4,10.85,10.85,0,0,0,1-2.4,1,1,0,0,0-1.95,0Z"/><path class="f" d="M6.67,43.56C2.8,43.56.47,71.47,0,85.08c-.08,2.35,1,4.34,2.3,4.34H11c1.33,0,2.38-2,2.3-4.34C12.86,71.47,10.53,43.56,6.67,43.56Z"/><path class="g" d="M6.67,44.33c-2.87,0-4.79,18-5.61,31.52C.69,82.1,3.3,87.57,6.67,87.57h0c3.36,0,6-5.47,5.6-11.72C11.45,62.35,9.53,44.33,6.67,44.33Z"/><path class="a" d="M74.63,60.58c-7.69-3.63-16-7.49-21.33-10-1.93,9.48-.39,30.14-2.22,38.57,2.47-3.39,5.54-5.19,10.32-5.87a30.57,30.57,0,0,1,10.27.25C72.41,75.86,73.47,68.21,74.63,60.58Z"/><path class="b" d="M51.58,88.53A13.2,13.2,0,0,1,56.4,84.7c.78-5,2.61-26.95.65-32.36l-1.41-.66Z"/><path class="b" d="M75.3,60.89l-3-1.43A93.74,93.74,0,0,0,66.08,83a28.54,28.54,0,0,1,6,.67A187.74,187.74,0,0,1,75.3,60.89Z"/><path class="a" d="M52.45,24.16C46.25,5.44,40.51,0,40.51,0S34.77,5.44,28.57,24.16,20.64,98.21,40.51,98.21,58.65,42.89,52.45,24.16Z"/><path class="c" d="M37.24,112.59c0,1.81,3.27,8.09,3.27,8.09s3.27-6.28,3.27-8.09a3.27,3.27,0,0,0-6.54,0Z"/><path class="d" d="M38.37,111.68c0,1.18,2.14,5.3,2.14,5.3s2.14-4.12,2.14-5.3a2.14,2.14,0,1,0-4.28,0Z"/><path class="e" d="M39.61,110.92a10.12,10.12,0,0,0,.9,2.23,10.12,10.12,0,0,0,.9-2.23.9.9,0,1,0-1.8,0Z"/><path class="f" d="M40.51,66.17c-3.6,0-5.76,26-6.19,38.6-.08,2.19.9,4,2.13,4h8.12c1.23,0,2.21-1.84,2.13-4C46.27,92.12,44.11,66.17,40.51,66.17Z"/><path class="g" d="M40.51,66.88c-2.67,0-4.45,16.76-5.21,29.31-.35,5.81,2.08,10.89,5.21,10.89h0c3.13,0,5.56-5.08,5.21-10.89C45,83.64,43.18,66.88,40.51,66.88Z"/><path class="c" d="M77.87,93.49c0,2-3.51,8.7-3.51,8.7s-3.52-6.75-3.52-8.7a3.52,3.52,0,1,1,7,0Z"/><path class="d" d="M76.66,92.51c0,1.27-2.3,5.7-2.3,5.7s-2.31-4.43-2.31-5.7a2.31,2.31,0,1,1,4.61,0Z"/><path class="e" d="M75.33,91.69a10.85,10.85,0,0,1-1,2.4,10.78,10.78,0,0,1-1-2.4,1,1,0,0,1,2,0Z"/><path class="f" d="M74.36,43.56c3.86,0,6.19,27.91,6.66,41.52.08,2.35-1,4.34-2.3,4.34H70c-1.33,0-2.38-2-2.3-4.34C68.16,71.47,70.49,43.56,74.36,43.56Z"/><path class="g" d="M74.36,44.33c2.86,0,4.78,18,5.6,31.52.38,6.25-2.24,11.72-5.6,11.72h0c-3.37,0-6-5.47-5.61-11.72C69.57,62.35,71.49,44.33,74.36,44.33Z"/><path class="h" d="M40.51,10.91c-4.84,0-10.14,14.38-10.29,23.6-.15,8.5,5,16,10.29,16S51,43,50.8,34.51C50.65,25.29,45.36,10.91,40.51,10.91Z"/><path class="i" d="M40.51,49.32A6.69,6.69,0,0,1,35.87,47c-2.84-2.9-4.56-7.68-4.48-12.49.16-9.23,5.53-22.45,9.12-22.45s9,13.22,9.12,22.45C49.71,39.34,48,44.12,45.15,47A6.69,6.69,0,0,1,40.51,49.32Z"/><path class="j" d="M40.51,48.73a6.14,6.14,0,0,1-4.22-2.13C33.55,43.82,31.9,39.2,32,34.54c.16-9.22,5.58-21.87,8.53-21.87S48.88,25.32,49,34.54c.08,4.66-1.57,9.28-4.31,12.06A6.14,6.14,0,0,1,40.51,48.73Z"/><path class="k" d="M36.29,46.6a6.61,6.61,0,0,0,3.44,2l8.6-8.59A19.42,19.42,0,0,0,49,34.54c0-.59,0-1.2-.09-1.81L35.71,46C35.9,46.18,36.09,46.4,36.29,46.6Z"/><path class="k" d="M43,14.74l-9.17,9.17A40.13,40.13,0,0,0,32,34.54a19.38,19.38,0,0,0,.32,3.82L47.06,23.61A34.34,34.34,0,0,0,43,14.74Z"/><path class="k" d="M48.45,29.1c-.18-1-.4-1.92-.64-2.87L33,41a18.62,18.62,0,0,0,1,2.45Z"/></svg>