<svg xmlns="http://www.w3.org/2000/svg" xmlns:xlink="http://www.w3.org/1999/xlink" viewBox="0 0 258.0562 390.114"><defs><style>.a{isolation:isolate;}.b{fill:#c9d3c8;}.c{fill:#8caab9;}.d{fill:#565163;}.e{fill:#ca8e79;}.f{fill:#4f4d6c;}.g{fill:#718b98;}.h{fill:#967d8b;}.i{fill:#7f8b7f;}.j{fill:#ac4839;}.ab,.ad,.af,.ag,.aj,.ak,.ap,.aq,.as,.au,.aw,.ax,.ba,.bc,.bv,.k,.r,.u,.v,.w,.x,.y,.z{mix-blend-mode:color-dodge;}.k{fill:url(#a);}.l{fill:#29aae1;}.az,.m,.p{fill:#9bae9b;}.n{fill:#c5936c;}.at,.o,.s{fill:#637a86;}.p{opacity:0.48;}.q{fill:#d6ded6;}.r{fill:url(#b);}.s{opacity:0.37;}.at,.s{mix-blend-mode:multiply;}.t{fill:#2b6a94;}.u{fill:url(#c);}.v{fill:url(#d);}.w{fill:url(#e);}.x{fill:url(#f);}.y{fill:url(#g);}.z{fill:url(#h);}.aa{fill:#6c6784;}.ab{fill:url(#i);}.ac,.ae,.al,.am,.ar,.av{mix-blend-mode:color-burn;}.ac{fill:url(#j);}.ad{fill:url(#k);}.ae{fill:url(#l);}.af{opacity:0.42;fill:url(#m);}.ag{fill:url(#n);}.ah{fill:#807a90;}.ai{fill:#b3c4ce;}.aj{fill:url(#o);}.ak{opacity:0.51;fill:url(#p);}.al{fill:url(#q);}.am{fill:url(#r);}.an{fill:#94bdbe;}.ao{fill:#725469;}.ap{fill:url(#s);}.aq{fill:url(#t);}.ar{fill:url(#u);}.as{fill:url(#v);}.at{opacity:0.61;}.au{fill:url(#w);}.av{fill:url(#x);}.aw{fill:url(#y);}.ax{fill:url(#z);}.ay{fill:#768778;}.az{opacity:0.76;}.ba{fill:url(#aa);}.bb{fill:#eaece7;}.bc{fill:url(#ab);}.bd{fill:#b4d1d7;}.be{fill:#457f83;}.bf{fill:#657066;}.bg{fill:#debaac;}.bh,.bl{fill:#4a544c;}.bi{fill:#7a95a1;}.bj,.bo{fill:#fff;}.bj{opacity:0.57;}.bk{fill:#8e6556;}.bl{opacity:0.44;}.bm{fill:#36344c;}.bn{fill:#231f20;}.bp{fill:#172820;}.bq{fill:#b0b3ac;}.br{fill:#3c3a53;}.bs{fill:#654a5d;}.bt{fill:#603b17;}.bu{fill:#bd9f4c;}.bv{fill:url(#ac);}</style><radialGradient id="a" cx="130.8052" cy="231.6601" r="85.3247" gradientUnits="userSpaceOnUse"><stop offset="0" stop-color="#fff"/><stop offset="0.283" stop-color="#b0b0b0"/><stop offset="0.6351" stop-color="#525252"/><stop offset="0.8822" stop-color="#181818"/><stop offset="1" stop-color="#010101"/></radialGradient><radialGradient id="b" cx="-58.6186" cy="116.9872" r="185.3287" xlink:href="#a"/><radialGradient id="c" cx="249.0613" cy="232.0649" r="22.3463" xlink:href="#a"/><radialGradient id="d" cx="154.6791" cy="290.0333" r="37.5448" xlink:href="#a"/><radialGradient id="e" cx="102.4181" cy="281.8607" r="30.7213" xlink:href="#a"/><radialGradient id="f" cx="57.7781" cy="277.3284" r="29.1861" xlink:href="#a"/><radialGradient id="g" cx="7.3353" cy="232.8614" r="24.082" xlink:href="#a"/><radialGradient id="h" cx="211.6986" cy="265.8157" r="31.4383" xlink:href="#a"/><linearGradient id="i" x1="56.9704" y1="336.0989" x2="145.5223" y2="348.8191" xlink:href="#a"/><radialGradient id="j" cx="137.2419" cy="327.4207" r="80.422" xlink:href="#a"/><linearGradient id="k" x1="-5.9884" y1="302.0752" x2="32.8182" y2="329.1782" xlink:href="#a"/><radialGradient id="l" cx="39.5363" cy="314.9378" r="74.737" xlink:href="#a"/><linearGradient id="m" x1="33.9415" y1="336.7617" x2="45.233" y2="348.8723" gradientUnits="userSpaceOnUse"><stop offset="0" stop-color="#fff"/><stop offset="0.1061" stop-color="#ececec"/><stop offset="0.3217" stop-color="#bababa"/><stop offset="0.6278" stop-color="#6b6b6b"/><stop offset="1" stop-color="#010101"/></linearGradient><linearGradient id="n" x1="24.4687" y1="353.8182" x2="13.9288" y2="359.8989" xlink:href="#a"/><linearGradient id="o" x1="270.0246" y1="298.8811" x2="225.4848" y2="330.8919" xlink:href="#a"/><linearGradient id="p" x1="227.7388" y1="332.8517" x2="211.8382" y2="348.8447" xlink:href="#a"/><radialGradient id="q" cx="206.6207" cy="321.3619" r="42.3602" xlink:href="#a"/><radialGradient id="r" cx="246.4367" cy="327.6813" r="93.5048" gradientUnits="userSpaceOnUse"><stop offset="0" stop-color="#010101"/><stop offset="0.1178" stop-color="#181818"/><stop offset="0.3649" stop-color="#525252"/><stop offset="0.717" stop-color="#b0b0b0"/><stop offset="1" stop-color="#fff"/></radialGradient><radialGradient id="s" cx="103.0943" cy="349.6941" r="22.7782" xlink:href="#a"/><radialGradient id="t" cx="115.1773" cy="367.7514" r="20.8288" xlink:href="#a"/><radialGradient id="u" cx="148.4083" cy="352.8653" r="60.2835" xlink:href="#r"/><radialGradient id="v" cx="124.315" cy="241.6071" r="39.2675" xlink:href="#a"/><radialGradient id="w" cx="27.474" cy="79.1294" r="93.4638" xlink:href="#a"/><radialGradient id="x" cx="70.5763" cy="122.4811" r="107.3757" xlink:href="#r"/><radialGradient id="y" cx="148.6032" cy="174.2959" r="82.8987" xlink:href="#a"/><radialGradient id="z" cx="91.0831" cy="85.4258" r="45.3463" xlink:href="#a"/><radialGradient id="aa" cx="80.2698" cy="53.2962" r="48.0184" xlink:href="#a"/><radialGradient id="ab" cx="102.3647" cy="29.039" r="46.4061" gradientUnits="userSpaceOnUse"><stop offset="0" stop-color="#fff"/><stop offset="0.2709" stop-color="#b3b3b3"/><stop offset="0.6445" stop-color="#4f4f4f"/><stop offset="0.8122" stop-color="#272727"/><stop offset="0.8817" stop-color="#181818"/><stop offset="1" stop-color="#010101"/></radialGradient><radialGradient id="ac" cx="126.3947" cy="192.3031" r="83.5782" xlink:href="#a"/></defs><g class="a"><path class="b" d="M84.5772,107.7735s-11.574,11.574-24.4341,30.8642A147.5543,147.5543,0,0,0,42.139,176.3606L35.28,199.5087l-2.572,21.4335s9.8594,9.4307,42.867,14.5748,51.869,6.0013,51.869,6.0013,10.7167,1.286,46.2963-5.144,42.01-9.8594,42.01-9.8594l11.1454-6.43s-.8574-22.72-12.86-52.2977a202.4793,202.4793,0,0,0-29.5782-50.1543l-9.0021-9.0021s-15.8607,10.7167-44.1529,10.2881S84.5772,107.7735,84.5772,107.7735Z"/><path class="c" d="M34.8516,270.2392l4.2867,18.8614s12.0027,1.286,19.7188,7.7161,11.1454,15.8607,11.1454,15.8607,3.4293,5.5727,3.0007,10.7168a59.2948,59.2948,0,0,1-1.2861,8.5734l-3.858,3.0007L61,335.3969s12.86,6.8587,25.2915,9.0021S106.4394,347.4,106.4394,347.4l.4286-1.7147a13.114,13.114,0,0,1-9.002-8.1447c-2.572-6.8587,1.286-19.29,1.286-19.29s6.0014-12.0027,18.0041-18.0041,24.0055,0,24.0055,0,13.2887,6.0014,17.1468,16.29,3.4293,15.0034,3.4293,15.0034l-1.7147,7.2874L154.0217,347.4s12.86-.4287,22.7195-2.572,19.7187-8.5734,19.7187-8.5734-10.288.4286-11.574-10.2881,9.002-24.4342,9.002-24.4342,6.8587-7.716,14.1461-10.7167,12.4314,0,12.4314,0l3.4294-12.0027.4287-9.4308s-17.1468,12.0028-33.8649,15.0035-46.2963,4.2867-46.2963,4.2867L90.15,287.3859l-28.7208-4.2866S40.853,277.5266,34.8516,270.2392Z"/><path class="c" d="M35.28,199.5087l7.7161,8.5734-2.1433,8.5734-1.7147,7.716-6.43-3.4293S33.1369,203.3667,35.28,199.5087Z"/><path class="c" d="M51.141,215.7982,48.9977,221.8l.4286,5.5727s10.2881,6.8587,39.4376,10.2881S125.73,241.09,125.73,241.09l38.1516-2.1434,44.1529-9.8594-1.7147-9.4307-3.0006-6.43s-24.0055,10.2881-47.1537,12.4315-53.5837.8573-53.5837.8573S58,220.0849,51.141,215.7982Z"/><path class="c" d="M217.4647,207.2248l1.7147,8.1447.8574,9.002,6.8587-4.2866-1.286-11.5741-1.7147-5.1441S219.6081,204.2241,217.4647,207.2248Z"/><polygon class="c" points="66.144 129.207 73.003 132.636 65.287 145.925 60.143 153.641 54.142 149.783 66.144 129.207"/><path class="d" d="M117.5848,61.4772,120.62,39.2218q1.1-8.0691,2.2007-16.1382c.3525-2.5851-.0925-6.6771,1.9946-8.6518,2.529-2.3927,3.855-.7857,4.78,1.505,1.9143,4.7408,2.99,10.0265,4.4511,14.9243q4.5278,15.1815,9.0556,30.3629.1016.3407.2033.6818S128.73,68.7645,117.5848,61.4772Z"/><path class="b" d="M94.8653,80.7673s1.7147-5.5727,4.2867-7.7161,18.4328-11.574,18.4328-11.574,9.002,3.858,15.4321,3.0007a41.0116,41.0116,0,0,0,10.288-2.5721l15.4321,9.0021,5.5727,5.5727.4287,4.7154A100.2416,100.2416,0,0,1,141.59,87.1973a154.9617,154.9617,0,0,1-24.0055.4287S96.58,84.1966,94.8653,80.7673Z"/><path class="e" d="M88.4353,84.6253a10.4027,10.4027,0,0,0-6.8588,9.0021c-.8573,7.2874,3.0007,14.1461,3.0007,14.1461s17.5755,9.002,29.5782,9.8594,30.4355-.4287,30.4355-.4287L167.31,112.06s9.0021-4.2867,11.5741-8.5734,3.0007-10.2881-1.286-16.29-9.8594-6.0013-9.8594-6.0013h-4.7154s-18.4328,6.0013-29.1495,6.8587a103.0561,103.0561,0,0,1-21.4335-.8574l-17.5754-6.43Z"/><path class="f" d="M30.5649,302.818s0-8.5733,4.7153-11.1454,11.5741-1.7146,11.5741-1.7146,12.4314,4.7153,18.8615,14.5747,6.43,15.0035,6.43,15.0035l.8574,8.5733-3.0007,4.7154-2.1434,2.1434-8.5734,1.286,8.1448-9.8594S66.1444,313.9635,61,306.6761s-15.0034-9.4308-15.0034-9.4308S35.28,297.674,30.5649,302.818Z"/><path class="f" d="M106.4394,347.4S97.4373,339.6836,96.58,331.11s7.2874-18.4328,7.2874-18.4328,3.858-10.288,19.29-13.2887,20.1474,1.286,20.1474,1.286,12.4315,8.1447,16.29,17.1468a28.3756,28.3756,0,0,1,2.1433,16.2894l-1.7147,4.7154L154.0217,347.4s1.7147-21.8622-1.286-27.4349-12.86-12.4314-12.86-12.4314-7.7161-6.0014-19.29-1.7147-14.5748,12.86-14.5748,12.86l-2.572,10.2881Z"/><path class="f" d="M197.746,335.8256s-11.5741,0-12.86-9.8594,9.002-24.4342,9.002-24.4342,6.0014-8.5733,14.1461-10.7167,12.4314,0,12.4314,0,5.1441,2.572,6.43,6.43.4286,9.0021.4286,9.0021l-5.5727-6.43s-4.2867-4.7154-12.86-1.7147-14.5748,13.2887-14.5748,13.2887a15.9807,15.9807,0,0,0-3.0007,10.2881C191.7446,327.6809,197.746,335.8256,197.746,335.8256Z"/><path class="g" d="M72.1458,329.8242s9.0021,3.858,12.86,4.2867,12.86,3.4294,12.86,3.4294l1.7147,4.2867,6.8587,5.5727s-20.1475-1.286-26.5775-3.8581-16.29-7.2873-16.29-7.2873S71.2885,334.54,72.1458,329.8242Z"/><path class="g" d="M160.023,338.8263l15.8608-3.858,9.4307-3.8581s1.2861,3.0007,3.8581,3.8581a42.6367,42.6367,0,0,0,7.2873,1.286s-15.4321,7.716-22.2908,9.002S155.3077,347.4,155.3077,347.4Z"/><path class="h" d="M79.4332,342.2556l7.716,20.1475s9.0021,3.858,12.86,4.2867,12.86.8573,12.86.8573l-6.43-20.1474S81.5765,346.5423,79.4332,342.2556Z"/><path class="h" d="M149.735,366.69a62.2513,62.2513,0,0,0,11.5741-1.286,31.1354,31.1354,0,0,0,10.288-4.2867l7.2874-17.1468a55.1189,55.1189,0,0,1-14.1461,3.0007c-7.2874.4287-10.7167.4287-10.7167.4287Z"/><path class="h" d="M94.4366,365.8325l3.0007,6.8587,9.4307,2.1433,9.4308.4287-3.4294-7.7161S97.0086,367.9758,94.4366,365.8325Z"/><polygon class="h" points="149.735 366.69 157.451 366.69 165.596 364.118 161.738 373.977 146.306 373.977 149.735 366.69"/><path class="b" d="M30.5649,302.818,14.7041,326.8235,4.8447,342.6843S.558,349.9717.9867,352.5437s3.4294,6.8587,3.4294,6.8587l8.5733,3.0007,9.4308,2.1433s.4286,1.2861,5.5727-1.7146,16.2894-13.7175,16.2894-13.7175l23.1482-22.7194S65.7158,310.9628,61,306.6761,45.997,292.1013,30.5649,302.818Z"/><path class="b" d="M120.5855,305.8187a28.6152,28.6152,0,0,0-11.1454,9.0021,37.3029,37.3029,0,0,0-6.0014,14.1461l5.144,23.1481,6.0014,19.29,7.716,13.2887s3.8581,6.0014,11.5741,1.7147,13.2888-14.5748,13.2888-14.5748L154.45,344.399s.8574-16.7181-3.4293-26.5775S129.5875,301.532,120.5855,305.8187Z"/><path class="b" d="M197.5443,306.9241c3.6573-4.08,8.85-7.8468,13.0617-8.8214,5.5727-1.286,11.1454,1.7147,11.1454,1.7147l3.4294,3.858s18.4328,21.4335,25.72,34.7222,4.2867,17.5755,4.2867,17.5755l-3.0007,3.858-17.5755,5.5727-21.8621-15.4321c-9.1673-6.4736-21.4284-16.8088-21.902-28.86C190.6453,315.969,194.2182,310.6347,197.5443,306.9241Z"/><path class="i" d="M1.4154,350.4s0,7.2873,9.002,6.43,13.2888-4.7154,13.2888-4.7154A158.1283,158.1283,0,0,0,41.71,337.9689c9.4307-8.5733,21.0048-24.4341,21.0048-24.4341l3.858,7.716-.4287,7.7161L47.283,346.971l-12.86,11.5741-9.002,6.0013S.1294,363.6891,1.4154,350.4Z"/><path class="i" d="M194.3166,311.3914s18.0041,24.0055,27.8635,32.15a129.952,129.952,0,0,0,17.5755,12.4315l8.5733,1.286,6.8588-1.286a20.345,20.345,0,0,1-9.0021,6.0013c-5.5727,1.7147-13.7174,3.4294-13.7174,3.4294l-22.7195-18.8615L196.46,334.1109S186.6006,325.5375,194.3166,311.3914Z"/><path class="i" d="M136.0176,307.5334s-11.1454-2.1433-19.29,4.7154-6.8587,18.8614-6.8587,18.8614,3.4294,21.4335,7.2874,32.5789a188.0343,188.0343,0,0,0,10.2881,23.1482l-2.572.8573a199.3187,199.3187,0,0,1-13.2888-24.8628c-5.5727-12.86-8.1447-33.8649-8.1447-33.8649s.8573-12.4314,11.5741-19.7188S132.5882,304.5327,136.0176,307.5334Z"/><path class="d" d="M107.2918,95.89a3.6757,3.6757,0,0,0-1.6548.4579c-2.171,1.2623-1.63,4.9075-2.0627,7.2492-1.0283,5.5608,25.5535,6.6177,29.8712,6.32a120.2181,120.2181,0,0,0,22.7195-3.858c2.4137-3.6217,1.5088-12.93-4.4436-11.2827a89.0355,89.0355,0,0,1-24.4392,3.5772c-3.705-.0005-7.4163-.1526-11.1113-.44C113.833,97.7315,110.07,95.7276,107.2918,95.89Z"/><path class="j" d="M35.28,199.5087s-5.144.4287-7.2873,2.1434-7.2874,12.4314-7.2874,12.4314-3.858,15.8607-2.572,25.2915,7.716,21.8621,7.716,21.8621,10.7168,12.4314,16.29,15.0034,27.0061,8.5734,44.5816,10.2881,30.4355,3.0007,30.4355,3.0007l49.7257-2.1434s29.1495-3.858,36.8655-6.43,20.5762-11.5741,20.5762-11.5741,9.002-10.288,12.86-21.4334,1.7147-24.4342,1.7147-24.4342l-3.858-13.2887-3.4294-6.43-3.858-3.4293h-3.4293l3.0006,18.4327s-10.7167,14.5748-65.1577,20.1475-78.8752-1.7147-78.8752-1.7147l-39.4376-9.8594-11.1454-6.43S34.4229,201.6521,35.28,199.5087Z"/><path class="k" d="M83.2912,237.2316l-20.616-5.1541c-11.6143,8.6-18.5259,19.3726-18.5259,31.0674a31.4727,31.4727,0,0,0,4.1108,15.319,210.4538,210.4538,0,0,0,38.4605,8.0647c17.5754,1.7146,30.4355,3.0007,30.4355,3.0007l49.7256-2.1434s29.15-3.858,36.8657-6.43c5.5855-1.8618,13.8631-7.0911,18.01-9.838a29.9255,29.9255,0,0,0,1.0912-7.973c0-12.0676-7.359-23.1531-19.6507-31.8829-9.6486,2.979-22.9174,5.83-41.0319,7.6843C107.7254,244.519,83.2912,237.2316,83.2912,237.2316Z"/><path class="l" d="M19.0952,221.8441a21.9131,21.9131,0,0,0,7.4021,11.5479c1.306,1.0556,2.784,2.0164,3.562,3.5045a8.3709,8.3709,0,0,1,.7387,2.5342,32.2867,32.2867,0,0,1-.5418,13.1123c-.5252,2.0863-1.7633,4.5057-3.9146,4.5153-1.8688.0083-3.1459-1.8409-3.9693-3.5185a47.3813,47.3813,0,0,1-3.5383-31.4972,1.2649,1.2649,0,0,1,.5079,1.5224Z"/><path class="l" d="M47.0288,238.403c-3.0825.57-4.5761,4.0936-5.1041,7.1837a26.6561,26.6561,0,0,0,.9925,13.6326,18.7087,18.7087,0,0,0,8.7722,10.2689c2.643,1.3468,6.25,1.7723,8.2709-.3987a7.5177,7.5177,0,0,0,1.4-2.49,36.4944,36.4944,0,0,0,2.1151-10.7516,19.5313,19.5313,0,0,0-.7874-8.0475,13.5373,13.5373,0,0,0-7.0123-7.3147,19.7466,19.7466,0,0,0-10.1508-1.57Z"/><path class="l" d="M85.931,247.2267a7.757,7.757,0,0,0-5.9158,2.741c-2.95,3.7377-2.8324,10.0544-2.7663,14.4467a11.3984,11.3984,0,0,0,3.5007,8.5187c1.9706,1.6974,4.5955,2.3877,7.1378,2.9369a110.2524,110.2524,0,0,0,12.1725,1.9245c2.1441.217,4.438.342,6.3213-.7056,3.2557-1.8111,3.8594-6.1546,4.09-9.873l.3405-5.4983c.1664-2.6872.2821-5.5818-1.1738-7.8465-1.9635-3.0543-5.9987-3.8534-9.5914-4.38C96.2441,248.9342,90.5759,246.9283,85.931,247.2267Z"/><path class="l" d="M134.9184,250.6066c-2.6563-1.399-6.1044.366-7.55,2.9974s-1.4025,5.8012-1.2207,8.7979q.3565,5.8788,1.2324,11.7106a4.3385,4.3385,0,0,0,.7984,2.258,4.3941,4.3941,0,0,0,2.9595,1.1113q10.7424,1.1689,21.5648,1.284c2.9014.0307,6.1529-.14,8.1349-2.2594a9.4752,9.4752,0,0,0,2.04-5.3414,37.1951,37.1951,0,0,0-1.48-16.3293,6.6706,6.6706,0,0,0-1.5744-2.9067c-1.3713-1.2849-3.4588-1.32-5.3375-1.2791l-20.7572.4489,1.7731-.8582Z"/><path class="m" d="M167.8056,118.7173s21.1514,26.1508,28.0736,46.1485,13.46,62.3005,13.46,62.3005l11.9217-3.4611,5.6346-3.62S220.8764,179.48,212.8,162.943s-28.3432-45.31-28.3432-45.31l-9.0021-9.0021-9.5724,5.0871-4.9994.7691S160.8833,118.7173,167.8056,118.7173Z"/><path class="l" d="M183.1663,244.2915c-3.3785.3546-5.9106,3.5256-6.6442,6.8425s-.0634,6.7643.6066,10.0946q.56,2.7843,1.12,5.5686a14.125,14.125,0,0,0,1.1212,3.7414c1.7557,3.4008,6.0119,4.8123,9.8324,4.5852s7.43-1.7313,11.1266-2.7225a22.2345,22.2345,0,0,0,5.0562-1.6812c3.6914-2.03,5.4666-6.5375,5.3735-10.7491s-1.7306-8.22-3.4241-12.077c-1.0651-2.426-2.4277-5.0848-4.9489-5.8991-2.1329-.6888-4.4141.1752-6.55.8542a40.5193,40.5193,0,0,1-13.61,1.8771Z"/><path class="l" d="M238.0356,222.0938a95.434,95.434,0,0,1-16.7244,15.5474,5.1173,5.1173,0,0,0-1.4646,1.3866,4.6344,4.6344,0,0,0-.4821,2.3711,31.8281,31.8281,0,0,0,2.1622,11.8546c.6267,1.609,1.5971,3.346,3.28,3.7332,1.5519.357,3.0884-.5865,4.3259-1.5886a29.0319,29.0319,0,0,0,8.5311-32.2258Z"/><path class="f" d="M19.42,229.0869l3.9367,4.1242c.9868,1.0337,1.936,2.1317,2.9731,3.1147,1.1224,1.0638,2.3157,1.5282,2.9176,3.1082a13.5185,13.5185,0,0,1,.46,6.8c-.43,2.365-.5363,8.0687-3.548,8.6982a6.8216,6.8216,0,0,1-1.9978.0186,18.029,18.029,0,0,0,.9467,3.0163,8.636,8.636,0,0,0,2.2458,2.5728c1.9528,1.5506,3.99.3065,4.9255-1.8752,1.286-3.0007,1.286-13.2888,1.286-13.2888l-.4287-9.4307-1.7147-2.1433s-6.43-3.8581-7.716-6.8587-3.8581-8.5734-3.8581-8.5734Z"/><path class="f" d="M66.2845,245.3429c-.591-2.897-4.86-4.8215-7.4782-5.8815a21.0234,21.0234,0,0,0-4.0852-.9757,26.1873,26.1873,0,0,0-4.4754-.8429,15.7394,15.7394,0,0,0-3.9846-.4036,6.1728,6.1728,0,0,0-2.2128.577l.3333-.2377c-2.0214.8278-3.16,2.99-3.7523,5.0918-1.3868,4.918-.6827,10.1588.1645,15.1978a20.5889,20.5889,0,0,0,1.2025,4.7343c1.7157,4.0044,5.6726,6.5572,9.6127,8.4157a17.0534,17.0534,0,0,0,6.0273,1.8534,7.144,7.144,0,0,0,5.781-2.038c1.6153-1.7831,1.8684-4.3769,2.0423-6.7766l.9345-12.9091A21.3376,21.3376,0,0,0,66.2845,245.3429Zm-4.8952,5.0014q-.2985,4.5238-.5984,9.0478c-.2044,3.0911.2441,6.3422-1.2069,9.1917a.779.779,0,0,1-.291.3591.81.81,0,0,1-.4534.0485,18.1808,18.1808,0,0,1-6.3546-1.4562,20.3181,20.3181,0,0,1-3.0358-1.9972,21.8421,21.8421,0,0,1-3.6972-3.2254c-1.4947-1.7617-1.5417-3.4318-2.04-5.5143a33.9457,33.9457,0,0,1-.681-8.3682,9.9691,9.9691,0,0,1,.75-4.37,4.8633,4.8633,0,0,1,3.9164-2.5727,10.852,10.852,0,0,1,4.1254.5938c3.0984.929,8.1862,2.31,9.3954,5.761A6.2992,6.2992,0,0,1,61.3893,250.3443Z"/><path class="f" d="M114.0011,256.72a15.7948,15.7948,0,0,0-2.551-6.2618l-9.9726-2.7831s-13.2193-3.5947-18.7854-2.0872a11.4586,11.4586,0,0,0-4.87,3.4788c-1.6236,2.3191-2.4353,7.3054-2.4353,7.3054L74.227,268.2s-1.5074,3.0149,2.4352,6.3777a18.2845,18.2845,0,0,0,7.3054,4.0586s12.06,1.5075,16.4663,1.9713,9.0448.116,10.32-1.0436,2.783-4.7543,3.1309-7.5374S114.8128,260.7789,114.0011,256.72Zm-4.7543,7.6533c-.2318,1.7394-.58,7.7693-1.7394,10.2044a3.49,3.49,0,0,1-3.8266,1.8554L93.94,275.1579l-10.7843-2.2033a13.9549,13.9549,0,0,1-3.2469-2.899c-.9276-1.3915-.8117-5.3341-.8117-5.3341l1.6235-9.8566s.58-2.6671,1.7394-3.5947a10.634,10.634,0,0,1,3.7107-1.3915l8.5809,1.5074,8.697,1.2756,3.3628,1.2756a4.9835,4.9835,0,0,1,1.9715,2.899A21.2975,21.2975,0,0,1,109.2468,264.3736Z"/><path class="f" d="M165.6031,263.5619c-.58-3.3628-2.2031-13.3354-2.2031-13.3354l-5.6821-3.5947-8.2332.8117-17.2778,1.6235s-4.0586.58-5.6821,2.667-2.667,6.2618-2.667,6.2618l.9276,16.4663a7.0134,7.0134,0,0,0,4.5224,4.5224,36.2075,36.2075,0,0,0,8.465,1.5075l20.177.4638a7.2626,7.2626,0,0,0,5.5661-4.0586A25.205,25.205,0,0,0,165.6031,263.5619Zm-4.0586,3.5947s-.2319,4.7544-2.551,6.8416-7.1894,3.015-7.1894,3.015l-13.1036-.2319a32.8177,32.8177,0,0,1-6.3776-1.8554c-2.0874-1.0436-3.0151-5.3341-3.0151-5.3341l-.9276-6.61s-.3479-3.7107,1.0436-6.2618a8.5812,8.5812,0,0,1,3.2468-3.4788l3.363-.8117s12.6395-.3479,16.2342-.8117a10.3837,10.3837,0,0,1,6.1459,1.0436s.9277.6957,2.0873,4.7543A40.0583,40.0583,0,0,1,161.5445,267.1566Z"/><path class="f" d="M212.6827,257.416a25.5394,25.5394,0,0,0-3.0149-10.7842c-2.899-5.1022-3.9426-5.682-3.9426-5.682a31.0149,31.0149,0,0,0-7.5374.3479c-4.7543.6957-9.2768,1.5074-9.2768,1.5074l-9.5087,2.2033s-2.7831-.3479-4.1745,3.3628-.6957,10.4364-.6957,14.1471a26.9248,26.9248,0,0,0,1.6233,8.0011s1.8554,3.7108,3.9426,4.9863a11.0329,11.0329,0,0,0,4.9863,1.2756,28.8558,28.8558,0,0,0,11.2481-1.16c5.45-1.8554,9.8567-3.015,9.8567-3.015s4.0584-2.3191,5.45-5.798S212.6827,257.416,212.6827,257.416Zm-4.2905,8.581a19.989,19.989,0,0,1-3.5947,3.5948,30.2694,30.2694,0,0,1-7.4214,2.5511,90.7263,90.7263,0,0,1-9.3928.4638,24.8316,24.8316,0,0,1-5.334-1.3915c-2.0874-.9276-3.131-4.0586-3.131-4.0586l-.6957-7.6533s-.9277-5.3342,0-8.9289,3.4788-3.9426,3.4788-3.9426c1.6233-1.16,7.0735-1.5075,7.0735-1.5075l11.9438-.3479a7.069,7.069,0,0,1,4.4065,2.0873,12.8332,12.8332,0,0,1,2.551,5.3341s1.0437,5.914,1.16,7.3055S209.204,264.6055,208.3922,265.997Z"/><path class="f" d="M237.498,220.193s-.4638,2.4352-4.7543,6.1459-6.7256,5.3341-7.0735,5.45-5.3342,2.6671-6.1459,3.9426a9.2023,9.2023,0,0,0-1.2755,5.5661c.1159,2.5511,1.9713,6.9575,1.9713,6.9575l1.2755,7.19s1.0437,3.015,2.7831,3.4788,4.0585-.1159,6.3777-2.2032,6.3778-6.8416,6.3778-6.8416,1.3915-7.6533,1.2756-7.3055-4.0586,5.2182-4.0586,5.2182l-5.914,6.03a3.19,3.19,0,0,1-2.4351,0,5.2728,5.2728,0,0,1-1.7394-2.0873l-1.9713-8.581s0-3.4788.6957-4.5224a7.0935,7.0935,0,0,1,2.4352-1.8553,91.3974,91.3974,0,0,0,8.2331-4.4065c1.5075-1.16,5.682-6.3778,5.682-6.3778Z"/><path class="b" d="M124.29.5857a7.4925,7.4925,0,0,0-4.8088,6.4372,6.2394,6.2394,0,0,0,4.6972,6.2524,8.8071,8.8071,0,0,0,3.6053-.1684,4.7836,4.7836,0,0,0,2.3176-1.0183,4.9666,4.9666,0,0,0,1.2226-2.7294,8.6269,8.6269,0,0,0-.3331-5.66C129.5519.93,125.6638.1459,122.8073,1.403Z"/><path class="n" d="M23.976,209.8607s-3.4595,5.3813-3.0768,6.5368c1.167,3.5245,7.6632,8.0706,10.5809,9.88,14.22,8.82,29.916,11.154,46.1465,14.1552a300.861,300.861,0,0,0,62.5724,5.066,228.5476,228.5476,0,0,0,37.928-3.8564c16.9175-3.3345,35.5643-6.95,50.0562-16.7837,10.768-7.3068,7.6914-12.6908,7.6914-12.6908l-2.692-4.23a20.951,20.951,0,0,1-13.1458,16.4337c-12.0028,4.7154-36.4638,11.64-36.4638,11.64s-39.6108,5.384-59.9931,4.9994a325.1116,325.1116,0,0,1-38.0725-3.0766l-38.8417-9.9988-15.3828-6.5377S23.976,213.3218,23.976,209.8607Z"/><path class="o" d="M37.0514,278.3143s11.9217,9.6143,49.61,13.8445,86.1439.3846,102.68-3.0765,34.6114-12.6909,34.6114-12.6909l.3706-7.01-25.3677,13.1628L154.73,287.544l-56.1474.3846-32.304-4.23L47.05,277.93l-12.1987-7.6905Z"/><path class="p" d="M140.501,119.1019a354.7008,354.7008,0,0,1,14.6137,51.9171c5.384,27.6891,7.0517,67.9273,7.0517,67.9273l44.4808-9.4725,17.3057-6.9223s-1.5383-25.3817-16.5365-58.4548-34.996-53.4554-34.996-53.4554A269.117,269.117,0,0,1,140.501,119.1019Z"/><polygon class="c" points="192.602 129.636 186.172 131.35 187.458 136.066 198.603 153.212 206.319 150.64 192.602 129.636"/><path class="q" d="M96.2754,113.3333s-2.692.7692-3.0766,2.692,1.5383,3.4612,1.5383,3.4612S77.0468,138.715,69.74,154.4824s-23.0743,73.4531-23.0743,73.4531,15.7674,5.384,27.3045,7.6914,28.8429,4.6149,28.8429,4.6149,6.1531-73.8377,8.46-96.1428,2.8818-26.4661,2.8818-26.4661S98.1982,114.8716,96.2754,113.3333Z"/><path class="r" d="M87.6026,113.1722s-8.133,4.82-22.29,30.1223-21.3868,55.1238-21.3868,55.1238-3.5546,10.68-3.3135,14.4587,17.471,11.7477,34.9419,15.3624a342.3215,342.3215,0,0,0,44.581,6.0245c9.6391.6024,15.3624,1.2049,15.3624,1.2049l-6.3257-112.6574S104.7723,125.2212,87.6026,113.1722Z"/><path class="s" d="M35.28,199.5087S45.8966,214.86,83.9691,222.9361s91.1433-1.5383,91.1433-1.5383,26.87-7.363,34.6114-10.768,14.6-10.2637,14.6-10.2637,5.7155-.7131,7.2873,3.4293,3.2441,8.9165-.7356,12.603-10.768,9.9988-31.15,14.6137-41.1491,7.3068-41.1491,7.3068a192.8667,192.8667,0,0,1-49.9943,1.1537c-26.1508-3.0765-39.6108-5.384-39.6108-5.384l-23.8434-7.3068-12.4192-5.84s-9.5013-7.2358-6.8093-14.9273S35.28,199.5087,35.28,199.5087Z"/><path class="t" d="M179.1218,254.0493c-.967-3.2327,6.49-5.4036,8.5573-5.9a27.57,27.57,0,0,1,13.0093-.1719c3.7649.986,5.0211,5.4817,5.2252,9.1558.2371,4.2676.7113,7.1127-.7113,9.2465a24.6519,24.6519,0,0,1-4.5047,4.5047s5.5825-2.6993,6.6385-3.7934,2.3709-5.69,2.1338-8.5353-2.135-10.6619-2.135-10.6619a15.2483,15.2483,0,0,0-7.3486-3.3264c-4.5047-.7113-12.8029.4741-12.8029.4741l-6.6385,2.371S177.7,249.3091,179.1218,254.0493Z"/><path class="u" d="M229.6806,251.1532c.38.2737.8762-.12,1.175-.4811l2.8074-3.3929a27.6574,27.6574,0,0,0,2.97-4.07c2.4044-4.3128,2.3316-9.5232,2.1951-14.4591a1.2414,1.2414,0,0,0-.39-1.0666c-.4854-.3079-1.0776.1654-1.4626.5922a36.3421,36.3421,0,0,1-10.9286,8.5977,5.9536,5.9536,0,0,1,3.3256,3.1759,15.5082,15.5082,0,0,1,1.5293,5.4205C230.9267,246.0593,229.6908,251.1606,229.6806,251.1532Z"/><path class="t" d="M160.608,261.2246c-.0305.3023-.0331.6057-.0464.9086l.011.0407Q160.5921,261.6986,160.608,261.2246Z"/><path class="t" d="M160.7623,262.1458l-.534-3.6086c-.2584-1.7465-.5693-3.607-1.767-4.9043,1.234,4.1571.7,8.5427.8934,12.768.2957,6.4765-6.132,6.7675-10.8476,7.1583-1.5748.1305-3.1809.1312-4.7582.2547-3.5254-.3707-7.168-.9128-9.7139-2.4665-4.5056-2.75-4.41-13.483-.6-16.6055.19-.1561,3.6007-2.311,3.1828-2.4532-2.6117-.8887-6.4666,1.6268-7.5685,3.9857-.9053,1.9381-.6349,4.1953-.3456,6.3147q.3217,2.3565.6435,4.713c.3331,2.44.657,6.4538,3.1812,7.7688,5.4023,2.8141,13.3561,1.8915,19.2,1.6606a13.7842,13.7842,0,0,0,4.29-.6266c4.0731-1.5164,5.89-6.2067,5.3-10.1941Z"/><path class="t" d="M85.1823,250.276a2.9152,2.9152,0,0,0-2.8642,1.358,8.5593,8.5593,0,0,0-1.1145,3.15q-.3762,1.7757-.7523,3.5514c-.678,3.2014-2.7818,11.2522.5277,13.6451a6.1519,6.1519,0,0,0,1.9205.8078,136.2094,136.2094,0,0,0,16.7009,3.43c3.0869.5038,6.34.8348,7.7813-2.5514a12.2318,12.2318,0,0,0,.7239-4.65c-.3718,1.9383-.9,4.1087-2.6022,5.1082-1.4248.8368-3.2134.5658-4.8388.2688L91.4477,272.71a19.6893,19.6893,0,0,1-6.538-2.0041c-5.2865-3.1061-2.8925-9.1164-1.92-13.9934a4.4332,4.4332,0,0,1,1.208-2.6478c3.0467-2.544,9.15-2.4576,12.81-2.0548-3.2058-1.26-11.39-4.442-14.0828-.7725Z"/><path class="t" d="M43.8869,245.5788c-.5682,4.918-1.6984,13.791,2.64,17.4552a45.8913,45.8913,0,0,0,5.7776,4.1573c1.7524,1.0649,3.8089,2.0424,5.7847,1.4936a2.2677,2.2677,0,0,0,1.7573-1.675,2.1507,2.1507,0,0,1-1.9718.6066,6.3448,6.3448,0,0,1-1.99-.801q-2.4823-1.3437-4.9646-2.6875a12.1964,12.1964,0,0,1-2.2-1.4026,8.2052,8.2052,0,0,1-2.5321-5.04c-.7477-4.926-.6636-16.37,7.3346-14.5922-2.4116-.536-6.297-2.9524-8.6444-.4414A4.9973,4.9973,0,0,0,43.8869,245.5788Z"/><path class="t" d="M227.5024,235.9159c-2.6463,1.231-3.3651,4.1666-3.2443,6.8508.168,3.73,1.5257,11.05,6.3381,6.32a38.9036,38.9036,0,0,0,8.1084-11.5816,8.5332,8.5332,0,0,1-1.08,5.9389,25.3655,25.3655,0,0,1-3.8108,4.8371l-2.9311,3.1557c-7.6524,8.2387-11.5033-10.4436-6.618-14.1236a12.19,12.19,0,0,1,4.1925-1.745A6.1113,6.1113,0,0,0,227.5024,235.9159Z"/><path class="t" d="M22.629,249.311a10.65,10.65,0,0,0,3.9018,2.915,1.4241,1.4241,0,0,0,.8287.1629.538.538,0,0,0,.45-.6149,2.7184,2.7184,0,0,1-3.3064,3.3144c-1.8441-1.854-2.5018-4.5461-3.0834-7.0955a8.87,8.87,0,0,1,2.0672,2.329Z"/><path class="v" d="M138.3466,253.1146c-2.5419-.3295-5.43-.3829-7.3085,1.361-1.4526,1.3486-1.916,3.448-2.071,5.424a25.4075,25.4075,0,0,0,2.02,12.0592c.6472,1.4882,1.8491,3.139,3.4555,2.9082a4.05,4.05,0,0,0,1.39-.5768L152.1255,265a16.18,16.18,0,0,0,5.2481-4.0413c1.3252-1.7872,1.8106-4.397.5441-6.2262a5.57,5.57,0,0,0-3.9788-2.1218,20.1763,20.1763,0,0,0-4.6311.2237,60.3032,60.3032,0,0,1-12.9431.06Z"/><path class="w" d="M102.5363,262.9691c2.2012-.8629,4.6819-2.3729,4.6728-4.7372a4.2552,4.2552,0,0,0-2.1189-3.3855,12.5616,12.5616,0,0,0-3.8983-1.41l-11.8371-2.8505c-1.9184-.462-4.0515-.8984-5.7743.0635-2.1326,1.1907-2.6928,3.9506-3.0307,6.37-.4659,3.3365-1.5358,8.4972-.5137,11.7776a4.3865,4.3865,0,0,0,2.9567,2.967c3.626.9335,5.4068-2.5887,7.9816-4.1752C94.4909,265.4215,98.721,264.4648,102.5363,262.9691Z"/><path class="x" d="M46.12,249.4722a22.461,22.461,0,0,0-.5606,5.6222,9.6742,9.6742,0,0,0,.7059,4.0739,9.8861,9.8861,0,0,0,2.1332,2.7829c2.75,2.7129,6.2155,4.9749,10.0715,5.2057a.9415.9415,0,0,0,.634-.1193.9866.9866,0,0,0,.288-.668,132.5439,132.5439,0,0,0,.9484-14.2154c.164-3.9877-4.1574-6.8337-7.7312-7.2616C48.6616,244.42,46.89,246.5668,46.12,249.4722Z"/><path class="y" d="M21.93,247.8868a5.7662,5.7662,0,0,0,2.3244,1.97,1.7131,1.7131,0,0,0,1.1033.1969c.6993-.1715.9872-.9895,1.1606-1.6883.7881-3.1747,1.4985-6.78-.2926-9.517-.9416-1.4388-2.45-2.4051-3.5547-3.7232a16.5264,16.5264,0,0,1-1.8295-2.9346l-1.9873-3.7479c-.93,6.7339,1.0886,13.4939,3.21,19.952Z"/><path class="z" d="M182.8753,246.76a2.3534,2.3534,0,0,0-2.5561,1.1365,6.3971,6.3971,0,0,0-.76,2.8846,59.389,59.389,0,0,0,.0921,11.76c.3611,3.36,1.4822,7.2692,4.6827,8.354a3.4073,3.4073,0,0,0,2.3782.0065,5.7325,5.7325,0,0,0,2.4015-2.7644,31.068,31.068,0,0,1,7.73-9.01c3.0872-2.44,6.87-4.59,8.0684-8.3382a4.6758,4.6758,0,0,0-.175-3.6778c-1.1749-2.09-4.0529-2.2908-6.45-2.2339l-8.468.2013c-3.6827.0875-7.9311.4629-10.0364,3.4857Z"/><path class="aa" d="M177.4574,248.6217c-.723-.34-1.3211.66-1.4819,1.442a35.6988,35.6988,0,0,0,1.0962,18.377c.27.8114.9593,1.7967,1.74,1.4475a8.173,8.173,0,0,0,.5649-4.3449q-.4413-8.34-.8825-16.6808l-.7935.0208Z"/><path class="aa" d="M185.2992,243.0006c-1.9171.5171-4.0807,1.24-4.85,3.0707a9.2044,9.2044,0,0,0,2.7692-.3152c5.45-1.0929,11.226-.5255,16.4634-2.3882.7953-.2828,1.735-1.03,1.33-1.77a1.27,1.27,0,0,0-.621-.5c-2.1985-.9973-4.6719.3558-7.0367.8413-2.62.5377-5.4678,0-7.9069,1.0974l-.6718-.8075Z"/><path class="aa" d="M128.8562,257.7152c.4612-2.0463-.3808-3.9752-2.2825-2.3181-1.0722.9342-1.2061,3.0786-1.3224,4.3674-.301,3.3381.3593,6.6556.5811,9.9765a10.2312,10.2312,0,0,0,1.2342,5.0509,2.842,2.842,0,0,0,2.26-.06c1.0822-.7172.6876-2.3613.2655-3.589A24.7884,24.7884,0,0,1,128.8562,257.7152Z"/><path class="aa" d="M133.3573,248.8419a2.4569,2.4569,0,0,0-2.2642.871,1.7467,1.7467,0,0,0,.1825,2.3006,2.97,2.97,0,0,0,2.0182.44l11.1246-.2755a39.9742,39.9742,0,0,0,8.7714-.8667,4.6883,4.6883,0,0,0,2.6215-1.391,1.9088,1.9088,0,0,0-.1745-2.6834,2.6557,2.6557,0,0,0-1.4912-.3218,41.7549,41.7549,0,0,0-4.3748.2866l-16.8865,1.7017Z"/><path class="aa" d="M83.9794,246.1883c-.6968-.498-1.76.28-1.731,1.1355a2.111,2.111,0,0,0,1.6258,1.77,9.2133,9.2133,0,0,0,2.5541.1632c3.1524.0159,6.17,1.2191,9.2889,1.6794,2.0766.3065,4.203.2838,6.2455.768a19.4048,19.4048,0,0,0,2.846.6376,3.2748,3.2748,0,0,0,2.6881-.8535,1.8318,1.8318,0,0,0-.0494-2.5942,2.88,2.88,0,0,0-1.2341-.4444l-15.47-3.0032c-2.4318-.4721-5.1706-.8853-7.2021.5323-.1664.1161.07.4478.0311.2486Z"/><path class="ab" d="M134.1229,306.6424a230.8238,230.8238,0,0,1,1.5911,38.27q-.3889,9.3754-1.5389,18.6972c-.4543,3.6936-.5463,10.1056-4.64,11.775-8.727,3.5589-11.8242-16.19-13.4962-21.0832-2.7154-7.9465-4.9572-16.1312-5.04-24.5866a135.492,135.492,0,0,0,15.48,55.2619,7.598,7.598,0,0,0,2.35,3.059c1.887,1.21,4.5413-.61,6.1852-1.6156,8.9914-5.4983,12.4182-16.6757,14.9072-26.9169,2.3008-9.4669,4.4189-19.1419,3.7776-28.8633-.3365-5.101-1.5036-10.3033-4.4829-14.4575-3.8378-5.351-10.1221-8.283-16.1247-10.99l1.2487,2.4Z"/><path class="ac" d="M107.863,346.2667c.4821-8.5231,3.3807-17.5772,10.41-22.4205,6.8308-4.706,16.5594-4.2165,23.404.4694s10.7641,13.0277,10.9211,21.3212c2.3612-9.7007,1.6485-20.449-3.5756-28.9571s-15.4153-14.21-25.2681-12.5976c-8.1785,1.3386-15.3134,7.3269-18.839,14.7173-4.046,8.4812.3065,19.6286,2.78,28.2328Z"/><path class="ad" d="M32.27,302.6294,19.9366,319.2961,7.6033,337.6294s-6.6667,10.6667-3.3333,14,13.3333,1.3334,20.6666-3.3333,23.3334-22,23.3334-22l12.6666-17.3333S51.6033,290.9628,32.27,302.6294Z"/><path class="ae" d="M31.2715,306.2887c.4608-2.1648,6.4906-1.8953,8.0681-1.5518,3.3168.7221,6.8821,3.5276,9.3887,5.6936,7.6856,6.6413,13.2963,17.0665,9.486,27.0347,1.9372-3.725,6.8275-5.3936,8.058-9.5369.4074-1.3718.0711-3.34-.0517-4.7227-.6765-7.6173-4.08-14.9235-10.284-19.5762-12-9-15-5-15-5S32.94,298.2962,31.2715,306.2887Z"/><path class="af" d="M5.6033,358.9628a30.121,30.121,0,0,0,16-1.6667c8-3.3333,21.6667-16,21.6667-16l21.3333-24.3333,2,7.3333-.331,3.6322S54.27,340.6294,46.27,347.6294s-15.6667,13.3334-15.6667,13.3334l-5.1824,3.5836S8.27,363.2961,5.6033,358.9628Z"/><path class="ag" d="M18.27,354.9628l3,5.6666,4.1509,3.917a12.3844,12.3844,0,0,1-8.8176-.917,94.6711,94.6711,0,0,0-11-4.6666l-2.6667-4S8.27,359.6294,18.27,354.9628Z"/><path class="ah" d="M38.27,291.6294a7.4386,7.4386,0,0,0-3.6667,1.6667c-1.3333,1.3333.6667,5.6667.6667,5.6667a23.3662,23.3662,0,0,1,12-1,17.95,17.95,0,0,1,9,4.6666l4.6666,6.3334s6.3334,1.3333,5-2.3334a21.074,21.074,0,0,0-4.3333-6.6666S49.6033,284.9628,38.27,291.6294Z"/><path class="ah" d="M113.27,302.9628l-7,5.3333-6,9.3333s-2.3334,5.3334-1,8.3334a4.837,4.837,0,0,0,4.1687,3.0041s.4979-11.0041,6.8313-16.6708,10.3155-6.4774,10.3155-6.4774,10.3511-4.1893,16.3511-1.1893a42.8735,42.8735,0,0,1,10.6667,8s6,4,6.3333.6667-2.3333-7-2.3333-7S133.6033,290.9628,113.27,302.9628Z"/><path class="ah" d="M186.27,316.9628l4.6666,2.3333s2-8.6667,8.3334-14.3333,9.6214-6.86,9.6214-6.86l6.0452-1.14a2.9716,2.9716,0,0,0,1-3.6667,9.2257,9.2257,0,0,0-3-3.6667S193.6033,292.9628,186.27,316.9628Z"/><path class="ai" d="M73.6033,326.6294s6.6667,1.3334,12.3333,2.6667a26.9663,26.9663,0,0,0,9.6667.6667l1.6667,6.3333-16.3334-2.6667-8.7908-3.8052Z"/><path class="ai" d="M161.7377,331.5389a104.345,104.345,0,0,0,13.1989-1.91,44.3451,44.3451,0,0,0,9.9493-3.6632l.4286,5.144L171.27,336.2961l-11.247,2.53Z"/><path class="aj" d="M198.27,308.2961s19.6666,26.6667,32.3333,36.3333,19.6667,12.6667,22.3333,11.6667,4-4.3333,3-8.6667-13-21.6666-13-21.6666l-21.1852-26.1454a12.2385,12.2385,0,0,0-12.86-1.7147A21.3029,21.3029,0,0,0,198.27,308.2961Z"/><path class="ak" d="M192.27,317.6294s19.3333,21.3334,25.6666,27.6667a67.4088,67.4088,0,0,0,19.6667,13c3.6667,1.3333,14.6667-.3333,14.6667-.3333l2.9177-1.99a17.92,17.92,0,0,1-9.0021,6.0013c-6.249,1.9884-11.5741,3.4294-11.5741,3.4294s-6.6749-2.441-8.6749-4.441S204.27,341.2961,204.27,341.2961l-7.81-7.1852S189.6033,325.9628,192.27,317.6294Z"/><path class="al" d="M199.27,335.2961s-5.3334-13.6667,5.3333-24.3333,22-6,22-6l-6-6s-5.3333-3.6667-13,.3333-15,16-15,16S188.9366,328.6294,199.27,335.2961Z"/><path class="ai" d="M212.9366,289.6294s-10.3333,1-18,7.3334-12.6666,16.3333-13.6666,20,.6666,15,.6666,15l3.3779-.8526s-1.3779-11.8141,1.2888-17.8141S197.27,292.9628,212.9366,289.6294Z"/><path class="ai" d="M140.9366,298.6294s17,5,22,14.3334,6.6667,21.3333,6.6667,21.3333l-7.8656-.1852S166.6033,312.2961,140.9366,298.6294Z"/><path class="ai" d="M119.6033,299.2961s-11.6667,2.3333-19.3333,10-9,21.6667-9,21.6667l5.31.1474s1.0233-10.1474,5.0233-16.1474S110.27,303.2961,119.6033,299.2961Z"/><path class="ai" d="M57.9366,294.9628a36.8383,36.8383,0,0,1,15.6667,17c5,11.6666,4.3333,18,4.3333,18L73.0032,328.11S75.9366,313.6294,57.9366,294.9628Z"/><path class="am" d="M138.9366,288.9628l-.6666,9.6666s12.6755,4.1413,17,11.6667a74.5134,74.5134,0,0,1,6.3333,14.3333l-.3333,10.6667-1.3334,5.6667L155.3077,347.4s18.6289-1.1036,24.9623-3.4369a160.418,160.418,0,0,0,16.19-7.7085s-10.8566.3751-11.5233-11.6249,8.9513-23.0974,8.9513-23.0974l9.3821-8.5692,9.6666-3.3334s2.3334-4.6666,2.3334-7.3333-.3334-7-.3334-7a116.8015,116.8015,0,0,1-31.6666,9.6667C164.6033,287.9628,138.9366,288.9628,138.9366,288.9628Z"/><path class="an" d="M66.8543,335.848s17.9362,5.7859,23.4328,7.2323a52.4451,52.4451,0,0,0,11.5717,1.4465l5.0092,1.1582s.7767,2.6026-4.1413,2.3133-21.697-4.3394-21.697-4.3394l-17.4573-7.4046Z"/><path class="an" d="M157.1138,344.8161s12.7289-.8679,22.2756-4.05,12.7289-5.2073,12.7289-5.2073l4.3416.6956s-12.2417,7.717-19.7187,8.5734-22.7195,2.572-22.7195,2.572Z"/><path class="ao" d="M172.7357,345.9733l-4.918,14.7539s-1.1572,1.7358-8.6788,3.1823-9.2574.8678-9.2574.8678l4.14-17.3776S166.5868,347.9762,172.7357,345.9733Z"/><polygon class="ao" points="146.306 373.977 158.85 373.167 161.309 365.404 155.089 366.802 149.735 366.69 146.306 373.977"/><path class="ap" d="M86.2919,344.399l4.5738,14.3032s4.9179,4.3394,10.4145,5.4966a103.0485,103.0485,0,0,1,11.5892,3.3483l-10.1427-1.034-8.29-.6806-7.2874-3.4294-7.716-20.1475Z"/><polygon class="aq" points="100.009 366.69 103.305 374.324 97.437 372.691 94.437 365.833 100.009 366.69"/><polygon class="ar" points="92.312 346.263 101.28 374.035 109.959 375.481 116.299 375.263 110.538 360.438 106.439 347.4 92.312 346.263"/><path class="as" d="M123.58,241.0109a330.9445,330.9445,0,0,1-34.7934-2.6245,6.1906,6.1906,0,0,0-1.9422,3.5973,297.6376,297.6376,0,0,0,53.3548,3.5153,238.5183,238.5183,0,0,0,33.26-3.0036l0-.0043c0-1.7169-1.0087-3.3585-2.834-4.8729C157.2424,239.1708,136.5309,241.2553,123.58,241.0109Z"/><path class="at" d="M80.0688,113.4053s14.9409,10.7456,53.8793,10.3269c41.7565-.449,45.3484-11.6739,45.3484-11.6739l-3.8414-3.4275s-12.7713,6.1215-32.5271,8.3664a123.0374,123.0374,0,0,1-35.0215-.8979l-23.3293-8.3258S77.8238,112.5073,80.0688,113.4053Z"/><path class="o" d="M166.7244,196.4694c-.283.064,1.6519,2.568,1.9344,2.8028,2.9554,2.4563,7.74,2.2064,10.7425.0055a4.3739,4.3739,0,0,0,1.4579-1.6346c.4684-1.0236.4348-3.7628-.63-4.3135-.8683-.4489-2.407.6339-3.2685.8284q-2.26.5106-4.5194,1.0205Z"/><path class="c" d="M90.5954,197.993c-2.5827,3.5236,1.7429,5.2179,4.7541,5.7174a6.5368,6.5368,0,0,0,1.9472.1218,6.6949,6.6949,0,0,0,3.1457-1.7246c.7753-.6314,1.6369-1.53,1.3223-2.4791-.0558-.1683-4.2084-.8918-4.544-.9628a55.9157,55.9157,0,0,0-6.625-.9765Z"/><path class="c" d="M135.4157,207.71a2.1179,2.1179,0,1,0,1.572,3.927,2.3653,2.3653,0,0,0,.5751-3.6448c-.8032-.81-2.45-.7674-2.8709.2923q-.0674-.2842-.1346-.5687Z"/><path class="au" d="M161.9366,82.6294s6.6667.3334,11,5.3334,3.3334,11.3333,1.6667,14.6666a76.5525,76.5525,0,0,1-5.3333,8.3334s-18.3334,6-31,6.6666-21.3334.6667-21.3334.6667l-25-7s-5.3333-6-5-14,11-14,11-14a85.0553,85.0553,0,0,0,28,4.6667C141.9366,87.9628,161.9366,82.6294,161.9366,82.6294Z"/><path class="av" d="M140.27,87.2961s3.6666,4,4.3333,12.6667-4,17-4,17,13.6667-1.3334,21.3333-3.3334,14.3334-7.6666,14.3334-7.6666,4.3333-9.3334-1.6667-17.6667-12.6667-5.6667-12.6667-5.6667Z"/><path class="aw" d="M82.6033,101.6294s12.3333,11,41,12.6667,50-8.3333,50-8.3333l6.3333-6A24.5128,24.5128,0,0,1,167.31,112.06c-9.04,3.5692-34.7071,6.5692-34.7071,6.5692s-17.3333,0-31-3.6666S82.9366,104.2961,82.6033,101.6294Z"/><path class="b" d="M163.0249,81.1958c2.3055-.3908,7.118,2.8555,8.7054,4.4164,3.974,3.908,6.6954,10.2945,4.54,15.6839-2,5-3.85,9.3452-3.85,9.3452s7.85-6.0119,7.85-14.6785S173.4447,79.43,163.0249,81.1958Z"/><path class="ax" d="M108.963,98.098a2.9306,2.9306,0,0,0-2.4083.4c-.4472.3569-1.6933,5.2778-1.2847,5.465a59.1932,59.1932,0,0,0,19.333,4.3333c5.9255.3486,18.9972,3.1127,16.5582-7.2071-.3938-1.51-17.0346-1.29-18.7646-1.3741a87.1226,87.1226,0,0,1-9.5611-.5566C111.7405,98.9818,110.2933,98.3289,108.963,98.098Z"/><path class="ay" d="M97.27,74.9628a65.7215,65.7215,0,0,0,23.6666,7c13.6667,1.3333,22.3334-.6667,22.3334-.6667l19.6666-6,1.8018,5.9s-20.8018,6.7668-26.4684,6.7668-20.6852-.3368-20.6852-.3368L103.27,84.6294l-8.4047-3.8621S94.9366,75.2961,97.27,74.9628Z"/><path class="az" d="M130.9366,64.9628,139.27,81.6294l9.6666-1.6666L159.27,75.6294l-19-13S134.9366,66.2961,130.9366,64.9628Z"/><path class="ba" d="M120.6033,63.2961l-20.6667,13s10.3334,4.3333,15.6667,5,19,.6667,19,.6667L128.27,64.6294Z"/><path class="bb" d="M126.0065,1.9505a2.5766,2.5766,0,0,1,1.4815,1.6958,4.7682,4.7682,0,0,1-1.6832,5.201,3.9575,3.9575,0,0,1-3.029.7819c-2.4114-.4555-2.8243-3.3305-2.141-5.3042a3.3541,3.3541,0,0,1,.7575-1.3117,4.4751,4.4751,0,0,1,1.7382-.9118A4.2334,4.2334,0,0,1,126.0065,1.9505Z"/><path class="c" d="M126.3181,14.3321l11.9544,49.2755s5.2358-1.02,5.0324-1.7018-13.2041-49.8172-13.2041-49.8172Z"/><path class="bc" d="M126.3181,14.3321,128.27,64.6294l-6.3255-1.3134s-4.6651-2.3326-4.6651-3.2073,6.8985-46.8334,6.8985-46.8334Z"/><path class="bd" d="M32.82,269.2457q1.7442,10.1689,4.4883,20.1134a1.556,1.556,0,0,0,2.9982-.8265q-2.7395-9.947-4.4884-20.1134c-.3376-1.9681-3.3344-1.1337-2.9981.8265Z"/><path class="m" d="M85.1239,107.2487a4.1771,4.1771,0,0,1-.9744-1.4163,188.8433,188.8433,0,0,0-48.7622,87.1121,186.0883,186.0883,0,0,0-4.6064,28.3384c-.1707,1.9934,2.9394,1.982,3.1091,0A185.0293,185.0293,0,0,1,86.3,108.0741,5.9613,5.9613,0,0,1,85.1239,107.2487Z"/><path class="be" d="M227.2689,265.69a4.4364,4.4364,0,0,1-3.2959,2.4024,196.8535,196.8535,0,0,1-5.073,22.7492,5.3247,5.3247,0,0,1,1.5706.53,4.0928,4.0928,0,0,1,1.15.9523,1.6084,1.6084,0,0,0,.2274-.4715,197.2153,197.2153,0,0,0,5.5195-25.3052A1.6234,1.6234,0,0,0,227.2689,265.69Z"/><path class="bf" d="M228.7093,219.34a191.2057,191.2057,0,0,0-52.58-112.9027c-.01-.01-.0208-.0161-.0308-.026a5.524,5.524,0,0,1-1.2673,2.2509,3.834,3.834,0,0,1-.4863.4112A187.7722,187.7722,0,0,1,225.6,219.34C225.8033,221.311,228.9147,221.3319,228.7093,219.34Z"/><path class="bg" d="M94.3687,80.409a16.77,16.77,0,0,0-9.86,27.3006c.8716,1.0652,2.3761-.4549,1.5115-1.5115A14.5852,14.5852,0,0,1,94.95,82.517c1.3818-.2455.7977-2.3568-.5811-2.108Z"/><path class="m" d="M164.7,82.3107c5.4923-.2292,10.2158,1.7608,12.89,6.7061a14.999,14.999,0,0,1-1.5929,16.6945c-.8643,1.0562.6395,2.5771,1.5115,1.5114a17.2026,17.2026,0,0,0,2.244-18.682c-2.9221-5.9715-8.5544-8.6713-15.0526-8.4162-1.4025.0551-1.4086,2.2449,0,2.1862Z"/><path class="m" d="M95.48,81.2176c1.31-10.645,15.961-12.64,22.29-19.2293a.6.6,0,0,0-.579-.9946c-3.0184.92-5.8185,3.1945-8.4963,4.8418-2.7043,1.6636-5.4952,3.2361-8.0643,5.1074-3.36,2.4473-6.7813,5.8073-6.632,10.2747a.7414.7414,0,0,0,1.4817,0Z"/><path class="bh" d="M165.4406,81.2176c.1492-4.4666-3.2717-7.8273-6.6321-10.2747-2.408-1.7539-5.0168-3.2327-7.5517-4.7921-2.8443-1.75-5.8082-4.1816-9.0089-5.1571a.6.6,0,0,0-.579.9946c6.3327,6.5927,20.9792,8.5814,22.29,19.2293a.7414.7414,0,0,0,1.4818,0Z"/><path class="d" d="M117.8178,61.6967c2.95-15.3781,4.7978-31.2058,6.5518-46.7683.1242-1.1011-1.6015-1.0923-1.7246,0-.9118,8.09-2.0812,16.1447-3.2055,24.2067-1.0367,7.4337-2.315,14.9259-2.576,22.4324-.0187.5378.85.6738.9543.1292Z"/><path class="bi" d="M129.3,14.1072q2.8237,12.3779,6.2081,24.6006c2.2516,8.113,4.3025,16.4233,7.151,24.349a.7172.7172,0,0,0,1.3819-.3809c-2.0484-8.1875-4.7818-16.243-7.0559-24.3753q-3.416-12.2153-6.8184-24.4323a.45.45,0,0,0-.8667.2389Z"/><path class="m" d="M131.42,12.0542c2.2891-3.2824,2.1828-8.5971-1.4167-10.9988-3.1279-2.0871-8.6607-.9526-10.6168,2.2918-1.932,3.2046-.2358,7.4747,2.3931,9.7377,2.5759,2.2174,8.2742,2.73,9.4241-1.3235a.5654.5654,0,0,0-.8207-.6309c-2.72,1.3493-5.1407,2.9428-7.8025.4319-1.7453-1.6463-2.9523-4.78-1.6825-7.0466,1.2782-2.2814,5.4112-3.26,7.6815-2.1037,3.2274,1.6447,3.0956,6.1573,1.33,8.7594C129.2748,12.1084,130.7822,12.9694,131.42,12.0542Z"/><path class="bj" d="M40.5694,179.28c7.9025,8.6266,18.4339,12.9957,29.5694,15.951a235.2251,235.2251,0,0,0,36.44,6.7643c24.5008,2.5,49.6475.8543,73.2881-6.2774a148.7324,148.7324,0,0,0,37.9346-17.4845c1.1638-.7539.08-2.6277-1.0911-1.8667-41.0552,26.6867-93.0739,29.758-139.7428,18.5853-12.9282-3.0951-25.9366-6.77-35.574-16.4964-.531-.5359-1.33.2728-.8244.8244Z"/><path class="bf" d="M41.0248,178.1888c7.9025,8.6266,18.4339,12.9957,29.5694,15.951a235.2229,235.2229,0,0,0,36.44,6.7643c24.5008,2.5,49.6475.8544,73.2881-6.2774a148.7355,148.7355,0,0,0,37.9346-17.4845c1.1638-.7539.08-2.6277-1.0912-1.8667-41.0551,26.6867-93.0739,29.758-139.7427,18.5853-12.9283-3.0951-25.9366-6.77-35.574-16.4964-.531-.5359-1.33.2728-.8244.8244Z"/><path class="bk" d="M94.5461,98.3993c1.43-6.8841,6.4-10.4877,12.3559-13.0985a7.26,7.26,0,0,1-1.3858-.4162c-5.9566,1.6537-10.7611,7.9437-11.7781,13.754a18.0193,18.0193,0,0,0,8.01,18.067c.2627.1617.47-.2281.236-.4038C96.4333,112.1407,93.09,105.4118,94.5461,98.3993Z"/><path class="bl" d="M106.3356,85.314c-5.0831-5.15,5.82-10.09,8.9355-12.5134,3.5613-2.77,7.2358-5.69,10.5146-8.7825a.2775.2775,0,0,0-.3349-.4339c-2.71,1.6277-5.0221,3.9579-7.4217,6a89.3942,89.3942,0,0,1-9.0833,6.6563c-3.0951,2.0286-6.5527,6.1662-3.074,9.5377a.3281.3281,0,0,0,.4638-.4638Z"/><path class="bf" d="M94.8773,113.5851c-2.9951.9056-2.6867,5.11-.0595,6.2734,3.6075,1.5972,6.7747-1.8306,7.2144-5.1814.0418-.3183-.4787-.3783-.5546-.0751-.6034,2.4078-1.9907,4.9758-4.8275,4.9925a3.2021,3.2021,0,0,1-3.2493-2.1793,2.7953,2.7953,0,0,1,1.6234-3.2972c.3192-.13.2031-.6387-.1469-.5329Z"/><path class="bf" d="M94.4617,119.3535a153.8723,153.8723,0,0,0-23.7847,33.62,158.5623,158.5623,0,0,0-8.1588,18.16q-1.8349,4.8852-3.3383,9.886c-.4539,1.5092-2.2475,4.9937-1.3247,6.4652a.2919.2919,0,0,0,.3923.1028l.254-.1475a.264.264,0,0,0,.0927-.3533l-.0989-.1946c-.1226-.2413-.5054-.0731-.4329.1825-.14-.4924,1.0433-3.14,1.247-3.8545q.6432-2.2584,1.3538-4.4967,1.4211-4.4755,3.1108-8.86a157.6413,157.6413,0,0,1,8.4709-18.3887,165.7058,165.7058,0,0,1,22.6119-31.7259c.2387-.2664-.1472-.6587-.3951-.395Z"/><path class="bm" d="M54.9963,272.95c8.1157,3.5055,10.5155-4.0475,11.17-10.6465q.4539-4.5767.896-9.1544c.2369-2.4283.793-5.1308.189-7.5439-.6314-2.5223-2.6793-3.82-4.889-4.9411a40.9728,40.9728,0,0,0-9.5945-3.3034c-2.2813-.5081-5.0591-1.177-7.3934-.6408-2.95.6776-4.4178,3.47-5.0955,6.1886a41.93,41.93,0,0,0-.591,14.8635c1.1418,8.8268,7.4927,12.7766,15.3142,15.5205.8586.3011,1.1667-1.0016.3681-1.3351-3.4486-1.44-7.1351-2.6579-9.95-5.2256-3.5012-3.1935-4.49-7.85-4.6721-12.4164-.1675-4.1918-.4181-9.6127,1.5346-13.4724,1.8276-3.6124,5.1237-3.23,8.4656-2.5813a46.0857,46.0857,0,0,1,9.4161,2.869c3.4051,1.4672,5.9758,2.9237,6.0546,7.0269.0965,5.0287-.6863,10.3625-1.2006,15.3665a16.9015,16.9015,0,0,1-1.6432,6.5843c-1.8283,3.2242-4.8514,3.1076-8.0888,2.1535C54.8883,272.1448,54.5973,272.778,54.9963,272.95Z"/><path class="bm" d="M105.3148,247.6959c-4.5266-.867-9.0366-1.9063-13.6071-2.5188-3.6489-.489-8.3518-1.1049-11.7762.6626-4.098,2.1151-4.4668,7.651-5.2326,11.6926-.808,4.2639-1.788,9.2-.9522,13.5131.7207,3.719,3.6362,5.733,7,6.9936,4.905,1.8382,10.2339,2.5217,15.4214,2.9972,4.1808.3832,9.57,1.5238,13.5927-.2149,3.7275-1.6111,4.3263-5.5442,4.8484-9.16.7751-5.3676,1.2912-11.244.3117-16.6187-.937-5.1415-4.7992-6.8047-9.5333-7.6105-1.32-.2247-1.8848,1.7971-.5569,2.02,2.65.4451,5.8116.9279,7.2734,3.506,1.28,2.2571,1.128,5.397,1.1957,7.9188.128,4.7615.1222,10.13-1.3259,14.7067-1.7619,5.5676-8.4056,4.2315-12.8866,3.8544a76.7382,76.7382,0,0,1-15.8634-2.6159c-2.1564-.6531-4.54-1.42-6.1134-3.1241-1.935-2.0967-1.7084-5.0518-1.5672-7.6841a57.4529,57.4529,0,0,1,2.3017-14.5426c1.262-3.8406,3.522-4.8733,7.4058-5.0465a38.0987,38.0987,0,0,1,7.1473.4574c4.1975.61,8.311,1.6869,12.5052,2.3064C105.8661,249.3313,106.3082,247.8861,105.3148,247.6959Z"/><path class="bm" d="M165.72,257.8747c-.7028-3.828-1.0448-8.9789-4.9669-10.9662-3.9246-1.9884-9.2191-.6388-13.3095-.1079-4.9986.6486-9.925.6906-14.9283,1.044-6.8626.4856-8.7805,7.0038-9.0376,12.875-.22,5.03-.7806,14.8369,3.7909,18.1057,3.7127,2.6547,9.949,2.3,14.2514,2.5758,5.4867.3523,11.6683,1.0839,17.1188.1466,4.3987-.7564,6.435-4.4826,7.393-8.5225C167.2142,268.04,166.634,262.8523,165.72,257.8747ZM164.61,269.4511c-.26,2.8333-.9578,6.4524-3.052,8.5825-2.3413,2.3813-6.5056,1.8854-9.5515,1.9384a146.1407,146.1407,0,0,1-16.023-.6578c-2.9775-.2759-8.8735-.2734-9.5943-4.1914a37.562,37.562,0,0,1-.3007-10.4495c.278-3.44-.6646-6.8654.3776-10.2512,1.3583-4.4125,5.4453-4.42,9.315-4.5055,5.1225-.1129,10.1758-.9312,15.2532-1.5447a29.2667,29.2667,0,0,1,6.0491-.3558c3.65.3235,5.0208,2.5655,5.789,5.9044C164.0321,258.9639,165.0863,264.2553,164.61,269.4511Z"/><path class="bm" d="M175.7786,270.5206c2.8617,8.5616,13.5209,7.566,20.6613,5.7466,4.025-1.0256,8.6816-2.1,12.174-4.4691,3.12-2.117,4.1334-5.2678,4.477-8.8886a32.8337,32.8337,0,0,0-1.73-13.9554c-1.0377-2.941-2.5656-7.2417-5.6273-8.6541-1.7268-.7966-3.5692-.3272-5.3594-.0355-2.5918.4223-5.1961.7557-7.7965,1.12a63.6705,63.6705,0,0,0-14.3207,3.2092c-4.1689,1.62-4.1,4.9822-4.3882,9.0573a44.8823,44.8823,0,0,0,1.7633,16.91.7111.7111,0,0,0,1.37-.3778,51.14,51.14,0,0,1-1.821-14.3372,28.6721,28.6721,0,0,1,.578-6.8809c.8855-2.9892,4.0792-3.6455,6.7606-4.3761a104.38,104.38,0,0,1,13.029-2.336c2.0594-.2883,4.1085-.6579,6.1669-.9441,3.9381-.5474,5.7726,1.9992,7.26,5.1461a31.6163,31.6163,0,0,1,2.9852,14.3049c-.0678,2.4521-.2285,5.2232-1.4954,7.3972-1.2814,2.1988-3.6322,3.4373-5.9162,4.3413-7.4722,2.9576-24.1218,8.5052-27.693-2.2748C176.6309,269.5439,175.55,269.8362,175.7786,270.5206Z"/><path class="bm" d="M237.5482,219.5647c-3.5955,6.5623-8.9583,9.9089-15.2958,13.44-6.1909,3.45-4.3559,8.7655-2.8186,14.4892.8709,3.2428,1.0062,7.2194,2.4731,10.244a3.7823,3.7823,0,0,0,4.0576,2.3932c2.6222-.3431,4.975-3.1256,6.6008-4.9441,2.12-2.3707,4.3323-5.14,5.31-8.19.1913-.5962-.619-.839-.9434-.3977-1.8478,2.5137-10.69,17.798-14.2788,9.1674-1.0735-2.5815-1.2259-5.8946-1.9641-8.6189-.6676-2.4636-1.968-5.2224-1.7087-7.8182.5188-5.1953,8.2822-7.1937,11.8989-10.0681a22.1216,22.1216,0,0,0,7.2345-9.4582c.1247-.3307-.4-.5425-.566-.2387Z"/><path class="bm" d="M21.307,221.1376a18.0006,18.0006,0,0,0,4.505,8.9942,14.16,14.16,0,0,0,3.25,2.5872c2.6579,1.63,3.9309,3.0983,3.9808,6.287.0676,4.3143-.48,8.6363-.517,12.951-.0145,1.6912.3175,3.7055-.28,5.3238a4.2619,4.2619,0,0,1-6.0075,2.0489.6406.6406,0,0,0-.7727,1.0015c1.6642,1.9194,5.6416.94,7.15-.761,2.4382-2.7494,1.3079-8.623,1.4293-11.9542.139-3.814,1.6006-10.17-1.0476-13.48-1.5694-1.9617-4.2475-2.7061-6.0151-4.4671a20.4908,20.4908,0,0,1-5.1245-8.6828.2857.2857,0,0,0-.55.1518Z"/><path class="bf" d="M49.187,228.508a29.877,29.877,0,0,1,2.5147-12.3586c.0928-.2283-.2776-.376-.394-.1661a23.1649,23.1649,0,0,0-2.5883,12.5247c.0191.2974.4738.3036.4676,0Z"/><path class="bf" d="M52.7775,216.4766a229.9828,229.9828,0,0,0,118.1208,7.0221,206.59,206.59,0,0,0,33.2677-9.4647c.4226-.1631.25-.8453-.19-.691-38.2,13.3772-78.5646,17.7063-118.5939,10.7859a234.9511,234.9511,0,0,1-32.4943-8.05c-.2538-.0824-.3606.3142-.11.3981Z"/><path class="bf" d="M203.6566,213.6131a87.5523,87.5523,0,0,1,3.7472,14.9461.244.244,0,0,0,.4771-.0645,52.972,52.972,0,0,0-3.7617-15.0091c-.11-.2842-.5714-.1635-.4626.1275Z"/><path class="bf" d="M130.6432,118.3731c.2111,13.6208,1.2249,27.2722,2.1684,40.8586.9442,13.5965,1.7732,27.2484,3.1684,40.8066.0416.4041.6684.4195.6437,0-.8-13.6123-2.1745-27.203-3.1355-40.8066-.9617-13.6128-1.5476-27.24-2.3835-40.8586a.2309.2309,0,0,0-.4615,0Z"/><path class="bf" d="M136.43,211.7179c.2444,5.3948.598,10.7955.9737,16.1828.0211.3016.49.3061.4737,0-.2912-5.3937-.6062-10.7979-1.0284-16.1828-.0209-.2656-.4314-.2719-.419,0Z"/><path class="bf" d="M135.3765,207.2259c-1.686.447-2.1958,2.5121-1.61,4.0007a2.3592,2.3592,0,0,0,3.8821.8834c1.2139-1.1194,1.6475-3.3366.1811-4.4375-1.5543-1.1669-4.2671-.35-4.5837,1.6644-.0253.1612.1923.2858.2831.1193.7038-1.2917,2.5407-2.4007,3.9482-1.4132,1.2433.8723.8485,2.7156-.1,3.6488a1.8953,1.8953,0,0,1-3.2223-.7748,2.5573,2.5573,0,0,1,1.33-3.2988.2036.2036,0,0,0-.1082-.3923Z"/><path class="bf" d="M160.3222,116.1383c2.14,2.4228,7.0007,3.5852,9.7141,1.1368a3.331,3.331,0,0,0-1.7824-5.6608c-.1994-.0287-.3315.1917-.1427.2923,2.2938,1.2221,3.5191,3.8693.88,5.4782-2.7394,1.67-6.328.4881-8.34-1.4657-.1553-.1509-.4745.0545-.329.2192Z"/><path class="bf" d="M166.7749,118.1377c16.6424,19.3964,28.6719,41.9025,34.4016,66.8894.1048.4569.8082.2635.7027-.1937-5.693-24.6839-17.5454-48.3446-34.8295-66.9705-.1719-.1852-.436.087-.2748.2748Z"/><path class="bk" d="M155.8947,83.9355c6.6684,2.2446,10.1,8.5915,10.8516,15.29a18.5569,18.5569,0,0,1-1.0812,9.02c-.6649,1.6747-2.2625,3.0538-2.6488,4.8084l.747.1011a10.9405,10.9405,0,0,0-.1118-1.5544.2825.2825,0,0,0-.5647,0,10.9,10.9,0,0,0-.0841,1.5544.382.382,0,0,0,.747.1011c.3044-1.281,1.3758-2.2272,1.9844-3.3571a16.546,16.546,0,0,0,1.4536-4.1045,21.3582,21.3582,0,0,0-.3187-9.6422c-1.3746-5.7111-4.9493-11.032-10.8548-12.651a.2249.2249,0,0,0-.1195.4333Z"/><path class="bn" d="M119.853,45.28a.215.215,0,0,0,0-.43.215.215,0,0,0,0,.43Z"/><path class="bn" d="M105.7493,95.6569a10.6987,10.6987,0,0,0-2.1318,10.353c.1089.3319.6276.1945.527-.1453a10.3926,10.3926,0,0,1,1.9569-9.8556c.2037-.2436-.1429-.5969-.3521-.3521Z"/><path class="bn" d="M106.78,96.0636A76.2363,76.2363,0,0,0,134.6462,98.51a82.6517,82.6517,0,0,0,13.3432-2.2882c1.5538-.4014,6.0751-.749,5.6348-3.1644-.06-.33-.5981-.2537-.5844.0791.0889,2.1709-10.2159,3.5822-11.8074,3.8574a81.7993,81.7993,0,0,1-11.6267,1.1575,95.1177,95.1177,0,0,1-22.7387-2.4043.1641.1641,0,0,0-.0871.3162Z"/><path class="bn" d="M103.6953,105.4323a74.0307,74.0307,0,0,0,52.4955.7732c.42-.1507.2389-.8257-.1856-.6734a75.7509,75.7509,0,0,1-52.1759-.5858c-.3072-.1143-.4288.3667-.134.486Z"/><path class="bn" d="M152.8022,94.9432c2.1673-1.6386,3.8573,1.5888,4.3359,3.0487a9.0392,9.0392,0,0,1,.4537,2.7129,9.7549,9.7549,0,0,1-1.8679,5.8247c-.2468.35.3251.6758.5715.334a10.0045,10.0045,0,0,0,1.2017-9.7483c-.7643-1.79-3.0213-4.3564-4.993-2.5583-.2022.1845.0727.5567.2981.3863Z"/><path class="bo" d="M97.4509,76.131c18.98,8.3145,45.3315,8.2356,64.174-.39.2786-.1276.0828-.5629-.2176-.4564-10.3526,3.6693-20.59,6.1837-31.8406,6.2755-11.2109.0915-21.5946-2.1874-31.9871-5.6988-.176-.0595-.2977.1959-.1287.27Z"/><path class="bh" d="M97.4509,76.148c18.98,9.4021,45.3315,9.3129,64.174-.4413.2786-.1442.0828-.6365-.2176-.5161-10.3526,4.1493-20.59,6.9926-31.8406,7.0964-11.2109.1035-21.5946-2.4735-31.9871-6.4442-.176-.0673-.2977.2215-.1287.3052Z"/><path class="bf" d="M161.5791,339.2986a131.2386,131.2386,0,0,0,24.5191-7.2867c.9137-.3734.5138-1.8779-.4133-1.4991A131.2288,131.2288,0,0,1,161.1658,337.8c-.9809.1918-.5656,1.69.4133,1.4991Z"/><path class="bf" d="M71.5741,331.1359C79.968,334.0324,88.81,335.46,97.44,337.4611c.9735.2257,1.3891-1.2728.4133-1.4991-8.63-2.001-17.4722-3.4286-25.8663-6.3252-.9477-.327-1.3548,1.1741-.4132,1.4991Z"/><path class="bf" d="M58.505,335.4271a245.9435,245.9435,0,0,1-19.728,18.13q-3.8139,3.1832-7.6842,6.2984a41.88,41.88,0,0,1-4.5383,3.5638c-2.205,1.3223-4.3648.9834-6.7216.29-5.3926-1.587-11.7566-2.73-15.96-6.7209-.7026-.667-1.7666.3922-1.0649,1.0649,4.1374,3.967,10.0683,5.1953,15.3785,6.8168,2.73.8337,5.5131,1.78,8.2672.4831,3.0718-1.4463,5.78-4.2666,8.3953-6.3861a265.4416,265.4416,0,0,0,26.0725-23.5553Q59.7134,335.39,58.505,335.4271Z"/><path class="bp" d="M67.5121,325.2547c-2.55,3.1713-5.2471,6.2061-8.0369,9.1525q1.172-.0072,2.3435.024c2.3906-2.57,4.7127-5.2067,6.9214-7.9484C69.4353,325.62,68.2125,324.3836,67.5121,325.2547Z"/><path class="bq" d="M30.0387,302.828a40.9129,40.9129,0,0,0-4.1319,4.9267c-5.6472,7.8234-11.1505,15.97-16.2836,24.1363-3.0434,4.8414-6.2889,9.8422-8.5181,15.1228-1.7429,4.1287-1.5686,7.8294,1.5654,11.1766.8441.9015,2.1165-.4208,1.34-1.34-4.5538-5.3876.1463-11.5745,3.06-16.5846q4.2837-7.3659,9.1657-14.3625c2.7151-3.8762,5.5347-7.6582,8.1653-11.5943a74.345,74.345,0,0,1,6.4436-8.7573A16.4743,16.4743,0,0,1,30.0387,302.828Z"/><path class="br" d="M31.0882,303.5859c-1.5238-8.7386,7.42-13.657,15.0308-12.3824,6.8559,1.1481,12.6142,6.1991,16.9281,11.3788,4.4908,5.3922,7.8607,11.8711,8.7584,18.8911.3993,3.1223.351,6.6241-1.2689,9.4292-2.4684,4.2743-6.6867,3.58-10.855,3.7453a.7384.7384,0,0,0-.1954,1.4434c8.13,2.4572,14.0707-3.3567,14.2913-11.1973.247-8.7793-4.2452-17.434-9.8272-23.93-5.5322-6.4376-13.5039-12.6286-22.5185-11.4568-7.0987.9227-12.9414,7.037-11.5733,14.4172.15.8085,1.37.4627,1.23-.339Z"/><path class="bf" d="M1.6426,350.88c-1.7672,5.9781,5.4942,7.1983,9.7251,6.5769,7.1076-1.0439,13.5614-4.4373,19.2121-8.7638a109.1033,109.1033,0,0,0,15.4044-15.0786c6.1087-6.9759,12.2575-13.9705,18.1335-21.1431.3626-.4426-.2451-1.0795-.64-.64-9.0227,10.051-17.139,21.0139-26.87,30.413a61.0639,61.0639,0,0,1-14.4564,10.7681,37.4783,37.4783,0,0,1-9.135,3.2833,20.7742,20.7742,0,0,1-5.08.5993c-3.1207-.1185-6.7774-2.1859-5.86-5.8958a.2249.2249,0,0,0-.4333-.1195Z"/><path class="bf" d="M17.8317,355.4732c1.7557,3.7006,4.9887,8.2161,8.68,10.1687a.1738.1738,0,0,0,.21-.2718c-1.47-1.5292-3.21-2.74-4.623-4.3517a36.1433,36.1433,0,0,1-3.9518-5.7291c-.12-.2054-.4139-.0253-.3146.1839Z"/><path class="bf" d="M254.0758,356.9881c-3.547,3.3734-8.588,4.5714-13.1594,5.9019-2.4349.7087-5.2641,2.045-7.8062,1.3667-2.8052-.7486-5.5217-3.7625-7.7756-5.5918-8.38-6.8012-16.4973-13.8567-24.2193-21.4q-.5471-.5344-1.0959-1.0776c-.6868.2071-1.3845.3677-2.0879.51,2.4293,2.5075,5.0908,4.8033,7.4219,6.9854,4.0705,3.8106,8.2929,7.4551,12.5823,11.0165,4.0681,3.3774,8.1437,7.3259,12.6433,10.114,3.9473,2.4459,8.4013.2779,12.42-.9137,4.3052-1.2768,8.8265-2.6734,12.142-5.8467C255.8424,357.3813,254.7782,356.32,254.0758,356.9881Z"/><path class="bq" d="M255.1445,357.4888a10.8654,10.8654,0,0,0,1.9885-2.5484,8.4835,8.4835,0,0,0,.1454-7.3867,157.43,157.43,0,0,0-10.1148-17.911,222.3754,222.3754,0,0,0-24.5678-30.578c-.906-.9448-2.2969.4678-1.4294,1.4295q.6471.7323,1.3255,1.44a203.7405,203.7405,0,0,1,19.96,25.3122c3.0814,4.6348,5.9787,9.3978,8.708,14.2491,1.3378,2.3777,3.0063,4.7529,3.7509,7.4078a8.846,8.846,0,0,1,.37,4.0942c-.2415,1.2417-2.0058,2.8737-2.029,3.8647C253.2073,358.7369,254.16,358.3976,255.1445,357.4888Z"/><path class="br" d="M228.09,303.9249c1.37-7.3924-4.48-13.4754-11.5733-14.4172-9.0024-1.1953-16.999,5.0339-22.5185,11.4568-5.5729,6.4849-10.0906,15.1584-9.8272,23.93.2353,7.8368,6.1375,13.6618,14.2913,11.1973a.7383.7383,0,0,0-.1954-1.4434c-4.028-.16-8.0841.5892-10.6417-3.4035-1.6564-2.5859-1.8641-5.9117-1.5958-8.89.6586-7.308,4.2144-14.2121,8.872-19.7721,4.2131-5.0293,9.7917-10.0429,16.4439-11.2831,7.7-1.4355,17.0914,3.2462,15.515,12.2867-.1395.8,1.08,1.1488,1.23.339Z"/><path class="bf" d="M255.656,351.0591c.6878,3.0787-2.2048,5.0395-4.817,5.3412a17.0816,17.0816,0,0,1-5.3293-.418,36.8976,36.8976,0,0,1-9.0655-3.15,59.9926,59.9926,0,0,1-14.7767-10.9143c-9.7426-9.422-17.6163-20.55-26.8769-30.4064-.8188-.8716-1.9766.3888-1.28,1.28,5.6006,7.1584,11.8233,13.9416,17.8027,20.7881a110.9565,110.9565,0,0,0,15.8248,15.5076c5.55,4.2433,11.89,7.6122,18.8555,8.7091,4.52.7119,12.6186-.4507,10.5287-6.9758a.45.45,0,0,0-.8667.2389Z"/><path class="bf" d="M239.33,355.0134c-1.5288,1.9839-2.71,4.1416-4.4386,5.9921-.9654,1.0336-2.677,1.9562-3.6141,3.1576a4.3856,4.3856,0,0,1,1.6949,1.5467c1.4848-.8794,2.8067-2.769,3.7235-3.8458a19.57,19.57,0,0,0,3.9662-6.2891C240.9392,354.7211,239.7943,354.4115,239.33,355.0134Z"/><path class="bf" d="M152.37,347.4461c-1.0046,5.1571-2.4129,10.175-3.7441,14.7238a64.7737,64.7737,0,0,1-5.6843,14.5139c-2.8648,4.9377-9.05,12.2729-15.565,10.1678a1.3031,1.3031,0,0,0-.9707.037c-3.8923-2.6211-6.6826-7.9415-8.7331-11.901a85.3752,85.3752,0,0,1-5.5208-13.8779c-1.5016-4.81-2.786-9.6822-4.0232-14.5679-.581-.1522-1.1628-.3-1.7488-.42,1.5243,6.18,3.1907,12.3257,5.1668,18.3215a74.65,74.65,0,0,0,6.0723,14.0521c1.9877,3.4383,4.52,7.6783,7.9834,9.9467a1.3882,1.3882,0,0,0,.9992,1.22c5.5965,1.7939,11.2991-2.0683,14.9138-6.0929,3.6565-4.0712,6.0225-9.1226,7.8293-14.24a122.9145,122.9145,0,0,0,6.1151-24.8853A41.9473,41.9473,0,0,1,152.37,347.4461Z"/><path class="bp" d="M151.53,316.0083a27.757,27.757,0,0,0-25.486-12.86c-11.8961,1.1562-23.1175,12.9117-23.5429,24.8432a.8029.8029,0,0,0,.4353.7951.5844.5844,0,0,0-.4231.7107c1.1672,5.1638,2.3422,10.3731,3.6079,15.563.58.1036,1.155.24,1.7285.3859-1.3673-5.4307-2.6888-10.8741-4.1887-16.2653a.556.556,0,0,0-.1981-.2952,1.0052,1.0052,0,0,0,.933-.8942c1.2287-10.4691,10.0361-20.7905,20.757-22.4459,9.3841-1.4491,19.7749,3.7585,24.5132,11.9391,4.8347,8.3471,4.7359,18.54,3.0028,28.3535,1.0417-.9874,2.0285-2.0282,2.9889-3.0951.0484-.4334.1091-.8671.1515-1.3C156.6465,332.8628,156.1263,323.5517,151.53,316.0083Z"/><path class="br" d="M106.0917,345.1507c-7.467-4.461-10.1224-11.6306-8.0356-20.0212a37.1183,37.1183,0,0,1,12.0124-19.0247c7.7486-6.4577,19.27-8.0725,28.7869-5.1786,8.8811,2.7005,15.8055,9.742,19.1691,18.308a27.7718,27.7718,0,0,1,1.957,13.3192c-.65,5.4388-3.38,9.37-7.0474,13.2421-.9067.9571.3045,2.74,1.4718,1.9075,7.9342-5.66,9.7218-16.4968,7.3836-25.4237-2.43-9.2782-8.9218-17.8281-17.6676-21.9521a33.2914,33.2914,0,0,0-32.13,2.15C104.92,307.0221,99.545,314.6926,97.013,322.65c-2.9152,9.162-.9146,19.2763,8.3431,23.7589a.7293.7293,0,0,0,.7356-1.2585Z"/><path class="bf" d="M109.2865,316.8079a146.66,146.66,0,0,0,6.3282,42.53,157.1454,157.1454,0,0,0,7.1659,19.498c.6113,1.3773,4.1645,11.8789,6.8031,9.0836a.3433.3433,0,0,0-.4852-.4852c-1.352,1.22-4.86-7.1126-5.2378-7.9412q-2.0694-4.5391-3.8444-9.2049a161.0094,161.0094,0,0,1-5.4264-17.0506,180.64,180.64,0,0,1-5.0605-36.4294.1215.1215,0,0,0-.2429,0Z"/><path class="bf" d="M62.6037,336.7381c13.4665,6.749,28.9566,11.5559,44.1721,11.535.7983-.0011.76-1.1329,0-1.2145-7.5718-.8127-14.9837-1.5524-22.3994-3.4066a128.2557,128.2557,0,0,1-21.4846-7.4068c-.3289-.1485-.6208.3261-.2881.4929Z"/><path class="bf" d="M155.8915,347.6684c7.254.8591,14.9567-.496,21.92-2.5344a73.8416,73.8416,0,0,0,9.7315-3.6174c1.63-.7387,3.2357-1.5381,4.8031-2.402,1.4059-.7749,4.5316-3.4964,6.1268-2.5353a.677.677,0,0,0,.8169-1.0587c-1.8433-1.728-4.1114.2312-5.8269,1.2478a71.5033,71.5033,0,0,1-11.9429,5.67c-8.3709,3.0534-16.8325,3.8954-25.6289,4.7195a.2552.2552,0,0,0,0,.51Z"/><path class="bs" d="M79.6987,345.3882a103.5746,103.5746,0,0,0,6.28,15.88c.2105.4394.94.1307.788-.3322a103.5364,103.5364,0,0,0-6.4467-15.81.3416.3416,0,0,0-.6215.2621Z"/><path class="bs" d="M85.9146,361.6449a47.0248,47.0248,0,0,0,23.6743,6.1066.5287.5287,0,0,0,0-1.0567,51.902,51.902,0,0,1-23.4107-5.5008c-.2986-.1478-.5588.2832-.2636.4509Z"/><path class="bs" d="M177.6284,345.1261a103.5364,103.5364,0,0,0-6.4467,15.81c-.15.4579.5753.7763.788.3322a103.5849,103.5849,0,0,0,6.28-15.88.3416.3416,0,0,0-.6215-.2621Z"/><path class="bs" d="M171.77,361.194a51.901,51.901,0,0,1-23.4107,5.5008.5287.5287,0,0,0,0,1.0567,47.0251,47.0251,0,0,0,23.6743-6.1066c.2948-.1675.0353-.5989-.2636-.4509Z"/><path class="bs" d="M94.2535,365.3191c.7288,2.38,1.7426,4.6929,2.6512,7.0082.19.4829.9788.27.7847-.2164-.9349-2.3408-1.7911-4.7525-2.9031-7.0164-.146-.2971-.6289-.0892-.5328.2246Z"/><path class="bs" d="M97.4118,372.8057c5.1691,2.6179,13.0873,4.5414,18.8164,2.9643a.3358.3358,0,0,0-.0888-.6561c-3.29-.3671-6.5654-.0273-9.8789-.5634a60.0131,60.0131,0,0,1-8.6148-2.3.3049.3049,0,0,0-.2339.5549Z"/><path class="bs" d="M147.8441,375.0287c4.4975-.1682,9.3141.0478,13.7415-.8.3188-.0611.218-.5163-.0726-.5368-4.4732-.3147-9.2045.474-13.6689.8394-.315.0258-.324.51,0,.4979Z"/><path class="bs" d="M161.8188,374.3364a20.0223,20.0223,0,0,0,3.9008-8.2678c.1644-.7155-.9394-1.0206-1.1009-.3035a22.7946,22.7946,0,0,1-3.63,7.931c-.3331.49.4463,1.1053.83.64Z"/><path class="bn" d="M46.1774,263.2713c2.0114,2.3164,12.4242,9.4417,14.2685,4.0435.6454-1.889.4387-4.4061.5869-6.3749q.2751-3.6527.5478-7.3053c.2577-3.5035.7518-6.49-2.4715-8.6162-3.3019-2.1779-12.5184-6.625-15.3659-1.3684-1.456,2.688-.9319,7.423-.8021,10.38a15.6121,15.6121,0,0,0,3.1247,9.3534c.2175.2767.6-.1126.3864-.3864-3.3345-4.2715-3.5506-10.78-2.85-16.0015.2453-1.83.8315-4.1581,2.761-4.7642a10.5643,10.5643,0,0,1,3.4919-.3858c2.8679.1041,5.5184,1.4261,7.9331,2.8777,3.8686,2.3255,3.5907,4.9532,3.3014,8.9119q-.3114,4.2609-.61,8.5228c-.1042,1.465.1263,3.6841-.4554,5.041-1.1094,2.5877-3.7356,1.3593-5.3029.79a21.7713,21.7713,0,0,1-8.38-4.8805C46.2344,263.002,46.0809,263.16,46.1774,263.2713Z"/><path class="bn" d="M80.965,271.4239c3.421,2.9883,8.7938,3.4124,13.1149,4.1194,2.7749.4541,5.5756.8059,8.3811,1,1.3377.0925,3.0591.4192,4.24-.4819,1.4388-1.098,1.5794-3.4638,1.8708-5.0626a62.58,62.58,0,0,0,.876-7.0128c.2093-3.1107.5175-7.3473-1.9184-9.7925a7.0011,7.0011,0,0,0-3.9871-1.6624c-3.1558-.5876-6.3471-1.0383-9.5155-1.5562-2.9148-.4765-8.1868-2.37-11.0013-.608a6.1352,6.1352,0,0,0-2.34,3.8155,71.811,71.811,0,0,0-1.577,8.4285c-.4733,3.2-.5938,6.4328,1.74,8.9291.2787.2981.72-.147.4466-.4465-2.68-2.94-1.829-6.97-1.2205-10.5257.6429-3.7571.6912-9.5956,5.41-10.2981,1.6563-.2466,3.78.4472,5.4325.7087q2.68.424,5.3609.8453c3.2908.513,9.2027.3371,11.3425,3.2588,1.9236,2.6266,1.5454,6.4195,1.3117,9.4859-.26,3.4175-.1308,11.05-4.7724,11.6134-3.6272.44-8.194-.7375-11.7361-1.3588-3.7235-.6531-8.2486-1.1268-11.2449-3.6136C81.0313,271.086,80.8165,271.2942,80.965,271.4239Z"/><path class="bn" d="M129.242,268.7663c.455,3.1586.6888,5.57,3.8922,6.8989,2.8289,1.1739,6.1116,1.1817,9.1217,1.2657,5.9769.1669,15.1324,1.6991,18.4288-4.9109,2.3723-4.757.986-12.6317-.7668-17.4066-1.3569-3.6968-4.746-3.2264-8.0807-3.0585-5.4037.272-10.8861.33-16.2731.7736-3.2273.2657-5.7971,1.3687-6.7737,4.6232-1.135,3.7827-.3263,8.051.2847,11.8606.0686.4274.7177.2457.65-.1792-.5622-3.5319-1.35-7.622-.4108-11.1582,1.505-5.6658,8.4614-4.5688,13.0575-4.8292,2.3675-.1341,4.7322-.3126,7.0984-.467,1.1838-.0772,2.3679-.1575,3.5529-.2149,1.8558-.09,4.6269.1527,5.9689,1.6489,1.0383,1.1576,1.1848,3.8291,1.4548,5.3311a52.4959,52.4959,0,0,1,.742,5.2818c.2281,2.9883.1484,6.2921-1.7455,8.7765-2.7349,3.5877-7.8154,3.79-11.9429,3.6606-3.1224-.0981-6.3154-.1171-9.425-.4206a14.5646,14.5646,0,0,1-5.6379-1.4013c-2.3677-1.3287-2.4528-3.8042-2.8793-6.1617C129.52,268.4691,129.2126,268.5619,129.242,268.7663Z"/><path class="bn" d="M192.8653,272.691c5.2361-.2512,13.0293-1.4448,15.6719-6.6954,1.7185-3.4144,1.2131-7.77.4311-11.37-.6248-2.8766-1.6722-7.5214-4.41-9.1916-2.1689-1.323-5.42-.8833-7.8713-.8908a64.557,64.557,0,0,0-9.3145.5118c-2.4918.3556-5.4457.859-7.4554,2.52-2.4375,2.0142-1.5514,5.9132-1.4155,8.68.1979,4.03-.3883,10.5087,2.3248,13.9164,2.5837,3.2452,8.3973,2.8463,12.0391,2.6893.436-.0188.4383-.6994,0-.68a29.9317,29.9317,0,0,1-7.4875-.3493c-3.6969-.794-5.1622-3.4093-5.5969-6.9369-.5478-4.4448-1.3081-9.5226-.8437-13.9983.65-6.2636,11.8637-5.7953,16.4418-5.824,2.333-.0146,5.5671-.4159,7.7855.34,4.746,1.617,5.8379,10.4972,5.92,14.6477.1013,5.1285-2.2283,8.4668-6.9061,10.3355a33.0228,33.0228,0,0,1-9.313,1.9555C192.6508,272.3705,192.6439,272.7017,192.8653,272.691Z"/><path class="bn" d="M239.2478,224.4905c-3.3187,6.3948-8.6044,9.5952-14.8567,12.5946-4.55,2.1826-1.9751,8.14-1.02,11.983.5882,2.3654,1.3623,7.8423,4.8165,5.247,4.9213-3.6977,8.9431-9.5611,12.5514-14.4832.192-.2618-.2455-.603-.453-.3495-3.0018,3.6678-5.7835,7.4947-9.0422,10.9491-2.2665,2.4026-4.2539,5.1-6.6483,1.2239-1.4323-2.3186-1.3241-5.6289-1.776-8.2375-.4864-2.8066-.306-4.7937,2.5545-6.0608.609-.27,1.22-.5128,1.8218-.8011a30.5719,30.5719,0,0,0,5.3562-3.2835,24.672,24.672,0,0,0,7.1413-8.5215C239.843,224.4558,239.4013,224.1946,239.2478,224.4905Z"/><path class="bn" d="M20.8631,250.9125c1.3186,1.713,3.8269,6.6836,6.4533,4.1085,1.9019-1.8648,2.3464-6.57,2.6837-9.0066.4249-3.0686.4284-6.5083-1.8647-8.8616-2.1536-2.21-4.5642-3.5393-6.211-6.2934-1.2783-2.1381-2.2528-4.4391-3.5807-6.5494a.3312.3312,0,0,0-.5715.334c1.5774,2.6661,2.7761,5.5933,4.6008,8.1055,1.9182,2.6409,5.681,4.0048,6.7845,7.0976,1.1046,3.0956.3626,6.6582-.3952,9.7511a16.3294,16.3294,0,0,1-1.1222,3.8276c-2.0722,3.7718-5.2346-1.1311-6.6006-2.6494-.0837-.0931-.255.0341-.1764.1361Z"/><path class="bf" d="M220.0869,222.2894a36.2662,36.2662,0,0,0-1.3558-10.2031c-.44-1.6746-1.5465-3.5423-.4238-5.0584,1.1192-1.5114,3.4363-2.6083,5.0164-3.5769a.237.237,0,0,0-.2391-.409,24.48,24.48,0,0,0-6.2171,4.5837.2781.2781,0,0,0-.0726.2746,59.204,59.204,0,0,1,2.8851,14.3891.2036.2036,0,0,0,.4069,0Z"/><path class="bf" d="M39.2654,224.2389l2.3057-8.2514q.4941-1.7681.9881-3.5363c.2416-.8649,1.1191-2.704.9937-3.58-.14-.9768-1.8373-2.2893-2.4388-2.9827-1.82-2.0982-3.57-4.3012-5.5415-6.2565-.2-.1987-.5862.0713-.4054.3127,2.13,2.8442,7.7015,6.8969,7.2594,10.5655a47.123,47.123,0,0,1-1.792,6.4886L38.68,224.0775a.3039.3039,0,0,0,.5856.1614Z"/><path class="bf" d="M89.924,198.0358c-5.7083,8.0514,14.9631,9.8788,11.9212,1.2826-.1084-.3063-.5959-.1786-.4918.1356,2.5271,7.63-15.9574,5.9843-10.9942-1.1639.1859-.2677-.2494-.5165-.4352-.2543Z"/><path class="bf" d="M166.7019,197.3977c.394,4.5,5.8463,5.9386,9.6138,5.0693,2.09-.4822,4.2723-1.6355,5.1891-3.68.81-1.8058.5875-4.2663-1.2219-5.3231-.1273-.0744-.3144.0838-.216.216,5.81,7.8082-11.4531,12.5326-12.9953,3.668a.189.189,0,0,0-.37.05Z"/><path class="bf" d="M54.5485,150.7362a43.6982,43.6982,0,0,1,5.3732,3.1239.2792.2792,0,0,0,.3765-.0987q5.7046-9.0326,11.4149-18.0614c.6187-.9763,1.9945-2.2772,1.4051-3.4876-.3-.6154-1.2282-.8436-1.7732-1.1123-1.3766-.6788-2.7429-1.3526-4.1779-1.8948-.2786-.1052-.4451.3272-.1989.4718,1.2473.7322,2.8792,1.1691,4.0262,2.023,1.8462,1.3745,1.314,1.7946.1479,3.6662q-2.3537,3.7772-4.7072,7.5542-2.3565,3.7756-4.7231,7.545-.63,1.0059-1.26,2.0118a1.34,1.34,0,0,1-1.9957-.216c-1.2378-.4211-2.4728-1.3635-3.6811-1.9131-.2593-.1179-.4889.2585-.2269.388Z"/><path class="bf" d="M192.6732,127.79c-1.8968,1.7173-3.5771,2.762-6.1589,2.8387a.3008.3008,0,0,0-.2828.2153c-1.02,3.6453,2.53,7.1767,4.3661,10.0244q4.1559,6.4457,8.3119,12.8911a.3145.3145,0,0,0,.42.11c2.0976-1.1,4.2258-2.1113,6.4032-3.0436.3653-.1564.05-.6905-.3126-.5348-1.5548.6671-3.2084,1.8233-4.8266,2.2321-2.0935.5288-2.6817-1.4392-3.7145-3.0384l-5.7615-8.92c-.8536-1.3215-1.713-2.6394-2.5607-3.9647-.931-1.4555-2.3762-4.4932-.6175-5.496,1.9531-1.1138,3.6118-1.0188,4.9628-3.1373.0921-.1444-.11-.2843-.2289-.1766Z"/><path class="bl" d="M138,64.2865a104.8789,104.8789,0,0,0,10.5338,9.685,33.089,33.089,0,0,0,4.9333,3.2983c1.2037.6423,2.0912,1,2.5349,2.37a6.5726,6.5726,0,0,1-.8578,5.27.2165.2165,0,0,0,.3386.2613,5.7807,5.7807,0,0,0,1.2242-4.8659c-.3649-2.8956-1.4236-2.6209-3.8092-3.9969-5.6368-3.2512-9.5244-8.4866-14.7359-12.2315-.1266-.0909-.2633.1038-.1619.21Z"/><path class="bn" d="M28.6484,237.764a3.7231,3.7231,0,0,1,1.39-2.2443,3.3463,3.3463,0,0,1,1.0423-.5207c.3959-.1138.8064-.062,1.1916-.1855.1134-.0363.1622-.2192.0363-.2774a2.84,2.84,0,0,0-2.5211.6585,3.3769,3.3769,0,0,0-1.4132,2.5322.14.14,0,0,0,.2744.0372Z"/><path class="bn" d="M27.0688,254.0918a9.2973,9.2973,0,0,0,2.3485,3.0033A6.7168,6.7168,0,0,0,32.48,258.877a.1893.1893,0,0,0,.145-.3441c-.9387-.7183-2.0386-1.1291-2.9445-1.9324a13.4035,13.4035,0,0,1-2.2238-2.7356.2249.2249,0,0,0-.388.2269Z"/><path class="bn" d="M43.9258,237.9793c-.348,1.2051-.1348,3.542,1.0344,4.2855a.1781.1781,0,0,0,.2587-.1989c-.1448-.6424-.5977-1.1835-.7618-1.843a6.763,6.763,0,0,1-.084-2.183c.0188-.2616-.3778-.3014-.4473-.0606Z"/><path class="bn" d="M61.0941,247.6354a8.3762,8.3762,0,0,0,4.7758-2.5715.2643.2643,0,0,0-.3736-.3736,9.326,9.326,0,0,1-4.5233,2.506c-.2888.0638-.1638.49.1211.4391Z"/><path class="bn" d="M58.4705,268.8463A11.4517,11.4517,0,0,0,60.5468,273c.2105.2617.6571-.082.4673-.3606a15.7845,15.7845,0,0,1-2.0107-3.94.2766.2766,0,0,0-.5329.1469Z"/><path class="bn" d="M108.1615,255.1485c.68-.488,1.3115-1.0253,1.9483-1.5682a8.4129,8.4129,0,0,0,1.8238-1.6862c.07-.1138-.05-.3034-.1885-.2454a7.4762,7.4762,0,0,0-1.7788,1.3822c-.6933.5933-1.3878,1.1771-2.0293,1.8267-.1426.1444.0485.4172.2245.2909Z"/><path class="bn" d="M79.9763,247.4786c.5607,1.471,1.6908,3.3442,3.2232,3.9663.2182.0886.3443-.2194.2127-.3653-.5259-.5834-1.1986-1.0087-1.7119-1.62a9.6221,9.6221,0,0,1-1.3355-2.1446c-.1-.2164-.4745-.0619-.3885.1637Z"/><path class="bn" d="M77.116,274.8668a9.7318,9.7318,0,0,0,2.0752-1.6141,4.7288,4.7288,0,0,0,1.461-1.9463.1814.1814,0,0,0-.2632-.2023c-.61.39-.9936,1.1572-1.5031,1.6782a17.14,17.14,0,0,1-2.0089,1.6755c-.2376.1786-.0348.5613.239.409Z"/><path class="bn" d="M106.6393,275.35a7.1965,7.1965,0,0,0,1.5721,2.3141,5.19,5.19,0,0,0,2.2727,1.6327.2146.2146,0,0,0,.2068-.3552,3.6844,3.6844,0,0,0-.8241-.6314,9.2235,9.2235,0,0,1-1.1535-.9751,16.27,16.27,0,0,1-1.7022-2.1418c-.1224-.1714-.4653-.0735-.3718.1567Z"/><path class="bn" d="M128.1589,277.9153a5.9146,5.9146,0,0,0,3.2643-3.48c.0758-.2284-.2907-.39-.3941-.1661a6.5044,6.5044,0,0,1-3.0939,3.2634c-.26.1266-.0324.4942.2237.3828Z"/><path class="bn" d="M126.9346,251.73c.4643.5277.9789,1.0029,1.4855,1.4894a10.2927,10.2927,0,0,0,1.4354,1.31c.19.1219.4577-.1276.32-.32a10.2722,10.2722,0,0,0-1.3766-1.3691c-.5117-.4822-1.013-.9732-1.5636-1.4113a.2127.2127,0,0,0-.3006.3006Z"/><path class="bn" d="M158.4153,252.0608a9.1859,9.1859,0,0,0,1.6274-1.7939,3.93,3.93,0,0,0,.9962-1.9545.168.168,0,0,0-.2513-.1441,5.8563,5.8563,0,0,0-1.1168,1.5949c-.4724.7026-1.017,1.35-1.5347,2.0185a.1975.1975,0,0,0,.2792.2791Z"/><path class="bn" d="M159.5546,273.6364q.9818,1.24,2.0158,2.4364a11.7843,11.7843,0,0,0,2.0041,2.0875c.2242.154.5-.1457.3656-.3656a17.14,17.14,0,0,0-1.9066-2.185q-1.0451-1.1857-2.0323-2.42c-.2554-.3177-.6958.1318-.4466.4465Z"/><path class="bn" d="M181.2518,275.525c1.0786-1.0023,2.137-2.0477,3.1582-3.1086a.31.31,0,0,0-.438-.438c-1.0658,1.016-2.1164,2.0692-3.1239,3.143a.2856.2856,0,0,0,.4037.4036Z"/><path class="bn" d="M175.722,247.3491a15.1264,15.1264,0,0,1,1.796.2311c.53.116,1.0446.3442,1.5765.4278a.25.25,0,0,0,.1918-.455,6.2335,6.2335,0,0,0-3.5643-.6958.2461.2461,0,0,0,0,.4919Z"/><path class="bn" d="M204.6093,245.6616a3.6224,3.6224,0,0,0,.907-.7183,4.5517,4.5517,0,0,0,.6031-1.0655,2.6929,2.6929,0,0,0,.1488-2.17.1721.1721,0,0,0-.3108.0406c-.2125.6305-.1395,1.304-.3891,1.9385a4.3838,4.3838,0,0,1-.5959,1.0257,4.5809,4.5809,0,0,1-.54.72c-.1223.1075.0439.33.1766.2289Z"/><path class="bn" d="M208.985,264.7869a3.7514,3.7514,0,0,1,1.3844,1.9518c.1728.5736-.01,1.2866.2823,1.7924a.2029.2029,0,0,0,.3148.0406c.553-.5281.21-1.7245-.0278-2.3406a4.5051,4.5051,0,0,0-1.6013-2.0472c-.3642-.265-.7114.34-.3524.603Z"/><path class="bn" d="M226.8029,254.0164a5.8279,5.8279,0,0,1-.8842,3.155c-.54.8314-1.4375,1.2309-1.9847,1.9966a.1954.1954,0,0,0,.1678.2924c.9862-.07,1.86-1.2,2.35-1.9775a5.74,5.74,0,0,0,.9039-3.4665.2765.2765,0,0,0-.5526,0Z"/><path class="bn" d="M219.5629,236.8692a7.0229,7.0229,0,0,1,1.8022,1.0233c.4013.3239.6917.8843,1.1708,1.0675a.22.22,0,0,0,.2767-.2108c-.0159-.6128-.7525-1.136-1.21-1.4668a4.1329,4.1329,0,0,0-1.9925-.7591c-.212-.0272-.2155.28-.0468.3459Z"/><path class="bp" d="M199.2091,335.3689a27.7206,27.7206,0,0,1-5.8665-7.9523c-2.292-5.1649-1.1019-10.7338,1.6446-15.4684,4.48-7.7238,17.0324-18.4264,26.2849-11.8921.9145.6459,1.784-.86.8766-1.5-6.7853-4.7853-15.8915-.6221-21.5052,4.0875-6.14,5.1513-11.5736,13.522-9.9871,21.8741.8187,4.31,3.3917,8.0052,6.4648,11.3228C197.8246,335.7094,198.5206,335.5543,199.2091,335.3689Z"/><path class="bp" d="M44.3669,296.4758c-5.4178-.1411-9.7682,2.1145-13.4,5.4589a9.2306,9.2306,0,0,0,.6331,2.81c.4656-.4788.9427-.946,1.4422-1.3892,6.85-6.079,16.4892-4.8166,22.9158,1.13a29.1327,29.1327,0,0,1,9.2171,22.8414c-.1351,1.963,2.9385,1.962,3.0607,0C69.0715,313.9041,59.1273,296.86,44.3669,296.4758Z"/><path class="bt" d="M24.0957,204.6533c-10.799,18.8915-9.8585,44.52,4.8,61.2,12.6368,14.3792,32.4532,19.1158,50.6523,21.47a383.19,383.19,0,0,0,87.9162,1.2642c19.71-2.0045,41.2583-4.7656,56.9078-18.13,18.7956-16.05,21.4149-44.9272,9.4805-65.8048a1.5557,1.5557,0,0,0-2.6847,1.5692c10.5968,18.5378,9.185,44.0833-6.315,59.5642-13.2553,13.2391-32.8607,16.8368-50.7134,18.9555a381.2876,381.2876,0,0,1-80.0114,1.09c-19.1756-1.7726-40.5189-3.9029-56.39-15.9849C18.37,255.1016,15.0238,226.7893,26.78,206.2225a1.5557,1.5557,0,0,0-2.6847-1.5692Z"/><path class="bu" d="M225.2062,198.2464c.2141,1.081.4868,2.1474.6232,3.239,6.7754,1.5224,6.88,11.1628,2.2107,15.94-3.592,3.6751-8.5566,5.8211-13.2771,7.6214a158.3632,158.3632,0,0,1-16.0581,5.0329,295.5193,295.5193,0,0,1-69.7307,9.82,295.5208,295.5208,0,0,1-69.7307-9.82,158.3852,158.3852,0,0,1-16.058-5.0329c-4.7187-1.8-9.6866-3.948-13.2772-7.6214-4.998-5.1134-4.53-15.8051,3.7479-16.1355.1608-.8328.3437-1.6618.5575-2.4845.0352-.2082.074-.4168.11-.6248-5.7223-.168-10.0094,3.8586-10.8224,9.5284-1.0159,7.0845,3.7009,12.4613,9.4158,15.9419,8.33,5.0733,18.3905,7.6194,27.7477,10.01a301.5121,301.5121,0,0,0,32.6633,6.53,296.8616,296.8616,0,0,0,34.0585,2.7809,1.6136,1.6136,0,0,0,.4611.0629c.3816-.006.763-.0183,1.1446-.0257.3692.0071.7383.02,1.1075.0257a1.6127,1.6127,0,0,0,.4535-.0607,293.6892,293.6892,0,0,0,62.2319-8.1932c9.7652-2.3772,19.7559-4.9016,28.8443-9.2945,6.2734-3.0323,12.7742-7.9558,12.962-15.5323C234.74,203.9814,230.9327,198.8968,225.2062,198.2464Z"/><path class="bv" d="M209.5106,230.2344c-1.5134-.6066-3.219-1.191-5.0991-1.7509-1.8958.5559-3.7971,1.0922-5.7066,1.5961a295.5193,295.5193,0,0,1-69.7307,9.82,295.0016,295.0016,0,0,1-65.739-8.7971,19.8215,19.8215,0,0,0-3.7866,2.2476c.4062.1039.8129.208,1.2167.3111a301.5121,301.5121,0,0,0,32.6633,6.53,296.8616,296.8616,0,0,0,34.0585,2.7809,1.6136,1.6136,0,0,0,.4611.0629c.3816-.006.763-.0183,1.1446-.0257.3692.0071.7383.02,1.1075.0257a1.6127,1.6127,0,0,0,.4535-.0607,293.6892,293.6892,0,0,0,62.2319-8.1932C198.3587,233.4244,204,232.0069,209.5106,230.2344Z"/><path class="bh" d="M85.2651,108.9188c14.3892,8.8075,31.297,11.496,47.9511,10.7344a151.7042,151.7042,0,0,0,25.0093-3.3737c6.98-1.5052,15.0139-3.0211,19.2577-9.3724.8615-1.2894-1.2238-2.5-2.0765-1.2137-4.1907,6.3215-13.47,7.4757-20.3333,8.8667a143.17,143.17,0,0,1-23.93,2.9014c-15.6127.4891-31.3609-2.184-45.0937-9.885a.7778.7778,0,0,0-.7846,1.3423Z"/><path class="bh" d="M117.0571,62.1427a31.9277,31.9277,0,0,0,13.907,3.1228c3.9557-.0363,9.9689-.45,12.8958-3.4a.6383.6383,0,0,0-.4466-1.0781c-1.7932.13-3.3628.9777-5.0851,1.4687a29.451,29.451,0,0,1-6.8486,1.0979,29.8471,29.8471,0,0,1-13.5643-2.6794c-.9855-.4449-1.854,1.0015-.8582,1.4682Z"/><path class="bh" d="M94.521,82.1045a83.277,83.277,0,0,0,69.3631-.4127c1.4167-.6572.1843-2.7517-1.226-2.0974a85.1155,85.1155,0,0,1-67.6223,1.2892c-.6925-.2886-1.2046.911-.5148,1.2209Z"/></g></svg>