<svg xmlns="http://www.w3.org/2000/svg" viewBox="0 0 121.44 142.1"><defs><style>.a{fill:#6c6d6d;}.b{fill:#898989;}.c{fill:#3f4242;}.d,.l{fill:#0c0b0b;}.d,.k{opacity:0.3;}.e{fill:#e09010;}.f{fill:#89570e;}.g{fill:#edd918;}.h{fill:#a08f12;}.i{fill:#32687f;}.j{fill:#fff;opacity:0.2;}</style></defs><path class="a" d="M78.58,142.1H42.85a4.23,4.23,0,0,1-4.05-4.36l4.05-25.44a4.23,4.23,0,0,1,4-4.36H74.53a4.22,4.22,0,0,1,4,4.36l4,25.44A4.22,4.22,0,0,1,78.58,142.1Z"/><path class="b" d="M82.63,137.74a4.22,4.22,0,0,1-4,4.36H42.85a4.23,4.23,0,0,1-4.05-4.36Z"/><polygon class="c" points="12.58 66.9 33.71 78.56 36.17 91.73 12.58 70.88 12.58 66.9"/><polygon class="c" points="108.86 66.9 87.73 78.56 85.26 91.73 108.86 70.88 108.86 66.9"/><path class="d" d="M25.15,73.84a15.58,15.58,0,0,1,.53,8.62l-1.37-1.22Z"/><path class="d" d="M96.28,73.84a15.58,15.58,0,0,0-.53,8.62l1.37-1.22Z"/><path class="a" d="M20.64,104.48H4.51a1.84,1.84,0,0,1-1.83-1.83L4.51,92a1.83,1.83,0,0,1,1.83-1.83H18.81A1.83,1.83,0,0,1,20.64,92l1.83,10.67A1.84,1.84,0,0,1,20.64,104.48Z"/><path class="a" d="M100.79,104.48h16.14a1.84,1.84,0,0,0,1.83-1.83L116.93,92a1.84,1.84,0,0,0-1.83-1.83H102.62A1.84,1.84,0,0,0,100.79,92L99,102.65A1.84,1.84,0,0,0,100.79,104.48Z"/><path class="b" d="M2.68,102.65a1.84,1.84,0,0,0,1.83,1.83H20.64a1.84,1.84,0,0,0,1.83-1.83Z"/><path class="b" d="M99,102.65a1.84,1.84,0,0,0,1.83,1.83h16.14a1.84,1.84,0,0,0,1.83-1.83Z"/><path class="e" d="M1.78,93.11h21.6c.19-1,.35-2,.51-3H1.26C1.42,91.12,1.59,92.1,1.78,93.11Z"/><path class="f" d="M.84,87.34c.13.92.26,1.85.42,2.81H23.89c.16-1,.29-1.89.42-2.81Z"/><path class="e" d="M98.06,93.11h21.6c.19-1,.36-2,.52-3H97.54C97.7,91.12,97.87,92.1,98.06,93.11Z"/><path class="f" d="M97.13,87.34c.12.92.26,1.85.41,2.81h22.64c.15-1,.29-1.89.41-2.81Z"/><path class="e" d="M.84,87.34H24.31c2.53-18.59-1.06-30.68-4.91-37.88H5.76C1.9,56.66-1.68,68.75.84,87.34Z"/><path class="f" d="M12.58,40.68s-3.51,2.59-6.82,8.78H19.4C16.08,43.27,12.58,40.68,12.58,40.68Z"/><path class="e" d="M97.13,87.34h23.46c2.53-18.59-1.06-30.68-4.91-37.88H102C98.19,56.66,94.6,68.75,97.13,87.34Z"/><path class="f" d="M108.86,40.68s-3.51,2.59-6.82,8.78h13.64C112.37,43.27,108.86,40.68,108.86,40.68Z"/><polygon class="e" points="86.47 96.67 98.27 115.87 82.63 115.87 86.47 96.67"/><polygon class="e" points="34.62 96.67 22.82 115.87 38.46 115.87 34.62 96.67"/><path class="d" d="M34.23,97.31s-2.79,13.44,2,18.56v-9Z"/><path class="d" d="M87.2,97.31s2.79,13.44-1.94,18.56v-9Z"/><path class="f" d="M60.72,0s-4.61,3.73-10,12.35h20C65.33,3.73,60.72,0,60.72,0Z"/><polygon class="c" points="39.83 121.91 37.36 132.15 84.46 132.15 81.17 121.91 39.83 121.91"/><path class="g" d="M37.72,125h46c.12-.68.23-1.34.35-2H37.38C37.49,123.68,37.6,124.34,37.72,125Z"/><path class="f" d="M37,120.54c.13.81.27,1.64.42,2.47H84.06c.14-.83.28-1.66.41-2.47Z"/><path class="g" d="M37,120.54H84.47C88,98.67,88.41,80.31,87,65H34.45C33,80.31,33.42,98.67,37,120.54Z"/><path class="g" d="M70.74,12.35h-20C44.63,22,37.55,37.8,34.83,61.37H86.6C83.88,37.8,76.8,22,70.74,12.35Z"/><path class="f" d="M34.83,61.37c-.14,1.2-.27,2.41-.38,3.66H87c-.12-1.25-.25-2.46-.39-3.66Z"/><path class="h" d="M60.72,25.33s13.93,1.26,18.41,28.81h.64c-3.57-32.1-19-33.47-19-33.47S45.23,22,41.66,54.14h.65C46.78,26.59,60.72,25.33,60.72,25.33Z"/><path class="i" d="M73.07,35.6c-.54-.93-1.08-1.77-1.63-2.54-10,4.66-16.93,21.08-16.93,21.08H57S64.85,38.1,73.07,35.6Z"/><path class="i" d="M66.65,28.08a12.91,12.91,0,0,0-5.93-2.75S46.78,26.59,42.31,54.14h7A52.26,52.26,0,0,1,66.65,28.08Z"/><path class="i" d="M74.31,37.91A32.66,32.66,0,0,0,59.59,54.14H79.13A58.07,58.07,0,0,0,74.31,37.91Z"/><path class="i" d="M71.44,33.06a23,23,0,0,0-4.79-5,52.26,52.26,0,0,0-17.3,26.06h5.16S61.46,37.72,71.44,33.06Z"/><path class="j" d="M71.44,33.06a23,23,0,0,0-4.79-5,52.26,52.26,0,0,0-17.3,26.06h5.16S61.46,37.72,71.44,33.06Z"/><path class="i" d="M74.31,37.91c-.41-.83-.82-1.59-1.24-2.31-8.22,2.5-16,18.54-16,18.54h2.56A32.66,32.66,0,0,1,74.31,37.91Z"/><path class="j" d="M74.31,37.91c-.41-.83-.82-1.59-1.24-2.31-8.22,2.5-16,18.54-16,18.54h2.56A32.66,32.66,0,0,1,74.31,37.91Z"/><path class="d" d="M42.31,54.14s.57-.14,1.58-.32,2.44-.42,4.17-.62a106.08,106.08,0,0,1,12.66-.7,106,106,0,0,1,12.65.7c1.73.19,3.17.43,4.17.61s1.59.33,1.59.33Z"/><polygon class="e" points="60.4 97.31 57.03 115.87 60.4 115.87 63.76 115.87 60.4 97.31"/><g class="k"><polygon class="l" points="60.4 115.87 63.76 115.87 60.4 97.31 60.4 115.87"/></g></svg>